<svg width="1680" height="104" viewBox="0 0 1680 104" fill="none" xmlns="http://www.w3.org/2000/svg">
<path d="M50.502 50.276C50.502 54.974 46.848 57.41 42.295 57.41H38.902V63.5H34.436V43.2H42.73C47.573 43.2 50.502 46.071 50.502 50.218V50.276ZM45.978 50.363V50.305C45.978 48.304 44.586 47.231 42.353 47.231H38.902V53.437H42.44C44.673 53.437 45.978 52.103 45.978 50.363ZM67.6077 63.5H63.1997V61.296C62.1847 62.601 60.8797 63.79 58.6467 63.79C55.3117 63.79 53.3687 61.586 53.3687 58.019V47.956H57.7767V56.627C57.7767 58.715 58.7627 59.788 60.4447 59.788C62.1267 59.788 63.1997 58.715 63.1997 56.627V47.956H67.6077V63.5ZM80.9201 52.277H80.6881C77.7591 52.277 75.9611 54.046 75.9611 57.758V63.5H71.5531V47.956H75.9611V51.088C76.8601 48.942 78.3101 47.55 80.9201 47.666V52.277ZM96.9373 61.006C95.4293 62.659 93.6893 63.848 90.5863 63.848C85.9173 63.848 82.4953 60.252 82.4953 55.815V55.757C82.4953 51.32 85.8883 47.666 90.6443 47.666C93.5733 47.666 95.4003 48.652 96.8503 50.276L94.1533 53.176C93.1673 52.132 92.1813 51.465 90.6153 51.465C88.4113 51.465 86.8453 53.408 86.8453 55.699V55.757C86.8453 58.135 88.3823 60.049 90.7893 60.049C92.2683 60.049 93.2833 59.411 94.3563 58.396L96.9373 61.006ZM114.056 63.5H109.648V54.829C109.648 52.741 108.662 51.668 106.98 51.668C105.298 51.668 104.225 52.741 104.225 54.829V63.5H99.8167V42.33H104.225V50.16C105.24 48.855 106.545 47.666 108.778 47.666C112.113 47.666 114.056 49.87 114.056 53.437V63.5ZM131.254 63.5H126.991V61.818C125.918 63.007 124.439 63.79 122.293 63.79C119.364 63.79 116.957 62.108 116.957 59.034V58.976C116.957 55.583 119.538 54.017 123.221 54.017C124.787 54.017 125.918 54.278 127.02 54.655V54.394C127.02 52.567 125.889 51.552 123.685 51.552C122.003 51.552 120.814 51.871 119.393 52.393L118.291 49.029C120.002 48.275 121.684 47.782 124.323 47.782C129.137 47.782 131.254 50.276 131.254 54.481V63.5ZM127.078 58.019V57.236C126.324 56.888 125.338 56.656 124.265 56.656C122.38 56.656 121.22 57.41 121.22 58.802V58.86C121.22 60.049 122.206 60.745 123.627 60.745C125.686 60.745 127.078 59.614 127.078 58.019ZM146.444 58.773C146.444 62.224 143.863 63.79 140.499 63.79C138.324 63.79 135.888 63.065 133.829 61.441L135.714 58.541C137.396 59.759 139.165 60.397 140.615 60.397C141.891 60.397 142.471 59.933 142.471 59.237V59.179C142.471 58.222 140.963 57.903 139.252 57.381C137.077 56.743 134.612 55.728 134.612 52.712V52.654C134.612 49.493 137.164 47.724 140.296 47.724C142.268 47.724 144.414 48.391 146.096 49.522L144.414 52.567C142.877 51.668 141.34 51.117 140.209 51.117C139.136 51.117 138.585 51.581 138.585 52.19V52.248C138.585 53.118 140.064 53.524 141.746 54.104C143.921 54.829 146.444 55.873 146.444 58.715V58.773ZM164.104 56.163C164.104 56.598 164.075 56.859 164.046 57.265H153.229C153.664 59.266 155.056 60.31 157.028 60.31C158.507 60.31 159.58 59.846 160.798 58.715L163.321 60.948C161.871 62.746 159.783 63.848 156.97 63.848C152.301 63.848 148.85 60.571 148.85 55.815V55.757C148.85 51.32 152.011 47.666 156.535 47.666C161.726 47.666 164.104 51.697 164.104 56.105V56.163ZM159.812 54.51C159.551 52.538 158.391 51.204 156.535 51.204C154.708 51.204 153.519 52.509 153.171 54.51H159.812ZM194.092 63.5H188.872L184.522 57.004H181.013V63.5H176.547V43.2H185.827C190.612 43.2 193.483 45.723 193.483 49.899V49.957C193.483 53.234 191.714 55.293 189.133 56.25L194.092 63.5ZM188.959 50.189V50.131C188.959 48.217 187.625 47.231 185.45 47.231H181.013V53.06H185.537C187.712 53.06 188.959 51.9 188.959 50.189ZM211.257 56.163C211.257 56.598 211.228 56.859 211.199 57.265H200.382C200.817 59.266 202.209 60.31 204.181 60.31C205.66 60.31 206.733 59.846 207.951 58.715L210.474 60.948C209.024 62.746 206.936 63.848 204.123 63.848C199.454 63.848 196.003 60.571 196.003 55.815V55.757C196.003 51.32 199.164 47.666 203.688 47.666C208.879 47.666 211.257 51.697 211.257 56.105V56.163ZM206.965 54.51C206.704 52.538 205.544 51.204 203.688 51.204C201.861 51.204 200.672 52.509 200.324 54.51H206.965ZM230.173 68.14H225.765V61.267C224.692 62.717 223.213 63.79 220.922 63.79C217.297 63.79 213.846 60.948 213.846 55.757V55.699C213.846 50.508 217.239 47.666 220.922 47.666C223.271 47.666 224.721 48.739 225.765 49.986V47.956H230.173V68.14ZM225.823 55.757V55.699C225.823 53.118 224.112 51.407 222.053 51.407C219.994 51.407 218.254 53.089 218.254 55.699V55.757C218.254 58.338 219.994 60.049 222.053 60.049C224.112 60.049 225.823 58.338 225.823 55.757ZM248.235 63.5H243.827V61.296C242.812 62.601 241.507 63.79 239.274 63.79C235.939 63.79 233.996 61.586 233.996 58.019V47.956H238.404V56.627C238.404 58.715 239.39 59.788 241.072 59.788C242.754 59.788 243.827 58.715 243.827 56.627V47.956H248.235V63.5ZM256.907 46.245H252.267V42.33H256.907V46.245ZM256.791 63.5H252.383V47.956H256.791V63.5ZM272.328 58.773C272.328 62.224 269.747 63.79 266.383 63.79C264.208 63.79 261.772 63.065 259.713 61.441L261.598 58.541C263.28 59.759 265.049 60.397 266.499 60.397C267.775 60.397 268.355 59.933 268.355 59.237V59.179C268.355 58.222 266.847 57.903 265.136 57.381C262.961 56.743 260.496 55.728 260.496 52.712V52.654C260.496 49.493 263.048 47.724 266.18 47.724C268.152 47.724 270.298 48.391 271.98 49.522L270.298 52.567C268.761 51.668 267.224 51.117 266.093 51.117C265.02 51.117 264.469 51.581 264.469 52.19V52.248C264.469 53.118 265.948 53.524 267.63 54.104C269.805 54.829 272.328 55.873 272.328 58.715V58.773ZM280.215 46.245H275.575V42.33H280.215V46.245ZM280.099 63.5H275.691V47.956H280.099V63.5ZM292.968 62.862C292.04 63.413 290.967 63.761 289.488 63.761C286.791 63.761 284.964 62.688 284.964 59.092V51.726H283.108V47.956H284.964V43.983H289.372V47.956H293.026V51.726H289.372V58.367C289.372 59.382 289.807 59.875 290.793 59.875C291.605 59.875 292.33 59.672 292.968 59.324V62.862ZM301.002 46.245H296.362V42.33H301.002V46.245ZM300.886 63.5H296.478V47.956H300.886V63.5ZM321.092 55.757C321.092 60.223 317.496 63.848 312.653 63.848C307.839 63.848 304.272 60.281 304.272 55.815V55.757C304.272 51.291 307.868 47.666 312.711 47.666C317.525 47.666 321.092 51.233 321.092 55.699V55.757ZM316.742 55.815V55.757C316.742 53.466 315.089 51.465 312.653 51.465C310.13 51.465 308.622 53.408 308.622 55.699V55.757C308.622 58.048 310.275 60.049 312.711 60.049C315.234 60.049 316.742 58.106 316.742 55.815ZM338.523 63.5H334.115V54.829C334.115 52.741 333.129 51.668 331.447 51.668C329.765 51.668 328.692 52.741 328.692 54.829V63.5H324.284V47.956H328.692V50.16C329.707 48.855 331.012 47.666 333.245 47.666C336.58 47.666 338.523 49.87 338.523 53.437V63.5ZM366.097 63.5H351.51V43.2H355.976V59.44H366.097V63.5ZM373.728 46.245H369.088V42.33H373.728V46.245ZM373.612 63.5H369.204V47.956H373.612V63.5ZM389.149 58.773C389.149 62.224 386.568 63.79 383.204 63.79C381.029 63.79 378.593 63.065 376.534 61.441L378.419 58.541C380.101 59.759 381.87 60.397 383.32 60.397C384.596 60.397 385.176 59.933 385.176 59.237V59.179C385.176 58.222 383.668 57.903 381.957 57.381C379.782 56.743 377.317 55.728 377.317 52.712V52.654C377.317 49.493 379.869 47.724 383.001 47.724C384.973 47.724 387.119 48.391 388.801 49.522L387.119 52.567C385.582 51.668 384.045 51.117 382.914 51.117C381.841 51.117 381.29 51.581 381.29 52.19V52.248C381.29 53.118 382.769 53.524 384.451 54.104C386.626 54.829 389.149 55.873 389.149 58.715V58.773ZM400.755 62.862C399.827 63.413 398.754 63.761 397.275 63.761C394.578 63.761 392.751 62.688 392.751 59.092V51.726H390.895V47.956H392.751V43.983H397.159V47.956H400.813V51.726H397.159V58.367C397.159 59.382 397.594 59.875 398.58 59.875C399.392 59.875 400.117 59.672 400.755 59.324V62.862Z" fill="#1E293B"/>
<path d="M678.5 36.5C678.5 34.2909 680.291 32.5 682.5 32.5H1154.5C1156.71 32.5 1158.5 34.2909 1158.5 36.5V67.5C1158.5 69.7091 1156.71 71.5 1154.5 71.5H682.5C680.291 71.5 678.5 69.7091 678.5 67.5V36.5Z" fill="#F9FAFC"/>
<path d="M708.417 55.835C706.764 55.835 705.364 55.2621 704.219 54.1162C703.074 52.9703 702.501 51.5708 702.5 49.9175C702.499 48.2642 703.072 46.8647 704.219 45.7188C705.365 44.5729 706.765 44 708.417 44C710.07 44 711.47 44.5729 712.617 45.7188C713.764 46.8647 714.337 48.2642 714.335 49.9175C714.335 50.5851 714.229 51.2148 714.016 51.8065C713.804 52.3983 713.516 52.9218 713.151 53.377L718.25 58.4751C718.417 58.642 718.5 58.8544 718.5 59.1124C718.5 59.3703 718.417 59.5827 718.25 59.7496C718.083 59.9165 717.87 60 717.612 60C717.354 60 717.142 59.9165 716.975 59.7496L711.877 54.6515C711.422 55.0156 710.898 55.3039 710.307 55.5164C709.715 55.7288 709.085 55.835 708.417 55.835ZM708.417 54.0142C709.555 54.0142 710.523 53.6161 711.32 52.8198C712.117 52.0235 712.515 51.0561 712.514 49.9175C712.514 48.7789 712.115 47.8118 711.32 47.0161C710.524 46.2204 709.557 45.822 708.417 45.8208C707.278 45.8196 706.311 46.218 705.516 47.0161C704.721 47.8142 704.323 48.7813 704.321 49.9175C704.319 51.0537 704.717 52.0211 705.516 52.8198C706.315 53.6185 707.282 54.0167 708.417 54.0142Z" fill="#A9ACB9"/>
<path d="M736.628 57.66C735.295 57.66 734.223 57.4893 733.412 57.148V55.612C733.871 55.7827 734.361 55.9213 734.884 56.028C735.417 56.1347 735.945 56.188 736.468 56.188C737.289 56.188 737.903 56.092 738.308 55.9C738.724 55.708 738.932 55.324 738.932 54.748C738.932 54.396 738.847 54.1133 738.676 53.9C738.505 53.6867 738.223 53.5053 737.828 53.356C737.433 53.196 736.889 53.0307 736.196 52.86C735.087 52.572 734.308 52.2093 733.86 51.772C733.412 51.324 733.188 50.7107 733.188 49.932C733.188 49.0253 733.519 48.316 734.18 47.804C734.841 47.292 735.828 47.036 737.14 47.036C737.737 47.036 738.297 47.0787 738.82 47.164C739.353 47.2493 739.769 47.3453 740.068 47.452V48.988C739.257 48.6787 738.361 48.524 737.38 48.524C736.612 48.524 736.015 48.6253 735.588 48.828C735.161 49.0307 734.948 49.3987 734.948 49.932C734.948 50.2413 735.023 50.492 735.172 50.684C735.321 50.876 735.577 51.0413 735.94 51.18C736.313 51.3187 736.825 51.4733 737.476 51.644C738.319 51.8573 738.969 52.1133 739.428 52.412C739.897 52.7 740.223 53.0413 740.404 53.436C740.596 53.82 740.692 54.2573 740.692 54.748C740.692 55.6547 740.356 56.3693 739.684 56.892C739.012 57.404 737.993 57.66 736.628 57.66ZM746.223 57.66C744.9 57.66 743.876 57.3347 743.151 56.684C742.426 56.0333 742.063 55.036 742.063 53.692C742.063 52.476 742.372 51.516 742.991 50.812C743.61 50.108 744.548 49.756 745.807 49.756C746.959 49.756 747.823 50.06 748.399 50.668C748.986 51.2653 749.279 52.0387 749.279 52.988V54.396H743.727C743.812 55.132 744.079 55.6387 744.527 55.916C744.975 56.1933 745.658 56.332 746.575 56.332C746.959 56.332 747.354 56.2947 747.759 56.22C748.164 56.1453 748.516 56.0493 748.815 55.932V57.212C748.474 57.3613 748.079 57.4733 747.631 57.548C747.194 57.6227 746.724 57.66 746.223 57.66ZM743.727 53.26H747.743V52.732C747.743 52.2093 747.599 51.804 747.311 51.516C747.023 51.2173 746.538 51.068 745.855 51.068C745.044 51.068 744.484 51.244 744.175 51.596C743.876 51.948 743.727 52.5027 743.727 53.26ZM753.345 57.66C752.865 57.66 752.417 57.5747 752.001 57.404C751.595 57.2333 751.27 56.9773 751.025 56.636C750.779 56.284 750.657 55.852 750.657 55.34C750.657 54.6147 750.902 54.0333 751.393 53.596C751.894 53.148 752.662 52.924 753.697 52.924H756.129V52.588C756.129 52.2253 756.07 51.9373 755.953 51.724C755.846 51.5107 755.643 51.356 755.345 51.26C755.057 51.164 754.63 51.116 754.065 51.116C753.169 51.116 752.331 51.2493 751.553 51.516V50.22C751.894 50.0813 752.31 49.9693 752.801 49.884C753.291 49.7987 753.819 49.756 754.385 49.756C755.494 49.756 756.337 49.98 756.913 50.428C757.499 50.876 757.793 51.6067 757.793 52.62V57.5H756.305L756.193 56.732C755.883 57.0307 755.499 57.26 755.041 57.42C754.593 57.58 754.027 57.66 753.345 57.66ZM753.809 56.412C754.331 56.412 754.785 56.3267 755.169 56.156C755.563 55.9747 755.883 55.7347 756.129 55.436V54.108H753.729C753.217 54.108 752.843 54.2093 752.609 54.412C752.385 54.604 752.273 54.9027 752.273 55.308C752.273 55.7027 752.406 55.9853 752.673 56.156C752.939 56.3267 753.318 56.412 753.809 56.412ZM759.727 57.5V49.916H761.327L761.423 50.796C761.785 50.5613 762.217 50.348 762.719 50.156C763.22 49.964 763.716 49.8307 764.207 49.756V51.084C763.908 51.1373 763.583 51.2173 763.231 51.324C762.889 51.42 762.564 51.532 762.255 51.66C761.945 51.7773 761.684 51.9 761.471 52.028V57.5H759.727ZM768.892 57.66C767.559 57.66 766.551 57.324 765.868 56.652C765.186 55.9693 764.844 54.988 764.844 53.708C764.844 52.3747 765.218 51.3827 765.964 50.732C766.722 50.0813 767.73 49.756 768.988 49.756C769.511 49.756 769.948 49.7933 770.3 49.868C770.663 49.9427 771.01 50.06 771.34 50.22V51.516C770.786 51.2387 770.114 51.1 769.324 51.1C768.45 51.1 767.778 51.2973 767.308 51.692C766.839 52.076 766.604 52.748 766.604 53.708C766.604 54.6147 766.812 55.2813 767.228 55.708C767.644 56.124 768.332 56.332 769.292 56.332C770.05 56.332 770.738 56.188 771.356 55.9V57.228C771.004 57.3667 770.626 57.4733 770.22 57.548C769.826 57.6227 769.383 57.66 768.892 57.66ZM772.742 57.5V46.716H774.486V50.652C774.817 50.3853 775.212 50.172 775.67 50.012C776.129 49.8413 776.646 49.756 777.222 49.756C778.182 49.756 778.892 49.9853 779.35 50.444C779.809 50.9027 780.038 51.6173 780.038 52.588V57.5H778.31V52.668C778.31 52.0813 778.182 51.6707 777.926 51.436C777.681 51.2013 777.249 51.084 776.63 51.084C776.246 51.084 775.857 51.1693 775.462 51.34C775.068 51.5 774.742 51.7133 774.486 51.98V57.5H772.742Z" fill="#A9ACB9"/>
<path d="M1130.41 52L1134.1 48.3044C1134.63 47.7772 1134.63 46.9225 1134.1 46.3954C1133.58 45.8682 1132.72 45.8682 1132.2 46.3954L1128.5 50.091L1124.8 46.3954C1124.28 45.8682 1123.42 45.8682 1122.9 46.3954C1122.37 46.9225 1122.37 47.7772 1122.9 48.3044L1126.59 52L1122.9 55.6956C1122.37 56.2228 1122.37 57.0775 1122.9 57.6046C1123.16 57.8682 1123.5 58 1123.85 58C1124.2 58 1124.54 57.8682 1124.8 57.6046L1128.5 53.909L1132.2 57.6046C1132.46 57.8682 1132.8 58 1133.15 58C1133.5 58 1133.84 57.8682 1134.1 57.6046C1134.63 57.0775 1134.63 56.2228 1134.1 55.6956L1130.41 52Z" fill="#A9ACB9"/>
<path d="M1434 36C1434 33.7909 1435.79 32 1438 32H1644C1646.21 32 1648 33.7909 1648 36V68C1648 70.2091 1646.21 72 1644 72H1438C1435.79 72 1434 70.2091 1434 68V36Z" fill="#1E293B"/>
<path d="M1457 51H1462V53H1457V58H1455V53H1450V51H1455V46H1457V51Z" fill="white"/>
<g clip-path="url(#clip0_1995_12370)">
<path d="M1471.38 57.5V47.196H1472.92L1478.3 54.78V47.196H1480.02V57.5H1478.49L1473.13 49.932V57.5H1471.38ZM1485.89 57.66C1484.57 57.66 1483.55 57.3347 1482.82 56.684C1482.1 56.0333 1481.73 55.036 1481.73 53.692C1481.73 52.476 1482.04 51.516 1482.66 50.812C1483.28 50.108 1484.22 49.756 1485.48 49.756C1486.63 49.756 1487.49 50.06 1488.07 50.668C1488.66 51.2653 1488.95 52.0387 1488.95 52.988V54.396H1483.4C1483.48 55.132 1483.75 55.6387 1484.2 55.916C1484.65 56.1933 1485.33 56.332 1486.25 56.332C1486.63 56.332 1487.03 56.2947 1487.43 56.22C1487.84 56.1453 1488.19 56.0493 1488.49 55.932V57.212C1488.15 57.3613 1487.75 57.4733 1487.3 57.548C1486.87 57.6227 1486.4 57.66 1485.89 57.66ZM1483.4 53.26H1487.41V52.732C1487.41 52.2093 1487.27 51.804 1486.98 51.516C1486.69 51.2173 1486.21 51.068 1485.53 51.068C1484.72 51.068 1484.16 51.244 1483.85 51.596C1483.55 51.948 1483.4 52.5027 1483.4 53.26ZM1491.61 57.5L1489.61 49.916H1491.35L1492.67 55.436L1494.15 50.844V49.916H1495.48L1497.13 55.436L1498.44 49.916H1500.17L1498.19 57.5H1496.54L1494.92 52.54L1493.27 57.5H1491.61ZM1505.55 57.5V47.196H1510.15C1510.94 47.196 1511.59 47.3453 1512.1 47.644C1512.61 47.9427 1512.99 48.3533 1513.23 48.876C1513.48 49.388 1513.6 49.9747 1513.6 50.636C1513.6 51.66 1513.28 52.4813 1512.64 53.1C1512.01 53.7187 1511.16 54.028 1510.08 54.028H1507.3V57.5H1505.55ZM1507.3 52.652H1509.76C1510.46 52.652 1510.98 52.4707 1511.33 52.108C1511.68 51.7453 1511.86 51.2547 1511.86 50.636C1511.86 49.9747 1511.69 49.4627 1511.35 49.1C1511.02 48.7373 1510.51 48.556 1509.84 48.556H1507.3V52.652ZM1517.73 57.66C1516.82 57.66 1516.12 57.4093 1515.63 56.908C1515.15 56.4067 1514.91 55.6707 1514.91 54.7V49.916H1516.66V54.7C1516.66 55.2653 1516.8 55.6813 1517.07 55.948C1517.35 56.2147 1517.78 56.348 1518.35 56.348C1518.78 56.348 1519.17 56.268 1519.54 56.108C1519.9 55.948 1520.21 55.7347 1520.48 55.468V49.916H1522.21V57.5H1520.62L1520.54 56.716C1520.2 56.9827 1519.8 57.2067 1519.33 57.388C1518.86 57.5693 1518.33 57.66 1517.73 57.66ZM1524.24 57.5V49.916H1525.84L1525.94 50.796C1526.3 50.5613 1526.73 50.348 1527.23 50.156C1527.74 49.964 1528.23 49.8307 1528.72 49.756V51.084C1528.42 51.1373 1528.1 51.2173 1527.75 51.324C1527.41 51.42 1527.08 51.532 1526.77 51.66C1526.46 51.7773 1526.2 51.9 1525.99 52.028V57.5H1524.24ZM1533.41 57.66C1532.07 57.66 1531.07 57.324 1530.38 56.652C1529.7 55.9693 1529.36 54.988 1529.36 53.708C1529.36 52.3747 1529.73 51.3827 1530.48 50.732C1531.24 50.0813 1532.25 49.756 1533.5 49.756C1534.03 49.756 1534.46 49.7933 1534.82 49.868C1535.18 49.9427 1535.53 50.06 1535.86 50.22V51.516C1535.3 51.2387 1534.63 51.1 1533.84 51.1C1532.97 51.1 1532.29 51.2973 1531.82 51.692C1531.35 52.076 1531.12 52.748 1531.12 53.708C1531.12 54.6147 1531.33 55.2813 1531.74 55.708C1532.16 56.124 1532.85 56.332 1533.81 56.332C1534.57 56.332 1535.25 56.188 1535.87 55.9V57.228C1535.52 57.3667 1535.14 57.4733 1534.74 57.548C1534.34 57.6227 1533.9 57.66 1533.41 57.66ZM1537.26 57.5V46.716H1539V50.652C1539.33 50.3853 1539.73 50.172 1540.19 50.012C1540.64 49.8413 1541.16 49.756 1541.74 49.756C1542.7 49.756 1543.41 49.9853 1543.87 50.444C1544.32 50.9027 1544.55 51.6173 1544.55 52.588V57.5H1542.83V52.668C1542.83 52.0813 1542.7 51.6707 1542.44 51.436C1542.2 51.2013 1541.76 51.084 1541.15 51.084C1540.76 51.084 1540.37 51.1693 1539.98 51.34C1539.58 51.5 1539.26 51.7133 1539 51.98V57.5H1537.26ZM1548.64 57.66C1548.16 57.66 1547.71 57.5747 1547.3 57.404C1546.89 57.2333 1546.57 56.9773 1546.32 56.636C1546.08 56.284 1545.95 55.852 1545.95 55.34C1545.95 54.6147 1546.2 54.0333 1546.69 53.596C1547.19 53.148 1547.96 52.924 1548.99 52.924H1551.43V52.588C1551.43 52.2253 1551.37 51.9373 1551.25 51.724C1551.14 51.5107 1550.94 51.356 1550.64 51.26C1550.35 51.164 1549.93 51.116 1549.36 51.116C1548.47 51.116 1547.63 51.2493 1546.85 51.516V50.22C1547.19 50.0813 1547.61 49.9693 1548.1 49.884C1548.59 49.7987 1549.12 49.756 1549.68 49.756C1550.79 49.756 1551.63 49.98 1552.21 50.428C1552.8 50.876 1553.09 51.6067 1553.09 52.62V57.5H1551.6L1551.49 56.732C1551.18 57.0307 1550.8 57.26 1550.34 57.42C1549.89 57.58 1549.32 57.66 1548.64 57.66ZM1549.11 56.412C1549.63 56.412 1550.08 56.3267 1550.47 56.156C1550.86 55.9747 1551.18 55.7347 1551.43 55.436V54.108H1549.03C1548.51 54.108 1548.14 54.2093 1547.91 54.412C1547.68 54.604 1547.57 54.9027 1547.57 55.308C1547.57 55.7027 1547.7 55.9853 1547.97 56.156C1548.24 56.3267 1548.61 56.412 1549.11 56.412ZM1557.55 57.66C1557.03 57.66 1556.53 57.6227 1556.05 57.548C1555.58 57.4733 1555.19 57.3827 1554.88 57.276V55.804C1555.24 55.9427 1555.64 56.0493 1556.08 56.124C1556.52 56.1987 1556.93 56.236 1557.33 56.236C1557.92 56.236 1558.35 56.1827 1558.61 56.076C1558.86 55.9693 1558.99 55.7613 1558.99 55.452C1558.99 55.228 1558.91 55.052 1558.75 54.924C1558.6 54.796 1558.37 54.6787 1558.06 54.572C1557.76 54.4653 1557.38 54.3373 1556.91 54.188C1556.46 54.0387 1556.07 53.8787 1555.74 53.708C1555.41 53.5267 1555.16 53.2973 1554.98 53.02C1554.79 52.7427 1554.7 52.38 1554.7 51.932C1554.7 51.2387 1554.95 50.7053 1555.46 50.332C1555.96 49.948 1556.76 49.756 1557.87 49.756C1558.31 49.756 1558.72 49.788 1559.12 49.852C1559.51 49.916 1559.85 49.996 1560.13 50.092V51.548C1559.83 51.4307 1559.5 51.34 1559.14 51.276C1558.78 51.212 1558.45 51.18 1558.14 51.18C1557.59 51.18 1557.17 51.228 1556.88 51.324C1556.6 51.42 1556.46 51.612 1556.46 51.9C1556.46 52.1987 1556.61 52.412 1556.9 52.54C1557.19 52.6573 1557.67 52.8227 1558.32 53.036C1558.92 53.2173 1559.39 53.4093 1559.74 53.612C1560.1 53.8147 1560.35 54.06 1560.5 54.348C1560.66 54.6253 1560.74 54.988 1560.74 55.436C1560.74 56.1827 1560.46 56.7427 1559.92 57.116C1559.38 57.4787 1558.59 57.66 1557.55 57.66ZM1566.05 57.66C1564.73 57.66 1563.7 57.3347 1562.98 56.684C1562.25 56.0333 1561.89 55.036 1561.89 53.692C1561.89 52.476 1562.2 51.516 1562.82 50.812C1563.44 50.108 1564.38 49.756 1565.64 49.756C1566.79 49.756 1567.65 50.06 1568.23 50.668C1568.81 51.2653 1569.11 52.0387 1569.11 52.988V54.396H1563.56C1563.64 55.132 1563.91 55.6387 1564.36 55.916C1564.8 56.1933 1565.49 56.332 1566.4 56.332C1566.79 56.332 1567.18 56.2947 1567.59 56.22C1567.99 56.1453 1568.34 56.0493 1568.64 55.932V57.212C1568.3 57.3613 1567.91 57.4733 1567.46 57.548C1567.02 57.6227 1566.55 57.66 1566.05 57.66ZM1563.56 53.26H1567.57V52.732C1567.57 52.2093 1567.43 51.804 1567.14 51.516C1566.85 51.2173 1566.37 51.068 1565.68 51.068C1564.87 51.068 1564.31 51.244 1564 51.596C1563.7 51.948 1563.56 52.5027 1563.56 53.26ZM1574.49 57.5V47.196H1579.23C1580.38 47.196 1581.22 47.4947 1581.74 48.092C1582.27 48.6787 1582.54 49.4787 1582.54 50.492C1582.54 51.2173 1582.36 51.836 1582 52.348C1581.63 52.86 1581.11 53.2173 1580.43 53.42C1580.62 53.5587 1580.77 53.708 1580.88 53.868C1580.98 54.028 1581.09 54.2413 1581.2 54.508L1582.49 57.5H1580.7L1579.44 54.62C1579.32 54.3427 1579.18 54.1453 1579 54.028C1578.84 53.9107 1578.57 53.852 1578.17 53.852H1576.24V57.5H1574.49ZM1576.24 52.444H1578.76C1579.39 52.444 1579.89 52.2893 1580.25 51.98C1580.62 51.6707 1580.8 51.1747 1580.8 50.492C1580.8 49.2013 1580.17 48.556 1578.92 48.556H1576.24V52.444ZM1587.86 57.66C1586.54 57.66 1585.52 57.3347 1584.79 56.684C1584.07 56.0333 1583.7 55.036 1583.7 53.692C1583.7 52.476 1584.01 51.516 1584.63 50.812C1585.25 50.108 1586.19 49.756 1587.45 49.756C1588.6 49.756 1589.46 50.06 1590.04 50.668C1590.63 51.2653 1590.92 52.0387 1590.92 52.988V54.396H1585.37C1585.45 55.132 1585.72 55.6387 1586.17 55.916C1586.62 56.1933 1587.3 56.332 1588.22 56.332C1588.6 56.332 1588.99 56.2947 1589.4 56.22C1589.8 56.1453 1590.16 56.0493 1590.46 55.932V57.212C1590.11 57.3613 1589.72 57.4733 1589.27 57.548C1588.83 57.6227 1588.36 57.66 1587.86 57.66ZM1585.37 53.26H1589.38V52.732C1589.38 52.2093 1589.24 51.804 1588.95 51.516C1588.66 51.2173 1588.18 51.068 1587.5 51.068C1586.68 51.068 1586.12 51.244 1585.82 51.596C1585.52 51.948 1585.37 52.5027 1585.37 53.26ZM1600.2 61.372C1599.53 61.372 1599.02 61.2013 1598.68 60.86C1598.34 60.5187 1598.17 59.9853 1598.17 59.26V57.02C1597.52 57.4467 1596.73 57.66 1595.82 57.66C1594.73 57.66 1593.87 57.3667 1593.24 56.78C1592.61 56.1827 1592.3 55.2013 1592.3 53.836C1592.3 52.4707 1592.61 51.452 1593.23 50.78C1593.85 50.0973 1594.7 49.756 1595.77 49.756C1596.32 49.756 1596.8 49.8307 1597.19 49.98C1597.6 50.1293 1597.97 50.3587 1598.31 50.668L1598.43 49.916H1599.91V59.132C1599.91 59.4627 1599.97 59.692 1600.07 59.82C1600.19 59.948 1600.41 60.012 1600.73 60.012C1600.84 60.012 1600.95 60.0013 1601.07 59.98C1601.19 59.9587 1601.31 59.9373 1601.4 59.916V61.18C1601.22 61.244 1601.04 61.292 1600.86 61.324C1600.68 61.356 1600.46 61.372 1600.2 61.372ZM1596.27 56.348C1596.68 56.348 1597.04 56.2893 1597.35 56.172C1597.66 56.044 1597.93 55.8787 1598.17 55.676V51.884C1597.65 51.3507 1597 51.084 1596.23 51.084C1595.45 51.084 1594.89 51.3187 1594.55 51.788C1594.22 52.2467 1594.06 52.924 1594.06 53.82C1594.06 54.7587 1594.24 55.4147 1594.6 55.788C1594.96 56.1613 1595.52 56.348 1596.27 56.348ZM1604.67 57.66C1603.76 57.66 1603.06 57.4093 1602.57 56.908C1602.09 56.4067 1601.85 55.6707 1601.85 54.7V49.916H1603.59V54.7C1603.59 55.2653 1603.73 55.6813 1604.01 55.948C1604.29 56.2147 1604.71 56.348 1605.29 56.348C1605.72 56.348 1606.11 56.268 1606.47 56.108C1606.84 55.948 1607.15 55.7347 1607.42 55.468V49.916H1609.15V57.5H1607.56L1607.48 56.716C1607.14 56.9827 1606.74 57.2067 1606.27 57.388C1605.8 57.5693 1605.26 57.66 1604.67 57.66ZM1615.02 57.66C1613.7 57.66 1612.67 57.3347 1611.95 56.684C1611.22 56.0333 1610.86 55.036 1610.86 53.692C1610.86 52.476 1611.17 51.516 1611.79 50.812C1612.41 50.108 1613.35 49.756 1614.6 49.756C1615.76 49.756 1616.62 50.06 1617.2 50.668C1617.78 51.2653 1618.08 52.0387 1618.08 52.988V54.396H1612.52C1612.61 55.132 1612.88 55.6387 1613.32 55.916C1613.77 56.1933 1614.45 56.332 1615.37 56.332C1615.76 56.332 1616.15 56.2947 1616.56 56.22C1616.96 56.1453 1617.31 56.0493 1617.61 55.932V57.212C1617.27 57.3613 1616.88 57.4733 1616.43 57.548C1615.99 57.6227 1615.52 57.66 1615.02 57.66ZM1612.52 53.26H1616.54V52.732C1616.54 52.2093 1616.4 51.804 1616.11 51.516C1615.82 51.2173 1615.33 51.068 1614.65 51.068C1613.84 51.068 1613.28 51.244 1612.97 51.596C1612.67 51.948 1612.52 52.5027 1612.52 53.26ZM1622.22 57.66C1621.7 57.66 1621.2 57.6227 1620.72 57.548C1620.25 57.4733 1619.86 57.3827 1619.55 57.276V55.804C1619.91 55.9427 1620.31 56.0493 1620.75 56.124C1621.19 56.1987 1621.6 56.236 1622 56.236C1622.6 56.236 1623.02 56.1827 1623.28 56.076C1623.54 55.9693 1623.66 55.7613 1623.66 55.452C1623.66 55.228 1623.58 55.052 1623.42 54.924C1623.27 54.796 1623.04 54.6787 1622.74 54.572C1622.44 54.4653 1622.05 54.3373 1621.58 54.188C1621.14 54.0387 1620.75 53.8787 1620.42 53.708C1620.08 53.5267 1619.83 53.2973 1619.65 53.02C1619.47 52.7427 1619.38 52.38 1619.38 51.932C1619.38 51.2387 1619.63 50.7053 1620.13 50.332C1620.63 49.948 1621.43 49.756 1622.54 49.756C1622.98 49.756 1623.4 49.788 1623.79 49.852C1624.19 49.916 1624.52 49.996 1624.8 50.092V51.548C1624.5 51.4307 1624.17 51.34 1623.81 51.276C1623.46 51.212 1623.12 51.18 1622.82 51.18C1622.26 51.18 1621.84 51.228 1621.55 51.324C1621.27 51.42 1621.14 51.612 1621.14 51.9C1621.14 52.1987 1621.28 52.412 1621.57 52.54C1621.87 52.6573 1622.34 52.8227 1622.99 53.036C1623.59 53.2173 1624.06 53.4093 1624.42 53.612C1624.77 53.8147 1625.02 54.06 1625.17 54.348C1625.33 54.6253 1625.41 54.988 1625.41 55.436C1625.41 56.1827 1625.14 56.7427 1624.59 57.116C1624.05 57.4787 1623.26 57.66 1622.22 57.66ZM1629.78 57.66C1628.97 57.66 1628.36 57.4467 1627.96 57.02C1627.56 56.5827 1627.36 55.9907 1627.36 55.244V51.276H1626.24V49.916H1627.36V48.172L1629.09 47.644V49.916H1631.11L1631 51.276H1629.09V55.148C1629.09 55.5853 1629.19 55.8947 1629.4 56.076C1629.6 56.2467 1629.93 56.332 1630.39 56.332C1630.68 56.332 1630.98 56.2787 1631.3 56.172V57.404C1630.88 57.5747 1630.38 57.66 1629.78 57.66Z" fill="white"/>
</g>
<defs>
<clipPath id="clip0_1995_12370">
<rect width="162" height="19" fill="white" transform="translate(1470 42.5)"/>
</clipPath>
</defs>
</svg>
