<svg width="96" height="24" viewBox="0 0 96 24" fill="none" xmlns="http://www.w3.org/2000/svg">
<path d="M0 12C0 5.37258 5.37258 0 12 0H84C90.6274 0 96 5.37258 96 12C96 18.6274 90.6274 24 84 24H12C5.37258 24 0 18.6274 0 12Z" fill="#C3EDC9"/>
<g clip-path="url(#clip0_799_4978)">
<path d="M17.88 15.68L23.52 10.04L22.4 8.92L17.88 13.44L15.6 11.16L14.48 12.28L17.88 15.68ZM19 20C17.8933 20 16.8533 19.7899 15.88 19.3696C14.9067 18.9493 14.06 18.3795 13.34 17.66C12.62 16.9405 12.0501 16.0939 11.6304 15.12C11.2107 14.1461 11.0005 13.1061 11 12C10.9995 10.8939 11.2096 9.85387 11.6304 8.88C12.0512 7.90613 12.6211 7.05947 13.34 6.34C14.0589 5.62053 14.9056 5.05067 15.88 4.6304C16.8544 4.21013 17.8944 4 19 4C20.1056 4 21.1456 4.21013 22.12 4.6304C23.0944 5.05067 23.9411 5.62053 24.66 6.34C25.3789 7.05947 25.9491 7.90613 26.3704 8.88C26.7917 9.85387 27.0016 10.8939 27 12C26.9984 13.1061 26.7883 14.1461 26.3696 15.12C25.9509 16.0939 25.3811 16.9405 24.66 17.66C23.9389 18.3795 23.0923 18.9496 22.12 19.3704C21.1477 19.7912 20.1077 20.0011 19 20ZM19 18.4C20.7867 18.4 22.3 17.78 23.54 16.54C24.78 15.3 25.4 13.7867 25.4 12C25.4 10.2133 24.78 8.7 23.54 7.46C22.3 6.22 20.7867 5.6 19 5.6C17.2133 5.6 15.7 6.22 14.46 7.46C13.22 8.7 12.6 10.2133 12.6 12C12.6 13.7867 13.22 15.3 14.46 16.54C15.7 17.78 17.2133 18.4 19 18.4Z" fill="#077D29"/>
</g>
<path d="M31.7428 16L34.6948 8.272H36.4708L39.4108 16H37.7308L36.9988 14.14H34.1548L33.4348 16H31.7428ZM34.3948 12.892H36.7588L35.5708 9.784L34.3948 12.892ZM40.5375 18.592V10.312H41.9415L42.0255 10.84C42.2735 10.632 42.5455 10.472 42.8415 10.36C43.1375 10.248 43.4855 10.192 43.8855 10.192C44.7175 10.192 45.3575 10.42 45.8055 10.876C46.2615 11.324 46.4895 12.06 46.4895 13.084C46.4895 14.108 46.2455 14.872 45.7575 15.376C45.2775 15.872 44.6215 16.12 43.7895 16.12C43.1495 16.12 42.6055 15.976 42.1575 15.688V18.592H40.5375ZM43.3815 14.932C43.8615 14.932 44.2255 14.784 44.4735 14.488C44.7215 14.192 44.8455 13.728 44.8455 13.096C44.8455 12.488 44.7335 12.052 44.5095 11.788C44.2855 11.516 43.9255 11.38 43.4295 11.38C42.9335 11.38 42.5095 11.552 42.1575 11.896V14.5C42.3255 14.628 42.5015 14.732 42.6855 14.812C42.8775 14.892 43.1095 14.932 43.3815 14.932ZM47.6156 18.592V10.312H49.0196L49.1036 10.84C49.3516 10.632 49.6236 10.472 49.9196 10.36C50.2156 10.248 50.5636 10.192 50.9636 10.192C51.7956 10.192 52.4356 10.42 52.8836 10.876C53.3396 11.324 53.5676 12.06 53.5676 13.084C53.5676 14.108 53.3236 14.872 52.8356 15.376C52.3556 15.872 51.6996 16.12 50.8676 16.12C50.2276 16.12 49.6836 15.976 49.2356 15.688V18.592H47.6156ZM50.4596 14.932C50.9396 14.932 51.3036 14.784 51.5516 14.488C51.7996 14.192 51.9236 13.728 51.9236 13.096C51.9236 12.488 51.8116 12.052 51.5876 11.788C51.3636 11.516 51.0036 11.38 50.5076 11.38C50.0116 11.38 49.5876 11.552 49.2356 11.896V14.5C49.4036 14.628 49.5796 14.732 49.7636 14.812C49.9556 14.892 50.1876 14.932 50.4596 14.932ZM54.6938 16V10.312H56.1938L56.2658 10.9C56.5218 10.74 56.8378 10.596 57.2138 10.468C57.5978 10.332 57.9738 10.24 58.3418 10.192V11.416C58.1258 11.448 57.8898 11.496 57.6338 11.56C57.3778 11.624 57.1338 11.696 56.9018 11.776C56.6698 11.856 56.4738 11.94 56.3138 12.028V16H54.6938ZM61.78 16.12C60.716 16.12 59.936 15.864 59.44 15.352C58.944 14.832 58.696 14.1 58.696 13.156C58.696 12.212 58.944 11.484 59.44 10.972C59.944 10.452 60.724 10.192 61.78 10.192C62.844 10.192 63.624 10.452 64.12 10.972C64.624 11.484 64.876 12.212 64.876 13.156C64.876 14.1 64.628 14.832 64.132 15.352C63.636 15.864 62.852 16.12 61.78 16.12ZM61.78 14.74C62.3 14.74 62.672 14.624 62.896 14.392C63.12 14.152 63.232 13.74 63.232 13.156C63.232 12.572 63.12 12.164 62.896 11.932C62.672 11.692 62.3 11.572 61.78 11.572C61.268 11.572 60.9 11.692 60.676 11.932C60.452 12.164 60.34 12.572 60.34 13.156C60.34 13.74 60.452 14.152 60.676 14.392C60.9 14.624 61.268 14.74 61.78 14.74ZM67.3501 16L65.1061 10.312H66.7981L68.2141 14.368L69.6421 10.312H71.3221L69.0901 16H67.3501ZM74.7671 16.12C73.7831 16.12 73.0031 15.876 72.4271 15.388C71.8511 14.892 71.5631 14.144 71.5631 13.144C71.5631 12.24 71.8031 11.524 72.2831 10.996C72.7711 10.46 73.4951 10.192 74.4551 10.192C75.3351 10.192 76.0071 10.424 76.4711 10.888C76.9431 11.344 77.1791 11.944 77.1791 12.688V13.72H73.0631C73.1511 14.176 73.3591 14.488 73.6871 14.656C74.0231 14.824 74.4951 14.908 75.1031 14.908C75.4071 14.908 75.7151 14.88 76.0271 14.824C76.3471 14.768 76.6191 14.696 76.8431 14.608V15.76C76.5791 15.88 76.2711 15.968 75.9191 16.024C75.5671 16.088 75.1831 16.12 74.7671 16.12ZM73.0631 12.724H75.7631V12.412C75.7631 12.084 75.6671 11.828 75.4751 11.644C75.2831 11.452 74.9591 11.356 74.5031 11.356C73.9671 11.356 73.5911 11.464 73.3751 11.68C73.1671 11.896 73.0631 12.244 73.0631 12.724ZM80.683 16.12C80.179 16.12 79.727 16.032 79.327 15.856C78.935 15.672 78.627 15.376 78.403 14.968C78.179 14.552 78.067 14.004 78.067 13.324C78.067 12.644 78.191 12.072 78.439 11.608C78.687 11.144 79.019 10.792 79.435 10.552C79.851 10.312 80.307 10.192 80.803 10.192C81.427 10.192 81.959 10.336 82.399 10.624V7.912H84.019V16H82.627L82.531 15.472C82.283 15.688 82.011 15.852 81.715 15.964C81.427 16.068 81.083 16.12 80.683 16.12ZM81.127 14.932C81.631 14.932 82.055 14.76 82.399 14.416V11.824C82.063 11.528 81.671 11.38 81.223 11.38C80.215 11.38 79.711 12.028 79.711 13.324C79.711 13.932 79.835 14.352 80.083 14.584C80.331 14.816 80.679 14.932 81.127 14.932Z" fill="#077D29"/>
<defs>
<clipPath id="clip0_799_4978">
<rect width="16" height="16" fill="white" transform="translate(11 4)"/>
</clipPath>
</defs>
</svg>
