<svg width="96" height="24" viewBox="0 0 96 24" fill="none" xmlns="http://www.w3.org/2000/svg">
<path d="M0 12C0 5.37258 5.37258 0 12 0H84C90.6274 0 96 5.37258 96 12C96 18.6274 90.6274 24 84 24H12C5.37258 24 0 18.6274 0 12Z" fill="#F5C5C6"/>
<g clip-path="url(#clip0_799_4977)">
<path d="M14.77 19C14.6271 19 14.4972 18.9645 14.3803 18.8934C14.2634 18.8224 14.1724 18.7283 14.1075 18.6111C14.0425 18.4939 14.0069 18.3674 14.0007 18.2315C13.9945 18.0957 14.0301 17.9629 14.1075 17.8333L21.3176 5.38889C21.3955 5.25926 21.4963 5.16204 21.62 5.09722C21.7437 5.03241 21.8702 5 21.9996 5C22.129 5 22.2558 5.03241 22.38 5.09722C22.5042 5.16204 22.6047 5.25926 22.6816 5.38889L29.8917 17.8333C29.9697 17.9629 30.0055 18.0959 29.9993 18.2323C29.9931 18.3687 29.9572 18.4949 29.8917 18.6111C29.8263 18.7272 29.7353 18.8213 29.6189 18.8934C29.5025 18.9655 29.3726 19.001 29.2292 19H14.77ZM21.9996 16.6666C22.2205 16.6666 22.4057 16.592 22.5554 16.4426C22.705 16.2933 22.7796 16.1087 22.7791 15.8889C22.7786 15.669 22.7037 15.4844 22.5546 15.3351C22.4055 15.1858 22.2205 15.1111 21.9996 15.1111C21.7788 15.1111 21.5938 15.1858 21.4446 15.3351C21.2955 15.4844 21.2207 15.669 21.2201 15.8889C21.2196 16.1087 21.2945 16.2936 21.4446 16.4434C21.5948 16.5933 21.7798 16.6677 21.9996 16.6666ZM21.9996 14.3333C22.2205 14.3333 22.4057 14.2587 22.5554 14.1093C22.705 13.96 22.7796 13.7754 22.7791 13.5555V11.2222C22.7791 11.0018 22.7043 10.8173 22.5546 10.6684C22.4049 10.5196 22.2199 10.445 21.9996 10.4444C21.7793 10.4439 21.5943 10.5186 21.4446 10.6684C21.295 10.8183 21.2201 11.0029 21.2201 11.2222V13.5555C21.2201 13.7759 21.295 13.9608 21.4446 14.1101C21.5943 14.2594 21.7793 14.3338 21.9996 14.3333Z" fill="#E64346"/>
</g>
<path d="M34.8656 16V8.272H38.5736C39.4616 8.272 40.1136 8.508 40.5296 8.98C40.9456 9.444 41.1536 10.072 41.1536 10.864C41.1536 11.384 41.0176 11.832 40.7456 12.208C40.4816 12.584 40.1056 12.856 39.6176 13.024C39.7456 13.128 39.8456 13.24 39.9176 13.36C39.9976 13.48 40.0776 13.64 40.1576 13.84L41.0936 16H39.4136L38.5016 13.924C38.4216 13.748 38.3336 13.624 38.2376 13.552C38.1416 13.48 37.9816 13.444 37.7576 13.444H36.4856V16H34.8656ZM36.4856 12.1H38.1536C38.5776 12.1 38.9096 12.008 39.1496 11.824C39.3896 11.632 39.5096 11.312 39.5096 10.864C39.5096 10.432 39.4056 10.116 39.1976 9.916C38.9896 9.716 38.6736 9.616 38.2496 9.616H36.4856V12.1ZM45.0718 16.12C44.0878 16.12 43.3078 15.876 42.7318 15.388C42.1558 14.892 41.8678 14.144 41.8678 13.144C41.8678 12.24 42.1078 11.524 42.5878 10.996C43.0758 10.46 43.7998 10.192 44.7598 10.192C45.6398 10.192 46.3118 10.424 46.7758 10.888C47.2478 11.344 47.4838 11.944 47.4838 12.688V13.72H43.3678C43.4558 14.176 43.6638 14.488 43.9918 14.656C44.3278 14.824 44.7998 14.908 45.4078 14.908C45.7118 14.908 46.0198 14.88 46.3318 14.824C46.6518 14.768 46.9238 14.696 47.1478 14.608V15.76C46.8838 15.88 46.5758 15.968 46.2238 16.024C45.8718 16.088 45.4878 16.12 45.0718 16.12ZM43.3678 12.724H46.0678V12.412C46.0678 12.084 45.9718 11.828 45.7798 11.644C45.5878 11.452 45.2638 11.356 44.8078 11.356C44.2718 11.356 43.8958 11.464 43.6798 11.68C43.4718 11.896 43.3678 12.244 43.3678 12.724ZM49.051 9.268V7.996H50.815V9.268H49.051ZM48.847 18.808C48.343 18.808 47.911 18.736 47.551 18.592V17.476C47.679 17.516 47.803 17.544 47.923 17.56C48.051 17.584 48.167 17.596 48.271 17.596C48.599 17.596 48.835 17.528 48.979 17.392C49.123 17.264 49.195 17.056 49.195 16.768V11.512H48.343L48.487 10.312H50.815V16.924C50.815 17.484 50.651 17.936 50.323 18.28C50.003 18.632 49.511 18.808 48.847 18.808ZM55.1617 16.12C54.1777 16.12 53.3977 15.876 52.8217 15.388C52.2457 14.892 51.9577 14.144 51.9577 13.144C51.9577 12.24 52.1977 11.524 52.6777 10.996C53.1657 10.46 53.8897 10.192 54.8497 10.192C55.7297 10.192 56.4017 10.424 56.8657 10.888C57.3377 11.344 57.5737 11.944 57.5737 12.688V13.72H53.4577C53.5457 14.176 53.7537 14.488 54.0817 14.656C54.4177 14.824 54.8897 14.908 55.4977 14.908C55.8017 14.908 56.1097 14.88 56.4217 14.824C56.7417 14.768 57.0137 14.696 57.2377 14.608V15.76C56.9737 15.88 56.6657 15.968 56.3137 16.024C55.9617 16.088 55.5777 16.12 55.1617 16.12ZM53.4577 12.724H56.1577V12.412C56.1577 12.084 56.0617 11.828 55.8697 11.644C55.6777 11.452 55.3537 11.356 54.8977 11.356C54.3617 11.356 53.9857 11.464 53.7697 11.68C53.5617 11.896 53.4577 12.244 53.4577 12.724ZM61.6056 16.12C60.5896 16.12 59.8096 15.868 59.2656 15.364C58.7296 14.86 58.4616 14.124 58.4616 13.156C58.4616 12.156 58.7496 11.412 59.3256 10.924C59.9096 10.436 60.6856 10.192 61.6536 10.192C62.0536 10.192 62.3976 10.22 62.6856 10.276C62.9736 10.332 63.2536 10.424 63.5256 10.552V11.716C63.3256 11.62 63.0936 11.544 62.8296 11.488C62.5656 11.432 62.2816 11.404 61.9776 11.404C61.3696 11.404 60.9056 11.532 60.5856 11.788C60.2656 12.036 60.1056 12.492 60.1056 13.156C60.1056 13.764 60.2496 14.208 60.5376 14.488C60.8336 14.768 61.3096 14.908 61.9656 14.908C62.2456 14.908 62.5176 14.88 62.7816 14.824C63.0536 14.768 63.3056 14.684 63.5376 14.572V15.772C63.0016 16.004 62.3576 16.12 61.6056 16.12ZM66.817 16.12C66.161 16.12 65.673 15.948 65.353 15.604C65.041 15.26 64.885 14.792 64.885 14.2V11.56H64.081V10.312H64.885V9.088L66.505 8.608V10.312H67.945L67.849 11.56H66.505V14.092C66.505 14.404 66.577 14.62 66.721 14.74C66.865 14.852 67.089 14.908 67.393 14.908C67.617 14.908 67.849 14.868 68.089 14.788V15.904C67.913 15.976 67.721 16.028 67.513 16.06C67.305 16.1 67.073 16.12 66.817 16.12ZM71.8843 16.12C70.9003 16.12 70.1203 15.876 69.5443 15.388C68.9683 14.892 68.6803 14.144 68.6803 13.144C68.6803 12.24 68.9203 11.524 69.4003 10.996C69.8883 10.46 70.6123 10.192 71.5723 10.192C72.4523 10.192 73.1243 10.424 73.5883 10.888C74.0603 11.344 74.2963 11.944 74.2963 12.688V13.72H70.1803C70.2683 14.176 70.4763 14.488 70.8043 14.656C71.1403 14.824 71.6123 14.908 72.2203 14.908C72.5243 14.908 72.8323 14.88 73.1443 14.824C73.4643 14.768 73.7363 14.696 73.9603 14.608V15.76C73.6963 15.88 73.3883 15.968 73.0363 16.024C72.6843 16.088 72.3003 16.12 71.8843 16.12ZM70.1803 12.724H72.8803V12.412C72.8803 12.084 72.7843 11.828 72.5923 11.644C72.4003 11.452 72.0763 11.356 71.6203 11.356C71.0843 11.356 70.7083 11.464 70.4923 11.68C70.2843 11.896 70.1803 12.244 70.1803 12.724ZM77.8002 16.12C77.2962 16.12 76.8442 16.032 76.4442 15.856C76.0522 15.672 75.7442 15.376 75.5202 14.968C75.2962 14.552 75.1842 14.004 75.1842 13.324C75.1842 12.644 75.3082 12.072 75.5562 11.608C75.8042 11.144 76.1362 10.792 76.5522 10.552C76.9682 10.312 77.4242 10.192 77.9202 10.192C78.5442 10.192 79.0762 10.336 79.5162 10.624V7.912H81.1362V16H79.7442L79.6482 15.472C79.4002 15.688 79.1282 15.852 78.8322 15.964C78.5442 16.068 78.2002 16.12 77.8002 16.12ZM78.2442 14.932C78.7482 14.932 79.1722 14.76 79.5162 14.416V11.824C79.1802 11.528 78.7882 11.38 78.3402 11.38C77.3322 11.38 76.8282 12.028 76.8282 13.324C76.8282 13.932 76.9522 14.352 77.2002 14.584C77.4482 14.816 77.7962 14.932 78.2442 14.932Z" fill="#B00B0E"/>
<defs>
<clipPath id="clip0_799_4977">
<rect width="16" height="14" fill="white" transform="translate(14 5)"/>
</clipPath>
</defs>
</svg>
