<svg width="990" height="362" viewBox="0 0 990 362" fill="none" xmlns="http://www.w3.org/2000/svg">
<g filter="url(#filter0_d_2275_15447)">
<path d="M21 13C21 10.7909 22.7909 9 25 9H965C967.209 9 969 10.7909 969 13V325C969 327.209 967.209 329 965 329H25C22.7909 329 21 327.209 21 325V13Z" fill="white" shape-rendering="crispEdges"/>
<path d="M25 9.5H965C966.933 9.5 968.5 11.067 968.5 13V325C968.5 326.933 966.933 328.5 965 328.5H25C23.067 328.5 21.5 326.933 21.5 325V13C21.5 11.067 23.067 9.5 25 9.5Z" stroke="#ECEDF1" shape-rendering="crispEdges"/>
<path d="M78.618 66H74.915L73.443 62.389H66.635L65.163 66H61.552L68.452 49.785H71.718L78.618 66ZM72.178 59.261L70.039 54.04L67.9 59.261H72.178ZM92.5479 66H89.0519V64.229C88.2009 65.379 87.0279 66.23 85.2109 66.23C82.3359 66.23 79.5989 63.976 79.5989 59.859V59.813C79.5989 55.696 82.2899 53.442 85.2109 53.442C87.0739 53.442 88.2239 54.293 89.0519 55.282V49.21H92.5479V66ZM89.0979 59.859V59.813C89.0979 57.766 87.7409 56.409 86.1079 56.409C84.4749 56.409 83.0949 57.743 83.0949 59.813V59.859C83.0949 61.906 84.4749 63.263 86.1079 63.263C87.7409 63.263 89.0979 61.906 89.0979 59.859ZM108.068 66H104.572V64.229C103.721 65.379 102.548 66.23 100.731 66.23C97.8564 66.23 95.1194 63.976 95.1194 59.859V59.813C95.1194 55.696 97.8104 53.442 100.731 53.442C102.594 53.442 103.744 54.293 104.572 55.282V49.21H108.068V66ZM104.618 59.859V59.813C104.618 57.766 103.261 56.409 101.628 56.409C99.9954 56.409 98.6154 57.743 98.6154 59.813V59.859C98.6154 61.906 99.9954 63.263 101.628 63.263C103.261 63.263 104.618 61.906 104.618 59.859ZM122.158 66H118.616V49.9H122.158V66ZM132.737 65.494C132.001 65.931 131.15 66.207 129.977 66.207C127.838 66.207 126.389 65.356 126.389 62.504V56.662H124.917V53.672H126.389V50.521H129.885V53.672H132.783V56.662H129.885V61.929C129.885 62.734 130.23 63.125 131.012 63.125C131.656 63.125 132.231 62.964 132.737 62.688V65.494ZM146.523 60.181C146.523 60.526 146.5 60.733 146.477 61.055H137.898C138.243 62.642 139.347 63.47 140.911 63.47C142.084 63.47 142.935 63.102 143.901 62.205L145.902 63.976C144.752 65.402 143.096 66.276 140.865 66.276C137.162 66.276 134.425 63.677 134.425 59.905V59.859C134.425 56.34 136.932 53.442 140.52 53.442C144.637 53.442 146.523 56.639 146.523 60.135V60.181ZM143.119 58.87C142.912 57.306 141.992 56.248 140.52 56.248C139.071 56.248 138.128 57.283 137.852 58.87H143.119ZM167.942 66H164.446V59.123C164.446 57.467 163.71 56.616 162.399 56.616C161.088 56.616 160.283 57.467 160.283 59.123V66H156.787V59.123C156.787 57.467 156.051 56.616 154.74 56.616C153.429 56.616 152.624 57.467 152.624 59.123V66H149.128V53.672H152.624V55.42C153.429 54.385 154.487 53.442 156.258 53.442C157.868 53.442 159.087 54.155 159.731 55.397C160.812 54.132 162.1 53.442 163.779 53.442C166.378 53.442 167.942 55.006 167.942 57.973V66ZM180.022 62.251C180.022 64.988 177.975 66.23 175.307 66.23C173.582 66.23 171.65 65.655 170.017 64.367L171.512 62.067C172.846 63.033 174.249 63.539 175.399 63.539C176.411 63.539 176.871 63.171 176.871 62.619V62.573C176.871 61.814 175.675 61.561 174.318 61.147C172.593 60.641 170.638 59.836 170.638 57.444V57.398C170.638 54.891 172.662 53.488 175.146 53.488C176.71 53.488 178.412 54.017 179.746 54.914L178.412 57.329C177.193 56.616 175.974 56.179 175.077 56.179C174.226 56.179 173.789 56.547 173.789 57.03V57.076C173.789 57.766 174.962 58.088 176.296 58.548C178.021 59.123 180.022 59.951 180.022 62.205V62.251Z" fill="#1E293B"/>
<path d="M79.6667 101H66.3333C65.597 101 65 101.597 65 102.333V115.667C65 116.403 65.597 117 66.3333 117H79.6667C80.403 117 81 116.403 81 115.667V102.333C81 101.597 80.403 101 79.6667 101Z" fill="#1E293B"/>
<path d="M73 105V113M69 109H77" stroke="white" stroke-width="2" stroke-linecap="round" stroke-linejoin="round"/>
<path d="M88.3994 114.66C87.9194 114.66 87.4714 114.575 87.0554 114.404C86.6501 114.233 86.3248 113.977 86.0794 113.636C85.8341 113.284 85.7114 112.852 85.7114 112.34C85.7114 111.615 85.9568 111.033 86.4474 110.596C86.9488 110.148 87.7168 109.924 88.7514 109.924H91.1834V109.588C91.1834 109.225 91.1248 108.937 91.0074 108.724C90.9008 108.511 90.6981 108.356 90.3994 108.26C90.1114 108.164 89.6848 108.116 89.1194 108.116C88.2234 108.116 87.3861 108.249 86.6074 108.516V107.22C86.9488 107.081 87.3648 106.969 87.8554 106.884C88.3461 106.799 88.8741 106.756 89.4394 106.756C90.5488 106.756 91.3914 106.98 91.9674 107.428C92.5541 107.876 92.8474 108.607 92.8474 109.62V114.5H91.3594L91.2474 113.732C90.9381 114.031 90.5541 114.26 90.0954 114.42C89.6474 114.58 89.0821 114.66 88.3994 114.66ZM88.8634 113.412C89.3861 113.412 89.8394 113.327 90.2234 113.156C90.6181 112.975 90.9381 112.735 91.1834 112.436V111.108H88.7834C88.2714 111.108 87.8981 111.209 87.6634 111.412C87.4394 111.604 87.3274 111.903 87.3274 112.308C87.3274 112.703 87.4608 112.985 87.7274 113.156C87.9941 113.327 88.3728 113.412 88.8634 113.412ZM97.9174 114.66C97.2348 114.66 96.6321 114.543 96.1094 114.308C95.5868 114.073 95.1814 113.684 94.8934 113.14C94.6054 112.596 94.4614 111.865 94.4614 110.948C94.4614 110.041 94.6161 109.279 94.9254 108.66C95.2348 108.031 95.6614 107.556 96.2054 107.236C96.7601 106.916 97.3841 106.756 98.0774 106.756C98.5361 106.756 98.9414 106.809 99.2934 106.916C99.6561 107.023 100.003 107.188 100.333 107.412V103.716H102.077V114.5H100.589L100.477 113.748C100.136 114.057 99.7628 114.287 99.3574 114.436C98.9521 114.585 98.4721 114.66 97.9174 114.66ZM98.3814 113.348C99.1601 113.348 99.8108 113.081 100.333 112.548V108.756C99.8321 108.308 99.2028 108.084 98.4454 108.084C97.7094 108.084 97.1548 108.329 96.7814 108.82C96.4081 109.311 96.2214 110.025 96.2214 110.964C96.2214 111.871 96.3921 112.495 96.7334 112.836C97.0854 113.177 97.6348 113.348 98.3814 113.348ZM107.074 114.66C106.391 114.66 105.788 114.543 105.266 114.308C104.743 114.073 104.338 113.684 104.05 113.14C103.762 112.596 103.618 111.865 103.618 110.948C103.618 110.041 103.772 109.279 104.082 108.66C104.391 108.031 104.818 107.556 105.362 107.236C105.916 106.916 106.54 106.756 107.234 106.756C107.692 106.756 108.098 106.809 108.45 106.916C108.812 107.023 109.159 107.188 109.49 107.412V103.716H111.234V114.5H109.746L109.634 113.748C109.292 114.057 108.919 114.287 108.514 114.436C108.108 114.585 107.628 114.66 107.074 114.66ZM107.538 113.348C108.316 113.348 108.967 113.081 109.49 112.548V108.756C108.988 108.308 108.359 108.084 107.602 108.084C106.866 108.084 106.311 108.329 105.938 108.82C105.564 109.311 105.378 110.025 105.378 110.964C105.378 111.871 105.548 112.495 105.89 112.836C106.242 113.177 106.791 113.348 107.538 113.348ZM116.938 114.5V104.196H121.53C122.319 104.196 122.97 104.345 123.482 104.644C123.994 104.943 124.372 105.353 124.618 105.876C124.863 106.388 124.986 106.975 124.986 107.636C124.986 108.66 124.666 109.481 124.026 110.1C123.396 110.719 122.543 111.028 121.466 111.028H118.682V114.5H116.938ZM118.682 109.652H121.146C121.839 109.652 122.362 109.471 122.714 109.108C123.066 108.745 123.242 108.255 123.242 107.636C123.242 106.975 123.071 106.463 122.73 106.1C122.399 105.737 121.898 105.556 121.226 105.556H118.682V109.652ZM126.375 114.5V104.196H130.967C131.757 104.196 132.407 104.345 132.919 104.644C133.431 104.943 133.81 105.353 134.055 105.876C134.301 106.388 134.423 106.975 134.423 107.636C134.423 108.66 134.103 109.481 133.463 110.1C132.834 110.719 131.981 111.028 130.903 111.028H128.119V114.5H126.375ZM128.119 109.652H130.583C131.277 109.652 131.799 109.471 132.151 109.108C132.503 108.745 132.679 108.255 132.679 107.636C132.679 106.975 132.509 106.463 132.167 106.1C131.837 105.737 131.335 105.556 130.663 105.556H128.119V109.652ZM138.933 114.66C137.599 114.66 136.527 114.489 135.717 114.148V112.612C136.175 112.783 136.666 112.921 137.189 113.028C137.722 113.135 138.25 113.188 138.773 113.188C139.594 113.188 140.207 113.092 140.613 112.9C141.029 112.708 141.237 112.324 141.237 111.748C141.237 111.396 141.151 111.113 140.981 110.9C140.81 110.687 140.527 110.505 140.133 110.356C139.738 110.196 139.194 110.031 138.501 109.86C137.391 109.572 136.613 109.209 136.165 108.772C135.717 108.324 135.493 107.711 135.493 106.932C135.493 106.025 135.823 105.316 136.485 104.804C137.146 104.292 138.133 104.036 139.445 104.036C140.042 104.036 140.602 104.079 141.125 104.164C141.658 104.249 142.074 104.345 142.373 104.452V105.988C141.562 105.679 140.666 105.524 139.685 105.524C138.917 105.524 138.319 105.625 137.893 105.828C137.466 106.031 137.253 106.399 137.253 106.932C137.253 107.241 137.327 107.492 137.477 107.684C137.626 107.876 137.882 108.041 138.245 108.18C138.618 108.319 139.13 108.473 139.781 108.644C140.623 108.857 141.274 109.113 141.733 109.412C142.202 109.7 142.527 110.041 142.709 110.436C142.901 110.82 142.997 111.257 142.997 111.748C142.997 112.655 142.661 113.369 141.989 113.892C141.317 114.404 140.298 114.66 138.933 114.66ZM149.015 105.332V103.892H150.919V105.332H149.015ZM149.159 114.5V108.244H148.007L148.167 106.916H150.903V114.5H149.159ZM155.834 114.66C155.023 114.66 154.415 114.447 154.01 114.02C153.615 113.583 153.418 112.991 153.418 112.244V108.276H152.298V106.916H153.418V105.172L155.146 104.644V106.916H157.162L157.05 108.276H155.146V112.148C155.146 112.585 155.247 112.895 155.45 113.076C155.652 113.247 155.983 113.332 156.442 113.332C156.73 113.332 157.034 113.279 157.354 113.172V114.404C156.938 114.575 156.431 114.66 155.834 114.66ZM162.528 114.66C161.205 114.66 160.181 114.335 159.456 113.684C158.73 113.033 158.368 112.036 158.368 110.692C158.368 109.476 158.677 108.516 159.296 107.812C159.914 107.108 160.853 106.756 162.112 106.756C163.264 106.756 164.128 107.06 164.704 107.668C165.29 108.265 165.584 109.039 165.584 109.988V111.396H160.032C160.117 112.132 160.384 112.639 160.832 112.916C161.28 113.193 161.962 113.332 162.88 113.332C163.264 113.332 163.658 113.295 164.064 113.22C164.469 113.145 164.821 113.049 165.12 112.932V114.212C164.778 114.361 164.384 114.473 163.936 114.548C163.498 114.623 163.029 114.66 162.528 114.66ZM160.032 110.26H164.048V109.732C164.048 109.209 163.904 108.804 163.616 108.516C163.328 108.217 162.842 108.068 162.16 108.068C161.349 108.068 160.789 108.244 160.48 108.596C160.181 108.948 160.032 109.503 160.032 110.26ZM167.281 114.5V106.916H168.881L168.961 107.716C169.335 107.417 169.745 107.183 170.193 107.012C170.641 106.841 171.121 106.756 171.633 106.756C172.177 106.756 172.599 106.847 172.897 107.028C173.207 107.199 173.441 107.439 173.601 107.748C173.953 107.46 174.359 107.225 174.817 107.044C175.276 106.852 175.825 106.756 176.465 106.756C177.34 106.756 177.985 106.98 178.401 107.428C178.817 107.876 179.025 108.564 179.025 109.492V114.5H177.313V109.668C177.313 109.081 177.191 108.671 176.945 108.436C176.7 108.201 176.3 108.084 175.745 108.084C175.383 108.084 175.036 108.148 174.705 108.276C174.385 108.404 174.108 108.596 173.873 108.852C173.905 108.969 173.927 109.092 173.937 109.22C173.948 109.348 173.953 109.487 173.953 109.636V114.5H172.337V109.684C172.337 109.129 172.241 108.724 172.049 108.468C171.857 108.212 171.495 108.084 170.961 108.084C170.588 108.084 170.231 108.175 169.889 108.356C169.559 108.527 169.26 108.735 168.993 108.98V114.5H167.281Z" fill="#1E293B"/>
<path d="M226.667 101H213.333C212.597 101 212 101.597 212 102.333V115.667C212 116.403 212.597 117 213.333 117H226.667C227.403 117 228 116.403 228 115.667V102.333C228 101.597 227.403 101 226.667 101Z" fill="#1E293B"/>
<path d="M220 105V113M216 109H224" stroke="white" stroke-width="2" stroke-linecap="round" stroke-linejoin="round"/>
<path d="M235.392 114.66C234.912 114.66 234.464 114.575 234.048 114.404C233.642 114.233 233.317 113.977 233.072 113.636C232.826 113.284 232.704 112.852 232.704 112.34C232.704 111.615 232.949 111.033 233.44 110.596C233.941 110.148 234.709 109.924 235.744 109.924H238.176V109.588C238.176 109.225 238.117 108.937 238 108.724C237.893 108.511 237.69 108.356 237.392 108.26C237.104 108.164 236.677 108.116 236.112 108.116C235.216 108.116 234.378 108.249 233.6 108.516V107.22C233.941 107.081 234.357 106.969 234.848 106.884C235.338 106.799 235.866 106.756 236.432 106.756C237.541 106.756 238.384 106.98 238.96 107.428C239.546 107.876 239.84 108.607 239.84 109.62V114.5H238.352L238.24 113.732C237.93 114.031 237.546 114.26 237.088 114.42C236.64 114.58 236.074 114.66 235.392 114.66ZM235.856 113.412C236.378 113.412 236.832 113.327 237.216 113.156C237.61 112.975 237.93 112.735 238.176 112.436V111.108H235.776C235.264 111.108 234.89 111.209 234.656 111.412C234.432 111.604 234.32 111.903 234.32 112.308C234.32 112.703 234.453 112.985 234.72 113.156C234.986 113.327 235.365 113.412 235.856 113.412ZM244.91 114.66C244.227 114.66 243.624 114.543 243.102 114.308C242.579 114.073 242.174 113.684 241.886 113.14C241.598 112.596 241.454 111.865 241.454 110.948C241.454 110.041 241.608 109.279 241.918 108.66C242.227 108.031 242.654 107.556 243.198 107.236C243.752 106.916 244.376 106.756 245.07 106.756C245.528 106.756 245.934 106.809 246.286 106.916C246.648 107.023 246.995 107.188 247.326 107.412V103.716H249.07V114.5H247.582L247.47 113.748C247.128 114.057 246.755 114.287 246.35 114.436C245.944 114.585 245.464 114.66 244.91 114.66ZM245.374 113.348C246.152 113.348 246.803 113.081 247.326 112.548V108.756C246.824 108.308 246.195 108.084 245.438 108.084C244.702 108.084 244.147 108.329 243.774 108.82C243.4 109.311 243.214 110.025 243.214 110.964C243.214 111.871 243.384 112.495 243.726 112.836C244.078 113.177 244.627 113.348 245.374 113.348ZM254.066 114.66C253.383 114.66 252.781 114.543 252.258 114.308C251.735 114.073 251.33 113.684 251.042 113.14C250.754 112.596 250.61 111.865 250.61 110.948C250.61 110.041 250.765 109.279 251.074 108.66C251.383 108.031 251.81 107.556 252.354 107.236C252.909 106.916 253.533 106.756 254.226 106.756C254.685 106.756 255.09 106.809 255.442 106.916C255.805 107.023 256.151 107.188 256.482 107.412V103.716H258.226V114.5H256.738L256.626 113.748C256.285 114.057 255.911 114.287 255.506 114.436C255.101 114.585 254.621 114.66 254.066 114.66ZM254.53 113.348C255.309 113.348 255.959 113.081 256.482 112.548V108.756C255.981 108.308 255.351 108.084 254.594 108.084C253.858 108.084 253.303 108.329 252.93 108.82C252.557 109.311 252.37 110.025 252.37 110.964C252.37 111.871 252.541 112.495 252.882 112.836C253.234 113.177 253.783 113.348 254.53 113.348ZM267.658 114.66C266.325 114.66 265.317 114.324 264.634 113.652C263.951 112.969 263.61 111.988 263.61 110.708C263.61 109.375 263.983 108.383 264.73 107.732C265.487 107.081 266.495 106.756 267.754 106.756C268.277 106.756 268.714 106.793 269.066 106.868C269.429 106.943 269.775 107.06 270.106 107.22V108.516C269.551 108.239 268.879 108.1 268.09 108.1C267.215 108.1 266.543 108.297 266.074 108.692C265.605 109.076 265.37 109.748 265.37 110.708C265.37 111.615 265.578 112.281 265.994 112.708C266.41 113.124 267.098 113.332 268.058 113.332C268.815 113.332 269.503 113.188 270.122 112.9V114.228C269.77 114.367 269.391 114.473 268.986 114.548C268.591 114.623 268.149 114.66 267.658 114.66ZM274.244 114.66C273.337 114.66 272.639 114.409 272.148 113.908C271.668 113.407 271.428 112.671 271.428 111.7V106.916H273.172V111.7C273.172 112.265 273.311 112.681 273.588 112.948C273.865 113.215 274.292 113.348 274.868 113.348C275.295 113.348 275.689 113.268 276.052 113.108C276.415 112.948 276.729 112.735 276.996 112.468V106.916H278.724V114.5H277.14L277.06 113.716C276.719 113.983 276.313 114.207 275.844 114.388C275.375 114.569 274.841 114.66 274.244 114.66ZM283.286 114.66C282.763 114.66 282.262 114.623 281.782 114.548C281.313 114.473 280.923 114.383 280.614 114.276V112.804C280.977 112.943 281.377 113.049 281.814 113.124C282.251 113.199 282.667 113.236 283.062 113.236C283.659 113.236 284.086 113.183 284.342 113.076C284.598 112.969 284.726 112.761 284.726 112.452C284.726 112.228 284.646 112.052 284.486 111.924C284.337 111.796 284.107 111.679 283.798 111.572C283.499 111.465 283.115 111.337 282.646 111.188C282.198 111.039 281.809 110.879 281.478 110.708C281.147 110.527 280.891 110.297 280.71 110.02C280.529 109.743 280.438 109.38 280.438 108.932C280.438 108.239 280.689 107.705 281.19 107.332C281.691 106.948 282.497 106.756 283.606 106.756C284.043 106.756 284.459 106.788 284.854 106.852C285.249 106.916 285.585 106.996 285.862 107.092V108.548C285.563 108.431 285.233 108.34 284.87 108.276C284.518 108.212 284.187 108.18 283.878 108.18C283.323 108.18 282.902 108.228 282.614 108.324C282.337 108.42 282.198 108.612 282.198 108.9C282.198 109.199 282.342 109.412 282.63 109.54C282.929 109.657 283.403 109.823 284.054 110.036C284.651 110.217 285.126 110.409 285.478 110.612C285.83 110.815 286.081 111.06 286.23 111.348C286.39 111.625 286.47 111.988 286.47 112.436C286.47 113.183 286.198 113.743 285.654 114.116C285.11 114.479 284.321 114.66 283.286 114.66ZM290.842 114.66C290.031 114.66 289.423 114.447 289.018 114.02C288.623 113.583 288.426 112.991 288.426 112.244V108.276H287.306V106.916H288.426V105.172L290.154 104.644V106.916H292.17L292.058 108.276H290.154V112.148C290.154 112.585 290.255 112.895 290.458 113.076C290.66 113.247 290.991 113.332 291.45 113.332C291.738 113.332 292.042 113.279 292.362 113.172V114.404C291.946 114.575 291.439 114.66 290.842 114.66ZM297.328 114.66C295.962 114.66 294.96 114.319 294.32 113.636C293.69 112.953 293.376 111.977 293.376 110.708C293.376 109.439 293.696 108.463 294.336 107.78C294.976 107.097 295.973 106.756 297.328 106.756C298.693 106.756 299.696 107.097 300.336 107.78C300.976 108.463 301.296 109.439 301.296 110.708C301.296 111.977 300.976 112.953 300.336 113.636C299.706 114.319 298.704 114.66 297.328 114.66ZM297.328 113.188C298.128 113.188 298.693 112.996 299.024 112.612C299.365 112.217 299.536 111.583 299.536 110.708C299.536 109.833 299.365 109.204 299.024 108.82C298.693 108.436 298.128 108.244 297.328 108.244C296.538 108.244 295.973 108.436 295.632 108.82C295.301 109.204 295.136 109.833 295.136 110.708C295.136 111.583 295.301 112.217 295.632 112.612C295.973 112.996 296.538 113.188 297.328 113.188ZM302.992 114.5V106.916H304.592L304.672 107.716C305.046 107.417 305.456 107.183 305.904 107.012C306.352 106.841 306.832 106.756 307.344 106.756C307.888 106.756 308.31 106.847 308.608 107.028C308.918 107.199 309.152 107.439 309.312 107.748C309.664 107.46 310.07 107.225 310.528 107.044C310.987 106.852 311.536 106.756 312.176 106.756C313.051 106.756 313.696 106.98 314.112 107.428C314.528 107.876 314.736 108.564 314.736 109.492V114.5H313.024V109.668C313.024 109.081 312.902 108.671 312.656 108.436C312.411 108.201 312.011 108.084 311.456 108.084C311.094 108.084 310.747 108.148 310.416 108.276C310.096 108.404 309.819 108.596 309.584 108.852C309.616 108.969 309.638 109.092 309.648 109.22C309.659 109.348 309.664 109.487 309.664 109.636V114.5H308.048V109.684C308.048 109.129 307.952 108.724 307.76 108.468C307.568 108.212 307.206 108.084 306.672 108.084C306.299 108.084 305.942 108.175 305.6 108.356C305.27 108.527 304.971 108.735 304.704 108.98V114.5H302.992ZM321.023 105.332V103.892H322.927V105.332H321.023ZM321.167 114.5V108.244H320.015L320.175 106.916H322.911V114.5H321.167ZM327.842 114.66C327.031 114.66 326.423 114.447 326.018 114.02C325.623 113.583 325.426 112.991 325.426 112.244V108.276H324.306V106.916H325.426V105.172L327.154 104.644V106.916H329.17L329.058 108.276H327.154V112.148C327.154 112.585 327.255 112.895 327.458 113.076C327.66 113.247 327.991 113.332 328.45 113.332C328.738 113.332 329.042 113.279 329.362 113.172V114.404C328.946 114.575 328.439 114.66 327.842 114.66ZM334.536 114.66C333.213 114.66 332.189 114.335 331.464 113.684C330.738 113.033 330.376 112.036 330.376 110.692C330.376 109.476 330.685 108.516 331.304 107.812C331.922 107.108 332.861 106.756 334.12 106.756C335.272 106.756 336.136 107.06 336.712 107.668C337.298 108.265 337.592 109.039 337.592 109.988V111.396H332.039C332.125 112.132 332.392 112.639 332.84 112.916C333.288 113.193 333.97 113.332 334.888 113.332C335.272 113.332 335.666 113.295 336.072 113.22C336.477 113.145 336.829 113.049 337.128 112.932V114.212C336.786 114.361 336.392 114.473 335.944 114.548C335.506 114.623 335.037 114.66 334.536 114.66ZM332.039 110.26H336.056V109.732C336.056 109.209 335.912 108.804 335.624 108.516C335.336 108.217 334.85 108.068 334.168 108.068C333.357 108.068 332.797 108.244 332.488 108.596C332.189 108.948 332.039 109.503 332.039 110.26ZM339.289 114.5V106.916H340.889L340.969 107.716C341.343 107.417 341.753 107.183 342.201 107.012C342.649 106.841 343.129 106.756 343.641 106.756C344.185 106.756 344.607 106.847 344.905 107.028C345.215 107.199 345.449 107.439 345.609 107.748C345.961 107.46 346.367 107.225 346.825 107.044C347.284 106.852 347.833 106.756 348.473 106.756C349.348 106.756 349.993 106.98 350.409 107.428C350.825 107.876 351.033 108.564 351.033 109.492V114.5H349.321V109.668C349.321 109.081 349.199 108.671 348.953 108.436C348.708 108.201 348.308 108.084 347.753 108.084C347.391 108.084 347.044 108.148 346.713 108.276C346.393 108.404 346.116 108.596 345.881 108.852C345.913 108.969 345.935 109.092 345.945 109.22C345.956 109.348 345.961 109.487 345.961 109.636V114.5H344.345V109.684C344.345 109.129 344.249 108.724 344.057 108.468C343.865 108.212 343.503 108.084 342.969 108.084C342.596 108.084 342.239 108.175 341.897 108.356C341.567 108.527 341.268 108.735 341.001 108.98V114.5H339.289Z" fill="#1E293B"/>
<path d="M61.912 154.5V144.196H66.744C67.5547 144.196 68.216 144.351 68.728 144.66C69.2507 144.969 69.64 145.391 69.896 145.924C70.152 146.457 70.28 147.065 70.28 147.748C70.28 148.441 70.1307 149.055 69.832 149.588C69.544 150.121 69.128 150.537 68.584 150.836C68.0507 151.124 67.416 151.268 66.68 151.268H64.072V154.5H61.912ZM64.072 149.556H66.232C66.8507 149.556 67.3147 149.396 67.624 149.076C67.944 148.745 68.104 148.303 68.104 147.748C68.104 147.151 67.9547 146.697 67.656 146.388C67.3573 146.068 66.9093 145.908 66.312 145.908H64.072V149.556ZM71.4745 154.5V144.196H73.3465L78.2265 151.06V144.196H80.3865V154.5H78.5145L73.6345 147.636V154.5H71.4745Z" fill="#1E293B"/>
<path d="M102 129.5H202.5V168.5H102C100.067 168.5 98.5 166.933 98.5 165V133C98.5 131.067 100.067 129.5 102 129.5Z" fill="white"/>
<path d="M102 129.5H202.5V168.5H102C100.067 168.5 98.5 166.933 98.5 165V133C98.5 131.067 100.067 129.5 102 129.5Z" stroke="#ECEDF1"/>
<path d="M109.536 155.16C109.013 155.16 108.512 155.123 108.032 155.048C107.563 154.973 107.173 154.883 106.864 154.776V153.304C107.227 153.443 107.627 153.549 108.064 153.624C108.501 153.699 108.917 153.736 109.312 153.736C109.909 153.736 110.336 153.683 110.592 153.576C110.848 153.469 110.976 153.261 110.976 152.952C110.976 152.728 110.896 152.552 110.736 152.424C110.587 152.296 110.357 152.179 110.048 152.072C109.749 151.965 109.365 151.837 108.896 151.688C108.448 151.539 108.059 151.379 107.728 151.208C107.397 151.027 107.141 150.797 106.96 150.52C106.779 150.243 106.688 149.88 106.688 149.432C106.688 148.739 106.939 148.205 107.44 147.832C107.941 147.448 108.747 147.256 109.856 147.256C110.293 147.256 110.709 147.288 111.104 147.352C111.499 147.416 111.835 147.496 112.112 147.592V149.048C111.813 148.931 111.483 148.84 111.12 148.776C110.768 148.712 110.437 148.68 110.128 148.68C109.573 148.68 109.152 148.728 108.864 148.824C108.587 148.92 108.448 149.112 108.448 149.4C108.448 149.699 108.592 149.912 108.88 150.04C109.179 150.157 109.653 150.323 110.304 150.536C110.901 150.717 111.376 150.909 111.728 151.112C112.08 151.315 112.331 151.56 112.48 151.848C112.64 152.125 112.72 152.488 112.72 152.936C112.72 153.683 112.448 154.243 111.904 154.616C111.36 154.979 110.571 155.16 109.536 155.16ZM118.036 155.16C116.713 155.16 115.689 154.835 114.964 154.184C114.238 153.533 113.876 152.536 113.876 151.192C113.876 149.976 114.185 149.016 114.804 148.312C115.422 147.608 116.361 147.256 117.62 147.256C118.772 147.256 119.636 147.56 120.212 148.168C120.798 148.765 121.092 149.539 121.092 150.488V151.896H115.539C115.625 152.632 115.892 153.139 116.34 153.416C116.788 153.693 117.47 153.832 118.388 153.832C118.772 153.832 119.166 153.795 119.572 153.72C119.977 153.645 120.329 153.549 120.628 153.432V154.712C120.286 154.861 119.892 154.973 119.444 155.048C119.006 155.123 118.537 155.16 118.036 155.16ZM115.539 150.76H119.556V150.232C119.556 149.709 119.412 149.304 119.124 149.016C118.836 148.717 118.35 148.568 117.668 148.568C116.857 148.568 116.297 148.744 115.988 149.096C115.689 149.448 115.539 150.003 115.539 150.76ZM125.157 155.16C124.677 155.16 124.229 155.075 123.813 154.904C123.408 154.733 123.083 154.477 122.837 154.136C122.592 153.784 122.469 153.352 122.469 152.84C122.469 152.115 122.715 151.533 123.205 151.096C123.707 150.648 124.475 150.424 125.509 150.424H127.941V150.088C127.941 149.725 127.883 149.437 127.765 149.224C127.659 149.011 127.456 148.856 127.157 148.76C126.869 148.664 126.443 148.616 125.877 148.616C124.981 148.616 124.144 148.749 123.365 149.016V147.72C123.707 147.581 124.123 147.469 124.613 147.384C125.104 147.299 125.632 147.256 126.197 147.256C127.307 147.256 128.149 147.48 128.725 147.928C129.312 148.376 129.605 149.107 129.605 150.12V155H128.117L128.005 154.232C127.696 154.531 127.312 154.76 126.853 154.92C126.405 155.08 125.84 155.16 125.157 155.16ZM125.621 153.912C126.144 153.912 126.597 153.827 126.981 153.656C127.376 153.475 127.696 153.235 127.941 152.936V151.608H125.541C125.029 151.608 124.656 151.709 124.421 151.912C124.197 152.104 124.085 152.403 124.085 152.808C124.085 153.203 124.219 153.485 124.485 153.656C124.752 153.827 125.131 153.912 125.621 153.912ZM131.539 155V147.416H133.139L133.235 148.296C133.598 148.061 134.03 147.848 134.531 147.656C135.033 147.464 135.529 147.331 136.019 147.256V148.584C135.721 148.637 135.395 148.717 135.043 148.824C134.702 148.92 134.377 149.032 134.067 149.16C133.758 149.277 133.497 149.4 133.283 149.528V155H131.539ZM140.705 155.16C139.371 155.16 138.363 154.824 137.681 154.152C136.998 153.469 136.657 152.488 136.657 151.208C136.657 149.875 137.03 148.883 137.777 148.232C138.534 147.581 139.542 147.256 140.801 147.256C141.323 147.256 141.761 147.293 142.113 147.368C142.475 147.443 142.822 147.56 143.153 147.72V149.016C142.598 148.739 141.926 148.6 141.137 148.6C140.262 148.6 139.59 148.797 139.121 149.192C138.651 149.576 138.417 150.248 138.417 151.208C138.417 152.115 138.625 152.781 139.041 153.208C139.457 153.624 140.145 153.832 141.105 153.832C141.862 153.832 142.55 153.688 143.169 153.4V154.728C142.817 154.867 142.438 154.973 142.033 155.048C141.638 155.123 141.195 155.16 140.705 155.16ZM144.555 155V144.216H146.299V148.152C146.63 147.885 147.024 147.672 147.483 147.512C147.942 147.341 148.459 147.256 149.035 147.256C149.995 147.256 150.704 147.485 151.163 147.944C151.622 148.403 151.851 149.117 151.851 150.088V155H150.123V150.168C150.123 149.581 149.995 149.171 149.739 148.936C149.494 148.701 149.062 148.584 148.443 148.584C148.059 148.584 147.67 148.669 147.275 148.84C146.88 149 146.555 149.213 146.299 149.48V155H144.555Z" fill="#A9ACB9"/>
<mask id="path-15-inside-1_2275_15447" fill="white">
<path d="M203 129H278C280.209 129 282 130.791 282 133V165C282 167.209 280.209 169 278 169H203V129Z"/>
</mask>
<path d="M203 129H278C280.209 129 282 130.791 282 133V165C282 167.209 280.209 169 278 169H203V129Z" fill="white"/>
<path d="M203 128H278C280.761 128 283 130.239 283 133H281C281 131.343 279.657 130 278 130H203V128ZM283 165C283 167.761 280.761 170 278 170H203V168H278C279.657 168 281 166.657 281 165H283ZM203 169V129V169ZM278 128C280.761 128 283 130.239 283 133V165C283 167.761 280.761 170 278 170V168C279.657 168 281 166.657 281 165V133C281 131.343 279.657 130 278 130V128Z" fill="#ECEDF1" mask="url(#path-15-inside-1_2275_15447)"/>
<path d="M211.912 154.5V144.196H216.856C218.04 144.196 218.909 144.511 219.464 145.14C220.019 145.759 220.296 146.596 220.296 147.652C220.296 148.345 220.115 148.943 219.752 149.444C219.4 149.945 218.899 150.308 218.248 150.532C218.419 150.671 218.552 150.82 218.648 150.98C218.755 151.14 218.861 151.353 218.968 151.62L220.216 154.5H217.976L216.76 151.732C216.653 151.497 216.536 151.332 216.408 151.236C216.28 151.14 216.067 151.092 215.768 151.092H214.072V154.5H211.912ZM214.072 149.3H216.296C216.861 149.3 217.304 149.177 217.624 148.932C217.944 148.676 218.104 148.249 218.104 147.652C218.104 147.076 217.965 146.655 217.688 146.388C217.411 146.121 216.989 145.988 216.424 145.988H214.072V149.3ZM225.52 154.66C224.208 154.66 223.168 154.335 222.4 153.684C221.632 153.023 221.248 152.025 221.248 150.692C221.248 149.487 221.568 148.532 222.208 147.828C222.859 147.113 223.824 146.756 225.104 146.756C226.278 146.756 227.174 147.065 227.792 147.684C228.422 148.292 228.736 149.092 228.736 150.084V151.46H223.248C223.366 152.068 223.643 152.484 224.08 152.708C224.528 152.932 225.158 153.044 225.968 153.044C226.374 153.044 226.784 153.007 227.2 152.932C227.627 152.857 227.99 152.761 228.288 152.644V154.18C227.936 154.34 227.526 154.457 227.056 154.532C226.587 154.617 226.075 154.66 225.52 154.66ZM223.248 150.132H226.848V149.716C226.848 149.279 226.72 148.937 226.464 148.692C226.208 148.436 225.776 148.308 225.168 148.308C224.454 148.308 223.952 148.452 223.664 148.74C223.387 149.028 223.248 149.492 223.248 150.132ZM232.037 154.5L229.045 146.916H231.301L233.189 152.324L235.093 146.916H237.333L234.357 154.5H232.037Z" fill="#1E293B"/>
<path d="M252.946 151.368V150.008H259.058V151.368H252.946Z" fill="#1E293B"/>
<path d="M314.912 154.5V144.196H319.232C320.779 144.196 321.941 144.596 322.72 145.396C323.509 146.185 323.904 147.519 323.904 149.396C323.904 151.167 323.515 152.463 322.736 153.284C321.968 154.095 320.8 154.5 319.232 154.5H314.912ZM317.072 152.836H318.928C319.536 152.836 320.048 152.745 320.464 152.564C320.88 152.372 321.189 152.031 321.392 151.54C321.605 151.039 321.712 150.324 321.712 149.396C321.712 148.468 321.616 147.759 321.424 147.268C321.232 146.777 320.933 146.441 320.528 146.26C320.123 146.079 319.589 145.988 318.928 145.988H317.072V152.836ZM329.364 154.66C328.052 154.66 327.012 154.335 326.244 153.684C325.476 153.023 325.092 152.025 325.092 150.692C325.092 149.487 325.412 148.532 326.052 147.828C326.703 147.113 327.668 146.756 328.948 146.756C330.121 146.756 331.017 147.065 331.636 147.684C332.265 148.292 332.58 149.092 332.58 150.084V151.46H327.092C327.209 152.068 327.487 152.484 327.924 152.708C328.372 152.932 329.001 153.044 329.812 153.044C330.217 153.044 330.628 153.007 331.044 152.932C331.471 152.857 331.833 152.761 332.132 152.644V154.18C331.78 154.34 331.369 154.457 330.9 154.532C330.431 154.617 329.919 154.66 329.364 154.66ZM327.092 150.132H330.692V149.716C330.692 149.279 330.564 148.937 330.308 148.692C330.052 148.436 329.62 148.308 329.012 148.308C328.297 148.308 327.796 148.452 327.508 148.74C327.231 149.028 327.092 149.492 327.092 150.132ZM336.678 154.66C336.112 154.66 335.574 154.617 335.062 154.532C334.55 154.457 334.139 154.361 333.83 154.244V152.452C334.203 152.601 334.624 152.719 335.094 152.804C335.563 152.879 335.995 152.916 336.39 152.916C336.923 152.916 337.296 152.884 337.51 152.82C337.734 152.756 337.846 152.612 337.846 152.388C337.846 152.132 337.675 151.945 337.334 151.828C337.003 151.711 336.507 151.545 335.846 151.332C335.152 151.097 334.619 150.815 334.246 150.484C333.872 150.153 333.686 149.663 333.686 149.012C333.686 148.287 333.947 147.732 334.47 147.348C335.003 146.953 335.856 146.756 337.03 146.756C337.499 146.756 337.942 146.793 338.358 146.868C338.774 146.932 339.126 147.012 339.414 147.108V148.884C339.126 148.745 338.795 148.644 338.422 148.58C338.048 148.505 337.702 148.468 337.382 148.468C336.923 148.468 336.555 148.5 336.278 148.564C336.011 148.628 335.878 148.767 335.878 148.98C335.878 149.215 336.022 149.38 336.31 149.476C336.608 149.572 337.067 149.716 337.686 149.908C338.294 150.089 338.768 150.287 339.11 150.5C339.451 150.713 339.691 150.969 339.83 151.268C339.968 151.556 340.038 151.919 340.038 152.356C340.038 153.892 338.918 154.66 336.678 154.66ZM345.175 154.66C343.82 154.66 342.78 154.324 342.055 153.652C341.34 152.98 340.983 151.999 340.983 150.708C340.983 149.375 341.367 148.383 342.135 147.732C342.913 147.081 343.948 146.756 345.239 146.756C345.772 146.756 346.231 146.793 346.615 146.868C346.999 146.943 347.372 147.065 347.735 147.236V148.788C347.468 148.66 347.159 148.559 346.807 148.484C346.455 148.409 346.076 148.372 345.671 148.372C344.86 148.372 344.241 148.543 343.815 148.884C343.388 149.215 343.175 149.823 343.175 150.708C343.175 151.519 343.367 152.111 343.751 152.484C344.145 152.857 344.78 153.044 345.655 153.044C346.028 153.044 346.391 153.007 346.743 152.932C347.105 152.857 347.441 152.745 347.751 152.596V154.196C347.036 154.505 346.177 154.66 345.175 154.66ZM349.115 154.5V146.916H351.115L351.211 147.7C351.552 147.487 351.974 147.295 352.475 147.124C352.987 146.943 353.488 146.82 353.979 146.756V148.388C353.691 148.431 353.376 148.495 353.035 148.58C352.694 148.665 352.368 148.761 352.059 148.868C351.75 148.975 351.488 149.087 351.275 149.204V154.5H349.115ZM355.612 145.524V143.828H357.964V145.524H355.612ZM355.788 154.5V148.516H354.652L354.844 146.916H357.948V154.5H355.788ZM359.787 157.956V146.916H361.659L361.771 147.62C362.102 147.343 362.464 147.129 362.859 146.98C363.254 146.831 363.718 146.756 364.251 146.756C365.36 146.756 366.214 147.06 366.811 147.668C367.419 148.265 367.723 149.247 367.723 150.612C367.723 151.977 367.398 152.996 366.747 153.668C366.107 154.329 365.232 154.66 364.123 154.66C363.27 154.66 362.544 154.468 361.947 154.084V157.956H359.787ZM363.579 153.076C364.219 153.076 364.704 152.879 365.035 152.484C365.366 152.089 365.531 151.471 365.531 150.628C365.531 149.817 365.382 149.236 365.083 148.884C364.784 148.521 364.304 148.34 363.643 148.34C362.982 148.34 362.416 148.569 361.947 149.028V152.5C362.171 152.671 362.406 152.809 362.651 152.916C362.907 153.023 363.216 153.076 363.579 153.076ZM372.233 154.66C371.358 154.66 370.707 154.431 370.281 153.972C369.865 153.513 369.657 152.889 369.657 152.1V148.58H368.585V146.916H369.657V145.284L371.817 144.644V146.916H373.737L373.609 148.58H371.817V151.956C371.817 152.372 371.913 152.66 372.105 152.82C372.297 152.969 372.595 153.044 373.001 153.044C373.299 153.044 373.609 152.991 373.929 152.884V154.372C373.694 154.468 373.438 154.537 373.161 154.58C372.883 154.633 372.574 154.66 372.233 154.66ZM375.565 145.524V143.828H377.917V145.524H375.565ZM375.741 154.5V148.516H374.605L374.797 146.916H377.901V154.5H375.741ZM383.532 154.66C382.113 154.66 381.073 154.319 380.412 153.636C379.751 152.943 379.42 151.967 379.42 150.708C379.42 149.449 379.751 148.479 380.412 147.796C381.084 147.103 382.124 146.756 383.532 146.756C384.951 146.756 385.991 147.103 386.652 147.796C387.324 148.479 387.66 149.449 387.66 150.708C387.66 151.967 387.329 152.943 386.668 153.636C386.007 154.319 384.961 154.66 383.532 154.66ZM383.532 152.82C384.225 152.82 384.721 152.665 385.02 152.356C385.319 152.036 385.468 151.487 385.468 150.708C385.468 149.929 385.319 149.385 385.02 149.076C384.721 148.756 384.225 148.596 383.532 148.596C382.849 148.596 382.359 148.756 382.06 149.076C381.761 149.385 381.612 149.929 381.612 150.708C381.612 151.487 381.761 152.036 382.06 152.356C382.359 152.665 382.849 152.82 383.532 152.82ZM389.162 154.5V146.916H391.162L391.242 147.636C391.551 147.401 391.941 147.199 392.41 147.028C392.89 146.847 393.391 146.756 393.914 146.756C394.917 146.756 395.647 146.991 396.106 147.46C396.565 147.929 396.794 148.655 396.794 149.636V154.5H394.634V149.748C394.634 149.236 394.527 148.873 394.314 148.66C394.111 148.447 393.727 148.34 393.162 148.34C392.831 148.34 392.495 148.415 392.154 148.564C391.823 148.713 391.546 148.9 391.322 149.124V154.5H389.162Z" fill="#1E293B"/>
<path d="M418 129.5H730C731.933 129.5 733.5 131.067 733.5 133V165C733.5 166.933 731.933 168.5 730 168.5H418C416.067 168.5 414.5 166.933 414.5 165V133C414.5 131.127 415.971 129.598 417.82 129.505L418 129.5Z" fill="white"/>
<path d="M418 129.5H730C731.933 129.5 733.5 131.067 733.5 133V165C733.5 166.933 731.933 168.5 730 168.5H418C416.067 168.5 414.5 166.933 414.5 165V133C414.5 131.127 415.971 129.598 417.82 129.505L418 129.5Z" stroke="#ECEDF1"/>
<path d="M426.128 155.16C424.795 155.16 423.723 154.989 422.912 154.648V153.112C423.371 153.283 423.861 153.421 424.384 153.528C424.917 153.635 425.445 153.688 425.968 153.688C426.789 153.688 427.403 153.592 427.808 153.4C428.224 153.208 428.432 152.824 428.432 152.248C428.432 151.896 428.347 151.613 428.176 151.4C428.005 151.187 427.723 151.005 427.328 150.856C426.933 150.696 426.389 150.531 425.696 150.36C424.587 150.072 423.808 149.709 423.36 149.272C422.912 148.824 422.688 148.211 422.688 147.432C422.688 146.525 423.019 145.816 423.68 145.304C424.341 144.792 425.328 144.536 426.64 144.536C427.237 144.536 427.797 144.579 428.32 144.664C428.853 144.749 429.269 144.845 429.568 144.952V146.488C428.757 146.179 427.861 146.024 426.88 146.024C426.112 146.024 425.515 146.125 425.088 146.328C424.661 146.531 424.448 146.899 424.448 147.432C424.448 147.741 424.523 147.992 424.672 148.184C424.821 148.376 425.077 148.541 425.44 148.68C425.813 148.819 426.325 148.973 426.976 149.144C427.819 149.357 428.469 149.613 428.928 149.912C429.397 150.2 429.723 150.541 429.904 150.936C430.096 151.32 430.192 151.757 430.192 152.248C430.192 153.155 429.856 153.869 429.184 154.392C428.512 154.904 427.493 155.16 426.128 155.16ZM435.723 155.16C434.4 155.16 433.376 154.835 432.651 154.184C431.926 153.533 431.563 152.536 431.563 151.192C431.563 149.976 431.872 149.016 432.491 148.312C433.11 147.608 434.048 147.256 435.307 147.256C436.459 147.256 437.323 147.56 437.899 148.168C438.486 148.765 438.779 149.539 438.779 150.488V151.896H433.227C433.312 152.632 433.579 153.139 434.027 153.416C434.475 153.693 435.158 153.832 436.075 153.832C436.459 153.832 436.854 153.795 437.259 153.72C437.664 153.645 438.016 153.549 438.315 153.432V154.712C437.974 154.861 437.579 154.973 437.131 155.048C436.694 155.123 436.224 155.16 435.723 155.16ZM433.227 150.76H437.243V150.232C437.243 149.709 437.099 149.304 436.811 149.016C436.523 148.717 436.038 148.568 435.355 148.568C434.544 148.568 433.984 148.744 433.675 149.096C433.376 149.448 433.227 150.003 433.227 150.76ZM442.845 155.16C442.365 155.16 441.917 155.075 441.501 154.904C441.095 154.733 440.77 154.477 440.525 154.136C440.279 153.784 440.157 153.352 440.157 152.84C440.157 152.115 440.402 151.533 440.893 151.096C441.394 150.648 442.162 150.424 443.197 150.424H445.629V150.088C445.629 149.725 445.57 149.437 445.453 149.224C445.346 149.011 445.143 148.856 444.845 148.76C444.557 148.664 444.13 148.616 443.565 148.616C442.669 148.616 441.831 148.749 441.053 149.016V147.72C441.394 147.581 441.81 147.469 442.301 147.384C442.791 147.299 443.319 147.256 443.885 147.256C444.994 147.256 445.837 147.48 446.413 147.928C446.999 148.376 447.293 149.107 447.293 150.12V155H445.805L445.693 154.232C445.383 154.531 444.999 154.76 444.541 154.92C444.093 155.08 443.527 155.16 442.845 155.16ZM443.309 153.912C443.831 153.912 444.285 153.827 444.669 153.656C445.063 153.475 445.383 153.235 445.629 152.936V151.608H443.229C442.717 151.608 442.343 151.709 442.109 151.912C441.885 152.104 441.773 152.403 441.773 152.808C441.773 153.203 441.906 153.485 442.173 153.656C442.439 153.827 442.818 153.912 443.309 153.912ZM449.227 155V147.416H450.827L450.923 148.296C451.285 148.061 451.717 147.848 452.219 147.656C452.72 147.464 453.216 147.331 453.707 147.256V148.584C453.408 148.637 453.083 148.717 452.731 148.824C452.389 148.92 452.064 149.032 451.755 149.16C451.445 149.277 451.184 149.4 450.971 149.528V155H449.227ZM458.392 155.16C457.059 155.16 456.051 154.824 455.368 154.152C454.686 153.469 454.344 152.488 454.344 151.208C454.344 149.875 454.718 148.883 455.464 148.232C456.222 147.581 457.23 147.256 458.488 147.256C459.011 147.256 459.448 147.293 459.8 147.368C460.163 147.443 460.51 147.56 460.84 147.72V149.016C460.286 148.739 459.614 148.6 458.824 148.6C457.95 148.6 457.278 148.797 456.808 149.192C456.339 149.576 456.104 150.248 456.104 151.208C456.104 152.115 456.312 152.781 456.728 153.208C457.144 153.624 457.832 153.832 458.792 153.832C459.55 153.832 460.238 153.688 460.856 153.4V154.728C460.504 154.867 460.126 154.973 459.72 155.048C459.326 155.123 458.883 155.16 458.392 155.16ZM462.242 155V144.216H463.986V148.152C464.317 147.885 464.712 147.672 465.17 147.512C465.629 147.341 466.146 147.256 466.722 147.256C467.682 147.256 468.392 147.485 468.85 147.944C469.309 148.403 469.538 149.117 469.538 150.088V155H467.81V150.168C467.81 149.581 467.682 149.171 467.426 148.936C467.181 148.701 466.749 148.584 466.13 148.584C465.746 148.584 465.357 148.669 464.962 148.84C464.568 149 464.242 149.213 463.986 149.48V155H462.242Z" fill="#A9ACB9"/>
<path d="M773.056 157.252C772.203 157.252 771.573 157.023 771.168 156.564C770.763 156.105 770.549 155.449 770.528 154.596C767.904 154.244 766.592 152.511 766.592 149.396C766.592 147.508 767.013 146.143 767.856 145.3C768.699 144.457 769.947 144.036 771.6 144.036C773.253 144.036 774.501 144.457 775.344 145.3C776.187 146.143 776.608 147.508 776.608 149.396C776.608 152.628 775.195 154.372 772.368 154.628C772.389 155.055 772.491 155.343 772.672 155.492C772.864 155.641 773.157 155.716 773.552 155.716C773.733 155.716 773.925 155.7 774.128 155.668C774.331 155.636 774.517 155.593 774.688 155.54V157.044C774.507 157.097 774.267 157.145 773.968 157.188C773.669 157.231 773.365 157.252 773.056 157.252ZM771.6 152.82C772.571 152.82 773.28 152.543 773.728 151.988C774.187 151.423 774.416 150.559 774.416 149.396C774.416 148.105 774.187 147.199 773.728 146.676C773.28 146.143 772.571 145.876 771.6 145.876C770.629 145.876 769.915 146.143 769.456 146.676C769.008 147.199 768.784 148.105 768.784 149.396C768.784 150.559 769.008 151.423 769.456 151.988C769.915 152.543 770.629 152.82 771.6 152.82ZM781.123 154.66C780.248 154.66 779.598 154.431 779.171 153.972C778.755 153.513 778.547 152.889 778.547 152.1V148.58H777.475V146.916H778.547V145.284L780.707 144.644V146.916H782.627L782.499 148.58H780.707V151.956C780.707 152.372 780.803 152.66 780.995 152.82C781.187 152.969 781.486 153.044 781.891 153.044C782.19 153.044 782.499 152.991 782.819 152.884V154.372C782.584 154.468 782.328 154.537 782.051 154.58C781.774 154.633 781.464 154.66 781.123 154.66ZM785.193 157.316C784.862 157.316 784.569 157.295 784.313 157.252C784.057 157.22 783.806 157.156 783.561 157.06V155.54C783.742 155.604 783.908 155.647 784.057 155.668C784.217 155.689 784.377 155.7 784.537 155.7C784.974 155.7 785.31 155.599 785.545 155.396C785.79 155.193 786.036 154.852 786.281 154.372L782.889 146.916H785.145L787.369 152.068L789.577 146.916H791.817L788.825 153.972C788.548 154.633 788.244 155.215 787.913 155.716C787.593 156.228 787.214 156.623 786.777 156.9C786.34 157.177 785.812 157.316 785.193 157.316Z" fill="#1E293B"/>
<path d="M813 129.5H869C870.933 129.5 872.5 131.067 872.5 133V165C872.5 166.933 870.933 168.5 869 168.5H813C811.067 168.5 809.5 166.933 809.5 165V133C809.5 131.067 811.067 129.5 813 129.5Z" fill="white"/>
<path d="M813 129.5H869C870.933 129.5 872.5 131.067 872.5 133V165C872.5 166.933 870.933 168.5 869 168.5H813C811.067 168.5 809.5 166.933 809.5 165V133C809.5 131.067 811.067 129.5 813 129.5Z" stroke="#ECEDF1"/>
<path d="M845.248 154.669C844.462 154.666 843.791 154.459 843.234 154.048C842.678 153.637 842.252 153.038 841.957 152.253C841.662 151.467 841.514 150.521 841.514 149.414C841.514 148.31 841.662 147.367 841.957 146.585C842.255 145.803 842.683 145.206 843.239 144.795C843.8 144.384 844.469 144.179 845.248 144.179C846.027 144.179 846.695 144.386 847.251 144.8C847.808 145.211 848.234 145.808 848.529 146.59C848.827 147.369 848.977 148.31 848.977 149.414C848.977 150.524 848.829 151.472 848.534 152.258C848.239 153.04 847.813 153.638 847.256 154.053C846.7 154.464 846.03 154.669 845.248 154.669ZM845.248 153.342C845.937 153.342 846.476 153.005 846.864 152.332C847.255 151.66 847.45 150.687 847.45 149.414C847.45 148.569 847.361 147.855 847.182 147.271C847.006 146.685 846.753 146.241 846.421 145.939C846.093 145.634 845.702 145.482 845.248 145.482C844.562 145.482 844.023 145.82 843.632 146.496C843.241 147.172 843.044 148.145 843.041 149.414C843.041 150.263 843.128 150.98 843.304 151.567C843.483 152.15 843.737 152.593 844.065 152.894C844.393 153.192 844.787 153.342 845.248 153.342Z" fill="#1E293B"/>
<path d="M857.493 143.332C857.046 143.332 856.824 142.791 857.142 142.476L860.649 139.015C860.843 138.822 861.156 138.822 861.351 139.015L864.858 142.476C865.176 142.791 864.954 143.332 864.507 143.332H857.493Z" fill="#A9ACB9"/>
<path d="M857.493 154.668C857.046 154.668 856.824 155.209 857.142 155.524L860.649 158.985C860.843 159.178 861.156 159.178 861.351 158.985L864.858 155.524C865.176 155.209 864.954 154.668 864.507 154.668H857.493Z" fill="#A9ACB9"/>
<path d="M923.6 143.909H920.9V143.036C920.9 142.496 920.679 141.978 920.285 141.596C919.891 141.215 919.357 141 918.8 141H915.2C914.643 141 914.109 141.215 913.715 141.596C913.321 141.978 913.1 142.496 913.1 143.036V143.909H910.4C910.161 143.909 909.932 144.001 909.764 144.165C909.595 144.328 909.5 144.55 909.5 144.782C909.5 145.013 909.595 145.235 909.764 145.399C909.932 145.563 910.161 145.655 910.4 145.655H910.7V155.545C910.7 155.931 910.858 156.301 911.139 156.574C911.421 156.847 911.802 157 912.2 157H921.8C922.198 157 922.579 156.847 922.861 156.574C923.142 156.301 923.3 155.931 923.3 155.545V145.655H923.6C923.839 145.655 924.068 145.563 924.236 145.399C924.405 145.235 924.5 145.013 924.5 144.782C924.5 144.55 924.405 144.328 924.236 144.165C924.068 144.001 923.839 143.909 923.6 143.909ZM914.9 143.036C914.9 142.959 914.932 142.885 914.988 142.831C915.044 142.776 915.12 142.745 915.2 142.745H918.8C918.88 142.745 918.956 142.776 919.012 142.831C919.068 142.885 919.1 142.959 919.1 143.036V143.909H914.9V143.036ZM921.5 155.255H912.5V145.655H921.5V155.255ZM916.1 147.982V152.636C916.1 152.868 916.005 153.09 915.836 153.253C915.668 153.417 915.439 153.509 915.2 153.509C914.961 153.509 914.732 153.417 914.564 153.253C914.395 153.09 914.3 152.868 914.3 152.636V147.982C914.3 147.75 914.395 147.528 914.564 147.365C914.732 147.201 914.961 147.109 915.2 147.109C915.439 147.109 915.668 147.201 915.836 147.365C916.005 147.528 916.1 147.75 916.1 147.982ZM919.7 147.982V152.636C919.7 152.868 919.605 153.09 919.436 153.253C919.268 153.417 919.039 153.509 918.8 153.509C918.561 153.509 918.332 153.417 918.164 153.253C917.995 153.09 917.9 152.868 917.9 152.636V147.982C917.9 147.75 917.995 147.528 918.164 147.365C918.332 147.201 918.561 147.109 918.8 147.109C919.039 147.109 919.268 147.201 919.436 147.365C919.605 147.528 919.7 147.75 919.7 147.982Z" fill="#A9ACB9"/>
<path d="M314.912 202.5V192.196H319.232C320.779 192.196 321.941 192.596 322.72 193.396C323.509 194.185 323.904 195.519 323.904 197.396C323.904 199.167 323.515 200.463 322.736 201.284C321.968 202.095 320.8 202.5 319.232 202.5H314.912ZM317.072 200.836H318.928C319.536 200.836 320.048 200.745 320.464 200.564C320.88 200.372 321.189 200.031 321.392 199.54C321.605 199.039 321.712 198.324 321.712 197.396C321.712 196.468 321.616 195.759 321.424 195.268C321.232 194.777 320.933 194.441 320.528 194.26C320.123 194.079 319.589 193.988 318.928 193.988H317.072V200.836ZM329.364 202.66C328.052 202.66 327.012 202.335 326.244 201.684C325.476 201.023 325.092 200.025 325.092 198.692C325.092 197.487 325.412 196.532 326.052 195.828C326.703 195.113 327.668 194.756 328.948 194.756C330.121 194.756 331.017 195.065 331.636 195.684C332.265 196.292 332.58 197.092 332.58 198.084V199.46H327.092C327.209 200.068 327.487 200.484 327.924 200.708C328.372 200.932 329.001 201.044 329.812 201.044C330.217 201.044 330.628 201.007 331.044 200.932C331.471 200.857 331.833 200.761 332.132 200.644V202.18C331.78 202.34 331.369 202.457 330.9 202.532C330.431 202.617 329.919 202.66 329.364 202.66ZM327.092 198.132H330.692V197.716C330.692 197.279 330.564 196.937 330.308 196.692C330.052 196.436 329.62 196.308 329.012 196.308C328.297 196.308 327.796 196.452 327.508 196.74C327.231 197.028 327.092 197.492 327.092 198.132ZM336.678 202.66C336.112 202.66 335.574 202.617 335.062 202.532C334.55 202.457 334.139 202.361 333.83 202.244V200.452C334.203 200.601 334.624 200.719 335.094 200.804C335.563 200.879 335.995 200.916 336.39 200.916C336.923 200.916 337.296 200.884 337.51 200.82C337.734 200.756 337.846 200.612 337.846 200.388C337.846 200.132 337.675 199.945 337.334 199.828C337.003 199.711 336.507 199.545 335.846 199.332C335.152 199.097 334.619 198.815 334.246 198.484C333.872 198.153 333.686 197.663 333.686 197.012C333.686 196.287 333.947 195.732 334.47 195.348C335.003 194.953 335.856 194.756 337.03 194.756C337.499 194.756 337.942 194.793 338.358 194.868C338.774 194.932 339.126 195.012 339.414 195.108V196.884C339.126 196.745 338.795 196.644 338.422 196.58C338.048 196.505 337.702 196.468 337.382 196.468C336.923 196.468 336.555 196.5 336.278 196.564C336.011 196.628 335.878 196.767 335.878 196.98C335.878 197.215 336.022 197.38 336.31 197.476C336.608 197.572 337.067 197.716 337.686 197.908C338.294 198.089 338.768 198.287 339.11 198.5C339.451 198.713 339.691 198.969 339.83 199.268C339.968 199.556 340.038 199.919 340.038 200.356C340.038 201.892 338.918 202.66 336.678 202.66ZM345.175 202.66C343.82 202.66 342.78 202.324 342.055 201.652C341.34 200.98 340.983 199.999 340.983 198.708C340.983 197.375 341.367 196.383 342.135 195.732C342.913 195.081 343.948 194.756 345.239 194.756C345.772 194.756 346.231 194.793 346.615 194.868C346.999 194.943 347.372 195.065 347.735 195.236V196.788C347.468 196.66 347.159 196.559 346.807 196.484C346.455 196.409 346.076 196.372 345.671 196.372C344.86 196.372 344.241 196.543 343.815 196.884C343.388 197.215 343.175 197.823 343.175 198.708C343.175 199.519 343.367 200.111 343.751 200.484C344.145 200.857 344.78 201.044 345.655 201.044C346.028 201.044 346.391 201.007 346.743 200.932C347.105 200.857 347.441 200.745 347.751 200.596V202.196C347.036 202.505 346.177 202.66 345.175 202.66ZM349.115 202.5V194.916H351.115L351.211 195.7C351.552 195.487 351.974 195.295 352.475 195.124C352.987 194.943 353.488 194.82 353.979 194.756V196.388C353.691 196.431 353.376 196.495 353.035 196.58C352.694 196.665 352.368 196.761 352.059 196.868C351.75 196.975 351.488 197.087 351.275 197.204V202.5H349.115ZM355.612 193.524V191.828H357.964V193.524H355.612ZM355.788 202.5V196.516H354.652L354.844 194.916H357.948V202.5H355.788ZM359.787 205.956V194.916H361.659L361.771 195.62C362.102 195.343 362.464 195.129 362.859 194.98C363.254 194.831 363.718 194.756 364.251 194.756C365.36 194.756 366.214 195.06 366.811 195.668C367.419 196.265 367.723 197.247 367.723 198.612C367.723 199.977 367.398 200.996 366.747 201.668C366.107 202.329 365.232 202.66 364.123 202.66C363.27 202.66 362.544 202.468 361.947 202.084V205.956H359.787ZM363.579 201.076C364.219 201.076 364.704 200.879 365.035 200.484C365.366 200.089 365.531 199.471 365.531 198.628C365.531 197.817 365.382 197.236 365.083 196.884C364.784 196.521 364.304 196.34 363.643 196.34C362.982 196.34 362.416 196.569 361.947 197.028V200.5C362.171 200.671 362.406 200.809 362.651 200.916C362.907 201.023 363.216 201.076 363.579 201.076ZM372.233 202.66C371.358 202.66 370.707 202.431 370.281 201.972C369.865 201.513 369.657 200.889 369.657 200.1V196.58H368.585V194.916H369.657V193.284L371.817 192.644V194.916H373.737L373.609 196.58H371.817V199.956C371.817 200.372 371.913 200.66 372.105 200.82C372.297 200.969 372.595 201.044 373.001 201.044C373.299 201.044 373.609 200.991 373.929 200.884V202.372C373.694 202.468 373.438 202.537 373.161 202.58C372.883 202.633 372.574 202.66 372.233 202.66ZM375.565 193.524V191.828H377.917V193.524H375.565ZM375.741 202.5V196.516H374.605L374.797 194.916H377.901V202.5H375.741ZM383.532 202.66C382.113 202.66 381.073 202.319 380.412 201.636C379.751 200.943 379.42 199.967 379.42 198.708C379.42 197.449 379.751 196.479 380.412 195.796C381.084 195.103 382.124 194.756 383.532 194.756C384.951 194.756 385.991 195.103 386.652 195.796C387.324 196.479 387.66 197.449 387.66 198.708C387.66 199.967 387.329 200.943 386.668 201.636C386.007 202.319 384.961 202.66 383.532 202.66ZM383.532 200.82C384.225 200.82 384.721 200.665 385.02 200.356C385.319 200.036 385.468 199.487 385.468 198.708C385.468 197.929 385.319 197.385 385.02 197.076C384.721 196.756 384.225 196.596 383.532 196.596C382.849 196.596 382.359 196.756 382.06 197.076C381.761 197.385 381.612 197.929 381.612 198.708C381.612 199.487 381.761 200.036 382.06 200.356C382.359 200.665 382.849 200.82 383.532 200.82ZM389.162 202.5V194.916H391.162L391.242 195.636C391.551 195.401 391.941 195.199 392.41 195.028C392.89 194.847 393.391 194.756 393.914 194.756C394.917 194.756 395.647 194.991 396.106 195.46C396.565 195.929 396.794 196.655 396.794 197.636V202.5H394.634V197.748C394.634 197.236 394.527 196.873 394.314 196.66C394.111 196.447 393.727 196.34 393.162 196.34C392.831 196.34 392.495 196.415 392.154 196.564C391.823 196.713 391.546 196.9 391.322 197.124V202.5H389.162Z" fill="#1E293B"/>
<path d="M418 177.5H730C731.933 177.5 733.5 179.067 733.5 181V213C733.5 214.933 731.933 216.5 730 216.5H418C416.067 216.5 414.5 214.933 414.5 213V181C414.5 179.127 415.971 177.598 417.82 177.505L418 177.5Z" fill="white"/>
<path d="M418 177.5H730C731.933 177.5 733.5 179.067 733.5 181V213C733.5 214.933 731.933 216.5 730 216.5H418C416.067 216.5 414.5 214.933 414.5 213V181C414.5 179.127 415.971 177.598 417.82 177.505L418 177.5Z" stroke="#ECEDF1"/>
<path d="M426.128 203.16C424.795 203.16 423.723 202.989 422.912 202.648V201.112C423.371 201.283 423.861 201.421 424.384 201.528C424.917 201.635 425.445 201.688 425.968 201.688C426.789 201.688 427.403 201.592 427.808 201.4C428.224 201.208 428.432 200.824 428.432 200.248C428.432 199.896 428.347 199.613 428.176 199.4C428.005 199.187 427.723 199.005 427.328 198.856C426.933 198.696 426.389 198.531 425.696 198.36C424.587 198.072 423.808 197.709 423.36 197.272C422.912 196.824 422.688 196.211 422.688 195.432C422.688 194.525 423.019 193.816 423.68 193.304C424.341 192.792 425.328 192.536 426.64 192.536C427.237 192.536 427.797 192.579 428.32 192.664C428.853 192.749 429.269 192.845 429.568 192.952V194.488C428.757 194.179 427.861 194.024 426.88 194.024C426.112 194.024 425.515 194.125 425.088 194.328C424.661 194.531 424.448 194.899 424.448 195.432C424.448 195.741 424.523 195.992 424.672 196.184C424.821 196.376 425.077 196.541 425.44 196.68C425.813 196.819 426.325 196.973 426.976 197.144C427.819 197.357 428.469 197.613 428.928 197.912C429.397 198.2 429.723 198.541 429.904 198.936C430.096 199.32 430.192 199.757 430.192 200.248C430.192 201.155 429.856 201.869 429.184 202.392C428.512 202.904 427.493 203.16 426.128 203.16ZM435.723 203.16C434.4 203.16 433.376 202.835 432.651 202.184C431.926 201.533 431.563 200.536 431.563 199.192C431.563 197.976 431.872 197.016 432.491 196.312C433.11 195.608 434.048 195.256 435.307 195.256C436.459 195.256 437.323 195.56 437.899 196.168C438.486 196.765 438.779 197.539 438.779 198.488V199.896H433.227C433.312 200.632 433.579 201.139 434.027 201.416C434.475 201.693 435.158 201.832 436.075 201.832C436.459 201.832 436.854 201.795 437.259 201.72C437.664 201.645 438.016 201.549 438.315 201.432V202.712C437.974 202.861 437.579 202.973 437.131 203.048C436.694 203.123 436.224 203.16 435.723 203.16ZM433.227 198.76H437.243V198.232C437.243 197.709 437.099 197.304 436.811 197.016C436.523 196.717 436.038 196.568 435.355 196.568C434.544 196.568 433.984 196.744 433.675 197.096C433.376 197.448 433.227 198.003 433.227 198.76ZM442.845 203.16C442.365 203.16 441.917 203.075 441.501 202.904C441.095 202.733 440.77 202.477 440.525 202.136C440.279 201.784 440.157 201.352 440.157 200.84C440.157 200.115 440.402 199.533 440.893 199.096C441.394 198.648 442.162 198.424 443.197 198.424H445.629V198.088C445.629 197.725 445.57 197.437 445.453 197.224C445.346 197.011 445.143 196.856 444.845 196.76C444.557 196.664 444.13 196.616 443.565 196.616C442.669 196.616 441.831 196.749 441.053 197.016V195.72C441.394 195.581 441.81 195.469 442.301 195.384C442.791 195.299 443.319 195.256 443.885 195.256C444.994 195.256 445.837 195.48 446.413 195.928C446.999 196.376 447.293 197.107 447.293 198.12V203H445.805L445.693 202.232C445.383 202.531 444.999 202.76 444.541 202.92C444.093 203.08 443.527 203.16 442.845 203.16ZM443.309 201.912C443.831 201.912 444.285 201.827 444.669 201.656C445.063 201.475 445.383 201.235 445.629 200.936V199.608H443.229C442.717 199.608 442.343 199.709 442.109 199.912C441.885 200.104 441.773 200.403 441.773 200.808C441.773 201.203 441.906 201.485 442.173 201.656C442.439 201.827 442.818 201.912 443.309 201.912ZM449.227 203V195.416H450.827L450.923 196.296C451.285 196.061 451.717 195.848 452.219 195.656C452.72 195.464 453.216 195.331 453.707 195.256V196.584C453.408 196.637 453.083 196.717 452.731 196.824C452.389 196.92 452.064 197.032 451.755 197.16C451.445 197.277 451.184 197.4 450.971 197.528V203H449.227ZM458.392 203.16C457.059 203.16 456.051 202.824 455.368 202.152C454.686 201.469 454.344 200.488 454.344 199.208C454.344 197.875 454.718 196.883 455.464 196.232C456.222 195.581 457.23 195.256 458.488 195.256C459.011 195.256 459.448 195.293 459.8 195.368C460.163 195.443 460.51 195.56 460.84 195.72V197.016C460.286 196.739 459.614 196.6 458.824 196.6C457.95 196.6 457.278 196.797 456.808 197.192C456.339 197.576 456.104 198.248 456.104 199.208C456.104 200.115 456.312 200.781 456.728 201.208C457.144 201.624 457.832 201.832 458.792 201.832C459.55 201.832 460.238 201.688 460.856 201.4V202.728C460.504 202.867 460.126 202.973 459.72 203.048C459.326 203.123 458.883 203.16 458.392 203.16ZM462.242 203V192.216H463.986V196.152C464.317 195.885 464.712 195.672 465.17 195.512C465.629 195.341 466.146 195.256 466.722 195.256C467.682 195.256 468.392 195.485 468.85 195.944C469.309 196.403 469.538 197.117 469.538 198.088V203H467.81V198.168C467.81 197.581 467.682 197.171 467.426 196.936C467.181 196.701 466.749 196.584 466.13 196.584C465.746 196.584 465.357 196.669 464.962 196.84C464.568 197 464.242 197.213 463.986 197.48V203H462.242Z" fill="#A9ACB9"/>
<path d="M773.056 205.252C772.203 205.252 771.573 205.023 771.168 204.564C770.763 204.105 770.549 203.449 770.528 202.596C767.904 202.244 766.592 200.511 766.592 197.396C766.592 195.508 767.013 194.143 767.856 193.3C768.699 192.457 769.947 192.036 771.6 192.036C773.253 192.036 774.501 192.457 775.344 193.3C776.187 194.143 776.608 195.508 776.608 197.396C776.608 200.628 775.195 202.372 772.368 202.628C772.389 203.055 772.491 203.343 772.672 203.492C772.864 203.641 773.157 203.716 773.552 203.716C773.733 203.716 773.925 203.7 774.128 203.668C774.331 203.636 774.517 203.593 774.688 203.54V205.044C774.507 205.097 774.267 205.145 773.968 205.188C773.669 205.231 773.365 205.252 773.056 205.252ZM771.6 200.82C772.571 200.82 773.28 200.543 773.728 199.988C774.187 199.423 774.416 198.559 774.416 197.396C774.416 196.105 774.187 195.199 773.728 194.676C773.28 194.143 772.571 193.876 771.6 193.876C770.629 193.876 769.915 194.143 769.456 194.676C769.008 195.199 768.784 196.105 768.784 197.396C768.784 198.559 769.008 199.423 769.456 199.988C769.915 200.543 770.629 200.82 771.6 200.82ZM781.123 202.66C780.248 202.66 779.598 202.431 779.171 201.972C778.755 201.513 778.547 200.889 778.547 200.1V196.58H777.475V194.916H778.547V193.284L780.707 192.644V194.916H782.627L782.499 196.58H780.707V199.956C780.707 200.372 780.803 200.66 780.995 200.82C781.187 200.969 781.486 201.044 781.891 201.044C782.19 201.044 782.499 200.991 782.819 200.884V202.372C782.584 202.468 782.328 202.537 782.051 202.58C781.774 202.633 781.464 202.66 781.123 202.66ZM785.193 205.316C784.862 205.316 784.569 205.295 784.313 205.252C784.057 205.22 783.806 205.156 783.561 205.06V203.54C783.742 203.604 783.908 203.647 784.057 203.668C784.217 203.689 784.377 203.7 784.537 203.7C784.974 203.7 785.31 203.599 785.545 203.396C785.79 203.193 786.036 202.852 786.281 202.372L782.889 194.916H785.145L787.369 200.068L789.577 194.916H791.817L788.825 201.972C788.548 202.633 788.244 203.215 787.913 203.716C787.593 204.228 787.214 204.623 786.777 204.9C786.34 205.177 785.812 205.316 785.193 205.316Z" fill="#1E293B"/>
<path d="M813 177.5H869C870.933 177.5 872.5 179.067 872.5 181V213C872.5 214.933 870.933 216.5 869 216.5H813C811.067 216.5 809.5 214.933 809.5 213V181C809.5 179.067 811.067 177.5 813 177.5Z" fill="white"/>
<path d="M813 177.5H869C870.933 177.5 872.5 179.067 872.5 181V213C872.5 214.933 870.933 216.5 869 216.5H813C811.067 216.5 809.5 214.933 809.5 213V181C809.5 179.067 811.067 177.5 813 177.5Z" stroke="#ECEDF1"/>
<path d="M845.248 202.669C844.462 202.666 843.791 202.459 843.234 202.048C842.678 201.637 842.252 201.038 841.957 200.253C841.662 199.467 841.514 198.521 841.514 197.414C841.514 196.31 841.662 195.367 841.957 194.585C842.255 193.803 842.683 193.206 843.239 192.795C843.8 192.384 844.469 192.179 845.248 192.179C846.027 192.179 846.695 192.386 847.251 192.8C847.808 193.211 848.234 193.808 848.529 194.59C848.827 195.369 848.977 196.31 848.977 197.414C848.977 198.524 848.829 199.472 848.534 200.258C848.239 201.04 847.813 201.638 847.256 202.053C846.7 202.464 846.03 202.669 845.248 202.669ZM845.248 201.342C845.937 201.342 846.476 201.005 846.864 200.332C847.255 199.66 847.45 198.687 847.45 197.414C847.45 196.569 847.361 195.855 847.182 195.271C847.006 194.685 846.753 194.241 846.421 193.939C846.093 193.634 845.702 193.482 845.248 193.482C844.562 193.482 844.023 193.82 843.632 194.496C843.241 195.172 843.044 196.145 843.041 197.414C843.041 198.263 843.128 198.98 843.304 199.567C843.483 200.15 843.737 200.593 844.065 200.894C844.393 201.192 844.787 201.342 845.248 201.342Z" fill="#1E293B"/>
<path d="M857.493 191.332C857.046 191.332 856.824 190.791 857.142 190.476L860.649 187.015C860.843 186.822 861.156 186.822 861.351 187.015L864.858 190.476C865.176 190.791 864.954 191.332 864.507 191.332H857.493Z" fill="#A9ACB9"/>
<path d="M857.493 202.668C857.046 202.668 856.824 203.209 857.142 203.524L860.649 206.985C860.843 207.178 861.156 207.178 861.351 206.985L864.858 203.524C865.176 203.209 864.954 202.668 864.507 202.668H857.493Z" fill="#A9ACB9"/>
<path d="M923.6 191.909H920.9V191.036C920.9 190.496 920.679 189.978 920.285 189.596C919.891 189.215 919.357 189 918.8 189H915.2C914.643 189 914.109 189.215 913.715 189.596C913.321 189.978 913.1 190.496 913.1 191.036V191.909H910.4C910.161 191.909 909.932 192.001 909.764 192.165C909.595 192.328 909.5 192.55 909.5 192.782C909.5 193.013 909.595 193.235 909.764 193.399C909.932 193.563 910.161 193.655 910.4 193.655H910.7V203.545C910.7 203.931 910.858 204.301 911.139 204.574C911.421 204.847 911.802 205 912.2 205H921.8C922.198 205 922.579 204.847 922.861 204.574C923.142 204.301 923.3 203.931 923.3 203.545V193.655H923.6C923.839 193.655 924.068 193.563 924.236 193.399C924.405 193.235 924.5 193.013 924.5 192.782C924.5 192.55 924.405 192.328 924.236 192.165C924.068 192.001 923.839 191.909 923.6 191.909ZM914.9 191.036C914.9 190.959 914.932 190.885 914.988 190.831C915.044 190.776 915.12 190.745 915.2 190.745H918.8C918.88 190.745 918.956 190.776 919.012 190.831C919.068 190.885 919.1 190.959 919.1 191.036V191.909H914.9V191.036ZM921.5 203.255H912.5V193.655H921.5V203.255ZM916.1 195.982V200.636C916.1 200.868 916.005 201.09 915.836 201.253C915.668 201.417 915.439 201.509 915.2 201.509C914.961 201.509 914.732 201.417 914.564 201.253C914.395 201.09 914.3 200.868 914.3 200.636V195.982C914.3 195.75 914.395 195.528 914.564 195.365C914.732 195.201 914.961 195.109 915.2 195.109C915.439 195.109 915.668 195.201 915.836 195.365C916.005 195.528 916.1 195.75 916.1 195.982ZM919.7 195.982V200.636C919.7 200.868 919.605 201.09 919.436 201.253C919.268 201.417 919.039 201.509 918.8 201.509C918.561 201.509 918.332 201.417 918.164 201.253C917.995 201.09 917.9 200.868 917.9 200.636V195.982C917.9 195.75 917.995 195.528 918.164 195.365C918.332 195.201 918.561 195.109 918.8 195.109C919.039 195.109 919.268 195.201 919.436 195.365C919.605 195.528 919.7 195.75 919.7 195.982Z" fill="#A9ACB9"/>
<path d="M61 253C61 250.791 62.7909 249 65 249H117C119.209 249 121 250.791 121 253V285C121 287.209 119.209 289 117 289H65C62.7909 289 61 287.209 61 285V253Z" fill="#1E293B"/>
<g clip-path="url(#clip0_2275_15447)">
<path d="M85.9977 274.66C84.3657 274.66 83.1444 274.233 82.3337 273.38C81.523 272.516 81.1177 271.183 81.1177 269.38C81.1177 267.503 81.523 266.143 82.3337 265.3C83.1444 264.457 84.3657 264.036 85.9977 264.036C87.6404 264.036 88.8617 264.457 89.6617 265.3C90.4724 266.143 90.8777 267.503 90.8777 269.38C90.8777 271.183 90.4724 272.516 89.6617 273.38C88.8617 274.233 87.6404 274.66 85.9977 274.66ZM85.9977 273.188C87.075 273.188 87.8644 272.895 88.3657 272.308C88.8777 271.711 89.1337 270.735 89.1337 269.38C89.1337 267.951 88.8777 266.953 88.3657 266.388C87.8644 265.812 87.075 265.524 85.9977 265.524C84.931 265.524 84.1417 265.812 83.6297 266.388C83.1284 266.953 82.8777 267.951 82.8777 269.38C82.8777 270.735 83.1284 271.711 83.6297 272.308C84.1417 272.895 84.931 273.188 85.9977 273.188ZM92.5783 274.5V264.196H94.3223V268.932L98.7063 264.196H100.722L96.9303 268.356L100.882 274.5H99.0263L95.8423 269.46L94.3223 271.092V274.5H92.5783Z" fill="white"/>
</g>
</g>
<defs>
<filter id="filter0_d_2275_15447" x="0" y="0" width="990" height="362" filterUnits="userSpaceOnUse" color-interpolation-filters="sRGB">
<feFlood flood-opacity="0" result="BackgroundImageFix"/>
<feColorMatrix in="SourceAlpha" type="matrix" values="0 0 0 0 0 0 0 0 0 0 0 0 0 0 0 0 0 0 127 0" result="hardAlpha"/>
<feMorphology radius="3" operator="erode" in="SourceAlpha" result="effect1_dropShadow_2275_15447"/>
<feOffset dy="12"/>
<feGaussianBlur stdDeviation="12"/>
<feComposite in2="hardAlpha" operator="out"/>
<feColorMatrix type="matrix" values="0 0 0 0 0.213156 0 0 0 0 0.307035 0 0 0 0 0.509615 0 0 0 0.2 0"/>
<feBlend mode="normal" in2="BackgroundImageFix" result="effect1_dropShadow_2275_15447"/>
<feBlend mode="normal" in="SourceGraphic" in2="effect1_dropShadow_2275_15447" result="shape"/>
</filter>
<clipPath id="clip0_2275_15447">
<rect width="22" height="19" fill="white" transform="translate(80 259.5)"/>
</clipPath>
</defs>
</svg>
