<svg width="911" height="224" viewBox="0 0 911 224" fill="none" xmlns="http://www.w3.org/2000/svg">
<rect x="0.5" y="0.5" width="910" height="223" rx="7.5" fill="white"/>
<rect x="0.5" y="0.5" width="910" height="223" rx="7.5" stroke="#E4E7F0"/>
<path d="M8 0.5H903C907.142 0.5 910.5 3.85786 910.5 8V31.5H0.5V8C0.5 3.85786 3.85786 0.5 8 0.5Z" fill="#F3F4F7"/>
<path d="M8 0.5H903C907.142 0.5 910.5 3.85786 910.5 8V31.5H0.5V8C0.5 3.85786 3.85786 0.5 8 0.5Z" stroke="#E4E7F0"/>
<path d="M17.2636 21.5V11.196H22.0956C22.9062 11.196 23.5676 11.3507 24.0796 11.66C24.6022 11.9693 24.9916 12.3907 25.2476 12.924C25.5036 13.4573 25.6316 14.0653 25.6316 14.748C25.6316 15.4413 25.4822 16.0547 25.1836 16.588C24.8956 17.1213 24.4796 17.5373 23.9356 17.836C23.4022 18.124 22.7676 18.268 22.0316 18.268H19.4236V21.5H17.2636ZM19.4236 16.556H21.5836C22.2022 16.556 22.6662 16.396 22.9756 16.076C23.2956 15.7453 23.4556 15.3027 23.4556 14.748C23.4556 14.1507 23.3062 13.6973 23.0076 13.388C22.7089 13.068 22.2609 12.908 21.6636 12.908H19.4236V16.556ZM26.8261 21.5V11.196H28.6981L33.5781 18.06V11.196H35.7381V21.5H33.8661L28.9861 14.636V21.5H26.8261Z" fill="#1E293B"/>
<path d="M128.943 21.5V11.196H133.887C135.071 11.196 135.941 11.5107 136.495 12.14C137.05 12.7587 137.327 13.596 137.327 14.652C137.327 15.3453 137.146 15.9427 136.783 16.444C136.431 16.9453 135.93 17.308 135.279 17.532C135.45 17.6707 135.583 17.82 135.679 17.98C135.786 18.14 135.893 18.3533 135.999 18.62L137.247 21.5H135.007L133.791 18.732C133.685 18.4973 133.567 18.332 133.439 18.236C133.311 18.14 133.098 18.092 132.799 18.092H131.103V21.5H128.943ZM131.103 16.3H133.327C133.893 16.3 134.335 16.1773 134.655 15.932C134.975 15.676 135.135 15.2493 135.135 14.652C135.135 14.076 134.997 13.6547 134.719 13.388C134.442 13.1213 134.021 12.988 133.455 12.988H131.103V16.3ZM142.552 21.66C141.24 21.66 140.2 21.3347 139.432 20.684C138.664 20.0227 138.28 19.0253 138.28 17.692C138.28 16.4867 138.6 15.532 139.24 14.828C139.89 14.1133 140.856 13.756 142.136 13.756C143.309 13.756 144.205 14.0653 144.824 14.684C145.453 15.292 145.767 16.092 145.767 17.084V18.46H140.28C140.397 19.068 140.674 19.484 141.112 19.708C141.56 19.932 142.189 20.044 143 20.044C143.405 20.044 143.816 20.0067 144.232 19.932C144.658 19.8573 145.021 19.7613 145.32 19.644V21.18C144.968 21.34 144.557 21.4573 144.088 21.532C143.618 21.6173 143.106 21.66 142.552 21.66ZM140.28 17.132H143.88V16.716C143.88 16.2787 143.752 15.9373 143.496 15.692C143.24 15.436 142.808 15.308 142.2 15.308C141.485 15.308 140.984 15.452 140.696 15.74C140.418 16.028 140.28 16.492 140.28 17.132ZM149.068 21.5L146.076 13.916H148.332L150.22 19.324L152.124 13.916H154.364L151.388 21.5H149.068Z" fill="#1E293B"/>
<path d="M175.501 24.252C174.648 24.252 174.019 24.0227 173.613 23.564C173.208 23.1053 172.995 22.4493 172.973 21.596C170.349 21.244 169.037 19.5107 169.037 16.396C169.037 14.508 169.459 13.1427 170.301 12.3C171.144 11.4573 172.392 11.036 174.045 11.036C175.699 11.036 176.947 11.4573 177.789 12.3C178.632 13.1427 179.053 14.508 179.053 16.396C179.053 19.628 177.64 21.372 174.813 21.628C174.835 22.0547 174.936 22.3427 175.117 22.492C175.309 22.6413 175.603 22.716 175.997 22.716C176.179 22.716 176.371 22.7 176.573 22.668C176.776 22.636 176.963 22.5933 177.133 22.54V24.044C176.952 24.0973 176.712 24.1453 176.413 24.188C176.115 24.2307 175.811 24.252 175.501 24.252ZM174.045 19.82C175.016 19.82 175.725 19.5427 176.173 18.988C176.632 18.4227 176.861 17.5587 176.861 16.396C176.861 15.1053 176.632 14.1987 176.173 13.676C175.725 13.1427 175.016 12.876 174.045 12.876C173.075 12.876 172.36 13.1427 171.901 13.676C171.453 14.1987 171.229 15.1053 171.229 16.396C171.229 17.5587 171.453 18.4227 171.901 18.988C172.36 19.5427 173.075 19.82 174.045 19.82ZM183.568 21.66C182.694 21.66 182.043 21.4307 181.616 20.972C181.2 20.5133 180.992 19.8893 180.992 19.1V15.58H179.92V13.916H180.992V12.284L183.152 11.644V13.916H185.072L184.944 15.58H183.152V18.956C183.152 19.372 183.248 19.66 183.44 19.82C183.632 19.9693 183.931 20.044 184.336 20.044C184.635 20.044 184.944 19.9907 185.264 19.884V21.372C185.03 21.468 184.774 21.5373 184.496 21.58C184.219 21.6333 183.91 21.66 183.568 21.66ZM187.638 24.316C187.308 24.316 187.014 24.2947 186.758 24.252C186.502 24.22 186.252 24.156 186.006 24.06V22.54C186.188 22.604 186.353 22.6467 186.502 22.668C186.662 22.6893 186.822 22.7 186.982 22.7C187.42 22.7 187.756 22.5987 187.99 22.396C188.236 22.1933 188.481 21.852 188.726 21.372L185.334 13.916H187.59L189.814 19.068L192.022 13.916H194.262L191.27 20.972C190.993 21.6333 190.689 22.2147 190.358 22.716C190.038 23.228 189.66 23.6227 189.222 23.9C188.785 24.1773 188.257 24.316 187.638 24.316Z" fill="#1E293B"/>
<path d="M209.092 21.5V11.196H213.412C214.958 11.196 216.121 11.596 216.9 12.396C217.689 13.1853 218.084 14.5187 218.084 16.396C218.084 18.1667 217.694 19.4627 216.916 20.284C216.148 21.0947 214.98 21.5 213.412 21.5H209.092ZM211.252 19.836H213.108C213.716 19.836 214.228 19.7453 214.644 19.564C215.06 19.372 215.369 19.0307 215.572 18.54C215.785 18.0387 215.892 17.324 215.892 16.396C215.892 15.468 215.796 14.7587 215.604 14.268C215.412 13.7773 215.113 13.4413 214.708 13.26C214.302 13.0787 213.769 12.988 213.108 12.988H211.252V19.836ZM223.544 21.66C222.232 21.66 221.192 21.3347 220.424 20.684C219.656 20.0227 219.272 19.0253 219.272 17.692C219.272 16.4867 219.592 15.532 220.232 14.828C220.882 14.1133 221.848 13.756 223.128 13.756C224.301 13.756 225.197 14.0653 225.816 14.684C226.445 15.292 226.76 16.092 226.76 17.084V18.46H221.272C221.389 19.068 221.666 19.484 222.104 19.708C222.552 19.932 223.181 20.044 223.992 20.044C224.397 20.044 224.808 20.0067 225.224 19.932C225.65 19.8573 226.013 19.7613 226.312 19.644V21.18C225.96 21.34 225.549 21.4573 225.08 21.532C224.61 21.6173 224.098 21.66 223.544 21.66ZM221.272 17.132H224.872V16.716C224.872 16.2787 224.744 15.9373 224.488 15.692C224.232 15.436 223.8 15.308 223.192 15.308C222.477 15.308 221.976 15.452 221.688 15.74C221.41 16.028 221.272 16.492 221.272 17.132ZM230.857 21.66C230.292 21.66 229.753 21.6173 229.241 21.532C228.729 21.4573 228.319 21.3613 228.009 21.244V19.452C228.383 19.6013 228.804 19.7187 229.273 19.804C229.743 19.8787 230.175 19.916 230.569 19.916C231.103 19.916 231.476 19.884 231.689 19.82C231.913 19.756 232.025 19.612 232.025 19.388C232.025 19.132 231.855 18.9453 231.513 18.828C231.183 18.7107 230.687 18.5453 230.025 18.332C229.332 18.0973 228.799 17.8147 228.425 17.484C228.052 17.1533 227.865 16.6627 227.865 16.012C227.865 15.2867 228.127 14.732 228.649 14.348C229.183 13.9533 230.036 13.756 231.209 13.756C231.679 13.756 232.121 13.7933 232.537 13.868C232.953 13.932 233.305 14.012 233.593 14.108V15.884C233.305 15.7453 232.975 15.644 232.601 15.58C232.228 15.5053 231.881 15.468 231.561 15.468C231.103 15.468 230.735 15.5 230.457 15.564C230.191 15.628 230.057 15.7667 230.057 15.98C230.057 16.2147 230.201 16.38 230.489 16.476C230.788 16.572 231.247 16.716 231.865 16.908C232.473 17.0893 232.948 17.2867 233.289 17.5C233.631 17.7133 233.871 17.9693 234.009 18.268C234.148 18.556 234.217 18.9187 234.217 19.356C234.217 20.892 233.097 21.66 230.857 21.66ZM239.354 21.66C238 21.66 236.96 21.324 236.234 20.652C235.52 19.98 235.162 18.9987 235.162 17.708C235.162 16.3747 235.546 15.3827 236.314 14.732C237.093 14.0813 238.128 13.756 239.418 13.756C239.952 13.756 240.41 13.7933 240.794 13.868C241.178 13.9427 241.552 14.0653 241.914 14.236V15.788C241.648 15.66 241.338 15.5587 240.986 15.484C240.634 15.4093 240.256 15.372 239.85 15.372C239.04 15.372 238.421 15.5427 237.994 15.884C237.568 16.2147 237.354 16.8227 237.354 17.708C237.354 18.5187 237.546 19.1107 237.93 19.484C238.325 19.8573 238.96 20.044 239.834 20.044C240.208 20.044 240.57 20.0067 240.922 19.932C241.285 19.8573 241.621 19.7453 241.93 19.596V21.196C241.216 21.5053 240.357 21.66 239.354 21.66ZM243.295 21.5V13.916H245.295L245.391 14.7C245.732 14.4867 246.153 14.2947 246.655 14.124C247.167 13.9427 247.668 13.82 248.159 13.756V15.388C247.871 15.4307 247.556 15.4947 247.215 15.58C246.873 15.6653 246.548 15.7613 246.239 15.868C245.929 15.9747 245.668 16.0867 245.455 16.204V21.5H243.295ZM249.792 12.524V10.828H252.144V12.524H249.792ZM249.968 21.5V15.516H248.832L249.024 13.916H252.128V21.5H249.968ZM253.967 24.956V13.916H255.839L255.951 14.62C256.281 14.3427 256.644 14.1293 257.039 13.98C257.433 13.8307 257.897 13.756 258.431 13.756C259.54 13.756 260.393 14.06 260.991 14.668C261.599 15.2653 261.903 16.2467 261.903 17.612C261.903 18.9773 261.577 19.996 260.927 20.668C260.287 21.3293 259.412 21.66 258.303 21.66C257.449 21.66 256.724 21.468 256.127 21.084V24.956H253.967ZM257.759 20.076C258.399 20.076 258.884 19.8787 259.215 19.484C259.545 19.0893 259.711 18.4707 259.711 17.628C259.711 16.8173 259.561 16.236 259.263 15.884C258.964 15.5213 258.484 15.34 257.823 15.34C257.161 15.34 256.596 15.5693 256.127 16.028V19.5C256.351 19.6707 256.585 19.8093 256.831 19.916C257.087 20.0227 257.396 20.076 257.759 20.076ZM266.412 21.66C265.538 21.66 264.887 21.4307 264.46 20.972C264.044 20.5133 263.836 19.8893 263.836 19.1V15.58H262.764V13.916H263.836V12.284L265.996 11.644V13.916H267.916L267.788 15.58H265.996V18.956C265.996 19.372 266.092 19.66 266.284 19.82C266.476 19.9693 266.775 20.044 267.18 20.044C267.479 20.044 267.788 19.9907 268.108 19.884V21.372C267.874 21.468 267.618 21.5373 267.34 21.58C267.063 21.6333 266.754 21.66 266.412 21.66ZM269.745 12.524V10.828H272.097V12.524H269.745ZM269.921 21.5V15.516H268.785L268.977 13.916H272.081V21.5H269.921ZM277.712 21.66C276.293 21.66 275.253 21.3187 274.592 20.636C273.93 19.9427 273.6 18.9667 273.6 17.708C273.6 16.4493 273.93 15.4787 274.592 14.796C275.264 14.1027 276.304 13.756 277.712 13.756C279.13 13.756 280.17 14.1027 280.832 14.796C281.504 15.4787 281.84 16.4493 281.84 17.708C281.84 18.9667 281.509 19.9427 280.848 20.636C280.186 21.3187 279.141 21.66 277.712 21.66ZM277.712 19.82C278.405 19.82 278.901 19.6653 279.2 19.356C279.498 19.036 279.648 18.4867 279.648 17.708C279.648 16.9293 279.498 16.3853 279.2 16.076C278.901 15.756 278.405 15.596 277.712 15.596C277.029 15.596 276.538 15.756 276.24 16.076C275.941 16.3853 275.792 16.9293 275.792 17.708C275.792 18.4867 275.941 19.036 276.24 19.356C276.538 19.6653 277.029 19.82 277.712 19.82ZM283.342 21.5V13.916H285.342L285.422 14.636C285.731 14.4013 286.12 14.1987 286.59 14.028C287.07 13.8467 287.571 13.756 288.094 13.756C289.096 13.756 289.827 13.9907 290.286 14.46C290.744 14.9293 290.974 15.6547 290.974 16.636V21.5H288.814V16.748C288.814 16.236 288.707 15.8733 288.494 15.66C288.291 15.4467 287.907 15.34 287.342 15.34C287.011 15.34 286.675 15.4147 286.334 15.564C286.003 15.7133 285.726 15.9 285.502 16.124V21.5H283.342Z" fill="#1E293B"/>
<path d="M449.053 21.5V11.196H453.885C454.695 11.196 455.357 11.3507 455.869 11.66C456.391 11.9693 456.781 12.3907 457.037 12.924C457.293 13.4573 457.421 14.0653 457.421 14.748C457.421 15.4413 457.271 16.0547 456.973 16.588C456.685 17.1213 456.269 17.5373 455.725 17.836C455.191 18.124 454.557 18.268 453.821 18.268H451.213V21.5H449.053ZM451.213 16.556H453.373C453.991 16.556 454.455 16.396 454.765 16.076C455.085 15.7453 455.245 15.3027 455.245 14.748C455.245 14.1507 455.095 13.6973 454.797 13.388C454.498 13.068 454.05 12.908 453.453 12.908H451.213V16.556ZM458.615 21.5V13.916H460.615L460.711 14.7C461.052 14.4867 461.474 14.2947 461.975 14.124C462.487 13.9427 462.988 13.82 463.479 13.756V15.388C463.191 15.4307 462.876 15.4947 462.535 15.58C462.194 15.6653 461.868 15.7613 461.559 15.868C461.25 15.9747 460.988 16.0867 460.775 16.204V21.5H458.615ZM468.063 21.66C466.645 21.66 465.605 21.3187 464.943 20.636C464.282 19.9427 463.951 18.9667 463.951 17.708C463.951 16.4493 464.282 15.4787 464.943 14.796C465.615 14.1027 466.655 13.756 468.063 13.756C469.482 13.756 470.522 14.1027 471.183 14.796C471.855 15.4787 472.191 16.4493 472.191 17.708C472.191 18.9667 471.861 19.9427 471.199 20.636C470.538 21.3187 469.493 21.66 468.063 21.66ZM468.063 19.82C468.757 19.82 469.253 19.6653 469.551 19.356C469.85 19.036 469.999 18.4867 469.999 17.708C469.999 16.9293 469.85 16.3853 469.551 16.076C469.253 15.756 468.757 15.596 468.063 15.596C467.381 15.596 466.89 15.756 466.591 16.076C466.293 16.3853 466.143 16.9293 466.143 17.708C466.143 18.4867 466.293 19.036 466.591 19.356C466.89 19.6653 467.381 19.82 468.063 19.82ZM474.279 12.524V10.828H476.631V12.524H474.279ZM474.007 25.244C473.335 25.244 472.759 25.148 472.279 24.956V23.468C472.45 23.5213 472.615 23.5587 472.775 23.58C472.946 23.612 473.1 23.628 473.239 23.628C473.676 23.628 473.991 23.5373 474.183 23.356C474.375 23.1853 474.471 22.908 474.471 22.524V15.516H473.335L473.527 13.916H476.631V22.732C476.631 23.4787 476.412 24.0813 475.975 24.54C475.548 25.0093 474.892 25.244 474.007 25.244ZM482.427 21.66C481.115 21.66 480.075 21.3347 479.307 20.684C478.539 20.0227 478.155 19.0253 478.155 17.692C478.155 16.4867 478.475 15.532 479.115 14.828C479.765 14.1133 480.731 13.756 482.011 13.756C483.184 13.756 484.08 14.0653 484.699 14.684C485.328 15.292 485.642 16.092 485.642 17.084V18.46H480.155C480.272 19.068 480.549 19.484 480.987 19.708C481.435 19.932 482.064 20.044 482.875 20.044C483.28 20.044 483.691 20.0067 484.107 19.932C484.533 19.8573 484.896 19.7613 485.195 19.644V21.18C484.843 21.34 484.432 21.4573 483.963 21.532C483.493 21.6173 482.981 21.66 482.427 21.66ZM480.155 17.132H483.755V16.716C483.755 16.2787 483.627 15.9373 483.371 15.692C483.115 15.436 482.683 15.308 482.075 15.308C481.36 15.308 480.859 15.452 480.571 15.74C480.293 16.028 480.155 16.492 480.155 17.132ZM491.018 21.66C489.664 21.66 488.624 21.324 487.898 20.652C487.184 19.98 486.826 18.9987 486.826 17.708C486.826 16.3747 487.21 15.3827 487.978 14.732C488.757 14.0813 489.792 13.756 491.082 13.756C491.616 13.756 492.074 13.7933 492.458 13.868C492.842 13.9427 493.216 14.0653 493.578 14.236V15.788C493.312 15.66 493.002 15.5587 492.65 15.484C492.298 15.4093 491.92 15.372 491.514 15.372C490.704 15.372 490.085 15.5427 489.658 15.884C489.232 16.2147 489.018 16.8227 489.018 17.708C489.018 18.5187 489.21 19.1107 489.594 19.484C489.989 19.8573 490.624 20.044 491.498 20.044C491.872 20.044 492.234 20.0067 492.586 19.932C492.949 19.8573 493.285 19.7453 493.594 19.596V21.196C492.88 21.5053 492.021 21.66 491.018 21.66ZM497.967 21.66C497.092 21.66 496.442 21.4307 496.015 20.972C495.599 20.5133 495.391 19.8893 495.391 19.1V15.58H494.319V13.916H495.391V12.284L497.551 11.644V13.916H499.471L499.343 15.58H497.551V18.956C497.551 19.372 497.647 19.66 497.839 19.82C498.031 19.9693 498.33 20.044 498.735 20.044C499.034 20.044 499.343 19.9907 499.663 19.884V21.372C499.428 21.468 499.172 21.5373 498.895 21.58C498.618 21.6333 498.308 21.66 497.967 21.66Z" fill="#1E293B"/>
<path d="M693.776 21.66C692.357 21.66 691.232 21.3187 690.4 20.636C689.579 19.9427 689.168 18.94 689.168 17.628V11.196H691.328V17.468C691.328 18.2573 691.541 18.8493 691.968 19.244C692.395 19.628 692.997 19.82 693.776 19.82C694.555 19.82 695.152 19.628 695.568 19.244C695.995 18.8493 696.208 18.2573 696.208 17.468V11.196H698.368V17.628C698.368 18.94 697.957 19.9427 697.136 20.636C696.315 21.3187 695.195 21.66 693.776 21.66ZM700.107 21.5V13.916H702.107L702.187 14.636C702.497 14.4013 702.886 14.1987 703.355 14.028C703.835 13.8467 704.337 13.756 704.859 13.756C705.862 13.756 706.593 13.9907 707.051 14.46C707.51 14.9293 707.739 15.6547 707.739 16.636V21.5H705.579V16.748C705.579 16.236 705.473 15.8733 705.259 15.66C705.057 15.4467 704.673 15.34 704.107 15.34C703.777 15.34 703.441 15.4147 703.099 15.564C702.769 15.7133 702.491 15.9 702.267 16.124V21.5H700.107ZM710.026 12.524V10.828H712.378V12.524H710.026ZM710.202 21.5V15.516H709.066L709.258 13.916H712.362V21.5H710.202ZM717.209 21.66C716.334 21.66 715.684 21.4307 715.257 20.972C714.841 20.5133 714.633 19.8893 714.633 19.1V15.58H713.561V13.916H714.633V12.284L716.793 11.644V13.916H718.713L718.585 15.58H716.793V18.956C716.793 19.372 716.889 19.66 717.081 19.82C717.273 19.9693 717.572 20.044 717.977 20.044C718.276 20.044 718.585 19.9907 718.905 19.884V21.372C718.67 21.468 718.414 21.5373 718.137 21.58C717.86 21.6333 717.55 21.66 717.209 21.66ZM728.553 21.66C726.825 21.66 725.503 21.196 724.585 20.268C723.668 19.3293 723.209 18.0547 723.209 16.444C723.209 14.7373 723.652 13.4093 724.537 12.46C725.433 11.5107 726.767 11.036 728.537 11.036C729.156 11.036 729.711 11.084 730.201 11.18C730.703 11.2653 731.172 11.388 731.609 11.548V13.436C730.703 13.0627 729.732 12.876 728.697 12.876C727.524 12.876 726.681 13.1693 726.169 13.756C725.657 14.3427 725.401 15.2387 725.401 16.444C725.401 18.7053 726.511 19.836 728.729 19.836C729.231 19.836 729.727 19.7933 730.217 19.708C730.708 19.612 731.177 19.4733 731.625 19.292V21.196C731.188 21.3347 730.719 21.4467 730.217 21.532C729.727 21.6173 729.172 21.66 728.553 21.66ZM736.915 21.66C735.496 21.66 734.456 21.3187 733.795 20.636C733.134 19.9427 732.803 18.9667 732.803 17.708C732.803 16.4493 733.134 15.4787 733.795 14.796C734.467 14.1027 735.507 13.756 736.915 13.756C738.334 13.756 739.374 14.1027 740.035 14.796C740.707 15.4787 741.043 16.4493 741.043 17.708C741.043 18.9667 740.712 19.9427 740.051 20.636C739.39 21.3187 738.344 21.66 736.915 21.66ZM736.915 19.82C737.608 19.82 738.104 19.6653 738.403 19.356C738.702 19.036 738.851 18.4867 738.851 17.708C738.851 16.9293 738.702 16.3853 738.403 16.076C738.104 15.756 737.608 15.596 736.915 15.596C736.232 15.596 735.742 15.756 735.443 16.076C735.144 16.3853 734.995 16.9293 734.995 17.708C734.995 18.4867 735.144 19.036 735.443 19.356C735.742 19.6653 736.232 19.82 736.915 19.82ZM745.139 21.66C744.573 21.66 744.035 21.6173 743.523 21.532C743.011 21.4573 742.6 21.3613 742.291 21.244V19.452C742.664 19.6013 743.085 19.7187 743.555 19.804C744.024 19.8787 744.456 19.916 744.851 19.916C745.384 19.916 745.757 19.884 745.971 19.82C746.195 19.756 746.307 19.612 746.307 19.388C746.307 19.132 746.136 18.9453 745.795 18.828C745.464 18.7107 744.968 18.5453 744.307 18.332C743.613 18.0973 743.08 17.8147 742.707 17.484C742.333 17.1533 742.147 16.6627 742.147 16.012C742.147 15.2867 742.408 14.732 742.931 14.348C743.464 13.9533 744.317 13.756 745.491 13.756C745.96 13.756 746.403 13.7933 746.819 13.868C747.235 13.932 747.587 14.012 747.875 14.108V15.884C747.587 15.7453 747.256 15.644 746.883 15.58C746.509 15.5053 746.163 15.468 745.843 15.468C745.384 15.468 745.016 15.5 744.739 15.564C744.472 15.628 744.339 15.7667 744.339 15.98C744.339 16.2147 744.483 16.38 744.771 16.476C745.069 16.572 745.528 16.716 746.147 16.908C746.755 17.0893 747.229 17.2867 747.571 17.5C747.912 17.7133 748.152 17.9693 748.291 18.268C748.429 18.556 748.499 18.9187 748.499 19.356C748.499 20.892 747.379 21.66 745.139 21.66ZM752.772 21.66C751.897 21.66 751.246 21.4307 750.82 20.972C750.404 20.5133 750.196 19.8893 750.196 19.1V15.58H749.124V13.916H750.196V12.284L752.356 11.644V13.916H754.276L754.148 15.58H752.356V18.956C752.356 19.372 752.452 19.66 752.644 19.82C752.836 19.9693 753.134 20.044 753.54 20.044C753.838 20.044 754.148 19.9907 754.468 19.884V21.372C754.233 21.468 753.977 21.5373 753.7 21.58C753.422 21.6333 753.113 21.66 752.772 21.66Z" fill="#1E293B"/>
<path d="M811.753 21.5V12.86H808.585V11.196H817.065V12.86H813.913V21.5H811.753ZM820.532 21.66C819.113 21.66 818.073 21.3187 817.412 20.636C816.751 19.9427 816.42 18.9667 816.42 17.708C816.42 16.4493 816.751 15.4787 817.412 14.796C818.084 14.1027 819.124 13.756 820.532 13.756C821.951 13.756 822.991 14.1027 823.652 14.796C824.324 15.4787 824.66 16.4493 824.66 17.708C824.66 18.9667 824.329 19.9427 823.668 20.636C823.007 21.3187 821.961 21.66 820.532 21.66ZM820.532 19.82C821.225 19.82 821.721 19.6653 822.02 19.356C822.319 19.036 822.468 18.4867 822.468 17.708C822.468 16.9293 822.319 16.3853 822.02 16.076C821.721 15.756 821.225 15.596 820.532 15.596C819.849 15.596 819.359 15.756 819.06 16.076C818.761 16.3853 818.612 16.9293 818.612 17.708C818.612 18.4867 818.761 19.036 819.06 19.356C819.359 19.6653 819.849 19.82 820.532 19.82ZM829.17 21.66C828.295 21.66 827.645 21.4307 827.218 20.972C826.802 20.5133 826.594 19.8893 826.594 19.1V15.58H825.522V13.916H826.594V12.284L828.754 11.644V13.916H830.674L830.546 15.58H828.754V18.956C828.754 19.372 828.85 19.66 829.042 19.82C829.234 19.9693 829.533 20.044 829.938 20.044C830.237 20.044 830.546 19.9907 830.866 19.884V21.372C830.631 21.468 830.375 21.5373 830.098 21.58C829.821 21.6333 829.511 21.66 829.17 21.66ZM834.359 21.66C833.879 21.66 833.431 21.5747 833.015 21.404C832.609 21.2227 832.279 20.9613 832.023 20.62C831.777 20.268 831.655 19.8307 831.655 19.308C831.655 18.5613 831.916 17.964 832.439 17.516C832.972 17.068 833.756 16.844 834.791 16.844H837.031V16.636C837.031 16.1667 836.897 15.836 836.631 15.644C836.375 15.452 835.852 15.356 835.062 15.356C834.199 15.356 833.367 15.4893 832.567 15.756V14.236C832.919 14.0973 833.345 13.9853 833.847 13.9C834.359 13.804 834.913 13.756 835.511 13.756C836.652 13.756 837.532 13.9907 838.151 14.46C838.78 14.9187 839.095 15.66 839.095 16.684V21.5H837.223L837.111 20.812C836.812 21.0787 836.444 21.2867 836.007 21.436C835.569 21.5853 835.02 21.66 834.359 21.66ZM834.951 20.236C835.431 20.236 835.847 20.156 836.199 19.996C836.551 19.836 836.828 19.6333 837.031 19.388V18.188H834.839C833.996 18.188 833.575 18.5347 833.575 19.228C833.575 19.9 834.033 20.236 834.951 20.236ZM842.946 21.66C842.21 21.66 841.671 21.4893 841.33 21.148C840.999 20.8067 840.834 20.2627 840.834 19.516V10.716H842.994V19.34C842.994 19.6067 843.047 19.7933 843.154 19.9C843.261 19.996 843.415 20.044 843.618 20.044C843.895 20.044 844.146 20.0067 844.37 19.932V21.42C843.965 21.58 843.49 21.66 842.946 21.66Z" fill="#1E293B"/>
<path d="M895.667 196H882.333C881.597 196 881 196.597 881 197.333V210.667C881 211.403 881.597 212 882.333 212H895.667C896.403 212 897 211.403 897 210.667V197.333C897 196.597 896.403 196 895.667 196Z" fill="#1E293B"/>
<path d="M889 200V208M885 204H893" stroke="white" stroke-width="2" stroke-linecap="round" stroke-linejoin="round"/>
</svg>
