<svg width="592" height="72" viewBox="0 0 592 72" fill="none" xmlns="http://www.w3.org/2000/svg">
<path d="M16.912 41.5V31.196H21.744C22.5547 31.196 23.216 31.3507 23.728 31.66C24.2507 31.9693 24.64 32.3907 24.896 32.924C25.152 33.4573 25.28 34.0653 25.28 34.748C25.28 35.4413 25.1307 36.0547 24.832 36.588C24.544 37.1213 24.128 37.5373 23.584 37.836C23.0507 38.124 22.416 38.268 21.68 38.268H19.072V41.5H16.912ZM19.072 36.556H21.232C21.8507 36.556 22.3147 36.396 22.624 36.076C22.944 35.7453 23.104 35.3027 23.104 34.748C23.104 34.1507 22.9547 33.6973 22.656 33.388C22.3573 33.068 21.9093 32.908 21.312 32.908H19.072V36.556ZM26.4745 41.5V33.916H28.4745L28.5705 34.7C28.9118 34.4867 29.3332 34.2947 29.8345 34.124C30.3465 33.9427 30.8478 33.82 31.3385 33.756V35.388C31.0505 35.4307 30.7358 35.4947 30.3945 35.58C30.0532 35.6653 29.7278 35.7613 29.4185 35.868C29.1092 35.9747 28.8478 36.0867 28.6345 36.204V41.5H26.4745ZM35.9227 41.66C34.5041 41.66 33.4641 41.3187 32.8028 40.636C32.1414 39.9427 31.8108 38.9667 31.8108 37.708C31.8108 36.4493 32.1414 35.4787 32.8028 34.796C33.4748 34.1027 34.5148 33.756 35.9227 33.756C37.3414 33.756 38.3814 34.1027 39.0428 34.796C39.7148 35.4787 40.0508 36.4493 40.0508 37.708C40.0508 38.9667 39.7201 39.9427 39.0588 40.636C38.3974 41.3187 37.3521 41.66 35.9227 41.66ZM35.9227 39.82C36.6161 39.82 37.1121 39.6653 37.4108 39.356C37.7094 39.036 37.8588 38.4867 37.8588 37.708C37.8588 36.9293 37.7094 36.3853 37.4108 36.076C37.1121 35.756 36.6161 35.596 35.9227 35.596C35.2401 35.596 34.7494 35.756 34.4508 36.076C34.1521 36.3853 34.0028 36.9293 34.0028 37.708C34.0028 38.4867 34.1521 39.036 34.4508 39.356C34.7494 39.6653 35.2401 39.82 35.9227 39.82ZM42.1384 32.524V30.828H44.4904V32.524H42.1384ZM41.8664 45.244C41.1944 45.244 40.6184 45.148 40.1384 44.956V43.468C40.309 43.5213 40.4744 43.5587 40.6344 43.58C40.805 43.612 40.9597 43.628 41.0984 43.628C41.5357 43.628 41.8504 43.5373 42.0424 43.356C42.2344 43.1853 42.3304 42.908 42.3304 42.524V35.516H41.1944L41.3864 33.916H44.4904V42.732C44.4904 43.4787 44.2717 44.0813 43.8344 44.54C43.4077 45.0093 42.7517 45.244 41.8664 45.244ZM50.2859 41.66C48.9739 41.66 47.9339 41.3347 47.1659 40.684C46.3979 40.0227 46.0139 39.0253 46.0139 37.692C46.0139 36.4867 46.3339 35.532 46.9739 34.828C47.6245 34.1133 48.5899 33.756 49.8699 33.756C51.0432 33.756 51.9392 34.0653 52.5579 34.684C53.1872 35.292 53.5019 36.092 53.5019 37.084V38.46H48.0139C48.1312 39.068 48.4085 39.484 48.8459 39.708C49.2939 39.932 49.9232 40.044 50.7339 40.044C51.1392 40.044 51.5499 40.0067 51.9659 39.932C52.3925 39.8573 52.7552 39.7613 53.0539 39.644V41.18C52.7019 41.34 52.2912 41.4573 51.8219 41.532C51.3525 41.6173 50.8405 41.66 50.2859 41.66ZM48.0139 37.132H51.6139V36.716C51.6139 36.2787 51.4859 35.9373 51.2299 35.692C50.9739 35.436 50.5419 35.308 49.9339 35.308C49.2192 35.308 48.7179 35.452 48.4299 35.74C48.1525 36.028 48.0139 36.492 48.0139 37.132ZM58.8778 41.66C57.5231 41.66 56.4831 41.324 55.7578 40.652C55.0431 39.98 54.6858 38.9987 54.6858 37.708C54.6858 36.3747 55.0698 35.3827 55.8378 34.732C56.6164 34.0813 57.6511 33.756 58.9418 33.756C59.4751 33.756 59.9338 33.7933 60.3178 33.868C60.7018 33.9427 61.0751 34.0653 61.4378 34.236V35.788C61.1711 35.66 60.8618 35.5587 60.5098 35.484C60.1578 35.4093 59.7791 35.372 59.3738 35.372C58.5631 35.372 57.9444 35.5427 57.5178 35.884C57.0911 36.2147 56.8778 36.8227 56.8778 37.708C56.8778 38.5187 57.0698 39.1107 57.4538 39.484C57.8484 39.8573 58.4831 40.044 59.3578 40.044C59.7311 40.044 60.0938 40.0067 60.4458 39.932C60.8084 39.8573 61.1444 39.7453 61.4538 39.596V41.196C60.7391 41.5053 59.8804 41.66 58.8778 41.66ZM65.8263 41.66C64.9516 41.66 64.3009 41.4307 63.8743 40.972C63.4583 40.5133 63.2503 39.8893 63.2503 39.1V35.58H62.1783V33.916H63.2503V32.284L65.4103 31.644V33.916H67.3303L67.2023 35.58H65.4103V38.956C65.4103 39.372 65.5063 39.66 65.6983 39.82C65.8903 39.9693 66.1889 40.044 66.5943 40.044C66.8929 40.044 67.2023 39.9907 67.5223 39.884V41.372C67.2876 41.468 67.0316 41.5373 66.7543 41.58C66.4769 41.6333 66.1676 41.66 65.8263 41.66Z" fill="#1E293B"/>
<path d="M124 16.5H404C405.933 16.5 407.5 18.067 407.5 20V52C407.5 53.933 405.933 55.5 404 55.5H124C122.067 55.5 120.5 53.933 120.5 52V20C120.5 18.067 122.067 16.5 124 16.5Z" fill="white"/>
<path d="M124 16.5H404C405.933 16.5 407.5 18.067 407.5 20V52C407.5 53.933 405.933 55.5 404 55.5H124C122.067 55.5 120.5 53.933 120.5 52V20C120.5 18.067 122.067 16.5 124 16.5Z" stroke="#ECEDF1"/>
<path d="M241.281 42L237.345 31.696H239.153L242.241 40.128L245.329 31.696H247.137L243.233 42H241.281ZM249.704 42.16C249.224 42.16 248.776 42.0747 248.36 41.904C247.955 41.7333 247.629 41.4773 247.384 41.136C247.139 40.784 247.016 40.352 247.016 39.84C247.016 39.1147 247.261 38.5333 247.752 38.096C248.253 37.648 249.021 37.424 250.056 37.424H252.488V37.088C252.488 36.7253 252.429 36.4373 252.312 36.224C252.205 36.0107 252.003 35.856 251.704 35.76C251.416 35.664 250.989 35.616 250.424 35.616C249.528 35.616 248.691 35.7493 247.912 36.016V34.72C248.253 34.5813 248.669 34.4693 249.16 34.384C249.651 34.2987 250.179 34.256 250.744 34.256C251.853 34.256 252.696 34.48 253.272 34.928C253.859 35.376 254.152 36.1067 254.152 37.12V42H252.664L252.552 41.232C252.243 41.5307 251.859 41.76 251.4 41.92C250.952 42.08 250.387 42.16 249.704 42.16ZM250.168 40.912C250.691 40.912 251.144 40.8267 251.528 40.656C251.923 40.4747 252.243 40.2347 252.488 39.936V38.608H250.088C249.576 38.608 249.203 38.7093 248.968 38.912C248.744 39.104 248.632 39.4027 248.632 39.808C248.632 40.2027 248.765 40.4853 249.032 40.656C249.299 40.8267 249.677 40.912 250.168 40.912ZM256.086 42V34.416H257.686L257.782 35.296C258.145 35.0613 258.577 34.848 259.078 34.656C259.579 34.464 260.075 34.3307 260.566 34.256V35.584C260.267 35.6373 259.942 35.7173 259.59 35.824C259.249 35.92 258.923 36.032 258.614 36.16C258.305 36.2773 258.043 36.4 257.83 36.528V42H256.086ZM262.476 32.832V31.392H264.38V32.832H262.476ZM262.62 42V35.744H261.468L261.628 34.416H264.364V42H262.62ZM270.031 42.16C268.665 42.16 267.663 41.8187 267.023 41.136C266.393 40.4533 266.079 39.4773 266.079 38.208C266.079 36.9387 266.399 35.9627 267.039 35.28C267.679 34.5973 268.676 34.256 270.031 34.256C271.396 34.256 272.399 34.5973 273.039 35.28C273.679 35.9627 273.999 36.9387 273.999 38.208C273.999 39.4773 273.679 40.4533 273.039 41.136C272.409 41.8187 271.407 42.16 270.031 42.16ZM270.031 40.688C270.831 40.688 271.396 40.496 271.727 40.112C272.068 39.7173 272.239 39.0827 272.239 38.208C272.239 37.3333 272.068 36.704 271.727 36.32C271.396 35.936 270.831 35.744 270.031 35.744C269.241 35.744 268.676 35.936 268.335 36.32C268.004 36.704 267.839 37.3333 267.839 38.208C267.839 39.0827 268.004 39.7173 268.335 40.112C268.676 40.496 269.241 40.688 270.031 40.688ZM278.432 42.16C277.525 42.16 276.826 41.9093 276.336 41.408C275.856 40.9067 275.616 40.1707 275.616 39.2V34.416H277.36V39.2C277.36 39.7653 277.498 40.1813 277.776 40.448C278.053 40.7147 278.48 40.848 279.056 40.848C279.482 40.848 279.877 40.768 280.24 40.608C280.602 40.448 280.917 40.2347 281.184 39.968V34.416H282.911V42H281.328L281.248 41.216C280.906 41.4827 280.501 41.7067 280.032 41.888C279.562 42.0693 279.029 42.16 278.432 42.16ZM287.474 42.16C286.951 42.16 286.45 42.1227 285.97 42.048C285.5 41.9733 285.111 41.8827 284.802 41.776V40.304C285.164 40.4427 285.564 40.5493 286.002 40.624C286.439 40.6987 286.855 40.736 287.25 40.736C287.847 40.736 288.274 40.6827 288.53 40.576C288.786 40.4693 288.914 40.2613 288.914 39.952C288.914 39.728 288.834 39.552 288.674 39.424C288.524 39.296 288.295 39.1787 287.986 39.072C287.687 38.9653 287.303 38.8373 286.834 38.688C286.386 38.5387 285.996 38.3787 285.666 38.208C285.335 38.0267 285.079 37.7973 284.898 37.52C284.716 37.2427 284.626 36.88 284.626 36.432C284.626 35.7387 284.876 35.2053 285.378 34.832C285.879 34.448 286.684 34.256 287.794 34.256C288.231 34.256 288.647 34.288 289.042 34.352C289.436 34.416 289.772 34.496 290.05 34.592V36.048C289.751 35.9307 289.42 35.84 289.058 35.776C288.706 35.712 288.375 35.68 288.066 35.68C287.511 35.68 287.09 35.728 286.802 35.824C286.524 35.92 286.386 36.112 286.386 36.4C286.386 36.6987 286.53 36.912 286.818 37.04C287.116 37.1573 287.591 37.3227 288.242 37.536C288.839 37.7173 289.314 37.9093 289.666 38.112C290.018 38.3147 290.268 38.56 290.418 38.848C290.578 39.1253 290.658 39.488 290.658 39.936C290.658 40.6827 290.386 41.2427 289.842 41.616C289.298 41.9787 288.508 42.16 287.474 42.16Z" fill="#1E293B"/>
<path d="M432.912 32V21.696H435.088L438.112 27.888L441.136 21.696H443.296V32H441.136V25.296L438.736 30.224H437.488L435.072 25.296V32H432.912ZM447.915 32.16C447.008 32.16 446.299 31.9093 445.787 31.408C445.286 30.896 445.035 30.1493 445.035 29.168V24.416H447.195V29.12C447.195 29.632 447.318 30.0053 447.563 30.24C447.808 30.464 448.176 30.576 448.667 30.576C449.04 30.576 449.382 30.5013 449.691 30.352C450.011 30.2027 450.283 30.016 450.507 29.792V24.416H452.667V32H450.667L450.587 31.28C450.267 31.536 449.888 31.7493 449.451 31.92C449.024 32.08 448.512 32.16 447.915 32.16ZM456.618 32.16C455.882 32.16 455.343 31.9893 455.002 31.648C454.671 31.3067 454.506 30.7627 454.506 30.016V21.216H456.666V29.84C456.666 30.1067 456.719 30.2933 456.826 30.4C456.932 30.496 457.087 30.544 457.29 30.544C457.567 30.544 457.818 30.5067 458.042 30.432V31.92C457.636 32.08 457.162 32.16 456.618 32.16ZM461.873 32.16C460.998 32.16 460.348 31.9307 459.921 31.472C459.505 31.0133 459.297 30.3893 459.297 29.6V26.08H458.225V24.416H459.297V22.784L461.457 22.144V24.416H463.377L463.249 26.08H461.457V29.456C461.457 29.872 461.553 30.16 461.745 30.32C461.937 30.4693 462.236 30.544 462.641 30.544C462.94 30.544 463.249 30.4907 463.569 30.384V31.872C463.334 31.968 463.078 32.0373 462.801 32.08C462.524 32.1333 462.214 32.16 461.873 32.16ZM465.206 23.024V21.328H467.558V23.024H465.206ZM465.382 32V26.016H464.246L464.438 24.416H467.542V32H465.382ZM469.381 35.456V24.416H471.253L471.365 25.12C471.695 24.8427 472.058 24.6293 472.453 24.48C472.847 24.3307 473.311 24.256 473.845 24.256C474.954 24.256 475.807 24.56 476.405 25.168C477.013 25.7653 477.317 26.7467 477.317 28.112C477.317 29.4773 476.991 30.496 476.341 31.168C475.701 31.8293 474.826 32.16 473.717 32.16C472.863 32.16 472.138 31.968 471.541 31.584V35.456H469.381ZM473.173 30.576C473.813 30.576 474.298 30.3787 474.629 29.984C474.959 29.5893 475.125 28.9707 475.125 28.128C475.125 27.3173 474.975 26.736 474.677 26.384C474.378 26.0213 473.898 25.84 473.237 25.84C472.575 25.84 472.01 26.0693 471.541 26.528V30C471.765 30.1707 471.999 30.3093 472.245 30.416C472.501 30.5227 472.81 30.576 473.173 30.576ZM480.93 32.16C480.194 32.16 479.656 31.9893 479.314 31.648C478.984 31.3067 478.818 30.7627 478.818 30.016V21.216H480.978V29.84C480.978 30.1067 481.032 30.2933 481.138 30.4C481.245 30.496 481.4 30.544 481.602 30.544C481.88 30.544 482.13 30.5067 482.354 30.432V31.92C481.949 32.08 481.474 32.16 480.93 32.16ZM487.536 32.16C486.224 32.16 485.184 31.8347 484.416 31.184C483.648 30.5227 483.264 29.5253 483.264 28.192C483.264 26.9867 483.584 26.032 484.224 25.328C484.875 24.6133 485.84 24.256 487.12 24.256C488.293 24.256 489.189 24.5653 489.808 25.184C490.437 25.792 490.752 26.592 490.752 27.584V28.96H485.264C485.381 29.568 485.659 29.984 486.096 30.208C486.544 30.432 487.173 30.544 487.984 30.544C488.389 30.544 488.8 30.5067 489.216 30.432C489.643 30.3573 490.005 30.2613 490.304 30.144V31.68C489.952 31.84 489.541 31.9573 489.072 32.032C488.603 32.1173 488.091 32.16 487.536 32.16ZM485.264 27.632H488.864V27.216C488.864 26.7787 488.736 26.4373 488.48 26.192C488.224 25.936 487.792 25.808 487.184 25.808C486.469 25.808 485.968 25.952 485.68 26.24C485.403 26.528 485.264 26.992 485.264 27.632ZM432.912 51V40.696H437.744C438.555 40.696 439.216 40.8507 439.728 41.16C440.251 41.4693 440.64 41.8907 440.896 42.424C441.152 42.9573 441.28 43.5653 441.28 44.248C441.28 44.9413 441.131 45.5547 440.832 46.088C440.544 46.6213 440.128 47.0373 439.584 47.336C439.051 47.624 438.416 47.768 437.68 47.768H435.072V51H432.912ZM435.072 46.056H437.232C437.851 46.056 438.315 45.896 438.624 45.576C438.944 45.2453 439.104 44.8027 439.104 44.248C439.104 43.6507 438.955 43.1973 438.656 42.888C438.357 42.568 437.909 42.408 437.312 42.408H435.072V46.056ZM442.475 51V43.416H444.475L444.571 44.2C444.912 43.9867 445.333 43.7947 445.835 43.624C446.347 43.4427 446.848 43.32 447.339 43.256V44.888C447.051 44.9307 446.736 44.9947 446.395 45.08C446.053 45.1653 445.728 45.2613 445.419 45.368C445.109 45.4747 444.848 45.5867 444.635 45.704V51H442.475ZM451.923 51.16C450.504 51.16 449.464 50.8187 448.803 50.136C448.141 49.4427 447.811 48.4667 447.811 47.208C447.811 45.9493 448.141 44.9787 448.803 44.296C449.475 43.6027 450.515 43.256 451.923 43.256C453.341 43.256 454.381 43.6027 455.043 44.296C455.715 44.9787 456.051 45.9493 456.051 47.208C456.051 48.4667 455.72 49.4427 455.059 50.136C454.397 50.8187 453.352 51.16 451.923 51.16ZM451.923 49.32C452.616 49.32 453.112 49.1653 453.411 48.856C453.709 48.536 453.859 47.9867 453.859 47.208C453.859 46.4293 453.709 45.8853 453.411 45.576C453.112 45.256 452.616 45.096 451.923 45.096C451.24 45.096 450.749 45.256 450.451 45.576C450.152 45.8853 450.003 46.4293 450.003 47.208C450.003 47.9867 450.152 48.536 450.451 48.856C450.749 49.1653 451.24 49.32 451.923 49.32ZM458.138 42.024V40.328H460.49V42.024H458.138ZM457.866 54.744C457.194 54.744 456.618 54.648 456.138 54.456V52.968C456.309 53.0213 456.474 53.0587 456.634 53.08C456.805 53.112 456.96 53.128 457.098 53.128C457.536 53.128 457.85 53.0373 458.042 52.856C458.234 52.6853 458.33 52.408 458.33 52.024V45.016H457.194L457.386 43.416H460.49V52.232C460.49 52.9787 460.272 53.5813 459.834 54.04C459.408 54.5093 458.752 54.744 457.866 54.744ZM466.286 51.16C464.974 51.16 463.934 50.8347 463.166 50.184C462.398 49.5227 462.014 48.5253 462.014 47.192C462.014 45.9867 462.334 45.032 462.974 44.328C463.625 43.6133 464.59 43.256 465.87 43.256C467.043 43.256 467.939 43.5653 468.558 44.184C469.187 44.792 469.502 45.592 469.502 46.584V47.96H464.014C464.131 48.568 464.409 48.984 464.846 49.208C465.294 49.432 465.923 49.544 466.734 49.544C467.139 49.544 467.55 49.5067 467.966 49.432C468.393 49.3573 468.755 49.2613 469.054 49.144V50.68C468.702 50.84 468.291 50.9573 467.822 51.032C467.353 51.1173 466.841 51.16 466.286 51.16ZM464.014 46.632H467.614V46.216C467.614 45.7787 467.486 45.4373 467.23 45.192C466.974 44.936 466.542 44.808 465.934 44.808C465.219 44.808 464.718 44.952 464.43 45.24C464.153 45.528 464.014 45.992 464.014 46.632ZM474.878 51.16C473.523 51.16 472.483 50.824 471.758 50.152C471.043 49.48 470.686 48.4987 470.686 47.208C470.686 45.8747 471.07 44.8827 471.838 44.232C472.616 43.5813 473.651 43.256 474.942 43.256C475.475 43.256 475.934 43.2933 476.318 43.368C476.702 43.4427 477.075 43.5653 477.438 43.736V45.288C477.171 45.16 476.862 45.0587 476.51 44.984C476.158 44.9093 475.779 44.872 475.374 44.872C474.563 44.872 473.944 45.0427 473.518 45.384C473.091 45.7147 472.878 46.3227 472.878 47.208C472.878 48.0187 473.07 48.6107 473.454 48.984C473.848 49.3573 474.483 49.544 475.358 49.544C475.731 49.544 476.094 49.5067 476.446 49.432C476.808 49.3573 477.144 49.2453 477.454 49.096V50.696C476.739 51.0053 475.88 51.16 474.878 51.16ZM481.826 51.16C480.952 51.16 480.301 50.9307 479.874 50.472C479.458 50.0133 479.25 49.3893 479.25 48.6V45.08H478.178V43.416H479.25V41.784L481.41 41.144V43.416H483.33L483.202 45.08H481.41V48.456C481.41 48.872 481.506 49.16 481.698 49.32C481.89 49.4693 482.189 49.544 482.594 49.544C482.893 49.544 483.202 49.4907 483.522 49.384V50.872C483.288 50.968 483.032 51.0373 482.754 51.08C482.477 51.1333 482.168 51.16 481.826 51.16ZM487.303 51.16C486.737 51.16 486.199 51.1173 485.687 51.032C485.175 50.9573 484.764 50.8613 484.455 50.744V48.952C484.828 49.1013 485.249 49.2187 485.719 49.304C486.188 49.3787 486.62 49.416 487.015 49.416C487.548 49.416 487.921 49.384 488.135 49.32C488.359 49.256 488.471 49.112 488.471 48.888C488.471 48.632 488.3 48.4453 487.959 48.328C487.628 48.2107 487.132 48.0453 486.471 47.832C485.777 47.5973 485.244 47.3147 484.871 46.984C484.497 46.6533 484.311 46.1627 484.311 45.512C484.311 44.7867 484.572 44.232 485.095 43.848C485.628 43.4533 486.481 43.256 487.655 43.256C488.124 43.256 488.567 43.2933 488.983 43.368C489.399 43.432 489.751 43.512 490.039 43.608V45.384C489.751 45.2453 489.42 45.144 489.047 45.08C488.673 45.0053 488.327 44.968 488.007 44.968C487.548 44.968 487.18 45 486.903 45.064C486.636 45.128 486.503 45.2667 486.503 45.48C486.503 45.7147 486.647 45.88 486.935 45.976C487.233 46.072 487.692 46.216 488.311 46.408C488.919 46.5893 489.393 46.7867 489.735 47C490.076 47.2133 490.316 47.4693 490.455 47.768C490.593 48.056 490.663 48.4187 490.663 48.856C490.663 50.392 489.543 51.16 487.303 51.16Z" fill="#1E293B"/>
<rect x="536" y="25" width="40" height="22" rx="11" fill="#10C042"/>
<g filter="url(#filter0_d_2275_26919)">
<rect x="556" y="27" width="18" height="18" rx="9" fill="white"/>
</g>
<defs>
<filter id="filter0_d_2275_26919" x="552" y="25" width="26" height="26" filterUnits="userSpaceOnUse" color-interpolation-filters="sRGB">
<feFlood flood-opacity="0" result="BackgroundImageFix"/>
<feColorMatrix in="SourceAlpha" type="matrix" values="0 0 0 0 0 0 0 0 0 0 0 0 0 0 0 0 0 0 127 0" result="hardAlpha"/>
<feOffset dy="2"/>
<feGaussianBlur stdDeviation="2"/>
<feComposite in2="hardAlpha" operator="out"/>
<feColorMatrix type="matrix" values="0 0 0 0 0.152941 0 0 0 0 0.152941 0 0 0 0 0.152941 0 0 0 0.1 0"/>
<feBlend mode="normal" in2="BackgroundImageFix" result="effect1_dropShadow_2275_26919"/>
<feBlend mode="normal" in="SourceGraphic" in2="effect1_dropShadow_2275_26919" result="shape"/>
</filter>
</defs>
</svg>
