<svg width="288" height="160" viewBox="0 0 288 160" fill="none" xmlns="http://www.w3.org/2000/svg">
<rect x="0.5" y="0.5" width="287" height="159" rx="7.5" stroke="#ECEDF1"/>
<path d="M8 0.5H280C284.142 0.500002 287.5 3.85787 287.5 8V31.5H0.5V8C0.5 3.85786 3.85786 0.5 8 0.5Z" fill="#F3F4F7"/>
<path d="M8 0.5H280C284.142 0.500002 287.5 3.85787 287.5 8V31.5H0.5V8C0.5 3.85786 3.85786 0.5 8 0.5Z" stroke="#ECEDF1"/>
<path d="M12.5886 21.66C11.9272 21.66 11.3086 21.612 10.7326 21.516C10.1672 21.42 9.67656 21.2813 9.26056 21.1V19.196C9.7299 19.388 10.2366 19.5427 10.7806 19.66C11.3246 19.7773 11.8579 19.836 12.3806 19.836C13.1272 19.836 13.6766 19.7667 14.0286 19.628C14.3806 19.4893 14.5566 19.1747 14.5566 18.684C14.5566 18.3747 14.4819 18.1293 14.3326 17.948C14.1832 17.7667 13.9219 17.6067 13.5486 17.468C13.1859 17.3187 12.6686 17.1533 11.9966 16.972C10.9192 16.6733 10.1619 16.3 9.72456 15.852C9.28723 15.404 9.06856 14.7853 9.06856 13.996C9.06856 13.0467 9.41523 12.316 10.1086 11.804C10.8019 11.292 11.8099 11.036 13.1326 11.036C13.7512 11.036 14.3272 11.0787 14.8606 11.164C15.3939 11.2493 15.8259 11.3507 16.1566 11.468V13.372C15.2819 13.0413 14.3699 12.876 13.4206 12.876C12.7486 12.876 12.2206 12.9507 11.8366 13.1C11.4526 13.2387 11.2606 13.5373 11.2606 13.996C11.2606 14.2627 11.3299 14.476 11.4686 14.636C11.6072 14.796 11.8419 14.94 12.1726 15.068C12.5139 15.196 12.9886 15.34 13.5966 15.5C14.4392 15.724 15.0899 15.9907 15.5486 16.3C16.0072 16.6093 16.3219 16.9613 16.4926 17.356C16.6739 17.7507 16.7646 18.1933 16.7646 18.684C16.7646 19.58 16.4232 20.3 15.7406 20.844C15.0579 21.388 14.0072 21.66 12.5886 21.66ZM21.0372 21.66C20.1625 21.66 19.5119 21.4307 19.0852 20.972C18.6692 20.5133 18.4612 19.8893 18.4612 19.1V15.58H17.3892V13.916H18.4612V12.284L20.6212 11.644V13.916H22.5412L22.4132 15.58H20.6212V18.956C20.6212 19.372 20.7172 19.66 20.9092 19.82C21.1012 19.9693 21.3999 20.044 21.8052 20.044C22.1039 20.044 22.4132 19.9907 22.7332 19.884V21.372C22.4985 21.468 22.2425 21.5373 21.9652 21.58C21.6879 21.6333 21.3785 21.66 21.0372 21.66ZM26.2257 21.66C25.7457 21.66 25.2977 21.5747 24.8817 21.404C24.4764 21.2227 24.1457 20.9613 23.8897 20.62C23.6444 20.268 23.5217 19.8307 23.5217 19.308C23.5217 18.5613 23.783 17.964 24.3057 17.516C24.839 17.068 25.623 16.844 26.6577 16.844H28.8977V16.636C28.8977 16.1667 28.7644 15.836 28.4977 15.644C28.2417 15.452 27.719 15.356 26.9297 15.356C26.0657 15.356 25.2337 15.4893 24.4337 15.756V14.236C24.7857 14.0973 25.2124 13.9853 25.7137 13.9C26.2257 13.804 26.7804 13.756 27.3777 13.756C28.519 13.756 29.399 13.9907 30.0177 14.46C30.647 14.9187 30.9617 15.66 30.9617 16.684V21.5H29.0897L28.9777 20.812C28.679 21.0787 28.311 21.2867 27.8737 21.436C27.4364 21.5853 26.887 21.66 26.2257 21.66ZM26.8177 20.236C27.2977 20.236 27.7137 20.156 28.0657 19.996C28.4177 19.836 28.695 19.6333 28.8977 19.388V18.188H26.7057C25.863 18.188 25.4417 18.5347 25.4417 19.228C25.4417 19.9 25.9004 20.236 26.8177 20.236ZM35.7091 21.66C34.8344 21.66 34.1837 21.4307 33.7571 20.972C33.3411 20.5133 33.1331 19.8893 33.1331 19.1V15.58H32.0611V13.916H33.1331V12.284L35.2931 11.644V13.916H37.2131L37.0851 15.58H35.2931V18.956C35.2931 19.372 35.3891 19.66 35.5811 19.82C35.7731 19.9693 36.0717 20.044 36.4771 20.044C36.7757 20.044 37.0851 19.9907 37.4051 19.884V21.372C37.1704 21.468 36.9144 21.5373 36.6371 21.58C36.3597 21.6333 36.0504 21.66 35.7091 21.66ZM41.3136 21.66C40.4069 21.66 39.6976 21.4093 39.1856 20.908C38.6842 20.396 38.4336 19.6493 38.4336 18.668V13.916H40.5936V18.62C40.5936 19.132 40.7162 19.5053 40.9616 19.74C41.2069 19.964 41.5749 20.076 42.0656 20.076C42.4389 20.076 42.7802 20.0013 43.0896 19.852C43.4096 19.7027 43.6816 19.516 43.9056 19.292V13.916H46.0656V21.5H44.0656L43.9856 20.78C43.6656 21.036 43.2869 21.2493 42.8496 21.42C42.4229 21.58 41.9109 21.66 41.3136 21.66ZM50.5762 21.66C50.0109 21.66 49.4722 21.6173 48.9602 21.532C48.4482 21.4573 48.0375 21.3613 47.7282 21.244V19.452C48.1015 19.6013 48.5229 19.7187 48.9922 19.804C49.4615 19.8787 49.8935 19.916 50.2882 19.916C50.8215 19.916 51.1949 19.884 51.4082 19.82C51.6322 19.756 51.7442 19.612 51.7442 19.388C51.7442 19.132 51.5735 18.9453 51.2322 18.828C50.9015 18.7107 50.4055 18.5453 49.7442 18.332C49.0509 18.0973 48.5175 17.8147 48.1442 17.484C47.7709 17.1533 47.5842 16.6627 47.5842 16.012C47.5842 15.2867 47.8455 14.732 48.3682 14.348C48.9015 13.9533 49.7549 13.756 50.9282 13.756C51.3975 13.756 51.8402 13.7933 52.2562 13.868C52.6722 13.932 53.0242 14.012 53.3122 14.108V15.884C53.0242 15.7453 52.6935 15.644 52.3202 15.58C51.9469 15.5053 51.6002 15.468 51.2802 15.468C50.8215 15.468 50.4535 15.5 50.1762 15.564C49.9095 15.628 49.7762 15.7667 49.7762 15.98C49.7762 16.2147 49.9202 16.38 50.2082 16.476C50.5069 16.572 50.9655 16.716 51.5842 16.908C52.1922 17.0893 52.6669 17.2867 53.0082 17.5C53.3495 17.7133 53.5895 17.9693 53.7282 18.268C53.8669 18.556 53.9362 18.9187 53.9362 19.356C53.9362 20.892 52.8162 21.66 50.5762 21.66Z" fill="#1E293B"/>
<path d="M164.107 21.5V11.196H168.427C169.974 11.196 171.137 11.596 171.915 12.396C172.705 13.1853 173.099 14.5187 173.099 16.396C173.099 18.1667 172.71 19.4627 171.931 20.284C171.163 21.0947 169.995 21.5 168.427 21.5H164.107ZM166.267 19.836H168.123C168.731 19.836 169.243 19.7453 169.659 19.564C170.075 19.372 170.385 19.0307 170.587 18.54C170.801 18.0387 170.907 17.324 170.907 16.396C170.907 15.468 170.811 14.7587 170.619 14.268C170.427 13.7773 170.129 13.4413 169.723 13.26C169.318 13.0787 168.785 12.988 168.123 12.988H166.267V19.836ZM176.757 21.66C176.277 21.66 175.829 21.5747 175.413 21.404C175.008 21.2227 174.677 20.9613 174.421 20.62C174.176 20.268 174.053 19.8307 174.053 19.308C174.053 18.5613 174.314 17.964 174.837 17.516C175.37 17.068 176.154 16.844 177.189 16.844H179.429V16.636C179.429 16.1667 179.296 15.836 179.029 15.644C178.773 15.452 178.25 15.356 177.461 15.356C176.597 15.356 175.765 15.4893 174.965 15.756V14.236C175.317 14.0973 175.744 13.9853 176.245 13.9C176.757 13.804 177.312 13.756 177.909 13.756C179.05 13.756 179.93 13.9907 180.549 14.46C181.178 14.9187 181.493 15.66 181.493 16.684V21.5H179.621L179.509 20.812C179.21 21.0787 178.842 21.2867 178.405 21.436C177.968 21.5853 177.418 21.66 176.757 21.66ZM177.349 20.236C177.829 20.236 178.245 20.156 178.597 19.996C178.949 19.836 179.226 19.6333 179.429 19.388V18.188H177.237C176.394 18.188 175.973 18.5347 175.973 19.228C175.973 19.9 176.432 20.236 177.349 20.236ZM186.24 21.66C185.366 21.66 184.715 21.4307 184.288 20.972C183.872 20.5133 183.664 19.8893 183.664 19.1V15.58H182.592V13.916H183.664V12.284L185.824 11.644V13.916H187.744L187.616 15.58H185.824V18.956C185.824 19.372 185.92 19.66 186.112 19.82C186.304 19.9693 186.603 20.044 187.008 20.044C187.307 20.044 187.616 19.9907 187.936 19.884V21.372C187.702 21.468 187.446 21.5373 187.168 21.58C186.891 21.6333 186.582 21.66 186.24 21.66ZM192.997 21.66C191.685 21.66 190.645 21.3347 189.877 20.684C189.109 20.0227 188.725 19.0253 188.725 17.692C188.725 16.4867 189.045 15.532 189.685 14.828C190.335 14.1133 191.301 13.756 192.581 13.756C193.754 13.756 194.65 14.0653 195.269 14.684C195.898 15.292 196.213 16.092 196.213 17.084V18.46H190.725C190.842 19.068 191.119 19.484 191.557 19.708C192.005 19.932 192.634 20.044 193.445 20.044C193.85 20.044 194.261 20.0067 194.677 19.932C195.103 19.8573 195.466 19.7613 195.765 19.644V21.18C195.413 21.34 195.002 21.4573 194.533 21.532C194.063 21.6173 193.551 21.66 192.997 21.66ZM190.725 17.132H194.325V16.716C194.325 16.2787 194.197 15.9373 193.941 15.692C193.685 15.436 193.253 15.308 192.645 15.308C191.93 15.308 191.429 15.452 191.141 15.74C190.863 16.028 190.725 16.492 190.725 17.132Z" fill="#1E293B"/>
<mask id="path-5-inside-1_2275_14319" fill="white">
<path d="M0 32H288V64H0V32Z"/>
</mask>
<path d="M288 64V63H0V64V65H288V64Z" fill="#ECEDF1" mask="url(#path-5-inside-1_2275_14319)"/>
<path d="M13.8478 53.66C12.1518 53.66 10.8665 53.196 9.99181 52.268C9.12781 51.34 8.69581 50.0867 8.69581 48.508C8.69581 47.3773 8.87715 46.4067 9.23981 45.596C9.61315 44.7747 10.1785 44.1453 10.9358 43.708C11.6931 43.26 12.6585 43.036 13.8318 43.036C14.4291 43.036 14.9731 43.084 15.4638 43.18C15.9651 43.2653 16.4291 43.3827 16.8558 43.532V45.052C16.4291 44.8813 15.9705 44.7533 15.4798 44.668C14.9998 44.572 14.4931 44.524 13.9598 44.524C12.6798 44.524 11.7731 44.8653 11.2398 45.548C10.7171 46.2307 10.4558 47.2173 10.4558 48.508C10.4558 49.7133 10.7438 50.6307 11.3198 51.26C11.8958 51.8787 12.7865 52.188 13.9918 52.188C14.4825 52.188 14.9731 52.1507 15.4638 52.076C15.9651 51.9907 16.4345 51.8627 16.8718 51.692V53.228C16.4451 53.3667 15.9811 53.4733 15.4798 53.548C14.9891 53.6227 14.4451 53.66 13.8478 53.66ZM18.5627 53.5V45.916H20.1627L20.2587 46.796C20.6214 46.5613 21.0534 46.348 21.5547 46.156C22.056 45.964 22.552 45.8307 23.0427 45.756V47.084C22.744 47.1373 22.4187 47.2173 22.0667 47.324C21.7254 47.42 21.4 47.532 21.0907 47.66C20.7814 47.7773 20.52 47.9 20.3067 48.028V53.5H18.5627ZM27.8402 53.66C26.5175 53.66 25.4935 53.3347 24.7682 52.684C24.0429 52.0333 23.6802 51.036 23.6802 49.692C23.6802 48.476 23.9895 47.516 24.6082 46.812C25.2269 46.108 26.1655 45.756 27.4242 45.756C28.5762 45.756 29.4402 46.06 30.0162 46.668C30.6029 47.2653 30.8962 48.0387 30.8962 48.988V50.396H25.3442C25.4295 51.132 25.6962 51.6387 26.1442 51.916C26.5922 52.1933 27.2749 52.332 28.1922 52.332C28.5762 52.332 28.9709 52.2947 29.3762 52.22C29.7815 52.1453 30.1335 52.0493 30.4322 51.932V53.212C30.0909 53.3613 29.6962 53.4733 29.2482 53.548C28.8109 53.6227 28.3415 53.66 27.8402 53.66ZM25.3442 49.26H29.3602V48.732C29.3602 48.2093 29.2162 47.804 28.9282 47.516C28.6402 47.2173 28.1549 47.068 27.4722 47.068C26.6615 47.068 26.1015 47.244 25.7922 47.596C25.4935 47.948 25.3442 48.5027 25.3442 49.26ZM34.9619 53.66C34.4819 53.66 34.0339 53.5747 33.6179 53.404C33.2126 53.2333 32.8873 52.9773 32.6419 52.636C32.3966 52.284 32.2739 51.852 32.2739 51.34C32.2739 50.6147 32.5193 50.0333 33.0099 49.596C33.5113 49.148 34.2793 48.924 35.3139 48.924H37.7459V48.588C37.7459 48.2253 37.6873 47.9373 37.5699 47.724C37.4633 47.5107 37.2606 47.356 36.9619 47.26C36.6739 47.164 36.2473 47.116 35.6819 47.116C34.7859 47.116 33.9486 47.2493 33.1699 47.516V46.22C33.5113 46.0813 33.9273 45.9693 34.4179 45.884C34.9086 45.7987 35.4366 45.756 36.0019 45.756C37.1113 45.756 37.9539 45.98 38.5299 46.428C39.1166 46.876 39.4099 47.6067 39.4099 48.62V53.5H37.9219L37.8099 52.732C37.5006 53.0307 37.1166 53.26 36.6579 53.42C36.2099 53.58 35.6446 53.66 34.9619 53.66ZM35.4259 52.412C35.9486 52.412 36.4019 52.3267 36.7859 52.156C37.1806 51.9747 37.5006 51.7347 37.7459 51.436V50.108H35.3459C34.8339 50.108 34.4606 50.2093 34.2259 50.412C34.0019 50.604 33.8899 50.9027 33.8899 51.308C33.8899 51.7027 34.0233 51.9853 34.2899 52.156C34.5566 52.3267 34.9353 52.412 35.4259 52.412ZM44.2399 53.66C43.4293 53.66 42.8213 53.4467 42.4159 53.02C42.0213 52.5827 41.8239 51.9907 41.8239 51.244V47.276H40.7039V45.916H41.8239V44.172L43.5519 43.644V45.916H45.5679L45.4559 47.276H43.5519V51.148C43.5519 51.5853 43.6533 51.8947 43.8559 52.076C44.0586 52.2467 44.3893 52.332 44.8479 52.332C45.1359 52.332 45.4399 52.2787 45.7599 52.172V53.404C45.3439 53.5747 44.8373 53.66 44.2399 53.66ZM50.9339 53.66C49.6113 53.66 48.5873 53.3347 47.8619 52.684C47.1366 52.0333 46.7739 51.036 46.7739 49.692C46.7739 48.476 47.0833 47.516 47.7019 46.812C48.3206 46.108 49.2593 45.756 50.5179 45.756C51.6699 45.756 52.5339 46.06 53.1099 46.668C53.6966 47.2653 53.9899 48.0387 53.9899 48.988V50.396H48.4379C48.5233 51.132 48.7899 51.6387 49.2379 51.916C49.6859 52.1933 50.3686 52.332 51.2859 52.332C51.6699 52.332 52.0646 52.2947 52.4699 52.22C52.8753 52.1453 53.2273 52.0493 53.5259 51.932V53.212C53.1846 53.3613 52.7899 53.4733 52.3419 53.548C51.9046 53.6227 51.4353 53.66 50.9339 53.66ZM48.4379 49.26H52.4539V48.732C52.4539 48.2093 52.3099 47.804 52.0219 47.516C51.7339 47.2173 51.2486 47.068 50.5659 47.068C49.7553 47.068 49.1953 47.244 48.8859 47.596C48.5873 47.948 48.4379 48.5027 48.4379 49.26ZM58.8237 53.66C58.141 53.66 57.5384 53.5427 57.0157 53.308C56.493 53.0733 56.0877 52.684 55.7997 52.14C55.5117 51.596 55.3677 50.8653 55.3677 49.948C55.3677 49.0413 55.5224 48.2787 55.8317 47.66C56.141 47.0307 56.5677 46.556 57.1117 46.236C57.6664 45.916 58.2904 45.756 58.9837 45.756C59.4424 45.756 59.8477 45.8093 60.1997 45.916C60.5624 46.0227 60.909 46.188 61.2397 46.412V42.716H62.9837V53.5H61.4957L61.3837 52.748C61.0424 53.0573 60.669 53.2867 60.2637 53.436C59.8584 53.5853 59.3784 53.66 58.8237 53.66ZM59.2877 52.348C60.0664 52.348 60.717 52.0813 61.2397 51.548V47.756C60.7384 47.308 60.109 47.084 59.3517 47.084C58.6157 47.084 58.061 47.3293 57.6877 47.82C57.3144 48.3107 57.1277 49.0253 57.1277 49.964C57.1277 50.8707 57.2984 51.4947 57.6397 51.836C57.9917 52.1773 58.541 52.348 59.2877 52.348Z" fill="#1E293B"/>
<mask id="path-8-inside-2_2275_14319" fill="white">
<path d="M0 64H288V96H0V64Z"/>
</mask>
<path d="M288 96V95H0V96V97H288V96Z" fill="#ECEDF1" mask="url(#path-8-inside-2_2275_14319)"/>
<path d="M12.5186 85.66C11.1853 85.66 10.1133 85.4893 9.30263 85.148V83.612C9.76129 83.7827 10.252 83.9213 10.7746 84.028C11.308 84.1347 11.836 84.188 12.3586 84.188C13.18 84.188 13.7933 84.092 14.1986 83.9C14.6146 83.708 14.8226 83.324 14.8226 82.748C14.8226 82.396 14.7373 82.1133 14.5666 81.9C14.396 81.6867 14.1133 81.5053 13.7186 81.356C13.324 81.196 12.78 81.0307 12.0866 80.86C10.9773 80.572 10.1986 80.2093 9.75063 79.772C9.30263 79.324 9.07863 78.7107 9.07863 77.932C9.07863 77.0253 9.40929 76.316 10.0706 75.804C10.732 75.292 11.7186 75.036 13.0306 75.036C13.628 75.036 14.188 75.0787 14.7106 75.164C15.244 75.2493 15.66 75.3453 15.9586 75.452V76.988C15.148 76.6787 14.252 76.524 13.2706 76.524C12.5026 76.524 11.9053 76.6253 11.4786 76.828C11.052 77.0307 10.8386 77.3987 10.8386 77.932C10.8386 78.2413 10.9133 78.492 11.0626 78.684C11.212 78.876 11.468 79.0413 11.8306 79.18C12.204 79.3187 12.716 79.4733 13.3666 79.644C14.2093 79.8573 14.86 80.1133 15.3186 80.412C15.788 80.7 16.1133 81.0413 16.2946 81.436C16.4866 81.82 16.5826 82.2573 16.5826 82.748C16.5826 83.6547 16.2466 84.3693 15.5746 84.892C14.9026 85.404 13.884 85.66 12.5186 85.66ZM18.2736 85.5V74.716H20.0176V78.652C20.3483 78.3853 20.743 78.172 21.2016 78.012C21.6603 77.8413 22.1776 77.756 22.7536 77.756C23.7136 77.756 24.423 77.9853 24.8816 78.444C25.3403 78.9027 25.5696 79.6173 25.5696 80.588V85.5H23.8416V80.668C23.8416 80.0813 23.7136 79.6707 23.4576 79.436C23.2123 79.2013 22.7803 79.084 22.1616 79.084C21.7776 79.084 21.3883 79.1693 20.9936 79.34C20.599 79.5 20.2736 79.7133 20.0176 79.98V85.5H18.2736ZM28.1636 76.332V74.892H30.0676V76.332H28.1636ZM28.3076 85.5V79.244H27.1556L27.3156 77.916H30.0516V85.5H28.3076ZM32.0861 88.956V77.916H33.5901L33.6861 78.668C34.0275 78.3587 34.4008 78.1293 34.8061 77.98C35.2115 77.8307 35.6915 77.756 36.2461 77.756C37.3341 77.756 38.1821 78.0547 38.7901 78.652C39.3981 79.2387 39.7021 80.2147 39.7021 81.58C39.7021 82.9453 39.3875 83.9693 38.7581 84.652C38.1288 85.324 37.2701 85.66 36.1821 85.66C35.2648 85.66 34.4808 85.4467 33.8301 85.02V88.956H32.0861ZM35.7341 84.348C37.2061 84.348 37.9421 83.42 37.9421 81.564C37.9421 80.668 37.7768 80.0333 37.4461 79.66C37.1155 79.276 36.5608 79.084 35.7821 79.084C35.0035 79.084 34.3528 79.3507 33.8301 79.884V83.676C34.0755 83.8787 34.3475 84.044 34.6461 84.172C34.9555 84.2893 35.3181 84.348 35.7341 84.348ZM41.3986 88.956V77.916H42.9026L42.9986 78.668C43.34 78.3587 43.7133 78.1293 44.1186 77.98C44.524 77.8307 45.004 77.756 45.5586 77.756C46.6466 77.756 47.4946 78.0547 48.1026 78.652C48.7106 79.2387 49.0146 80.2147 49.0146 81.58C49.0146 82.9453 48.7 83.9693 48.0706 84.652C47.4413 85.324 46.5826 85.66 45.4946 85.66C44.5773 85.66 43.7933 85.4467 43.1426 85.02V88.956H41.3986ZM45.0466 84.348C46.5186 84.348 47.2546 83.42 47.2546 81.564C47.2546 80.668 47.0893 80.0333 46.7586 79.66C46.428 79.276 45.8733 79.084 45.0946 79.084C44.316 79.084 43.6653 79.3507 43.1426 79.884V83.676C43.388 83.8787 43.66 84.044 43.9586 84.172C44.268 84.2893 44.6306 84.348 45.0466 84.348ZM54.5511 85.66C53.2285 85.66 52.2045 85.3347 51.4791 84.684C50.7538 84.0333 50.3911 83.036 50.3911 81.692C50.3911 80.476 50.7005 79.516 51.3191 78.812C51.9378 78.108 52.8765 77.756 54.1351 77.756C55.2871 77.756 56.1511 78.06 56.7271 78.668C57.3138 79.2653 57.6071 80.0387 57.6071 80.988V82.396H52.0551C52.1405 83.132 52.4071 83.6387 52.8551 83.916C53.3031 84.1933 53.9858 84.332 54.9031 84.332C55.2871 84.332 55.6818 84.2947 56.0871 84.22C56.4925 84.1453 56.8445 84.0493 57.1431 83.932V85.212C56.8018 85.3613 56.4071 85.4733 55.9591 85.548C55.5218 85.6227 55.0525 85.66 54.5511 85.66ZM52.0551 81.26H56.0711V80.732C56.0711 80.2093 55.9271 79.804 55.6391 79.516C55.3511 79.2173 54.8658 79.068 54.1831 79.068C53.3725 79.068 52.8125 79.244 52.5031 79.596C52.2045 79.948 52.0551 80.5027 52.0551 81.26ZM62.4409 85.66C61.7582 85.66 61.1555 85.5427 60.6329 85.308C60.1102 85.0733 59.7049 84.684 59.4169 84.14C59.1289 83.596 58.9849 82.8653 58.9849 81.948C58.9849 81.0413 59.1395 80.2787 59.4489 79.66C59.7582 79.0307 60.1849 78.556 60.7289 78.236C61.2835 77.916 61.9075 77.756 62.6009 77.756C63.0595 77.756 63.4649 77.8093 63.8169 77.916C64.1795 78.0227 64.5262 78.188 64.8569 78.412V74.716H66.6009V85.5H65.1129L65.0009 84.748C64.6595 85.0573 64.2862 85.2867 63.8809 85.436C63.4755 85.5853 62.9955 85.66 62.4409 85.66ZM62.9049 84.348C63.6835 84.348 64.3342 84.0813 64.8569 83.548V79.756C64.3555 79.308 63.7262 79.084 62.9689 79.084C62.2329 79.084 61.6782 79.3293 61.3049 79.82C60.9315 80.3107 60.7449 81.0253 60.7449 81.964C60.7449 82.8707 60.9155 83.4947 61.2569 83.836C61.6089 84.1773 62.1582 84.348 62.9049 84.348Z" fill="#1E293B"/>
<path d="M142.553 86V78.224H143.609L143.721 79.248H143.753C143.956 78.8853 144.19 78.592 144.457 78.368C144.724 78.144 145.081 78.032 145.529 78.032C145.913 78.032 146.228 78.144 146.473 78.368C146.718 78.592 146.894 78.928 147.001 79.376C147.225 78.96 147.47 78.6347 147.737 78.4C148.014 78.1547 148.377 78.032 148.825 78.032C149.369 78.032 149.79 78.24 150.089 78.656C150.398 79.0613 150.553 79.6533 150.553 80.432V86H149.241V80.528C149.241 79.6213 148.964 79.168 148.409 79.168C148.142 79.168 147.918 79.2693 147.737 79.472C147.566 79.664 147.374 79.9627 147.161 80.368V86H145.945V80.528C145.945 80.08 145.881 79.744 145.753 79.52C145.636 79.2853 145.433 79.168 145.145 79.168C144.878 79.168 144.644 79.2693 144.441 79.472C144.249 79.664 144.057 79.9627 143.865 80.368V86H142.553ZM152.147 86V78.224H153.203L153.315 79.248H153.347C153.549 78.8853 153.784 78.592 154.051 78.368C154.317 78.144 154.675 78.032 155.123 78.032C155.507 78.032 155.821 78.144 156.067 78.368C156.312 78.592 156.488 78.928 156.595 79.376C156.819 78.96 157.064 78.6347 157.331 78.4C157.608 78.1547 157.971 78.032 158.419 78.032C158.963 78.032 159.384 78.24 159.683 78.656C159.992 79.0613 160.147 79.6533 160.147 80.432V86H158.835V80.528C158.835 79.6213 158.557 79.168 158.003 79.168C157.736 79.168 157.512 79.2693 157.331 79.472C157.16 79.664 156.968 79.9627 156.755 80.368V86H155.539V80.528C155.539 80.08 155.475 79.744 155.347 79.52C155.229 79.2853 155.027 79.168 154.739 79.168C154.472 79.168 154.237 79.2693 154.035 79.472C153.843 79.664 153.651 79.9627 153.459 80.368V86H152.147ZM162.397 88.56L167.645 74.64H168.829L163.581 88.56H162.397ZM174.742 86.192C173.729 86.192 172.913 85.84 172.294 85.136C171.676 84.4213 171.366 83.4187 171.366 82.128C171.366 81.2853 171.532 80.56 171.862 79.952C172.204 79.3333 172.641 78.8587 173.174 78.528C173.718 78.1973 174.294 78.032 174.902 78.032C175.361 78.032 175.777 78.1227 176.15 78.304C176.534 78.4747 176.892 78.72 177.222 79.04H177.27L177.206 77.6V74.608H178.518V86H177.43L177.318 84.976H177.27C176.961 85.3067 176.582 85.5947 176.134 85.84C175.697 86.0747 175.233 86.192 174.742 86.192ZM175.014 85.088C175.398 85.088 175.772 84.992 176.134 84.8C176.497 84.5973 176.854 84.304 177.206 83.92V80.048C176.854 79.7173 176.508 79.4827 176.166 79.344C175.836 79.2053 175.5 79.136 175.158 79.136C174.71 79.136 174.3 79.264 173.926 79.52C173.564 79.7653 173.27 80.112 173.046 80.56C172.833 80.9973 172.726 81.5147 172.726 82.112C172.726 83.04 172.929 83.7707 173.334 84.304C173.74 84.8267 174.3 85.088 175.014 85.088ZM184.336 86.192C183.323 86.192 182.507 85.84 181.888 85.136C181.269 84.4213 180.96 83.4187 180.96 82.128C180.96 81.2853 181.125 80.56 181.456 79.952C181.797 79.3333 182.235 78.8587 182.768 78.528C183.312 78.1973 183.888 78.032 184.496 78.032C184.955 78.032 185.371 78.1227 185.744 78.304C186.128 78.4747 186.485 78.72 186.816 79.04H186.864L186.8 77.6V74.608H188.112V86H187.024L186.912 84.976H186.864C186.555 85.3067 186.176 85.5947 185.728 85.84C185.291 86.0747 184.827 86.192 184.336 86.192ZM184.608 85.088C184.992 85.088 185.365 84.992 185.728 84.8C186.091 84.5973 186.448 84.304 186.8 83.92V80.048C186.448 79.7173 186.101 79.4827 185.76 79.344C185.429 79.2053 185.093 79.136 184.752 79.136C184.304 79.136 183.893 79.264 183.52 79.52C183.157 79.7653 182.864 80.112 182.64 80.56C182.427 80.9973 182.32 81.5147 182.32 82.112C182.32 83.04 182.523 83.7707 182.928 84.304C183.333 84.8267 183.893 85.088 184.608 85.088ZM191.178 88.56L196.426 74.64H197.61L192.362 88.56H191.178ZM201.284 89.344C201.113 89.344 200.932 89.328 200.74 89.296C200.558 89.264 200.398 89.2267 200.26 89.184L200.532 88.144C200.638 88.176 200.75 88.2027 200.868 88.224C200.996 88.2453 201.118 88.256 201.236 88.256C201.78 88.256 202.222 88.096 202.564 87.776C202.905 87.4667 203.172 87.072 203.364 86.592L203.604 86.016L199.972 78.224H201.299L203.204 82.528C203.353 82.8693 203.508 83.2373 203.668 83.632C203.838 84.016 204.004 84.4 204.164 84.784H204.228C204.366 84.4107 204.505 84.032 204.644 83.648C204.793 83.2533 204.932 82.88 205.06 82.528L206.756 78.224H208.003L204.58 86.64C204.388 87.152 204.148 87.6107 203.86 88.016C203.572 88.432 203.214 88.7573 202.788 88.992C202.372 89.2267 201.87 89.344 201.284 89.344ZM210.877 89.344C210.707 89.344 210.525 89.328 210.333 89.296C210.152 89.264 209.992 89.2267 209.853 89.184L210.125 88.144C210.232 88.176 210.344 88.2027 210.461 88.224C210.589 88.2453 210.712 88.256 210.829 88.256C211.373 88.256 211.816 88.096 212.157 87.776C212.499 87.4667 212.765 87.072 212.957 86.592L213.197 86.016L209.565 78.224H210.893L212.797 82.528C212.947 82.8693 213.101 83.2373 213.261 83.632C213.432 84.016 213.597 84.4 213.757 84.784H213.821C213.96 84.4107 214.099 84.032 214.237 83.648C214.387 83.2533 214.525 82.88 214.653 82.528L216.349 78.224H217.597L214.173 86.64C213.981 87.152 213.741 87.6107 213.453 88.016C213.165 88.432 212.808 88.7573 212.381 88.992C211.965 89.2267 211.464 89.344 210.877 89.344Z" fill="#A9ACB9"/>
<path d="M256 71C256.245 71 256.481 71.09 256.664 71.2527C256.847 71.4155 256.964 71.6397 256.993 71.883L257 72V73H259C259.505 72.9998 259.991 73.1904 260.361 73.5335C260.731 73.8766 260.957 74.3468 260.995 74.85L261 75V87C261 87.5046 260.81 87.9906 260.467 88.3605C260.123 88.7305 259.653 88.9572 259.15 88.995L259 89H245C244.495 89.0002 244.009 88.8096 243.639 88.4665C243.269 88.1234 243.043 87.6532 243.005 87.15L243 87V75C243 74.4954 243.19 74.0094 243.533 73.6395C243.877 73.2695 244.347 73.0428 244.85 73.005L245 73H247V72C247 71.7451 247.098 71.5 247.273 71.3146C247.448 71.1293 247.687 71.0178 247.941 71.0028C248.196 70.9879 248.446 71.0707 248.642 71.2343C248.837 71.3979 248.963 71.6299 248.993 71.883L249 72V73H255V72C255 71.7348 255.105 71.4804 255.293 71.2929C255.48 71.1054 255.735 71 256 71ZM259 80H245V87H259V80ZM259 75H245V78H259V75Z" fill="#1E293B"/>
<mask id="path-13-inside-3_2275_14319" fill="white">
<path d="M0 96H288V128H0V96Z"/>
</mask>
<path d="M288 128V127H0V128V129H288V128Z" fill="#ECEDF1" mask="url(#path-13-inside-3_2275_14319)"/>
<path d="M9.27363 117.5V107.196H13.4496C14.975 107.196 16.1056 107.601 16.8416 108.412C17.5776 109.212 17.9456 110.545 17.9456 112.412C17.9456 114.172 17.583 115.463 16.8576 116.284C16.1323 117.095 14.9963 117.5 13.4496 117.5H9.27363ZM11.0176 116.156H13.1776C13.8496 116.156 14.4096 116.06 14.8576 115.868C15.3056 115.665 15.6416 115.292 15.8656 114.748C16.0896 114.204 16.2016 113.425 16.2016 112.412C16.2016 111.399 16.1003 110.615 15.8976 110.06C15.695 109.505 15.3696 109.116 14.9216 108.892C14.4843 108.668 13.903 108.556 13.1776 108.556H11.0176V116.156ZM23.5043 117.66C22.1816 117.66 21.1576 117.335 20.4323 116.684C19.7069 116.033 19.3443 115.036 19.3443 113.692C19.3443 112.476 19.6536 111.516 20.2723 110.812C20.8909 110.108 21.8296 109.756 23.0883 109.756C24.2403 109.756 25.1043 110.06 25.6803 110.668C26.2669 111.265 26.5603 112.039 26.5603 112.988V114.396H21.0082C21.0936 115.132 21.3603 115.639 21.8083 115.916C22.2563 116.193 22.9389 116.332 23.8563 116.332C24.2403 116.332 24.6349 116.295 25.0403 116.22C25.4456 116.145 25.7976 116.049 26.0963 115.932V117.212C25.7549 117.361 25.3603 117.473 24.9123 117.548C24.4749 117.623 24.0056 117.66 23.5043 117.66ZM21.0082 113.26H25.0243V112.732C25.0243 112.209 24.8803 111.804 24.5923 111.516C24.3043 111.217 23.8189 111.068 23.1363 111.068C22.3256 111.068 21.7656 111.244 21.4563 111.596C21.1576 111.948 21.0082 112.503 21.0082 113.26ZM30.146 117.66C29.5273 117.66 29.058 117.511 28.738 117.212C28.418 116.903 28.258 116.396 28.258 115.692V106.716H30.002V115.532C30.002 115.831 30.0553 116.033 30.162 116.14C30.2687 116.247 30.4287 116.3 30.642 116.3C30.898 116.3 31.1433 116.268 31.378 116.204V117.468C31.1753 117.543 30.978 117.591 30.786 117.612C30.6047 117.644 30.3913 117.66 30.146 117.66ZM32.8199 108.332V106.892H34.7239V108.332H32.8199ZM32.9639 117.5V111.244H31.8119L31.9719 109.916H34.7079V117.5H32.9639ZM39.1019 117.5L36.1099 109.916H37.9179L40.0459 115.804L42.1739 109.916H43.9659L40.9899 117.5H39.1019ZM48.6449 117.66C47.3222 117.66 46.2982 117.335 45.5729 116.684C44.8475 116.033 44.4849 115.036 44.4849 113.692C44.4849 112.476 44.7942 111.516 45.4129 110.812C46.0315 110.108 46.9702 109.756 48.2289 109.756C49.3809 109.756 50.2449 110.06 50.8209 110.668C51.4075 111.265 51.7009 112.039 51.7009 112.988V114.396H46.1489C46.2342 115.132 46.5009 115.639 46.9489 115.916C47.3969 116.193 48.0795 116.332 48.9969 116.332C49.3809 116.332 49.7755 116.295 50.1809 116.22C50.5862 116.145 50.9382 116.049 51.2369 115.932V117.212C50.8955 117.361 50.5009 117.473 50.0529 117.548C49.6155 117.623 49.1462 117.66 48.6449 117.66ZM46.1489 113.26H50.1649V112.732C50.1649 112.209 50.0209 111.804 49.7329 111.516C49.4449 111.217 48.9595 111.068 48.2769 111.068C47.4662 111.068 46.9062 111.244 46.5969 111.596C46.2982 111.948 46.1489 112.503 46.1489 113.26ZM53.3986 117.5V109.916H54.9986L55.0946 110.796C55.4573 110.561 55.8893 110.348 56.3906 110.156C56.892 109.964 57.388 109.831 57.8786 109.756V111.084C57.58 111.137 57.2546 111.217 56.9026 111.324C56.5613 111.42 56.236 111.532 55.9266 111.66C55.6173 111.777 55.356 111.9 55.1426 112.028V117.5H53.3986ZM62.6761 117.66C61.3535 117.66 60.3295 117.335 59.6041 116.684C58.8788 116.033 58.5161 115.036 58.5161 113.692C58.5161 112.476 58.8255 111.516 59.4441 110.812C60.0628 110.108 61.0015 109.756 62.2601 109.756C63.4121 109.756 64.2761 110.06 64.8521 110.668C65.4388 111.265 65.7321 112.039 65.7321 112.988V114.396H60.1801C60.2655 115.132 60.5321 115.639 60.9801 115.916C61.4281 116.193 62.1108 116.332 63.0281 116.332C63.4121 116.332 63.8068 116.295 64.2121 116.22C64.6175 116.145 64.9695 116.049 65.2681 115.932V117.212C64.9268 117.361 64.5321 117.473 64.0841 117.548C63.6468 117.623 63.1775 117.66 62.6761 117.66ZM60.1801 113.26H64.1961V112.732C64.1961 112.209 64.0521 111.804 63.7641 111.516C63.4761 111.217 62.9908 111.068 62.3081 111.068C61.4975 111.068 60.9375 111.244 60.6281 111.596C60.3295 111.948 60.1801 112.503 60.1801 113.26ZM70.5659 117.66C69.8832 117.66 69.2805 117.543 68.7579 117.308C68.2352 117.073 67.8299 116.684 67.5419 116.14C67.2539 115.596 67.1099 114.865 67.1099 113.948C67.1099 113.041 67.2645 112.279 67.5739 111.66C67.8832 111.031 68.3099 110.556 68.8539 110.236C69.4085 109.916 70.0325 109.756 70.7259 109.756C71.1845 109.756 71.5899 109.809 71.9419 109.916C72.3045 110.023 72.6512 110.188 72.9819 110.412V106.716H74.7259V117.5H73.2379L73.1259 116.748C72.7845 117.057 72.4112 117.287 72.0059 117.436C71.6005 117.585 71.1205 117.66 70.5659 117.66ZM71.0299 116.348C71.8085 116.348 72.4592 116.081 72.9819 115.548V111.756C72.4805 111.308 71.8512 111.084 71.0939 111.084C70.3579 111.084 69.8032 111.329 69.4299 111.82C69.0565 112.311 68.8699 113.025 68.8699 113.964C68.8699 114.871 69.0405 115.495 69.3819 115.836C69.7339 116.177 70.2832 116.348 71.0299 116.348Z" fill="#1E293B"/>
<path d="M9.25019 149.5V139.196H13.9862C15.1382 139.196 15.9755 139.495 16.4982 140.092C17.0315 140.679 17.2982 141.479 17.2982 142.492C17.2982 143.217 17.1169 143.836 16.7542 144.348C16.3915 144.86 15.8689 145.217 15.1862 145.42C15.3782 145.559 15.5275 145.708 15.6342 145.868C15.7409 146.028 15.8475 146.241 15.9542 146.508L17.2502 149.5H15.4582L14.1942 146.62C14.0769 146.343 13.9329 146.145 13.7622 146.028C13.6022 145.911 13.3249 145.852 12.9302 145.852H10.9942V149.5H9.25019ZM10.9942 144.444H13.5222C14.1515 144.444 14.6475 144.289 15.0102 143.98C15.3729 143.671 15.5542 143.175 15.5542 142.492C15.5542 141.201 14.9302 140.556 13.6822 140.556H10.9942V144.444ZM22.6214 149.66C21.2988 149.66 20.2748 149.335 19.5494 148.684C18.8241 148.033 18.4614 147.036 18.4614 145.692C18.4614 144.476 18.7708 143.516 19.3894 142.812C20.0081 142.108 20.9468 141.756 22.2054 141.756C23.3574 141.756 24.2214 142.06 24.7974 142.668C25.3841 143.265 25.6774 144.039 25.6774 144.988V146.396H20.1254C20.2108 147.132 20.4774 147.639 20.9254 147.916C21.3734 148.193 22.0561 148.332 22.9734 148.332C23.3574 148.332 23.7521 148.295 24.1574 148.22C24.5628 148.145 24.9148 148.049 25.2134 147.932V149.212C24.8721 149.361 24.4774 149.473 24.0294 149.548C23.5921 149.623 23.1228 149.66 22.6214 149.66ZM20.1254 145.26H24.1414V144.732C24.1414 144.209 23.9974 143.804 23.7094 143.516C23.4214 143.217 22.9361 143.068 22.2534 143.068C21.4428 143.068 20.8828 143.244 20.5734 143.596C20.2748 143.948 20.1254 144.503 20.1254 145.26ZM31.1032 149.66C29.7699 149.66 28.7619 149.324 28.0792 148.652C27.3965 147.969 27.0552 146.988 27.0552 145.708C27.0552 144.375 27.4285 143.383 28.1752 142.732C28.9325 142.081 29.9405 141.756 31.1992 141.756C31.7219 141.756 32.1592 141.793 32.5112 141.868C32.8739 141.943 33.2205 142.06 33.5512 142.22V143.516C32.9965 143.239 32.3245 143.1 31.5352 143.1C30.6605 143.1 29.9885 143.297 29.5192 143.692C29.0499 144.076 28.8152 144.748 28.8152 145.708C28.8152 146.615 29.0232 147.281 29.4392 147.708C29.8552 148.124 30.5432 148.332 31.5032 148.332C32.2605 148.332 32.9485 148.188 33.5672 147.9V149.228C33.2152 149.367 32.8365 149.473 32.4312 149.548C32.0365 149.623 31.5939 149.66 31.1032 149.66ZM38.7933 149.66C37.4706 149.66 36.4466 149.335 35.7213 148.684C34.996 148.033 34.6333 147.036 34.6333 145.692C34.6333 144.476 34.9426 143.516 35.5613 142.812C36.18 142.108 37.1186 141.756 38.3773 141.756C39.5293 141.756 40.3933 142.06 40.9693 142.668C41.556 143.265 41.8493 144.039 41.8493 144.988V146.396H36.2973C36.3826 147.132 36.6493 147.639 37.0973 147.916C37.5453 148.193 38.228 148.332 39.1453 148.332C39.5293 148.332 39.924 148.295 40.3293 148.22C40.7346 148.145 41.0866 148.049 41.3853 147.932V149.212C41.044 149.361 40.6493 149.473 40.2013 149.548C39.764 149.623 39.2946 149.66 38.7933 149.66ZM36.2973 145.26H40.3133V144.732C40.3133 144.209 40.1693 143.804 39.8813 143.516C39.5933 143.217 39.108 143.068 38.4253 143.068C37.6146 143.068 37.0546 143.244 36.7453 143.596C36.4466 143.948 36.2973 144.503 36.2973 145.26ZM43.8746 140.332V138.892H45.7786V140.332H43.8746ZM44.0186 149.5V143.244H42.8666L43.0266 141.916H45.7626V149.5H44.0186ZM50.1566 149.5L47.1646 141.916H48.9726L51.1006 147.804L53.2286 141.916H55.0206L52.0446 149.5H50.1566ZM59.6996 149.66C58.3769 149.66 57.3529 149.335 56.6276 148.684C55.9022 148.033 55.5396 147.036 55.5396 145.692C55.5396 144.476 55.8489 143.516 56.4676 142.812C57.0862 142.108 58.0249 141.756 59.2836 141.756C60.4356 141.756 61.2996 142.06 61.8756 142.668C62.4622 143.265 62.7556 144.039 62.7556 144.988V146.396H57.2036C57.2889 147.132 57.5556 147.639 58.0036 147.916C58.4516 148.193 59.1342 148.332 60.0516 148.332C60.4356 148.332 60.8302 148.295 61.2356 148.22C61.6409 148.145 61.9929 148.049 62.2916 147.932V149.212C61.9502 149.361 61.5556 149.473 61.1076 149.548C60.6702 149.623 60.2009 149.66 59.6996 149.66ZM57.2036 145.26H61.2196V144.732C61.2196 144.209 61.0756 143.804 60.7876 143.516C60.4996 143.217 60.0142 143.068 59.3316 143.068C58.5209 143.068 57.9609 143.244 57.6516 143.596C57.3529 143.948 57.2036 144.503 57.2036 145.26ZM67.5893 149.66C66.9066 149.66 66.304 149.543 65.7813 149.308C65.2586 149.073 64.8533 148.684 64.5653 148.14C64.2773 147.596 64.1333 146.865 64.1333 145.948C64.1333 145.041 64.288 144.279 64.5973 143.66C64.9066 143.031 65.3333 142.556 65.8773 142.236C66.432 141.916 67.056 141.756 67.7493 141.756C68.208 141.756 68.6133 141.809 68.9653 141.916C69.328 142.023 69.6746 142.188 70.0053 142.412V138.716H71.7493V149.5H70.2613L70.1493 148.748C69.808 149.057 69.4346 149.287 69.0293 149.436C68.624 149.585 68.144 149.66 67.5893 149.66ZM68.0533 148.348C68.832 148.348 69.4826 148.081 70.0053 147.548V143.756C69.504 143.308 68.8746 143.084 68.1173 143.084C67.3813 143.084 66.8266 143.329 66.4533 143.82C66.08 144.311 65.8933 145.025 65.8933 145.964C65.8933 146.871 66.064 147.495 66.4053 147.836C66.7573 148.177 67.3066 148.348 68.0533 148.348Z" fill="#1E293B"/>
</svg>
