<svg width="1320" height="408" viewBox="0 0 1320 408" fill="none" xmlns="http://www.w3.org/2000/svg">
<rect x="48" y="24" width="329" height="36" rx="8" fill="#F3F4F7"/>
<path d="M50 30C50 27.7909 51.7909 26 54 26H131C133.209 26 135 27.7909 135 30V54C135 56.2091 133.209 58 131 58H54C51.7909 58 50 56.2091 50 54V30Z" fill="#F3F4F7"/>
<g clip-path="url(#clip0_2051_60983)">
<path d="M68.3986 47.5V37.196H72.9906C73.78 37.196 74.4306 37.3453 74.9426 37.644C75.4546 37.9427 75.8333 38.3533 76.0786 38.876C76.324 39.388 76.4466 39.9747 76.4466 40.636C76.4466 41.66 76.1266 42.4813 75.4866 43.1C74.8573 43.7187 74.004 44.028 72.9266 44.028H70.1426V47.5H68.3986ZM70.1426 42.652H72.6066C73.3 42.652 73.8226 42.4707 74.1746 42.108C74.5266 41.7453 74.7026 41.2547 74.7026 40.636C74.7026 39.9747 74.532 39.4627 74.1906 39.1C73.86 38.7373 73.3586 38.556 72.6866 38.556H70.1426V42.652ZM77.8361 47.5V36.716H79.5801V40.652C79.9108 40.3853 80.3055 40.172 80.7641 40.012C81.2228 39.8413 81.7401 39.756 82.3161 39.756C83.2761 39.756 83.9855 39.9853 84.4441 40.444C84.9028 40.9027 85.1321 41.6173 85.1321 42.588V47.5H83.4041V42.668C83.4041 42.0813 83.2761 41.6707 83.0201 41.436C82.7748 41.2013 82.3428 41.084 81.7241 41.084C81.3401 41.084 80.9508 41.1693 80.5561 41.34C80.1615 41.5 79.8361 41.7133 79.5801 41.98V47.5H77.8361ZM90.5619 47.66C89.1965 47.66 88.1939 47.3187 87.5539 46.636C86.9245 45.9533 86.6099 44.9773 86.6099 43.708C86.6099 42.4387 86.9299 41.4627 87.5699 40.78C88.2099 40.0973 89.2072 39.756 90.5619 39.756C91.9272 39.756 92.9299 40.0973 93.5699 40.78C94.2099 41.4627 94.5299 42.4387 94.5299 43.708C94.5299 44.9773 94.2099 45.9533 93.5699 46.636C92.9405 47.3187 91.9379 47.66 90.5619 47.66ZM90.5619 46.188C91.3619 46.188 91.9272 45.996 92.2579 45.612C92.5992 45.2173 92.7699 44.5827 92.7699 43.708C92.7699 42.8333 92.5992 42.204 92.2579 41.82C91.9272 41.436 91.3619 41.244 90.5619 41.244C89.7725 41.244 89.2072 41.436 88.8659 41.82C88.5352 42.204 88.3699 42.8333 88.3699 43.708C88.3699 44.5827 88.5352 45.2173 88.8659 45.612C89.2072 45.996 89.7725 46.188 90.5619 46.188ZM99.1228 47.66C98.3121 47.66 97.7041 47.4467 97.2988 47.02C96.9041 46.5827 96.7068 45.9907 96.7068 45.244V41.276H95.5868V39.916H96.7068V38.172L98.4348 37.644V39.916H100.451L100.339 41.276H98.4348V45.148C98.4348 45.5853 98.5361 45.8947 98.7388 46.076C98.9414 46.2467 99.2721 46.332 99.7308 46.332C100.019 46.332 100.323 46.2787 100.643 46.172V47.404C100.227 47.5747 99.7201 47.66 99.1228 47.66ZM105.609 47.66C104.243 47.66 103.241 47.3187 102.601 46.636C101.971 45.9533 101.657 44.9773 101.657 43.708C101.657 42.4387 101.977 41.4627 102.617 40.78C103.257 40.0973 104.254 39.756 105.609 39.756C106.974 39.756 107.977 40.0973 108.617 40.78C109.257 41.4627 109.577 42.4387 109.577 43.708C109.577 44.9773 109.257 45.9533 108.617 46.636C107.987 47.3187 106.985 47.66 105.609 47.66ZM105.609 46.188C106.409 46.188 106.974 45.996 107.305 45.612C107.646 45.2173 107.817 44.5827 107.817 43.708C107.817 42.8333 107.646 42.204 107.305 41.82C106.974 41.436 106.409 41.244 105.609 41.244C104.819 41.244 104.254 41.436 103.913 41.82C103.582 42.204 103.417 42.8333 103.417 43.708C103.417 44.5827 103.582 45.2173 103.913 45.612C104.254 45.996 104.819 46.188 105.609 46.188ZM113.724 47.66C113.201 47.66 112.7 47.6227 112.22 47.548C111.75 47.4733 111.361 47.3827 111.052 47.276V45.804C111.414 45.9427 111.814 46.0493 112.252 46.124C112.689 46.1987 113.105 46.236 113.5 46.236C114.097 46.236 114.524 46.1827 114.78 46.076C115.036 45.9693 115.164 45.7613 115.164 45.452C115.164 45.228 115.084 45.052 114.924 44.924C114.774 44.796 114.545 44.6787 114.236 44.572C113.937 44.4653 113.553 44.3373 113.084 44.188C112.636 44.0387 112.246 43.8787 111.916 43.708C111.585 43.5267 111.329 43.2973 111.148 43.02C110.966 42.7427 110.876 42.38 110.876 41.932C110.876 41.2387 111.126 40.7053 111.628 40.332C112.129 39.948 112.934 39.756 114.044 39.756C114.481 39.756 114.897 39.788 115.292 39.852C115.686 39.916 116.022 39.996 116.3 40.092V41.548C116.001 41.4307 115.67 41.34 115.308 41.276C114.956 41.212 114.625 41.18 114.316 41.18C113.761 41.18 113.34 41.228 113.052 41.324C112.774 41.42 112.636 41.612 112.636 41.9C112.636 42.1987 112.78 42.412 113.068 42.54C113.366 42.6573 113.841 42.8227 114.492 43.036C115.089 43.2173 115.564 43.4093 115.916 43.612C116.268 43.8147 116.518 44.06 116.668 44.348C116.828 44.6253 116.908 44.988 116.908 45.436C116.908 46.1827 116.636 46.7427 116.092 47.116C115.548 47.4787 114.758 47.66 113.724 47.66Z" fill="#A9ACB9"/>
</g>
<path d="M143 30C143 27.7909 144.791 26 147 26H214C216.209 26 218 27.7909 218 30V54C218 56.2091 216.209 58 214 58H147C144.791 58 143 56.2091 143 54V30Z" fill="#F3F4F7"/>
<g clip-path="url(#clip1_2051_60983)">
<path d="M166.029 47.66C164.397 47.66 163.176 47.2333 162.365 46.38C161.554 45.516 161.149 44.1827 161.149 42.38C161.149 40.5027 161.554 39.1427 162.365 38.3C163.176 37.4573 164.397 37.036 166.029 37.036C167.672 37.036 168.893 37.4573 169.693 38.3C170.504 39.1427 170.909 40.5027 170.909 42.38C170.909 44.1827 170.504 45.516 169.693 46.38C168.893 47.2333 167.672 47.66 166.029 47.66ZM166.029 46.188C167.106 46.188 167.896 45.8947 168.397 45.308C168.909 44.7107 169.165 43.7347 169.165 42.38C169.165 40.9507 168.909 39.9533 168.397 39.388C167.896 38.812 167.106 38.524 166.029 38.524C164.962 38.524 164.173 38.812 163.661 39.388C163.16 39.9533 162.909 40.9507 162.909 42.38C162.909 43.7347 163.16 44.7107 163.661 45.308C164.173 45.8947 164.962 46.188 166.029 46.188ZM172.61 47.5V39.916H174.21L174.306 40.796C174.668 40.5613 175.1 40.348 175.602 40.156C176.103 39.964 176.599 39.8307 177.09 39.756V41.084C176.791 41.1373 176.466 41.2173 176.114 41.324C175.772 41.42 175.447 41.532 175.138 41.66C174.828 41.7773 174.567 41.9 174.354 42.028V47.5H172.61ZM181.183 47.66C180.5 47.66 179.898 47.5427 179.375 47.308C178.852 47.0733 178.447 46.684 178.159 46.14C177.871 45.596 177.727 44.8653 177.727 43.948C177.727 43.0413 177.882 42.2787 178.191 41.66C178.5 41.0307 178.927 40.556 179.471 40.236C180.026 39.916 180.65 39.756 181.343 39.756C181.802 39.756 182.207 39.8093 182.559 39.916C182.922 40.0227 183.268 40.188 183.599 40.412V36.716H185.343V47.5H183.855L183.743 46.748C183.402 47.0573 183.028 47.2867 182.623 47.436C182.218 47.5853 181.738 47.66 181.183 47.66ZM181.647 46.348C182.426 46.348 183.076 46.0813 183.599 45.548V41.756C183.098 41.308 182.468 41.084 181.711 41.084C180.975 41.084 180.42 41.3293 180.047 41.82C179.674 42.3107 179.487 43.0253 179.487 43.964C179.487 44.8707 179.658 45.4947 179.999 45.836C180.351 46.1773 180.9 46.348 181.647 46.348ZM191.043 47.66C189.721 47.66 188.697 47.3347 187.971 46.684C187.246 46.0333 186.883 45.036 186.883 43.692C186.883 42.476 187.193 41.516 187.811 40.812C188.43 40.108 189.369 39.756 190.627 39.756C191.779 39.756 192.643 40.06 193.219 40.668C193.806 41.2653 194.099 42.0387 194.099 42.988V44.396H188.547C188.633 45.132 188.899 45.6387 189.347 45.916C189.795 46.1933 190.478 46.332 191.395 46.332C191.779 46.332 192.174 46.2947 192.579 46.22C192.985 46.1453 193.337 46.0493 193.635 45.932V47.212C193.294 47.3613 192.899 47.4733 192.451 47.548C192.014 47.6227 191.545 47.66 191.043 47.66ZM188.547 43.26H192.563V42.732C192.563 42.2093 192.419 41.804 192.131 41.516C191.843 41.2173 191.358 41.068 190.675 41.068C189.865 41.068 189.305 41.244 188.995 41.596C188.697 41.948 188.547 42.5027 188.547 43.26ZM195.797 47.5V39.916H197.397L197.493 40.796C197.856 40.5613 198.288 40.348 198.789 40.156C199.29 39.964 199.786 39.8307 200.277 39.756V41.084C199.978 41.1373 199.653 41.2173 199.301 41.324C198.96 41.42 198.634 41.532 198.325 41.66C198.016 41.7773 197.754 41.9 197.541 42.028V47.5H195.797Z" fill="#A9ACB9"/>
</g>
<g filter="url(#filter0_d_2051_60983)">
<path d="M226 30C226 27.7909 227.791 26 230 26H302C304.209 26 306 27.7909 306 30V54C306 56.2091 304.209 58 302 58H230C227.791 58 226 56.2091 226 54V30Z" fill="white"/>
<path d="M230 26.5H302C303.933 26.5 305.5 28.067 305.5 30V54C305.5 55.933 303.933 57.5 302 57.5H230C228.067 57.5 226.5 55.933 226.5 54V30C226.5 28.067 228.067 26.5 230 26.5Z" stroke="#ECEDF1"/>
<g clip-path="url(#clip2_2051_60983)">
<path d="M244.461 47.5V37.196H249.453C250.477 37.196 251.234 37.436 251.725 37.916C252.216 38.396 252.461 39.0733 252.461 39.948C252.461 40.5027 252.349 40.972 252.125 41.356C251.901 41.7293 251.602 42.012 251.229 42.204C251.73 42.3427 252.125 42.5933 252.413 42.956C252.712 43.308 252.861 43.8307 252.861 44.524C252.861 45.5267 252.589 46.2733 252.045 46.764C251.512 47.2547 250.722 47.5 249.677 47.5H244.461ZM246.205 41.596H249.213C249.8 41.596 250.216 41.4627 250.461 41.196C250.717 40.9187 250.845 40.5507 250.845 40.092C250.845 39.5587 250.717 39.164 250.461 38.908C250.205 38.6413 249.725 38.508 249.021 38.508H246.205V41.596ZM246.205 46.22H249.309C249.928 46.22 250.381 46.092 250.669 45.836C250.957 45.5693 251.101 45.1107 251.101 44.46C251.101 43.9267 250.957 43.532 250.669 43.276C250.392 43.0093 249.88 42.876 249.133 42.876H246.205V46.22ZM254.961 38.332V36.892H256.865V38.332H254.961ZM255.105 47.5V41.244H253.953L254.113 39.916H256.849V47.5H255.105ZM260.771 47.66C260.152 47.66 259.683 47.5107 259.363 47.212C259.043 46.9027 258.883 46.396 258.883 45.692V36.716H260.627V45.532C260.627 45.8307 260.68 46.0333 260.787 46.14C260.894 46.2467 261.054 46.3 261.267 46.3C261.523 46.3 261.768 46.268 262.003 46.204V47.468C261.8 47.5427 261.603 47.5907 261.411 47.612C261.23 47.644 261.016 47.66 260.771 47.66ZM264.849 47.66C264.23 47.66 263.761 47.5107 263.441 47.212C263.121 46.9027 262.961 46.396 262.961 45.692V36.716H264.705V45.532C264.705 45.8307 264.758 46.0333 264.865 46.14C264.972 46.2467 265.132 46.3 265.345 46.3C265.601 46.3 265.846 46.268 266.081 46.204V47.468C265.878 47.5427 265.681 47.5907 265.489 47.612C265.308 47.644 265.094 47.66 264.849 47.66ZM267.523 38.332V36.892H269.427V38.332H267.523ZM267.667 47.5V41.244H266.515L266.675 39.916H269.411V47.5H267.667ZM271.446 47.5V39.916H273.046L273.126 40.716C273.467 40.4493 273.872 40.2253 274.342 40.044C274.822 39.852 275.35 39.756 275.926 39.756C276.907 39.756 277.622 39.9853 278.07 40.444C278.518 40.9027 278.742 41.6173 278.742 42.588V47.5H277.014V42.668C277.014 42.0813 276.891 41.6707 276.646 41.436C276.411 41.2013 275.963 41.084 275.302 41.084C274.907 41.084 274.518 41.164 274.134 41.324C273.76 41.484 273.446 41.692 273.19 41.948V47.5H271.446ZM283.768 50.316C283.202 50.316 282.637 50.2787 282.072 50.204C281.506 50.14 281.026 50.0387 280.632 49.9V48.556C281.058 48.6947 281.549 48.8013 282.104 48.876C282.658 48.9507 283.186 48.988 283.688 48.988C284.456 48.988 285.016 48.9453 285.368 48.86C285.72 48.7747 285.896 48.5827 285.896 48.284C285.896 48.06 285.81 47.9 285.64 47.804C285.469 47.7187 285.144 47.676 284.664 47.676H282.616C281.24 47.676 280.552 47.1907 280.552 46.22C280.552 45.9107 280.642 45.6227 280.824 45.356C281.005 45.0893 281.293 44.8867 281.688 44.748C281.25 44.5347 280.925 44.2413 280.712 43.868C280.509 43.4947 280.408 43.0467 280.408 42.524C280.408 41.5533 280.696 40.8493 281.272 40.412C281.858 39.9747 282.733 39.756 283.896 39.756C284.141 39.756 284.397 39.7773 284.664 39.82C284.93 39.852 285.138 39.884 285.288 39.916H288.072L288.024 41.052H286.744C286.946 41.2227 287.096 41.436 287.192 41.692C287.288 41.948 287.336 42.2253 287.336 42.524C287.336 43.3347 287.09 43.9747 286.6 44.444C286.109 44.9027 285.368 45.132 284.376 45.132C284.205 45.132 284.045 45.1267 283.896 45.116C283.757 45.0947 283.602 45.0733 283.432 45.052C283.112 45.084 282.824 45.1693 282.568 45.308C282.312 45.4467 282.184 45.6333 282.184 45.868C282.184 46.028 282.248 46.1453 282.376 46.22C282.504 46.284 282.717 46.316 283.016 46.316H285.144C285.901 46.316 286.482 46.4813 286.888 46.812C287.304 47.132 287.512 47.6013 287.512 48.22C287.512 48.9667 287.186 49.5 286.536 49.82C285.896 50.1507 284.973 50.316 283.768 50.316ZM283.896 44.028C284.589 44.028 285.069 43.9107 285.336 43.676C285.613 43.4413 285.752 43.0413 285.752 42.476C285.752 41.9107 285.613 41.5 285.336 41.244C285.069 40.988 284.589 40.86 283.896 40.86C283.245 40.86 282.77 40.9827 282.472 41.228C282.173 41.4733 282.024 41.8893 282.024 42.476C282.024 43.02 282.162 43.4147 282.44 43.66C282.728 43.9053 283.213 44.028 283.896 44.028Z" fill="#1E293B"/>
</g>
</g>
<path d="M314 30C314 27.7909 315.791 26 318 26H371C373.209 26 375 27.7909 375 30V54C375 56.2091 373.209 58 371 58H318C315.791 58 314 56.2091 314 54V30Z" fill="#F3F4F7"/>
<g clip-path="url(#clip3_2051_60983)">
<path d="M332.43 47.5V37.196H334.174V46.156H339.454V47.5H332.43ZM344.062 47.66C342.697 47.66 341.694 47.3187 341.054 46.636C340.425 45.9533 340.11 44.9773 340.11 43.708C340.11 42.4387 340.43 41.4627 341.07 40.78C341.71 40.0973 342.707 39.756 344.062 39.756C345.427 39.756 346.43 40.0973 347.07 40.78C347.71 41.4627 348.03 42.4387 348.03 43.708C348.03 44.9773 347.71 45.9533 347.07 46.636C346.441 47.3187 345.438 47.66 344.062 47.66ZM344.062 46.188C344.862 46.188 345.427 45.996 345.758 45.612C346.099 45.2173 346.27 44.5827 346.27 43.708C346.27 42.8333 346.099 42.204 345.758 41.82C345.427 41.436 344.862 41.244 344.062 41.244C343.273 41.244 342.707 41.436 342.366 41.82C342.035 42.204 341.87 42.8333 341.87 43.708C341.87 44.5827 342.035 45.2173 342.366 45.612C342.707 45.996 343.273 46.188 344.062 46.188ZM352.799 50.316C352.233 50.316 351.668 50.2787 351.103 50.204C350.537 50.14 350.057 50.0387 349.663 49.9V48.556C350.089 48.6947 350.58 48.8013 351.135 48.876C351.689 48.9507 352.217 48.988 352.719 48.988C353.487 48.988 354.047 48.9453 354.399 48.86C354.751 48.7747 354.927 48.5827 354.927 48.284C354.927 48.06 354.841 47.9 354.671 47.804C354.5 47.7187 354.175 47.676 353.695 47.676H351.647C350.271 47.676 349.583 47.1907 349.583 46.22C349.583 45.9107 349.673 45.6227 349.855 45.356C350.036 45.0893 350.324 44.8867 350.719 44.748C350.281 44.5347 349.956 44.2413 349.743 43.868C349.54 43.4947 349.439 43.0467 349.439 42.524C349.439 41.5533 349.727 40.8493 350.303 40.412C350.889 39.9747 351.764 39.756 352.927 39.756C353.172 39.756 353.428 39.7773 353.695 39.82C353.961 39.852 354.169 39.884 354.319 39.916H357.103L357.055 41.052H355.775C355.977 41.2227 356.127 41.436 356.223 41.692C356.319 41.948 356.367 42.2253 356.367 42.524C356.367 43.3347 356.121 43.9747 355.631 44.444C355.14 44.9027 354.399 45.132 353.407 45.132C353.236 45.132 353.076 45.1267 352.927 45.116C352.788 45.0947 352.633 45.0733 352.463 45.052C352.143 45.084 351.855 45.1693 351.599 45.308C351.343 45.4467 351.215 45.6333 351.215 45.868C351.215 46.028 351.279 46.1453 351.407 46.22C351.535 46.284 351.748 46.316 352.047 46.316H354.175C354.932 46.316 355.513 46.4813 355.919 46.812C356.335 47.132 356.543 47.6013 356.543 48.22C356.543 48.9667 356.217 49.5 355.567 49.82C354.927 50.1507 354.004 50.316 352.799 50.316ZM352.927 44.028C353.62 44.028 354.1 43.9107 354.367 43.676C354.644 43.4413 354.783 43.0413 354.783 42.476C354.783 41.9107 354.644 41.5 354.367 41.244C354.1 40.988 353.62 40.86 352.927 40.86C352.276 40.86 351.801 40.9827 351.503 41.228C351.204 41.4733 351.055 41.8893 351.055 42.476C351.055 43.02 351.193 43.4147 351.471 43.66C351.759 43.9053 352.244 44.028 352.927 44.028Z" fill="#A9ACB9"/>
</g>
<path d="M48.912 101.5V91.196H54.128C55.1627 91.196 55.9307 91.4413 56.432 91.932C56.944 92.412 57.2 93.0947 57.2 93.98C57.2 94.5347 57.0933 94.9987 56.88 95.372C56.6667 95.7347 56.3787 96.0173 56.016 96.22C56.496 96.3693 56.8747 96.62 57.152 96.972C57.44 97.3133 57.584 97.82 57.584 98.492C57.584 99.484 57.3013 100.236 56.736 100.748C56.1813 101.249 55.376 101.5 54.32 101.5H48.912ZM51.072 95.468H53.728C54.2507 95.468 54.624 95.356 54.848 95.132C55.072 94.8973 55.184 94.572 55.184 94.156C55.184 93.6973 55.0667 93.356 54.832 93.132C54.608 92.908 54.1867 92.796 53.568 92.796H51.072V95.468ZM51.072 99.916H53.808C54.352 99.916 54.752 99.804 55.008 99.58C55.264 99.356 55.392 98.9613 55.392 98.396C55.392 97.9373 55.264 97.596 55.008 97.372C54.7627 97.148 54.3147 97.036 53.664 97.036H51.072V99.916ZM59.3775 92.524V90.828H61.7295V92.524H59.3775ZM59.5535 101.5V95.516H58.4175L58.6095 93.916H61.7135V101.5H59.5535ZM65.6646 101.66C64.9286 101.66 64.39 101.489 64.0486 101.148C63.718 100.807 63.5526 100.263 63.5526 99.516V90.716H65.7126V99.34C65.7126 99.6067 65.766 99.7933 65.8726 99.9C65.9793 99.996 66.134 100.044 66.3366 100.044C66.614 100.044 66.8646 100.007 67.0886 99.932V101.42C66.6833 101.58 66.2086 101.66 65.6646 101.66ZM70.024 101.66C69.288 101.66 68.7493 101.489 68.408 101.148C68.0773 100.807 67.912 100.263 67.912 99.516V90.716H70.072V99.34C70.072 99.6067 70.1253 99.7933 70.232 99.9C70.3387 99.996 70.4933 100.044 70.696 100.044C70.9733 100.044 71.224 100.007 71.448 99.932V101.42C71.0427 101.58 70.568 101.66 70.024 101.66ZM76.6296 101.66C75.3176 101.66 74.2776 101.335 73.5096 100.684C72.7416 100.023 72.3576 99.0253 72.3576 97.692C72.3576 96.4867 72.6776 95.532 73.3176 94.828C73.9683 94.1133 74.9336 93.756 76.2136 93.756C77.387 93.756 78.283 94.0653 78.9016 94.684C79.531 95.292 79.8456 96.092 79.8456 97.084V98.46H74.3576C74.475 99.068 74.7523 99.484 75.1896 99.708C75.6376 99.932 76.267 100.044 77.0776 100.044C77.483 100.044 77.8936 100.007 78.3096 99.932C78.7363 99.8573 79.099 99.7613 79.3976 99.644V101.18C79.0456 101.34 78.635 101.457 78.1656 101.532C77.6963 101.617 77.1843 101.66 76.6296 101.66ZM74.3576 97.132H77.9576V96.716C77.9576 96.2787 77.8296 95.9373 77.5736 95.692C77.3176 95.436 76.8856 95.308 76.2776 95.308C75.563 95.308 75.0616 95.452 74.7736 95.74C74.4963 96.028 74.3576 96.492 74.3576 97.132ZM84.5175 101.66C83.8455 101.66 83.2428 101.543 82.7095 101.308C82.1868 101.063 81.7762 100.668 81.4775 100.124C81.1788 99.5693 81.0295 98.8387 81.0295 97.932C81.0295 97.0253 81.1948 96.2627 81.5255 95.644C81.8562 95.0253 82.2988 94.556 82.8535 94.236C83.4082 93.916 84.0162 93.756 84.6775 93.756C85.5095 93.756 86.2188 93.948 86.8055 94.332V90.716H88.9655V101.5H87.1095L86.9815 100.796C86.6508 101.084 86.2882 101.303 85.8935 101.452C85.5095 101.591 85.0508 101.66 84.5175 101.66ZM85.1095 100.076C85.7815 100.076 86.3468 99.8467 86.8055 99.388V95.932C86.3575 95.5373 85.8348 95.34 85.2375 95.34C83.8935 95.34 83.2215 96.204 83.2215 97.932C83.2215 98.7427 83.3868 99.3027 83.7175 99.612C84.0482 99.9213 84.5122 100.076 85.1095 100.076ZM97.3106 101.66C96.436 101.66 95.7853 101.431 95.3586 100.972C94.9426 100.513 94.7346 99.8893 94.7346 99.1V95.58H93.6626V93.916H94.7346V92.284L96.8946 91.644V93.916H98.8146L98.6866 95.58H96.8946V98.956C96.8946 99.372 96.9906 99.66 97.1826 99.82C97.3746 99.9693 97.6733 100.044 98.0786 100.044C98.3773 100.044 98.6866 99.9907 99.0066 99.884V101.372C98.772 101.468 98.516 101.537 98.2386 101.58C97.9613 101.633 97.652 101.66 97.3106 101.66ZM103.907 101.66C102.488 101.66 101.448 101.319 100.787 100.636C100.126 99.9427 99.7951 98.9667 99.7951 97.708C99.7951 96.4493 100.126 95.4787 100.787 94.796C101.459 94.1027 102.499 93.756 103.907 93.756C105.326 93.756 106.366 94.1027 107.027 94.796C107.699 95.4787 108.035 96.4493 108.035 97.708C108.035 98.9667 107.704 99.9427 107.043 100.636C106.382 101.319 105.336 101.66 103.907 101.66ZM103.907 99.82C104.6 99.82 105.096 99.6653 105.395 99.356C105.694 99.036 105.843 98.4867 105.843 97.708C105.843 96.9293 105.694 96.3853 105.395 96.076C105.096 95.756 104.6 95.596 103.907 95.596C103.224 95.596 102.734 95.756 102.435 96.076C102.136 96.3853 101.987 96.9293 101.987 97.708C101.987 98.4867 102.136 99.036 102.435 99.356C102.734 99.6653 103.224 99.82 103.907 99.82Z" fill="#1E293B"/>
<path d="M217.12 101.5V91.196H221.472C222.624 91.196 223.472 91.5053 224.016 92.124C224.56 92.7427 224.832 93.5427 224.832 94.524C224.832 95.5267 224.523 96.3213 223.904 96.908C223.296 97.484 222.464 97.772 221.408 97.772H218.432V101.5H217.12ZM218.432 96.748H221.2C221.968 96.748 222.544 96.5507 222.928 96.156C223.323 95.7507 223.52 95.2067 223.52 94.524C223.52 93.7987 223.333 93.2387 222.96 92.844C222.597 92.4387 222.037 92.236 221.28 92.236H218.432V96.748ZM226.433 101.5V91.196H230.785C231.937 91.196 232.785 91.5053 233.329 92.124C233.873 92.7427 234.145 93.5427 234.145 94.524C234.145 95.5267 233.835 96.3213 233.217 96.908C232.609 97.484 231.777 97.772 230.721 97.772H227.745V101.5H226.433ZM227.745 96.748H230.513C231.281 96.748 231.857 96.5507 232.241 96.156C232.635 95.7507 232.833 95.2067 232.833 94.524C232.833 93.7987 232.646 93.2387 232.273 92.844C231.91 92.4387 231.35 92.236 230.593 92.236H227.745V96.748ZM238.769 101.66C237.489 101.66 236.454 101.5 235.665 101.18V100.012C236.113 100.183 236.588 100.316 237.089 100.412C237.601 100.497 238.124 100.54 238.657 100.54C239.574 100.54 240.262 100.417 240.721 100.172C241.18 99.916 241.409 99.4627 241.409 98.812C241.409 98.4067 241.313 98.0867 241.121 97.852C240.94 97.6067 240.636 97.404 240.209 97.244C239.782 97.0733 239.212 96.9027 238.497 96.732C237.366 96.4547 236.572 96.0973 236.113 95.66C235.654 95.212 235.425 94.6147 235.425 93.868C235.425 92.9933 235.74 92.3053 236.369 91.804C236.998 91.292 237.958 91.036 239.249 91.036C239.846 91.036 240.401 91.0787 240.913 91.164C241.425 91.2493 241.82 91.34 242.097 91.436V92.588C241.713 92.4493 241.297 92.3427 240.849 92.268C240.401 92.1933 239.937 92.156 239.457 92.156C238.582 92.156 237.91 92.284 237.441 92.54C236.972 92.796 236.737 93.2387 236.737 93.868C236.737 94.22 236.817 94.508 236.977 94.732C237.148 94.9453 237.43 95.132 237.825 95.292C238.22 95.4413 238.769 95.6013 239.473 95.772C240.316 95.9747 240.972 96.22 241.441 96.508C241.91 96.7853 242.241 97.116 242.433 97.5C242.625 97.884 242.721 98.3213 242.721 98.812C242.721 99.7187 242.39 100.423 241.729 100.924C241.068 101.415 240.081 101.66 238.769 101.66Z" fill="#1E293B"/>
<path d="M53.936 125.66C52.208 125.66 50.8853 125.196 49.968 124.268C49.0507 123.329 48.592 122.055 48.592 120.444C48.592 118.737 49.0347 117.409 49.92 116.46C50.816 115.511 52.1493 115.036 53.92 115.036C54.5387 115.036 55.0933 115.084 55.584 115.18C56.0853 115.265 56.5547 115.388 56.992 115.548V117.436C56.0853 117.063 55.1147 116.876 54.08 116.876C52.9067 116.876 52.064 117.169 51.552 117.756C51.04 118.343 50.784 119.239 50.784 120.444C50.784 122.705 51.8933 123.836 54.112 123.836C54.6133 123.836 55.1093 123.793 55.6 123.708C56.0907 123.612 56.56 123.473 57.008 123.292V125.196C56.5707 125.335 56.1013 125.447 55.6 125.532C55.1093 125.617 54.5547 125.66 53.936 125.66ZM62.2977 125.66C60.8791 125.66 59.8391 125.319 59.1778 124.636C58.5164 123.943 58.1858 122.967 58.1858 121.708C58.1858 120.449 58.5164 119.479 59.1778 118.796C59.8498 118.103 60.8898 117.756 62.2977 117.756C63.7164 117.756 64.7564 118.103 65.4178 118.796C66.0898 119.479 66.4258 120.449 66.4258 121.708C66.4258 122.967 66.0951 123.943 65.4338 124.636C64.7724 125.319 63.7271 125.66 62.2977 125.66ZM62.2977 123.82C62.9911 123.82 63.4871 123.665 63.7858 123.356C64.0844 123.036 64.2338 122.487 64.2338 121.708C64.2338 120.929 64.0844 120.385 63.7858 120.076C63.4871 119.756 62.9911 119.596 62.2977 119.596C61.6151 119.596 61.1244 119.756 60.8258 120.076C60.5271 120.385 60.3778 120.929 60.3778 121.708C60.3778 122.487 60.5271 123.036 60.8258 123.356C61.1244 123.665 61.6151 123.82 62.2977 123.82ZM70.7276 125.66C69.821 125.66 69.1116 125.409 68.5996 124.908C68.0983 124.396 67.8476 123.649 67.8476 122.668V117.916H70.0076V122.62C70.0076 123.132 70.1303 123.505 70.3756 123.74C70.621 123.964 70.989 124.076 71.4796 124.076C71.853 124.076 72.1943 124.001 72.5036 123.852C72.8236 123.703 73.0956 123.516 73.3196 123.292V117.916H75.4796V125.5H73.4796L73.3996 124.78C73.0796 125.036 72.701 125.249 72.2636 125.42C71.837 125.58 71.325 125.66 70.7276 125.66ZM77.3183 125.5V117.916H79.3183L79.4143 118.7C79.7556 118.487 80.1769 118.295 80.6783 118.124C81.1903 117.943 81.6916 117.82 82.1823 117.756V119.388C81.8943 119.431 81.5796 119.495 81.2383 119.58C80.8969 119.665 80.5716 119.761 80.2623 119.868C79.9529 119.975 79.6916 120.087 79.4783 120.204V125.5H77.3183ZM83.815 116.524V114.828H86.167V116.524H83.815ZM83.991 125.5V119.516H82.855L83.047 117.916H86.151V125.5H83.991ZM91.9421 125.66C90.6301 125.66 89.5901 125.335 88.8221 124.684C88.0541 124.023 87.6701 123.025 87.6701 121.692C87.6701 120.487 87.9901 119.532 88.6301 118.828C89.2808 118.113 90.2461 117.756 91.5261 117.756C92.6995 117.756 93.5955 118.065 94.2141 118.684C94.8435 119.292 95.1581 120.092 95.1581 121.084V122.46H89.6701C89.7875 123.068 90.0648 123.484 90.5021 123.708C90.9501 123.932 91.5795 124.044 92.3901 124.044C92.7955 124.044 93.2061 124.007 93.6221 123.932C94.0488 123.857 94.4115 123.761 94.7101 123.644V125.18C94.3581 125.34 93.9475 125.457 93.4781 125.532C93.0088 125.617 92.4968 125.66 91.9421 125.66ZM89.6701 121.132H93.2701V120.716C93.2701 120.279 93.1421 119.937 92.8861 119.692C92.6301 119.436 92.1981 119.308 91.5901 119.308C90.8755 119.308 90.3741 119.452 90.0861 119.74C89.8088 120.028 89.6701 120.492 89.6701 121.132ZM96.662 125.5V117.916H98.662L98.758 118.7C99.0993 118.487 99.5207 118.295 100.022 118.124C100.534 117.943 101.035 117.82 101.526 117.756V119.388C101.238 119.431 100.923 119.495 100.582 119.58C100.241 119.665 99.9153 119.761 99.606 119.868C99.2967 119.975 99.0353 120.087 98.822 120.204V125.5H96.662Z" fill="#1E293B"/>
<path d="M217.12 125.5V115.196H223.872V116.236H218.432V119.836H223.28V120.86H218.432V125.5H217.12ZM228.567 125.66C227.212 125.66 226.199 125.335 225.527 124.684C224.855 124.033 224.519 123.031 224.519 121.676C224.519 120.46 224.807 119.505 225.383 118.812C225.969 118.108 226.892 117.756 228.151 117.756C228.897 117.756 229.511 117.895 229.991 118.172C230.481 118.439 230.844 118.812 231.079 119.292C231.324 119.761 231.447 120.295 231.447 120.892V122.316H225.831C225.873 122.892 225.996 123.345 226.199 123.676C226.412 124.007 226.727 124.247 227.143 124.396C227.569 124.535 228.129 124.604 228.823 124.604C229.601 124.604 230.316 124.471 230.967 124.204V125.228C230.636 125.367 230.263 125.473 229.847 125.548C229.441 125.623 229.015 125.66 228.567 125.66ZM225.831 121.372H230.279V120.748C230.279 120.129 230.113 119.655 229.783 119.324C229.463 118.983 228.929 118.812 228.183 118.812C227.276 118.812 226.657 119.025 226.327 119.452C225.996 119.879 225.831 120.519 225.831 121.372ZM236.474 125.66C235.407 125.66 234.57 125.367 233.962 124.78C233.354 124.183 233.05 123.196 233.05 121.82C233.05 120.455 233.365 119.436 233.994 118.764C234.634 118.092 235.487 117.756 236.554 117.756C237.503 117.756 238.325 117.996 239.018 118.476V114.716H240.33V125.5H239.21L239.114 124.7C238.762 125.031 238.373 125.276 237.946 125.436C237.53 125.585 237.039 125.66 236.474 125.66ZM236.81 124.604C237.247 124.604 237.653 124.529 238.026 124.38C238.399 124.231 238.73 124.001 239.018 123.692V119.564C238.751 119.329 238.437 119.148 238.074 119.02C237.711 118.881 237.301 118.812 236.842 118.812C235.999 118.812 235.375 119.057 234.97 119.548C234.565 120.028 234.362 120.785 234.362 121.82C234.362 122.812 234.549 123.527 234.922 123.964C235.295 124.391 235.925 124.604 236.81 124.604ZM242.573 125.5V115.196H249.533V116.236H243.885V119.836H248.957V120.86H243.885V124.476H249.533V125.5H242.573ZM250.406 125.5L253.286 121.644L250.502 117.916H251.926L253.99 120.748L256.07 117.916H257.478L254.726 121.644L257.59 125.5H256.166L253.99 122.54L251.83 125.5H250.406Z" fill="#1E293B"/>
<path d="M52.112 149.66C51.4507 149.66 50.832 149.612 50.256 149.516C49.6907 149.42 49.2 149.281 48.784 149.1V147.196C49.2533 147.388 49.76 147.543 50.304 147.66C50.848 147.777 51.3813 147.836 51.904 147.836C52.6507 147.836 53.2 147.767 53.552 147.628C53.904 147.489 54.08 147.175 54.08 146.684C54.08 146.375 54.0053 146.129 53.856 145.948C53.7067 145.767 53.4453 145.607 53.072 145.468C52.7093 145.319 52.192 145.153 51.52 144.972C50.4427 144.673 49.6853 144.3 49.248 143.852C48.8107 143.404 48.592 142.785 48.592 141.996C48.592 141.047 48.9387 140.316 49.632 139.804C50.3253 139.292 51.3333 139.036 52.656 139.036C53.2747 139.036 53.8507 139.079 54.384 139.164C54.9173 139.249 55.3493 139.351 55.68 139.468V141.372C54.8053 141.041 53.8933 140.876 52.944 140.876C52.272 140.876 51.744 140.951 51.36 141.1C50.976 141.239 50.784 141.537 50.784 141.996C50.784 142.263 50.8533 142.476 50.992 142.636C51.1307 142.796 51.3653 142.94 51.696 143.068C52.0373 143.196 52.512 143.34 53.12 143.5C53.9627 143.724 54.6133 143.991 55.072 144.3C55.5307 144.609 55.8453 144.961 56.016 145.356C56.1973 145.751 56.288 146.193 56.288 146.684C56.288 147.58 55.9467 148.3 55.264 148.844C54.5813 149.388 53.5307 149.66 52.112 149.66ZM61.739 149.66C60.427 149.66 59.387 149.335 58.619 148.684C57.851 148.023 57.467 147.025 57.467 145.692C57.467 144.487 57.787 143.532 58.427 142.828C59.0777 142.113 60.043 141.756 61.323 141.756C62.4963 141.756 63.3923 142.065 64.011 142.684C64.6403 143.292 64.955 144.092 64.955 145.084V146.46H59.467C59.5843 147.068 59.8617 147.484 60.299 147.708C60.747 147.932 61.3763 148.044 62.187 148.044C62.5923 148.044 63.003 148.007 63.419 147.932C63.8457 147.857 64.2083 147.761 64.507 147.644V149.18C64.155 149.34 63.7443 149.457 63.275 149.532C62.8057 149.617 62.2937 149.66 61.739 149.66ZM59.467 145.132H63.067V144.716C63.067 144.279 62.939 143.937 62.683 143.692C62.427 143.436 61.995 143.308 61.387 143.308C60.6723 143.308 60.171 143.452 59.883 143.74C59.6057 144.028 59.467 144.492 59.467 145.132ZM66.4589 149.5V141.916H68.4589L68.5549 142.7C68.8962 142.487 69.3175 142.295 69.8189 142.124C70.3309 141.943 70.8322 141.82 71.3229 141.756V143.388C71.0349 143.431 70.7202 143.495 70.3789 143.58C70.0375 143.665 69.7122 143.761 69.4029 143.868C69.0935 143.975 68.8322 144.087 68.6189 144.204V149.5H66.4589ZM74.5371 149.5L71.5451 141.916H73.8011L75.6891 147.324L77.5931 141.916H79.8331L76.8571 149.5H74.5371ZM81.315 140.524V138.828H83.667V140.524H81.315ZM81.491 149.5V143.516H80.355L80.547 141.916H83.651V149.5H81.491ZM89.3621 149.66C88.0075 149.66 86.9675 149.324 86.2421 148.652C85.5275 147.98 85.1701 146.999 85.1701 145.708C85.1701 144.375 85.5541 143.383 86.3221 142.732C87.1008 142.081 88.1355 141.756 89.4261 141.756C89.9595 141.756 90.4181 141.793 90.8021 141.868C91.1861 141.943 91.5595 142.065 91.9221 142.236V143.788C91.6555 143.66 91.3461 143.559 90.9941 143.484C90.6421 143.409 90.2635 143.372 89.8581 143.372C89.0475 143.372 88.4288 143.543 88.0021 143.884C87.5755 144.215 87.3621 144.823 87.3621 145.708C87.3621 146.519 87.5541 147.111 87.9381 147.484C88.3328 147.857 88.9675 148.044 89.8421 148.044C90.2155 148.044 90.5781 148.007 90.9301 147.932C91.2928 147.857 91.6288 147.745 91.9381 147.596V149.196C91.2235 149.505 90.3648 149.66 89.3621 149.66ZM97.2546 149.66C95.9426 149.66 94.9026 149.335 94.1346 148.684C93.3666 148.023 92.9826 147.025 92.9826 145.692C92.9826 144.487 93.3026 143.532 93.9426 142.828C94.5933 142.113 95.5586 141.756 96.8386 141.756C98.012 141.756 98.908 142.065 99.5266 142.684C100.156 143.292 100.471 144.092 100.471 145.084V146.46H94.9826C95.1 147.068 95.3773 147.484 95.8146 147.708C96.2626 147.932 96.892 148.044 97.7026 148.044C98.108 148.044 98.5186 148.007 98.9346 147.932C99.3613 147.857 99.724 147.761 100.023 147.644V149.18C99.6706 149.34 99.26 149.457 98.7906 149.532C98.3213 149.617 97.8093 149.66 97.2546 149.66ZM94.9826 145.132H98.5826V144.716C98.5826 144.279 98.4546 143.937 98.1986 143.692C97.9426 143.436 97.5106 143.308 96.9026 143.308C96.188 143.308 95.6866 143.452 95.3986 143.74C95.1213 144.028 94.9826 144.492 94.9826 145.132Z" fill="#1E293B"/>
<path d="M216.8 149.5V148.796C217.077 148.124 217.472 147.511 217.984 146.956C218.496 146.401 219.045 145.879 219.632 145.388C220.219 144.897 220.672 144.487 220.992 144.156C221.323 143.815 221.552 143.489 221.68 143.18C221.808 142.86 221.872 142.487 221.872 142.06C221.872 141.441 221.712 140.972 221.392 140.652C221.072 140.321 220.475 140.156 219.6 140.156C219.205 140.156 218.8 140.199 218.384 140.284C217.968 140.359 217.573 140.471 217.2 140.62V139.452C217.541 139.335 217.952 139.239 218.432 139.164C218.912 139.079 219.371 139.036 219.808 139.036C220.917 139.036 221.755 139.308 222.32 139.852C222.896 140.385 223.184 141.121 223.184 142.06C223.184 142.572 223.093 143.025 222.912 143.42C222.731 143.804 222.48 144.172 222.16 144.524C221.84 144.865 221.467 145.228 221.04 145.612C220.517 146.071 220.016 146.524 219.536 146.972C219.067 147.409 218.693 147.911 218.416 148.476H223.296V149.5H216.8ZM224.894 145.724V144.684H230.926V145.724H224.894ZM232.839 149.5V139.196H236.871C238.364 139.196 239.457 139.601 240.151 140.412C240.844 141.223 241.191 142.556 241.191 144.412C241.191 146.172 240.849 147.463 240.167 148.284C239.495 149.095 238.396 149.5 236.871 149.5H232.839ZM234.151 148.476H236.631C237.356 148.476 237.959 148.369 238.439 148.156C238.919 147.932 239.276 147.527 239.511 146.94C239.756 146.353 239.879 145.511 239.879 144.412C239.879 143.324 239.767 142.476 239.543 141.868C239.329 141.26 238.983 140.839 238.503 140.604C238.033 140.359 237.409 140.236 236.631 140.236H234.151V148.476ZM245.222 149.66C244.742 149.66 244.299 149.575 243.894 149.404C243.489 149.233 243.163 148.983 242.918 148.652C242.673 148.311 242.55 147.884 242.55 147.372C242.55 146.679 242.779 146.113 243.238 145.676C243.697 145.228 244.443 145.004 245.478 145.004H248.118V144.54C248.118 144.124 248.059 143.793 247.942 143.548C247.835 143.303 247.627 143.127 247.318 143.02C247.009 142.913 246.555 142.86 245.958 142.86C245.499 142.86 245.057 142.897 244.63 142.972C244.203 143.047 243.803 143.148 243.43 143.276V142.188C243.771 142.06 244.171 141.959 244.63 141.884C245.099 141.799 245.601 141.756 246.134 141.756C247.211 141.756 248.017 141.975 248.55 142.412C249.094 142.849 249.366 143.559 249.366 144.54V149.5H248.262L248.166 148.636C247.835 148.977 247.435 149.233 246.966 149.404C246.497 149.575 245.915 149.66 245.222 149.66ZM245.558 148.588C246.113 148.588 246.603 148.492 247.03 148.3C247.457 148.097 247.819 147.825 248.118 147.484V146.012H245.51C244.913 146.012 244.486 146.124 244.23 146.348C243.974 146.572 243.846 146.913 243.846 147.372C243.846 147.831 244.001 148.151 244.31 148.332C244.619 148.503 245.035 148.588 245.558 148.588ZM252.232 152.316C251.73 152.316 251.293 152.247 250.92 152.108V151.052C251.101 151.116 251.266 151.159 251.416 151.18C251.576 151.201 251.736 151.212 251.896 151.212C252.258 151.212 252.541 151.148 252.744 151.02C252.957 150.892 253.144 150.695 253.304 150.428C253.464 150.172 253.64 149.836 253.832 149.42L250.488 141.916H251.848L254.488 148.028L257.208 141.916H258.552L255.368 149.164C255.101 149.772 254.829 150.311 254.552 150.78C254.274 151.26 253.954 151.633 253.592 151.9C253.229 152.177 252.776 152.316 252.232 152.316ZM263.839 149.5V139.196H268.191C269.343 139.196 270.191 139.505 270.735 140.124C271.279 140.743 271.551 141.543 271.551 142.524C271.551 143.527 271.241 144.321 270.623 144.908C270.015 145.484 269.183 145.772 268.127 145.772H265.151V149.5H263.839ZM265.151 144.748H267.919C268.687 144.748 269.263 144.551 269.647 144.156C270.041 143.751 270.239 143.207 270.239 142.524C270.239 141.799 270.052 141.239 269.679 140.844C269.316 140.439 268.756 140.236 267.999 140.236H265.151V144.748ZM273.151 149.5V141.916H274.335L274.431 142.876C274.805 142.631 275.242 142.407 275.743 142.204C276.255 142.001 276.757 141.852 277.247 141.756V142.78C276.949 142.844 276.623 142.935 276.271 143.052C275.919 143.159 275.583 143.281 275.263 143.42C274.943 143.559 274.677 143.703 274.463 143.852V149.5H273.151ZM279.246 140.14V138.94H280.702V140.14H279.246ZM279.374 149.5V142.956H278.206L278.334 141.916H280.686V149.5H279.374ZM286.42 149.66C285.097 149.66 284.132 149.324 283.524 148.652C282.927 147.969 282.628 146.988 282.628 145.708C282.628 144.439 282.932 143.463 283.54 142.78C284.148 142.097 285.108 141.756 286.42 141.756C287.732 141.756 288.692 142.097 289.3 142.78C289.908 143.463 290.212 144.439 290.212 145.708C290.212 146.988 289.913 147.969 289.316 148.652C288.719 149.324 287.753 149.66 286.42 149.66ZM286.42 148.54C287.327 148.54 287.967 148.316 288.34 147.868C288.713 147.409 288.9 146.689 288.9 145.708C288.9 144.727 288.708 144.012 288.324 143.564C287.951 143.105 287.316 142.876 286.42 142.876C285.524 142.876 284.884 143.105 284.5 143.564C284.127 144.012 283.94 144.727 283.94 145.708C283.94 146.689 284.127 147.409 284.5 147.868C284.873 148.316 285.513 148.54 286.42 148.54ZM292.136 149.5V141.916H293.32L293.416 142.876C293.789 142.631 294.226 142.407 294.728 142.204C295.24 142.001 295.741 141.852 296.232 141.756V142.78C295.933 142.844 295.608 142.935 295.256 143.052C294.904 143.159 294.568 143.281 294.248 143.42C293.928 143.559 293.661 143.703 293.448 143.852V149.5H292.136ZM298.231 140.14V138.94H299.687V140.14H298.231ZM298.359 149.5V142.956H297.191L297.319 141.916H299.671V149.5H298.359ZM304.701 149.66C303.954 149.66 303.389 149.463 303.005 149.068C302.631 148.663 302.445 148.103 302.445 147.388V142.956H301.293V141.916H302.445V140.044L303.757 139.644V141.916H305.853L305.773 142.956H303.757V147.324C303.757 147.783 303.858 148.113 304.061 148.316C304.274 148.508 304.637 148.604 305.149 148.604C305.426 148.604 305.73 148.551 306.061 148.444V149.436C305.666 149.585 305.213 149.66 304.701 149.66ZM308.278 152.316C307.777 152.316 307.34 152.247 306.966 152.108V151.052C307.148 151.116 307.313 151.159 307.462 151.18C307.622 151.201 307.782 151.212 307.942 151.212C308.305 151.212 308.588 151.148 308.79 151.02C309.004 150.892 309.19 150.695 309.35 150.428C309.51 150.172 309.686 149.836 309.878 149.42L306.534 141.916H307.894L310.534 148.028L313.254 141.916H314.598L311.414 149.164C311.148 149.772 310.876 150.311 310.598 150.78C310.321 151.26 310.001 151.633 309.638 151.9C309.276 152.177 308.822 152.316 308.278 152.316Z" fill="#1E293B"/>
<path d="M52.112 173.66C51.4507 173.66 50.832 173.612 50.256 173.516C49.6907 173.42 49.2 173.281 48.784 173.1V171.196C49.2533 171.388 49.76 171.543 50.304 171.66C50.848 171.777 51.3813 171.836 51.904 171.836C52.6507 171.836 53.2 171.767 53.552 171.628C53.904 171.489 54.08 171.175 54.08 170.684C54.08 170.375 54.0053 170.129 53.856 169.948C53.7067 169.767 53.4453 169.607 53.072 169.468C52.7093 169.319 52.192 169.153 51.52 168.972C50.4427 168.673 49.6853 168.3 49.248 167.852C48.8107 167.404 48.592 166.785 48.592 165.996C48.592 165.047 48.9387 164.316 49.632 163.804C50.3253 163.292 51.3333 163.036 52.656 163.036C53.2747 163.036 53.8507 163.079 54.384 163.164C54.9173 163.249 55.3493 163.351 55.68 163.468V165.372C54.8053 165.041 53.8933 164.876 52.944 164.876C52.272 164.876 51.744 164.951 51.36 165.1C50.976 165.239 50.784 165.537 50.784 165.996C50.784 166.263 50.8533 166.476 50.992 166.636C51.1307 166.796 51.3653 166.94 51.696 167.068C52.0373 167.196 52.512 167.34 53.12 167.5C53.9627 167.724 54.6133 167.991 55.072 168.3C55.5307 168.609 55.8453 168.961 56.016 169.356C56.1973 169.751 56.288 170.193 56.288 170.684C56.288 171.58 55.9467 172.3 55.264 172.844C54.5813 173.388 53.5307 173.66 52.112 173.66ZM57.787 173.5V162.716H59.947V166.556C60.2563 166.321 60.635 166.129 61.083 165.98C61.531 165.831 62.0163 165.756 62.539 165.756C63.5417 165.756 64.2723 165.991 64.731 166.46C65.1897 166.929 65.419 167.655 65.419 168.636V173.5H63.259V168.748C63.259 168.236 63.1523 167.873 62.939 167.66C62.7363 167.447 62.3523 167.34 61.787 167.34C61.4563 167.34 61.1203 167.415 60.779 167.564C60.4483 167.713 60.171 167.9 59.947 168.124V173.5H57.787ZM67.7056 164.524V162.828H70.0576V164.524H67.7056ZM67.8816 173.5V167.516H66.7456L66.9376 165.916H70.0416V173.5H67.8816ZM71.8808 176.956V165.916H73.7528L73.8648 166.62C74.1954 166.343 74.5581 166.129 74.9528 165.98C75.3474 165.831 75.8114 165.756 76.3448 165.756C77.4541 165.756 78.3074 166.06 78.9048 166.668C79.5128 167.265 79.8168 168.247 79.8168 169.612C79.8168 170.977 79.4914 171.996 78.8408 172.668C78.2008 173.329 77.3261 173.66 76.2168 173.66C75.3634 173.66 74.6381 173.468 74.0408 173.084V176.956H71.8808ZM75.6727 172.076C76.3128 172.076 76.7981 171.879 77.1288 171.484C77.4594 171.089 77.6248 170.471 77.6248 169.628C77.6248 168.817 77.4754 168.236 77.1768 167.884C76.8781 167.521 76.3981 167.34 75.7368 167.34C75.0754 167.34 74.5101 167.569 74.0408 168.028V171.5C74.2648 171.671 74.4994 171.809 74.7448 171.916C75.0008 172.023 75.3101 172.076 75.6727 172.076ZM81.3183 176.956V165.916H83.1903L83.3023 166.62C83.6329 166.343 83.9956 166.129 84.3903 165.98C84.7849 165.831 85.2489 165.756 85.7823 165.756C86.8916 165.756 87.7449 166.06 88.3423 166.668C88.9503 167.265 89.2543 168.247 89.2543 169.612C89.2543 170.977 88.9289 171.996 88.2783 172.668C87.6383 173.329 86.7636 173.66 85.6543 173.66C84.8009 173.66 84.0756 173.468 83.4783 173.084V176.956H81.3183ZM85.1102 172.076C85.7503 172.076 86.2356 171.879 86.5663 171.484C86.8969 171.089 87.0623 170.471 87.0623 169.628C87.0623 168.817 86.9129 168.236 86.6143 167.884C86.3156 167.521 85.8356 167.34 85.1743 167.34C84.5129 167.34 83.9476 167.569 83.4783 168.028V171.5C83.7023 171.671 83.9369 171.809 84.1823 171.916C84.4383 172.023 84.7476 172.076 85.1102 172.076ZM90.9713 164.524V162.828H93.3233V164.524H90.9713ZM91.1473 173.5V167.516H90.0113L90.2033 165.916H93.3073V173.5H91.1473ZM95.1464 173.5V165.916H97.1464L97.2264 166.636C97.5357 166.401 97.925 166.199 98.3944 166.028C98.8744 165.847 99.3757 165.756 99.8984 165.756C100.901 165.756 101.632 165.991 102.09 166.46C102.549 166.929 102.778 167.655 102.778 168.636V173.5H100.618V168.748C100.618 168.236 100.512 167.873 100.298 167.66C100.096 167.447 99.7117 167.34 99.1464 167.34C98.8157 167.34 98.4797 167.415 98.1384 167.564C97.8077 167.713 97.5304 167.9 97.3064 168.124V173.5H95.1464ZM107.737 176.316C107.172 176.316 106.59 176.279 105.993 176.204C105.406 176.129 104.91 176.023 104.505 175.884V174.268C104.932 174.407 105.433 174.513 106.009 174.588C106.585 174.673 107.124 174.716 107.625 174.716C108.361 174.716 108.894 174.673 109.225 174.588C109.556 174.513 109.721 174.375 109.721 174.172C109.721 174.001 109.646 173.884 109.497 173.82C109.358 173.756 109.06 173.724 108.601 173.724H106.537C105.182 173.724 104.505 173.223 104.505 172.22C104.505 171.911 104.59 171.628 104.761 171.372C104.932 171.116 105.204 170.913 105.577 170.764C104.713 170.327 104.281 169.591 104.281 168.556C104.281 167.575 104.585 166.865 105.193 166.428C105.801 165.98 106.702 165.756 107.897 165.756C108.142 165.756 108.409 165.777 108.697 165.82C108.996 165.852 109.22 165.884 109.369 165.916H112.217L112.169 167.276H110.969C111.3 167.585 111.465 168.017 111.465 168.572C111.465 169.351 111.22 169.975 110.729 170.444C110.238 170.903 109.513 171.132 108.553 171.132C108.382 171.132 108.217 171.127 108.057 171.116C107.908 171.095 107.753 171.073 107.593 171.052C107.273 171.095 107.001 171.169 106.777 171.276C106.564 171.383 106.457 171.527 106.457 171.708C106.457 171.953 106.676 172.076 107.113 172.076H109.257C110.025 172.076 110.617 172.252 111.033 172.604C111.449 172.945 111.657 173.447 111.657 174.108C111.657 174.855 111.321 175.409 110.649 175.772C109.977 176.135 109.006 176.316 107.737 176.316ZM107.913 169.916C108.553 169.916 108.996 169.809 109.241 169.596C109.497 169.372 109.625 168.999 109.625 168.476C109.625 167.953 109.497 167.575 109.241 167.34C108.996 167.105 108.553 166.988 107.913 166.988C107.305 166.988 106.868 167.105 106.601 167.34C106.334 167.564 106.201 167.943 106.201 168.476C106.201 168.967 106.324 169.329 106.569 169.564C106.825 169.799 107.273 169.916 107.913 169.916ZM122.061 173.66C120.333 173.66 119.01 173.196 118.093 172.268C117.176 171.329 116.717 170.055 116.717 168.444C116.717 166.737 117.16 165.409 118.045 164.46C118.941 163.511 120.274 163.036 122.045 163.036C122.664 163.036 123.218 163.084 123.709 163.18C124.21 163.265 124.68 163.388 125.117 163.548V165.436C124.21 165.063 123.24 164.876 122.205 164.876C121.032 164.876 120.189 165.169 119.677 165.756C119.165 166.343 118.909 167.239 118.909 168.444C118.909 170.705 120.018 171.836 122.237 171.836C122.738 171.836 123.234 171.793 123.725 171.708C124.216 171.612 124.685 171.473 125.133 171.292V173.196C124.696 173.335 124.226 173.447 123.725 173.532C123.234 173.617 122.68 173.66 122.061 173.66ZM130.423 173.66C129.004 173.66 127.964 173.319 127.303 172.636C126.641 171.943 126.311 170.967 126.311 169.708C126.311 168.449 126.641 167.479 127.303 166.796C127.975 166.103 129.015 165.756 130.423 165.756C131.841 165.756 132.881 166.103 133.543 166.796C134.215 167.479 134.551 168.449 134.551 169.708C134.551 170.967 134.22 171.943 133.559 172.636C132.897 173.319 131.852 173.66 130.423 173.66ZM130.423 171.82C131.116 171.82 131.612 171.665 131.911 171.356C132.209 171.036 132.359 170.487 132.359 169.708C132.359 168.929 132.209 168.385 131.911 168.076C131.612 167.756 131.116 167.596 130.423 167.596C129.74 167.596 129.249 167.756 128.951 168.076C128.652 168.385 128.503 168.929 128.503 169.708C128.503 170.487 128.652 171.036 128.951 171.356C129.249 171.665 129.74 171.82 130.423 171.82ZM138.647 173.66C138.081 173.66 137.543 173.617 137.031 173.532C136.519 173.457 136.108 173.361 135.799 173.244V171.452C136.172 171.601 136.593 171.719 137.062 171.804C137.532 171.879 137.964 171.916 138.359 171.916C138.892 171.916 139.265 171.884 139.479 171.82C139.703 171.756 139.815 171.612 139.815 171.388C139.815 171.132 139.644 170.945 139.303 170.828C138.972 170.711 138.476 170.545 137.815 170.332C137.121 170.097 136.588 169.815 136.215 169.484C135.841 169.153 135.655 168.663 135.655 168.012C135.655 167.287 135.916 166.732 136.439 166.348C136.972 165.953 137.825 165.756 138.999 165.756C139.468 165.756 139.911 165.793 140.327 165.868C140.743 165.932 141.095 166.012 141.383 166.108V167.884C141.095 167.745 140.764 167.644 140.391 167.58C140.017 167.505 139.671 167.468 139.351 167.468C138.892 167.468 138.524 167.5 138.247 167.564C137.98 167.628 137.847 167.767 137.847 167.98C137.847 168.215 137.991 168.38 138.279 168.476C138.577 168.572 139.036 168.716 139.655 168.908C140.263 169.089 140.737 169.287 141.079 169.5C141.42 169.713 141.66 169.969 141.799 170.268C141.937 170.556 142.007 170.919 142.007 171.356C142.007 172.892 140.887 173.66 138.647 173.66ZM146.279 173.66C145.405 173.66 144.754 173.431 144.327 172.972C143.911 172.513 143.703 171.889 143.703 171.1V167.58H142.631V165.916H143.703V164.284L145.863 163.644V165.916H147.783L147.655 167.58H145.863V170.956C145.863 171.372 145.959 171.66 146.151 171.82C146.343 171.969 146.642 172.044 147.047 172.044C147.346 172.044 147.655 171.991 147.975 171.884V173.372C147.741 173.468 147.485 173.537 147.207 173.58C146.93 173.633 146.621 173.66 146.279 173.66Z" fill="#1E293B"/>
<path d="M219.952 174.876V173.66C218.747 173.639 217.776 173.479 217.04 173.18V172.012C217.477 172.183 217.941 172.316 218.432 172.412C218.923 172.497 219.429 172.54 219.952 172.54V168.748C219.909 168.748 219.883 168.743 219.872 168.732C218.741 168.455 217.947 168.097 217.488 167.66C217.029 167.212 216.8 166.615 216.8 165.868C216.8 165.079 217.056 164.439 217.568 163.948C218.091 163.447 218.885 163.153 219.952 163.068V161.82H220.976V163.052C221.499 163.063 221.979 163.111 222.416 163.196C222.864 163.271 223.216 163.351 223.472 163.436V164.588C223.109 164.46 222.715 164.359 222.288 164.284C221.861 164.209 221.424 164.167 220.976 164.156V167.804C221.776 168.007 222.4 168.252 222.848 168.54C223.307 168.817 223.627 169.148 223.808 169.532C224 169.905 224.096 170.332 224.096 170.812C224.096 171.623 223.835 172.268 223.312 172.748C222.789 173.228 222.011 173.516 220.976 173.612V174.876H219.952ZM219.952 167.548V164.204C219.355 164.279 218.896 164.449 218.576 164.716C218.267 164.983 218.112 165.367 218.112 165.868C218.112 166.316 218.245 166.657 218.512 166.892C218.779 167.127 219.259 167.345 219.952 167.548ZM220.976 172.492C221.573 172.417 222.021 172.252 222.32 171.996C222.629 171.74 222.784 171.345 222.784 170.812C222.784 170.332 222.645 169.964 222.368 169.708C222.101 169.452 221.637 169.223 220.976 169.02V172.492ZM225.691 173.5V172.796C225.968 172.124 226.363 171.511 226.875 170.956C227.387 170.401 227.936 169.879 228.523 169.388C229.109 168.897 229.563 168.487 229.883 168.156C230.213 167.815 230.443 167.489 230.571 167.18C230.699 166.86 230.763 166.487 230.763 166.06C230.763 165.441 230.603 164.972 230.283 164.652C229.963 164.321 229.365 164.156 228.491 164.156C228.096 164.156 227.691 164.199 227.275 164.284C226.859 164.359 226.464 164.471 226.091 164.62V163.452C226.432 163.335 226.843 163.239 227.323 163.164C227.803 163.079 228.261 163.036 228.699 163.036C229.808 163.036 230.645 163.308 231.211 163.852C231.787 164.385 232.075 165.121 232.075 166.06C232.075 166.572 231.984 167.025 231.803 167.42C231.621 167.804 231.371 168.172 231.051 168.524C230.731 168.865 230.357 169.228 229.931 169.612C229.408 170.071 228.907 170.524 228.427 170.972C227.957 171.409 227.584 171.911 227.307 172.476H232.187V173.5H225.691ZM238.76 173.5V171.132H233.464V170.14L238.904 163.196H240.072V170.06H241.16V171.132H240.072V173.5H238.76ZM234.776 170.092H238.936V164.764L234.776 170.092ZM246.313 173.66C245.054 173.66 244.094 173.42 243.433 172.94C242.771 172.449 242.441 171.729 242.441 170.78C242.441 170.161 242.606 169.617 242.937 169.148C243.278 168.679 243.774 168.353 244.425 168.172C243.827 167.98 243.395 167.681 243.129 167.276C242.862 166.86 242.729 166.407 242.729 165.916C242.729 165.041 243.027 164.343 243.625 163.82C244.222 163.297 245.118 163.036 246.313 163.036C247.55 163.036 248.457 163.297 249.033 163.82C249.609 164.343 249.897 165.041 249.897 165.916C249.897 166.428 249.763 166.903 249.497 167.34C249.241 167.777 248.782 168.108 248.121 168.332C248.846 168.513 249.369 168.807 249.689 169.212C250.019 169.617 250.185 170.14 250.185 170.78C250.185 171.729 249.854 172.449 249.193 172.94C248.542 173.42 247.582 173.66 246.313 173.66ZM246.761 167.916C247.422 167.756 247.913 167.532 248.233 167.244C248.553 166.945 248.713 166.508 248.713 165.932C248.713 165.324 248.505 164.865 248.089 164.556C247.683 164.236 247.091 164.076 246.313 164.076C245.545 164.076 244.953 164.231 244.537 164.54C244.121 164.839 243.913 165.297 243.913 165.916C243.913 166.375 244.057 166.759 244.345 167.068C244.633 167.367 245.033 167.569 245.545 167.676L246.761 167.916ZM246.313 172.62C248.105 172.62 249.001 172.001 249.001 170.764C249.001 170.199 248.83 169.788 248.489 169.532C248.158 169.265 247.678 169.068 247.049 168.94L245.657 168.652C245.038 168.78 244.542 169.004 244.169 169.324C243.806 169.633 243.625 170.108 243.625 170.748C243.625 171.388 243.854 171.863 244.313 172.172C244.771 172.471 245.438 172.62 246.313 172.62ZM251.784 173.5V172.396H252.968V173.5H251.784ZM254.566 173.5V172.796C254.843 172.124 255.238 171.511 255.75 170.956C256.262 170.401 256.811 169.879 257.398 169.388C257.984 168.897 258.438 168.487 258.758 168.156C259.088 167.815 259.318 167.489 259.446 167.18C259.574 166.86 259.638 166.487 259.638 166.06C259.638 165.441 259.478 164.972 259.158 164.652C258.838 164.321 258.24 164.156 257.366 164.156C256.971 164.156 256.566 164.199 256.15 164.284C255.734 164.359 255.339 164.471 254.966 164.62V163.452C255.307 163.335 255.718 163.239 256.198 163.164C256.678 163.079 257.136 163.036 257.574 163.036C258.683 163.036 259.52 163.308 260.086 163.852C260.662 164.385 260.95 165.121 260.95 166.06C260.95 166.572 260.859 167.025 260.678 167.42C260.496 167.804 260.246 168.172 259.926 168.524C259.606 168.865 259.232 169.228 258.806 169.612C258.283 170.071 257.782 170.524 257.302 170.972C256.832 171.409 256.459 171.911 256.182 172.476H261.062V173.5H254.566ZM266.531 173.66C265.273 173.66 264.313 173.42 263.651 172.94C262.99 172.449 262.659 171.729 262.659 170.78C262.659 170.161 262.825 169.617 263.155 169.148C263.497 168.679 263.993 168.353 264.643 168.172C264.046 167.98 263.614 167.681 263.347 167.276C263.081 166.86 262.947 166.407 262.947 165.916C262.947 165.041 263.246 164.343 263.843 163.82C264.441 163.297 265.337 163.036 266.531 163.036C267.769 163.036 268.675 163.297 269.251 163.82C269.827 164.343 270.115 165.041 270.115 165.916C270.115 166.428 269.982 166.903 269.715 167.34C269.459 167.777 269.001 168.108 268.339 168.332C269.065 168.513 269.587 168.807 269.907 169.212C270.238 169.617 270.403 170.14 270.403 170.78C270.403 171.729 270.073 172.449 269.411 172.94C268.761 173.42 267.801 173.66 266.531 173.66ZM266.979 167.916C267.641 167.756 268.131 167.532 268.451 167.244C268.771 166.945 268.931 166.508 268.931 165.932C268.931 165.324 268.723 164.865 268.307 164.556C267.902 164.236 267.31 164.076 266.531 164.076C265.763 164.076 265.171 164.231 264.755 164.54C264.339 164.839 264.131 165.297 264.131 165.916C264.131 166.375 264.275 166.759 264.563 167.068C264.851 167.367 265.251 167.569 265.763 167.676L266.979 167.916ZM266.531 172.62C268.323 172.62 269.219 172.001 269.219 170.764C269.219 170.199 269.049 169.788 268.707 169.532C268.377 169.265 267.897 169.068 267.267 168.94L265.875 168.652C265.257 168.78 264.761 169.004 264.387 169.324C264.025 169.633 263.843 170.108 263.843 170.748C263.843 171.388 264.073 171.863 264.531 172.172C264.99 172.471 265.657 172.62 266.531 172.62Z" fill="#1E293B"/>
<path d="M48.912 197.5V187.196H56.16V188.876H51.072V191.516H55.568V193.18H51.072V197.5H48.912ZM60.8171 197.66C59.5051 197.66 58.4651 197.335 57.6971 196.684C56.9291 196.023 56.5451 195.025 56.5451 193.692C56.5451 192.487 56.8651 191.532 57.5051 190.828C58.1558 190.113 59.1211 189.756 60.4011 189.756C61.5745 189.756 62.4705 190.065 63.0891 190.684C63.7185 191.292 64.0331 192.092 64.0331 193.084V194.46H58.5451C58.6625 195.068 58.9398 195.484 59.3771 195.708C59.8251 195.932 60.4545 196.044 61.2651 196.044C61.6705 196.044 62.0811 196.007 62.4971 195.932C62.9238 195.857 63.2865 195.761 63.5851 195.644V197.18C63.2331 197.34 62.8225 197.457 62.3531 197.532C61.8838 197.617 61.3718 197.66 60.8171 197.66ZM58.5451 193.132H62.1451V192.716C62.1451 192.279 62.0171 191.937 61.7611 191.692C61.5051 191.436 61.0731 191.308 60.4651 191.308C59.7505 191.308 59.2491 191.452 58.9611 191.74C58.6838 192.028 58.5451 192.492 58.5451 193.132ZM68.705 197.66C68.033 197.66 67.4303 197.543 66.897 197.308C66.3743 197.063 65.9637 196.668 65.665 196.124C65.3663 195.569 65.217 194.839 65.217 193.932C65.217 193.025 65.3823 192.263 65.713 191.644C66.0437 191.025 66.4863 190.556 67.041 190.236C67.5957 189.916 68.2037 189.756 68.865 189.756C69.697 189.756 70.4063 189.948 70.993 190.332V186.716H73.153V197.5H71.297L71.169 196.796C70.8383 197.084 70.4757 197.303 70.081 197.452C69.697 197.591 69.2383 197.66 68.705 197.66ZM69.297 196.076C69.969 196.076 70.5343 195.847 70.993 195.388V191.932C70.545 191.537 70.0223 191.34 69.425 191.34C68.081 191.34 67.409 192.204 67.409 193.932C67.409 194.743 67.5743 195.303 67.905 195.612C68.2357 195.921 68.6997 196.076 69.297 196.076ZM74.9745 197.5V187.196H82.3665V188.876H77.1345V191.516H81.7745V193.18H77.1345V195.836H82.3665V197.5H74.9745ZM82.9629 197.5L85.8749 193.644L83.0749 189.916H85.4109L87.0429 192.124L88.6749 189.916H91.0109L88.2269 193.644L91.1229 197.5H88.7709L87.0429 195.18L85.3149 197.5H82.9629ZM96.0214 197.5V187.196H98.1814V197.5H96.0214ZM100.006 197.5V189.916H102.006L102.086 190.636C102.395 190.401 102.784 190.199 103.254 190.028C103.734 189.847 104.235 189.756 104.758 189.756C105.76 189.756 106.491 189.991 106.95 190.46C107.408 190.929 107.638 191.655 107.638 192.636V197.5H105.478V192.748C105.478 192.236 105.371 191.873 105.158 191.66C104.955 191.447 104.571 191.34 104.006 191.34C103.675 191.34 103.339 191.415 102.998 191.564C102.667 191.713 102.39 191.9 102.166 192.124V197.5H100.006ZM111.662 197.5L108.67 189.916H110.926L112.814 195.324L114.718 189.916H116.958L113.982 197.5H111.662ZM121.391 197.66C119.973 197.66 118.933 197.319 118.272 196.636C117.61 195.943 117.28 194.967 117.28 193.708C117.28 192.449 117.61 191.479 118.272 190.796C118.944 190.103 119.984 189.756 121.391 189.756C122.81 189.756 123.85 190.103 124.512 190.796C125.184 191.479 125.52 192.449 125.52 193.708C125.52 194.967 125.189 195.943 124.528 196.636C123.866 197.319 122.821 197.66 121.391 197.66ZM121.391 195.82C122.085 195.82 122.581 195.665 122.88 195.356C123.178 195.036 123.328 194.487 123.328 193.708C123.328 192.929 123.178 192.385 122.88 192.076C122.581 191.756 122.085 191.596 121.391 191.596C120.709 191.596 120.218 191.756 119.92 192.076C119.621 192.385 119.472 192.929 119.472 193.708C119.472 194.487 119.621 195.036 119.92 195.356C120.218 195.665 120.709 195.82 121.391 195.82ZM127.237 188.524V186.828H129.589V188.524H127.237ZM127.413 197.5V191.516H126.277L126.469 189.916H129.573V197.5H127.413ZM135.284 197.66C133.929 197.66 132.889 197.324 132.164 196.652C131.449 195.98 131.092 194.999 131.092 193.708C131.092 192.375 131.476 191.383 132.244 190.732C133.023 190.081 134.057 189.756 135.348 189.756C135.881 189.756 136.34 189.793 136.724 189.868C137.108 189.943 137.481 190.065 137.844 190.236V191.788C137.577 191.66 137.268 191.559 136.916 191.484C136.564 191.409 136.185 191.372 135.78 191.372C134.969 191.372 134.351 191.543 133.924 191.884C133.497 192.215 133.284 192.823 133.284 193.708C133.284 194.519 133.476 195.111 133.86 195.484C134.255 195.857 134.889 196.044 135.764 196.044C136.137 196.044 136.5 196.007 136.852 195.932C137.215 195.857 137.551 195.745 137.86 195.596V197.196C137.145 197.505 136.287 197.66 135.284 197.66ZM143.177 197.66C141.865 197.66 140.825 197.335 140.057 196.684C139.289 196.023 138.905 195.025 138.905 193.692C138.905 192.487 139.225 191.532 139.865 190.828C140.515 190.113 141.481 189.756 142.761 189.756C143.934 189.756 144.83 190.065 145.449 190.684C146.078 191.292 146.392 192.092 146.392 193.084V194.46H140.905C141.022 195.068 141.299 195.484 141.737 195.708C142.185 195.932 142.814 196.044 143.625 196.044C144.03 196.044 144.441 196.007 144.857 195.932C145.283 195.857 145.646 195.761 145.945 195.644V197.18C145.593 197.34 145.182 197.457 144.713 197.532C144.243 197.617 143.731 197.66 143.177 197.66ZM140.905 193.132H144.505V192.716C144.505 192.279 144.377 191.937 144.121 191.692C143.865 191.436 143.433 191.308 142.825 191.308C142.11 191.308 141.609 191.452 141.321 191.74C141.043 192.028 140.905 192.492 140.905 193.132ZM151.492 197.5L152.324 194.86H151.092V193.436H152.772L153.444 191.26H151.796V189.82H153.892L154.724 187.196H156.596L155.764 189.82H158.148L158.98 187.196H160.852L160.02 189.82H161.188V191.26H159.572L158.884 193.436H160.484V194.86H158.436L157.604 197.5H155.748L156.58 194.86H154.18L153.348 197.5H151.492ZM154.628 193.436H157.028L157.7 191.26H155.316L154.628 193.436Z" fill="#1E293B"/>
<path d="M220.672 197.66C219.413 197.66 218.453 197.42 217.792 196.94C217.131 196.449 216.8 195.729 216.8 194.78C216.8 194.161 216.965 193.617 217.296 193.148C217.637 192.679 218.133 192.353 218.784 192.172C218.187 191.98 217.755 191.681 217.488 191.276C217.221 190.86 217.088 190.407 217.088 189.916C217.088 189.041 217.387 188.343 217.984 187.82C218.581 187.297 219.477 187.036 220.672 187.036C221.909 187.036 222.816 187.297 223.392 187.82C223.968 188.343 224.256 189.041 224.256 189.916C224.256 190.428 224.123 190.903 223.856 191.34C223.6 191.777 223.141 192.108 222.48 192.332C223.205 192.513 223.728 192.807 224.048 193.212C224.379 193.617 224.544 194.14 224.544 194.78C224.544 195.729 224.213 196.449 223.552 196.94C222.901 197.42 221.941 197.66 220.672 197.66ZM221.12 191.916C221.781 191.756 222.272 191.532 222.592 191.244C222.912 190.945 223.072 190.508 223.072 189.932C223.072 189.324 222.864 188.865 222.448 188.556C222.043 188.236 221.451 188.076 220.672 188.076C219.904 188.076 219.312 188.231 218.896 188.54C218.48 188.839 218.272 189.297 218.272 189.916C218.272 190.375 218.416 190.759 218.704 191.068C218.992 191.367 219.392 191.569 219.904 191.676L221.12 191.916ZM220.672 196.62C222.464 196.62 223.36 196.001 223.36 194.764C223.36 194.199 223.189 193.788 222.848 193.532C222.517 193.265 222.037 193.068 221.408 192.94L220.016 192.652C219.397 192.78 218.901 193.004 218.528 193.324C218.165 193.633 217.984 194.108 217.984 194.748C217.984 195.388 218.213 195.863 218.672 196.172C219.131 196.471 219.797 196.62 220.672 196.62ZM226.144 197.5V196.796C226.421 196.124 226.816 195.511 227.328 194.956C227.84 194.401 228.389 193.879 228.976 193.388C229.562 192.897 230.016 192.487 230.336 192.156C230.666 191.815 230.896 191.489 231.024 191.18C231.152 190.86 231.216 190.487 231.216 190.06C231.216 189.441 231.056 188.972 230.736 188.652C230.416 188.321 229.818 188.156 228.944 188.156C228.549 188.156 228.144 188.199 227.728 188.284C227.312 188.359 226.917 188.471 226.544 188.62V187.452C226.885 187.335 227.296 187.239 227.776 187.164C228.256 187.079 228.714 187.036 229.152 187.036C230.261 187.036 231.098 187.308 231.664 187.852C232.24 188.385 232.528 189.121 232.528 190.06C232.528 190.572 232.437 191.025 232.256 191.42C232.074 191.804 231.824 192.172 231.504 192.524C231.184 192.865 230.81 193.228 230.384 193.612C229.861 194.071 229.36 194.524 228.88 194.972C228.41 195.409 228.037 195.911 227.76 196.476H232.64V197.5H226.144ZM237.006 197.66C236.536 197.66 236.035 197.617 235.502 197.532C234.968 197.447 234.547 197.345 234.238 197.228V196.076C234.643 196.236 235.064 196.353 235.502 196.428C235.939 196.503 236.387 196.54 236.846 196.54C237.763 196.54 238.44 196.401 238.878 196.124C239.326 195.847 239.55 195.361 239.55 194.668C239.55 194.007 239.342 193.527 238.926 193.228C238.51 192.929 237.928 192.78 237.182 192.78H235.694L235.822 191.788H237.054C237.822 191.788 238.392 191.623 238.766 191.292C239.139 190.951 239.326 190.476 239.326 189.868C239.326 189.281 239.128 188.849 238.734 188.572C238.35 188.295 237.731 188.156 236.878 188.156C236.451 188.156 236.019 188.199 235.582 188.284C235.155 188.369 234.771 188.481 234.43 188.62V187.484C234.728 187.367 235.118 187.265 235.598 187.18C236.088 187.084 236.574 187.036 237.054 187.036C238.28 187.036 239.182 187.303 239.758 187.836C240.344 188.359 240.638 189.031 240.638 189.852C240.638 190.375 240.499 190.865 240.222 191.324C239.955 191.772 239.523 192.087 238.926 192.268C239.608 192.417 240.099 192.716 240.398 193.164C240.707 193.601 240.862 194.103 240.862 194.668C240.862 195.671 240.515 196.423 239.822 196.924C239.128 197.415 238.19 197.66 237.006 197.66ZM242.456 193.724V192.684H248.488V193.724H242.456ZM250.081 197.5V196.796C250.359 196.124 250.753 195.511 251.265 194.956C251.777 194.401 252.327 193.879 252.913 193.388C253.5 192.897 253.953 192.487 254.273 192.156C254.604 191.815 254.833 191.489 254.961 191.18C255.089 190.86 255.153 190.487 255.153 190.06C255.153 189.441 254.993 188.972 254.673 188.652C254.353 188.321 253.756 188.156 252.881 188.156C252.487 188.156 252.081 188.199 251.665 188.284C251.249 188.359 250.855 188.471 250.481 188.62V187.452C250.823 187.335 251.233 187.239 251.713 187.164C252.193 187.079 252.652 187.036 253.089 187.036C254.199 187.036 255.036 187.308 255.601 187.852C256.177 188.385 256.465 189.121 256.465 190.06C256.465 190.572 256.375 191.025 256.193 191.42C256.012 191.804 255.761 192.172 255.441 192.524C255.121 192.865 254.748 193.228 254.321 193.612C253.799 194.071 253.297 194.524 252.817 194.972C252.348 195.409 251.975 195.911 251.697 196.476H256.577V197.5H250.081ZM262.047 197.66C260.788 197.66 259.828 197.42 259.167 196.94C258.506 196.449 258.175 195.729 258.175 194.78C258.175 194.161 258.34 193.617 258.671 193.148C259.012 192.679 259.508 192.353 260.159 192.172C259.562 191.98 259.13 191.681 258.863 191.276C258.596 190.86 258.463 190.407 258.463 189.916C258.463 189.041 258.762 188.343 259.359 187.82C259.956 187.297 260.852 187.036 262.047 187.036C263.284 187.036 264.191 187.297 264.767 187.82C265.343 188.343 265.631 189.041 265.631 189.916C265.631 190.428 265.498 190.903 265.231 191.34C264.975 191.777 264.516 192.108 263.855 192.332C264.58 192.513 265.103 192.807 265.423 193.212C265.754 193.617 265.919 194.14 265.919 194.78C265.919 195.729 265.588 196.449 264.927 196.94C264.276 197.42 263.316 197.66 262.047 197.66ZM262.495 191.916C263.156 191.756 263.647 191.532 263.967 191.244C264.287 190.945 264.447 190.508 264.447 189.932C264.447 189.324 264.239 188.865 263.823 188.556C263.418 188.236 262.826 188.076 262.047 188.076C261.279 188.076 260.687 188.231 260.271 188.54C259.855 188.839 259.647 189.297 259.647 189.916C259.647 190.375 259.791 190.759 260.079 191.068C260.367 191.367 260.767 191.569 261.279 191.676L262.495 191.916ZM262.047 196.62C263.839 196.62 264.735 196.001 264.735 194.764C264.735 194.199 264.564 193.788 264.223 193.532C263.892 193.265 263.412 193.068 262.783 192.94L261.391 192.652C260.772 192.78 260.276 193.004 259.903 193.324C259.54 193.633 259.359 194.108 259.359 194.748C259.359 195.388 259.588 195.863 260.047 196.172C260.506 196.471 261.172 196.62 262.047 196.62ZM272.495 197.5V195.132H267.199V194.14L272.639 187.196H273.807V194.06H274.895V195.132H273.807V197.5H272.495ZM268.511 194.092H272.671V188.764L268.511 194.092ZM281.151 197.5V195.132H275.855V194.14L281.295 187.196H282.463V194.06H283.551V195.132H282.463V197.5H281.151ZM277.167 194.092H281.327V188.764L277.167 194.092ZM284.831 193.724V192.684H290.863V193.724H284.831ZM292.456 197.5V196.796C292.734 196.124 293.128 195.511 293.64 194.956C294.152 194.401 294.702 193.879 295.288 193.388C295.875 192.897 296.328 192.487 296.648 192.156C296.979 191.815 297.208 191.489 297.336 191.18C297.464 190.86 297.528 190.487 297.528 190.06C297.528 189.441 297.368 188.972 297.048 188.652C296.728 188.321 296.131 188.156 295.256 188.156C294.862 188.156 294.456 188.199 294.04 188.284C293.624 188.359 293.23 188.471 292.856 188.62V187.452C293.198 187.335 293.608 187.239 294.088 187.164C294.568 187.079 295.027 187.036 295.464 187.036C296.574 187.036 297.411 187.308 297.976 187.852C298.552 188.385 298.84 189.121 298.84 190.06C298.84 190.572 298.75 191.025 298.568 191.42C298.387 191.804 298.136 192.172 297.816 192.524C297.496 192.865 297.123 193.228 296.696 193.612C296.174 194.071 295.672 194.524 295.192 194.972C294.723 195.409 294.35 195.911 294.072 196.476H298.952V197.5H292.456ZM304.422 197.66C303.163 197.66 302.203 197.42 301.542 196.94C300.881 196.449 300.55 195.729 300.55 194.78C300.55 194.161 300.715 193.617 301.046 193.148C301.387 192.679 301.883 192.353 302.534 192.172C301.937 191.98 301.505 191.681 301.238 191.276C300.971 190.86 300.838 190.407 300.838 189.916C300.838 189.041 301.137 188.343 301.734 187.82C302.331 187.297 303.227 187.036 304.422 187.036C305.659 187.036 306.566 187.297 307.142 187.82C307.718 188.343 308.006 189.041 308.006 189.916C308.006 190.428 307.873 190.903 307.606 191.34C307.35 191.777 306.891 192.108 306.23 192.332C306.955 192.513 307.478 192.807 307.798 193.212C308.129 193.617 308.294 194.14 308.294 194.78C308.294 195.729 307.963 196.449 307.302 196.94C306.651 197.42 305.691 197.66 304.422 197.66ZM304.87 191.916C305.531 191.756 306.022 191.532 306.342 191.244C306.662 190.945 306.822 190.508 306.822 189.932C306.822 189.324 306.614 188.865 306.198 188.556C305.793 188.236 305.201 188.076 304.422 188.076C303.654 188.076 303.062 188.231 302.646 188.54C302.23 188.839 302.022 189.297 302.022 189.916C302.022 190.375 302.166 190.759 302.454 191.068C302.742 191.367 303.142 191.569 303.654 191.676L304.87 191.916ZM304.422 196.62C306.214 196.62 307.11 196.001 307.11 194.764C307.11 194.199 306.939 193.788 306.598 193.532C306.267 193.265 305.787 193.068 305.158 192.94L303.766 192.652C303.147 192.78 302.651 193.004 302.278 193.324C301.915 193.633 301.734 194.108 301.734 194.748C301.734 195.388 301.963 195.863 302.422 196.172C302.881 196.471 303.547 196.62 304.422 196.62ZM314.87 197.5V195.132H309.574V194.14L315.014 187.196H316.182V194.06H317.27V195.132H316.182V197.5H314.87ZM310.886 194.092H315.046V188.764L310.886 194.092Z" fill="#1E293B"/>
<defs>
<filter id="filter0_d_2051_60983" x="220" y="20" width="92" height="44" filterUnits="userSpaceOnUse" color-interpolation-filters="sRGB">
<feFlood flood-opacity="0" result="BackgroundImageFix"/>
<feColorMatrix in="SourceAlpha" type="matrix" values="0 0 0 0 0 0 0 0 0 0 0 0 0 0 0 0 0 0 127 0" result="hardAlpha"/>
<feOffset/>
<feGaussianBlur stdDeviation="3"/>
<feComposite in2="hardAlpha" operator="out"/>
<feColorMatrix type="matrix" values="0 0 0 0 0 0 0 0 0 0 0 0 0 0 0 0 0 0 0.1 0"/>
<feBlend mode="normal" in2="BackgroundImageFix" result="effect1_dropShadow_2051_60983"/>
<feBlend mode="normal" in="SourceGraphic" in2="effect1_dropShadow_2051_60983" result="shape"/>
</filter>
<clipPath id="clip0_2051_60983">
<rect width="51" height="19" fill="white" transform="translate(67 32.5)"/>
</clipPath>
<clipPath id="clip1_2051_60983">
<rect width="41" height="19" fill="white" transform="translate(160 32.5)"/>
</clipPath>
<clipPath id="clip2_2051_60983">
<rect width="46" height="19" fill="white" transform="translate(243 32.5)"/>
</clipPath>
<clipPath id="clip3_2051_60983">
<rect width="27" height="19" fill="white" transform="translate(331 32.5)"/>
</clipPath>
</defs>
</svg>
