<svg width="96" height="24" viewBox="0 0 96 24" fill="none" xmlns="http://www.w3.org/2000/svg">
<path d="M0 12C0 5.37258 5.37258 0 12 0H84C90.6274 0 96 5.37258 96 12C96 18.6274 90.6274 24 84 24H12C5.37258 24 0 18.6274 0 12Z" fill="#F5C5C6"/>
<g clip-path="url(#clip0_799_4982)">
<path d="M16.27 19C16.1271 19 15.9972 18.9645 15.8803 18.8934C15.7634 18.8224 15.6724 18.7283 15.6075 18.6111C15.5425 18.4939 15.5069 18.3674 15.5007 18.2315C15.4945 18.0957 15.5301 17.9629 15.6075 17.8333L22.8176 5.38889C22.8955 5.25926 22.9963 5.16204 23.12 5.09722C23.2437 5.03241 23.3702 5 23.4996 5C23.629 5 23.7558 5.03241 23.88 5.09722C24.0042 5.16204 24.1047 5.25926 24.1816 5.38889L31.3917 17.8333C31.4697 17.9629 31.5055 18.0959 31.4993 18.2323C31.4931 18.3687 31.4572 18.4949 31.3917 18.6111C31.3263 18.7272 31.2353 18.8213 31.1189 18.8934C31.0025 18.9655 30.8726 19.001 30.7292 19H16.27ZM23.4996 16.6666C23.7205 16.6666 23.9057 16.592 24.0554 16.4426C24.205 16.2933 24.2796 16.1087 24.2791 15.8889C24.2786 15.669 24.2037 15.4844 24.0546 15.3351C23.9055 15.1858 23.7205 15.1111 23.4996 15.1111C23.2788 15.1111 23.0938 15.1858 22.9446 15.3351C22.7955 15.4844 22.7207 15.669 22.7201 15.8889C22.7196 16.1087 22.7945 16.2936 22.9446 16.4434C23.0948 16.5933 23.2798 16.6677 23.4996 16.6666ZM23.4996 14.3333C23.7205 14.3333 23.9057 14.2587 24.0554 14.1093C24.205 13.96 24.2796 13.7754 24.2791 13.5555V11.2222C24.2791 11.0018 24.2043 10.8173 24.0546 10.6684C23.9049 10.5196 23.7199 10.445 23.4996 10.4444C23.2793 10.4439 23.0943 10.5186 22.9446 10.6684C22.795 10.8183 22.7201 11.0029 22.7201 11.2222V13.5555C22.7201 13.7759 22.795 13.9608 22.9446 14.1101C23.0943 14.2594 23.2793 14.3338 23.4996 14.3333Z" fill="#E64346"/>
</g>
<path d="M36.4535 16V8.272H39.6935C40.8535 8.272 41.7255 8.572 42.3095 9.172C42.9015 9.764 43.1975 10.764 43.1975 12.172C43.1975 13.5 42.9055 14.472 42.3215 15.088C41.7455 15.696 40.8695 16 39.6935 16H36.4535ZM38.0735 14.752H39.4655C39.9215 14.752 40.3055 14.684 40.6175 14.548C40.9295 14.404 41.1615 14.148 41.3135 13.78C41.4735 13.404 41.5535 12.868 41.5535 12.172C41.5535 11.476 41.4815 10.944 41.3375 10.576C41.1935 10.208 40.9695 9.956 40.6655 9.82C40.3615 9.684 39.9615 9.616 39.4655 9.616H38.0735V14.752ZM47.2925 16.12C46.3085 16.12 45.5285 15.876 44.9525 15.388C44.3765 14.892 44.0885 14.144 44.0885 13.144C44.0885 12.24 44.3285 11.524 44.8085 10.996C45.2965 10.46 46.0205 10.192 46.9805 10.192C47.8605 10.192 48.5325 10.424 48.9965 10.888C49.4685 11.344 49.7045 11.944 49.7045 12.688V13.72H45.5885C45.6765 14.176 45.8845 14.488 46.2125 14.656C46.5485 14.824 47.0205 14.908 47.6285 14.908C47.9325 14.908 48.2405 14.88 48.5525 14.824C48.8725 14.768 49.1445 14.696 49.3685 14.608V15.76C49.1045 15.88 48.7965 15.968 48.4445 16.024C48.0925 16.088 47.7085 16.12 47.2925 16.12ZM45.5885 12.724H48.2885V12.412C48.2885 12.084 48.1925 11.828 48.0005 11.644C47.8085 11.452 47.4845 11.356 47.0285 11.356C46.4925 11.356 46.1165 11.464 45.9005 11.68C45.6925 11.896 45.5885 12.244 45.5885 12.724ZM52.4164 16.12C51.8644 16.12 51.4604 15.992 51.2044 15.736C50.9564 15.48 50.8324 15.072 50.8324 14.512V7.912H52.4524V14.38C52.4524 14.58 52.4924 14.72 52.5724 14.8C52.6524 14.872 52.7684 14.908 52.9204 14.908C53.1284 14.908 53.3164 14.88 53.4844 14.824V15.94C53.1804 16.06 52.8244 16.12 52.4164 16.12ZM56.1947 16.12C55.8347 16.12 55.4987 16.056 55.1867 15.928C54.8827 15.792 54.6347 15.596 54.4427 15.34C54.2587 15.076 54.1667 14.748 54.1667 14.356C54.1667 13.796 54.3627 13.348 54.7547 13.012C55.1547 12.676 55.7427 12.508 56.5187 12.508H58.1987V12.352C58.1987 12 58.0987 11.752 57.8987 11.608C57.7067 11.464 57.3147 11.392 56.7227 11.392C56.0747 11.392 55.4507 11.492 54.8507 11.692V10.552C55.1147 10.448 55.4347 10.364 55.8107 10.3C56.1947 10.228 56.6107 10.192 57.0587 10.192C57.9147 10.192 58.5747 10.368 59.0387 10.72C59.5107 11.064 59.7467 11.62 59.7467 12.388V16H58.3427L58.2587 15.484C58.0347 15.684 57.7587 15.84 57.4307 15.952C57.1027 16.064 56.6907 16.12 56.1947 16.12ZM56.6387 15.052C56.9987 15.052 57.3107 14.992 57.5747 14.872C57.8387 14.752 58.0467 14.6 58.1987 14.416V13.516H56.5547C55.9227 13.516 55.6067 13.776 55.6067 14.296C55.6067 14.8 55.9507 15.052 56.6387 15.052ZM62.0001 18.112C61.7521 18.112 61.5321 18.096 61.3401 18.064C61.1481 18.04 60.9601 17.992 60.7761 17.92V16.78C60.9121 16.828 61.0361 16.86 61.1481 16.876C61.2681 16.892 61.3881 16.9 61.5081 16.9C61.8361 16.9 62.0881 16.824 62.2641 16.672C62.4481 16.52 62.6321 16.264 62.8161 15.904L60.2721 10.312H61.9641L63.6321 14.176L65.2881 10.312H66.9681L64.7241 15.604C64.5161 16.1 64.2881 16.536 64.0401 16.912C63.8001 17.296 63.5161 17.592 63.1881 17.8C62.8601 18.008 62.4641 18.112 62.0001 18.112ZM70.2964 16.12C69.3124 16.12 68.5324 15.876 67.9564 15.388C67.3804 14.892 67.0924 14.144 67.0924 13.144C67.0924 12.24 67.3324 11.524 67.8124 10.996C68.3004 10.46 69.0244 10.192 69.9844 10.192C70.8644 10.192 71.5364 10.424 72.0004 10.888C72.4724 11.344 72.7084 11.944 72.7084 12.688V13.72H68.5924C68.6804 14.176 68.8884 14.488 69.2164 14.656C69.5524 14.824 70.0244 14.908 70.6324 14.908C70.9364 14.908 71.2444 14.88 71.5564 14.824C71.8764 14.768 72.1484 14.696 72.3724 14.608V15.76C72.1084 15.88 71.8004 15.968 71.4484 16.024C71.0964 16.088 70.7124 16.12 70.2964 16.12ZM68.5924 12.724H71.2924V12.412C71.2924 12.084 71.1964 11.828 71.0044 11.644C70.8124 11.452 70.4884 11.356 70.0324 11.356C69.4964 11.356 69.1204 11.464 68.9044 11.68C68.6964 11.896 68.5924 12.244 68.5924 12.724ZM76.2123 16.12C75.7083 16.12 75.2563 16.032 74.8563 15.856C74.4643 15.672 74.1563 15.376 73.9323 14.968C73.7083 14.552 73.5963 14.004 73.5963 13.324C73.5963 12.644 73.7203 12.072 73.9683 11.608C74.2163 11.144 74.5483 10.792 74.9643 10.552C75.3803 10.312 75.8363 10.192 76.3323 10.192C76.9563 10.192 77.4883 10.336 77.9283 10.624V7.912H79.5483V16H78.1563L78.0603 15.472C77.8123 15.688 77.5403 15.852 77.2443 15.964C76.9563 16.068 76.6123 16.12 76.2123 16.12ZM76.6563 14.932C77.1603 14.932 77.5843 14.76 77.9283 14.416V11.824C77.5923 11.528 77.2003 11.38 76.7523 11.38C75.7443 11.38 75.2403 12.028 75.2403 13.324C75.2403 13.932 75.3643 14.352 75.6123 14.584C75.8603 14.816 76.2083 14.932 76.6563 14.932Z" fill="#B00B0E"/>
<defs>
<clipPath id="clip0_799_4982">
<rect width="16" height="14" fill="white" transform="translate(15.5 5)"/>
</clipPath>
</defs>
</svg>
