<svg width="800" height="174" viewBox="0 0 800 174" fill="none" xmlns="http://www.w3.org/2000/svg">
<rect y="4" width="329" height="36" rx="8" fill="#F3F4F7"/>
<path d="M2 10C2 7.79086 3.79086 6 6 6H83C85.2091 6 87 7.79086 87 10V34C87 36.2091 85.2091 38 83 38H6C3.79086 38 2 36.2091 2 34V10Z" fill="#F3F4F7"/>
<g clip-path="url(#clip0_2122_6247)">
<path d="M20.3986 27.5V17.196H24.9906C25.78 17.196 26.4306 17.3453 26.9426 17.644C27.4546 17.9427 27.8333 18.3533 28.0786 18.876C28.324 19.388 28.4466 19.9747 28.4466 20.636C28.4466 21.66 28.1266 22.4813 27.4866 23.1C26.8573 23.7187 26.004 24.028 24.9266 24.028H22.1426V27.5H20.3986ZM22.1426 22.652H24.6066C25.3 22.652 25.8226 22.4707 26.1746 22.108C26.5266 21.7453 26.7026 21.2547 26.7026 20.636C26.7026 19.9747 26.532 19.4627 26.1906 19.1C25.86 18.7373 25.3586 18.556 24.6866 18.556H22.1426V22.652ZM29.8361 27.5V16.716H31.5801V20.652C31.9108 20.3853 32.3055 20.172 32.7641 20.012C33.2228 19.8413 33.7401 19.756 34.3161 19.756C35.2761 19.756 35.9855 19.9853 36.4441 20.444C36.9028 20.9027 37.1321 21.6173 37.1321 22.588V27.5H35.4041V22.668C35.4041 22.0813 35.2761 21.6707 35.0201 21.436C34.7748 21.2013 34.3428 21.084 33.7241 21.084C33.3401 21.084 32.9508 21.1693 32.5561 21.34C32.1615 21.5 31.8361 21.7133 31.5801 21.98V27.5H29.8361ZM42.5619 27.66C41.1965 27.66 40.1939 27.3187 39.5539 26.636C38.9245 25.9533 38.6099 24.9773 38.6099 23.708C38.6099 22.4387 38.9299 21.4627 39.5699 20.78C40.2099 20.0973 41.2072 19.756 42.5619 19.756C43.9272 19.756 44.9299 20.0973 45.5699 20.78C46.2099 21.4627 46.5299 22.4387 46.5299 23.708C46.5299 24.9773 46.2099 25.9533 45.5699 26.636C44.9405 27.3187 43.9379 27.66 42.5619 27.66ZM42.5619 26.188C43.3619 26.188 43.9272 25.996 44.2579 25.612C44.5992 25.2173 44.7699 24.5827 44.7699 23.708C44.7699 22.8333 44.5992 22.204 44.2579 21.82C43.9272 21.436 43.3619 21.244 42.5619 21.244C41.7725 21.244 41.2072 21.436 40.8659 21.82C40.5352 22.204 40.3699 22.8333 40.3699 23.708C40.3699 24.5827 40.5352 25.2173 40.8659 25.612C41.2072 25.996 41.7725 26.188 42.5619 26.188ZM51.1228 27.66C50.3121 27.66 49.7041 27.4467 49.2988 27.02C48.9041 26.5827 48.7068 25.9907 48.7068 25.244V21.276H47.5868V19.916H48.7068V18.172L50.4348 17.644V19.916H52.4508L52.3388 21.276H50.4348V25.148C50.4348 25.5853 50.5361 25.8947 50.7388 26.076C50.9414 26.2467 51.2721 26.332 51.7308 26.332C52.0188 26.332 52.3228 26.2787 52.6428 26.172V27.404C52.2268 27.5747 51.7201 27.66 51.1228 27.66ZM57.6088 27.66C56.2434 27.66 55.2408 27.3187 54.6008 26.636C53.9714 25.9533 53.6568 24.9773 53.6568 23.708C53.6568 22.4387 53.9768 21.4627 54.6168 20.78C55.2568 20.0973 56.2541 19.756 57.6088 19.756C58.9741 19.756 59.9768 20.0973 60.6168 20.78C61.2568 21.4627 61.5768 22.4387 61.5768 23.708C61.5768 24.9773 61.2568 25.9533 60.6168 26.636C59.9874 27.3187 58.9848 27.66 57.6088 27.66ZM57.6088 26.188C58.4088 26.188 58.9741 25.996 59.3048 25.612C59.6461 25.2173 59.8168 24.5827 59.8168 23.708C59.8168 22.8333 59.6461 22.204 59.3048 21.82C58.9741 21.436 58.4088 21.244 57.6088 21.244C56.8194 21.244 56.2541 21.436 55.9128 21.82C55.5821 22.204 55.4168 22.8333 55.4168 23.708C55.4168 24.5827 55.5821 25.2173 55.9128 25.612C56.2541 25.996 56.8194 26.188 57.6088 26.188ZM65.7235 27.66C65.2008 27.66 64.6995 27.6227 64.2195 27.548C63.7502 27.4733 63.3608 27.3827 63.0515 27.276V25.804C63.4142 25.9427 63.8142 26.0493 64.2515 26.124C64.6888 26.1987 65.1048 26.236 65.4995 26.236C66.0968 26.236 66.5235 26.1827 66.7795 26.076C67.0355 25.9693 67.1635 25.7613 67.1635 25.452C67.1635 25.228 67.0835 25.052 66.9235 24.924C66.7742 24.796 66.5448 24.6787 66.2355 24.572C65.9368 24.4653 65.5528 24.3373 65.0835 24.188C64.6355 24.0387 64.2462 23.8787 63.9155 23.708C63.5848 23.5267 63.3288 23.2973 63.1475 23.02C62.9662 22.7427 62.8755 22.38 62.8755 21.932C62.8755 21.2387 63.1262 20.7053 63.6275 20.332C64.1288 19.948 64.9342 19.756 66.0435 19.756C66.4808 19.756 66.8968 19.788 67.2915 19.852C67.6862 19.916 68.0222 19.996 68.2995 20.092V21.548C68.0008 21.4307 67.6702 21.34 67.3075 21.276C66.9555 21.212 66.6248 21.18 66.3155 21.18C65.7608 21.18 65.3395 21.228 65.0515 21.324C64.7742 21.42 64.6355 21.612 64.6355 21.9C64.6355 22.1987 64.7795 22.412 65.0675 22.54C65.3662 22.6573 65.8408 22.8227 66.4915 23.036C67.0888 23.2173 67.5635 23.4093 67.9155 23.612C68.2675 23.8147 68.5182 24.06 68.6675 24.348C68.8275 24.6253 68.9075 24.988 68.9075 25.436C68.9075 26.1827 68.6355 26.7427 68.0915 27.116C67.5475 27.4787 66.7582 27.66 65.7235 27.66Z" fill="#A9ACB9"/>
</g>
<g filter="url(#filter0_d_2122_6247)">
<path d="M95 10C95 7.79086 96.7909 6 99 6H166C168.209 6 170 7.79086 170 10V34C170 36.2091 168.209 38 166 38H99C96.7909 38 95 36.2091 95 34V10Z" fill="white"/>
<path d="M99 6.5H166C167.933 6.5 169.5 8.067 169.5 10V34C169.5 35.933 167.933 37.5 166 37.5H99C97.067 37.5 95.5 35.933 95.5 34V10C95.5 8.067 97.067 6.5 99 6.5Z" stroke="#ECEDF1"/>
<g clip-path="url(#clip1_2122_6247)">
<path d="M118.029 27.66C116.397 27.66 115.176 27.2333 114.365 26.38C113.554 25.516 113.149 24.1827 113.149 22.38C113.149 20.5027 113.554 19.1427 114.365 18.3C115.176 17.4573 116.397 17.036 118.029 17.036C119.672 17.036 120.893 17.4573 121.693 18.3C122.504 19.1427 122.909 20.5027 122.909 22.38C122.909 24.1827 122.504 25.516 121.693 26.38C120.893 27.2333 119.672 27.66 118.029 27.66ZM118.029 26.188C119.106 26.188 119.896 25.8947 120.397 25.308C120.909 24.7107 121.165 23.7347 121.165 22.38C121.165 20.9507 120.909 19.9533 120.397 19.388C119.896 18.812 119.106 18.524 118.029 18.524C116.962 18.524 116.173 18.812 115.661 19.388C115.16 19.9533 114.909 20.9507 114.909 22.38C114.909 23.7347 115.16 24.7107 115.661 25.308C116.173 25.8947 116.962 26.188 118.029 26.188ZM124.61 27.5V19.916H126.21L126.306 20.796C126.668 20.5613 127.1 20.348 127.602 20.156C128.103 19.964 128.599 19.8307 129.09 19.756V21.084C128.791 21.1373 128.466 21.2173 128.114 21.324C127.772 21.42 127.447 21.532 127.138 21.66C126.828 21.7773 126.567 21.9 126.354 22.028V27.5H124.61ZM133.183 27.66C132.5 27.66 131.898 27.5427 131.375 27.308C130.852 27.0733 130.447 26.684 130.159 26.14C129.871 25.596 129.727 24.8653 129.727 23.948C129.727 23.0413 129.882 22.2787 130.191 21.66C130.5 21.0307 130.927 20.556 131.471 20.236C132.026 19.916 132.65 19.756 133.343 19.756C133.802 19.756 134.207 19.8093 134.559 19.916C134.922 20.0227 135.268 20.188 135.599 20.412V16.716H137.343V27.5H135.855L135.743 26.748C135.402 27.0573 135.028 27.2867 134.623 27.436C134.218 27.5853 133.738 27.66 133.183 27.66ZM133.647 26.348C134.426 26.348 135.076 26.0813 135.599 25.548V21.756C135.098 21.308 134.468 21.084 133.711 21.084C132.975 21.084 132.42 21.3293 132.047 21.82C131.674 22.3107 131.487 23.0253 131.487 23.964C131.487 24.8707 131.658 25.4947 131.999 25.836C132.351 26.1773 132.9 26.348 133.647 26.348ZM143.043 27.66C141.721 27.66 140.697 27.3347 139.971 26.684C139.246 26.0333 138.883 25.036 138.883 23.692C138.883 22.476 139.193 21.516 139.811 20.812C140.43 20.108 141.369 19.756 142.627 19.756C143.779 19.756 144.643 20.06 145.219 20.668C145.806 21.2653 146.099 22.0387 146.099 22.988V24.396H140.547C140.633 25.132 140.899 25.6387 141.347 25.916C141.795 26.1933 142.478 26.332 143.395 26.332C143.779 26.332 144.174 26.2947 144.579 26.22C144.985 26.1453 145.337 26.0493 145.635 25.932V27.212C145.294 27.3613 144.899 27.4733 144.451 27.548C144.014 27.6227 143.545 27.66 143.043 27.66ZM140.547 23.26H144.563V22.732C144.563 22.2093 144.419 21.804 144.131 21.516C143.843 21.2173 143.358 21.068 142.675 21.068C141.865 21.068 141.305 21.244 140.995 21.596C140.697 21.948 140.547 22.5027 140.547 23.26ZM147.797 27.5V19.916H149.397L149.493 20.796C149.856 20.5613 150.288 20.348 150.789 20.156C151.29 19.964 151.786 19.8307 152.277 19.756V21.084C151.978 21.1373 151.653 21.2173 151.301 21.324C150.96 21.42 150.634 21.532 150.325 21.66C150.016 21.7773 149.754 21.9 149.541 22.028V27.5H147.797Z" fill="#1E293B"/>
</g>
</g>
<path d="M178 10C178 7.79086 179.791 6 182 6H254C256.209 6 258 7.79086 258 10V34C258 36.2091 256.209 38 254 38H182C179.791 38 178 36.2091 178 34V10Z" fill="#F3F4F7"/>
<g clip-path="url(#clip2_2122_6247)">
<path d="M196.461 27.5V17.196H201.453C202.477 17.196 203.234 17.436 203.725 17.916C204.216 18.396 204.461 19.0733 204.461 19.948C204.461 20.5027 204.349 20.972 204.125 21.356C203.901 21.7293 203.602 22.012 203.229 22.204C203.73 22.3427 204.125 22.5933 204.413 22.956C204.712 23.308 204.861 23.8307 204.861 24.524C204.861 25.5267 204.589 26.2733 204.045 26.764C203.512 27.2547 202.722 27.5 201.677 27.5H196.461ZM198.205 21.596H201.213C201.8 21.596 202.216 21.4627 202.461 21.196C202.717 20.9187 202.845 20.5507 202.845 20.092C202.845 19.5587 202.717 19.164 202.461 18.908C202.205 18.6413 201.725 18.508 201.021 18.508H198.205V21.596ZM198.205 26.22H201.309C201.928 26.22 202.381 26.092 202.669 25.836C202.957 25.5693 203.101 25.1107 203.101 24.46C203.101 23.9267 202.957 23.532 202.669 23.276C202.392 23.0093 201.88 22.876 201.133 22.876H198.205V26.22ZM206.961 18.332V16.892H208.865V18.332H206.961ZM207.105 27.5V21.244H205.953L206.113 19.916H208.849V27.5H207.105ZM212.771 27.66C212.152 27.66 211.683 27.5107 211.363 27.212C211.043 26.9027 210.883 26.396 210.883 25.692V16.716H212.627V25.532C212.627 25.8307 212.68 26.0333 212.787 26.14C212.894 26.2467 213.054 26.3 213.267 26.3C213.523 26.3 213.768 26.268 214.003 26.204V27.468C213.8 27.5427 213.603 27.5907 213.411 27.612C213.23 27.644 213.016 27.66 212.771 27.66ZM216.849 27.66C216.23 27.66 215.761 27.5107 215.441 27.212C215.121 26.9027 214.961 26.396 214.961 25.692V16.716H216.705V25.532C216.705 25.8307 216.758 26.0333 216.865 26.14C216.972 26.2467 217.132 26.3 217.345 26.3C217.601 26.3 217.846 26.268 218.081 26.204V27.468C217.878 27.5427 217.681 27.5907 217.489 27.612C217.308 27.644 217.094 27.66 216.849 27.66ZM219.523 18.332V16.892H221.427V18.332H219.523ZM219.667 27.5V21.244H218.515L218.675 19.916H221.411V27.5H219.667ZM223.446 27.5V19.916H225.046L225.126 20.716C225.467 20.4493 225.872 20.2253 226.342 20.044C226.822 19.852 227.35 19.756 227.926 19.756C228.907 19.756 229.622 19.9853 230.07 20.444C230.518 20.9027 230.742 21.6173 230.742 22.588V27.5H229.014V22.668C229.014 22.0813 228.891 21.6707 228.646 21.436C228.411 21.2013 227.963 21.084 227.302 21.084C226.907 21.084 226.518 21.164 226.134 21.324C225.76 21.484 225.446 21.692 225.19 21.948V27.5H223.446ZM235.768 30.316C235.202 30.316 234.637 30.2787 234.072 30.204C233.506 30.14 233.026 30.0387 232.632 29.9V28.556C233.058 28.6947 233.549 28.8013 234.104 28.876C234.658 28.9507 235.186 28.988 235.688 28.988C236.456 28.988 237.016 28.9453 237.368 28.86C237.72 28.7747 237.896 28.5827 237.896 28.284C237.896 28.06 237.81 27.9 237.64 27.804C237.469 27.7187 237.144 27.676 236.664 27.676H234.616C233.24 27.676 232.552 27.1907 232.552 26.22C232.552 25.9107 232.642 25.6227 232.824 25.356C233.005 25.0893 233.293 24.8867 233.688 24.748C233.25 24.5347 232.925 24.2413 232.712 23.868C232.509 23.4947 232.408 23.0467 232.408 22.524C232.408 21.5533 232.696 20.8493 233.272 20.412C233.858 19.9747 234.733 19.756 235.896 19.756C236.141 19.756 236.397 19.7773 236.664 19.82C236.93 19.852 237.138 19.884 237.288 19.916H240.072L240.024 21.052H238.744C238.946 21.2227 239.096 21.436 239.192 21.692C239.288 21.948 239.336 22.2253 239.336 22.524C239.336 23.3347 239.09 23.9747 238.6 24.444C238.109 24.9027 237.368 25.132 236.376 25.132C236.205 25.132 236.045 25.1267 235.896 25.116C235.757 25.0947 235.602 25.0733 235.432 25.052C235.112 25.084 234.824 25.1693 234.568 25.308C234.312 25.4467 234.184 25.6333 234.184 25.868C234.184 26.028 234.248 26.1453 234.376 26.22C234.504 26.284 234.717 26.316 235.016 26.316H237.144C237.901 26.316 238.482 26.4813 238.888 26.812C239.304 27.132 239.512 27.6013 239.512 28.22C239.512 28.9667 239.186 29.5 238.536 29.82C237.896 30.1507 236.973 30.316 235.768 30.316ZM235.896 24.028C236.589 24.028 237.069 23.9107 237.336 23.676C237.613 23.4413 237.752 23.0413 237.752 22.476C237.752 21.9107 237.613 21.5 237.336 21.244C237.069 20.988 236.589 20.86 235.896 20.86C235.245 20.86 234.77 20.9827 234.472 21.228C234.173 21.4733 234.024 21.8893 234.024 22.476C234.024 23.02 234.162 23.4147 234.44 23.66C234.728 23.9053 235.213 24.028 235.896 24.028Z" fill="#A9ACB9"/>
</g>
<path d="M266 10C266 7.79086 267.791 6 270 6H323C325.209 6 327 7.79086 327 10V34C327 36.2091 325.209 38 323 38H270C267.791 38 266 36.2091 266 34V10Z" fill="#F3F4F7"/>
<g clip-path="url(#clip3_2122_6247)">
<path d="M284.43 27.5V17.196H286.174V26.156H291.454V27.5H284.43ZM296.062 27.66C294.697 27.66 293.694 27.3187 293.054 26.636C292.425 25.9533 292.11 24.9773 292.11 23.708C292.11 22.4387 292.43 21.4627 293.07 20.78C293.71 20.0973 294.707 19.756 296.062 19.756C297.427 19.756 298.43 20.0973 299.07 20.78C299.71 21.4627 300.03 22.4387 300.03 23.708C300.03 24.9773 299.71 25.9533 299.07 26.636C298.441 27.3187 297.438 27.66 296.062 27.66ZM296.062 26.188C296.862 26.188 297.427 25.996 297.758 25.612C298.099 25.2173 298.27 24.5827 298.27 23.708C298.27 22.8333 298.099 22.204 297.758 21.82C297.427 21.436 296.862 21.244 296.062 21.244C295.273 21.244 294.707 21.436 294.366 21.82C294.035 22.204 293.87 22.8333 293.87 23.708C293.87 24.5827 294.035 25.2173 294.366 25.612C294.707 25.996 295.273 26.188 296.062 26.188ZM304.799 30.316C304.233 30.316 303.668 30.2787 303.103 30.204C302.537 30.14 302.057 30.0387 301.663 29.9V28.556C302.089 28.6947 302.58 28.8013 303.135 28.876C303.689 28.9507 304.217 28.988 304.719 28.988C305.487 28.988 306.047 28.9453 306.399 28.86C306.751 28.7747 306.927 28.5827 306.927 28.284C306.927 28.06 306.841 27.9 306.671 27.804C306.5 27.7187 306.175 27.676 305.695 27.676H303.647C302.271 27.676 301.583 27.1907 301.583 26.22C301.583 25.9107 301.673 25.6227 301.855 25.356C302.036 25.0893 302.324 24.8867 302.719 24.748C302.281 24.5347 301.956 24.2413 301.743 23.868C301.54 23.4947 301.439 23.0467 301.439 22.524C301.439 21.5533 301.727 20.8493 302.303 20.412C302.889 19.9747 303.764 19.756 304.927 19.756C305.172 19.756 305.428 19.7773 305.695 19.82C305.961 19.852 306.169 19.884 306.319 19.916H309.103L309.055 21.052H307.775C307.977 21.2227 308.127 21.436 308.223 21.692C308.319 21.948 308.367 22.2253 308.367 22.524C308.367 23.3347 308.121 23.9747 307.631 24.444C307.14 24.9027 306.399 25.132 305.407 25.132C305.236 25.132 305.076 25.1267 304.927 25.116C304.788 25.0947 304.633 25.0733 304.463 25.052C304.143 25.084 303.855 25.1693 303.599 25.308C303.343 25.4467 303.215 25.6333 303.215 25.868C303.215 26.028 303.279 26.1453 303.407 26.22C303.535 26.284 303.748 26.316 304.047 26.316H306.175C306.932 26.316 307.513 26.4813 307.919 26.812C308.335 27.132 308.543 27.6013 308.543 28.22C308.543 28.9667 308.217 29.5 307.567 29.82C306.927 30.1507 306.004 30.316 304.799 30.316ZM304.927 24.028C305.62 24.028 306.1 23.9107 306.367 23.676C306.644 23.4413 306.783 23.0413 306.783 22.476C306.783 21.9107 306.644 21.5 306.367 21.244C306.1 20.988 305.62 20.86 304.927 20.86C304.276 20.86 303.801 20.9827 303.503 21.228C303.204 21.4733 303.055 21.8893 303.055 22.476C303.055 23.02 303.193 23.4147 303.471 23.66C303.759 23.9053 304.244 24.028 304.927 24.028Z" fill="#A9ACB9"/>
</g>
<path d="M0.912 105.5V95.196H5.744C6.55467 95.196 7.216 95.3507 7.728 95.66C8.25067 95.9693 8.64 96.3907 8.896 96.924C9.152 97.4573 9.28 98.0653 9.28 98.748C9.28 99.4413 9.13067 100.055 8.832 100.588C8.544 101.121 8.128 101.537 7.584 101.836C7.05067 102.124 6.416 102.268 5.68 102.268H3.072V105.5H0.912ZM3.072 100.556H5.232C5.85067 100.556 6.31467 100.396 6.624 100.076C6.944 99.7453 7.104 99.3027 7.104 98.748C7.104 98.1507 6.95467 97.6973 6.656 97.388C6.35733 97.068 5.90933 96.908 5.312 96.908H3.072V100.556ZM13.2745 105.66C12.3678 105.66 11.6585 105.409 11.1465 104.908C10.6452 104.396 10.3945 103.649 10.3945 102.668V97.916H12.5545V102.62C12.5545 103.132 12.6772 103.505 12.9225 103.74C13.1678 103.964 13.5358 104.076 14.0265 104.076C14.3998 104.076 14.7412 104.001 15.0505 103.852C15.3705 103.703 15.6425 103.516 15.8665 103.292V97.916H18.0265V105.5H16.0265L15.9465 104.78C15.6265 105.036 15.2478 105.249 14.8105 105.42C14.3838 105.58 13.8718 105.66 13.2745 105.66ZM19.8651 105.5V97.916H21.8651L21.9611 98.7C22.3025 98.4867 22.7238 98.2947 23.2251 98.124C23.7371 97.9427 24.2385 97.82 24.7291 97.756V99.388C24.4411 99.4307 24.1265 99.4947 23.7851 99.58C23.4438 99.6653 23.1185 99.7613 22.8091 99.868C22.4998 99.9747 22.2385 100.087 22.0251 100.204V105.5H19.8651ZM29.3934 105.66C28.0387 105.66 26.9987 105.324 26.2734 104.652C25.5587 103.98 25.2014 102.999 25.2014 101.708C25.2014 100.375 25.5854 99.3827 26.3534 98.732C27.132 98.0813 28.1667 97.756 29.4574 97.756C29.9907 97.756 30.4494 97.7933 30.8334 97.868C31.2174 97.9427 31.5907 98.0653 31.9534 98.236V99.788C31.6867 99.66 31.3774 99.5587 31.0254 99.484C30.6734 99.4093 30.2947 99.372 29.8894 99.372C29.0787 99.372 28.46 99.5427 28.0334 99.884C27.6067 100.215 27.3934 100.823 27.3934 101.708C27.3934 102.519 27.5854 103.111 27.9694 103.484C28.364 103.857 28.9987 104.044 29.8734 104.044C30.2467 104.044 30.6094 104.007 30.9614 103.932C31.324 103.857 31.66 103.745 31.9694 103.596V105.196C31.2547 105.505 30.396 105.66 29.3934 105.66ZM33.3339 105.5V94.716H35.4939V98.556C35.8032 98.3213 36.1819 98.1293 36.6299 97.98C37.0779 97.8307 37.5632 97.756 38.0859 97.756C39.0885 97.756 39.8192 97.9907 40.2779 98.46C40.7365 98.9293 40.9659 99.6547 40.9659 100.636V105.5H38.8059V100.748C38.8059 100.236 38.6992 99.8733 38.4859 99.66C38.2832 99.4467 37.8992 99.34 37.3339 99.34C37.0032 99.34 36.6672 99.4147 36.3259 99.564C35.9952 99.7133 35.7179 99.9 35.4939 100.124V105.5H33.3339ZM44.8741 105.66C44.3941 105.66 43.9461 105.575 43.5301 105.404C43.1248 105.223 42.7941 104.961 42.5381 104.62C42.2928 104.268 42.1701 103.831 42.1701 103.308C42.1701 102.561 42.4315 101.964 42.9541 101.516C43.4875 101.068 44.2715 100.844 45.3061 100.844H47.5461V100.636C47.5461 100.167 47.4128 99.836 47.1461 99.644C46.8901 99.452 46.3675 99.356 45.5781 99.356C44.7141 99.356 43.8821 99.4893 43.0821 99.756V98.236C43.4341 98.0973 43.8608 97.9853 44.3621 97.9C44.8741 97.804 45.4288 97.756 46.0261 97.756C47.1675 97.756 48.0475 97.9907 48.6661 98.46C49.2955 98.9187 49.6101 99.66 49.6101 100.684V105.5H47.7381L47.6261 104.812C47.3275 105.079 46.9595 105.287 46.5221 105.436C46.0848 105.585 45.5355 105.66 44.8741 105.66ZM45.4661 104.236C45.9461 104.236 46.3621 104.156 46.7141 103.996C47.0661 103.836 47.3435 103.633 47.5461 103.388V102.188H45.3541C44.5115 102.188 44.0901 102.535 44.0901 103.228C44.0901 103.9 44.5488 104.236 45.4661 104.236ZM54.0215 105.66C53.4562 105.66 52.9175 105.617 52.4055 105.532C51.8935 105.457 51.4828 105.361 51.1735 105.244V103.452C51.5468 103.601 51.9682 103.719 52.4375 103.804C52.9068 103.879 53.3388 103.916 53.7335 103.916C54.2668 103.916 54.6402 103.884 54.8535 103.82C55.0775 103.756 55.1895 103.612 55.1895 103.388C55.1895 103.132 55.0188 102.945 54.6775 102.828C54.3468 102.711 53.8508 102.545 53.1895 102.332C52.4962 102.097 51.9628 101.815 51.5895 101.484C51.2162 101.153 51.0295 100.663 51.0295 100.012C51.0295 99.2867 51.2908 98.732 51.8135 98.348C52.3468 97.9533 53.2002 97.756 54.3735 97.756C54.8428 97.756 55.2855 97.7933 55.7015 97.868C56.1175 97.932 56.4695 98.012 56.7575 98.108V99.884C56.4695 99.7453 56.1388 99.644 55.7655 99.58C55.3922 99.5053 55.0455 99.468 54.7255 99.468C54.2668 99.468 53.8988 99.5 53.6215 99.564C53.3548 99.628 53.2215 99.7667 53.2215 99.98C53.2215 100.215 53.3655 100.38 53.6535 100.476C53.9522 100.572 54.4108 100.716 55.0295 100.908C55.6375 101.089 56.1122 101.287 56.4535 101.5C56.7948 101.713 57.0348 101.969 57.1735 102.268C57.3122 102.556 57.3815 102.919 57.3815 103.356C57.3815 104.892 56.2615 105.66 54.0215 105.66ZM62.5984 105.66C61.2864 105.66 60.2464 105.335 59.4784 104.684C58.7104 104.023 58.3264 103.025 58.3264 101.692C58.3264 100.487 58.6464 99.532 59.2864 98.828C59.937 98.1133 60.9024 97.756 62.1824 97.756C63.3557 97.756 64.2517 98.0653 64.8704 98.684C65.4997 99.292 65.8144 100.092 65.8144 101.084V102.46H60.3264C60.4437 103.068 60.721 103.484 61.1584 103.708C61.6064 103.932 62.2357 104.044 63.0464 104.044C63.4517 104.044 63.8624 104.007 64.2784 103.932C64.705 103.857 65.0677 103.761 65.3664 103.644V105.18C65.0144 105.34 64.6037 105.457 64.1344 105.532C63.665 105.617 63.153 105.66 62.5984 105.66ZM60.3264 101.132H63.9264V100.716C63.9264 100.279 63.7984 99.9373 63.5424 99.692C63.2864 99.436 62.8544 99.308 62.2464 99.308C61.5317 99.308 61.0304 99.452 60.7424 99.74C60.465 100.028 60.3264 100.492 60.3264 101.132ZM75.5219 105.66C72.1832 105.66 70.5139 103.905 70.5139 100.396C70.5139 98.508 70.9352 97.1427 71.7779 96.3C72.6205 95.4573 73.8685 95.036 75.5219 95.036C77.1752 95.036 78.4232 95.4573 79.2659 96.3C80.1085 97.1427 80.5299 98.508 80.5299 100.396C80.5299 103.905 78.8605 105.66 75.5219 105.66ZM75.5219 103.82C76.4925 103.82 77.2019 103.543 77.6499 102.988C78.1085 102.423 78.3379 101.559 78.3379 100.396C78.3379 99.1053 78.1085 98.1987 77.6499 97.676C77.2019 97.1427 76.4925 96.876 75.5219 96.876C74.5512 96.876 73.8365 97.1427 73.3779 97.676C72.9299 98.1987 72.7059 99.1053 72.7059 100.396C72.7059 101.559 72.9299 102.423 73.3779 102.988C73.8365 103.543 74.5512 103.82 75.5219 103.82ZM82.037 105.5V97.916H84.037L84.133 98.7C84.4743 98.4867 84.8957 98.2947 85.397 98.124C85.909 97.9427 86.4103 97.82 86.901 97.756V99.388C86.613 99.4307 86.2983 99.4947 85.957 99.58C85.6157 99.6653 85.2903 99.7613 84.981 99.868C84.6717 99.9747 84.4103 100.087 84.197 100.204V105.5H82.037ZM90.8613 105.66C90.1893 105.66 89.5866 105.543 89.0533 105.308C88.5306 105.063 88.1199 104.668 87.8213 104.124C87.5226 103.569 87.3733 102.839 87.3733 101.932C87.3733 101.025 87.5386 100.263 87.8693 99.644C88.1999 99.0253 88.6426 98.556 89.1973 98.236C89.7519 97.916 90.3599 97.756 91.0213 97.756C91.8533 97.756 92.5626 97.948 93.1493 98.332V94.716H95.3093V105.5H93.4533L93.3253 104.796C92.9946 105.084 92.6319 105.303 92.2373 105.452C91.8533 105.591 91.3946 105.66 90.8613 105.66ZM91.4533 104.076C92.1253 104.076 92.6906 103.847 93.1493 103.388V99.932C92.7013 99.5373 92.1786 99.34 91.5813 99.34C90.2373 99.34 89.5653 100.204 89.5653 101.932C89.5653 102.743 89.7306 103.303 90.0613 103.612C90.3919 103.921 90.8559 104.076 91.4533 104.076ZM100.927 105.66C99.6145 105.66 98.5745 105.335 97.8065 104.684C97.0385 104.023 96.6545 103.025 96.6545 101.692C96.6545 100.487 96.9745 99.532 97.6145 98.828C98.2652 98.1133 99.2305 97.756 100.511 97.756C101.684 97.756 102.58 98.0653 103.199 98.684C103.828 99.292 104.142 100.092 104.142 101.084V102.46H98.6545C98.7718 103.068 99.0492 103.484 99.4865 103.708C99.9345 103.932 100.564 104.044 101.375 104.044C101.78 104.044 102.191 104.007 102.607 103.932C103.033 103.857 103.396 103.761 103.695 103.644V105.18C103.343 105.34 102.932 105.457 102.463 105.532C101.993 105.617 101.481 105.66 100.927 105.66ZM98.6545 101.132H102.255V100.716C102.255 100.279 102.127 99.9373 101.871 99.692C101.615 99.436 101.183 99.308 100.575 99.308C99.8598 99.308 99.3585 99.452 99.0705 99.74C98.7932 100.028 98.6545 100.492 98.6545 101.132ZM105.646 105.5V97.916H107.646L107.742 98.7C108.084 98.4867 108.505 98.2947 109.006 98.124C109.518 97.9427 110.02 97.82 110.51 97.756V99.388C110.222 99.4307 109.908 99.4947 109.566 99.58C109.225 99.6653 108.9 99.7613 108.59 99.868C108.281 99.9747 108.02 100.087 107.806 100.204V105.5H105.646Z" fill="#1E293B"/>
<path d="M172 88.5H255C256.933 88.5 258.5 90.067 258.5 92V108C258.5 109.933 256.933 111.5 255 111.5H172C170.067 111.5 168.5 109.933 168.5 108V92C168.5 90.067 170.067 88.5 172 88.5Z" fill="#F9FAFC"/>
<path d="M172 88.5H255C256.933 88.5 258.5 90.067 258.5 92V108C258.5 109.933 256.933 111.5 255 111.5H172C170.067 111.5 168.5 109.933 168.5 108V92C168.5 90.067 170.067 88.5 172 88.5Z" stroke="#A9ACB9"/>
<g clip-path="url(#clip4_2122_6247)">
<path d="M178.209 105.5V95.196H183.041C183.852 95.196 184.513 95.3507 185.025 95.66C185.548 95.9693 185.937 96.3907 186.193 96.924C186.449 97.4573 186.577 98.0653 186.577 98.748C186.577 99.4413 186.428 100.055 186.129 100.588C185.841 101.121 185.425 101.537 184.881 101.836C184.348 102.124 183.713 102.268 182.977 102.268H180.369V105.5H178.209ZM180.369 100.556H182.529C183.148 100.556 183.612 100.396 183.921 100.076C184.241 99.7453 184.401 99.3027 184.401 98.748C184.401 98.1507 184.252 97.6973 183.953 97.388C183.654 97.068 183.206 96.908 182.609 96.908H180.369V100.556ZM192.459 105.66C189.121 105.66 187.451 103.905 187.451 100.396C187.451 98.508 187.873 97.1427 188.715 96.3C189.558 95.4573 190.806 95.036 192.459 95.036C194.113 95.036 195.361 95.4573 196.203 96.3C197.046 97.1427 197.467 98.508 197.467 100.396C197.467 103.905 195.798 105.66 192.459 105.66ZM192.459 103.82C193.43 103.82 194.139 103.543 194.587 102.988C195.046 102.423 195.275 101.559 195.275 100.396C195.275 99.1053 195.046 98.1987 194.587 97.676C194.139 97.1427 193.43 96.876 192.459 96.876C191.489 96.876 190.774 97.1427 190.315 97.676C189.867 98.1987 189.643 99.1053 189.643 100.396C189.643 101.559 189.867 102.423 190.315 102.988C190.774 103.543 191.489 103.82 192.459 103.82ZM202.57 105.5L203.402 102.86H202.17V101.436H203.85L204.522 99.26H202.874V97.82H204.97L205.802 95.196H207.674L206.842 97.82H209.226L210.058 95.196H211.93L211.098 97.82H212.266V99.26H210.65L209.962 101.436H211.562V102.86H209.514L208.682 105.5H206.826L207.658 102.86H205.258L204.426 105.5H202.57ZM205.706 101.436H208.106L208.778 99.26H206.394L205.706 101.436ZM218.107 105.916C216.977 105.916 216.07 105.703 215.387 105.276C214.705 104.849 214.209 104.231 213.899 103.42C213.601 102.599 213.451 101.617 213.451 100.476C213.451 99.324 213.601 98.3427 213.899 97.532C214.209 96.7213 214.705 96.1027 215.387 95.676C216.07 95.2493 216.977 95.036 218.107 95.036C219.238 95.036 220.145 95.2493 220.827 95.676C221.51 96.1027 222.001 96.7213 222.299 97.532C222.609 98.3427 222.763 99.324 222.763 100.476C222.763 101.617 222.609 102.599 222.299 103.42C222.001 104.231 221.51 104.849 220.827 105.276C220.145 105.703 219.238 105.916 218.107 105.916ZM218.107 104.06C219.035 104.06 219.675 103.751 220.027 103.132C220.39 102.513 220.571 101.628 220.571 100.476C220.571 99.324 220.39 98.4387 220.027 97.82C219.675 97.2013 219.035 96.892 218.107 96.892C217.179 96.892 216.534 97.2013 216.171 97.82C215.819 98.4387 215.643 99.324 215.643 100.476C215.643 101.628 215.819 102.513 216.171 103.132C216.534 103.751 217.179 104.06 218.107 104.06ZM228.607 105.916C227.477 105.916 226.57 105.703 225.887 105.276C225.205 104.849 224.709 104.231 224.399 103.42C224.101 102.599 223.951 101.617 223.951 100.476C223.951 99.324 224.101 98.3427 224.399 97.532C224.709 96.7213 225.205 96.1027 225.887 95.676C226.57 95.2493 227.477 95.036 228.607 95.036C229.738 95.036 230.645 95.2493 231.327 95.676C232.01 96.1027 232.501 96.7213 232.799 97.532C233.109 98.3427 233.263 99.324 233.263 100.476C233.263 101.617 233.109 102.599 232.799 103.42C232.501 104.231 232.01 104.849 231.327 105.276C230.645 105.703 229.738 105.916 228.607 105.916ZM228.607 104.06C229.535 104.06 230.175 103.751 230.527 103.132C230.89 102.513 231.071 101.628 231.071 100.476C231.071 99.324 230.89 98.4387 230.527 97.82C230.175 97.2013 229.535 96.892 228.607 96.892C227.679 96.892 227.034 97.2013 226.671 97.82C226.319 98.4387 226.143 99.324 226.143 100.476C226.143 101.628 226.319 102.513 226.671 103.132C227.034 103.751 227.679 104.06 228.607 104.06ZM239.107 105.916C237.977 105.916 237.07 105.703 236.387 105.276C235.705 104.849 235.209 104.231 234.899 103.42C234.601 102.599 234.451 101.617 234.451 100.476C234.451 99.324 234.601 98.3427 234.899 97.532C235.209 96.7213 235.705 96.1027 236.387 95.676C237.07 95.2493 237.977 95.036 239.107 95.036C240.238 95.036 241.145 95.2493 241.827 95.676C242.51 96.1027 243.001 96.7213 243.299 97.532C243.609 98.3427 243.763 99.324 243.763 100.476C243.763 101.617 243.609 102.599 243.299 103.42C243.001 104.231 242.51 104.849 241.827 105.276C241.145 105.703 240.238 105.916 239.107 105.916ZM239.107 104.06C240.035 104.06 240.675 103.751 241.027 103.132C241.39 102.513 241.571 101.628 241.571 100.476C241.571 99.324 241.39 98.4387 241.027 97.82C240.675 97.2013 240.035 96.892 239.107 96.892C238.179 96.892 237.534 97.2013 237.171 97.82C236.819 98.4387 236.643 99.324 236.643 100.476C236.643 101.628 236.819 102.513 237.171 103.132C237.534 103.751 238.179 104.06 239.107 104.06ZM246.631 105.5V97.148L244.951 97.42V95.612L248.791 95.036V105.5H246.631Z" fill="#5A6370"/>
</g>
<path d="M4.528 127L0.592 116.696H2.848L5.696 124.584L8.56 116.696H10.816L6.896 127H4.528ZM14.8328 127.16C13.5208 127.16 12.4808 126.835 11.7128 126.184C10.9448 125.523 10.5608 124.525 10.5608 123.192C10.5608 121.987 10.8808 121.032 11.5208 120.328C12.1714 119.613 13.1368 119.256 14.4168 119.256C15.5901 119.256 16.4861 119.565 17.1048 120.184C17.7341 120.792 18.0487 121.592 18.0487 122.584V123.96H12.5608C12.6781 124.568 12.9554 124.984 13.3928 125.208C13.8408 125.432 14.4701 125.544 15.2808 125.544C15.6861 125.544 16.0968 125.507 16.5128 125.432C16.9394 125.357 17.3021 125.261 17.6008 125.144V126.68C17.2488 126.84 16.8381 126.957 16.3688 127.032C15.8994 127.117 15.3874 127.16 14.8328 127.16ZM12.5608 122.632H16.1608V122.216C16.1608 121.779 16.0328 121.437 15.7768 121.192C15.5208 120.936 15.0888 120.808 14.4808 120.808C13.7661 120.808 13.2648 120.952 12.9768 121.24C12.6994 121.528 12.5608 121.992 12.5608 122.632ZM19.5526 127V119.416H21.5526L21.6326 120.136C21.942 119.901 22.3313 119.699 22.8006 119.528C23.2806 119.347 23.782 119.256 24.3046 119.256C25.3073 119.256 26.038 119.491 26.4966 119.96C26.9553 120.429 27.1846 121.155 27.1846 122.136V127H25.0246V122.248C25.0246 121.736 24.918 121.373 24.7046 121.16C24.502 120.947 24.118 120.84 23.5526 120.84C23.222 120.84 22.886 120.915 22.5446 121.064C22.214 121.213 21.9366 121.4 21.7126 121.624V127H19.5526ZM31.8613 127.16C31.1893 127.16 30.5866 127.043 30.0533 126.808C29.5306 126.563 29.1199 126.168 28.8213 125.624C28.5226 125.069 28.3733 124.339 28.3733 123.432C28.3733 122.525 28.5386 121.763 28.8693 121.144C29.1999 120.525 29.6426 120.056 30.1973 119.736C30.7519 119.416 31.3599 119.256 32.0213 119.256C32.8533 119.256 33.5626 119.448 34.1493 119.832V116.216H36.3093V127H34.4533L34.3253 126.296C33.9946 126.584 33.6319 126.803 33.2373 126.952C32.8533 127.091 32.3946 127.16 31.8613 127.16ZM32.4533 125.576C33.1253 125.576 33.6906 125.347 34.1493 124.888V121.432C33.7013 121.037 33.1786 120.84 32.5813 120.84C31.2373 120.84 30.5653 121.704 30.5653 123.432C30.5653 124.243 30.7306 124.803 31.0613 125.112C31.3919 125.421 31.8559 125.576 32.4533 125.576ZM41.7665 127.16C40.3478 127.16 39.3078 126.819 38.6465 126.136C37.9852 125.443 37.6545 124.467 37.6545 123.208C37.6545 121.949 37.9852 120.979 38.6465 120.296C39.3185 119.603 40.3585 119.256 41.7665 119.256C43.1852 119.256 44.2252 119.603 44.8865 120.296C45.5585 120.979 45.8945 121.949 45.8945 123.208C45.8945 124.467 45.5638 125.443 44.9025 126.136C44.2412 126.819 43.1958 127.16 41.7665 127.16ZM41.7665 125.32C42.4598 125.32 42.9558 125.165 43.2545 124.856C43.5532 124.536 43.7025 123.987 43.7025 123.208C43.7025 122.429 43.5532 121.885 43.2545 121.576C42.9558 121.256 42.4598 121.096 41.7665 121.096C41.0838 121.096 40.5932 121.256 40.2945 121.576C39.9958 121.885 39.8465 122.429 39.8465 123.208C39.8465 123.987 39.9958 124.536 40.2945 124.856C40.5932 125.165 41.0838 125.32 41.7665 125.32ZM47.3964 127V119.416H49.3964L49.4924 120.2C49.8337 119.987 50.255 119.795 50.7564 119.624C51.2684 119.443 51.7697 119.32 52.2604 119.256V120.888C51.9724 120.931 51.6577 120.995 51.3164 121.08C50.975 121.165 50.6497 121.261 50.3404 121.368C50.031 121.475 49.7697 121.587 49.5564 121.704V127H47.3964ZM61.5688 127.16C58.2301 127.16 56.5608 125.405 56.5608 121.896C56.5608 120.008 56.9821 118.643 57.8248 117.8C58.6674 116.957 59.9154 116.536 61.5688 116.536C63.2221 116.536 64.4701 116.957 65.3128 117.8C66.1554 118.643 66.5768 120.008 66.5768 121.896C66.5768 125.405 64.9074 127.16 61.5688 127.16ZM61.5688 125.32C62.5394 125.32 63.2488 125.043 63.6968 124.488C64.1554 123.923 64.3848 123.059 64.3848 121.896C64.3848 120.605 64.1554 119.699 63.6968 119.176C63.2488 118.643 62.5394 118.376 61.5688 118.376C60.5981 118.376 59.8834 118.643 59.4248 119.176C58.9768 119.699 58.7528 120.605 58.7528 121.896C58.7528 123.059 58.9768 123.923 59.4248 124.488C59.8834 125.043 60.5981 125.32 61.5688 125.32ZM68.0839 127V119.416H70.0839L70.1799 120.2C70.5212 119.987 70.9425 119.795 71.4439 119.624C71.9559 119.443 72.4572 119.32 72.9479 119.256V120.888C72.6599 120.931 72.3452 120.995 72.0039 121.08C71.6625 121.165 71.3372 121.261 71.0279 121.368C70.7185 121.475 70.4572 121.587 70.2439 121.704V127H68.0839ZM76.9081 127.16C76.2361 127.16 75.6335 127.043 75.1001 126.808C74.5775 126.563 74.1668 126.168 73.8681 125.624C73.5695 125.069 73.4201 124.339 73.4201 123.432C73.4201 122.525 73.5855 121.763 73.9161 121.144C74.2468 120.525 74.6895 120.056 75.2441 119.736C75.7988 119.416 76.4068 119.256 77.0681 119.256C77.9001 119.256 78.6095 119.448 79.1961 119.832V116.216H81.3561V127H79.5001L79.3721 126.296C79.0415 126.584 78.6788 126.803 78.2841 126.952C77.9001 127.091 77.4415 127.16 76.9081 127.16ZM77.5001 125.576C78.1721 125.576 78.7375 125.347 79.1961 124.888V121.432C78.7481 121.037 78.2255 120.84 77.6281 120.84C76.2841 120.84 75.6121 121.704 75.6121 123.432C75.6121 124.243 75.7775 124.803 76.1081 125.112C76.4388 125.421 76.9028 125.576 77.5001 125.576ZM86.9734 127.16C85.6614 127.16 84.6214 126.835 83.8534 126.184C83.0854 125.523 82.7014 124.525 82.7014 123.192C82.7014 121.987 83.0214 121.032 83.6614 120.328C84.312 119.613 85.2774 119.256 86.5574 119.256C87.7307 119.256 88.6267 119.565 89.2454 120.184C89.8747 120.792 90.1894 121.592 90.1894 122.584V123.96H84.7014C84.8187 124.568 85.096 124.984 85.5334 125.208C85.9814 125.432 86.6107 125.544 87.4214 125.544C87.8267 125.544 88.2374 125.507 88.6534 125.432C89.08 125.357 89.4427 125.261 89.7414 125.144V126.68C89.3894 126.84 88.9787 126.957 88.5094 127.032C88.04 127.117 87.528 127.16 86.9734 127.16ZM84.7014 122.632H88.3014V122.216C88.3014 121.779 88.1734 121.437 87.9174 121.192C87.6614 120.936 87.2294 120.808 86.6214 120.808C85.9067 120.808 85.4054 120.952 85.1174 121.24C84.84 121.528 84.7014 121.992 84.7014 122.632ZM91.6933 127V119.416H93.6933L93.7893 120.2C94.1306 119.987 94.5519 119.795 95.0533 119.624C95.5653 119.443 96.0666 119.32 96.5573 119.256V120.888C96.2693 120.931 95.9546 120.995 95.6133 121.08C95.2719 121.165 94.9466 121.261 94.6373 121.368C94.3279 121.475 94.0666 121.587 93.8533 121.704V127H91.6933ZM101.258 127L102.09 124.36H100.858V122.936H102.538L103.21 120.76H101.562V119.32H103.658L104.49 116.696H106.362L105.53 119.32H107.914L108.746 116.696H110.618L109.786 119.32H110.954V120.76H109.338L108.65 122.936H110.25V124.36H108.202L107.37 127H105.514L106.346 124.36H103.946L103.114 127H101.258ZM104.394 122.936H106.794L107.466 120.76H105.082L104.394 122.936Z" fill="#1E293B"/>
<path d="M170.432 127V117.816L168.8 118.104V117L171.744 116.536V127H170.432ZM175.291 127V117.816L173.659 118.104V117L176.603 116.536V127H175.291ZM181.863 127.16C181.372 127.16 180.929 127.128 180.535 127.064C180.151 127.011 179.804 126.931 179.495 126.824V125.688C179.804 125.795 180.145 125.88 180.519 125.944C180.903 126.008 181.329 126.04 181.799 126.04C182.844 126.04 183.601 125.773 184.071 125.24C184.54 124.707 184.775 124.003 184.775 123.128V122.344C184.359 122.643 183.895 122.867 183.383 123.016C182.881 123.165 182.423 123.24 182.007 123.24C180.833 123.24 179.959 122.952 179.383 122.376C178.807 121.8 178.519 120.979 178.519 119.912C178.519 118.899 178.828 118.083 179.447 117.464C180.065 116.845 181.004 116.536 182.263 116.536C183.5 116.536 184.433 116.851 185.063 117.48C185.703 118.099 186.023 119.091 186.023 120.456V122.888C186.023 123.741 185.852 124.488 185.511 125.128C185.18 125.768 184.7 126.269 184.071 126.632C183.452 126.984 182.716 127.16 181.863 127.16ZM182.119 122.216C182.641 122.216 183.127 122.136 183.575 121.976C184.023 121.805 184.423 121.592 184.775 121.336V120.088C184.775 118.413 183.937 117.576 182.263 117.576C181.409 117.576 180.769 117.784 180.343 118.2C179.916 118.605 179.703 119.165 179.703 119.88C179.703 120.36 179.772 120.776 179.911 121.128C180.049 121.48 180.295 121.752 180.647 121.944C180.999 122.125 181.489 122.216 182.119 122.216ZM187.628 127V126.296C187.905 125.624 188.3 125.011 188.812 124.456C189.324 123.901 189.873 123.379 190.46 122.888C191.047 122.397 191.5 121.987 191.82 121.656C192.151 121.315 192.38 120.989 192.508 120.68C192.636 120.36 192.7 119.987 192.7 119.56C192.7 118.941 192.54 118.472 192.22 118.152C191.9 117.821 191.303 117.656 190.428 117.656C190.033 117.656 189.628 117.699 189.212 117.784C188.796 117.859 188.401 117.971 188.028 118.12V116.952C188.369 116.835 188.78 116.739 189.26 116.664C189.74 116.579 190.199 116.536 190.636 116.536C191.745 116.536 192.583 116.808 193.148 117.352C193.724 117.885 194.012 118.621 194.012 119.56C194.012 120.072 193.921 120.525 193.74 120.92C193.559 121.304 193.308 121.672 192.988 122.024C192.668 122.365 192.295 122.728 191.868 123.112C191.345 123.571 190.844 124.024 190.364 124.472C189.895 124.909 189.521 125.411 189.244 125.976H194.124V127H187.628ZM195.722 123.224V122.184H201.754V123.224H195.722ZM208.323 127V124.632H203.027V123.64L208.467 116.696H209.635V123.56H210.723V124.632H209.635V127H208.323ZM204.339 123.592H208.499V118.264L204.339 123.592ZM214.771 127.16C214.302 127.16 213.8 127.117 213.267 127.032C212.734 126.947 212.312 126.845 212.003 126.728V125.576C212.408 125.736 212.83 125.853 213.267 125.928C213.704 126.003 214.152 126.04 214.611 126.04C215.528 126.04 216.206 125.901 216.643 125.624C217.091 125.347 217.315 124.861 217.315 124.168C217.315 123.507 217.107 123.027 216.691 122.728C216.275 122.429 215.694 122.28 214.947 122.28H213.459L213.587 121.288H214.819C215.587 121.288 216.158 121.123 216.531 120.792C216.904 120.451 217.091 119.976 217.091 119.368C217.091 118.781 216.894 118.349 216.499 118.072C216.115 117.795 215.496 117.656 214.643 117.656C214.216 117.656 213.784 117.699 213.347 117.784C212.92 117.869 212.536 117.981 212.195 118.12V116.984C212.494 116.867 212.883 116.765 213.363 116.68C213.854 116.584 214.339 116.536 214.819 116.536C216.046 116.536 216.947 116.803 217.523 117.336C218.11 117.859 218.403 118.531 218.403 119.352C218.403 119.875 218.264 120.365 217.987 120.824C217.72 121.272 217.288 121.587 216.691 121.768C217.374 121.917 217.864 122.216 218.163 122.664C218.472 123.101 218.627 123.603 218.627 124.168C218.627 125.171 218.28 125.923 217.587 126.424C216.894 126.915 215.955 127.16 214.771 127.16ZM224.094 127.16C222.835 127.16 221.875 126.92 221.214 126.44C220.553 125.949 220.222 125.229 220.222 124.28C220.222 123.661 220.387 123.117 220.718 122.648C221.059 122.179 221.555 121.853 222.206 121.672C221.609 121.48 221.177 121.181 220.91 120.776C220.643 120.36 220.51 119.907 220.51 119.416C220.51 118.541 220.809 117.843 221.406 117.32C222.003 116.797 222.899 116.536 224.094 116.536C225.331 116.536 226.238 116.797 226.814 117.32C227.39 117.843 227.678 118.541 227.678 119.416C227.678 119.928 227.545 120.403 227.278 120.84C227.022 121.277 226.563 121.608 225.902 121.832C226.627 122.013 227.15 122.307 227.47 122.712C227.801 123.117 227.966 123.64 227.966 124.28C227.966 125.229 227.635 125.949 226.974 126.44C226.323 126.92 225.363 127.16 224.094 127.16ZM224.542 121.416C225.203 121.256 225.694 121.032 226.014 120.744C226.334 120.445 226.494 120.008 226.494 119.432C226.494 118.824 226.286 118.365 225.87 118.056C225.465 117.736 224.873 117.576 224.094 117.576C223.326 117.576 222.734 117.731 222.318 118.04C221.902 118.339 221.694 118.797 221.694 119.416C221.694 119.875 221.838 120.259 222.126 120.568C222.414 120.867 222.814 121.069 223.326 121.176L224.542 121.416ZM224.094 126.12C225.886 126.12 226.782 125.501 226.782 124.264C226.782 123.699 226.611 123.288 226.27 123.032C225.939 122.765 225.459 122.568 224.83 122.44L223.438 122.152C222.819 122.28 222.323 122.504 221.95 122.824C221.587 123.133 221.406 123.608 221.406 124.248C221.406 124.888 221.635 125.363 222.094 125.672C222.553 125.971 223.219 126.12 224.094 126.12ZM229.566 127V126.296C229.843 125.624 230.238 125.011 230.75 124.456C231.262 123.901 231.811 123.379 232.398 122.888C232.984 122.397 233.438 121.987 233.758 121.656C234.088 121.315 234.318 120.989 234.446 120.68C234.574 120.36 234.638 119.987 234.638 119.56C234.638 118.941 234.478 118.472 234.158 118.152C233.838 117.821 233.24 117.656 232.366 117.656C231.971 117.656 231.566 117.699 231.15 117.784C230.734 117.859 230.339 117.971 229.966 118.12V116.952C230.307 116.835 230.718 116.739 231.198 116.664C231.678 116.579 232.136 116.536 232.574 116.536C233.683 116.536 234.52 116.808 235.086 117.352C235.662 117.885 235.95 118.621 235.95 119.56C235.95 120.072 235.859 120.525 235.678 120.92C235.496 121.304 235.246 121.672 234.926 122.024C234.606 122.365 234.232 122.728 233.806 123.112C233.283 123.571 232.782 124.024 232.302 124.472C231.832 124.909 231.459 125.411 231.182 125.976H236.062V127H229.566ZM242.635 127V124.632H237.339V123.64L242.779 116.696H243.947V123.56H245.035V124.632H243.947V127H242.635ZM238.651 123.592H242.811V118.264L238.651 123.592ZM249.084 127.16C248.614 127.16 248.113 127.117 247.58 127.032C247.046 126.947 246.625 126.845 246.316 126.728V125.576C246.721 125.736 247.142 125.853 247.58 125.928C248.017 126.003 248.465 126.04 248.924 126.04C249.841 126.04 250.518 125.901 250.956 125.624C251.404 125.347 251.628 124.861 251.628 124.168C251.628 123.507 251.42 123.027 251.004 122.728C250.588 122.429 250.006 122.28 249.26 122.28H247.772L247.9 121.288H249.132C249.9 121.288 250.47 121.123 250.844 120.792C251.217 120.451 251.404 119.976 251.404 119.368C251.404 118.781 251.206 118.349 250.812 118.072C250.428 117.795 249.809 117.656 248.956 117.656C248.529 117.656 248.097 117.699 247.66 117.784C247.233 117.869 246.849 117.981 246.508 118.12V116.984C246.806 116.867 247.196 116.765 247.676 116.68C248.166 116.584 248.652 116.536 249.132 116.536C250.358 116.536 251.26 116.803 251.836 117.336C252.422 117.859 252.716 118.531 252.716 119.352C252.716 119.875 252.577 120.365 252.3 120.824C252.033 121.272 251.601 121.587 251.004 121.768C251.686 121.917 252.177 122.216 252.476 122.664C252.785 123.101 252.94 123.603 252.94 124.168C252.94 125.171 252.593 125.923 251.9 126.424C251.206 126.915 250.268 127.16 249.084 127.16ZM257.302 127.16C256.833 127.16 256.332 127.117 255.798 127.032C255.265 126.947 254.844 126.845 254.534 126.728V125.576C254.94 125.736 255.361 125.853 255.798 125.928C256.236 126.003 256.684 126.04 257.142 126.04C258.06 126.04 258.737 125.901 259.174 125.624C259.622 125.347 259.846 124.861 259.846 124.168C259.846 123.507 259.638 123.027 259.222 122.728C258.806 122.429 258.225 122.28 257.478 122.28H255.99L256.118 121.288H257.35C258.118 121.288 258.689 121.123 259.062 120.792C259.436 120.451 259.622 119.976 259.622 119.368C259.622 118.781 259.425 118.349 259.03 118.072C258.646 117.795 258.028 117.656 257.174 117.656C256.748 117.656 256.316 117.699 255.878 117.784C255.452 117.869 255.068 117.981 254.726 118.12V116.984C255.025 116.867 255.414 116.765 255.894 116.68C256.385 116.584 256.87 116.536 257.35 116.536C258.577 116.536 259.478 116.803 260.054 117.336C260.641 117.859 260.934 118.531 260.934 119.352C260.934 119.875 260.796 120.365 260.518 120.824C260.252 121.272 259.82 121.587 259.222 121.768C259.905 121.917 260.396 122.216 260.694 122.664C261.004 123.101 261.158 123.603 261.158 124.168C261.158 125.171 260.812 125.923 260.118 126.424C259.425 126.915 258.486 127.16 257.302 127.16ZM265.521 127.16C265.052 127.16 264.55 127.117 264.017 127.032C263.484 126.947 263.062 126.845 262.753 126.728V125.576C263.158 125.736 263.58 125.853 264.017 125.928C264.454 126.003 264.902 126.04 265.361 126.04C266.278 126.04 266.956 125.901 267.393 125.624C267.841 125.347 268.065 124.861 268.065 124.168C268.065 123.507 267.857 123.027 267.441 122.728C267.025 122.429 266.444 122.28 265.697 122.28H264.209L264.337 121.288H265.569C266.337 121.288 266.908 121.123 267.281 120.792C267.654 120.451 267.841 119.976 267.841 119.368C267.841 118.781 267.644 118.349 267.249 118.072C266.865 117.795 266.246 117.656 265.393 117.656C264.966 117.656 264.534 117.699 264.097 117.784C263.67 117.869 263.286 117.981 262.945 118.12V116.984C263.244 116.867 263.633 116.765 264.113 116.68C264.604 116.584 265.089 116.536 265.569 116.536C266.796 116.536 267.697 116.803 268.273 117.336C268.86 117.859 269.153 118.531 269.153 119.352C269.153 119.875 269.014 120.365 268.737 120.824C268.47 121.272 268.038 121.587 267.441 121.768C268.124 121.917 268.614 122.216 268.913 122.664C269.222 123.101 269.377 123.603 269.377 124.168C269.377 125.171 269.03 125.923 268.337 126.424C267.644 126.915 266.705 127.16 265.521 127.16Z" fill="#1E293B"/>
<path d="M5.6 146.16C2.26133 146.16 0.592 144.405 0.592 140.896C0.592 139.008 1.01333 137.643 1.856 136.8C2.69867 135.957 3.94667 135.536 5.6 135.536C7.25333 135.536 8.50133 135.957 9.344 136.8C10.1867 137.643 10.608 139.008 10.608 140.896C10.608 144.405 8.93867 146.16 5.6 146.16ZM5.6 144.32C6.57067 144.32 7.28 144.043 7.728 143.488C8.18667 142.923 8.416 142.059 8.416 140.896C8.416 139.605 8.18667 138.699 7.728 138.176C7.28 137.643 6.57067 137.376 5.6 137.376C4.62933 137.376 3.91467 137.643 3.456 138.176C3.008 138.699 2.784 139.605 2.784 140.896C2.784 142.059 3.008 142.923 3.456 143.488C3.91467 144.043 4.62933 144.32 5.6 144.32ZM12.1151 146V138.416H14.1151L14.2111 139.2C14.5525 138.987 14.9738 138.795 15.4751 138.624C15.9871 138.443 16.4885 138.32 16.9791 138.256V139.888C16.6911 139.931 16.3765 139.995 16.0351 140.08C15.6938 140.165 15.3685 140.261 15.0591 140.368C14.7498 140.475 14.4885 140.587 14.2751 140.704V146H12.1151ZM20.9394 146.16C20.2674 146.16 19.6647 146.043 19.1314 145.808C18.6087 145.563 18.198 145.168 17.8994 144.624C17.6007 144.069 17.4514 143.339 17.4514 142.432C17.4514 141.525 17.6167 140.763 17.9474 140.144C18.278 139.525 18.7207 139.056 19.2754 138.736C19.83 138.416 20.438 138.256 21.0994 138.256C21.9314 138.256 22.6407 138.448 23.2274 138.832V135.216H25.3874V146H23.5314L23.4034 145.296C23.0727 145.584 22.71 145.803 22.3154 145.952C21.9314 146.091 21.4727 146.16 20.9394 146.16ZM21.5314 144.576C22.2034 144.576 22.7687 144.347 23.2274 143.888V140.432C22.7794 140.037 22.2567 139.84 21.6594 139.84C20.3154 139.84 19.6434 140.704 19.6434 142.432C19.6434 143.243 19.8087 143.803 20.1394 144.112C20.47 144.421 20.934 144.576 21.5314 144.576ZM31.0046 146.16C29.6926 146.16 28.6526 145.835 27.8846 145.184C27.1166 144.523 26.7326 143.525 26.7326 142.192C26.7326 140.987 27.0526 140.032 27.6926 139.328C28.3433 138.613 29.3086 138.256 30.5886 138.256C31.762 138.256 32.658 138.565 33.2766 139.184C33.906 139.792 34.2206 140.592 34.2206 141.584V142.96H28.7326C28.85 143.568 29.1273 143.984 29.5646 144.208C30.0126 144.432 30.642 144.544 31.4526 144.544C31.858 144.544 32.2686 144.507 32.6846 144.432C33.1113 144.357 33.474 144.261 33.7726 144.144V145.68C33.4206 145.84 33.01 145.957 32.5406 146.032C32.0713 146.117 31.5593 146.16 31.0046 146.16ZM28.7326 141.632H32.3326V141.216C32.3326 140.779 32.2046 140.437 31.9486 140.192C31.6926 139.936 31.2606 139.808 30.6526 139.808C29.938 139.808 29.4366 139.952 29.1486 140.24C28.8713 140.528 28.7326 140.992 28.7326 141.632ZM35.7245 146V138.416H37.7245L37.8205 139.2C38.1618 138.987 38.5832 138.795 39.0845 138.624C39.5965 138.443 40.0978 138.32 40.5885 138.256V139.888C40.3005 139.931 39.9858 139.995 39.6445 140.08C39.3032 140.165 38.9778 140.261 38.6685 140.368C38.3592 140.475 38.0978 140.587 37.8845 140.704V146H35.7245ZM47.7369 146V137.36H44.5689V135.696H53.0489V137.36H49.8969V146H47.7369ZM56.5165 146.16C55.0978 146.16 54.0578 145.819 53.3965 145.136C52.7352 144.443 52.4045 143.467 52.4045 142.208C52.4045 140.949 52.7352 139.979 53.3965 139.296C54.0685 138.603 55.1085 138.256 56.5165 138.256C57.9352 138.256 58.9752 138.603 59.6365 139.296C60.3085 139.979 60.6445 140.949 60.6445 142.208C60.6445 143.467 60.3138 144.443 59.6525 145.136C58.9912 145.819 57.9458 146.16 56.5165 146.16ZM56.5165 144.32C57.2098 144.32 57.7058 144.165 58.0045 143.856C58.3032 143.536 58.4525 142.987 58.4525 142.208C58.4525 141.429 58.3032 140.885 58.0045 140.576C57.7058 140.256 57.2098 140.096 56.5165 140.096C55.8338 140.096 55.3432 140.256 55.0445 140.576C54.7458 140.885 54.5965 141.429 54.5965 142.208C54.5965 142.987 54.7458 143.536 55.0445 143.856C55.3432 144.165 55.8338 144.32 56.5165 144.32ZM65.1544 146.16C64.2797 146.16 63.629 145.931 63.2024 145.472C62.7864 145.013 62.5784 144.389 62.5784 143.6V140.08H61.5064V138.416H62.5784V136.784L64.7384 136.144V138.416H66.6584L66.5304 140.08H64.7384V143.456C64.7384 143.872 64.8344 144.16 65.0264 144.32C65.2184 144.469 65.517 144.544 65.9224 144.544C66.221 144.544 66.5304 144.491 66.8504 144.384V145.872C66.6157 145.968 66.3597 146.037 66.0824 146.08C65.805 146.133 65.4957 146.16 65.1544 146.16ZM70.3429 146.16C69.8629 146.16 69.4149 146.075 68.9989 145.904C68.5935 145.723 68.2629 145.461 68.0069 145.12C67.7615 144.768 67.6389 144.331 67.6389 143.808C67.6389 143.061 67.9002 142.464 68.4229 142.016C68.9562 141.568 69.7402 141.344 70.7749 141.344H73.0149V141.136C73.0149 140.667 72.8815 140.336 72.6149 140.144C72.3589 139.952 71.8362 139.856 71.0469 139.856C70.1829 139.856 69.3509 139.989 68.5509 140.256V138.736C68.9029 138.597 69.3295 138.485 69.8309 138.4C70.3429 138.304 70.8975 138.256 71.4949 138.256C72.6362 138.256 73.5162 138.491 74.1349 138.96C74.7642 139.419 75.0789 140.16 75.0789 141.184V146H73.2069L73.0949 145.312C72.7962 145.579 72.4282 145.787 71.9909 145.936C71.5535 146.085 71.0042 146.16 70.3429 146.16ZM70.9349 144.736C71.4149 144.736 71.8309 144.656 72.1829 144.496C72.5349 144.336 72.8122 144.133 73.0149 143.888V142.688H70.8229C69.9802 142.688 69.5589 143.035 69.5589 143.728C69.5589 144.4 70.0175 144.736 70.9349 144.736ZM78.9303 146.16C78.1943 146.16 77.6556 145.989 77.3143 145.648C76.9836 145.307 76.8183 144.763 76.8183 144.016V135.216H78.9783V143.84C78.9783 144.107 79.0316 144.293 79.1383 144.4C79.2449 144.496 79.3996 144.544 79.6023 144.544C79.8796 144.544 80.1303 144.507 80.3543 144.432V145.92C79.9489 146.08 79.4743 146.16 78.9303 146.16Z" fill="#1E293B"/>
<path d="M171.952 147.376V146.16C170.747 146.139 169.776 145.979 169.04 145.68V144.512C169.477 144.683 169.941 144.816 170.432 144.912C170.923 144.997 171.429 145.04 171.952 145.04V141.248C171.909 141.248 171.883 141.243 171.872 141.232C170.741 140.955 169.947 140.597 169.488 140.16C169.029 139.712 168.8 139.115 168.8 138.368C168.8 137.579 169.056 136.939 169.568 136.448C170.091 135.947 170.885 135.653 171.952 135.568V134.32H172.976V135.552C173.499 135.563 173.979 135.611 174.416 135.696C174.864 135.771 175.216 135.851 175.472 135.936V137.088C175.109 136.96 174.715 136.859 174.288 136.784C173.861 136.709 173.424 136.667 172.976 136.656V140.304C173.776 140.507 174.4 140.752 174.848 141.04C175.307 141.317 175.627 141.648 175.808 142.032C176 142.405 176.096 142.832 176.096 143.312C176.096 144.123 175.835 144.768 175.312 145.248C174.789 145.728 174.011 146.016 172.976 146.112V147.376H171.952ZM171.952 140.048V136.704C171.355 136.779 170.896 136.949 170.576 137.216C170.267 137.483 170.112 137.867 170.112 138.368C170.112 138.816 170.245 139.157 170.512 139.392C170.779 139.627 171.259 139.845 171.952 140.048ZM172.976 144.992C173.573 144.917 174.021 144.752 174.32 144.496C174.629 144.24 174.784 143.845 174.784 143.312C174.784 142.832 174.645 142.464 174.368 142.208C174.101 141.952 173.637 141.723 172.976 141.52V144.992ZM177.691 146V145.296C177.968 144.624 178.363 144.011 178.875 143.456C179.387 142.901 179.936 142.379 180.523 141.888C181.109 141.397 181.563 140.987 181.883 140.656C182.213 140.315 182.443 139.989 182.571 139.68C182.699 139.36 182.763 138.987 182.763 138.56C182.763 137.941 182.603 137.472 182.283 137.152C181.963 136.821 181.365 136.656 180.491 136.656C180.096 136.656 179.691 136.699 179.275 136.784C178.859 136.859 178.464 136.971 178.091 137.12V135.952C178.432 135.835 178.843 135.739 179.323 135.664C179.803 135.579 180.261 135.536 180.699 135.536C181.808 135.536 182.645 135.808 183.211 136.352C183.787 136.885 184.075 137.621 184.075 138.56C184.075 139.072 183.984 139.525 183.803 139.92C183.621 140.304 183.371 140.672 183.051 141.024C182.731 141.365 182.357 141.728 181.931 142.112C181.408 142.571 180.907 143.024 180.427 143.472C179.957 143.909 179.584 144.411 179.307 144.976H184.187V146H177.691ZM190.76 146V143.632H185.464V142.64L190.904 135.696H192.072V142.56H193.16V143.632H192.072V146H190.76ZM186.776 142.592H190.936V137.264L186.776 142.592ZM194.441 146V144.896H195.625V146H194.441ZM202.198 146V143.632H196.902V142.64L202.342 135.696H203.51V142.56H204.598V143.632H203.51V146H202.198ZM198.214 142.592H202.374V137.264L198.214 142.592ZM209.75 146.16C208.491 146.16 207.531 145.92 206.87 145.44C206.209 144.949 205.878 144.229 205.878 143.28C205.878 142.661 206.043 142.117 206.374 141.648C206.715 141.179 207.211 140.853 207.862 140.672C207.265 140.48 206.833 140.181 206.566 139.776C206.299 139.36 206.166 138.907 206.166 138.416C206.166 137.541 206.465 136.843 207.062 136.32C207.659 135.797 208.555 135.536 209.75 135.536C210.987 135.536 211.894 135.797 212.47 136.32C213.046 136.843 213.334 137.541 213.334 138.416C213.334 138.928 213.201 139.403 212.934 139.84C212.678 140.277 212.219 140.608 211.558 140.832C212.283 141.013 212.806 141.307 213.126 141.712C213.457 142.117 213.622 142.64 213.622 143.28C213.622 144.229 213.291 144.949 212.63 145.44C211.979 145.92 211.019 146.16 209.75 146.16ZM210.198 140.416C210.859 140.256 211.35 140.032 211.67 139.744C211.99 139.445 212.15 139.008 212.15 138.432C212.15 137.824 211.942 137.365 211.526 137.056C211.121 136.736 210.529 136.576 209.75 136.576C208.982 136.576 208.39 136.731 207.974 137.04C207.558 137.339 207.35 137.797 207.35 138.416C207.35 138.875 207.494 139.259 207.782 139.568C208.07 139.867 208.47 140.069 208.982 140.176L210.198 140.416ZM209.75 145.12C211.542 145.12 212.438 144.501 212.438 143.264C212.438 142.699 212.267 142.288 211.926 142.032C211.595 141.765 211.115 141.568 210.486 141.44L209.094 141.152C208.475 141.28 207.979 141.504 207.606 141.824C207.243 142.133 207.062 142.608 207.062 143.248C207.062 143.888 207.291 144.363 207.75 144.672C208.209 144.971 208.875 145.12 209.75 145.12Z" fill="#1E293B"/>
<defs>
<filter id="filter0_d_2122_6247" x="89" y="0" width="87" height="44" filterUnits="userSpaceOnUse" color-interpolation-filters="sRGB">
<feFlood flood-opacity="0" result="BackgroundImageFix"/>
<feColorMatrix in="SourceAlpha" type="matrix" values="0 0 0 0 0 0 0 0 0 0 0 0 0 0 0 0 0 0 127 0" result="hardAlpha"/>
<feOffset/>
<feGaussianBlur stdDeviation="3"/>
<feComposite in2="hardAlpha" operator="out"/>
<feColorMatrix type="matrix" values="0 0 0 0 0 0 0 0 0 0 0 0 0 0 0 0 0 0 0.1 0"/>
<feBlend mode="normal" in2="BackgroundImageFix" result="effect1_dropShadow_2122_6247"/>
<feBlend mode="normal" in="SourceGraphic" in2="effect1_dropShadow_2122_6247" result="shape"/>
</filter>
<clipPath id="clip0_2122_6247">
<rect width="51" height="19" fill="white" transform="translate(19 12.5)"/>
</clipPath>
<clipPath id="clip1_2122_6247">
<rect width="41" height="19" fill="white" transform="translate(112 12.5)"/>
</clipPath>
<clipPath id="clip2_2122_6247">
<rect width="46" height="19" fill="white" transform="translate(195 12.5)"/>
</clipPath>
<clipPath id="clip3_2122_6247">
<rect width="27" height="19" fill="white" transform="translate(283 12.5)"/>
</clipPath>
<clipPath id="clip4_2122_6247">
<rect width="73" height="19" fill="white" transform="translate(177 90.5)"/>
</clipPath>
</defs>
</svg>
