<svg width="1320" height="408" viewBox="0 0 1320 408" fill="none" xmlns="http://www.w3.org/2000/svg">
<rect x="48" y="26" width="179" height="36" rx="8" fill="#F3F4F7"/>
<g filter="url(#filter0_d_2106_11355)">
<path d="M50 32C50 29.7909 51.7909 28 54 28H125C127.209 28 129 29.7909 129 32V56C129 58.2091 127.209 60 125 60H54C51.7909 60 50 58.2091 50 56V32Z" fill="white"/>
<path d="M54 28.5H125C126.933 28.5 128.5 30.067 128.5 32V56C128.5 57.933 126.933 59.5 125 59.5H54C52.067 59.5 50.5 57.933 50.5 56V32C50.5 30.067 52.067 28.5 54 28.5Z" stroke="#ECEDF1"/>
<g clip-path="url(#clip0_2106_11355)">
<path d="M74.5326 52.252C73.7219 52.252 73.1299 52.0227 72.7566 51.564C72.3832 51.1053 72.1859 50.4547 72.1646 49.612C70.8312 49.4627 69.8286 48.9667 69.1566 48.124C68.4952 47.2707 68.1646 46.0227 68.1646 44.38C68.1646 42.5027 68.5699 41.1427 69.3806 40.3C70.1912 39.4573 71.4126 39.036 73.0446 39.036C74.6872 39.036 75.9086 39.4573 76.7086 40.3C77.5192 41.1427 77.9246 42.5027 77.9246 44.38C77.9246 46.0547 77.5726 47.3187 76.8686 48.172C76.1752 49.0253 75.1246 49.5107 73.7166 49.628C73.7272 50.1187 73.8179 50.4547 73.9886 50.636C74.1699 50.828 74.4739 50.924 74.9006 50.924C75.2846 50.924 75.6632 50.8707 76.0366 50.764V52.06C75.8659 52.1133 75.6419 52.156 75.3646 52.188C75.0872 52.2307 74.8099 52.252 74.5326 52.252ZM73.0446 48.188C74.1219 48.188 74.9112 47.8947 75.4126 47.308C75.9246 46.7107 76.1806 45.7347 76.1806 44.38C76.1806 42.9507 75.9246 41.9533 75.4126 41.388C74.9112 40.812 74.1219 40.524 73.0446 40.524C71.9779 40.524 71.1886 40.812 70.6766 41.388C70.1752 41.9533 69.9246 42.9507 69.9246 44.38C69.9246 45.7347 70.1752 46.7107 70.6766 47.308C71.1886 47.8947 71.9779 48.188 73.0446 48.188ZM82.3768 49.66C81.4701 49.66 80.7715 49.4093 80.2808 48.908C79.8008 48.4067 79.5608 47.6707 79.5608 46.7V41.916H81.3048V46.7C81.3048 47.2653 81.4435 47.6813 81.7208 47.948C81.9981 48.2147 82.4248 48.348 83.0008 48.348C83.4275 48.348 83.8221 48.268 84.1848 48.108C84.5475 47.948 84.8621 47.7347 85.1288 47.468V41.916H86.8568V49.5H85.2728L85.1928 48.716C84.8515 48.9827 84.4461 49.2067 83.9768 49.388C83.5075 49.5693 82.9741 49.66 82.3768 49.66ZM92.5228 49.66C91.1575 49.66 90.1548 49.3187 89.5148 48.636C88.8855 47.9533 88.5708 46.9773 88.5708 45.708C88.5708 44.4387 88.8908 43.4627 89.5308 42.78C90.1708 42.0973 91.1681 41.756 92.5228 41.756C93.8881 41.756 94.8908 42.0973 95.5308 42.78C96.1708 43.4627 96.4908 44.4387 96.4908 45.708C96.4908 46.9773 96.1708 47.9533 95.5308 48.636C94.9015 49.3187 93.8988 49.66 92.5228 49.66ZM92.5228 48.188C93.3228 48.188 93.8881 47.996 94.2188 47.612C94.5601 47.2173 94.7308 46.5827 94.7308 45.708C94.7308 44.8333 94.5601 44.204 94.2188 43.82C93.8881 43.436 93.3228 43.244 92.5228 43.244C91.7335 43.244 91.1681 43.436 90.8268 43.82C90.4961 44.204 90.3308 44.8333 90.3308 45.708C90.3308 46.5827 90.4961 47.2173 90.8268 47.612C91.1681 47.996 91.7335 48.188 92.5228 48.188ZM101.084 49.66C100.273 49.66 99.665 49.4467 99.2597 49.02C98.865 48.5827 98.6677 47.9907 98.6677 47.244V43.276H97.5477V41.916H98.6677V40.172L100.396 39.644V41.916H102.412L102.3 43.276H100.396V47.148C100.396 47.5853 100.497 47.8947 100.7 48.076C100.902 48.2467 101.233 48.332 101.692 48.332C101.98 48.332 102.284 48.2787 102.604 48.172V49.404C102.188 49.5747 101.681 49.66 101.084 49.66ZM107.778 49.66C106.455 49.66 105.431 49.3347 104.706 48.684C103.98 48.0333 103.618 47.036 103.618 45.692C103.618 44.476 103.927 43.516 104.546 42.812C105.164 42.108 106.103 41.756 107.362 41.756C108.514 41.756 109.378 42.06 109.954 42.668C110.54 43.2653 110.834 44.0387 110.834 44.988V46.396H105.282C105.367 47.132 105.634 47.6387 106.082 47.916C106.53 48.1933 107.212 48.332 108.13 48.332C108.514 48.332 108.908 48.2947 109.314 48.22C109.719 48.1453 110.071 48.0493 110.37 47.932V49.212C110.028 49.3613 109.634 49.4733 109.186 49.548C108.748 49.6227 108.279 49.66 107.778 49.66ZM105.282 45.26H109.298V44.732C109.298 44.2093 109.154 43.804 108.866 43.516C108.578 43.2173 108.092 43.068 107.41 43.068C106.599 43.068 106.039 43.244 105.73 43.596C105.431 43.948 105.282 44.5027 105.282 45.26Z" fill="#1E293B"/>
</g>
</g>
<path d="M137 32C137 29.7909 138.791 28 141 28H221C223.209 28 225 29.7909 225 32V56C225 58.2091 223.209 60 221 60H141C138.791 60 137 58.2091 137 56V32Z" fill="#F3F4F7"/>
<g clip-path="url(#clip1_2106_11355)">
<path d="M155.203 49.5V39.196H159.939C161.091 39.196 161.929 39.4947 162.451 40.092C162.985 40.6787 163.251 41.4787 163.251 42.492C163.251 43.2173 163.07 43.836 162.707 44.348C162.345 44.86 161.822 45.2173 161.139 45.42C161.331 45.5587 161.481 45.708 161.587 45.868C161.694 46.028 161.801 46.2413 161.907 46.508L163.203 49.5H161.411L160.147 46.62C160.03 46.3427 159.886 46.1453 159.715 46.028C159.555 45.9107 159.278 45.852 158.883 45.852H156.947V49.5H155.203ZM156.947 44.444H159.475C160.105 44.444 160.601 44.2893 160.963 43.98C161.326 43.6707 161.507 43.1747 161.507 42.492C161.507 41.2013 160.883 40.556 159.635 40.556H156.947V44.444ZM168.575 49.66C167.252 49.66 166.228 49.3347 165.503 48.684C164.777 48.0333 164.415 47.036 164.415 45.692C164.415 44.476 164.724 43.516 165.343 42.812C165.961 42.108 166.9 41.756 168.159 41.756C169.311 41.756 170.175 42.06 170.751 42.668C171.337 43.2653 171.631 44.0387 171.631 44.988V46.396H166.079C166.164 47.132 166.431 47.6387 166.879 47.916C167.327 48.1933 168.009 48.332 168.927 48.332C169.311 48.332 169.705 48.2947 170.111 48.22C170.516 48.1453 170.868 48.0493 171.167 47.932V49.212C170.825 49.3613 170.431 49.4733 169.983 49.548C169.545 49.6227 169.076 49.66 168.575 49.66ZM166.079 45.26H170.095V44.732C170.095 44.2093 169.951 43.804 169.663 43.516C169.375 43.2173 168.889 43.068 168.207 43.068C167.396 43.068 166.836 43.244 166.527 43.596C166.228 43.948 166.079 44.5027 166.079 45.26ZM177.056 49.66C175.723 49.66 174.715 49.324 174.032 48.652C173.35 47.9693 173.008 46.988 173.008 45.708C173.008 44.3747 173.382 43.3827 174.128 42.732C174.886 42.0813 175.894 41.756 177.152 41.756C177.675 41.756 178.112 41.7933 178.464 41.868C178.827 41.9427 179.174 42.06 179.504 42.22V43.516C178.95 43.2387 178.278 43.1 177.488 43.1C176.614 43.1 175.942 43.2973 175.472 43.692C175.003 44.076 174.768 44.748 174.768 45.708C174.768 46.6147 174.976 47.2813 175.392 47.708C175.808 48.124 176.496 48.332 177.456 48.332C178.214 48.332 178.902 48.188 179.52 47.9V49.228C179.168 49.3667 178.79 49.4733 178.384 49.548C177.99 49.6227 177.547 49.66 177.056 49.66ZM184.746 49.66C183.424 49.66 182.4 49.3347 181.674 48.684C180.949 48.0333 180.586 47.036 180.586 45.692C180.586 44.476 180.896 43.516 181.514 42.812C182.133 42.108 183.072 41.756 184.33 41.756C185.482 41.756 186.346 42.06 186.922 42.668C187.509 43.2653 187.802 44.0387 187.802 44.988V46.396H182.25C182.336 47.132 182.602 47.6387 183.05 47.916C183.498 48.1933 184.181 48.332 185.098 48.332C185.482 48.332 185.877 48.2947 186.282 48.22C186.688 48.1453 187.04 48.0493 187.338 47.932V49.212C186.997 49.3613 186.602 49.4733 186.154 49.548C185.717 49.6227 185.248 49.66 184.746 49.66ZM182.25 45.26H186.266V44.732C186.266 44.2093 186.122 43.804 185.834 43.516C185.546 43.2173 185.061 43.068 184.378 43.068C183.568 43.068 183.008 43.244 182.698 43.596C182.4 43.948 182.25 44.5027 182.25 45.26ZM189.828 40.332V38.892H191.732V40.332H189.828ZM189.972 49.5V43.244H188.82L188.98 41.916H191.716V49.5H189.972ZM193.75 52.956V41.916H195.254L195.35 42.668C195.692 42.3587 196.065 42.1293 196.47 41.98C196.876 41.8307 197.356 41.756 197.91 41.756C198.998 41.756 199.846 42.0547 200.454 42.652C201.062 43.2387 201.366 44.2147 201.366 45.58C201.366 46.9453 201.052 47.9693 200.422 48.652C199.793 49.324 198.934 49.66 197.846 49.66C196.929 49.66 196.145 49.4467 195.494 49.02V52.956H193.75ZM197.398 48.348C198.87 48.348 199.606 47.42 199.606 45.564C199.606 44.668 199.441 44.0333 199.11 43.66C198.78 43.276 198.225 43.084 197.446 43.084C196.668 43.084 196.017 43.3507 195.494 43.884V47.676C195.74 47.8787 196.012 48.044 196.31 48.172C196.62 48.2893 196.982 48.348 197.398 48.348ZM205.959 49.66C205.148 49.66 204.54 49.4467 204.135 49.02C203.74 48.5827 203.543 47.9907 203.543 47.244V43.276H202.423V41.916H203.543V40.172L205.271 39.644V41.916H207.287L207.175 43.276H205.271V47.148C205.271 47.5853 205.372 47.8947 205.575 48.076C205.777 48.2467 206.108 48.332 206.567 48.332C206.855 48.332 207.159 48.2787 207.479 48.172V49.404C207.063 49.5747 206.556 49.66 205.959 49.66Z" fill="#A9ACB9"/>
</g>
<path d="M247 24.5H357C358.933 24.5 360.5 26.067 360.5 28V60C360.5 61.933 358.933 63.5 357 63.5H247C245.067 63.5 243.5 61.933 243.5 60V28C243.5 26.067 245.067 24.5 247 24.5Z" fill="white"/>
<path d="M247 24.5H357C358.933 24.5 360.5 26.067 360.5 28V60C360.5 61.933 358.933 63.5 357 63.5H247C245.067 63.5 243.5 61.933 243.5 60V28C243.5 26.067 245.067 24.5 247 24.5Z" stroke="#ECEDF1"/>
<path d="M271 48V39.85L268.4 42.45L267 41L272 36L277 41L275.6 42.45L273 39.85V48H271ZM266 52C265.45 52 264.979 51.8043 264.588 51.413C264.197 51.0217 264.001 50.5507 264 50V47H266V50H278V47H280V50C280 50.55 279.804 51.021 279.413 51.413C279.022 51.805 278.551 52.0007 278 52H266Z" fill="#A9ACB9"/>
<g clip-path="url(#clip2_2106_11355)">
<path d="M297.439 49.66C296.021 49.66 294.917 49.3187 294.127 48.636C293.349 47.9533 292.959 46.9667 292.959 45.676V39.196H294.703V45.612C294.703 46.476 294.938 47.1213 295.407 47.548C295.887 47.9747 296.565 48.188 297.439 48.188C298.303 48.188 298.97 47.9747 299.439 47.548C299.919 47.1213 300.159 46.476 300.159 45.612V39.196H301.887V45.676C301.887 46.9667 301.498 47.9533 300.719 48.636C299.941 49.3187 298.847 49.66 297.439 49.66ZM303.821 52.956V41.916H305.325L305.421 42.668C305.762 42.3587 306.135 42.1293 306.541 41.98C306.946 41.8307 307.426 41.756 307.981 41.756C309.069 41.756 309.917 42.0547 310.525 42.652C311.133 43.2387 311.437 44.2147 311.437 45.58C311.437 46.9453 311.122 47.9693 310.493 48.652C309.863 49.324 309.005 49.66 307.917 49.66C306.999 49.66 306.215 49.4467 305.565 49.02V52.956H303.821ZM307.469 48.348C308.941 48.348 309.677 47.42 309.677 45.564C309.677 44.668 309.511 44.0333 309.181 43.66C308.85 43.276 308.295 43.084 307.516 43.084C306.738 43.084 306.087 43.3507 305.565 43.884V47.676C305.81 47.8787 306.082 48.044 306.381 48.172C306.69 48.2893 307.053 48.348 307.469 48.348ZM315.021 49.66C314.402 49.66 313.933 49.5107 313.613 49.212C313.293 48.9027 313.133 48.396 313.133 47.692V38.716H314.877V47.532C314.877 47.8307 314.93 48.0333 315.037 48.14C315.144 48.2467 315.304 48.3 315.517 48.3C315.773 48.3 316.018 48.268 316.253 48.204V49.468C316.05 49.5427 315.853 49.5907 315.661 49.612C315.48 49.644 315.266 49.66 315.021 49.66ZM321.249 49.66C319.884 49.66 318.881 49.3187 318.241 48.636C317.612 47.9533 317.297 46.9773 317.297 45.708C317.297 44.4387 317.617 43.4627 318.257 42.78C318.897 42.0973 319.895 41.756 321.249 41.756C322.615 41.756 323.617 42.0973 324.257 42.78C324.897 43.4627 325.217 44.4387 325.217 45.708C325.217 46.9773 324.897 47.9533 324.257 48.636C323.628 49.3187 322.625 49.66 321.249 49.66ZM321.249 48.188C322.049 48.188 322.615 47.996 322.945 47.612C323.287 47.2173 323.457 46.5827 323.457 45.708C323.457 44.8333 323.287 44.204 322.945 43.82C322.615 43.436 322.049 43.244 321.249 43.244C320.46 43.244 319.895 43.436 319.553 43.82C319.223 44.204 319.057 44.8333 319.057 45.708C319.057 46.5827 319.223 47.2173 319.553 47.612C319.895 47.996 320.46 48.188 321.249 48.188ZM329.282 49.66C328.802 49.66 328.354 49.5747 327.938 49.404C327.533 49.2333 327.208 48.9773 326.962 48.636C326.717 48.284 326.594 47.852 326.594 47.34C326.594 46.6147 326.84 46.0333 327.33 45.596C327.832 45.148 328.6 44.924 329.634 44.924H332.066V44.588C332.066 44.2253 332.008 43.9373 331.89 43.724C331.784 43.5107 331.581 43.356 331.282 43.26C330.994 43.164 330.568 43.116 330.002 43.116C329.106 43.116 328.269 43.2493 327.49 43.516V42.22C327.832 42.0813 328.248 41.9693 328.738 41.884C329.229 41.7987 329.757 41.756 330.322 41.756C331.432 41.756 332.274 41.98 332.85 42.428C333.437 42.876 333.73 43.6067 333.73 44.62V49.5H332.242L332.13 48.732C331.821 49.0307 331.437 49.26 330.978 49.42C330.53 49.58 329.965 49.66 329.282 49.66ZM329.746 48.412C330.269 48.412 330.722 48.3267 331.106 48.156C331.501 47.9747 331.821 47.7347 332.066 47.436V46.108H329.666C329.154 46.108 328.781 46.2093 328.546 46.412C328.322 46.604 328.21 46.9027 328.21 47.308C328.21 47.7027 328.344 47.9853 328.61 48.156C328.877 48.3267 329.256 48.412 329.746 48.412ZM338.8 49.66C338.118 49.66 337.515 49.5427 336.992 49.308C336.47 49.0733 336.064 48.684 335.776 48.14C335.488 47.596 335.344 46.8653 335.344 45.948C335.344 45.0413 335.499 44.2787 335.808 43.66C336.118 43.0307 336.544 42.556 337.088 42.236C337.643 41.916 338.267 41.756 338.96 41.756C339.419 41.756 339.824 41.8093 340.176 41.916C340.539 42.0227 340.886 42.188 341.216 42.412V38.716H342.96V49.5H341.472L341.36 48.748C341.019 49.0573 340.646 49.2867 340.24 49.436C339.835 49.5853 339.355 49.66 338.8 49.66ZM339.264 48.348C340.043 48.348 340.694 48.0813 341.216 47.548V43.756C340.715 43.308 340.086 43.084 339.328 43.084C338.592 43.084 338.038 43.3293 337.664 43.82C337.291 44.3107 337.104 45.0253 337.104 45.964C337.104 46.8707 337.275 47.4947 337.616 47.836C337.968 48.1773 338.518 48.348 339.264 48.348Z" fill="#1E293B"/>
</g>
<path d="M676.528 40L672.592 29.696H674.848L677.696 37.584L680.56 29.696H682.816L678.896 40H676.528ZM686.833 40.16C685.521 40.16 684.481 39.8347 683.713 39.184C682.945 38.5227 682.561 37.5253 682.561 36.192C682.561 34.9867 682.881 34.032 683.521 33.328C684.171 32.6133 685.137 32.256 686.417 32.256C687.59 32.256 688.486 32.5653 689.105 33.184C689.734 33.792 690.049 34.592 690.049 35.584V36.96H684.561C684.678 37.568 684.955 37.984 685.393 38.208C685.841 38.432 686.47 38.544 687.281 38.544C687.686 38.544 688.097 38.5067 688.513 38.432C688.939 38.3573 689.302 38.2613 689.601 38.144V39.68C689.249 39.84 688.838 39.9573 688.369 40.032C687.899 40.1173 687.387 40.16 686.833 40.16ZM684.561 35.632H688.161V35.216C688.161 34.7787 688.033 34.4373 687.777 34.192C687.521 33.936 687.089 33.808 686.481 33.808C685.766 33.808 685.265 33.952 684.977 34.24C684.699 34.528 684.561 34.992 684.561 35.632ZM691.553 40V32.416H693.553L693.633 33.136C693.942 32.9013 694.331 32.6987 694.801 32.528C695.281 32.3467 695.782 32.256 696.305 32.256C697.307 32.256 698.038 32.4907 698.497 32.96C698.955 33.4293 699.185 34.1547 699.185 35.136V40H697.025V35.248C697.025 34.736 696.918 34.3733 696.705 34.16C696.502 33.9467 696.118 33.84 695.553 33.84C695.222 33.84 694.886 33.9147 694.545 34.064C694.214 34.2133 693.937 34.4 693.713 34.624V40H691.553ZM703.861 40.16C703.189 40.16 702.587 40.0427 702.053 39.808C701.531 39.5627 701.12 39.168 700.821 38.624C700.523 38.0693 700.373 37.3387 700.373 36.432C700.373 35.5253 700.539 34.7627 700.869 34.144C701.2 33.5253 701.643 33.056 702.197 32.736C702.752 32.416 703.36 32.256 704.021 32.256C704.853 32.256 705.563 32.448 706.149 32.832V29.216H708.309V40H706.453L706.325 39.296C705.995 39.584 705.632 39.8027 705.237 39.952C704.853 40.0907 704.395 40.16 703.861 40.16ZM704.453 38.576C705.125 38.576 705.691 38.3467 706.149 37.888V34.432C705.701 34.0373 705.179 33.84 704.581 33.84C703.237 33.84 702.565 34.704 702.565 36.432C702.565 37.2427 702.731 37.8027 703.061 38.112C703.392 38.4213 703.856 38.576 704.453 38.576ZM713.766 40.16C712.348 40.16 711.308 39.8187 710.647 39.136C709.985 38.4427 709.655 37.4667 709.655 36.208C709.655 34.9493 709.985 33.9787 710.647 33.296C711.319 32.6027 712.359 32.256 713.766 32.256C715.185 32.256 716.225 32.6027 716.887 33.296C717.559 33.9787 717.895 34.9493 717.895 36.208C717.895 37.4667 717.564 38.4427 716.903 39.136C716.241 39.8187 715.196 40.16 713.766 40.16ZM713.766 38.32C714.46 38.32 714.956 38.1653 715.255 37.856C715.553 37.536 715.703 36.9867 715.703 36.208C715.703 35.4293 715.553 34.8853 715.255 34.576C714.956 34.256 714.46 34.096 713.766 34.096C713.084 34.096 712.593 34.256 712.295 34.576C711.996 34.8853 711.847 35.4293 711.847 36.208C711.847 36.9867 711.996 37.536 712.295 37.856C712.593 38.1653 713.084 38.32 713.766 38.32ZM719.396 40V32.416H721.396L721.492 33.2C721.834 32.9867 722.255 32.7947 722.756 32.624C723.268 32.4427 723.77 32.32 724.26 32.256V33.888C723.972 33.9307 723.658 33.9947 723.316 34.08C722.975 34.1653 722.65 34.2613 722.34 34.368C722.031 34.4747 721.77 34.5867 721.556 34.704V40H719.396ZM677.6 59.16C674.261 59.16 672.592 57.4053 672.592 53.896C672.592 52.008 673.013 50.6427 673.856 49.8C674.699 48.9573 675.947 48.536 677.6 48.536C679.253 48.536 680.501 48.9573 681.344 49.8C682.187 50.6427 682.608 52.008 682.608 53.896C682.608 57.4053 680.939 59.16 677.6 59.16ZM677.6 57.32C678.571 57.32 679.28 57.0427 679.728 56.488C680.187 55.9227 680.416 55.0587 680.416 53.896C680.416 52.6053 680.187 51.6987 679.728 51.176C679.28 50.6427 678.571 50.376 677.6 50.376C676.629 50.376 675.915 50.6427 675.456 51.176C675.008 51.6987 674.784 52.6053 674.784 53.896C674.784 55.0587 675.008 55.9227 675.456 56.488C675.915 57.0427 676.629 57.32 677.6 57.32ZM684.115 59V51.416H686.115L686.211 52.2C686.552 51.9867 686.974 51.7947 687.475 51.624C687.987 51.4427 688.488 51.32 688.979 51.256V52.888C688.691 52.9307 688.376 52.9947 688.035 53.08C687.694 53.1653 687.368 53.2613 687.059 53.368C686.75 53.4747 686.488 53.5867 686.275 53.704V59H684.115ZM692.939 59.16C692.267 59.16 691.665 59.0427 691.131 58.808C690.609 58.5627 690.198 58.168 689.899 57.624C689.601 57.0693 689.451 56.3387 689.451 55.432C689.451 54.5253 689.617 53.7627 689.947 53.144C690.278 52.5253 690.721 52.056 691.275 51.736C691.83 51.416 692.438 51.256 693.099 51.256C693.931 51.256 694.641 51.448 695.227 51.832V48.216H697.387V59H695.531L695.403 58.296C695.073 58.584 694.71 58.8027 694.315 58.952C693.931 59.0907 693.473 59.16 692.939 59.16ZM693.531 57.576C694.203 57.576 694.769 57.3467 695.227 56.888V53.432C694.779 53.0373 694.257 52.84 693.659 52.84C692.315 52.84 691.643 53.704 691.643 55.432C691.643 56.2427 691.809 56.8027 692.139 57.112C692.47 57.4213 692.934 57.576 693.531 57.576ZM703.005 59.16C701.693 59.16 700.653 58.8347 699.885 58.184C699.117 57.5227 698.733 56.5253 698.733 55.192C698.733 53.9867 699.053 53.032 699.693 52.328C700.343 51.6133 701.309 51.256 702.589 51.256C703.762 51.256 704.658 51.5653 705.277 52.184C705.906 52.792 706.221 53.592 706.221 54.584V55.96H700.733C700.85 56.568 701.127 56.984 701.565 57.208C702.013 57.432 702.642 57.544 703.453 57.544C703.858 57.544 704.269 57.5067 704.685 57.432C705.111 57.3573 705.474 57.2613 705.773 57.144V58.68C705.421 58.84 705.01 58.9573 704.541 59.032C704.071 59.1173 703.559 59.16 703.005 59.16ZM700.733 54.632H704.333V54.216C704.333 53.7787 704.205 53.4373 703.949 53.192C703.693 52.936 703.261 52.808 702.653 52.808C701.938 52.808 701.437 52.952 701.149 53.24C700.871 53.528 700.733 53.992 700.733 54.632ZM707.725 59V51.416H709.725L709.821 52.2C710.162 51.9867 710.583 51.7947 711.085 51.624C711.597 51.4427 712.098 51.32 712.589 51.256V52.888C712.301 52.9307 711.986 52.9947 711.645 53.08C711.303 53.1653 710.978 53.2613 710.669 53.368C710.359 53.4747 710.098 53.5867 709.885 53.704V59H707.725ZM717.289 59L718.121 56.36H716.889V54.936H718.569L719.241 52.76H717.593V51.32H719.689L720.521 48.696H722.393L721.561 51.32H723.945L724.777 48.696H726.649L725.817 51.32H726.985V52.76H725.369L724.681 54.936H726.281V56.36H724.233L723.401 59H721.545L722.377 56.36H719.977L719.145 59H717.289ZM720.425 54.936H722.825L723.497 52.76H721.113L720.425 54.936Z" fill="#1E293B"/>
<path d="M780 24.5H1268C1269.93 24.5 1271.5 26.067 1271.5 28V60C1271.5 61.933 1269.93 63.5 1268 63.5H780C778.067 63.5 776.5 61.933 776.5 60V28C776.5 26.067 778.067 24.5 780 24.5Z" fill="white"/>
<path d="M780 24.5H1268C1269.93 24.5 1271.5 26.067 1271.5 28V60C1271.5 61.933 1269.93 63.5 1268 63.5H780C778.067 63.5 776.5 61.933 776.5 60V28C776.5 26.067 778.067 24.5 780 24.5Z" stroke="#ECEDF1"/>
<defs>
<filter id="filter0_d_2106_11355" x="44" y="22" width="91" height="44" filterUnits="userSpaceOnUse" color-interpolation-filters="sRGB">
<feFlood flood-opacity="0" result="BackgroundImageFix"/>
<feColorMatrix in="SourceAlpha" type="matrix" values="0 0 0 0 0 0 0 0 0 0 0 0 0 0 0 0 0 0 127 0" result="hardAlpha"/>
<feOffset/>
<feGaussianBlur stdDeviation="3"/>
<feComposite in2="hardAlpha" operator="out"/>
<feColorMatrix type="matrix" values="0 0 0 0 0 0 0 0 0 0 0 0 0 0 0 0 0 0 0.1 0"/>
<feBlend mode="normal" in2="BackgroundImageFix" result="effect1_dropShadow_2106_11355"/>
<feBlend mode="normal" in="SourceGraphic" in2="effect1_dropShadow_2106_11355" result="shape"/>
</filter>
<clipPath id="clip0_2106_11355">
<rect width="45" height="19" fill="white" transform="translate(67 34.5)"/>
</clipPath>
<clipPath id="clip1_2106_11355">
<rect width="54" height="19" fill="white" transform="translate(154 34.5)"/>
</clipPath>
<clipPath id="clip2_2106_11355">
<rect width="52" height="19" fill="white" transform="translate(292 34.5)"/>
</clipPath>
</defs>
</svg>
