<svg width="172" height="99" viewBox="0 0 172 99" fill="none" xmlns="http://www.w3.org/2000/svg">
<path d="M6.9237 16.18C4.8957 16.18 3.3477 15.664 2.2797 14.632C1.2237 13.588 0.695695 12.142 0.695695 10.294C0.695695 8.362 1.2117 6.868 2.2437 5.812C3.2877 4.756 4.8417 4.228 6.9057 4.228C7.6137 4.228 8.2437 4.282 8.7957 4.39C9.3597 4.498 9.8997 4.642 10.4157 4.822V7.36C9.3717 6.928 8.2737 6.712 7.1217 6.712C5.9217 6.712 5.0397 7 4.4757 7.576C3.9237 8.152 3.6477 9.058 3.6477 10.294C3.6477 11.47 3.9417 12.334 4.5297 12.886C5.1177 13.438 5.9937 13.714 7.1577 13.714C7.7217 13.714 8.2797 13.666 8.8317 13.57C9.3837 13.462 9.9177 13.3 10.4337 13.084V15.64C9.9297 15.808 9.3957 15.94 8.8317 16.036C8.2677 16.132 7.6317 16.18 6.9237 16.18ZM16.3474 16.18C14.7034 16.18 13.4914 15.802 12.7114 15.046C11.9314 14.278 11.5414 13.174 11.5414 11.734C11.5414 10.306 11.9314 9.208 12.7114 8.44C13.5034 7.672 14.7154 7.288 16.3474 7.288C17.9914 7.288 19.2034 7.672 19.9834 8.44C20.7754 9.208 21.1714 10.306 21.1714 11.734C21.1714 13.174 20.7814 14.278 20.0014 15.046C19.2214 15.802 18.0034 16.18 16.3474 16.18ZM16.3474 13.912C17.0194 13.912 17.4994 13.744 17.7874 13.408C18.0754 13.072 18.2194 12.514 18.2194 11.734C18.2194 10.954 18.0754 10.396 17.7874 10.06C17.4994 9.724 17.0194 9.556 16.3474 9.556C15.6874 9.556 15.2134 9.724 14.9254 10.06C14.6374 10.396 14.4934 10.954 14.4934 11.734C14.4934 12.514 14.6374 13.072 14.9254 13.408C15.2134 13.744 15.6874 13.912 16.3474 13.912ZM22.6416 16V7.468H25.3416L25.4316 8.206C25.7796 7.966 26.2176 7.756 26.7456 7.576C27.2736 7.384 27.8376 7.288 28.4376 7.288C29.5416 7.288 30.3456 7.552 30.8496 8.08C31.3536 8.608 31.6056 9.424 31.6056 10.528V16H28.7076V10.762C28.7076 10.282 28.6056 9.94 28.4016 9.736C28.1976 9.532 27.8316 9.43 27.3036 9.43C26.9916 9.43 26.6736 9.502 26.3496 9.646C26.0256 9.79 25.7556 9.97 25.5396 10.186V16H22.6416ZM33.7607 16V9.664H32.6267V7.468H33.7607V6.802C33.7607 6.19 33.9047 5.638 34.1927 5.146C34.4927 4.654 34.9247 4.264 35.4887 3.976C36.0527 3.676 36.7367 3.526 37.5407 3.526C38.5247 3.526 39.3227 3.646 39.9347 3.886V5.938C39.7907 5.866 39.5747 5.812 39.2867 5.776C39.0107 5.728 38.7587 5.704 38.5307 5.704C37.8347 5.704 37.3487 5.8 37.0727 5.992C36.7967 6.184 36.6587 6.478 36.6587 6.874V7.468H41.6627V16H38.7647V9.664H36.6587V16H33.7607ZM43.5069 16V7.468H46.2609L46.3509 8.26C46.7229 8.032 47.1849 7.828 47.7369 7.648C48.2889 7.456 48.8409 7.336 49.3929 7.288V9.466C49.0809 9.502 48.7329 9.562 48.3489 9.646C47.9769 9.718 47.6169 9.808 47.2689 9.916C46.9329 10.024 46.6449 10.138 46.4049 10.258V16H43.5069ZM50.4854 16V7.468H53.1674L53.2574 8.224C53.6414 7.948 54.0734 7.726 54.5534 7.558C55.0334 7.378 55.5494 7.288 56.1014 7.288C56.6774 7.288 57.1274 7.378 57.4514 7.558C57.7754 7.726 58.0274 7.966 58.2074 8.278C58.6034 7.99 59.0474 7.756 59.5394 7.576C60.0434 7.384 60.6314 7.288 61.3034 7.288C62.2994 7.288 63.0314 7.546 63.4994 8.062C63.9674 8.578 64.2014 9.364 64.2014 10.42V16H61.3394V10.762C61.3394 10.294 61.2374 9.958 61.0334 9.754C60.8414 9.538 60.5234 9.43 60.0794 9.43C59.8034 9.43 59.5334 9.49 59.2694 9.61C59.0054 9.718 58.7834 9.874 58.6034 10.078C58.6274 10.21 58.6394 10.336 58.6394 10.456C58.6514 10.576 58.6574 10.72 58.6574 10.888V16H55.9574V10.726C55.9574 10.294 55.8794 9.97 55.7234 9.754C55.5794 9.538 55.2974 9.43 54.8774 9.43C54.5774 9.43 54.2954 9.508 54.0314 9.664C53.7674 9.82 53.5274 10 53.3114 10.204V16H50.4854ZM73.5113 16.18C72.7433 16.18 72.0233 16.12 71.3513 16C70.6913 15.892 70.1213 15.73 69.6413 15.514V13.048C70.1693 13.276 70.7513 13.462 71.3873 13.606C72.0353 13.75 72.6473 13.822 73.2233 13.822C73.9433 13.822 74.4773 13.756 74.8253 13.624C75.1853 13.492 75.3653 13.204 75.3653 12.76C75.3653 12.46 75.2753 12.22 75.0953 12.04C74.9273 11.86 74.6453 11.704 74.2493 11.572C73.8653 11.428 73.3373 11.26 72.6653 11.068C71.8733 10.828 71.2433 10.564 70.7753 10.276C70.3073 9.976 69.9713 9.616 69.7673 9.196C69.5633 8.776 69.4613 8.26 69.4613 7.648C69.4613 6.544 69.8573 5.698 70.6493 5.11C71.4413 4.522 72.6113 4.228 74.1593 4.228C74.8313 4.228 75.4853 4.282 76.1213 4.39C76.7573 4.486 77.2733 4.6 77.6693 4.732V7.216C77.1533 7.012 76.6313 6.862 76.1033 6.766C75.5873 6.67 75.0833 6.622 74.5913 6.622C73.9433 6.622 73.4153 6.682 73.0073 6.802C72.6113 6.922 72.4133 7.198 72.4133 7.63C72.4133 7.882 72.4853 8.086 72.6293 8.242C72.7733 8.386 73.0193 8.518 73.3673 8.638C73.7273 8.758 74.2133 8.902 74.8253 9.07C75.7733 9.322 76.4993 9.628 77.0033 9.988C77.5073 10.336 77.8553 10.744 78.0473 11.212C78.2393 11.668 78.3353 12.184 78.3353 12.76C78.3353 13.78 77.9393 14.608 77.1473 15.244C76.3553 15.868 75.1433 16.18 73.5113 16.18ZM84.3777 16.18C82.8897 16.18 81.6957 15.814 80.7957 15.082C79.8957 14.338 79.4457 13.222 79.4457 11.734C79.4457 10.378 79.8177 9.298 80.5617 8.494C81.3057 7.69 82.4217 7.288 83.9097 7.288C85.2657 7.288 86.3157 7.636 87.0597 8.332C87.8037 9.028 88.1757 9.964 88.1757 11.14V12.67H82.1277C82.2597 13.234 82.5657 13.63 83.0457 13.858C83.5377 14.074 84.2037 14.182 85.0437 14.182C85.5117 14.182 85.9857 14.14 86.4657 14.056C86.9577 13.972 87.3657 13.864 87.6897 13.732V15.622C87.2817 15.814 86.7957 15.952 86.2317 16.036C85.6677 16.132 85.0497 16.18 84.3777 16.18ZM82.1277 10.996H85.6557V10.618C85.6557 10.198 85.5297 9.868 85.2777 9.628C85.0257 9.376 84.5997 9.25 83.9997 9.25C83.3037 9.25 82.8177 9.394 82.5417 9.682C82.2657 9.958 82.1277 10.396 82.1277 10.996ZM92.2774 16.18C91.3414 16.18 90.6694 15.976 90.2614 15.568C89.8534 15.16 89.6494 14.506 89.6494 13.606V3.868H92.5474V13.318C92.5474 13.594 92.6014 13.786 92.7094 13.894C92.8294 13.99 93.0034 14.038 93.2314 14.038C93.5554 14.038 93.8434 13.996 94.0954 13.912V15.874C93.8194 15.982 93.5434 16.06 93.2674 16.108C93.0034 16.156 92.6734 16.18 92.2774 16.18ZM99.7586 16.18C98.2706 16.18 97.0766 15.814 96.1766 15.082C95.2766 14.338 94.8266 13.222 94.8266 11.734C94.8266 10.378 95.1986 9.298 95.9426 8.494C96.6866 7.69 97.8026 7.288 99.2906 7.288C100.647 7.288 101.697 7.636 102.441 8.332C103.185 9.028 103.557 9.964 103.557 11.14V12.67H97.5086C97.6406 13.234 97.9466 13.63 98.4266 13.858C98.9186 14.074 99.5846 14.182 100.425 14.182C100.893 14.182 101.367 14.14 101.847 14.056C102.339 13.972 102.747 13.864 103.071 13.732V15.622C102.663 15.814 102.177 15.952 101.613 16.036C101.049 16.132 100.431 16.18 99.7586 16.18ZM97.5086 10.996H101.037V10.618C101.037 10.198 100.911 9.868 100.659 9.628C100.407 9.376 99.9806 9.25 99.3806 9.25C98.6846 9.25 98.1986 9.394 97.9226 9.682C97.6466 9.958 97.5086 10.396 97.5086 10.996ZM109.53 16.18C108.006 16.18 106.812 15.808 105.948 15.064C105.096 14.32 104.67 13.21 104.67 11.734C104.67 10.234 105.114 9.118 106.002 8.386C106.902 7.654 108.096 7.288 109.584 7.288C110.208 7.288 110.748 7.336 111.204 7.432C111.672 7.516 112.122 7.66 112.554 7.864V9.916C111.882 9.592 111.096 9.43 110.196 9.43C109.356 9.43 108.714 9.598 108.27 9.934C107.838 10.27 107.622 10.87 107.622 11.734C107.622 12.538 107.826 13.126 108.234 13.498C108.642 13.858 109.29 14.038 110.178 14.038C111.054 14.038 111.852 13.858 112.572 13.498V15.64C112.14 15.832 111.672 15.97 111.168 16.054C110.676 16.138 110.13 16.18 109.53 16.18ZM117.558 16.18C116.502 16.18 115.722 15.91 115.218 15.37C114.726 14.83 114.48 14.086 114.48 13.138V9.664H113.328V7.468H114.48V5.686L117.378 4.912V7.468H119.448L119.322 9.664H117.378V12.94C117.378 13.348 117.48 13.636 117.684 13.804C117.888 13.96 118.194 14.038 118.602 14.038C118.95 14.038 119.304 13.978 119.664 13.858V15.82C119.1 16.06 118.398 16.18 117.558 16.18ZM121.356 6.118V3.94H124.506V6.118H121.356ZM121.59 16V9.61H120.33L120.582 7.468H124.488V16H121.59ZM130.781 16.18C129.137 16.18 127.925 15.802 127.145 15.046C126.365 14.278 125.975 13.174 125.975 11.734C125.975 10.306 126.365 9.208 127.145 8.44C127.937 7.672 129.149 7.288 130.781 7.288C132.425 7.288 133.637 7.672 134.417 8.44C135.209 9.208 135.605 10.306 135.605 11.734C135.605 13.174 135.215 14.278 134.435 15.046C133.655 15.802 132.437 16.18 130.781 16.18ZM130.781 13.912C131.453 13.912 131.933 13.744 132.221 13.408C132.509 13.072 132.653 12.514 132.653 11.734C132.653 10.954 132.509 10.396 132.221 10.06C131.933 9.724 131.453 9.556 130.781 9.556C130.121 9.556 129.647 9.724 129.359 10.06C129.071 10.396 128.927 10.954 128.927 11.734C128.927 12.514 129.071 13.072 129.359 13.408C129.647 13.744 130.121 13.912 130.781 13.912ZM137.075 16V7.468H139.775L139.865 8.206C140.213 7.966 140.651 7.756 141.179 7.576C141.707 7.384 142.271 7.288 142.871 7.288C143.975 7.288 144.779 7.552 145.283 8.08C145.787 8.608 146.039 9.424 146.039 10.528V16H143.141V10.762C143.141 10.282 143.039 9.94 142.835 9.736C142.631 9.532 142.265 9.43 141.737 9.43C141.425 9.43 141.107 9.502 140.783 9.646C140.459 9.79 140.189 9.97 139.973 10.186V16H137.075Z" fill="#1E293B"/>
<rect y="43" width="24" height="24" rx="12" fill="#10C042"/>
<rect x="6" y="49" width="12" height="12" rx="6" fill="white"/>
<path d="M39.6001 60.5V52.148L37.9201 52.42V50.612L41.7601 50.036V60.5H39.6001Z" fill="#1E293B"/>
<path d="M57.1096 60.5V50.196H61.2856C62.8109 50.196 63.9416 50.6013 64.6776 51.412C65.4136 52.212 65.7816 53.5453 65.7816 55.412C65.7816 57.172 65.4189 58.4627 64.6936 59.284C63.9682 60.0947 62.8322 60.5 61.2856 60.5H57.1096ZM58.8536 59.156H61.0136C61.6856 59.156 62.2456 59.06 62.6936 58.868C63.1416 58.6653 63.4776 58.292 63.7016 57.748C63.9256 57.204 64.0376 56.4253 64.0376 55.412C64.0376 54.3987 63.9362 53.6147 63.7336 53.06C63.5309 52.5053 63.2056 52.116 62.7576 51.892C62.3202 51.668 61.7389 51.556 61.0136 51.556H58.8536V59.156ZM67.7339 51.332V49.892H69.6379V51.332H67.7339ZM67.8779 60.5V54.244H66.7259L66.8859 52.916H69.6219V60.5H67.8779ZM74.7284 63.316C74.1631 63.316 73.5978 63.2787 73.0324 63.204C72.4671 63.14 71.9871 63.0387 71.5924 62.9V61.556C72.0191 61.6947 72.5098 61.8013 73.0644 61.876C73.6191 61.9507 74.1471 61.988 74.6484 61.988C75.4164 61.988 75.9764 61.9453 76.3284 61.86C76.6804 61.7747 76.8564 61.5827 76.8564 61.284C76.8564 61.06 76.7711 60.9 76.6004 60.804C76.4298 60.7187 76.1044 60.676 75.6244 60.676H73.5764C72.2004 60.676 71.5124 60.1907 71.5124 59.22C71.5124 58.9107 71.6031 58.6227 71.7844 58.356C71.9658 58.0893 72.2538 57.8867 72.6484 57.748C72.2111 57.5347 71.8858 57.2413 71.6724 56.868C71.4698 56.4947 71.3684 56.0467 71.3684 55.524C71.3684 54.5533 71.6564 53.8493 72.2324 53.412C72.8191 52.9747 73.6938 52.756 74.8564 52.756C75.1018 52.756 75.3578 52.7773 75.6244 52.82C75.8911 52.852 76.0991 52.884 76.2484 52.916H79.0324L78.9844 54.052H77.7044C77.9071 54.2227 78.0564 54.436 78.1524 54.692C78.2484 54.948 78.2964 55.2253 78.2964 55.524C78.2964 56.3347 78.0511 56.9747 77.5604 57.444C77.0698 57.9027 76.3284 58.132 75.3364 58.132C75.1658 58.132 75.0058 58.1267 74.8564 58.116C74.7178 58.0947 74.5631 58.0733 74.3924 58.052C74.0724 58.084 73.7844 58.1693 73.5284 58.308C73.2724 58.4467 73.1444 58.6333 73.1444 58.868C73.1444 59.028 73.2084 59.1453 73.3364 59.22C73.4644 59.284 73.6778 59.316 73.9764 59.316H76.1044C76.8618 59.316 77.4431 59.4813 77.8484 59.812C78.2644 60.132 78.4724 60.6013 78.4724 61.22C78.4724 61.9667 78.1471 62.5 77.4964 62.82C76.8564 63.1507 75.9338 63.316 74.7284 63.316ZM74.8564 57.028C75.5498 57.028 76.0298 56.9107 76.2964 56.676C76.5738 56.4413 76.7124 56.0413 76.7124 55.476C76.7124 54.9107 76.5738 54.5 76.2964 54.244C76.0298 53.988 75.5498 53.86 74.8564 53.86C74.2058 53.86 73.7311 53.9827 73.4324 54.228C73.1338 54.4733 72.9844 54.8893 72.9844 55.476C72.9844 56.02 73.1231 56.4147 73.4004 56.66C73.6884 56.9053 74.1738 57.028 74.8564 57.028ZM80.7496 51.332V49.892H82.6536V51.332H80.7496ZM80.8936 60.5V54.244H79.7416L79.9016 52.916H82.6376V60.5H80.8936ZM84.6721 60.5V50.196H86.4161V54.932L90.8001 50.196H92.8161L89.0241 54.356L92.9761 60.5H91.1201L87.9361 55.46L86.4161 57.092V60.5H84.6721ZM97.4652 60.66C96.1425 60.66 95.1185 60.3347 94.3932 59.684C93.6679 59.0333 93.3052 58.036 93.3052 56.692C93.3052 55.476 93.6145 54.516 94.2332 53.812C94.8519 53.108 95.7905 52.756 97.0492 52.756C98.2012 52.756 99.0652 53.06 99.6412 53.668C100.228 54.2653 100.521 55.0387 100.521 55.988V57.396H94.9692C95.0545 58.132 95.3212 58.6387 95.7692 58.916C96.2172 59.1933 96.8999 59.332 97.8172 59.332C98.2012 59.332 98.5959 59.2947 99.0012 59.22C99.4065 59.1453 99.7585 59.0493 100.057 58.932V60.212C99.7159 60.3613 99.3212 60.4733 98.8732 60.548C98.4359 60.6227 97.9665 60.66 97.4652 60.66ZM94.9692 56.26H98.9852V55.732C98.9852 55.2093 98.8412 54.804 98.5532 54.516C98.2652 54.2173 97.7799 54.068 97.0972 54.068C96.2865 54.068 95.7265 54.244 95.4172 54.596C95.1185 54.948 94.9692 55.5027 94.9692 56.26ZM103.056 63.316C102.48 63.316 101.989 63.2413 101.584 63.092V61.796C101.765 61.86 101.931 61.9027 102.08 61.924C102.24 61.9453 102.4 61.956 102.56 61.956C102.891 61.956 103.157 61.9027 103.36 61.796C103.563 61.6893 103.739 61.5187 103.888 61.284C104.048 61.06 104.219 60.7667 104.4 60.404L101.024 52.916H102.832L105.264 58.548L107.728 52.916H109.52L106.432 60.068C106.165 60.708 105.877 61.268 105.568 61.748C105.269 62.2387 104.917 62.6227 104.512 62.9C104.117 63.1773 103.632 63.316 103.056 63.316Z" fill="#1E293B"/>
<rect x="0.5" y="75.5" width="23" height="23" rx="11.5" fill="white"/>
<rect x="0.5" y="75.5" width="23" height="23" rx="11.5" stroke="#CDD1D8"/>
<path d="M36.4904 92.5V91.46C36.7784 90.8413 37.1571 90.2867 37.6264 89.796C38.0958 89.2947 38.6078 88.7987 39.1624 88.308C39.5784 87.9347 39.9198 87.6253 40.1864 87.38C40.4531 87.1347 40.6611 86.916 40.8104 86.724C40.9598 86.532 41.0664 86.3347 41.1304 86.132C41.1944 85.9293 41.2264 85.6787 41.2264 85.38C41.2264 84.388 40.5971 83.892 39.3384 83.892C38.9118 83.892 38.4851 83.94 38.0584 84.036C37.6424 84.1213 37.2424 84.2387 36.8584 84.388V82.484C37.2638 82.3453 37.7331 82.2387 38.2664 82.164C38.8104 82.0787 39.3278 82.036 39.8184 82.036C41.0131 82.036 41.9091 82.3347 42.5064 82.932C43.1144 83.5187 43.4184 84.3187 43.4184 85.332C43.4184 86.036 43.2424 86.6387 42.8904 87.14C42.5491 87.6307 42.1011 88.116 41.5464 88.596C41.1091 88.98 40.6931 89.3533 40.2984 89.716C39.9038 90.068 39.5731 90.4413 39.3064 90.836H43.5144V92.5H36.4904Z" fill="#1E293B"/>
<path d="M61.9977 92.66C60.3657 92.66 59.1444 92.2333 58.3337 91.38C57.523 90.516 57.1177 89.1827 57.1177 87.38C57.1177 85.5027 57.523 84.1427 58.3337 83.3C59.1444 82.4573 60.3657 82.036 61.9977 82.036C63.6404 82.036 64.8617 82.4573 65.6617 83.3C66.4724 84.1427 66.8777 85.5027 66.8777 87.38C66.8777 89.1827 66.4724 90.516 65.6617 91.38C64.8617 92.2333 63.6404 92.66 61.9977 92.66ZM61.9977 91.188C63.075 91.188 63.8644 90.8947 64.3657 90.308C64.8777 89.7107 65.1337 88.7347 65.1337 87.38C65.1337 85.9507 64.8777 84.9533 64.3657 84.388C63.8644 83.812 63.075 83.524 61.9977 83.524C60.931 83.524 60.1417 83.812 59.6297 84.388C59.1284 84.9533 58.8777 85.9507 58.8777 87.38C58.8777 88.7347 59.1284 89.7107 59.6297 90.308C60.1417 90.8947 60.931 91.188 61.9977 91.188ZM68.5783 95.956V84.916H70.0823L70.1783 85.668C70.5196 85.3587 70.893 85.1293 71.2983 84.98C71.7036 84.8307 72.1836 84.756 72.7383 84.756C73.8263 84.756 74.6743 85.0547 75.2823 85.652C75.8903 86.2387 76.1943 87.2147 76.1943 88.58C76.1943 89.9453 75.8796 90.9693 75.2503 91.652C74.621 92.324 73.7623 92.66 72.6743 92.66C71.757 92.66 70.973 92.4467 70.3223 92.02V95.956H68.5783ZM72.2263 91.348C73.6983 91.348 74.4343 90.42 74.4343 88.564C74.4343 87.668 74.269 87.0333 73.9383 86.66C73.6076 86.276 73.053 86.084 72.2743 86.084C71.4956 86.084 70.845 86.3507 70.3223 86.884V90.676C70.5676 90.8787 70.8396 91.044 71.1383 91.172C71.4476 91.2893 71.8103 91.348 72.2263 91.348ZM80.7868 92.66C79.9761 92.66 79.3681 92.4467 78.9628 92.02C78.5681 91.5827 78.3708 90.9907 78.3708 90.244V86.276H77.2508V84.916H78.3708V83.172L80.0988 82.644V84.916H82.1148L82.0028 86.276H80.0988V90.148C80.0988 90.5853 80.2001 90.8947 80.4028 91.076C80.6055 91.2467 80.9361 91.332 81.3948 91.332C81.6828 91.332 81.9868 91.2787 82.3068 91.172V92.404C81.8908 92.5747 81.3841 92.66 80.7868 92.66ZM84.2808 83.332V81.892H86.1848V83.332H84.2808ZM84.4248 92.5V86.244H83.2728L83.4328 84.916H86.1688V92.5H84.4248ZM91.8353 92.66C90.47 92.66 89.4673 92.3187 88.8273 91.636C88.198 90.9533 87.8833 89.9773 87.8833 88.708C87.8833 87.4387 88.2033 86.4627 88.8433 85.78C89.4833 85.0973 90.4806 84.756 91.8353 84.756C93.2006 84.756 94.2033 85.0973 94.8433 85.78C95.4833 86.4627 95.8033 87.4387 95.8033 88.708C95.8033 89.9773 95.4833 90.9533 94.8433 91.636C94.214 92.3187 93.2113 92.66 91.8353 92.66ZM91.8353 91.188C92.6353 91.188 93.2006 90.996 93.5313 90.612C93.8726 90.2173 94.0433 89.5827 94.0433 88.708C94.0433 87.8333 93.8726 87.204 93.5313 86.82C93.2006 86.436 92.6353 86.244 91.8353 86.244C91.046 86.244 90.4806 86.436 90.1393 86.82C89.8086 87.204 89.6433 87.8333 89.6433 88.708C89.6433 89.5827 89.8086 90.2173 90.1393 90.612C90.4806 90.996 91.046 91.188 91.8353 91.188ZM97.5002 92.5V84.916H99.1002L99.1802 85.716C99.5215 85.4493 99.9269 85.2253 100.396 85.044C100.876 84.852 101.404 84.756 101.98 84.756C102.962 84.756 103.676 84.9853 104.124 85.444C104.572 85.9027 104.796 86.6173 104.796 87.588V92.5H103.068V87.668C103.068 87.0813 102.946 86.6707 102.7 86.436C102.466 86.2013 102.018 86.084 101.356 86.084C100.962 86.084 100.572 86.164 100.188 86.324C99.8149 86.484 99.5002 86.692 99.2442 86.948V92.5H97.5002ZM110.118 92.5V91.636C110.395 90.9853 110.779 90.3987 111.27 89.876C111.771 89.3533 112.304 88.8467 112.87 88.356C113.296 87.9827 113.648 87.668 113.926 87.412C114.214 87.1453 114.438 86.9053 114.598 86.692C114.758 86.4787 114.87 86.26 114.934 86.036C114.998 85.8013 115.03 85.5293 115.03 85.22C115.03 84.6653 114.87 84.244 114.55 83.956C114.23 83.668 113.696 83.524 112.95 83.524C112.544 83.524 112.128 83.5667 111.702 83.652C111.286 83.7373 110.886 83.8547 110.502 84.004V82.468C110.875 82.34 111.318 82.2387 111.83 82.164C112.342 82.0787 112.827 82.036 113.286 82.036C114.438 82.036 115.307 82.3187 115.894 82.884C116.48 83.4493 116.774 84.2227 116.774 85.204C116.774 85.6947 116.688 86.132 116.518 86.516C116.347 86.8893 116.112 87.2467 115.814 87.588C115.515 87.9187 115.168 88.26 114.774 88.612C114.283 89.0387 113.819 89.4547 113.382 89.86C112.955 90.2547 112.608 90.6867 112.342 91.156H116.886V92.5H110.118Z" fill="#1E293B"/>
</svg>
