<svg width="96" height="24" viewBox="0 0 96 24" fill="none" xmlns="http://www.w3.org/2000/svg">
<path d="M0 12C0 5.37258 5.37258 0 12 0H84C90.6274 0 96 5.37258 96 12C96 18.6274 90.6274 24 84 24H12C5.37258 24 0 18.6274 0 12Z" fill="#FCEABE"/>
<g clip-path="url(#clip0_799_4976)">
<path d="M19.5 13.2C19.8333 13.2 20.1168 13.0835 20.3504 12.8504C20.584 12.6173 20.7005 12.3339 20.7 12C20.6995 11.6661 20.5829 11.3829 20.3504 11.1504C20.1179 10.9179 19.8344 10.8011 19.5 10.8C19.1656 10.7989 18.8824 10.9157 18.6504 11.1504C18.4184 11.3851 18.3016 11.6683 18.3 12C18.2984 12.3317 18.4152 12.6152 18.6504 12.8504C18.8856 13.0856 19.1688 13.2021 19.5 13.2ZM23.5 13.2C23.8333 13.2 24.1168 13.0835 24.3504 12.8504C24.584 12.6173 24.7005 12.3339 24.7 12C24.6995 11.6661 24.5829 11.3829 24.3504 11.1504C24.1179 10.9179 23.8344 10.8011 23.5 10.8C23.1656 10.7989 22.8824 10.9157 22.6504 11.1504C22.4184 11.3851 22.3016 11.6683 22.3 12C22.2984 12.3317 22.4152 12.6152 22.6504 12.8504C22.8856 13.0856 23.1688 13.2021 23.5 13.2ZM27.5 13.2C27.8333 13.2 28.1168 13.0835 28.3504 12.8504C28.584 12.6173 28.7005 12.3339 28.7 12C28.6995 11.6661 28.5829 11.3829 28.3504 11.1504C28.1179 10.9179 27.8344 10.8011 27.5 10.8C27.1656 10.7989 26.8824 10.9157 26.6504 11.1504C26.4184 11.3851 26.3016 11.6683 26.3 12C26.2984 12.3317 26.4152 12.6152 26.6504 12.8504C26.8856 13.0856 27.1688 13.2021 27.5 13.2ZM23.5 20C22.3933 20 21.3533 19.7899 20.38 19.3696C19.4067 18.9493 18.56 18.3795 17.84 17.66C17.12 16.9405 16.5501 16.0939 16.1304 15.12C15.7107 14.1461 15.5005 13.1061 15.5 12C15.4995 10.8939 15.7096 9.85387 16.1304 8.88C16.5512 7.90613 17.1211 7.05947 17.84 6.34C18.5589 5.62053 19.4056 5.05067 20.38 4.6304C21.3544 4.21013 22.3944 4 23.5 4C24.6056 4 25.6456 4.21013 26.62 4.6304C27.5944 5.05067 28.4411 5.62053 29.16 6.34C29.8789 7.05947 30.4491 7.90613 30.8704 8.88C31.2917 9.85387 31.5016 10.8939 31.5 12C31.4984 13.1061 31.2883 14.1461 30.8696 15.12C30.4509 16.0939 29.8811 16.9405 29.16 17.66C28.4389 18.3795 27.5923 18.9496 26.62 19.3704C25.6477 19.7912 24.6077 20.0011 23.5 20ZM23.5 18.4C25.2867 18.4 26.8 17.78 28.04 16.54C29.28 15.3 29.9 13.7867 29.9 12C29.9 10.2133 29.28 8.7 28.04 7.46C26.8 6.22 25.2867 5.6 23.5 5.6C21.7133 5.6 20.2 6.22 18.96 7.46C17.72 8.7 17.1 10.2133 17.1 12C17.1 13.7867 17.72 15.3 18.96 16.54C20.2 17.78 21.7133 18.4 23.5 18.4Z" fill="#CD9B08"/>
</g>
<path d="M36.225 16V8.272H39.849C40.457 8.272 40.953 8.388 41.337 8.62C41.729 8.852 42.021 9.168 42.213 9.568C42.405 9.968 42.501 10.424 42.501 10.936C42.501 11.456 42.389 11.916 42.165 12.316C41.949 12.716 41.637 13.028 41.229 13.252C40.829 13.468 40.353 13.576 39.801 13.576H37.845V16H36.225ZM37.845 12.292H39.465C39.929 12.292 40.277 12.172 40.509 11.932C40.749 11.684 40.869 11.352 40.869 10.936C40.869 10.488 40.757 10.148 40.533 9.916C40.309 9.676 39.973 9.556 39.525 9.556H37.845V12.292ZM46.3609 16.12C45.3769 16.12 44.5969 15.876 44.0209 15.388C43.4449 14.892 43.1569 14.144 43.1569 13.144C43.1569 12.24 43.3969 11.524 43.8769 10.996C44.3649 10.46 45.0889 10.192 46.0489 10.192C46.9289 10.192 47.6009 10.424 48.0649 10.888C48.5369 11.344 48.7729 11.944 48.7729 12.688V13.72H44.6569C44.7449 14.176 44.9529 14.488 45.2809 14.656C45.6169 14.824 46.0889 14.908 46.6969 14.908C47.0009 14.908 47.3089 14.88 47.6209 14.824C47.9409 14.768 48.2129 14.696 48.4369 14.608V15.76C48.1729 15.88 47.8649 15.968 47.5129 16.024C47.1609 16.088 46.7769 16.12 46.3609 16.12ZM44.6569 12.724H47.3569V12.412C47.3569 12.084 47.2609 11.828 47.0689 11.644C46.8769 11.452 46.5529 11.356 46.0969 11.356C45.5609 11.356 45.1849 11.464 44.9689 11.68C44.7609 11.896 44.6569 12.244 44.6569 12.724ZM49.9008 16V10.312H51.4008L51.4608 10.852C51.6928 10.676 51.9848 10.524 52.3368 10.396C52.6968 10.26 53.0728 10.192 53.4648 10.192C54.2168 10.192 54.7648 10.368 55.1088 10.72C55.4528 11.072 55.6248 11.616 55.6248 12.352V16H54.0048V12.436C54.0048 12.052 53.9248 11.78 53.7648 11.62C53.6128 11.46 53.3248 11.38 52.9008 11.38C52.6528 11.38 52.4008 11.436 52.1448 11.548C51.8968 11.66 51.6888 11.8 51.5208 11.968V16H49.9008ZM59.1323 16.12C58.6283 16.12 58.1763 16.032 57.7763 15.856C57.3843 15.672 57.0763 15.376 56.8523 14.968C56.6283 14.552 56.5163 14.004 56.5163 13.324C56.5163 12.644 56.6403 12.072 56.8883 11.608C57.1363 11.144 57.4683 10.792 57.8843 10.552C58.3003 10.312 58.7563 10.192 59.2523 10.192C59.8763 10.192 60.4083 10.336 60.8483 10.624V7.912H62.4683V16H61.0763L60.9803 15.472C60.7323 15.688 60.4603 15.852 60.1643 15.964C59.8763 16.068 59.5323 16.12 59.1323 16.12ZM59.5763 14.932C60.0803 14.932 60.5043 14.76 60.8483 14.416V11.824C60.5123 11.528 60.1203 11.38 59.6723 11.38C58.6643 11.38 58.1603 12.028 58.1603 13.324C58.1603 13.932 58.2843 14.352 58.5323 14.584C58.7803 14.816 59.1283 14.932 59.5763 14.932ZM64.2304 9.268V7.996H65.9944V9.268H64.2304ZM64.3624 16V11.512H63.5104L63.6544 10.312H65.9824V16H64.3624ZM67.3617 16V10.312H68.8617L68.9217 10.852C69.1537 10.676 69.4457 10.524 69.7977 10.396C70.1577 10.26 70.5337 10.192 70.9257 10.192C71.6777 10.192 72.2257 10.368 72.5697 10.72C72.9137 11.072 73.0857 11.616 73.0857 12.352V16H71.4657V12.436C71.4657 12.052 71.3857 11.78 71.2257 11.62C71.0737 11.46 70.7857 11.38 70.3617 11.38C70.1137 11.38 69.8617 11.436 69.6057 11.548C69.3577 11.66 69.1497 11.8 68.9817 11.968V16H67.3617ZM76.8047 18.112C76.3807 18.112 75.9447 18.084 75.4967 18.028C75.0567 17.972 74.6847 17.892 74.3807 17.788V16.576C74.7007 16.68 75.0767 16.76 75.5087 16.816C75.9407 16.88 76.3447 16.912 76.7207 16.912C77.2727 16.912 77.6727 16.88 77.9207 16.816C78.1687 16.76 78.2927 16.656 78.2927 16.504C78.2927 16.376 78.2367 16.288 78.1247 16.24C78.0207 16.192 77.7967 16.168 77.4527 16.168H75.9047C74.8887 16.168 74.3807 15.792 74.3807 15.04C74.3807 14.808 74.4447 14.596 74.5727 14.404C74.7007 14.212 74.9047 14.06 75.1847 13.948C74.5367 13.62 74.2127 13.068 74.2127 12.292C74.2127 11.556 74.4407 11.024 74.8967 10.696C75.3527 10.36 76.0287 10.192 76.9247 10.192C77.1087 10.192 77.3087 10.208 77.5247 10.24C77.7487 10.264 77.9167 10.288 78.0287 10.312H80.1647L80.1287 11.332H79.2287C79.4767 11.564 79.6007 11.888 79.6007 12.304C79.6007 12.888 79.4167 13.356 79.0487 13.708C78.6807 14.052 78.1367 14.224 77.4167 14.224C77.2887 14.224 77.1647 14.22 77.0447 14.212C76.9327 14.196 76.8167 14.18 76.6967 14.164C76.4567 14.196 76.2527 14.252 76.0847 14.332C75.9247 14.412 75.8447 14.52 75.8447 14.656C75.8447 14.84 76.0087 14.932 76.3367 14.932H77.9447C78.5207 14.932 78.9647 15.064 79.2767 15.328C79.5887 15.584 79.7447 15.96 79.7447 16.456C79.7447 17.016 79.4927 17.432 78.9887 17.704C78.4847 17.976 77.7567 18.112 76.8047 18.112ZM76.9367 13.312C77.4167 13.312 77.7487 13.232 77.9327 13.072C78.1247 12.904 78.2207 12.624 78.2207 12.232C78.2207 11.84 78.1247 11.556 77.9327 11.38C77.7487 11.204 77.4167 11.116 76.9367 11.116C76.4807 11.116 76.1527 11.204 75.9527 11.38C75.7527 11.548 75.6527 11.832 75.6527 12.232C75.6527 12.6 75.7447 12.872 75.9287 13.048C76.1207 13.224 76.4567 13.312 76.9367 13.312Z" fill="#9C6808"/>
<defs>
<clipPath id="clip0_799_4976">
<rect width="16" height="16" fill="white" transform="translate(15.5 4)"/>
</clipPath>
</defs>
</svg>
