<svg width="96" height="24" viewBox="0 0 96 24" fill="none" xmlns="http://www.w3.org/2000/svg">
<path d="M0 12C0 5.37258 5.37258 0 12 0H84C90.6274 0 96 5.37258 96 12C96 18.6274 90.6274 24 84 24H12C5.37258 24 0 18.6274 0 12Z" fill="#ECEDF1"/>
<g clip-path="url(#clip0_799_4975)">
<path d="M16.38 15.68L22.02 10.04L20.9 8.92L16.38 13.44L14.1 11.16L12.98 12.28L16.38 15.68ZM17.5 20C16.3933 20 15.3533 19.7899 14.38 19.3696C13.4067 18.9493 12.56 18.3795 11.84 17.66C11.12 16.9405 10.5501 16.0939 10.1304 15.12C9.71067 14.1461 9.50053 13.1061 9.5 12C9.49947 10.8939 9.7096 9.85387 10.1304 8.88C10.5512 7.90613 11.1211 7.05947 11.84 6.34C12.5589 5.62053 13.4056 5.05067 14.38 4.6304C15.3544 4.21013 16.3944 4 17.5 4C18.6056 4 19.6456 4.21013 20.62 4.6304C21.5944 5.05067 22.4411 5.62053 23.16 6.34C23.8789 7.05947 24.4491 7.90613 24.8704 8.88C25.2917 9.85387 25.5016 10.8939 25.5 12C25.4984 13.1061 25.2883 14.1461 24.8696 15.12C24.4509 16.0939 23.8811 16.9405 23.16 17.66C22.4389 18.3795 21.5923 18.9496 20.62 19.3704C19.6477 19.7912 18.6077 20.0011 17.5 20Z" fill="#4C4B4D"/>
</g>
<path d="M30.2426 16V8.272H33.8666C34.4746 8.272 34.9706 8.388 35.3546 8.62C35.7466 8.852 36.0386 9.168 36.2306 9.568C36.4226 9.968 36.5186 10.424 36.5186 10.936C36.5186 11.456 36.4066 11.916 36.1826 12.316C35.9666 12.716 35.6546 13.028 35.2466 13.252C34.8466 13.468 34.3706 13.576 33.8186 13.576H31.8626V16H30.2426ZM31.8626 12.292H33.4826C33.9466 12.292 34.2946 12.172 34.5266 11.932C34.7666 11.684 34.8866 11.352 34.8866 10.936C34.8866 10.488 34.7746 10.148 34.5506 9.916C34.3266 9.676 33.9906 9.556 33.5426 9.556H31.8626V12.292ZM39.5145 16.12C38.8345 16.12 38.3025 15.932 37.9185 15.556C37.5425 15.172 37.3545 14.612 37.3545 13.876V10.312H38.9745V13.84C38.9745 14.224 39.0665 14.504 39.2505 14.68C39.4345 14.848 39.7105 14.932 40.0785 14.932C40.3585 14.932 40.6145 14.876 40.8465 14.764C41.0865 14.652 41.2905 14.512 41.4585 14.344V10.312H43.0785V16H41.5785L41.5185 15.46C41.2785 15.652 40.9945 15.812 40.6665 15.94C40.3465 16.06 39.9625 16.12 39.5145 16.12ZM44.4574 16V10.312H45.9574L46.0294 10.9C46.2854 10.74 46.6014 10.596 46.9774 10.468C47.3614 10.332 47.7374 10.24 48.1054 10.192V11.416C47.8894 11.448 47.6534 11.496 47.3974 11.56C47.1414 11.624 46.8974 11.696 46.6654 11.776C46.4334 11.856 46.2374 11.94 46.0774 12.028V16H44.4574ZM51.6036 16.12C50.5876 16.12 49.8076 15.868 49.2636 15.364C48.7276 14.86 48.4596 14.124 48.4596 13.156C48.4596 12.156 48.7476 11.412 49.3236 10.924C49.9076 10.436 50.6836 10.192 51.6516 10.192C52.0516 10.192 52.3956 10.22 52.6836 10.276C52.9716 10.332 53.2516 10.424 53.5236 10.552V11.716C53.3236 11.62 53.0916 11.544 52.8276 11.488C52.5636 11.432 52.2796 11.404 51.9756 11.404C51.3676 11.404 50.9036 11.532 50.5836 11.788C50.2636 12.036 50.1036 12.492 50.1036 13.156C50.1036 13.764 50.2476 14.208 50.5356 14.488C50.8316 14.768 51.3076 14.908 51.9636 14.908C52.2436 14.908 52.5156 14.88 52.7796 14.824C53.0516 14.768 53.3036 14.684 53.5356 14.572V15.772C52.9996 16.004 52.3556 16.12 51.6036 16.12ZM54.559 16V7.912H56.179V10.792C56.411 10.616 56.695 10.472 57.031 10.36C57.367 10.248 57.731 10.192 58.123 10.192C58.875 10.192 59.423 10.368 59.767 10.72C60.111 11.072 60.283 11.616 60.283 12.352V16H58.663V12.436C58.663 12.052 58.583 11.78 58.423 11.62C58.271 11.46 57.983 11.38 57.559 11.38C57.311 11.38 57.059 11.436 56.803 11.548C56.555 11.66 56.347 11.8 56.179 11.968V16H54.559ZM63.2142 16.12C62.8542 16.12 62.5182 16.056 62.2062 15.928C61.9022 15.792 61.6542 15.596 61.4622 15.34C61.2782 15.076 61.1862 14.748 61.1862 14.356C61.1862 13.796 61.3822 13.348 61.7742 13.012C62.1742 12.676 62.7622 12.508 63.5382 12.508H65.2182V12.352C65.2182 12 65.1182 11.752 64.9182 11.608C64.7262 11.464 64.3342 11.392 63.7422 11.392C63.0942 11.392 62.4702 11.492 61.8702 11.692V10.552C62.1342 10.448 62.4542 10.364 62.8302 10.3C63.2142 10.228 63.6302 10.192 64.0782 10.192C64.9342 10.192 65.5942 10.368 66.0582 10.72C66.5302 11.064 66.7662 11.62 66.7662 12.388V16H65.3622L65.2782 15.484C65.0542 15.684 64.7782 15.84 64.4502 15.952C64.1222 16.064 63.7102 16.12 63.2142 16.12ZM63.6582 15.052C64.0182 15.052 64.3302 14.992 64.5942 14.872C64.8582 14.752 65.0662 14.6 65.2182 14.416V13.516H63.5742C62.9422 13.516 62.6262 13.776 62.6262 14.296C62.6262 14.8 62.9702 15.052 63.6582 15.052ZM70.0747 16.12C69.6507 16.12 69.2467 16.088 68.8627 16.024C68.4787 15.968 68.1707 15.896 67.9387 15.808V14.464C68.2187 14.576 68.5347 14.664 68.8867 14.728C69.2387 14.784 69.5627 14.812 69.8587 14.812C70.2587 14.812 70.5387 14.788 70.6987 14.74C70.8667 14.692 70.9507 14.584 70.9507 14.416C70.9507 14.224 70.8227 14.084 70.5667 13.996C70.3187 13.908 69.9467 13.784 69.4507 13.624C68.9307 13.448 68.5307 13.236 68.2507 12.988C67.9707 12.74 67.8307 12.372 67.8307 11.884C67.8307 11.34 68.0267 10.924 68.4187 10.636C68.8187 10.34 69.4587 10.192 70.3387 10.192C70.6907 10.192 71.0227 10.22 71.3347 10.276C71.6467 10.324 71.9107 10.384 72.1267 10.456V11.788C71.9107 11.684 71.6627 11.608 71.3827 11.56C71.1027 11.504 70.8427 11.476 70.6027 11.476C70.2587 11.476 69.9827 11.5 69.7747 11.548C69.5747 11.596 69.4747 11.7 69.4747 11.86C69.4747 12.036 69.5827 12.16 69.7987 12.232C70.0227 12.304 70.3667 12.412 70.8307 12.556C71.2867 12.692 71.6427 12.84 71.8987 13C72.1547 13.16 72.3347 13.352 72.4387 13.576C72.5427 13.792 72.5947 14.064 72.5947 14.392C72.5947 15.544 71.7547 16.12 70.0747 16.12ZM76.5074 16.12C75.5234 16.12 74.7434 15.876 74.1674 15.388C73.5914 14.892 73.3034 14.144 73.3034 13.144C73.3034 12.24 73.5434 11.524 74.0234 10.996C74.5114 10.46 75.2354 10.192 76.1954 10.192C77.0754 10.192 77.7474 10.424 78.2114 10.888C78.6834 11.344 78.9194 11.944 78.9194 12.688V13.72H74.8034C74.8914 14.176 75.0994 14.488 75.4274 14.656C75.7634 14.824 76.2354 14.908 76.8434 14.908C77.1474 14.908 77.4554 14.88 77.7674 14.824C78.0874 14.768 78.3594 14.696 78.5834 14.608V15.76C78.3194 15.88 78.0114 15.968 77.6594 16.024C77.3074 16.088 76.9234 16.12 76.5074 16.12ZM74.8034 12.724H77.5034V12.412C77.5034 12.084 77.4074 11.828 77.2154 11.644C77.0234 11.452 76.6994 11.356 76.2434 11.356C75.7074 11.356 75.3314 11.464 75.1154 11.68C74.9074 11.896 74.8034 12.244 74.8034 12.724ZM82.4233 16.12C81.9193 16.12 81.4673 16.032 81.0673 15.856C80.6753 15.672 80.3673 15.376 80.1433 14.968C79.9193 14.552 79.8073 14.004 79.8073 13.324C79.8073 12.644 79.9313 12.072 80.1793 11.608C80.4273 11.144 80.7593 10.792 81.1753 10.552C81.5913 10.312 82.0473 10.192 82.5433 10.192C83.1673 10.192 83.6993 10.336 84.1393 10.624V7.912H85.7593V16H84.3673L84.2713 15.472C84.0233 15.688 83.7513 15.852 83.4553 15.964C83.1673 16.068 82.8233 16.12 82.4233 16.12ZM82.8673 14.932C83.3713 14.932 83.7953 14.76 84.1393 14.416V11.824C83.8033 11.528 83.4113 11.38 82.9633 11.38C81.9553 11.38 81.4513 12.028 81.4513 13.324C81.4513 13.932 81.5753 14.352 81.8233 14.584C82.0713 14.816 82.4193 14.932 82.8673 14.932Z" fill="#5A6370"/>
<defs>
<clipPath id="clip0_799_4975">
<rect width="16" height="16" fill="white" transform="translate(9.5 4)"/>
</clipPath>
</defs>
</svg>
