<svg width="1680" height="104" viewBox="0 0 1680 104" fill="none" xmlns="http://www.w3.org/2000/svg">
<path d="M49.893 47.26H38.902V51.581H48.588V55.641H38.902V63.5H34.436V43.2H49.893V47.26ZM67.0784 56.163C67.0784 56.598 67.0494 56.859 67.0204 57.265H56.2034C56.6384 59.266 58.0304 60.31 60.0024 60.31C61.4814 60.31 62.5544 59.846 63.7724 58.715L66.2954 60.948C64.8454 62.746 62.7574 63.848 59.9444 63.848C55.2754 63.848 51.8244 60.571 51.8244 55.815V55.757C51.8244 51.32 54.9854 47.666 59.5094 47.666C64.7004 47.666 67.0784 51.697 67.0784 56.105V56.163ZM62.7864 54.51C62.5254 52.538 61.3654 51.204 59.5094 51.204C57.6824 51.204 56.4934 52.509 56.1454 54.51H62.7864ZM85.9946 63.5H81.5866V61.267C80.5136 62.717 79.0346 63.79 76.7436 63.79C73.1186 63.79 69.6676 60.948 69.6676 55.757V55.699C69.6676 50.508 73.0606 47.666 76.7436 47.666C79.0926 47.666 80.5426 48.739 81.5866 49.986V42.33H85.9946V63.5ZM81.6446 55.757V55.699C81.6446 53.118 79.9336 51.407 77.8746 51.407C75.8156 51.407 74.0756 53.089 74.0756 55.699V55.757C74.0756 58.338 75.8156 60.049 77.8746 60.049C79.9336 60.049 81.6446 58.338 81.6446 55.757ZM105.854 63.5H90.3969V43.2H105.709V47.173H94.8339V51.291H104.404V55.264H94.8339V59.527H105.854V63.5ZM123.658 63.5H118.931L115.799 58.657L112.667 63.5H108.056L113.508 55.612L108.259 47.956H112.986L115.886 52.48L118.815 47.956H123.426L118.177 55.525L123.658 63.5ZM140.124 63.5H135.658V43.2H140.124V63.5ZM158.972 63.5H154.564V54.829C154.564 52.741 153.578 51.668 151.896 51.668C150.214 51.668 149.141 52.741 149.141 54.829V63.5H144.733V47.956H149.141V50.16C150.156 48.855 151.461 47.666 153.694 47.666C157.029 47.666 158.972 49.87 158.972 53.437V63.5ZM177.083 47.956L170.964 63.616H166.962L160.843 47.956H165.512L168.992 58.367L172.501 47.956H177.083ZM194.811 55.757C194.811 60.223 191.215 63.848 186.372 63.848C181.558 63.848 177.991 60.281 177.991 55.815V55.757C177.991 51.291 181.587 47.666 186.43 47.666C191.244 47.666 194.811 51.233 194.811 55.699V55.757ZM190.461 55.815V55.757C190.461 53.466 188.808 51.465 186.372 51.465C183.849 51.465 182.341 53.408 182.341 55.699V55.757C182.341 58.048 183.994 60.049 186.43 60.049C188.953 60.049 190.461 58.106 190.461 55.815ZM202.73 46.245H198.09V42.33H202.73V46.245ZM202.614 63.5H198.206V47.956H202.614V63.5ZM220.442 61.006C218.934 62.659 217.194 63.848 214.091 63.848C209.422 63.848 206 60.252 206 55.815V55.757C206 51.32 209.393 47.666 214.149 47.666C217.078 47.666 218.905 48.652 220.355 50.276L217.658 53.176C216.672 52.132 215.686 51.465 214.12 51.465C211.916 51.465 210.35 53.408 210.35 55.699V55.757C210.35 58.135 211.887 60.049 214.294 60.049C215.773 60.049 216.788 59.411 217.861 58.396L220.442 61.006ZM237.397 56.163C237.397 56.598 237.368 56.859 237.339 57.265H226.522C226.957 59.266 228.349 60.31 230.321 60.31C231.8 60.31 232.873 59.846 234.091 58.715L236.614 60.948C235.164 62.746 233.076 63.848 230.263 63.848C225.594 63.848 222.143 60.571 222.143 55.815V55.757C222.143 51.32 225.304 47.666 229.828 47.666C235.019 47.666 237.397 51.697 237.397 56.105V56.163ZM233.105 54.51C232.844 52.538 231.684 51.204 229.828 51.204C228.001 51.204 226.812 52.509 226.464 54.51H233.105ZM252.079 58.773C252.079 62.224 249.498 63.79 246.134 63.79C243.959 63.79 241.523 63.065 239.464 61.441L241.349 58.541C243.031 59.759 244.8 60.397 246.25 60.397C247.526 60.397 248.106 59.933 248.106 59.237V59.179C248.106 58.222 246.598 57.903 244.887 57.381C242.712 56.743 240.247 55.728 240.247 52.712V52.654C240.247 49.493 242.799 47.724 245.931 47.724C247.903 47.724 250.049 48.391 251.731 49.522L250.049 52.567C248.512 51.668 246.975 51.117 245.844 51.117C244.771 51.117 244.22 51.581 244.22 52.19V52.248C244.22 53.118 245.699 53.524 247.381 54.104C249.556 54.829 252.079 55.873 252.079 58.715V58.773Z" fill="#1E293B"/>
<path d="M658 36.5C658 34.2909 659.791 32.5 662 32.5H1134C1136.21 32.5 1138 34.2909 1138 36.5V67.5C1138 69.7091 1136.21 71.5 1134 71.5H662C659.791 71.5 658 69.7091 658 67.5V36.5Z" fill="#F9FAFC"/>
<path d="M687.917 55.835C686.264 55.835 684.864 55.2621 683.719 54.1162C682.574 52.9703 682.001 51.5708 682 49.9175C681.999 48.2642 682.572 46.8647 683.719 45.7188C684.865 44.5729 686.265 44 687.917 44C689.57 44 690.97 44.5729 692.117 45.7188C693.264 46.8647 693.837 48.2642 693.835 49.9175C693.835 50.5851 693.729 51.2148 693.516 51.8065C693.304 52.3983 693.016 52.9218 692.651 53.377L697.75 58.4751C697.917 58.642 698 58.8544 698 59.1124C698 59.3703 697.917 59.5827 697.75 59.7496C697.583 59.9165 697.37 60 697.112 60C696.854 60 696.642 59.9165 696.475 59.7496L691.377 54.6515C690.922 55.0156 690.398 55.3039 689.807 55.5164C689.215 55.7288 688.585 55.835 687.917 55.835ZM687.917 54.0142C689.055 54.0142 690.023 53.6161 690.82 52.8198C691.617 52.0235 692.015 51.0561 692.014 49.9175C692.014 48.7789 691.615 47.8118 690.82 47.0161C690.024 46.2204 689.057 45.822 687.917 45.8208C686.778 45.8196 685.811 46.218 685.016 47.0161C684.221 47.8142 683.823 48.7813 683.821 49.9175C683.819 51.0537 684.217 52.0211 685.016 52.8198C685.815 53.6185 686.782 54.0167 687.917 54.0142Z" fill="#A9ACB9"/>
<path d="M716.128 57.66C714.795 57.66 713.723 57.4893 712.912 57.148V55.612C713.371 55.7827 713.861 55.9213 714.384 56.028C714.917 56.1347 715.445 56.188 715.968 56.188C716.789 56.188 717.403 56.092 717.808 55.9C718.224 55.708 718.432 55.324 718.432 54.748C718.432 54.396 718.347 54.1133 718.176 53.9C718.005 53.6867 717.723 53.5053 717.328 53.356C716.933 53.196 716.389 53.0307 715.696 52.86C714.587 52.572 713.808 52.2093 713.36 51.772C712.912 51.324 712.688 50.7107 712.688 49.932C712.688 49.0253 713.019 48.316 713.68 47.804C714.341 47.292 715.328 47.036 716.64 47.036C717.237 47.036 717.797 47.0787 718.32 47.164C718.853 47.2493 719.269 47.3453 719.568 47.452V48.988C718.757 48.6787 717.861 48.524 716.88 48.524C716.112 48.524 715.515 48.6253 715.088 48.828C714.661 49.0307 714.448 49.3987 714.448 49.932C714.448 50.2413 714.523 50.492 714.672 50.684C714.821 50.876 715.077 51.0413 715.44 51.18C715.813 51.3187 716.325 51.4733 716.976 51.644C717.819 51.8573 718.469 52.1133 718.928 52.412C719.397 52.7 719.723 53.0413 719.904 53.436C720.096 53.82 720.192 54.2573 720.192 54.748C720.192 55.6547 719.856 56.3693 719.184 56.892C718.512 57.404 717.493 57.66 716.128 57.66ZM725.723 57.66C724.4 57.66 723.376 57.3347 722.651 56.684C721.926 56.0333 721.563 55.036 721.563 53.692C721.563 52.476 721.872 51.516 722.491 50.812C723.11 50.108 724.048 49.756 725.307 49.756C726.459 49.756 727.323 50.06 727.899 50.668C728.486 51.2653 728.779 52.0387 728.779 52.988V54.396H723.227C723.312 55.132 723.579 55.6387 724.027 55.916C724.475 56.1933 725.158 56.332 726.075 56.332C726.459 56.332 726.854 56.2947 727.259 56.22C727.664 56.1453 728.016 56.0493 728.315 55.932V57.212C727.974 57.3613 727.579 57.4733 727.131 57.548C726.694 57.6227 726.224 57.66 725.723 57.66ZM723.227 53.26H727.243V52.732C727.243 52.2093 727.099 51.804 726.811 51.516C726.523 51.2173 726.038 51.068 725.355 51.068C724.544 51.068 723.984 51.244 723.675 51.596C723.376 51.948 723.227 52.5027 723.227 53.26ZM732.845 57.66C732.365 57.66 731.917 57.5747 731.501 57.404C731.095 57.2333 730.77 56.9773 730.525 56.636C730.279 56.284 730.157 55.852 730.157 55.34C730.157 54.6147 730.402 54.0333 730.893 53.596C731.394 53.148 732.162 52.924 733.197 52.924H735.629V52.588C735.629 52.2253 735.57 51.9373 735.453 51.724C735.346 51.5107 735.143 51.356 734.845 51.26C734.557 51.164 734.13 51.116 733.565 51.116C732.669 51.116 731.831 51.2493 731.053 51.516V50.22C731.394 50.0813 731.81 49.9693 732.301 49.884C732.791 49.7987 733.319 49.756 733.885 49.756C734.994 49.756 735.837 49.98 736.413 50.428C736.999 50.876 737.293 51.6067 737.293 52.62V57.5H735.805L735.693 56.732C735.383 57.0307 734.999 57.26 734.541 57.42C734.093 57.58 733.527 57.66 732.845 57.66ZM733.309 56.412C733.831 56.412 734.285 56.3267 734.669 56.156C735.063 55.9747 735.383 55.7347 735.629 55.436V54.108H733.229C732.717 54.108 732.343 54.2093 732.109 54.412C731.885 54.604 731.773 54.9027 731.773 55.308C731.773 55.7027 731.906 55.9853 732.173 56.156C732.439 56.3267 732.818 56.412 733.309 56.412ZM739.227 57.5V49.916H740.827L740.923 50.796C741.285 50.5613 741.717 50.348 742.219 50.156C742.72 49.964 743.216 49.8307 743.707 49.756V51.084C743.408 51.1373 743.083 51.2173 742.731 51.324C742.389 51.42 742.064 51.532 741.755 51.66C741.445 51.7773 741.184 51.9 740.971 52.028V57.5H739.227ZM748.392 57.66C747.059 57.66 746.051 57.324 745.368 56.652C744.686 55.9693 744.344 54.988 744.344 53.708C744.344 52.3747 744.718 51.3827 745.464 50.732C746.222 50.0813 747.23 49.756 748.488 49.756C749.011 49.756 749.448 49.7933 749.8 49.868C750.163 49.9427 750.51 50.06 750.84 50.22V51.516C750.286 51.2387 749.614 51.1 748.824 51.1C747.95 51.1 747.278 51.2973 746.808 51.692C746.339 52.076 746.104 52.748 746.104 53.708C746.104 54.6147 746.312 55.2813 746.728 55.708C747.144 56.124 747.832 56.332 748.792 56.332C749.55 56.332 750.238 56.188 750.856 55.9V57.228C750.504 57.3667 750.126 57.4733 749.72 57.548C749.326 57.6227 748.883 57.66 748.392 57.66ZM752.242 57.5V46.716H753.986V50.652C754.317 50.3853 754.712 50.172 755.17 50.012C755.629 49.8413 756.146 49.756 756.722 49.756C757.682 49.756 758.392 49.9853 758.85 50.444C759.309 50.9027 759.538 51.6173 759.538 52.588V57.5H757.81V52.668C757.81 52.0813 757.682 51.6707 757.426 51.436C757.181 51.2013 756.749 51.084 756.13 51.084C755.746 51.084 755.357 51.1693 754.962 51.34C754.568 51.5 754.242 51.7133 753.986 51.98V57.5H752.242Z" fill="#A9ACB9"/>
<path d="M1109.91 52L1113.6 48.3044C1114.13 47.7772 1114.13 46.9225 1113.6 46.3954C1113.08 45.8682 1112.22 45.8682 1111.7 46.3954L1108 50.091L1104.3 46.3954C1103.78 45.8682 1102.92 45.8682 1102.4 46.3954C1101.87 46.9225 1101.87 47.7772 1102.4 48.3044L1106.09 52L1102.4 55.6956C1101.87 56.2228 1101.87 57.0775 1102.4 57.6046C1102.66 57.8682 1103 58 1103.35 58C1103.7 58 1104.04 57.8682 1104.3 57.6046L1108 53.909L1111.7 57.6046C1111.96 57.8682 1112.3 58 1112.65 58C1113 58 1113.34 57.8682 1113.6 57.6046C1114.13 57.0775 1114.13 56.2228 1113.6 55.6956L1109.91 52Z" fill="#A9ACB9"/>
<path d="M1546 32.5H1644C1645.93 32.5 1647.5 34.067 1647.5 36V68C1647.5 69.933 1645.93 71.5 1644 71.5H1546C1544.07 71.5 1542.5 69.933 1542.5 68V36C1542.5 34.067 1544.07 32.5 1546 32.5Z" fill="white"/>
<path d="M1546 32.5H1644C1645.93 32.5 1647.5 34.067 1647.5 36V68C1647.5 69.933 1645.93 71.5 1644 71.5H1546C1544.07 71.5 1542.5 69.933 1542.5 68V36C1542.5 34.067 1544.07 32.5 1546 32.5Z" stroke="#ECEDF1"/>
<path d="M1564.5 54V49.925L1563.2 51.225L1562.5 50.5L1565 48L1567.5 50.5L1566.8 51.225L1565.5 49.925V54H1564.5ZM1562 56C1561.72 56 1561.49 55.9022 1561.29 55.7065C1561.1 55.5108 1561 55.2753 1561 55V53.5H1562V55H1568V53.5H1569V55C1569 55.275 1568.9 55.5105 1568.71 55.7065C1568.51 55.9025 1568.28 56.0003 1568 56H1562Z" fill="#A9ACB9"/>
<g clip-path="url(#clip0_2633_32015)">
<path d="M1584.44 57.66C1583.02 57.66 1581.92 57.3187 1581.13 56.636C1580.35 55.9533 1579.96 54.9667 1579.96 53.676V47.196H1581.7V53.612C1581.7 54.476 1581.94 55.1213 1582.41 55.548C1582.89 55.9747 1583.56 56.188 1584.44 56.188C1585.3 56.188 1585.97 55.9747 1586.44 55.548C1586.92 55.1213 1587.16 54.476 1587.16 53.612V47.196H1588.89V53.676C1588.89 54.9667 1588.5 55.9533 1587.72 56.636C1586.94 57.3187 1585.85 57.66 1584.44 57.66ZM1590.82 60.956V49.916H1592.32L1592.42 50.668C1592.76 50.3587 1593.14 50.1293 1593.54 49.98C1593.95 49.8307 1594.43 49.756 1594.98 49.756C1596.07 49.756 1596.92 50.0547 1597.52 50.652C1598.13 51.2387 1598.44 52.2147 1598.44 53.58C1598.44 54.9453 1598.12 55.9693 1597.49 56.652C1596.86 57.324 1596 57.66 1594.92 57.66C1594 57.66 1593.22 57.4467 1592.56 57.02V60.956H1590.82ZM1594.47 56.348C1595.94 56.348 1596.68 55.42 1596.68 53.564C1596.68 52.668 1596.51 52.0333 1596.18 51.66C1595.85 51.276 1595.3 51.084 1594.52 51.084C1593.74 51.084 1593.09 51.3507 1592.56 51.884V55.676C1592.81 55.8787 1593.08 56.044 1593.38 56.172C1593.69 56.2893 1594.05 56.348 1594.47 56.348ZM1602.02 57.66C1601.4 57.66 1600.93 57.5107 1600.61 57.212C1600.29 56.9027 1600.13 56.396 1600.13 55.692V46.716H1601.88V55.532C1601.88 55.8307 1601.93 56.0333 1602.04 56.14C1602.14 56.2467 1602.3 56.3 1602.52 56.3C1602.77 56.3 1603.02 56.268 1603.25 56.204V57.468C1603.05 57.5427 1602.85 57.5907 1602.66 57.612C1602.48 57.644 1602.27 57.66 1602.02 57.66ZM1608.25 57.66C1606.88 57.66 1605.88 57.3187 1605.24 56.636C1604.61 55.9533 1604.3 54.9773 1604.3 53.708C1604.3 52.4387 1604.62 51.4627 1605.26 50.78C1605.9 50.0973 1606.89 49.756 1608.25 49.756C1609.61 49.756 1610.62 50.0973 1611.26 50.78C1611.9 51.4627 1612.22 52.4387 1612.22 53.708C1612.22 54.9773 1611.9 55.9533 1611.26 56.636C1610.63 57.3187 1609.63 57.66 1608.25 57.66ZM1608.25 56.188C1609.05 56.188 1609.61 55.996 1609.95 55.612C1610.29 55.2173 1610.46 54.5827 1610.46 53.708C1610.46 52.8333 1610.29 52.204 1609.95 51.82C1609.61 51.436 1609.05 51.244 1608.25 51.244C1607.46 51.244 1606.89 51.436 1606.55 51.82C1606.22 52.204 1606.06 52.8333 1606.06 53.708C1606.06 54.5827 1606.22 55.2173 1606.55 55.612C1606.89 55.996 1607.46 56.188 1608.25 56.188ZM1616.28 57.66C1615.8 57.66 1615.35 57.5747 1614.94 57.404C1614.53 57.2333 1614.21 56.9773 1613.96 56.636C1613.72 56.284 1613.59 55.852 1613.59 55.34C1613.59 54.6147 1613.84 54.0333 1614.33 53.596C1614.83 53.148 1615.6 52.924 1616.63 52.924H1619.07V52.588C1619.07 52.2253 1619.01 51.9373 1618.89 51.724C1618.78 51.5107 1618.58 51.356 1618.28 51.26C1617.99 51.164 1617.57 51.116 1617 51.116C1616.11 51.116 1615.27 51.2493 1614.49 51.516V50.22C1614.83 50.0813 1615.25 49.9693 1615.74 49.884C1616.23 49.7987 1616.76 49.756 1617.32 49.756C1618.43 49.756 1619.27 49.98 1619.85 50.428C1620.44 50.876 1620.73 51.6067 1620.73 52.62V57.5H1619.24L1619.13 56.732C1618.82 57.0307 1618.44 57.26 1617.98 57.42C1617.53 57.58 1616.96 57.66 1616.28 57.66ZM1616.75 56.412C1617.27 56.412 1617.72 56.3267 1618.11 56.156C1618.5 55.9747 1618.82 55.7347 1619.07 55.436V54.108H1616.67C1616.15 54.108 1615.78 54.2093 1615.55 54.412C1615.32 54.604 1615.21 54.9027 1615.21 55.308C1615.21 55.7027 1615.34 55.9853 1615.61 56.156C1615.88 56.3267 1616.26 56.412 1616.75 56.412ZM1625.8 57.66C1625.12 57.66 1624.51 57.5427 1623.99 57.308C1623.47 57.0733 1623.06 56.684 1622.78 56.14C1622.49 55.596 1622.34 54.8653 1622.34 53.948C1622.34 53.0413 1622.5 52.2787 1622.81 51.66C1623.12 51.0307 1623.54 50.556 1624.09 50.236C1624.64 49.916 1625.27 49.756 1625.96 49.756C1626.42 49.756 1626.82 49.8093 1627.18 49.916C1627.54 50.0227 1627.89 50.188 1628.22 50.412V46.716H1629.96V57.5H1628.47L1628.36 56.748C1628.02 57.0573 1627.65 57.2867 1627.24 57.436C1626.83 57.5853 1626.35 57.66 1625.8 57.66ZM1626.26 56.348C1627.04 56.348 1627.69 56.0813 1628.22 55.548V51.756C1627.71 51.308 1627.09 51.084 1626.33 51.084C1625.59 51.084 1625.04 51.3293 1624.66 51.82C1624.29 52.3107 1624.1 53.0253 1624.1 53.964C1624.1 54.8707 1624.27 55.4947 1624.62 55.836C1624.97 56.1773 1625.52 56.348 1626.26 56.348Z" fill="#A9ACB9"/>
</g>
<defs>
<clipPath id="clip0_2633_32015">
<rect width="52" height="19" fill="white" transform="translate(1579 42.5)"/>
</clipPath>
</defs>
</svg>
