<svg width="251" height="372" viewBox="0 0 251 372" fill="none" xmlns="http://www.w3.org/2000/svg">
<g clip-path="url(#clip0_2275_14357)">
<path d="M51.455 29.5H47.656L37.825 16.595V29.5H33.417V9.2H37.535L47.047 21.699V9.2H51.455V29.5ZM71.9301 21.757C71.9301 26.223 68.3341 29.848 63.4911 29.848C58.6771 29.848 55.1101 26.281 55.1101 21.815V21.757C55.1101 17.291 58.7061 13.666 63.5491 13.666C68.3631 13.666 71.9301 17.233 71.9301 21.699V21.757ZM67.5801 21.815V21.757C67.5801 19.466 65.9271 17.465 63.4911 17.465C60.9681 17.465 59.4601 19.408 59.4601 21.699V21.757C59.4601 24.048 61.1131 26.049 63.5491 26.049C66.0721 26.049 67.5801 24.106 67.5801 21.815ZM83.8509 28.862C82.9229 29.413 81.8499 29.761 80.3709 29.761C77.6739 29.761 75.8469 28.688 75.8469 25.092V17.726H73.9909V13.956H75.8469V9.983H80.2549V13.956H83.9089V17.726H80.2549V24.367C80.2549 25.382 80.6899 25.875 81.6759 25.875C82.4879 25.875 83.2129 25.672 83.8509 25.324V28.862ZM91.885 12.245H87.245V8.33H91.885V12.245ZM91.769 29.5H87.361V13.956H91.769V29.5ZM104.609 12.216C103.971 11.984 103.362 11.839 102.608 11.839C101.593 11.839 101.013 12.361 101.013 13.521V14.13H104.58V17.726H101.071V29.5H96.663V17.726H94.836V14.101H96.663V13.115C96.663 9.693 98.374 8.127 101.477 8.127C102.869 8.127 103.797 8.301 104.609 8.562V12.216ZM111.709 12.245H107.069V8.33H111.709V12.245ZM111.593 29.5H107.185V13.956H111.593V29.5ZM129.421 27.006C127.913 28.659 126.173 29.848 123.07 29.848C118.401 29.848 114.979 26.252 114.979 21.815V21.757C114.979 17.32 118.372 13.666 123.128 13.666C126.057 13.666 127.884 14.652 129.334 16.276L126.637 19.176C125.651 18.132 124.665 17.465 123.099 17.465C120.895 17.465 119.329 19.408 119.329 21.699V21.757C119.329 24.135 120.866 26.049 123.273 26.049C124.752 26.049 125.767 25.411 126.84 24.396L129.421 27.006ZM145.67 29.5H141.407V27.818C140.334 29.007 138.855 29.79 136.709 29.79C133.78 29.79 131.373 28.108 131.373 25.034V24.976C131.373 21.583 133.954 20.017 137.637 20.017C139.203 20.017 140.334 20.278 141.436 20.655V20.394C141.436 18.567 140.305 17.552 138.101 17.552C136.419 17.552 135.23 17.871 133.809 18.393L132.707 15.029C134.418 14.275 136.1 13.782 138.739 13.782C143.553 13.782 145.67 16.276 145.67 20.481V29.5ZM141.494 24.019V23.236C140.74 22.888 139.754 22.656 138.681 22.656C136.796 22.656 135.636 23.41 135.636 24.802V24.86C135.636 26.049 136.622 26.745 138.043 26.745C140.102 26.745 141.494 25.614 141.494 24.019ZM158.05 28.862C157.122 29.413 156.049 29.761 154.57 29.761C151.873 29.761 150.046 28.688 150.046 25.092V17.726H148.19V13.956H150.046V9.983H154.454V13.956H158.108V17.726H154.454V24.367C154.454 25.382 154.889 25.875 155.875 25.875C156.687 25.875 157.412 25.672 158.05 25.324V28.862ZM166.084 12.245H161.444V8.33H166.084V12.245ZM165.968 29.5H161.56V13.956H165.968V29.5ZM186.174 21.757C186.174 26.223 182.578 29.848 177.735 29.848C172.921 29.848 169.354 26.281 169.354 21.815V21.757C169.354 17.291 172.95 13.666 177.793 13.666C182.607 13.666 186.174 17.233 186.174 21.699V21.757ZM181.824 21.815V21.757C181.824 19.466 180.171 17.465 177.735 17.465C175.212 17.465 173.704 19.408 173.704 21.699V21.757C173.704 24.048 175.357 26.049 177.793 26.049C180.316 26.049 181.824 24.106 181.824 21.815ZM203.605 29.5H199.197V20.829C199.197 18.741 198.211 17.668 196.529 17.668C194.847 17.668 193.774 18.741 193.774 20.829V29.5H189.366V13.956H193.774V16.16C194.789 14.855 196.094 13.666 198.327 13.666C201.662 13.666 203.605 15.87 203.605 19.437V29.5ZM218.831 24.773C218.831 28.224 216.25 29.79 212.886 29.79C210.711 29.79 208.275 29.065 206.216 27.441L208.101 24.541C209.783 25.759 211.552 26.397 213.002 26.397C214.278 26.397 214.858 25.933 214.858 25.237V25.179C214.858 24.222 213.35 23.903 211.639 23.381C209.464 22.743 206.999 21.728 206.999 18.712V18.654C206.999 15.493 209.551 13.724 212.683 13.724C214.655 13.724 216.801 14.391 218.483 15.522L216.801 18.567C215.264 17.668 213.727 17.117 212.596 17.117C211.523 17.117 210.972 17.581 210.972 18.19V18.248C210.972 19.118 212.451 19.524 214.133 20.104C216.308 20.829 218.831 21.873 218.831 24.715V24.773Z" fill="#1E293B"/>
<path d="M41.5 52.5H116.5C118.433 52.5 120 54.067 120 56V72C120 73.933 118.433 75.5 116.5 75.5H41.5C39.567 75.5 38 73.933 38 72V56C38 54.067 39.567 52.5 41.5 52.5Z" fill="white"/>
<path d="M41.5 52.5H116.5C118.433 52.5 120 54.067 120 56V72C120 73.933 118.433 75.5 116.5 75.5H41.5C39.567 75.5 38 73.933 38 72V56C38 54.067 39.567 52.5 41.5 52.5Z" stroke="#ECEDF1"/>
<g clip-path="url(#clip1_2275_14357)">
<path d="M50.6905 69.66C49.3572 69.66 48.2852 69.4893 47.4745 69.148V67.612C47.9332 67.7827 48.4238 67.9213 48.9465 68.028C49.4798 68.1347 50.0078 68.188 50.5305 68.188C51.3518 68.188 51.9652 68.092 52.3705 67.9C52.7865 67.708 52.9945 67.324 52.9945 66.748C52.9945 66.396 52.9092 66.1133 52.7385 65.9C52.5678 65.6867 52.2852 65.5053 51.8905 65.356C51.4958 65.196 50.9518 65.0307 50.2585 64.86C49.1492 64.572 48.3705 64.2093 47.9225 63.772C47.4745 63.324 47.2505 62.7107 47.2505 61.932C47.2505 61.0253 47.5812 60.316 48.2425 59.804C48.9038 59.292 49.8905 59.036 51.2025 59.036C51.7998 59.036 52.3598 59.0787 52.8825 59.164C53.4158 59.2493 53.8318 59.3453 54.1305 59.452V60.988C53.3198 60.6787 52.4238 60.524 51.4425 60.524C50.6745 60.524 50.0772 60.6253 49.6505 60.828C49.2238 61.0307 49.0105 61.3987 49.0105 61.932C49.0105 62.2413 49.0852 62.492 49.2345 62.684C49.3838 62.876 49.6398 63.0413 50.0025 63.18C50.3758 63.3187 50.8878 63.4733 51.5385 63.644C52.3812 63.8573 53.0318 64.1133 53.4905 64.412C53.9598 64.7 54.2852 65.0413 54.4665 65.436C54.6585 65.82 54.7545 66.2573 54.7545 66.748C54.7545 67.6547 54.4185 68.3693 53.7465 68.892C53.0745 69.404 52.0558 69.66 50.6905 69.66ZM60.2855 69.66C58.9628 69.66 57.9388 69.3347 57.2135 68.684C56.4882 68.0333 56.1255 67.036 56.1255 65.692C56.1255 64.476 56.4348 63.516 57.0535 62.812C57.6722 62.108 58.6108 61.756 59.8695 61.756C61.0215 61.756 61.8855 62.06 62.4615 62.668C63.0482 63.2653 63.3415 64.0387 63.3415 64.988V66.396H57.7895C57.8748 67.132 58.1415 67.6387 58.5895 67.916C59.0375 68.1933 59.7202 68.332 60.6375 68.332C61.0215 68.332 61.4162 68.2947 61.8215 68.22C62.2268 68.1453 62.5788 68.0493 62.8775 67.932V69.212C62.5362 69.3613 62.1415 69.4733 61.6935 69.548C61.2562 69.6227 60.7868 69.66 60.2855 69.66ZM57.7895 65.26H61.8055V64.732C61.8055 64.2093 61.6615 63.804 61.3735 63.516C61.0855 63.2173 60.6002 63.068 59.9175 63.068C59.1068 63.068 58.5468 63.244 58.2375 63.596C57.9388 63.948 57.7895 64.5027 57.7895 65.26ZM66.9273 69.66C66.3086 69.66 65.8393 69.5107 65.5193 69.212C65.1993 68.9027 65.0393 68.396 65.0393 67.692V58.716H66.7833V67.532C66.7833 67.8307 66.8366 68.0333 66.9433 68.14C67.0499 68.2467 67.2099 68.3 67.4233 68.3C67.6793 68.3 67.9246 68.268 68.1593 68.204V69.468C67.9566 69.5427 67.7593 69.5907 67.5673 69.612C67.3859 69.644 67.1726 69.66 66.9273 69.66ZM73.3636 69.66C72.041 69.66 71.017 69.3347 70.2916 68.684C69.5663 68.0333 69.2036 67.036 69.2036 65.692C69.2036 64.476 69.513 63.516 70.1316 62.812C70.7503 62.108 71.689 61.756 72.9476 61.756C74.0996 61.756 74.9636 62.06 75.5396 62.668C76.1263 63.2653 76.4196 64.0387 76.4196 64.988V66.396H70.8676C70.953 67.132 71.2196 67.6387 71.6676 67.916C72.1156 68.1933 72.7983 68.332 73.7156 68.332C74.0996 68.332 74.4943 68.2947 74.8996 68.22C75.305 68.1453 75.657 68.0493 75.9556 67.932V69.212C75.6143 69.3613 75.2196 69.4733 74.7716 69.548C74.3343 69.6227 73.865 69.66 73.3636 69.66ZM70.8676 65.26H74.8836V64.732C74.8836 64.2093 74.7396 63.804 74.4516 63.516C74.1636 63.2173 73.6783 63.068 72.9956 63.068C72.185 63.068 71.625 63.244 71.3156 63.596C71.017 63.948 70.8676 64.5027 70.8676 65.26ZM81.8454 69.66C80.512 69.66 79.504 69.324 78.8214 68.652C78.1387 67.9693 77.7974 66.988 77.7974 65.708C77.7974 64.3747 78.1707 63.3827 78.9174 62.732C79.6747 62.0813 80.6827 61.756 81.9414 61.756C82.464 61.756 82.9014 61.7933 83.2534 61.868C83.616 61.9427 83.9627 62.06 84.2934 62.22V63.516C83.7387 63.2387 83.0667 63.1 82.2774 63.1C81.4027 63.1 80.7307 63.2973 80.2614 63.692C79.792 64.076 79.5574 64.748 79.5574 65.708C79.5574 66.6147 79.7654 67.2813 80.1814 67.708C80.5974 68.124 81.2854 68.332 82.2454 68.332C83.0027 68.332 83.6907 68.188 84.3094 67.9V69.228C83.9574 69.3667 83.5787 69.4733 83.1734 69.548C82.7787 69.6227 82.336 69.66 81.8454 69.66ZM88.5915 69.66C87.7808 69.66 87.1728 69.4467 86.7675 69.02C86.3728 68.5827 86.1755 67.9907 86.1755 67.244V63.276H85.0555V61.916H86.1755V60.172L87.9035 59.644V61.916H89.9195L89.8075 63.276H87.9035V67.148C87.9035 67.5853 88.0048 67.8947 88.2075 68.076C88.4102 68.2467 88.7408 68.332 89.1995 68.332C89.4875 68.332 89.7915 68.2787 90.1115 68.172V69.404C89.6955 69.5747 89.1888 69.66 88.5915 69.66ZM97.501 69.66C97.021 69.66 96.573 69.5747 96.157 69.404C95.7517 69.2333 95.4263 68.9773 95.181 68.636C94.9357 68.284 94.813 67.852 94.813 67.34C94.813 66.6147 95.0583 66.0333 95.549 65.596C96.0503 65.148 96.8183 64.924 97.853 64.924H100.285V64.588C100.285 64.2253 100.226 63.9373 100.109 63.724C100.002 63.5107 99.7997 63.356 99.501 63.26C99.213 63.164 98.7863 63.116 98.221 63.116C97.325 63.116 96.4877 63.2493 95.709 63.516V62.22C96.0503 62.0813 96.4663 61.9693 96.957 61.884C97.4477 61.7987 97.9757 61.756 98.541 61.756C99.6503 61.756 100.493 61.98 101.069 62.428C101.656 62.876 101.949 63.6067 101.949 64.62V69.5H100.461L100.349 68.732C100.04 69.0307 99.6557 69.26 99.197 69.42C98.749 69.58 98.1837 69.66 97.501 69.66ZM97.965 68.412C98.4877 68.412 98.941 68.3267 99.325 68.156C99.7197 67.9747 100.04 67.7347 100.285 67.436V66.108H97.885C97.373 66.108 96.9997 66.2093 96.765 66.412C96.541 66.604 96.429 66.9027 96.429 67.308C96.429 67.7027 96.5623 67.9853 96.829 68.156C97.0957 68.3267 97.4743 68.412 97.965 68.412ZM105.771 69.66C105.152 69.66 104.683 69.5107 104.363 69.212C104.043 68.9027 103.883 68.396 103.883 67.692V58.716H105.627V67.532C105.627 67.8307 105.68 68.0333 105.787 68.14C105.894 68.2467 106.054 68.3 106.267 68.3C106.523 68.3 106.768 68.268 107.003 68.204V69.468C106.8 69.5427 106.603 69.5907 106.411 69.612C106.23 69.644 106.016 69.66 105.771 69.66ZM109.849 69.66C109.23 69.66 108.761 69.5107 108.441 69.212C108.121 68.9027 107.961 68.396 107.961 67.692V58.716H109.705V67.532C109.705 67.8307 109.758 68.0333 109.865 68.14C109.972 68.2467 110.132 68.3 110.345 68.3C110.601 68.3 110.846 68.268 111.081 68.204V69.468C110.878 69.5427 110.681 69.5907 110.489 69.612C110.308 69.644 110.094 69.66 109.849 69.66Z" fill="#A9ACB9"/>
</g>
<path d="M140.5 52.5H209.5C211.433 52.5 213 54.067 213 56V72C213 73.933 211.433 75.5 209.5 75.5H140.5C138.567 75.5 137 73.933 137 72V56C137 54.067 138.567 52.5 140.5 52.5Z" fill="white"/>
<path d="M140.5 52.5H209.5C211.433 52.5 213 54.067 213 56V72C213 73.933 211.433 75.5 209.5 75.5H140.5C138.567 75.5 137 73.933 137 72V56C137 54.067 138.567 52.5 140.5 52.5Z" stroke="#ECEDF1"/>
<g clip-path="url(#clip2_2275_14357)">
<path d="M151.778 69.66C150.082 69.66 148.796 69.196 147.922 68.268C147.058 67.34 146.626 66.0867 146.626 64.508C146.626 63.3773 146.807 62.4067 147.17 61.596C147.543 60.7747 148.108 60.1453 148.866 59.708C149.623 59.26 150.588 59.036 151.762 59.036C152.359 59.036 152.903 59.084 153.394 59.18C153.895 59.2653 154.359 59.3827 154.786 59.532V61.052C154.359 60.8813 153.9 60.7533 153.41 60.668C152.93 60.572 152.423 60.524 151.89 60.524C150.61 60.524 149.703 60.8653 149.17 61.548C148.647 62.2307 148.386 63.2173 148.386 64.508C148.386 65.7133 148.674 66.6307 149.25 67.26C149.826 67.8787 150.716 68.188 151.922 68.188C152.412 68.188 152.903 68.1507 153.394 68.076C153.895 67.9907 154.364 67.8627 154.802 67.692V69.228C154.375 69.3667 153.911 69.4733 153.41 69.548C152.919 69.6227 152.375 69.66 151.778 69.66ZM158.38 69.66C157.762 69.66 157.292 69.5107 156.972 69.212C156.652 68.9027 156.492 68.396 156.492 67.692V58.716H158.236V67.532C158.236 67.8307 158.29 68.0333 158.396 68.14C158.503 68.2467 158.663 68.3 158.876 68.3C159.132 68.3 159.378 68.268 159.612 68.204V69.468C159.41 69.5427 159.212 69.5907 159.02 69.612C158.839 69.644 158.626 69.66 158.38 69.66ZM164.817 69.66C163.494 69.66 162.47 69.3347 161.745 68.684C161.019 68.0333 160.657 67.036 160.657 65.692C160.657 64.476 160.966 63.516 161.585 62.812C162.203 62.108 163.142 61.756 164.401 61.756C165.553 61.756 166.417 62.06 166.993 62.668C167.579 63.2653 167.873 64.0387 167.873 64.988V66.396H162.321C162.406 67.132 162.673 67.6387 163.121 67.916C163.569 68.1933 164.251 68.332 165.169 68.332C165.553 68.332 165.947 68.2947 166.353 68.22C166.758 68.1453 167.11 68.0493 167.409 67.932V69.212C167.067 69.3613 166.673 69.4733 166.225 69.548C165.787 69.6227 165.318 69.66 164.817 69.66ZM162.321 65.26H166.337V64.732C166.337 64.2093 166.193 63.804 165.905 63.516C165.617 63.2173 165.131 63.068 164.449 63.068C163.638 63.068 163.078 63.244 162.769 63.596C162.47 63.948 162.321 64.5027 162.321 65.26ZM171.939 69.66C171.459 69.66 171.011 69.5747 170.595 69.404C170.189 69.2333 169.864 68.9773 169.618 68.636C169.373 68.284 169.251 67.852 169.251 67.34C169.251 66.6147 169.496 66.0333 169.987 65.596C170.488 65.148 171.256 64.924 172.291 64.924H174.723V64.588C174.723 64.2253 174.664 63.9373 174.547 63.724C174.44 63.5107 174.237 63.356 173.939 63.26C173.651 63.164 173.224 63.116 172.659 63.116C171.763 63.116 170.925 63.2493 170.147 63.516V62.22C170.488 62.0813 170.904 61.9693 171.395 61.884C171.885 61.7987 172.413 61.756 172.979 61.756C174.088 61.756 174.931 61.98 175.507 62.428C176.093 62.876 176.387 63.6067 176.387 64.62V69.5H174.899L174.787 68.732C174.477 69.0307 174.093 69.26 173.635 69.42C173.187 69.58 172.621 69.66 171.939 69.66ZM172.403 68.412C172.925 68.412 173.379 68.3267 173.763 68.156C174.157 67.9747 174.477 67.7347 174.723 67.436V66.108H172.323C171.811 66.108 171.437 66.2093 171.203 66.412C170.979 66.604 170.867 66.9027 170.867 67.308C170.867 67.7027 171 67.9853 171.267 68.156C171.533 68.3267 171.912 68.412 172.403 68.412ZM178.321 69.5V61.916H179.921L180.017 62.796C180.379 62.5613 180.811 62.348 181.312 62.156C181.814 61.964 182.31 61.8307 182.801 61.756V63.084C182.502 63.1373 182.177 63.2173 181.825 63.324C181.483 63.42 181.158 63.532 180.849 63.66C180.539 63.7773 180.278 63.9 180.065 64.028V69.5H178.321ZM190.126 69.66C189.646 69.66 189.198 69.5747 188.782 69.404C188.377 69.2333 188.051 68.9773 187.806 68.636C187.561 68.284 187.438 67.852 187.438 67.34C187.438 66.6147 187.683 66.0333 188.174 65.596C188.675 65.148 189.443 64.924 190.478 64.924H192.91V64.588C192.91 64.2253 192.851 63.9373 192.734 63.724C192.627 63.5107 192.425 63.356 192.126 63.26C191.838 63.164 191.411 63.116 190.846 63.116C189.95 63.116 189.113 63.2493 188.334 63.516V62.22C188.675 62.0813 189.091 61.9693 189.582 61.884C190.073 61.7987 190.601 61.756 191.166 61.756C192.275 61.756 193.118 61.98 193.694 62.428C194.281 62.876 194.574 63.6067 194.574 64.62V69.5H193.086L192.974 68.732C192.665 69.0307 192.281 69.26 191.822 69.42C191.374 69.58 190.809 69.66 190.126 69.66ZM190.59 68.412C191.113 68.412 191.566 68.3267 191.95 68.156C192.345 67.9747 192.665 67.7347 192.91 67.436V66.108H190.51C189.998 66.108 189.625 66.2093 189.39 66.412C189.166 66.604 189.054 66.9027 189.054 67.308C189.054 67.7027 189.187 67.9853 189.454 68.156C189.721 68.3267 190.099 68.412 190.59 68.412ZM198.396 69.66C197.777 69.66 197.308 69.5107 196.988 69.212C196.668 68.9027 196.508 68.396 196.508 67.692V58.716H198.252V67.532C198.252 67.8307 198.305 68.0333 198.412 68.14C198.519 68.2467 198.679 68.3 198.892 68.3C199.148 68.3 199.393 68.268 199.628 68.204V69.468C199.425 69.5427 199.228 69.5907 199.036 69.612C198.855 69.644 198.641 69.66 198.396 69.66ZM202.474 69.66C201.855 69.66 201.386 69.5107 201.066 69.212C200.746 68.9027 200.586 68.396 200.586 67.692V58.716H202.33V67.532C202.33 67.8307 202.383 68.0333 202.49 68.14C202.597 68.2467 202.757 68.3 202.97 68.3C203.226 68.3 203.471 68.268 203.706 68.204V69.468C203.503 69.5427 203.306 69.5907 203.114 69.612C202.933 69.644 202.719 69.66 202.474 69.66Z" fill="#A9ACB9"/>
</g>
<rect x="0.5" y="92.5" width="250" height="279" rx="4.5" fill="white"/>
<rect x="0.5" y="92.5" width="250" height="279" rx="4.5" stroke="#ECEDF1"/>
<g clip-path="url(#clip3_2275_14357)">
<mask id="path-7-inside-1_2275_14357" fill="white">
<path d="M1 93H250V117H1V93Z"/>
</mask>
<path d="M250 117V116H1V117V118H250V117Z" fill="#ECEDF1" mask="url(#path-7-inside-1_2275_14357)"/>
<path d="M15 97H27C28.1051 97 29 97.8949 29 99V111C29 111.53 28.7893 112.039 28.4142 112.414C28.0391 112.789 27.5304 113 27 113H15C14.4696 113 13.9609 112.789 13.5858 112.414C13.2107 112.039 13 111.53 13 111V99C13 97.8949 13.8949 97 15 97ZM25.32 103.034C25.3995 102.955 25.4626 102.86 25.5057 102.756C25.5487 102.652 25.5709 102.541 25.5709 102.429C25.5709 102.316 25.5487 102.205 25.5057 102.101C25.4626 101.997 25.3995 101.902 25.32 101.823C25.2405 101.743 25.146 101.68 25.0421 101.637C24.9382 101.594 24.8268 101.572 24.7143 101.572C24.6018 101.572 24.4904 101.594 24.3865 101.637C24.2825 101.68 24.1881 101.743 24.1086 101.823L19.5714 106.359L17.8914 104.68C17.7308 104.519 17.5129 104.429 17.2857 104.429C17.0585 104.429 16.8406 104.519 16.68 104.68C16.5194 104.841 16.4291 105.059 16.4291 105.286C16.4291 105.398 16.4513 105.51 16.4943 105.614C16.5374 105.717 16.6005 105.812 16.68 105.891L18.9657 108.177C19.1264 108.338 19.3443 108.428 19.5714 108.428C19.7986 108.428 20.0164 108.338 20.1771 108.177L25.32 103.034Z" fill="#1E293B"/>
<path d="M42.3029 110V100.984H43.8289V108.824H48.4489V110H42.3029ZM49.3924 110L52.8364 100.984H54.5444L57.9604 110H56.3924L55.4964 107.676H51.8704L50.9744 110H49.3924ZM52.1084 106.5H55.2444L53.6764 102.37L52.1084 106.5Z" fill="#1E293B"/>
<path d="M229 102.5L234 107.5L239 102.5" stroke="#1E293B" stroke-width="2" stroke-linecap="round" stroke-linejoin="round"/>
<mask id="path-12-inside-2_2275_14357" fill="white">
<path d="M1 117H250V141H1V117Z"/>
</mask>
<path d="M250 141V140H1V141V142H250V141Z" fill="#ECEDF1" mask="url(#path-12-inside-2_2275_14357)"/>
<path d="M15 121H27C28.1051 121 29 121.895 29 123V135C29 135.53 28.7893 136.039 28.4142 136.414C28.0391 136.789 27.5304 137 27 137H15C14.4696 137 13.9609 136.789 13.5858 136.414C13.2107 136.039 13 135.53 13 135V123C13 121.895 13.8949 121 15 121ZM25.32 127.034C25.3995 126.955 25.4626 126.86 25.5057 126.756C25.5487 126.652 25.5709 126.541 25.5709 126.429C25.5709 126.316 25.5487 126.205 25.5057 126.101C25.4626 125.997 25.3995 125.902 25.32 125.823C25.2405 125.743 25.146 125.68 25.0421 125.637C24.9382 125.594 24.8268 125.572 24.7143 125.572C24.6018 125.572 24.4904 125.594 24.3865 125.637C24.2825 125.68 24.1881 125.743 24.1086 125.823L19.5714 130.359L17.8914 128.68C17.7308 128.519 17.5129 128.429 17.2857 128.429C17.0585 128.429 16.8406 128.519 16.68 128.68C16.5194 128.841 16.4291 129.059 16.4291 129.286C16.4291 129.398 16.4513 129.51 16.4943 129.614C16.5374 129.717 16.6005 129.812 16.68 129.891L18.9657 132.177C19.1264 132.338 19.3443 132.428 19.5714 132.428C19.7986 132.428 20.0164 132.338 20.1771 132.177L25.32 127.034Z" fill="#1E293B"/>
<path d="M59.8032 134.14C59.4298 134.14 59.0798 134.107 58.7532 134.042C58.4358 133.986 58.1558 133.911 57.9132 133.818V132.838C58.1372 132.931 58.4078 133.011 58.7252 133.076C59.0425 133.141 59.3552 133.174 59.6632 133.174C60.3258 133.174 60.7832 133.034 61.0352 132.754C61.2872 132.474 61.4132 132.035 61.4132 131.438V124.984H62.5612V131.522C62.5612 132.343 62.3325 132.987 61.8752 133.454C61.4272 133.911 60.7365 134.14 59.8032 134.14ZM66.5058 134.14C66.0858 134.14 65.6984 134.065 65.3438 133.916C64.9891 133.767 64.7044 133.547 64.4898 133.258C64.2751 132.959 64.1678 132.586 64.1678 132.138C64.1678 131.531 64.3684 131.037 64.7698 130.654C65.1711 130.262 65.8244 130.066 66.7298 130.066H69.0398V129.66C69.0398 129.296 68.9884 129.007 68.8858 128.792C68.7924 128.577 68.6104 128.423 68.3398 128.33C68.0691 128.237 67.6724 128.19 67.1498 128.19C66.7484 128.19 66.3611 128.223 65.9878 128.288C65.6144 128.353 65.2644 128.442 64.9378 128.554V127.602C65.2364 127.49 65.5864 127.401 65.9878 127.336C66.3984 127.261 66.8371 127.224 67.3038 127.224C68.2464 127.224 68.9511 127.415 69.4178 127.798C69.8938 128.181 70.1318 128.801 70.1318 129.66V134H69.1658L69.0818 133.244C68.7924 133.543 68.4424 133.767 68.0318 133.916C67.6211 134.065 67.1124 134.14 66.5058 134.14ZM66.7998 133.202C67.2851 133.202 67.7144 133.118 68.0878 132.95C68.4611 132.773 68.7784 132.535 69.0398 132.236V130.948H66.7578C66.2351 130.948 65.8618 131.046 65.6378 131.242C65.4138 131.438 65.3018 131.737 65.3018 132.138C65.3018 132.539 65.4371 132.819 65.7078 132.978C65.9784 133.127 66.3424 133.202 66.7998 133.202ZM75.284 134.14C74.0987 134.14 73.212 133.855 72.624 133.286C72.036 132.717 71.742 131.839 71.742 130.654C71.742 129.59 71.994 128.755 72.498 128.148C73.0113 127.532 73.8187 127.224 74.92 127.224C75.5733 127.224 76.11 127.345 76.53 127.588C76.9593 127.821 77.2767 128.148 77.482 128.568C77.6967 128.979 77.804 129.445 77.804 129.968V131.214H72.89C72.9273 131.718 73.0347 132.115 73.212 132.404C73.3987 132.693 73.674 132.903 74.038 133.034C74.4113 133.155 74.9013 133.216 75.508 133.216C76.1893 133.216 76.8147 133.099 77.384 132.866V133.762C77.0947 133.883 76.768 133.977 76.404 134.042C76.0493 134.107 75.676 134.14 75.284 134.14ZM72.89 130.388H76.782V129.842C76.782 129.301 76.6373 128.885 76.348 128.596C76.068 128.297 75.6013 128.148 74.948 128.148C74.1547 128.148 73.6133 128.335 73.324 128.708C73.0347 129.081 72.89 129.641 72.89 130.388Z" fill="#1E293B"/>
<mask id="path-16-inside-3_2275_14357" fill="white">
<path d="M1 141H250V165H1V141Z"/>
</mask>
<path d="M250 165V164H1V165V166H250V165Z" fill="#ECEDF1" mask="url(#path-16-inside-3_2275_14357)"/>
<path d="M15 145H27C28.1051 145 29 145.895 29 147V159C29 159.53 28.7893 160.039 28.4142 160.414C28.0391 160.789 27.5304 161 27 161H15C14.4696 161 13.9609 160.789 13.5858 160.414C13.2107 160.039 13 159.53 13 159V147C13 145.895 13.8949 145 15 145ZM25.32 151.034C25.3995 150.955 25.4626 150.86 25.5057 150.756C25.5487 150.652 25.5709 150.541 25.5709 150.429C25.5709 150.316 25.5487 150.205 25.5057 150.101C25.4626 149.997 25.3995 149.902 25.32 149.823C25.2405 149.743 25.146 149.68 25.0421 149.637C24.9382 149.594 24.8268 149.572 24.7143 149.572C24.6018 149.572 24.4904 149.594 24.3865 149.637C24.2825 149.68 24.1881 149.743 24.1086 149.823L19.5714 154.359L17.8914 152.68C17.7308 152.519 17.5129 152.429 17.2857 152.429C17.0585 152.429 16.8406 152.519 16.68 152.68C16.5194 152.841 16.4291 153.059 16.4291 153.286C16.4291 153.398 16.4513 153.51 16.4943 153.614C16.5374 153.717 16.6005 153.812 16.68 153.891L18.9657 156.177C19.1264 156.338 19.3443 156.428 19.5714 156.428C19.7986 156.428 20.0164 156.338 20.1771 156.177L25.32 151.034Z" fill="#1E293B"/>
<path d="M60.7207 158.14C59.6007 158.14 58.6954 158 58.0047 157.72V156.698C58.3967 156.847 58.8121 156.964 59.2507 157.048C59.6987 157.123 60.1561 157.16 60.6227 157.16C61.4254 157.16 62.0274 157.053 62.4287 156.838C62.8301 156.614 63.0307 156.217 63.0307 155.648C63.0307 155.293 62.9467 155.013 62.7787 154.808C62.6201 154.593 62.3541 154.416 61.9807 154.276C61.6074 154.127 61.1081 153.977 60.4827 153.828C59.4934 153.585 58.7981 153.273 58.3967 152.89C57.9954 152.498 57.7947 151.975 57.7947 151.322C57.7947 150.557 58.0701 149.955 58.6207 149.516C59.1714 149.068 60.0114 148.844 61.1407 148.844C61.6634 148.844 62.1487 148.881 62.5967 148.956C63.0447 149.031 63.3901 149.11 63.6327 149.194V150.202C63.2967 150.081 62.9327 149.987 62.5407 149.922C62.1487 149.857 61.7427 149.824 61.3227 149.824C60.5574 149.824 59.9694 149.936 59.5587 150.16C59.1481 150.384 58.9427 150.771 58.9427 151.322C58.9427 151.63 59.0127 151.882 59.1527 152.078C59.3021 152.265 59.5494 152.428 59.8947 152.568C60.2401 152.699 60.7207 152.839 61.3367 152.988C62.0741 153.165 62.6481 153.38 63.0587 153.632C63.4694 153.875 63.7587 154.164 63.9267 154.5C64.0947 154.836 64.1787 155.219 64.1787 155.648C64.1787 156.441 63.8894 157.057 63.3107 157.496C62.7321 157.925 61.8687 158.14 60.7207 158.14ZM68.0709 158.14C67.4176 158.14 66.9229 157.967 66.5869 157.622C66.2603 157.267 66.0969 156.777 66.0969 156.152V152.274H65.0889V151.364H66.0969V149.726L67.2449 149.376V151.364H69.0789L69.0089 152.274H67.2449V156.096C67.2449 156.497 67.3336 156.787 67.5109 156.964C67.6976 157.132 68.0149 157.216 68.4629 157.216C68.7056 157.216 68.9716 157.169 69.2609 157.076V157.944C68.9156 158.075 68.5189 158.14 68.0709 158.14ZM73.8465 158.14C72.6612 158.14 71.7745 157.855 71.1865 157.286C70.5985 156.717 70.3045 155.839 70.3045 154.654C70.3045 153.59 70.5565 152.755 71.0605 152.148C71.5738 151.532 72.3812 151.224 73.4825 151.224C74.1358 151.224 74.6725 151.345 75.0925 151.588C75.5218 151.821 75.8392 152.148 76.0445 152.568C76.2592 152.979 76.3665 153.445 76.3665 153.968V155.214H71.4525C71.4898 155.718 71.5972 156.115 71.7745 156.404C71.9612 156.693 72.2365 156.903 72.6005 157.034C72.9738 157.155 73.4638 157.216 74.0705 157.216C74.7518 157.216 75.3772 157.099 75.9465 156.866V157.762C75.6572 157.883 75.3305 157.977 74.9665 158.042C74.6118 158.107 74.2385 158.14 73.8465 158.14ZM71.4525 154.388H75.3445V153.842C75.3445 153.301 75.1998 152.885 74.9105 152.596C74.6305 152.297 74.1638 152.148 73.5105 152.148C72.7172 152.148 72.1758 152.335 71.8865 152.708C71.5972 153.081 71.4525 153.641 71.4525 154.388ZM79.6077 158L77.0037 151.364H78.1937L80.2517 156.936L82.3097 151.364H83.4997L80.8957 158H79.6077ZM87.6824 158.14C86.4971 158.14 85.6104 157.855 85.0224 157.286C84.4344 156.717 84.1404 155.839 84.1404 154.654C84.1404 153.59 84.3924 152.755 84.8964 152.148C85.4098 151.532 86.2171 151.224 87.3184 151.224C87.9718 151.224 88.5084 151.345 88.9284 151.588C89.3578 151.821 89.6751 152.148 89.8804 152.568C90.0951 152.979 90.2024 153.445 90.2024 153.968V155.214H85.2884C85.3258 155.718 85.4331 156.115 85.6104 156.404C85.7971 156.693 86.0724 156.903 86.4364 157.034C86.8098 157.155 87.2998 157.216 87.9064 157.216C88.5878 157.216 89.2131 157.099 89.7824 156.866V157.762C89.4931 157.883 89.1664 157.977 88.8024 158.042C88.4478 158.107 88.0744 158.14 87.6824 158.14ZM85.2884 154.388H89.1804V153.842C89.1804 153.301 89.0358 152.885 88.7464 152.596C88.4664 152.297 87.9998 152.148 87.3464 152.148C86.5531 152.148 86.0118 152.335 85.7224 152.708C85.4331 153.081 85.2884 153.641 85.2884 154.388Z" fill="#1E293B"/>
<mask id="path-20-inside-4_2275_14357" fill="white">
<path d="M1 165H250V189H1V165Z"/>
</mask>
<path d="M250 189V188H1V189V190H250V189Z" fill="#ECEDF1" mask="url(#path-20-inside-4_2275_14357)"/>
<path d="M15 169H27C28.1051 169 29 169.895 29 171V183C29 183.53 28.7893 184.039 28.4142 184.414C28.0391 184.789 27.5304 185 27 185H15C14.4696 185 13.9609 184.789 13.5858 184.414C13.2107 184.039 13 183.53 13 183V171C13 169.895 13.8949 169 15 169ZM25.32 175.034C25.3995 174.955 25.4626 174.86 25.5057 174.756C25.5487 174.652 25.5709 174.541 25.5709 174.429C25.5709 174.316 25.5487 174.205 25.5057 174.101C25.4626 173.997 25.3995 173.902 25.32 173.823C25.2405 173.743 25.146 173.68 25.0421 173.637C24.9382 173.594 24.8268 173.572 24.7143 173.572C24.6018 173.572 24.4904 173.594 24.3865 173.637C24.2825 173.68 24.1881 173.743 24.1086 173.823L19.5714 178.359L17.8914 176.68C17.7308 176.519 17.5129 176.429 17.2857 176.429C17.0585 176.429 16.8406 176.519 16.68 176.68C16.5194 176.841 16.4291 177.059 16.4291 177.286C16.4291 177.398 16.4513 177.51 16.4943 177.614C16.5374 177.717 16.6005 177.812 16.68 177.891L18.9657 180.177C19.1264 180.338 19.3443 180.428 19.5714 180.428C19.7986 180.428 20.0164 180.338 20.1771 180.177L25.32 175.034Z" fill="#1E293B"/>
<path d="M58.147 182V172.984H59.295V181.104H64.097V182H58.147ZM65.559 184.464C65.1203 184.464 64.7377 184.403 64.411 184.282V183.358C64.5697 183.414 64.7143 183.451 64.845 183.47C64.985 183.489 65.125 183.498 65.265 183.498C65.5823 183.498 65.8297 183.442 66.007 183.33C66.1937 183.218 66.357 183.045 66.497 182.812C66.637 182.588 66.791 182.294 66.959 181.93L64.033 175.364H65.223L67.533 180.712L69.913 175.364H71.089L68.303 181.706C68.0697 182.238 67.8317 182.709 67.589 183.12C67.3463 183.54 67.0663 183.867 66.749 184.1C66.4317 184.343 66.035 184.464 65.559 184.464ZM72.4888 182V175.364H73.5248L73.5948 176.12C73.9121 175.859 74.2808 175.644 74.7008 175.476C75.1301 175.308 75.6201 175.224 76.1708 175.224C77.0108 175.224 77.6221 175.42 78.0048 175.812C78.3875 176.204 78.5788 176.82 78.5788 177.66V182H77.4308V177.702C77.4308 177.123 77.3141 176.722 77.0808 176.498C76.8475 176.265 76.3995 176.148 75.7368 176.148C75.3261 176.148 74.9388 176.223 74.5748 176.372C74.2108 176.521 73.8981 176.727 73.6368 176.988V182H72.4888ZM82.9704 182.14C82.0371 182.14 81.3044 181.883 80.7724 181.37C80.2404 180.847 79.9744 179.984 79.9744 178.78C79.9744 177.585 80.2497 176.694 80.8004 176.106C81.3604 175.518 82.1071 175.224 83.0404 175.224C83.8711 175.224 84.5897 175.434 85.1964 175.854V172.564H86.3444V182H85.3644L85.2804 181.3C84.9724 181.589 84.6317 181.804 84.2584 181.944C83.8944 182.075 83.4651 182.14 82.9704 182.14ZM83.2644 181.216C83.6471 181.216 84.0017 181.151 84.3284 181.02C84.6551 180.889 84.9444 180.689 85.1964 180.418V176.806C84.9631 176.601 84.6877 176.442 84.3704 176.33C84.0531 176.209 83.6937 176.148 83.2924 176.148C82.5551 176.148 82.0091 176.363 81.6544 176.792C81.2997 177.212 81.1224 177.875 81.1224 178.78C81.1224 179.648 81.2857 180.273 81.6124 180.656C81.9391 181.029 82.4897 181.216 83.2644 181.216ZM90.2968 182.14C89.8768 182.14 89.4895 182.065 89.1348 181.916C88.7801 181.767 88.4955 181.547 88.2808 181.258C88.0661 180.959 87.9588 180.586 87.9588 180.138C87.9588 179.531 88.1595 179.037 88.5608 178.654C88.9621 178.262 89.6155 178.066 90.5208 178.066H92.8308V177.66C92.8308 177.296 92.7795 177.007 92.6768 176.792C92.5835 176.577 92.4015 176.423 92.1308 176.33C91.8601 176.237 91.4635 176.19 90.9408 176.19C90.5395 176.19 90.1521 176.223 89.7788 176.288C89.4055 176.353 89.0555 176.442 88.7288 176.554V175.602C89.0275 175.49 89.3775 175.401 89.7788 175.336C90.1895 175.261 90.6281 175.224 91.0948 175.224C92.0375 175.224 92.7421 175.415 93.2088 175.798C93.6848 176.181 93.9228 176.801 93.9228 177.66V182H92.9568L92.8728 181.244C92.5835 181.543 92.2335 181.767 91.8228 181.916C91.4121 182.065 90.9035 182.14 90.2968 182.14ZM90.5908 181.202C91.0761 181.202 91.5055 181.118 91.8788 180.95C92.2521 180.773 92.5695 180.535 92.8308 180.236V178.948H90.5488C90.0261 178.948 89.6528 179.046 89.4288 179.242C89.2048 179.438 89.0928 179.737 89.0928 180.138C89.0928 180.539 89.2281 180.819 89.4988 180.978C89.7695 181.127 90.1335 181.202 90.5908 181.202Z" fill="#1E293B"/>
<mask id="path-24-inside-5_2275_14357" fill="white">
<path d="M1 189H250V213H1V189Z"/>
</mask>
<path d="M250 213V212H1V213V214H250V213Z" fill="#ECEDF1" mask="url(#path-24-inside-5_2275_14357)"/>
<path d="M15 193H27C28.1051 193 29 193.895 29 195V207C29 207.53 28.7893 208.039 28.4142 208.414C28.0391 208.789 27.5304 209 27 209H15C14.4696 209 13.9609 208.789 13.5858 208.414C13.2107 208.039 13 207.53 13 207V195C13 193.895 13.8949 193 15 193ZM25.32 199.034C25.3995 198.955 25.4626 198.86 25.5057 198.756C25.5487 198.652 25.5709 198.541 25.5709 198.429C25.5709 198.316 25.5487 198.205 25.5057 198.101C25.4626 197.997 25.3995 197.902 25.32 197.823C25.2405 197.743 25.146 197.68 25.0421 197.637C24.9382 197.594 24.8268 197.572 24.7143 197.572C24.6018 197.572 24.4904 197.594 24.3865 197.637C24.2825 197.68 24.1881 197.743 24.1086 197.823L19.5714 202.359L17.8914 200.68C17.7308 200.519 17.5129 200.429 17.2857 200.429C17.0585 200.429 16.8406 200.519 16.68 200.68C16.5194 200.841 16.4291 201.059 16.4291 201.286C16.4291 201.398 16.4513 201.51 16.4943 201.614C16.5374 201.717 16.6005 201.812 16.68 201.891L18.9657 204.177C19.1264 204.338 19.3443 204.428 19.5714 204.428C19.7986 204.428 20.0164 204.338 20.1771 204.177L25.32 199.034Z" fill="#1E293B"/>
<path d="M60.9151 206.14C59.7951 206.14 58.8897 206 58.1991 205.72V204.698C58.5911 204.847 59.0064 204.964 59.4451 205.048C59.8931 205.123 60.3504 205.16 60.8171 205.16C61.6197 205.16 62.2217 205.053 62.6231 204.838C63.0244 204.614 63.2251 204.217 63.2251 203.648C63.2251 203.293 63.1411 203.013 62.9731 202.808C62.8144 202.593 62.5484 202.416 62.1751 202.276C61.8017 202.127 61.3024 201.977 60.6771 201.828C59.6877 201.585 58.9924 201.273 58.5911 200.89C58.1897 200.498 57.9891 199.975 57.9891 199.322C57.9891 198.557 58.2644 197.955 58.8151 197.516C59.3657 197.068 60.2057 196.844 61.3351 196.844C61.8577 196.844 62.3431 196.881 62.7911 196.956C63.2391 197.031 63.5844 197.11 63.8271 197.194V198.202C63.4911 198.081 63.1271 197.987 62.7351 197.922C62.3431 197.857 61.9371 197.824 61.5171 197.824C60.7517 197.824 60.1637 197.936 59.7531 198.16C59.3424 198.384 59.1371 198.771 59.1371 199.322C59.1371 199.63 59.2071 199.882 59.3471 200.078C59.4964 200.265 59.7437 200.428 60.0891 200.568C60.4344 200.699 60.9151 200.839 61.5311 200.988C62.2684 201.165 62.8424 201.38 63.2531 201.632C63.6637 201.875 63.9531 202.164 64.1211 202.5C64.2891 202.836 64.3731 203.219 64.3731 203.648C64.3731 204.441 64.0837 205.057 63.5051 205.496C62.9264 205.925 62.0631 206.14 60.9151 206.14ZM66.0484 206V196.564H67.1964V200.078C67.5044 199.826 67.8637 199.621 68.2744 199.462C68.6944 199.303 69.1797 199.224 69.7304 199.224C70.533 199.224 71.135 199.42 71.5364 199.812C71.9377 200.204 72.1384 200.82 72.1384 201.66V206H70.9904V201.702C70.9904 201.123 70.8597 200.722 70.5984 200.498C70.3464 200.265 69.9264 200.148 69.3384 200.148C68.965 200.148 68.5777 200.232 68.1764 200.4C67.7844 200.559 67.4577 200.769 67.1964 201.03V206H66.0484ZM77.076 206.14C75.8907 206.14 75.004 205.855 74.416 205.286C73.828 204.717 73.534 203.839 73.534 202.654C73.534 201.59 73.786 200.755 74.29 200.148C74.8033 199.532 75.6107 199.224 76.712 199.224C77.3653 199.224 77.902 199.345 78.322 199.588C78.7513 199.821 79.0687 200.148 79.274 200.568C79.4887 200.979 79.596 201.445 79.596 201.968V203.214H74.682C74.7193 203.718 74.8267 204.115 75.004 204.404C75.1907 204.693 75.466 204.903 75.83 205.034C76.2033 205.155 76.6933 205.216 77.3 205.216C77.9813 205.216 78.6067 205.099 79.176 204.866V205.762C78.8867 205.883 78.56 205.977 78.196 206.042C77.8413 206.107 77.468 206.14 77.076 206.14ZM74.682 202.388H78.574V201.842C78.574 201.301 78.4293 200.885 78.14 200.596C77.86 200.297 77.3933 200.148 76.74 200.148C75.9467 200.148 75.4053 200.335 75.116 200.708C74.8267 201.081 74.682 201.641 74.682 202.388ZM81.2788 206V199.364H82.3148L82.3988 200.204C82.7255 199.989 83.1082 199.793 83.5468 199.616C83.9948 199.439 84.4335 199.308 84.8628 199.224V200.12C84.6015 200.176 84.3168 200.255 84.0088 200.358C83.7008 200.451 83.4068 200.559 83.1268 200.68C82.8468 200.801 82.6135 200.927 82.4268 201.058V206H81.2788ZM86.1187 206V199.364H87.1547L87.2387 200.204C87.5653 199.989 87.948 199.793 88.3867 199.616C88.8347 199.439 89.2733 199.308 89.7027 199.224V200.12C89.4413 200.176 89.1567 200.255 88.8487 200.358C88.5407 200.451 88.2467 200.559 87.9667 200.68C87.6867 200.801 87.4533 200.927 87.2667 201.058V206H86.1187ZM91.4518 197.81V196.76H92.7258V197.81H91.4518ZM91.5638 206V200.274H90.5418L90.6538 199.364H92.7118V206H91.5638Z" fill="#1E293B"/>
<mask id="path-28-inside-6_2275_14357" fill="white">
<path d="M1 213H250V237H1V213Z"/>
</mask>
<path d="M250 237V236H1V237V238H250V237Z" fill="#ECEDF1" mask="url(#path-28-inside-6_2275_14357)"/>
<path d="M15 217H27C28.1051 217 29 217.895 29 219V231C29 231.53 28.7893 232.039 28.4142 232.414C28.0391 232.789 27.5304 233 27 233H15C14.4696 233 13.9609 232.789 13.5858 232.414C13.2107 232.039 13 231.53 13 231V219C13 217.895 13.8949 217 15 217ZM25.32 223.034C25.3995 222.955 25.4626 222.86 25.5057 222.756C25.5487 222.652 25.5709 222.541 25.5709 222.429C25.5709 222.316 25.5487 222.205 25.5057 222.101C25.4626 221.997 25.3995 221.902 25.32 221.823C25.2405 221.743 25.146 221.68 25.0421 221.637C24.9382 221.594 24.8268 221.572 24.7143 221.572C24.6018 221.572 24.4904 221.594 24.3865 221.637C24.2825 221.68 24.1881 221.743 24.1086 221.823L19.5714 226.359L17.8914 224.68C17.7308 224.519 17.5129 224.429 17.2857 224.429C17.0585 224.429 16.8406 224.519 16.68 224.68C16.5194 224.841 16.4291 225.059 16.4291 225.286C16.4291 225.398 16.4513 225.51 16.4943 225.614C16.5374 225.717 16.6005 225.812 16.68 225.891L18.9657 228.177C19.1264 228.338 19.3443 228.428 19.5714 228.428C19.7986 228.428 20.0164 228.338 20.1771 228.177L25.32 223.034Z" fill="#1E293B"/>
<path d="M58.1307 230L61.5607 220.984H62.9047L66.3207 230H65.1447L64.1927 227.522H60.2727L59.3207 230H58.1307ZM60.4687 226.612H63.9827L62.2187 221.978L60.4687 226.612ZM70.0817 230.14C69.1484 230.14 68.4157 229.883 67.8837 229.37C67.3517 228.847 67.0857 227.984 67.0857 226.78C67.0857 225.585 67.3611 224.694 67.9117 224.106C68.4717 223.518 69.2184 223.224 70.1517 223.224C70.9824 223.224 71.7011 223.434 72.3077 223.854V220.564H73.4557V230H72.4757L72.3917 229.3C72.0837 229.589 71.7431 229.804 71.3697 229.944C71.0057 230.075 70.5764 230.14 70.0817 230.14ZM70.3757 229.216C70.7584 229.216 71.1131 229.151 71.4397 229.02C71.7664 228.889 72.0557 228.689 72.3077 228.418V224.806C72.0744 224.601 71.7991 224.442 71.4817 224.33C71.1644 224.209 70.8051 224.148 70.4037 224.148C69.6664 224.148 69.1204 224.363 68.7657 224.792C68.4111 225.212 68.2337 225.875 68.2337 226.78C68.2337 227.648 68.3971 228.273 68.7237 228.656C69.0504 229.029 69.6011 229.216 70.3757 229.216ZM75.4185 230V223.364H76.4545L76.5385 224.204C76.8651 223.989 77.2478 223.793 77.6865 223.616C78.1345 223.439 78.5731 223.308 79.0025 223.224V224.12C78.7411 224.176 78.4565 224.255 78.1485 224.358C77.8405 224.451 77.5465 224.559 77.2665 224.68C76.9865 224.801 76.7531 224.927 76.5665 225.058V230H75.4185ZM80.7516 221.81V220.76H82.0256V221.81H80.7516ZM80.8636 230V224.274H79.8416L79.9536 223.364H82.0116V230H80.8636ZM86.0487 230.14C85.6287 230.14 85.2414 230.065 84.8867 229.916C84.5321 229.767 84.2474 229.547 84.0327 229.258C83.8181 228.959 83.7107 228.586 83.7107 228.138C83.7107 227.531 83.9114 227.037 84.3127 226.654C84.7141 226.262 85.3674 226.066 86.2727 226.066H88.5827V225.66C88.5827 225.296 88.5314 225.007 88.4287 224.792C88.3354 224.577 88.1534 224.423 87.8827 224.33C87.6121 224.237 87.2154 224.19 86.6927 224.19C86.2914 224.19 85.9041 224.223 85.5307 224.288C85.1574 224.353 84.8074 224.442 84.4807 224.554V223.602C84.7794 223.49 85.1294 223.401 85.5307 223.336C85.9414 223.261 86.3801 223.224 86.8467 223.224C87.7894 223.224 88.4941 223.415 88.9607 223.798C89.4367 224.181 89.6747 224.801 89.6747 225.66V230H88.7087L88.6247 229.244C88.3354 229.543 87.9854 229.767 87.5747 229.916C87.1641 230.065 86.6554 230.14 86.0487 230.14ZM86.3427 229.202C86.8281 229.202 87.2574 229.118 87.6307 228.95C88.0041 228.773 88.3214 228.535 88.5827 228.236V226.948H86.3007C85.7781 226.948 85.4047 227.046 85.1807 227.242C84.9567 227.438 84.8447 227.737 84.8447 228.138C84.8447 228.539 84.9801 228.819 85.2507 228.978C85.5214 229.127 85.8854 229.202 86.3427 229.202ZM91.565 230V223.364H92.601L92.671 224.12C92.9883 223.859 93.357 223.644 93.777 223.476C94.2063 223.308 94.6963 223.224 95.247 223.224C96.087 223.224 96.6983 223.42 97.081 223.812C97.4636 224.204 97.655 224.82 97.655 225.66V230H96.507V225.702C96.507 225.123 96.3903 224.722 96.157 224.498C95.9236 224.265 95.4756 224.148 94.813 224.148C94.4023 224.148 94.015 224.223 93.651 224.372C93.287 224.521 92.9743 224.727 92.713 224.988V230H91.565Z" fill="#1E293B"/>
<mask id="path-32-inside-7_2275_14357" fill="white">
<path d="M1 237H250V261H1V237Z"/>
</mask>
<path d="M250 261V260H1V261V262H250V261Z" fill="#ECEDF1" mask="url(#path-32-inside-7_2275_14357)"/>
<path d="M15 241H27C28.1051 241 29 241.895 29 243V255C29 255.53 28.7893 256.039 28.4142 256.414C28.0391 256.789 27.5304 257 27 257H15C14.4696 257 13.9609 256.789 13.5858 256.414C13.2107 256.039 13 255.53 13 255V243C13 241.895 13.8949 241 15 241ZM25.32 247.034C25.3995 246.955 25.4626 246.86 25.5057 246.756C25.5487 246.652 25.5709 246.541 25.5709 246.429C25.5709 246.316 25.5487 246.205 25.5057 246.101C25.4626 245.997 25.3995 245.902 25.32 245.823C25.2405 245.743 25.146 245.68 25.0421 245.637C24.9382 245.594 24.8268 245.572 24.7143 245.572C24.6018 245.572 24.4904 245.594 24.3865 245.637C24.2825 245.68 24.1881 245.743 24.1086 245.823L19.5714 250.359L17.8914 248.68C17.7308 248.519 17.5129 248.429 17.2857 248.429C17.0585 248.429 16.8406 248.519 16.68 248.68C16.5194 248.841 16.4291 249.059 16.4291 249.286C16.4291 249.398 16.4513 249.51 16.4943 249.614C16.5374 249.717 16.6005 249.812 16.68 249.891L18.9657 252.177C19.1264 252.338 19.3443 252.428 19.5714 252.428C19.7986 252.428 20.0164 252.338 20.1771 252.177L25.32 247.034Z" fill="#1E293B"/>
<path d="M60.4287 254V245.894H57.4327V244.984H64.5727V245.894H61.5767V254H60.4287ZM66.8456 254.14C66.4256 254.14 66.0383 254.065 65.6836 253.916C65.329 253.767 65.0443 253.547 64.8296 253.258C64.615 252.959 64.5076 252.586 64.5076 252.138C64.5076 251.531 64.7083 251.037 65.1096 250.654C65.511 250.262 66.1643 250.066 67.0696 250.066H69.3796V249.66C69.3796 249.296 69.3283 249.007 69.2256 248.792C69.1323 248.577 68.9503 248.423 68.6796 248.33C68.409 248.237 68.0123 248.19 67.4896 248.19C67.0883 248.19 66.701 248.223 66.3276 248.288C65.9543 248.353 65.6043 248.442 65.2776 248.554V247.602C65.5763 247.49 65.9263 247.401 66.3276 247.336C66.7383 247.261 67.177 247.224 67.6436 247.224C68.5863 247.224 69.291 247.415 69.7576 247.798C70.2336 248.181 70.4716 248.801 70.4716 249.66V254H69.5056L69.4216 253.244C69.1323 253.543 68.7823 253.767 68.3716 253.916C67.961 254.065 67.4523 254.14 66.8456 254.14ZM67.1396 253.202C67.625 253.202 68.0543 253.118 68.4276 252.95C68.801 252.773 69.1183 252.535 69.3796 252.236V250.948H67.0976C66.575 250.948 66.2016 251.046 65.9776 251.242C65.7536 251.438 65.6416 251.737 65.6416 252.138C65.6416 252.539 65.777 252.819 66.0476 252.978C66.3183 253.127 66.6823 253.202 67.1396 253.202ZM72.3618 254V247.364H73.3978L73.4818 248.204C73.8085 247.989 74.1912 247.793 74.6298 247.616C75.0778 247.439 75.5165 247.308 75.9458 247.224V248.12C75.6845 248.176 75.3998 248.255 75.0918 248.358C74.7838 248.451 74.4898 248.559 74.2098 248.68C73.9298 248.801 73.6965 248.927 73.5098 249.058V254H72.3618ZM79.9662 254.14C78.8089 254.14 77.9642 253.846 77.4322 253.258C76.9096 252.661 76.6482 251.802 76.6482 250.682C76.6482 249.571 76.9142 248.717 77.4462 248.12C77.9782 247.523 78.8182 247.224 79.9662 247.224C81.1142 247.224 81.9542 247.523 82.4862 248.12C83.0182 248.717 83.2842 249.571 83.2842 250.682C83.2842 251.802 83.0229 252.661 82.5002 253.258C81.9776 253.846 81.1329 254.14 79.9662 254.14ZM79.9662 253.16C80.7596 253.16 81.3196 252.964 81.6462 252.572C81.9729 252.171 82.1362 251.541 82.1362 250.682C82.1362 249.823 81.9682 249.198 81.6322 248.806C81.3056 248.405 80.7502 248.204 79.9662 248.204C79.1822 248.204 78.6222 248.405 78.2862 248.806C77.9596 249.198 77.7962 249.823 77.7962 250.682C77.7962 251.541 77.9596 252.171 78.2862 252.572C78.6129 252.964 79.1729 253.16 79.9662 253.16Z" fill="#1E293B"/>
<mask id="path-36-inside-8_2275_14357" fill="white">
<path d="M1 261H250V285H1V261Z"/>
</mask>
<path d="M250 285V284H1V285V286H250V285Z" fill="#ECEDF1" mask="url(#path-36-inside-8_2275_14357)"/>
<path d="M14.7778 281C14.2889 281 13.8704 280.826 13.5222 280.478C13.1741 280.13 13 279.711 13 279.222V266.778C13 266.289 13.1741 265.87 13.5222 265.522C13.8704 265.174 14.2889 265 14.7778 265H27.2222C27.7111 265 28.1296 265.174 28.4778 265.522C28.8259 265.87 29 266.289 29 266.778V279.222C29 279.711 28.8259 280.13 28.4778 280.478C28.1296 280.826 27.7111 281 27.2222 281H14.7778ZM14.7778 279.222H27.2222V266.778H14.7778V279.222Z" fill="#ECEDF1"/>
<path d="M45.0922 278L41.6482 268.984H43.2302L45.9322 276.362L48.6342 268.984H50.2162L46.8002 278H45.0922ZM51.5119 278V268.984H52.8559L57.5599 275.62V268.984H59.0719V278H57.7279L53.0379 271.378V278H51.5119Z" fill="#1E293B"/>
<path d="M229 270.5L234 275.5L239 270.5" stroke="#1E293B" stroke-width="2" stroke-linecap="round" stroke-linejoin="round"/>
<mask id="path-41-inside-9_2275_14357" fill="white">
<path d="M1 285H250V309H1V285Z"/>
</mask>
<path d="M250 309V308H1V309V310H250V309Z" fill="#ECEDF1" mask="url(#path-41-inside-9_2275_14357)"/>
<path d="M14.7778 305C14.2889 305 13.8704 304.826 13.5222 304.478C13.1741 304.13 13 303.711 13 303.222V290.778C13 290.289 13.1741 289.87 13.5222 289.522C13.8704 289.174 14.2889 289 14.7778 289H27.2222C27.7111 289 28.1296 289.174 28.4778 289.522C28.8259 289.87 29 290.289 29 290.778V303.222C29 303.711 28.8259 304.13 28.4778 304.478C28.1296 304.826 27.7111 305 27.2222 305H14.7778ZM14.7778 303.222H27.2222V290.778H14.7778V303.222Z" fill="#ECEDF1"/>
<path d="M58.0777 302V292.984H64.1677V293.894H59.2257V297.044H63.6637V297.94H59.2257V301.104H64.1677V302H58.0777ZM65.8433 302V295.364H66.8793L66.9633 296.204C67.2899 295.989 67.6726 295.793 68.1113 295.616C68.5593 295.439 68.9979 295.308 69.4273 295.224V296.12C69.1659 296.176 68.8813 296.255 68.5733 296.358C68.2653 296.451 67.9713 296.559 67.6913 296.68C67.4113 296.801 67.1779 296.927 66.9913 297.058V302H65.8433ZM71.1764 293.81V292.76H72.4504V293.81H71.1764ZM71.2884 302V296.274H70.2664L70.3784 295.364H72.4364V302H71.2884ZM77.5515 302.14C76.3942 302.14 75.5355 301.841 74.9755 301.244C74.4155 300.637 74.1355 299.783 74.1355 298.682C74.1355 297.515 74.4529 296.647 75.0875 296.078C75.7222 295.509 76.5762 295.224 77.6495 295.224C78.0882 295.224 78.4522 295.257 78.7415 295.322C79.0309 295.378 79.3109 295.471 79.5815 295.602V296.512C79.0775 296.269 78.5035 296.148 77.8595 296.148C77.0382 296.148 76.4035 296.344 75.9555 296.736C75.5075 297.119 75.2835 297.767 75.2835 298.682C75.2835 299.559 75.4795 300.203 75.8715 300.614C76.2635 301.015 76.9122 301.216 77.8175 301.216C78.4615 301.216 79.0542 301.095 79.5955 300.852V301.776C79.3062 301.897 78.9935 301.986 78.6575 302.042C78.3309 302.107 77.9622 302.14 77.5515 302.14Z" fill="#1E293B"/>
<mask id="path-45-inside-10_2275_14357" fill="white">
<path d="M1 309H250V333H1V309Z"/>
</mask>
<path d="M250 333V332H1V333V334H250V333Z" fill="#ECEDF1" mask="url(#path-45-inside-10_2275_14357)"/>
<path d="M14.7778 329C14.2889 329 13.8704 328.826 13.5222 328.478C13.1741 328.13 13 327.711 13 327.222V314.778C13 314.289 13.1741 313.87 13.5222 313.522C13.8704 313.174 14.2889 313 14.7778 313H27.2222C27.7111 313 28.1296 313.174 28.4778 313.522C28.8259 313.87 29 314.289 29 314.778V327.222C29 327.711 28.8259 328.13 28.4778 328.478C28.1296 328.826 27.7111 329 27.2222 329H14.7778ZM14.7778 327.222H27.2222V314.778H14.7778V327.222Z" fill="#ECEDF1"/>
<path d="M60.7031 326V317.894H57.7071V316.984H64.8471V317.894H61.8511V326H60.7031ZM65.062 326V319.364H66.098L66.182 320.204C66.5087 319.989 66.8914 319.793 67.33 319.616C67.778 319.439 68.2167 319.308 68.646 319.224V320.12C68.3847 320.176 68.1 320.255 67.792 320.358C67.484 320.451 67.19 320.559 66.91 320.68C66.63 320.801 66.3967 320.927 66.21 321.058V326H65.062ZM71.536 326.14C71.116 326.14 70.7287 326.065 70.374 325.916C70.0194 325.767 69.7347 325.547 69.52 325.258C69.3054 324.959 69.198 324.586 69.198 324.138C69.198 323.531 69.3987 323.037 69.8 322.654C70.2014 322.262 70.8547 322.066 71.76 322.066H74.07V321.66C74.07 321.296 74.0187 321.007 73.916 320.792C73.8227 320.577 73.6407 320.423 73.37 320.33C73.0994 320.237 72.7027 320.19 72.18 320.19C71.7787 320.19 71.3914 320.223 71.018 320.288C70.6447 320.353 70.2947 320.442 69.968 320.554V319.602C70.2667 319.49 70.6167 319.401 71.018 319.336C71.4287 319.261 71.8674 319.224 72.334 319.224C73.2767 319.224 73.9814 319.415 74.448 319.798C74.924 320.181 75.162 320.801 75.162 321.66V326H74.196L74.112 325.244C73.8227 325.543 73.4727 325.767 73.062 325.916C72.6514 326.065 72.1427 326.14 71.536 326.14ZM71.83 325.202C72.3154 325.202 72.7447 325.118 73.118 324.95C73.4914 324.773 73.8087 324.535 74.07 324.236V322.948H71.788C71.2654 322.948 70.892 323.046 70.668 323.242C70.444 323.438 70.332 323.737 70.332 324.138C70.332 324.539 70.4674 324.819 70.738 324.978C71.0087 325.127 71.3727 325.202 71.83 325.202ZM77.0523 326V319.364H78.0883L78.1583 320.12C78.4756 319.859 78.8443 319.644 79.2643 319.476C79.6936 319.308 80.1836 319.224 80.7343 319.224C81.5743 319.224 82.1856 319.42 82.5683 319.812C82.9509 320.204 83.1423 320.82 83.1423 321.66V326H81.9943V321.702C81.9943 321.123 81.8776 320.722 81.6443 320.498C81.4109 320.265 80.9629 320.148 80.3003 320.148C79.8896 320.148 79.5023 320.223 79.1383 320.372C78.7743 320.521 78.4616 320.727 78.2003 320.988V326H77.0523ZM87.6126 328.464C87.118 328.464 86.6326 328.436 86.1566 328.38C85.69 328.324 85.2886 328.235 84.9526 328.114V327.162C85.326 327.283 85.746 327.377 86.2126 327.442C86.6793 327.507 87.1273 327.54 87.5566 327.54C88.2566 327.54 88.77 327.498 89.0966 327.414C89.4233 327.33 89.5866 327.115 89.5866 326.77C89.5866 326.527 89.498 326.355 89.3206 326.252C89.1526 326.149 88.8493 326.098 88.4106 326.098H86.6466C85.424 326.098 84.8126 325.687 84.8126 324.866C84.8126 324.595 84.8966 324.339 85.0646 324.096C85.242 323.844 85.5033 323.667 85.8486 323.564C85.4753 323.377 85.2 323.121 85.0226 322.794C84.8453 322.458 84.7566 322.061 84.7566 321.604C84.7566 320.773 84.9946 320.171 85.4706 319.798C85.956 319.415 86.6933 319.224 87.6826 319.224C87.888 319.224 88.098 319.243 88.3126 319.28C88.5366 319.308 88.7093 319.336 88.8306 319.364H91.2246L91.1826 320.148H89.9786C90.1933 320.325 90.3473 320.54 90.4406 320.792C90.534 321.035 90.5806 321.305 90.5806 321.604C90.5806 322.341 90.366 322.915 89.9366 323.326C89.5073 323.727 88.8493 323.928 87.9626 323.928C87.8133 323.928 87.678 323.923 87.5566 323.914C87.4446 323.895 87.3093 323.877 87.1506 323.858C86.8613 323.867 86.5906 323.951 86.3386 324.11C86.0866 324.259 85.9606 324.455 85.9606 324.698C85.9606 324.857 86.0213 324.973 86.1426 325.048C86.2733 325.123 86.5066 325.16 86.8426 325.16H88.6766C89.3393 325.16 89.848 325.295 90.2026 325.566C90.5573 325.827 90.7346 326.215 90.7346 326.728C90.7346 327.381 90.464 327.834 89.9226 328.086C89.3813 328.338 88.6113 328.464 87.6126 328.464ZM87.6826 323.06C88.3453 323.06 88.8026 322.953 89.0546 322.738C89.3066 322.523 89.4326 322.145 89.4326 321.604C89.4326 321.063 89.2973 320.671 89.0266 320.428C88.7653 320.185 88.3173 320.064 87.6826 320.064C87.0573 320.064 86.6046 320.181 86.3246 320.414C86.0446 320.647 85.9046 321.044 85.9046 321.604C85.9046 322.117 86.0353 322.491 86.2966 322.724C86.5673 322.948 87.0293 323.06 87.6826 323.06Z" fill="#1E293B"/>
<mask id="path-49-inside-11_2275_14357" fill="white">
<path d="M1 333H250V357H1V333Z"/>
</mask>
<path d="M250 357V356H1V357V358H250V357Z" fill="#ECEDF1" mask="url(#path-49-inside-11_2275_14357)"/>
<path d="M14.7778 353C14.2889 353 13.8704 352.826 13.5222 352.478C13.1741 352.13 13 351.711 13 351.222V338.778C13 338.289 13.1741 337.87 13.5222 337.522C13.8704 337.174 14.2889 337 14.7778 337H27.2222C27.7111 337 28.1296 337.174 28.4778 337.522C28.8259 337.87 29 338.289 29 338.778V351.222C29 351.711 28.8259 352.13 28.4778 352.478C28.1296 352.826 27.7111 353 27.2222 353H14.7778ZM14.7778 351.222H27.2222V338.778H14.7778V351.222Z" fill="#ECEDF1"/>
<path d="M46.1402 350.14C44.8989 350.14 43.9329 349.841 43.2422 349.244C42.5609 348.647 42.2202 347.783 42.2202 346.654V340.984H43.7462V346.598C43.7462 347.354 43.9515 347.919 44.3622 348.292C44.7822 348.665 45.3749 348.852 46.1402 348.852C46.8962 348.852 47.4795 348.665 47.8902 348.292C48.3102 347.919 48.5202 347.354 48.5202 346.598V340.984H50.0322V346.654C50.0322 347.783 49.6915 348.647 49.0102 349.244C48.3289 349.841 47.3722 350.14 46.1402 350.14ZM51.7238 350V340.984H53.2498V345.128L57.0858 340.984H58.8498L55.5318 344.624L58.9898 350H57.3658L54.5798 345.59L53.2498 347.018V350H51.7238Z" fill="#1E293B"/>
<path d="M229 347.5L234 342.5L239 347.5" stroke="#1E293B" stroke-width="2" stroke-linecap="round" stroke-linejoin="round"/>
<mask id="path-54-inside-12_2275_14357" fill="white">
<path d="M1 357H250V381H1V357Z"/>
</mask>
<path d="M250 381V380H1V381V382H250V381Z" fill="#ECEDF1" mask="url(#path-54-inside-12_2275_14357)"/>
<path d="M14.7778 377C14.2889 377 13.8704 376.826 13.5222 376.478C13.1741 376.13 13 375.711 13 375.222V362.778C13 362.289 13.1741 361.87 13.5222 361.522C13.8704 361.174 14.2889 361 14.7778 361H27.2222C27.7111 361 28.1296 361.174 28.4778 361.522C28.8259 361.87 29 362.289 29 362.778V375.222C29 375.711 28.8259 376.13 28.4778 376.478C28.1296 376.826 27.7111 377 27.2222 377H14.7778ZM14.7778 375.222H27.2222V362.778H14.7778V375.222Z" fill="#ECEDF1"/>
<path d="M42.2345 374V364.984H43.7605V369.128L47.5965 364.984H49.3605L46.0425 368.624L49.5005 374H47.8765L45.0905 369.59L43.7605 371.018V374H42.2345ZM50.9845 374V364.984H55.1285C56.1365 364.984 56.8692 365.245 57.3265 365.768C57.7932 366.281 58.0265 366.981 58.0265 367.868C58.0265 368.503 57.8679 369.044 57.5505 369.492C57.2332 369.94 56.7759 370.253 56.1785 370.43C56.3465 370.551 56.4772 370.682 56.5705 370.822C56.6639 370.962 56.7572 371.149 56.8505 371.382L57.9845 374H56.4165L55.3105 371.48C55.2079 371.237 55.0819 371.065 54.9325 370.962C54.7925 370.859 54.5499 370.808 54.2045 370.808H52.5105V374H50.9845ZM52.5105 369.576H54.7225C55.2732 369.576 55.7072 369.441 56.0245 369.17C56.3419 368.899 56.5005 368.465 56.5005 367.868C56.5005 366.739 55.9545 366.174 54.8625 366.174H52.5105V369.576Z" fill="#1E293B"/>
<path d="M229 371.5L234 366.5L239 371.5" stroke="#1E293B" stroke-width="2" stroke-linecap="round" stroke-linejoin="round"/>
</g>
</g>
<defs>
<clipPath id="clip0_2275_14357">
<rect width="251" height="372" fill="white"/>
</clipPath>
<clipPath id="clip1_2275_14357">
<rect width="65" height="19" fill="white" transform="translate(46.5 54.5)"/>
</clipPath>
<clipPath id="clip2_2275_14357">
<rect width="59" height="19" fill="white" transform="translate(145.5 54.5)"/>
</clipPath>
<clipPath id="clip3_2275_14357">
<rect width="249" height="345" fill="white" transform="translate(1 93)"/>
</clipPath>
</defs>
</svg>
