<svg width="560" height="40" viewBox="0 0 560 40" fill="none" xmlns="http://www.w3.org/2000/svg">
<path d="M0.912 25.5V15.196H5.744C6.55467 15.196 7.216 15.3507 7.728 15.66C8.25067 15.9693 8.64 16.3907 8.896 16.924C9.152 17.4573 9.28 18.0653 9.28 18.748C9.28 19.4413 9.13067 20.0547 8.832 20.588C8.544 21.1213 8.128 21.5373 7.584 21.836C7.05067 22.124 6.416 22.268 5.68 22.268H3.072V25.5H0.912ZM3.072 20.556H5.232C5.85067 20.556 6.31467 20.396 6.624 20.076C6.944 19.7453 7.104 19.3027 7.104 18.748C7.104 18.1507 6.95467 17.6973 6.656 17.388C6.35733 17.068 5.90933 16.908 5.312 16.908H3.072V20.556ZM10.4745 25.5V17.916H12.4745L12.5705 18.7C12.9118 18.4867 13.3332 18.2947 13.8345 18.124C14.3465 17.9427 14.8478 17.82 15.3385 17.756V19.388C15.0505 19.4307 14.7358 19.4947 14.3945 19.58C14.0532 19.6653 13.7278 19.7613 13.4185 19.868C13.1092 19.9747 12.8478 20.0867 12.6345 20.204V25.5H10.4745ZM19.9227 25.66C18.5041 25.66 17.4641 25.3187 16.8028 24.636C16.1414 23.9427 15.8108 22.9667 15.8108 21.708C15.8108 20.4493 16.1414 19.4787 16.8028 18.796C17.4748 18.1027 18.5148 17.756 19.9227 17.756C21.3414 17.756 22.3814 18.1027 23.0428 18.796C23.7148 19.4787 24.0508 20.4493 24.0508 21.708C24.0508 22.9667 23.7201 23.9427 23.0588 24.636C22.3974 25.3187 21.3521 25.66 19.9227 25.66ZM19.9227 23.82C20.6161 23.82 21.1121 23.6653 21.4108 23.356C21.7094 23.036 21.8588 22.4867 21.8588 21.708C21.8588 20.9293 21.7094 20.3853 21.4108 20.076C21.1121 19.756 20.6161 19.596 19.9227 19.596C19.2401 19.596 18.7494 19.756 18.4508 20.076C18.1521 20.3853 18.0028 20.9293 18.0028 21.708C18.0028 22.4867 18.1521 23.036 18.4508 23.356C18.7494 23.6653 19.2401 23.82 19.9227 23.82ZM26.1384 16.524V14.828H28.4904V16.524H26.1384ZM25.8664 29.244C25.1944 29.244 24.6184 29.148 24.1384 28.956V27.468C24.309 27.5213 24.4744 27.5587 24.6344 27.58C24.805 27.612 24.9597 27.628 25.0984 27.628C25.5357 27.628 25.8504 27.5373 26.0424 27.356C26.2344 27.1853 26.3304 26.908 26.3304 26.524V19.516H25.1944L25.3864 17.916H28.4904V26.732C28.4904 27.4787 28.2717 28.0813 27.8344 28.54C27.4077 29.0093 26.7517 29.244 25.8664 29.244ZM34.2859 25.66C32.9739 25.66 31.9339 25.3347 31.1659 24.684C30.3979 24.0227 30.0139 23.0253 30.0139 21.692C30.0139 20.4867 30.3339 19.532 30.9739 18.828C31.6245 18.1133 32.5899 17.756 33.8699 17.756C35.0432 17.756 35.9392 18.0653 36.5579 18.684C37.1872 19.292 37.5019 20.092 37.5019 21.084V22.46H32.0139C32.1312 23.068 32.4085 23.484 32.8459 23.708C33.2939 23.932 33.9232 24.044 34.7339 24.044C35.1392 24.044 35.5499 24.0067 35.9659 23.932C36.3925 23.8573 36.7552 23.7613 37.0539 23.644V25.18C36.7019 25.34 36.2912 25.4573 35.8219 25.532C35.3525 25.6173 34.8405 25.66 34.2859 25.66ZM32.0139 21.132H35.6139V20.716C35.6139 20.2787 35.4859 19.9373 35.2299 19.692C34.9739 19.436 34.5419 19.308 33.9339 19.308C33.2192 19.308 32.7179 19.452 32.4299 19.74C32.1525 20.028 32.0139 20.492 32.0139 21.132ZM42.8778 25.66C41.5231 25.66 40.4831 25.324 39.7578 24.652C39.0431 23.98 38.6858 22.9987 38.6858 21.708C38.6858 20.3747 39.0698 19.3827 39.8378 18.732C40.6164 18.0813 41.6511 17.756 42.9418 17.756C43.4751 17.756 43.9338 17.7933 44.3178 17.868C44.7018 17.9427 45.0751 18.0653 45.4378 18.236V19.788C45.1711 19.66 44.8618 19.5587 44.5098 19.484C44.1578 19.4093 43.7791 19.372 43.3738 19.372C42.5631 19.372 41.9444 19.5427 41.5178 19.884C41.0911 20.2147 40.8778 20.8227 40.8778 21.708C40.8778 22.5187 41.0698 23.1107 41.4538 23.484C41.8484 23.8573 42.4831 24.044 43.3578 24.044C43.7311 24.044 44.0938 24.0067 44.4458 23.932C44.8084 23.8573 45.1444 23.7453 45.4538 23.596V25.196C44.7391 25.5053 43.8804 25.66 42.8778 25.66ZM49.8263 25.66C48.9516 25.66 48.3009 25.4307 47.8743 24.972C47.4583 24.5133 47.2503 23.8893 47.2503 23.1V19.58H46.1783V17.916H47.2503V16.284L49.4103 15.644V17.916H51.3303L51.2023 19.58H49.4103V22.956C49.4103 23.372 49.5063 23.66 49.6983 23.82C49.8903 23.9693 50.1889 24.044 50.5943 24.044C50.8929 24.044 51.2023 23.9907 51.5223 23.884V25.372C51.2876 25.468 51.0316 25.5373 50.7543 25.58C50.4769 25.6333 50.1676 25.66 49.8263 25.66Z" fill="#1E293B"/>
<path d="M108 0.5H388C389.933 0.5 391.5 2.067 391.5 4V36C391.5 37.933 389.933 39.5 388 39.5H108C106.067 39.5 104.5 37.933 104.5 36V4C104.5 2.067 106.067 0.5 108 0.5Z" fill="white"/>
<path d="M108 0.5H388C389.933 0.5 391.5 2.067 391.5 4V36C391.5 37.933 389.933 39.5 388 39.5H108C106.067 39.5 104.5 37.933 104.5 36V4C104.5 2.067 106.067 0.5 108 0.5Z" stroke="#ECEDF1"/>
<path d="M116.128 26.16C114.795 26.16 113.723 25.9893 112.912 25.648V24.112C113.371 24.2827 113.861 24.4213 114.384 24.528C114.917 24.6347 115.445 24.688 115.968 24.688C116.789 24.688 117.403 24.592 117.808 24.4C118.224 24.208 118.432 23.824 118.432 23.248C118.432 22.896 118.347 22.6133 118.176 22.4C118.005 22.1867 117.723 22.0053 117.328 21.856C116.933 21.696 116.389 21.5307 115.696 21.36C114.587 21.072 113.808 20.7093 113.36 20.272C112.912 19.824 112.688 19.2107 112.688 18.432C112.688 17.5253 113.019 16.816 113.68 16.304C114.341 15.792 115.328 15.536 116.64 15.536C117.237 15.536 117.797 15.5787 118.32 15.664C118.853 15.7493 119.269 15.8453 119.568 15.952V17.488C118.757 17.1787 117.861 17.024 116.88 17.024C116.112 17.024 115.515 17.1253 115.088 17.328C114.661 17.5307 114.448 17.8987 114.448 18.432C114.448 18.7413 114.523 18.992 114.672 19.184C114.821 19.376 115.077 19.5413 115.44 19.68C115.813 19.8187 116.325 19.9733 116.976 20.144C117.819 20.3573 118.469 20.6133 118.928 20.912C119.397 21.2 119.723 21.5413 119.904 21.936C120.096 22.32 120.192 22.7573 120.192 23.248C120.192 24.1547 119.856 24.8693 119.184 25.392C118.512 25.904 117.493 26.16 116.128 26.16ZM125.723 26.16C124.4 26.16 123.376 25.8347 122.651 25.184C121.926 24.5333 121.563 23.536 121.563 22.192C121.563 20.976 121.872 20.016 122.491 19.312C123.11 18.608 124.048 18.256 125.307 18.256C126.459 18.256 127.323 18.56 127.899 19.168C128.486 19.7653 128.779 20.5387 128.779 21.488V22.896H123.227C123.312 23.632 123.579 24.1387 124.027 24.416C124.475 24.6933 125.158 24.832 126.075 24.832C126.459 24.832 126.854 24.7947 127.259 24.72C127.664 24.6453 128.016 24.5493 128.315 24.432V25.712C127.974 25.8613 127.579 25.9733 127.131 26.048C126.694 26.1227 126.224 26.16 125.723 26.16ZM123.227 21.76H127.243V21.232C127.243 20.7093 127.099 20.304 126.811 20.016C126.523 19.7173 126.038 19.568 125.355 19.568C124.544 19.568 123.984 19.744 123.675 20.096C123.376 20.448 123.227 21.0027 123.227 21.76ZM132.845 26.16C132.365 26.16 131.917 26.0747 131.501 25.904C131.095 25.7333 130.77 25.4773 130.525 25.136C130.279 24.784 130.157 24.352 130.157 23.84C130.157 23.1147 130.402 22.5333 130.893 22.096C131.394 21.648 132.162 21.424 133.197 21.424H135.629V21.088C135.629 20.7253 135.57 20.4373 135.453 20.224C135.346 20.0107 135.143 19.856 134.845 19.76C134.557 19.664 134.13 19.616 133.565 19.616C132.669 19.616 131.831 19.7493 131.053 20.016V18.72C131.394 18.5813 131.81 18.4693 132.301 18.384C132.791 18.2987 133.319 18.256 133.885 18.256C134.994 18.256 135.837 18.48 136.413 18.928C136.999 19.376 137.293 20.1067 137.293 21.12V26H135.805L135.693 25.232C135.383 25.5307 134.999 25.76 134.541 25.92C134.093 26.08 133.527 26.16 132.845 26.16ZM133.309 24.912C133.831 24.912 134.285 24.8267 134.669 24.656C135.063 24.4747 135.383 24.2347 135.629 23.936V22.608H133.229C132.717 22.608 132.343 22.7093 132.109 22.912C131.885 23.104 131.773 23.4027 131.773 23.808C131.773 24.2027 131.906 24.4853 132.173 24.656C132.439 24.8267 132.818 24.912 133.309 24.912ZM139.227 26V18.416H140.827L140.923 19.296C141.285 19.0613 141.717 18.848 142.219 18.656C142.72 18.464 143.216 18.3307 143.707 18.256V19.584C143.408 19.6373 143.083 19.7173 142.731 19.824C142.389 19.92 142.064 20.032 141.755 20.16C141.445 20.2773 141.184 20.4 140.971 20.528V26H139.227ZM148.392 26.16C147.059 26.16 146.051 25.824 145.368 25.152C144.686 24.4693 144.344 23.488 144.344 22.208C144.344 20.8747 144.718 19.8827 145.464 19.232C146.222 18.5813 147.23 18.256 148.488 18.256C149.011 18.256 149.448 18.2933 149.8 18.368C150.163 18.4427 150.51 18.56 150.84 18.72V20.016C150.286 19.7387 149.614 19.6 148.824 19.6C147.95 19.6 147.278 19.7973 146.808 20.192C146.339 20.576 146.104 21.248 146.104 22.208C146.104 23.1147 146.312 23.7813 146.728 24.208C147.144 24.624 147.832 24.832 148.792 24.832C149.55 24.832 150.238 24.688 150.856 24.4V25.728C150.504 25.8667 150.126 25.9733 149.72 26.048C149.326 26.1227 148.883 26.16 148.392 26.16ZM152.242 26V15.216H153.986V19.152C154.317 18.8853 154.712 18.672 155.17 18.512C155.629 18.3413 156.146 18.256 156.722 18.256C157.682 18.256 158.392 18.4853 158.85 18.944C159.309 19.4027 159.538 20.1173 159.538 21.088V26H157.81V21.168C157.81 20.5813 157.682 20.1707 157.426 19.936C157.181 19.7013 156.749 19.584 156.13 19.584C155.746 19.584 155.357 19.6693 154.962 19.84C154.568 20 154.242 20.2133 153.986 20.48V26H152.242Z" fill="#A9ACB9"/>
<path d="M362.527 17.7637L369 24.2368L375.474 17.7637" stroke="#A9ACB9" stroke-width="3" stroke-linecap="round" stroke-linejoin="round"/>
<path d="M416.912 16V5.696H419.088L422.112 11.888L425.136 5.696H427.296V16H425.136V9.296L422.736 14.224H421.488L419.072 9.296V16H416.912ZM431.915 16.16C431.008 16.16 430.299 15.9093 429.787 15.408C429.286 14.896 429.035 14.1493 429.035 13.168V8.416H431.195V13.12C431.195 13.632 431.318 14.0053 431.563 14.24C431.808 14.464 432.176 14.576 432.667 14.576C433.04 14.576 433.382 14.5013 433.691 14.352C434.011 14.2027 434.283 14.016 434.507 13.792V8.416H436.667V16H434.667L434.587 15.28C434.267 15.536 433.888 15.7493 433.451 15.92C433.024 16.08 432.512 16.16 431.915 16.16ZM440.618 16.16C439.882 16.16 439.343 15.9893 439.002 15.648C438.671 15.3067 438.506 14.7627 438.506 14.016V5.216H440.666V13.84C440.666 14.1067 440.719 14.2933 440.826 14.4C440.932 14.496 441.087 14.544 441.29 14.544C441.567 14.544 441.818 14.5067 442.042 14.432V15.92C441.636 16.08 441.162 16.16 440.618 16.16ZM445.873 16.16C444.998 16.16 444.348 15.9307 443.921 15.472C443.505 15.0133 443.297 14.3893 443.297 13.6V10.08H442.225V8.416H443.297V6.784L445.457 6.144V8.416H447.377L447.249 10.08H445.457V13.456C445.457 13.872 445.553 14.16 445.745 14.32C445.937 14.4693 446.236 14.544 446.641 14.544C446.94 14.544 447.249 14.4907 447.569 14.384V15.872C447.334 15.968 447.078 16.0373 446.801 16.08C446.524 16.1333 446.214 16.16 445.873 16.16ZM449.206 7.024V5.328H451.558V7.024H449.206ZM449.382 16V10.016H448.246L448.438 8.416H451.542V16H449.382ZM453.381 19.456V8.416H455.253L455.365 9.12C455.695 8.84267 456.058 8.62933 456.453 8.48C456.847 8.33067 457.311 8.256 457.845 8.256C458.954 8.256 459.807 8.56 460.405 9.168C461.013 9.76533 461.317 10.7467 461.317 12.112C461.317 13.4773 460.991 14.496 460.341 15.168C459.701 15.8293 458.826 16.16 457.717 16.16C456.863 16.16 456.138 15.968 455.541 15.584V19.456H453.381ZM457.173 14.576C457.813 14.576 458.298 14.3787 458.629 13.984C458.959 13.5893 459.125 12.9707 459.125 12.128C459.125 11.3173 458.975 10.736 458.677 10.384C458.378 10.0213 457.898 9.84 457.237 9.84C456.575 9.84 456.01 10.0693 455.541 10.528V14C455.765 14.1707 455.999 14.3093 456.245 14.416C456.501 14.5227 456.81 14.576 457.173 14.576ZM464.93 16.16C464.194 16.16 463.656 15.9893 463.314 15.648C462.984 15.3067 462.818 14.7627 462.818 14.016V5.216H464.978V13.84C464.978 14.1067 465.032 14.2933 465.138 14.4C465.245 14.496 465.4 14.544 465.602 14.544C465.88 14.544 466.13 14.5067 466.354 14.432V15.92C465.949 16.08 465.474 16.16 464.93 16.16ZM471.536 16.16C470.224 16.16 469.184 15.8347 468.416 15.184C467.648 14.5227 467.264 13.5253 467.264 12.192C467.264 10.9867 467.584 10.032 468.224 9.328C468.875 8.61333 469.84 8.256 471.12 8.256C472.293 8.256 473.189 8.56533 473.808 9.184C474.437 9.792 474.752 10.592 474.752 11.584V12.96H469.264C469.381 13.568 469.659 13.984 470.096 14.208C470.544 14.432 471.173 14.544 471.984 14.544C472.389 14.544 472.8 14.5067 473.216 14.432C473.643 14.3573 474.005 14.2613 474.304 14.144V15.68C473.952 15.84 473.541 15.9573 473.072 16.032C472.603 16.1173 472.091 16.16 471.536 16.16ZM469.264 11.632H472.864V11.216C472.864 10.7787 472.736 10.4373 472.48 10.192C472.224 9.936 471.792 9.808 471.184 9.808C470.469 9.808 469.968 9.952 469.68 10.24C469.403 10.528 469.264 10.992 469.264 11.632ZM416.912 35V24.696H421.744C422.555 24.696 423.216 24.8507 423.728 25.16C424.251 25.4693 424.64 25.8907 424.896 26.424C425.152 26.9573 425.28 27.5653 425.28 28.248C425.28 28.9413 425.131 29.5547 424.832 30.088C424.544 30.6213 424.128 31.0373 423.584 31.336C423.051 31.624 422.416 31.768 421.68 31.768H419.072V35H416.912ZM419.072 30.056H421.232C421.851 30.056 422.315 29.896 422.624 29.576C422.944 29.2453 423.104 28.8027 423.104 28.248C423.104 27.6507 422.955 27.1973 422.656 26.888C422.357 26.568 421.909 26.408 421.312 26.408H419.072V30.056ZM426.475 35V27.416H428.475L428.571 28.2C428.912 27.9867 429.333 27.7947 429.835 27.624C430.347 27.4427 430.848 27.32 431.339 27.256V28.888C431.051 28.9307 430.736 28.9947 430.395 29.08C430.053 29.1653 429.728 29.2613 429.419 29.368C429.109 29.4747 428.848 29.5867 428.635 29.704V35H426.475ZM435.923 35.16C434.504 35.16 433.464 34.8187 432.803 34.136C432.141 33.4427 431.811 32.4667 431.811 31.208C431.811 29.9493 432.141 28.9787 432.803 28.296C433.475 27.6027 434.515 27.256 435.923 27.256C437.341 27.256 438.381 27.6027 439.043 28.296C439.715 28.9787 440.051 29.9493 440.051 31.208C440.051 32.4667 439.72 33.4427 439.059 34.136C438.397 34.8187 437.352 35.16 435.923 35.16ZM435.923 33.32C436.616 33.32 437.112 33.1653 437.411 32.856C437.709 32.536 437.859 31.9867 437.859 31.208C437.859 30.4293 437.709 29.8853 437.411 29.576C437.112 29.256 436.616 29.096 435.923 29.096C435.24 29.096 434.749 29.256 434.451 29.576C434.152 29.8853 434.003 30.4293 434.003 31.208C434.003 31.9867 434.152 32.536 434.451 32.856C434.749 33.1653 435.24 33.32 435.923 33.32ZM442.138 26.024V24.328H444.49V26.024H442.138ZM441.866 38.744C441.194 38.744 440.618 38.648 440.138 38.456V36.968C440.309 37.0213 440.474 37.0587 440.634 37.08C440.805 37.112 440.96 37.128 441.098 37.128C441.536 37.128 441.85 37.0373 442.042 36.856C442.234 36.6853 442.33 36.408 442.33 36.024V29.016H441.194L441.386 27.416H444.49V36.232C444.49 36.9787 444.272 37.5813 443.834 38.04C443.408 38.5093 442.752 38.744 441.866 38.744ZM450.286 35.16C448.974 35.16 447.934 34.8347 447.166 34.184C446.398 33.5227 446.014 32.5253 446.014 31.192C446.014 29.9867 446.334 29.032 446.974 28.328C447.625 27.6133 448.59 27.256 449.87 27.256C451.043 27.256 451.939 27.5653 452.558 28.184C453.187 28.792 453.502 29.592 453.502 30.584V31.96H448.014C448.131 32.568 448.409 32.984 448.846 33.208C449.294 33.432 449.923 33.544 450.734 33.544C451.139 33.544 451.55 33.5067 451.966 33.432C452.393 33.3573 452.755 33.2613 453.054 33.144V34.68C452.702 34.84 452.291 34.9573 451.822 35.032C451.353 35.1173 450.841 35.16 450.286 35.16ZM448.014 30.632H451.614V30.216C451.614 29.7787 451.486 29.4373 451.23 29.192C450.974 28.936 450.542 28.808 449.934 28.808C449.219 28.808 448.718 28.952 448.43 29.24C448.153 29.528 448.014 29.992 448.014 30.632ZM458.878 35.16C457.523 35.16 456.483 34.824 455.758 34.152C455.043 33.48 454.686 32.4987 454.686 31.208C454.686 29.8747 455.07 28.8827 455.838 28.232C456.616 27.5813 457.651 27.256 458.942 27.256C459.475 27.256 459.934 27.2933 460.318 27.368C460.702 27.4427 461.075 27.5653 461.438 27.736V29.288C461.171 29.16 460.862 29.0587 460.51 28.984C460.158 28.9093 459.779 28.872 459.374 28.872C458.563 28.872 457.944 29.0427 457.518 29.384C457.091 29.7147 456.878 30.3227 456.878 31.208C456.878 32.0187 457.07 32.6107 457.454 32.984C457.848 33.3573 458.483 33.544 459.358 33.544C459.731 33.544 460.094 33.5067 460.446 33.432C460.808 33.3573 461.144 33.2453 461.454 33.096V34.696C460.739 35.0053 459.88 35.16 458.878 35.16ZM465.826 35.16C464.952 35.16 464.301 34.9307 463.874 34.472C463.458 34.0133 463.25 33.3893 463.25 32.6V29.08H462.178V27.416H463.25V25.784L465.41 25.144V27.416H467.33L467.202 29.08H465.41V32.456C465.41 32.872 465.506 33.16 465.698 33.32C465.89 33.4693 466.189 33.544 466.594 33.544C466.893 33.544 467.202 33.4907 467.522 33.384V34.872C467.288 34.968 467.032 35.0373 466.754 35.08C466.477 35.1333 466.168 35.16 465.826 35.16ZM471.303 35.16C470.737 35.16 470.199 35.1173 469.687 35.032C469.175 34.9573 468.764 34.8613 468.455 34.744V32.952C468.828 33.1013 469.249 33.2187 469.719 33.304C470.188 33.3787 470.62 33.416 471.015 33.416C471.548 33.416 471.921 33.384 472.135 33.32C472.359 33.256 472.471 33.112 472.471 32.888C472.471 32.632 472.3 32.4453 471.959 32.328C471.628 32.2107 471.132 32.0453 470.471 31.832C469.777 31.5973 469.244 31.3147 468.871 30.984C468.497 30.6533 468.311 30.1627 468.311 29.512C468.311 28.7867 468.572 28.232 469.095 27.848C469.628 27.4533 470.481 27.256 471.655 27.256C472.124 27.256 472.567 27.2933 472.983 27.368C473.399 27.432 473.751 27.512 474.039 27.608V29.384C473.751 29.2453 473.42 29.144 473.047 29.08C472.673 29.0053 472.327 28.968 472.007 28.968C471.548 28.968 471.18 29 470.903 29.064C470.636 29.128 470.503 29.2667 470.503 29.48C470.503 29.7147 470.647 29.88 470.935 29.976C471.233 30.072 471.692 30.216 472.311 30.408C472.919 30.5893 473.393 30.7867 473.735 31C474.076 31.2133 474.316 31.4693 474.455 31.768C474.593 32.056 474.663 32.4187 474.663 32.856C474.663 34.392 473.543 35.16 471.303 35.16Z" fill="#E4E7EC"/>
<rect x="520" y="9" width="40" height="22" rx="11" fill="#F6F6F6"/>
<g filter="url(#filter0_d_2273_10728)">
<rect x="522" y="11" width="18" height="18" rx="9" fill="white"/>
</g>
<defs>
<filter id="filter0_d_2273_10728" x="518" y="9" width="26" height="26" filterUnits="userSpaceOnUse" color-interpolation-filters="sRGB">
<feFlood flood-opacity="0" result="BackgroundImageFix"/>
<feColorMatrix in="SourceAlpha" type="matrix" values="0 0 0 0 0 0 0 0 0 0 0 0 0 0 0 0 0 0 127 0" result="hardAlpha"/>
<feOffset dy="2"/>
<feGaussianBlur stdDeviation="2"/>
<feComposite in2="hardAlpha" operator="out"/>
<feColorMatrix type="matrix" values="0 0 0 0 0.152941 0 0 0 0 0.152941 0 0 0 0 0.152941 0 0 0 0.1 0"/>
<feBlend mode="normal" in2="BackgroundImageFix" result="effect1_dropShadow_2273_10728"/>
<feBlend mode="normal" in="SourceGraphic" in2="effect1_dropShadow_2273_10728" result="shape"/>
</filter>
</defs>
</svg>
