<svg width="1320" height="408" viewBox="0 0 1320 408" fill="none" xmlns="http://www.w3.org/2000/svg">
<rect x="48" y="24" width="329" height="36" rx="8" fill="#F3F4F7"/>
<path d="M50 30C50 27.7909 51.7909 26 54 26H131C133.209 26 135 27.7909 135 30V54C135 56.2091 133.209 58 131 58H54C51.7909 58 50 56.2091 50 54V30Z" fill="#F3F4F7"/>
<g clip-path="url(#clip0_2122_6246)">
<path d="M68.3986 47.5V37.196H72.9906C73.78 37.196 74.4306 37.3453 74.9426 37.644C75.4546 37.9427 75.8333 38.3533 76.0786 38.876C76.324 39.388 76.4466 39.9747 76.4466 40.636C76.4466 41.66 76.1266 42.4813 75.4866 43.1C74.8573 43.7187 74.004 44.028 72.9266 44.028H70.1426V47.5H68.3986ZM70.1426 42.652H72.6066C73.3 42.652 73.8226 42.4707 74.1746 42.108C74.5266 41.7453 74.7026 41.2547 74.7026 40.636C74.7026 39.9747 74.532 39.4627 74.1906 39.1C73.86 38.7373 73.3586 38.556 72.6866 38.556H70.1426V42.652ZM77.8361 47.5V36.716H79.5801V40.652C79.9108 40.3853 80.3055 40.172 80.7641 40.012C81.2228 39.8413 81.7401 39.756 82.3161 39.756C83.2761 39.756 83.9855 39.9853 84.4441 40.444C84.9028 40.9027 85.1321 41.6173 85.1321 42.588V47.5H83.4041V42.668C83.4041 42.0813 83.2761 41.6707 83.0201 41.436C82.7748 41.2013 82.3428 41.084 81.7241 41.084C81.3401 41.084 80.9508 41.1693 80.5561 41.34C80.1615 41.5 79.8361 41.7133 79.5801 41.98V47.5H77.8361ZM90.5619 47.66C89.1965 47.66 88.1939 47.3187 87.5539 46.636C86.9245 45.9533 86.6099 44.9773 86.6099 43.708C86.6099 42.4387 86.9299 41.4627 87.5699 40.78C88.2099 40.0973 89.2072 39.756 90.5619 39.756C91.9272 39.756 92.9299 40.0973 93.5699 40.78C94.2099 41.4627 94.5299 42.4387 94.5299 43.708C94.5299 44.9773 94.2099 45.9533 93.5699 46.636C92.9405 47.3187 91.9379 47.66 90.5619 47.66ZM90.5619 46.188C91.3619 46.188 91.9272 45.996 92.2579 45.612C92.5992 45.2173 92.7699 44.5827 92.7699 43.708C92.7699 42.8333 92.5992 42.204 92.2579 41.82C91.9272 41.436 91.3619 41.244 90.5619 41.244C89.7725 41.244 89.2072 41.436 88.8659 41.82C88.5352 42.204 88.3699 42.8333 88.3699 43.708C88.3699 44.5827 88.5352 45.2173 88.8659 45.612C89.2072 45.996 89.7725 46.188 90.5619 46.188ZM99.1228 47.66C98.3121 47.66 97.7041 47.4467 97.2988 47.02C96.9041 46.5827 96.7068 45.9907 96.7068 45.244V41.276H95.5868V39.916H96.7068V38.172L98.4348 37.644V39.916H100.451L100.339 41.276H98.4348V45.148C98.4348 45.5853 98.5361 45.8947 98.7388 46.076C98.9414 46.2467 99.2721 46.332 99.7308 46.332C100.019 46.332 100.323 46.2787 100.643 46.172V47.404C100.227 47.5747 99.7201 47.66 99.1228 47.66ZM105.609 47.66C104.243 47.66 103.241 47.3187 102.601 46.636C101.971 45.9533 101.657 44.9773 101.657 43.708C101.657 42.4387 101.977 41.4627 102.617 40.78C103.257 40.0973 104.254 39.756 105.609 39.756C106.974 39.756 107.977 40.0973 108.617 40.78C109.257 41.4627 109.577 42.4387 109.577 43.708C109.577 44.9773 109.257 45.9533 108.617 46.636C107.987 47.3187 106.985 47.66 105.609 47.66ZM105.609 46.188C106.409 46.188 106.974 45.996 107.305 45.612C107.646 45.2173 107.817 44.5827 107.817 43.708C107.817 42.8333 107.646 42.204 107.305 41.82C106.974 41.436 106.409 41.244 105.609 41.244C104.819 41.244 104.254 41.436 103.913 41.82C103.582 42.204 103.417 42.8333 103.417 43.708C103.417 44.5827 103.582 45.2173 103.913 45.612C104.254 45.996 104.819 46.188 105.609 46.188ZM113.724 47.66C113.201 47.66 112.7 47.6227 112.22 47.548C111.75 47.4733 111.361 47.3827 111.052 47.276V45.804C111.414 45.9427 111.814 46.0493 112.252 46.124C112.689 46.1987 113.105 46.236 113.5 46.236C114.097 46.236 114.524 46.1827 114.78 46.076C115.036 45.9693 115.164 45.7613 115.164 45.452C115.164 45.228 115.084 45.052 114.924 44.924C114.774 44.796 114.545 44.6787 114.236 44.572C113.937 44.4653 113.553 44.3373 113.084 44.188C112.636 44.0387 112.246 43.8787 111.916 43.708C111.585 43.5267 111.329 43.2973 111.148 43.02C110.966 42.7427 110.876 42.38 110.876 41.932C110.876 41.2387 111.126 40.7053 111.628 40.332C112.129 39.948 112.934 39.756 114.044 39.756C114.481 39.756 114.897 39.788 115.292 39.852C115.686 39.916 116.022 39.996 116.3 40.092V41.548C116.001 41.4307 115.67 41.34 115.308 41.276C114.956 41.212 114.625 41.18 114.316 41.18C113.761 41.18 113.34 41.228 113.052 41.324C112.774 41.42 112.636 41.612 112.636 41.9C112.636 42.1987 112.78 42.412 113.068 42.54C113.366 42.6573 113.841 42.8227 114.492 43.036C115.089 43.2173 115.564 43.4093 115.916 43.612C116.268 43.8147 116.518 44.06 116.668 44.348C116.828 44.6253 116.908 44.988 116.908 45.436C116.908 46.1827 116.636 46.7427 116.092 47.116C115.548 47.4787 114.758 47.66 113.724 47.66Z" fill="#A9ACB9"/>
</g>
<g filter="url(#filter0_d_2122_6246)">
<path d="M143 30C143 27.7909 144.791 26 147 26H214C216.209 26 218 27.7909 218 30V54C218 56.2091 216.209 58 214 58H147C144.791 58 143 56.2091 143 54V30Z" fill="white"/>
<path d="M147 26.5H214C215.933 26.5 217.5 28.067 217.5 30V54C217.5 55.933 215.933 57.5 214 57.5H147C145.067 57.5 143.5 55.933 143.5 54V30C143.5 28.067 145.067 26.5 147 26.5Z" stroke="#ECEDF1"/>
<g clip-path="url(#clip1_2122_6246)">
<path d="M166.029 47.66C164.397 47.66 163.176 47.2333 162.365 46.38C161.554 45.516 161.149 44.1827 161.149 42.38C161.149 40.5027 161.554 39.1427 162.365 38.3C163.176 37.4573 164.397 37.036 166.029 37.036C167.672 37.036 168.893 37.4573 169.693 38.3C170.504 39.1427 170.909 40.5027 170.909 42.38C170.909 44.1827 170.504 45.516 169.693 46.38C168.893 47.2333 167.672 47.66 166.029 47.66ZM166.029 46.188C167.106 46.188 167.896 45.8947 168.397 45.308C168.909 44.7107 169.165 43.7347 169.165 42.38C169.165 40.9507 168.909 39.9533 168.397 39.388C167.896 38.812 167.106 38.524 166.029 38.524C164.962 38.524 164.173 38.812 163.661 39.388C163.16 39.9533 162.909 40.9507 162.909 42.38C162.909 43.7347 163.16 44.7107 163.661 45.308C164.173 45.8947 164.962 46.188 166.029 46.188ZM172.61 47.5V39.916H174.21L174.306 40.796C174.668 40.5613 175.1 40.348 175.602 40.156C176.103 39.964 176.599 39.8307 177.09 39.756V41.084C176.791 41.1373 176.466 41.2173 176.114 41.324C175.772 41.42 175.447 41.532 175.138 41.66C174.828 41.7773 174.567 41.9 174.354 42.028V47.5H172.61ZM181.183 47.66C180.5 47.66 179.898 47.5427 179.375 47.308C178.852 47.0733 178.447 46.684 178.159 46.14C177.871 45.596 177.727 44.8653 177.727 43.948C177.727 43.0413 177.882 42.2787 178.191 41.66C178.5 41.0307 178.927 40.556 179.471 40.236C180.026 39.916 180.65 39.756 181.343 39.756C181.802 39.756 182.207 39.8093 182.559 39.916C182.922 40.0227 183.268 40.188 183.599 40.412V36.716H185.343V47.5H183.855L183.743 46.748C183.402 47.0573 183.028 47.2867 182.623 47.436C182.218 47.5853 181.738 47.66 181.183 47.66ZM181.647 46.348C182.426 46.348 183.076 46.0813 183.599 45.548V41.756C183.098 41.308 182.468 41.084 181.711 41.084C180.975 41.084 180.42 41.3293 180.047 41.82C179.674 42.3107 179.487 43.0253 179.487 43.964C179.487 44.8707 179.658 45.4947 179.999 45.836C180.351 46.1773 180.9 46.348 181.647 46.348ZM191.043 47.66C189.721 47.66 188.697 47.3347 187.971 46.684C187.246 46.0333 186.883 45.036 186.883 43.692C186.883 42.476 187.193 41.516 187.811 40.812C188.43 40.108 189.369 39.756 190.627 39.756C191.779 39.756 192.643 40.06 193.219 40.668C193.806 41.2653 194.099 42.0387 194.099 42.988V44.396H188.547C188.633 45.132 188.899 45.6387 189.347 45.916C189.795 46.1933 190.478 46.332 191.395 46.332C191.779 46.332 192.174 46.2947 192.579 46.22C192.985 46.1453 193.337 46.0493 193.635 45.932V47.212C193.294 47.3613 192.899 47.4733 192.451 47.548C192.014 47.6227 191.545 47.66 191.043 47.66ZM188.547 43.26H192.563V42.732C192.563 42.2093 192.419 41.804 192.131 41.516C191.843 41.2173 191.358 41.068 190.675 41.068C189.865 41.068 189.305 41.244 188.995 41.596C188.697 41.948 188.547 42.5027 188.547 43.26ZM195.797 47.5V39.916H197.397L197.493 40.796C197.856 40.5613 198.288 40.348 198.789 40.156C199.29 39.964 199.786 39.8307 200.277 39.756V41.084C199.978 41.1373 199.653 41.2173 199.301 41.324C198.96 41.42 198.634 41.532 198.325 41.66C198.016 41.7773 197.754 41.9 197.541 42.028V47.5H195.797Z" fill="#1E293B"/>
</g>
</g>
<path d="M226 30C226 27.7909 227.791 26 230 26H302C304.209 26 306 27.7909 306 30V54C306 56.2091 304.209 58 302 58H230C227.791 58 226 56.2091 226 54V30Z" fill="#F3F4F7"/>
<g clip-path="url(#clip2_2122_6246)">
<path d="M244.461 47.5V37.196H249.453C250.477 37.196 251.234 37.436 251.725 37.916C252.216 38.396 252.461 39.0733 252.461 39.948C252.461 40.5027 252.349 40.972 252.125 41.356C251.901 41.7293 251.602 42.012 251.229 42.204C251.73 42.3427 252.125 42.5933 252.413 42.956C252.712 43.308 252.861 43.8307 252.861 44.524C252.861 45.5267 252.589 46.2733 252.045 46.764C251.512 47.2547 250.722 47.5 249.677 47.5H244.461ZM246.205 41.596H249.213C249.8 41.596 250.216 41.4627 250.461 41.196C250.717 40.9187 250.845 40.5507 250.845 40.092C250.845 39.5587 250.717 39.164 250.461 38.908C250.205 38.6413 249.725 38.508 249.021 38.508H246.205V41.596ZM246.205 46.22H249.309C249.928 46.22 250.381 46.092 250.669 45.836C250.957 45.5693 251.101 45.1107 251.101 44.46C251.101 43.9267 250.957 43.532 250.669 43.276C250.392 43.0093 249.88 42.876 249.133 42.876H246.205V46.22ZM254.961 38.332V36.892H256.865V38.332H254.961ZM255.105 47.5V41.244H253.953L254.113 39.916H256.849V47.5H255.105ZM260.771 47.66C260.152 47.66 259.683 47.5107 259.363 47.212C259.043 46.9027 258.883 46.396 258.883 45.692V36.716H260.627V45.532C260.627 45.8307 260.68 46.0333 260.787 46.14C260.894 46.2467 261.054 46.3 261.267 46.3C261.523 46.3 261.768 46.268 262.003 46.204V47.468C261.8 47.5427 261.603 47.5907 261.411 47.612C261.23 47.644 261.016 47.66 260.771 47.66ZM264.849 47.66C264.23 47.66 263.761 47.5107 263.441 47.212C263.121 46.9027 262.961 46.396 262.961 45.692V36.716H264.705V45.532C264.705 45.8307 264.758 46.0333 264.865 46.14C264.972 46.2467 265.132 46.3 265.345 46.3C265.601 46.3 265.846 46.268 266.081 46.204V47.468C265.878 47.5427 265.681 47.5907 265.489 47.612C265.308 47.644 265.094 47.66 264.849 47.66ZM267.523 38.332V36.892H269.427V38.332H267.523ZM267.667 47.5V41.244H266.515L266.675 39.916H269.411V47.5H267.667ZM271.446 47.5V39.916H273.046L273.126 40.716C273.467 40.4493 273.872 40.2253 274.342 40.044C274.822 39.852 275.35 39.756 275.926 39.756C276.907 39.756 277.622 39.9853 278.07 40.444C278.518 40.9027 278.742 41.6173 278.742 42.588V47.5H277.014V42.668C277.014 42.0813 276.891 41.6707 276.646 41.436C276.411 41.2013 275.963 41.084 275.302 41.084C274.907 41.084 274.518 41.164 274.134 41.324C273.76 41.484 273.446 41.692 273.19 41.948V47.5H271.446ZM283.768 50.316C283.202 50.316 282.637 50.2787 282.072 50.204C281.506 50.14 281.026 50.0387 280.632 49.9V48.556C281.058 48.6947 281.549 48.8013 282.104 48.876C282.658 48.9507 283.186 48.988 283.688 48.988C284.456 48.988 285.016 48.9453 285.368 48.86C285.72 48.7747 285.896 48.5827 285.896 48.284C285.896 48.06 285.81 47.9 285.64 47.804C285.469 47.7187 285.144 47.676 284.664 47.676H282.616C281.24 47.676 280.552 47.1907 280.552 46.22C280.552 45.9107 280.642 45.6227 280.824 45.356C281.005 45.0893 281.293 44.8867 281.688 44.748C281.25 44.5347 280.925 44.2413 280.712 43.868C280.509 43.4947 280.408 43.0467 280.408 42.524C280.408 41.5533 280.696 40.8493 281.272 40.412C281.858 39.9747 282.733 39.756 283.896 39.756C284.141 39.756 284.397 39.7773 284.664 39.82C284.93 39.852 285.138 39.884 285.288 39.916H288.072L288.024 41.052H286.744C286.946 41.2227 287.096 41.436 287.192 41.692C287.288 41.948 287.336 42.2253 287.336 42.524C287.336 43.3347 287.09 43.9747 286.6 44.444C286.109 44.9027 285.368 45.132 284.376 45.132C284.205 45.132 284.045 45.1267 283.896 45.116C283.757 45.0947 283.602 45.0733 283.432 45.052C283.112 45.084 282.824 45.1693 282.568 45.308C282.312 45.4467 282.184 45.6333 282.184 45.868C282.184 46.028 282.248 46.1453 282.376 46.22C282.504 46.284 282.717 46.316 283.016 46.316H285.144C285.901 46.316 286.482 46.4813 286.888 46.812C287.304 47.132 287.512 47.6013 287.512 48.22C287.512 48.9667 287.186 49.5 286.536 49.82C285.896 50.1507 284.973 50.316 283.768 50.316ZM283.896 44.028C284.589 44.028 285.069 43.9107 285.336 43.676C285.613 43.4413 285.752 43.0413 285.752 42.476C285.752 41.9107 285.613 41.5 285.336 41.244C285.069 40.988 284.589 40.86 283.896 40.86C283.245 40.86 282.77 40.9827 282.472 41.228C282.173 41.4733 282.024 41.8893 282.024 42.476C282.024 43.02 282.162 43.4147 282.44 43.66C282.728 43.9053 283.213 44.028 283.896 44.028Z" fill="#A9ACB9"/>
</g>
<path d="M314 30C314 27.7909 315.791 26 318 26H371C373.209 26 375 27.7909 375 30V54C375 56.2091 373.209 58 371 58H318C315.791 58 314 56.2091 314 54V30Z" fill="#F3F4F7"/>
<g clip-path="url(#clip3_2122_6246)">
<path d="M332.43 47.5V37.196H334.174V46.156H339.454V47.5H332.43ZM344.062 47.66C342.697 47.66 341.694 47.3187 341.054 46.636C340.425 45.9533 340.11 44.9773 340.11 43.708C340.11 42.4387 340.43 41.4627 341.07 40.78C341.71 40.0973 342.707 39.756 344.062 39.756C345.427 39.756 346.43 40.0973 347.07 40.78C347.71 41.4627 348.03 42.4387 348.03 43.708C348.03 44.9773 347.71 45.9533 347.07 46.636C346.441 47.3187 345.438 47.66 344.062 47.66ZM344.062 46.188C344.862 46.188 345.427 45.996 345.758 45.612C346.099 45.2173 346.27 44.5827 346.27 43.708C346.27 42.8333 346.099 42.204 345.758 41.82C345.427 41.436 344.862 41.244 344.062 41.244C343.273 41.244 342.707 41.436 342.366 41.82C342.035 42.204 341.87 42.8333 341.87 43.708C341.87 44.5827 342.035 45.2173 342.366 45.612C342.707 45.996 343.273 46.188 344.062 46.188ZM352.799 50.316C352.233 50.316 351.668 50.2787 351.103 50.204C350.537 50.14 350.057 50.0387 349.663 49.9V48.556C350.089 48.6947 350.58 48.8013 351.135 48.876C351.689 48.9507 352.217 48.988 352.719 48.988C353.487 48.988 354.047 48.9453 354.399 48.86C354.751 48.7747 354.927 48.5827 354.927 48.284C354.927 48.06 354.841 47.9 354.671 47.804C354.5 47.7187 354.175 47.676 353.695 47.676H351.647C350.271 47.676 349.583 47.1907 349.583 46.22C349.583 45.9107 349.673 45.6227 349.855 45.356C350.036 45.0893 350.324 44.8867 350.719 44.748C350.281 44.5347 349.956 44.2413 349.743 43.868C349.54 43.4947 349.439 43.0467 349.439 42.524C349.439 41.5533 349.727 40.8493 350.303 40.412C350.889 39.9747 351.764 39.756 352.927 39.756C353.172 39.756 353.428 39.7773 353.695 39.82C353.961 39.852 354.169 39.884 354.319 39.916H357.103L357.055 41.052H355.775C355.977 41.2227 356.127 41.436 356.223 41.692C356.319 41.948 356.367 42.2253 356.367 42.524C356.367 43.3347 356.121 43.9747 355.631 44.444C355.14 44.9027 354.399 45.132 353.407 45.132C353.236 45.132 353.076 45.1267 352.927 45.116C352.788 45.0947 352.633 45.0733 352.463 45.052C352.143 45.084 351.855 45.1693 351.599 45.308C351.343 45.4467 351.215 45.6333 351.215 45.868C351.215 46.028 351.279 46.1453 351.407 46.22C351.535 46.284 351.748 46.316 352.047 46.316H354.175C354.932 46.316 355.513 46.4813 355.919 46.812C356.335 47.132 356.543 47.6013 356.543 48.22C356.543 48.9667 356.217 49.5 355.567 49.82C354.927 50.1507 354.004 50.316 352.799 50.316ZM352.927 44.028C353.62 44.028 354.1 43.9107 354.367 43.676C354.644 43.4413 354.783 43.0413 354.783 42.476C354.783 41.9107 354.644 41.5 354.367 41.244C354.1 40.988 353.62 40.86 352.927 40.86C352.276 40.86 351.801 40.9827 351.503 41.228C351.204 41.4733 351.055 41.8893 351.055 42.476C351.055 43.02 351.193 43.4147 351.471 43.66C351.759 43.9053 352.244 44.028 352.927 44.028Z" fill="#A9ACB9"/>
</g>
<path d="M48.912 125.5V115.196H53.744C54.5547 115.196 55.216 115.351 55.728 115.66C56.2507 115.969 56.64 116.391 56.896 116.924C57.152 117.457 57.28 118.065 57.28 118.748C57.28 119.441 57.1307 120.055 56.832 120.588C56.544 121.121 56.128 121.537 55.584 121.836C55.0507 122.124 54.416 122.268 53.68 122.268H51.072V125.5H48.912ZM51.072 120.556H53.232C53.8507 120.556 54.3147 120.396 54.624 120.076C54.944 119.745 55.104 119.303 55.104 118.748C55.104 118.151 54.9547 117.697 54.656 117.388C54.3573 117.068 53.9093 116.908 53.312 116.908H51.072V120.556ZM61.2745 125.66C60.3678 125.66 59.6585 125.409 59.1465 124.908C58.6452 124.396 58.3945 123.649 58.3945 122.668V117.916H60.5545V122.62C60.5545 123.132 60.6772 123.505 60.9225 123.74C61.1678 123.964 61.5358 124.076 62.0265 124.076C62.3998 124.076 62.7412 124.001 63.0505 123.852C63.3705 123.703 63.6425 123.516 63.8665 123.292V117.916H66.0265V125.5H64.0265L63.9465 124.78C63.6265 125.036 63.2478 125.249 62.8105 125.42C62.3838 125.58 61.8718 125.66 61.2745 125.66ZM67.8651 125.5V117.916H69.8651L69.9611 118.7C70.3025 118.487 70.7238 118.295 71.2251 118.124C71.7371 117.943 72.2385 117.82 72.7291 117.756V119.388C72.4411 119.431 72.1265 119.495 71.7851 119.58C71.4438 119.665 71.1185 119.761 70.8091 119.868C70.4998 119.975 70.2385 120.087 70.0251 120.204V125.5H67.8651ZM77.3934 125.66C76.0387 125.66 74.9987 125.324 74.2734 124.652C73.5587 123.98 73.2014 122.999 73.2014 121.708C73.2014 120.375 73.5854 119.383 74.3534 118.732C75.132 118.081 76.1667 117.756 77.4574 117.756C77.9907 117.756 78.4494 117.793 78.8334 117.868C79.2174 117.943 79.5907 118.065 79.9534 118.236V119.788C79.6867 119.66 79.3774 119.559 79.0254 119.484C78.6734 119.409 78.2947 119.372 77.8894 119.372C77.0787 119.372 76.46 119.543 76.0334 119.884C75.6067 120.215 75.3934 120.823 75.3934 121.708C75.3934 122.519 75.5854 123.111 75.9694 123.484C76.364 123.857 76.9987 124.044 77.8734 124.044C78.2467 124.044 78.6094 124.007 78.9614 123.932C79.324 123.857 79.66 123.745 79.9694 123.596V125.196C79.2547 125.505 78.396 125.66 77.3934 125.66ZM81.3339 125.5V114.716H83.4939V118.556C83.8032 118.321 84.1819 118.129 84.6299 117.98C85.0779 117.831 85.5632 117.756 86.0859 117.756C87.0885 117.756 87.8192 117.991 88.2779 118.46C88.7365 118.929 88.9659 119.655 88.9659 120.636V125.5H86.8059V120.748C86.8059 120.236 86.6992 119.873 86.4859 119.66C86.2832 119.447 85.8992 119.34 85.3339 119.34C85.0032 119.34 84.6672 119.415 84.3259 119.564C83.9952 119.713 83.7179 119.9 83.4939 120.124V125.5H81.3339ZM92.8741 125.66C92.3941 125.66 91.9461 125.575 91.5301 125.404C91.1248 125.223 90.7941 124.961 90.5381 124.62C90.2928 124.268 90.1701 123.831 90.1701 123.308C90.1701 122.561 90.4315 121.964 90.9541 121.516C91.4875 121.068 92.2715 120.844 93.3061 120.844H95.5461V120.636C95.5461 120.167 95.4128 119.836 95.1461 119.644C94.8901 119.452 94.3675 119.356 93.5781 119.356C92.7141 119.356 91.8821 119.489 91.0821 119.756V118.236C91.4341 118.097 91.8608 117.985 92.3621 117.9C92.8741 117.804 93.4288 117.756 94.0261 117.756C95.1675 117.756 96.0475 117.991 96.6661 118.46C97.2955 118.919 97.6101 119.66 97.6101 120.684V125.5H95.7381L95.6261 124.812C95.3275 125.079 94.9595 125.287 94.5221 125.436C94.0848 125.585 93.5355 125.66 92.8741 125.66ZM93.4661 124.236C93.9461 124.236 94.3621 124.156 94.7141 123.996C95.0661 123.836 95.3435 123.633 95.5461 123.388V122.188H93.3541C92.5115 122.188 92.0901 122.535 92.0901 123.228C92.0901 123.9 92.5488 124.236 93.4661 124.236ZM102.022 125.66C101.456 125.66 100.918 125.617 100.406 125.532C99.8935 125.457 99.4828 125.361 99.1735 125.244V123.452C99.5468 123.601 99.9682 123.719 100.438 123.804C100.907 123.879 101.339 123.916 101.734 123.916C102.267 123.916 102.64 123.884 102.854 123.82C103.078 123.756 103.19 123.612 103.19 123.388C103.19 123.132 103.019 122.945 102.678 122.828C102.347 122.711 101.851 122.545 101.19 122.332C100.496 122.097 99.9628 121.815 99.5895 121.484C99.2162 121.153 99.0295 120.663 99.0295 120.012C99.0295 119.287 99.2908 118.732 99.8135 118.348C100.347 117.953 101.2 117.756 102.374 117.756C102.843 117.756 103.286 117.793 103.702 117.868C104.118 117.932 104.47 118.012 104.758 118.108V119.884C104.47 119.745 104.139 119.644 103.766 119.58C103.392 119.505 103.046 119.468 102.726 119.468C102.267 119.468 101.899 119.5 101.622 119.564C101.355 119.628 101.222 119.767 101.222 119.98C101.222 120.215 101.366 120.38 101.654 120.476C101.952 120.572 102.411 120.716 103.03 120.908C103.638 121.089 104.112 121.287 104.454 121.5C104.795 121.713 105.035 121.969 105.174 122.268C105.312 122.556 105.382 122.919 105.382 123.356C105.382 124.892 104.262 125.66 102.022 125.66ZM110.598 125.66C109.286 125.66 108.246 125.335 107.478 124.684C106.71 124.023 106.326 123.025 106.326 121.692C106.326 120.487 106.646 119.532 107.286 118.828C107.937 118.113 108.902 117.756 110.182 117.756C111.356 117.756 112.252 118.065 112.87 118.684C113.5 119.292 113.814 120.092 113.814 121.084V122.46H108.326C108.444 123.068 108.721 123.484 109.158 123.708C109.606 123.932 110.236 124.044 111.046 124.044C111.452 124.044 111.862 124.007 112.278 123.932C112.705 123.857 113.068 123.761 113.366 123.644V125.18C113.014 125.34 112.604 125.457 112.134 125.532C111.665 125.617 111.153 125.66 110.598 125.66ZM108.326 121.132H111.926V120.716C111.926 120.279 111.798 119.937 111.542 119.692C111.286 119.436 110.854 119.308 110.246 119.308C109.532 119.308 109.03 119.452 108.742 119.74C108.465 120.028 108.326 120.492 108.326 121.132ZM123.522 125.66C120.183 125.66 118.514 123.905 118.514 120.396C118.514 118.508 118.935 117.143 119.778 116.3C120.621 115.457 121.869 115.036 123.522 115.036C125.175 115.036 126.423 115.457 127.266 116.3C128.109 117.143 128.53 118.508 128.53 120.396C128.53 123.905 126.861 125.66 123.522 125.66ZM123.522 123.82C124.493 123.82 125.202 123.543 125.65 122.988C126.109 122.423 126.338 121.559 126.338 120.396C126.338 119.105 126.109 118.199 125.65 117.676C125.202 117.143 124.493 116.876 123.522 116.876C122.551 116.876 121.837 117.143 121.378 117.676C120.93 118.199 120.706 119.105 120.706 120.396C120.706 121.559 120.93 122.423 121.378 122.988C121.837 123.543 122.551 123.82 123.522 123.82ZM130.037 125.5V117.916H132.037L132.133 118.7C132.474 118.487 132.896 118.295 133.397 118.124C133.909 117.943 134.41 117.82 134.901 117.756V119.388C134.613 119.431 134.298 119.495 133.957 119.58C133.616 119.665 133.29 119.761 132.981 119.868C132.672 119.975 132.41 120.087 132.197 120.204V125.5H130.037ZM138.861 125.66C138.189 125.66 137.587 125.543 137.053 125.308C136.531 125.063 136.12 124.668 135.821 124.124C135.523 123.569 135.373 122.839 135.373 121.932C135.373 121.025 135.539 120.263 135.869 119.644C136.2 119.025 136.643 118.556 137.197 118.236C137.752 117.916 138.36 117.756 139.021 117.756C139.853 117.756 140.563 117.948 141.149 118.332V114.716H143.309V125.5H141.453L141.325 124.796C140.995 125.084 140.632 125.303 140.237 125.452C139.853 125.591 139.395 125.66 138.861 125.66ZM139.453 124.076C140.125 124.076 140.691 123.847 141.149 123.388V119.932C140.701 119.537 140.179 119.34 139.581 119.34C138.237 119.34 137.565 120.204 137.565 121.932C137.565 122.743 137.731 123.303 138.061 123.612C138.392 123.921 138.856 124.076 139.453 124.076ZM148.927 125.66C147.615 125.66 146.575 125.335 145.807 124.684C145.039 124.023 144.655 123.025 144.655 121.692C144.655 120.487 144.975 119.532 145.615 118.828C146.265 118.113 147.231 117.756 148.511 117.756C149.684 117.756 150.58 118.065 151.199 118.684C151.828 119.292 152.142 120.092 152.142 121.084V122.46H146.655C146.772 123.068 147.049 123.484 147.487 123.708C147.935 123.932 148.564 124.044 149.375 124.044C149.78 124.044 150.191 124.007 150.607 123.932C151.033 123.857 151.396 123.761 151.695 123.644V125.18C151.343 125.34 150.932 125.457 150.463 125.532C149.993 125.617 149.481 125.66 148.927 125.66ZM146.655 121.132H150.255V120.716C150.255 120.279 150.127 119.937 149.871 119.692C149.615 119.436 149.183 119.308 148.575 119.308C147.86 119.308 147.359 119.452 147.071 119.74C146.793 120.028 146.655 120.492 146.655 121.132ZM153.646 125.5V117.916H155.646L155.742 118.7C156.084 118.487 156.505 118.295 157.006 118.124C157.518 117.943 158.02 117.82 158.51 117.756V119.388C158.222 119.431 157.908 119.495 157.566 119.58C157.225 119.665 156.9 119.761 156.59 119.868C156.281 119.975 156.02 120.087 155.806 120.204V125.5H153.646Z" fill="#1E293B"/>
<path d="M220 108.5H303C304.933 108.5 306.5 110.067 306.5 112V128C306.5 129.933 304.933 131.5 303 131.5H220C218.067 131.5 216.5 129.933 216.5 128V112C216.5 110.067 218.067 108.5 220 108.5Z" fill="#F9FAFC"/>
<path d="M220 108.5H303C304.933 108.5 306.5 110.067 306.5 112V128C306.5 129.933 304.933 131.5 303 131.5H220C218.067 131.5 216.5 129.933 216.5 128V112C216.5 110.067 218.067 108.5 220 108.5Z" stroke="#A9ACB9"/>
<g clip-path="url(#clip4_2122_6246)">
<path d="M226.209 125.5V115.196H231.041C231.852 115.196 232.513 115.351 233.025 115.66C233.548 115.969 233.937 116.391 234.193 116.924C234.449 117.457 234.577 118.065 234.577 118.748C234.577 119.441 234.428 120.055 234.129 120.588C233.841 121.121 233.425 121.537 232.881 121.836C232.348 122.124 231.713 122.268 230.977 122.268H228.369V125.5H226.209ZM228.369 120.556H230.529C231.148 120.556 231.612 120.396 231.921 120.076C232.241 119.745 232.401 119.303 232.401 118.748C232.401 118.151 232.252 117.697 231.953 117.388C231.654 117.068 231.206 116.908 230.609 116.908H228.369V120.556ZM240.459 125.66C237.121 125.66 235.451 123.905 235.451 120.396C235.451 118.508 235.873 117.143 236.715 116.3C237.558 115.457 238.806 115.036 240.459 115.036C242.113 115.036 243.361 115.457 244.203 116.3C245.046 117.143 245.467 118.508 245.467 120.396C245.467 123.905 243.798 125.66 240.459 125.66ZM240.459 123.82C241.43 123.82 242.139 123.543 242.587 122.988C243.046 122.423 243.275 121.559 243.275 120.396C243.275 119.105 243.046 118.199 242.587 117.676C242.139 117.143 241.43 116.876 240.459 116.876C239.489 116.876 238.774 117.143 238.315 117.676C237.867 118.199 237.643 119.105 237.643 120.396C237.643 121.559 237.867 122.423 238.315 122.988C238.774 123.543 239.489 123.82 240.459 123.82ZM250.57 125.5L251.402 122.86H250.17V121.436H251.85L252.522 119.26H250.874V117.82H252.97L253.802 115.196H255.674L254.842 117.82H257.226L258.058 115.196H259.93L259.098 117.82H260.266V119.26H258.65L257.962 121.436H259.562V122.86H257.514L256.682 125.5H254.826L255.658 122.86H253.258L252.426 125.5H250.57ZM253.706 121.436H256.106L256.778 119.26H254.394L253.706 121.436ZM266.107 125.916C264.977 125.916 264.07 125.703 263.387 125.276C262.705 124.849 262.209 124.231 261.899 123.42C261.601 122.599 261.451 121.617 261.451 120.476C261.451 119.324 261.601 118.343 261.899 117.532C262.209 116.721 262.705 116.103 263.387 115.676C264.07 115.249 264.977 115.036 266.107 115.036C267.238 115.036 268.145 115.249 268.827 115.676C269.51 116.103 270.001 116.721 270.299 117.532C270.609 118.343 270.763 119.324 270.763 120.476C270.763 121.617 270.609 122.599 270.299 123.42C270.001 124.231 269.51 124.849 268.827 125.276C268.145 125.703 267.238 125.916 266.107 125.916ZM266.107 124.06C267.035 124.06 267.675 123.751 268.027 123.132C268.39 122.513 268.571 121.628 268.571 120.476C268.571 119.324 268.39 118.439 268.027 117.82C267.675 117.201 267.035 116.892 266.107 116.892C265.179 116.892 264.534 117.201 264.171 117.82C263.819 118.439 263.643 119.324 263.643 120.476C263.643 121.628 263.819 122.513 264.171 123.132C264.534 123.751 265.179 124.06 266.107 124.06ZM276.607 125.916C275.477 125.916 274.57 125.703 273.887 125.276C273.205 124.849 272.709 124.231 272.399 123.42C272.101 122.599 271.951 121.617 271.951 120.476C271.951 119.324 272.101 118.343 272.399 117.532C272.709 116.721 273.205 116.103 273.887 115.676C274.57 115.249 275.477 115.036 276.607 115.036C277.738 115.036 278.645 115.249 279.327 115.676C280.01 116.103 280.501 116.721 280.799 117.532C281.109 118.343 281.263 119.324 281.263 120.476C281.263 121.617 281.109 122.599 280.799 123.42C280.501 124.231 280.01 124.849 279.327 125.276C278.645 125.703 277.738 125.916 276.607 125.916ZM276.607 124.06C277.535 124.06 278.175 123.751 278.527 123.132C278.89 122.513 279.071 121.628 279.071 120.476C279.071 119.324 278.89 118.439 278.527 117.82C278.175 117.201 277.535 116.892 276.607 116.892C275.679 116.892 275.034 117.201 274.671 117.82C274.319 118.439 274.143 119.324 274.143 120.476C274.143 121.628 274.319 122.513 274.671 123.132C275.034 123.751 275.679 124.06 276.607 124.06ZM287.107 125.916C285.977 125.916 285.07 125.703 284.387 125.276C283.705 124.849 283.209 124.231 282.899 123.42C282.601 122.599 282.451 121.617 282.451 120.476C282.451 119.324 282.601 118.343 282.899 117.532C283.209 116.721 283.705 116.103 284.387 115.676C285.07 115.249 285.977 115.036 287.107 115.036C288.238 115.036 289.145 115.249 289.827 115.676C290.51 116.103 291.001 116.721 291.299 117.532C291.609 118.343 291.763 119.324 291.763 120.476C291.763 121.617 291.609 122.599 291.299 123.42C291.001 124.231 290.51 124.849 289.827 125.276C289.145 125.703 288.238 125.916 287.107 125.916ZM287.107 124.06C288.035 124.06 288.675 123.751 289.027 123.132C289.39 122.513 289.571 121.628 289.571 120.476C289.571 119.324 289.39 118.439 289.027 117.82C288.675 117.201 288.035 116.892 287.107 116.892C286.179 116.892 285.534 117.201 285.171 117.82C284.819 118.439 284.643 119.324 284.643 120.476C284.643 121.628 284.819 122.513 285.171 123.132C285.534 123.751 286.179 124.06 287.107 124.06ZM294.631 125.5V117.148L292.951 117.42V115.612L296.791 115.036V125.5H294.631Z" fill="#5A6370"/>
</g>
<path d="M52.528 147L48.592 136.696H50.848L53.696 144.584L56.56 136.696H58.816L54.896 147H52.528ZM62.8328 147.16C61.5208 147.16 60.4808 146.835 59.7128 146.184C58.9448 145.523 58.5608 144.525 58.5608 143.192C58.5608 141.987 58.8808 141.032 59.5208 140.328C60.1714 139.613 61.1368 139.256 62.4168 139.256C63.5901 139.256 64.4861 139.565 65.1048 140.184C65.7341 140.792 66.0487 141.592 66.0487 142.584V143.96H60.5608C60.6781 144.568 60.9554 144.984 61.3928 145.208C61.8408 145.432 62.4701 145.544 63.2808 145.544C63.6861 145.544 64.0968 145.507 64.5128 145.432C64.9394 145.357 65.3021 145.261 65.6008 145.144V146.68C65.2488 146.84 64.8381 146.957 64.3688 147.032C63.8994 147.117 63.3874 147.16 62.8328 147.16ZM60.5608 142.632H64.1608V142.216C64.1608 141.779 64.0328 141.437 63.7768 141.192C63.5208 140.936 63.0888 140.808 62.4808 140.808C61.7661 140.808 61.2648 140.952 60.9768 141.24C60.6994 141.528 60.5608 141.992 60.5608 142.632ZM67.5526 147V139.416H69.5526L69.6326 140.136C69.942 139.901 70.3313 139.699 70.8006 139.528C71.2806 139.347 71.782 139.256 72.3046 139.256C73.3073 139.256 74.038 139.491 74.4966 139.96C74.9553 140.429 75.1846 141.155 75.1846 142.136V147H73.0246V142.248C73.0246 141.736 72.918 141.373 72.7046 141.16C72.502 140.947 72.118 140.84 71.5526 140.84C71.222 140.84 70.886 140.915 70.5446 141.064C70.214 141.213 69.9366 141.4 69.7126 141.624V147H67.5526ZM79.8613 147.16C79.1893 147.16 78.5866 147.043 78.0533 146.808C77.5306 146.563 77.1199 146.168 76.8213 145.624C76.5226 145.069 76.3733 144.339 76.3733 143.432C76.3733 142.525 76.5386 141.763 76.8693 141.144C77.1999 140.525 77.6426 140.056 78.1973 139.736C78.7519 139.416 79.3599 139.256 80.0213 139.256C80.8533 139.256 81.5626 139.448 82.1493 139.832V136.216H84.3093V147H82.4533L82.3253 146.296C81.9946 146.584 81.6319 146.803 81.2373 146.952C80.8533 147.091 80.3946 147.16 79.8613 147.16ZM80.4533 145.576C81.1253 145.576 81.6906 145.347 82.1493 144.888V141.432C81.7013 141.037 81.1786 140.84 80.5813 140.84C79.2373 140.84 78.5653 141.704 78.5653 143.432C78.5653 144.243 78.7306 144.803 79.0613 145.112C79.3919 145.421 79.8559 145.576 80.4533 145.576ZM89.7665 147.16C88.3478 147.16 87.3078 146.819 86.6465 146.136C85.9852 145.443 85.6545 144.467 85.6545 143.208C85.6545 141.949 85.9852 140.979 86.6465 140.296C87.3185 139.603 88.3585 139.256 89.7665 139.256C91.1852 139.256 92.2252 139.603 92.8865 140.296C93.5585 140.979 93.8945 141.949 93.8945 143.208C93.8945 144.467 93.5638 145.443 92.9025 146.136C92.2412 146.819 91.1958 147.16 89.7665 147.16ZM89.7665 145.32C90.4598 145.32 90.9558 145.165 91.2545 144.856C91.5532 144.536 91.7025 143.987 91.7025 143.208C91.7025 142.429 91.5532 141.885 91.2545 141.576C90.9558 141.256 90.4598 141.096 89.7665 141.096C89.0838 141.096 88.5932 141.256 88.2945 141.576C87.9958 141.885 87.8465 142.429 87.8465 143.208C87.8465 143.987 87.9958 144.536 88.2945 144.856C88.5932 145.165 89.0838 145.32 89.7665 145.32ZM95.3964 147V139.416H97.3964L97.4924 140.2C97.8337 139.987 98.255 139.795 98.7564 139.624C99.2684 139.443 99.7697 139.32 100.26 139.256V140.888C99.9724 140.931 99.6577 140.995 99.3164 141.08C98.975 141.165 98.6497 141.261 98.3404 141.368C98.031 141.475 97.7697 141.587 97.5564 141.704V147H95.3964ZM109.569 147.16C106.23 147.16 104.561 145.405 104.561 141.896C104.561 140.008 104.982 138.643 105.825 137.8C106.667 136.957 107.915 136.536 109.569 136.536C111.222 136.536 112.47 136.957 113.313 137.8C114.155 138.643 114.577 140.008 114.577 141.896C114.577 145.405 112.907 147.16 109.569 147.16ZM109.569 145.32C110.539 145.32 111.249 145.043 111.697 144.488C112.155 143.923 112.385 143.059 112.385 141.896C112.385 140.605 112.155 139.699 111.697 139.176C111.249 138.643 110.539 138.376 109.569 138.376C108.598 138.376 107.883 138.643 107.425 139.176C106.977 139.699 106.753 140.605 106.753 141.896C106.753 143.059 106.977 143.923 107.425 144.488C107.883 145.043 108.598 145.32 109.569 145.32ZM116.084 147V139.416H118.084L118.18 140.2C118.521 139.987 118.943 139.795 119.444 139.624C119.956 139.443 120.457 139.32 120.948 139.256V140.888C120.66 140.931 120.345 140.995 120.004 141.08C119.663 141.165 119.337 141.261 119.028 141.368C118.719 141.475 118.457 141.587 118.244 141.704V147H116.084ZM124.908 147.16C124.236 147.16 123.633 147.043 123.1 146.808C122.577 146.563 122.167 146.168 121.868 145.624C121.569 145.069 121.42 144.339 121.42 143.432C121.42 142.525 121.585 141.763 121.916 141.144C122.247 140.525 122.689 140.056 123.244 139.736C123.799 139.416 124.407 139.256 125.068 139.256C125.9 139.256 126.609 139.448 127.196 139.832V136.216H129.356V147H127.5L127.372 146.296C127.041 146.584 126.679 146.803 126.284 146.952C125.9 147.091 125.441 147.16 124.908 147.16ZM125.5 145.576C126.172 145.576 126.737 145.347 127.196 144.888V141.432C126.748 141.037 126.225 140.84 125.628 140.84C124.284 140.84 123.612 141.704 123.612 143.432C123.612 144.243 123.777 144.803 124.108 145.112C124.439 145.421 124.903 145.576 125.5 145.576ZM134.973 147.16C133.661 147.16 132.621 146.835 131.853 146.184C131.085 145.523 130.701 144.525 130.701 143.192C130.701 141.987 131.021 141.032 131.661 140.328C132.312 139.613 133.277 139.256 134.557 139.256C135.731 139.256 136.627 139.565 137.245 140.184C137.875 140.792 138.189 141.592 138.189 142.584V143.96H132.701C132.819 144.568 133.096 144.984 133.533 145.208C133.981 145.432 134.611 145.544 135.421 145.544C135.827 145.544 136.237 145.507 136.653 145.432C137.08 145.357 137.443 145.261 137.741 145.144V146.68C137.389 146.84 136.979 146.957 136.509 147.032C136.04 147.117 135.528 147.16 134.973 147.16ZM132.701 142.632H136.301V142.216C136.301 141.779 136.173 141.437 135.917 141.192C135.661 140.936 135.229 140.808 134.621 140.808C133.907 140.808 133.405 140.952 133.117 141.24C132.84 141.528 132.701 141.992 132.701 142.632ZM139.693 147V139.416H141.693L141.789 140.2C142.131 139.987 142.552 139.795 143.053 139.624C143.565 139.443 144.067 139.32 144.557 139.256V140.888C144.269 140.931 143.955 140.995 143.613 141.08C143.272 141.165 142.947 141.261 142.637 141.368C142.328 141.475 142.067 141.587 141.853 141.704V147H139.693ZM149.258 147L150.09 144.36H148.858V142.936H150.538L151.21 140.76H149.562V139.32H151.658L152.49 136.696H154.362L153.53 139.32H155.914L156.746 136.696H158.618L157.786 139.32H158.954V140.76H157.338L156.65 142.936H158.25V144.36H156.202L155.37 147H153.514L154.346 144.36H151.946L151.114 147H149.258ZM152.394 142.936H154.794L155.466 140.76H153.082L152.394 142.936Z" fill="#1E293B"/>
<path d="M218.432 147V137.816L216.8 138.104V137L219.744 136.536V147H218.432ZM223.291 147V137.816L221.659 138.104V137L224.603 136.536V147H223.291ZM229.863 147.16C229.372 147.16 228.929 147.128 228.535 147.064C228.151 147.011 227.804 146.931 227.495 146.824V145.688C227.804 145.795 228.145 145.88 228.519 145.944C228.903 146.008 229.329 146.04 229.799 146.04C230.844 146.04 231.601 145.773 232.071 145.24C232.54 144.707 232.775 144.003 232.775 143.128V142.344C232.359 142.643 231.895 142.867 231.383 143.016C230.881 143.165 230.423 143.24 230.007 143.24C228.833 143.24 227.959 142.952 227.383 142.376C226.807 141.8 226.519 140.979 226.519 139.912C226.519 138.899 226.828 138.083 227.447 137.464C228.065 136.845 229.004 136.536 230.263 136.536C231.5 136.536 232.433 136.851 233.063 137.48C233.703 138.099 234.023 139.091 234.023 140.456V142.888C234.023 143.741 233.852 144.488 233.511 145.128C233.18 145.768 232.7 146.269 232.071 146.632C231.452 146.984 230.716 147.16 229.863 147.16ZM230.119 142.216C230.641 142.216 231.127 142.136 231.575 141.976C232.023 141.805 232.423 141.592 232.775 141.336V140.088C232.775 138.413 231.937 137.576 230.263 137.576C229.409 137.576 228.769 137.784 228.343 138.2C227.916 138.605 227.703 139.165 227.703 139.88C227.703 140.36 227.772 140.776 227.911 141.128C228.049 141.48 228.295 141.752 228.647 141.944C228.999 142.125 229.489 142.216 230.119 142.216ZM235.628 147V146.296C235.905 145.624 236.3 145.011 236.812 144.456C237.324 143.901 237.873 143.379 238.46 142.888C239.047 142.397 239.5 141.987 239.82 141.656C240.151 141.315 240.38 140.989 240.508 140.68C240.636 140.36 240.7 139.987 240.7 139.56C240.7 138.941 240.54 138.472 240.22 138.152C239.9 137.821 239.303 137.656 238.428 137.656C238.033 137.656 237.628 137.699 237.212 137.784C236.796 137.859 236.401 137.971 236.028 138.12V136.952C236.369 136.835 236.78 136.739 237.26 136.664C237.74 136.579 238.199 136.536 238.636 136.536C239.745 136.536 240.583 136.808 241.148 137.352C241.724 137.885 242.012 138.621 242.012 139.56C242.012 140.072 241.921 140.525 241.74 140.92C241.559 141.304 241.308 141.672 240.988 142.024C240.668 142.365 240.295 142.728 239.868 143.112C239.345 143.571 238.844 144.024 238.364 144.472C237.895 144.909 237.521 145.411 237.244 145.976H242.124V147H235.628ZM243.722 143.224V142.184H249.754V143.224H243.722ZM256.323 147V144.632H251.027V143.64L256.467 136.696H257.635V143.56H258.723V144.632H257.635V147H256.323ZM252.339 143.592H256.499V138.264L252.339 143.592ZM262.771 147.16C262.302 147.16 261.8 147.117 261.267 147.032C260.734 146.947 260.312 146.845 260.003 146.728V145.576C260.408 145.736 260.83 145.853 261.267 145.928C261.704 146.003 262.152 146.04 262.611 146.04C263.528 146.04 264.206 145.901 264.643 145.624C265.091 145.347 265.315 144.861 265.315 144.168C265.315 143.507 265.107 143.027 264.691 142.728C264.275 142.429 263.694 142.28 262.947 142.28H261.459L261.587 141.288H262.819C263.587 141.288 264.158 141.123 264.531 140.792C264.904 140.451 265.091 139.976 265.091 139.368C265.091 138.781 264.894 138.349 264.499 138.072C264.115 137.795 263.496 137.656 262.643 137.656C262.216 137.656 261.784 137.699 261.347 137.784C260.92 137.869 260.536 137.981 260.195 138.12V136.984C260.494 136.867 260.883 136.765 261.363 136.68C261.854 136.584 262.339 136.536 262.819 136.536C264.046 136.536 264.947 136.803 265.523 137.336C266.11 137.859 266.403 138.531 266.403 139.352C266.403 139.875 266.264 140.365 265.987 140.824C265.72 141.272 265.288 141.587 264.691 141.768C265.374 141.917 265.864 142.216 266.163 142.664C266.472 143.101 266.627 143.603 266.627 144.168C266.627 145.171 266.28 145.923 265.587 146.424C264.894 146.915 263.955 147.16 262.771 147.16ZM272.094 147.16C270.835 147.16 269.875 146.92 269.214 146.44C268.553 145.949 268.222 145.229 268.222 144.28C268.222 143.661 268.387 143.117 268.718 142.648C269.059 142.179 269.555 141.853 270.206 141.672C269.609 141.48 269.177 141.181 268.91 140.776C268.643 140.36 268.51 139.907 268.51 139.416C268.51 138.541 268.809 137.843 269.406 137.32C270.003 136.797 270.899 136.536 272.094 136.536C273.331 136.536 274.238 136.797 274.814 137.32C275.39 137.843 275.678 138.541 275.678 139.416C275.678 139.928 275.545 140.403 275.278 140.84C275.022 141.277 274.563 141.608 273.902 141.832C274.627 142.013 275.15 142.307 275.47 142.712C275.801 143.117 275.966 143.64 275.966 144.28C275.966 145.229 275.635 145.949 274.974 146.44C274.323 146.92 273.363 147.16 272.094 147.16ZM272.542 141.416C273.203 141.256 273.694 141.032 274.014 140.744C274.334 140.445 274.494 140.008 274.494 139.432C274.494 138.824 274.286 138.365 273.87 138.056C273.465 137.736 272.873 137.576 272.094 137.576C271.326 137.576 270.734 137.731 270.318 138.04C269.902 138.339 269.694 138.797 269.694 139.416C269.694 139.875 269.838 140.259 270.126 140.568C270.414 140.867 270.814 141.069 271.326 141.176L272.542 141.416ZM272.094 146.12C273.886 146.12 274.782 145.501 274.782 144.264C274.782 143.699 274.611 143.288 274.27 143.032C273.939 142.765 273.459 142.568 272.83 142.44L271.438 142.152C270.819 142.28 270.323 142.504 269.95 142.824C269.587 143.133 269.406 143.608 269.406 144.248C269.406 144.888 269.635 145.363 270.094 145.672C270.553 145.971 271.219 146.12 272.094 146.12ZM277.566 147V146.296C277.843 145.624 278.238 145.011 278.75 144.456C279.262 143.901 279.811 143.379 280.398 142.888C280.984 142.397 281.438 141.987 281.758 141.656C282.088 141.315 282.318 140.989 282.446 140.68C282.574 140.36 282.638 139.987 282.638 139.56C282.638 138.941 282.478 138.472 282.158 138.152C281.838 137.821 281.24 137.656 280.366 137.656C279.971 137.656 279.566 137.699 279.15 137.784C278.734 137.859 278.339 137.971 277.966 138.12V136.952C278.307 136.835 278.718 136.739 279.198 136.664C279.678 136.579 280.136 136.536 280.574 136.536C281.683 136.536 282.52 136.808 283.086 137.352C283.662 137.885 283.95 138.621 283.95 139.56C283.95 140.072 283.859 140.525 283.678 140.92C283.496 141.304 283.246 141.672 282.926 142.024C282.606 142.365 282.232 142.728 281.806 143.112C281.283 143.571 280.782 144.024 280.302 144.472C279.832 144.909 279.459 145.411 279.182 145.976H284.062V147H277.566ZM290.635 147V144.632H285.339V143.64L290.779 136.696H291.947V143.56H293.035V144.632H291.947V147H290.635ZM286.651 143.592H290.811V138.264L286.651 143.592ZM297.084 147.16C296.614 147.16 296.113 147.117 295.58 147.032C295.046 146.947 294.625 146.845 294.316 146.728V145.576C294.721 145.736 295.142 145.853 295.58 145.928C296.017 146.003 296.465 146.04 296.924 146.04C297.841 146.04 298.518 145.901 298.956 145.624C299.404 145.347 299.628 144.861 299.628 144.168C299.628 143.507 299.42 143.027 299.004 142.728C298.588 142.429 298.006 142.28 297.26 142.28H295.772L295.9 141.288H297.132C297.9 141.288 298.47 141.123 298.844 140.792C299.217 140.451 299.404 139.976 299.404 139.368C299.404 138.781 299.206 138.349 298.812 138.072C298.428 137.795 297.809 137.656 296.956 137.656C296.529 137.656 296.097 137.699 295.66 137.784C295.233 137.869 294.849 137.981 294.508 138.12V136.984C294.806 136.867 295.196 136.765 295.676 136.68C296.166 136.584 296.652 136.536 297.132 136.536C298.358 136.536 299.26 136.803 299.836 137.336C300.422 137.859 300.716 138.531 300.716 139.352C300.716 139.875 300.577 140.365 300.3 140.824C300.033 141.272 299.601 141.587 299.004 141.768C299.686 141.917 300.177 142.216 300.476 142.664C300.785 143.101 300.94 143.603 300.94 144.168C300.94 145.171 300.593 145.923 299.9 146.424C299.206 146.915 298.268 147.16 297.084 147.16ZM305.302 147.16C304.833 147.16 304.332 147.117 303.798 147.032C303.265 146.947 302.844 146.845 302.534 146.728V145.576C302.94 145.736 303.361 145.853 303.798 145.928C304.236 146.003 304.684 146.04 305.142 146.04C306.06 146.04 306.737 145.901 307.174 145.624C307.622 145.347 307.846 144.861 307.846 144.168C307.846 143.507 307.638 143.027 307.222 142.728C306.806 142.429 306.225 142.28 305.478 142.28H303.99L304.118 141.288H305.35C306.118 141.288 306.689 141.123 307.062 140.792C307.436 140.451 307.622 139.976 307.622 139.368C307.622 138.781 307.425 138.349 307.03 138.072C306.646 137.795 306.028 137.656 305.174 137.656C304.748 137.656 304.316 137.699 303.878 137.784C303.452 137.869 303.068 137.981 302.726 138.12V136.984C303.025 136.867 303.414 136.765 303.894 136.68C304.385 136.584 304.87 136.536 305.35 136.536C306.577 136.536 307.478 136.803 308.054 137.336C308.641 137.859 308.934 138.531 308.934 139.352C308.934 139.875 308.796 140.365 308.518 140.824C308.252 141.272 307.82 141.587 307.222 141.768C307.905 141.917 308.396 142.216 308.694 142.664C309.004 143.101 309.158 143.603 309.158 144.168C309.158 145.171 308.812 145.923 308.118 146.424C307.425 146.915 306.486 147.16 305.302 147.16ZM313.521 147.16C313.052 147.16 312.55 147.117 312.017 147.032C311.484 146.947 311.062 146.845 310.753 146.728V145.576C311.158 145.736 311.58 145.853 312.017 145.928C312.454 146.003 312.902 146.04 313.361 146.04C314.278 146.04 314.956 145.901 315.393 145.624C315.841 145.347 316.065 144.861 316.065 144.168C316.065 143.507 315.857 143.027 315.441 142.728C315.025 142.429 314.444 142.28 313.697 142.28H312.209L312.337 141.288H313.569C314.337 141.288 314.908 141.123 315.281 140.792C315.654 140.451 315.841 139.976 315.841 139.368C315.841 138.781 315.644 138.349 315.249 138.072C314.865 137.795 314.246 137.656 313.393 137.656C312.966 137.656 312.534 137.699 312.097 137.784C311.67 137.869 311.286 137.981 310.945 138.12V136.984C311.244 136.867 311.633 136.765 312.113 136.68C312.604 136.584 313.089 136.536 313.569 136.536C314.796 136.536 315.697 136.803 316.273 137.336C316.86 137.859 317.153 138.531 317.153 139.352C317.153 139.875 317.014 140.365 316.737 140.824C316.47 141.272 316.038 141.587 315.441 141.768C316.124 141.917 316.614 142.216 316.913 142.664C317.222 143.101 317.377 143.603 317.377 144.168C317.377 145.171 317.03 145.923 316.337 146.424C315.644 146.915 314.705 147.16 313.521 147.16Z" fill="#1E293B"/>
<path d="M53.6 166.16C50.2613 166.16 48.592 164.405 48.592 160.896C48.592 159.008 49.0133 157.643 49.856 156.8C50.6987 155.957 51.9467 155.536 53.6 155.536C55.2533 155.536 56.5013 155.957 57.344 156.8C58.1867 157.643 58.608 159.008 58.608 160.896C58.608 164.405 56.9387 166.16 53.6 166.16ZM53.6 164.32C54.5707 164.32 55.28 164.043 55.728 163.488C56.1867 162.923 56.416 162.059 56.416 160.896C56.416 159.605 56.1867 158.699 55.728 158.176C55.28 157.643 54.5707 157.376 53.6 157.376C52.6293 157.376 51.9147 157.643 51.456 158.176C51.008 158.699 50.784 159.605 50.784 160.896C50.784 162.059 51.008 162.923 51.456 163.488C51.9147 164.043 52.6293 164.32 53.6 164.32ZM60.1151 166V158.416H62.1151L62.2111 159.2C62.5525 158.987 62.9738 158.795 63.4751 158.624C63.9871 158.443 64.4885 158.32 64.9791 158.256V159.888C64.6911 159.931 64.3765 159.995 64.0351 160.08C63.6938 160.165 63.3685 160.261 63.0591 160.368C62.7498 160.475 62.4885 160.587 62.2751 160.704V166H60.1151ZM68.9394 166.16C68.2674 166.16 67.6647 166.043 67.1314 165.808C66.6087 165.563 66.198 165.168 65.8994 164.624C65.6007 164.069 65.4514 163.339 65.4514 162.432C65.4514 161.525 65.6167 160.763 65.9474 160.144C66.278 159.525 66.7207 159.056 67.2754 158.736C67.83 158.416 68.438 158.256 69.0994 158.256C69.9314 158.256 70.6407 158.448 71.2274 158.832V155.216H73.3874V166H71.5314L71.4034 165.296C71.0727 165.584 70.71 165.803 70.3154 165.952C69.9314 166.091 69.4727 166.16 68.9394 166.16ZM69.5314 164.576C70.2034 164.576 70.7687 164.347 71.2274 163.888V160.432C70.7794 160.037 70.2567 159.84 69.6594 159.84C68.3154 159.84 67.6434 160.704 67.6434 162.432C67.6434 163.243 67.8087 163.803 68.1394 164.112C68.47 164.421 68.934 164.576 69.5314 164.576ZM79.0046 166.16C77.6926 166.16 76.6526 165.835 75.8846 165.184C75.1166 164.523 74.7326 163.525 74.7326 162.192C74.7326 160.987 75.0526 160.032 75.6926 159.328C76.3433 158.613 77.3086 158.256 78.5886 158.256C79.762 158.256 80.658 158.565 81.2766 159.184C81.906 159.792 82.2206 160.592 82.2206 161.584V162.96H76.7326C76.85 163.568 77.1273 163.984 77.5646 164.208C78.0126 164.432 78.642 164.544 79.4526 164.544C79.858 164.544 80.2686 164.507 80.6846 164.432C81.1113 164.357 81.474 164.261 81.7726 164.144V165.68C81.4206 165.84 81.01 165.957 80.5406 166.032C80.0713 166.117 79.5593 166.16 79.0046 166.16ZM76.7326 161.632H80.3326V161.216C80.3326 160.779 80.2046 160.437 79.9486 160.192C79.6926 159.936 79.2606 159.808 78.6526 159.808C77.938 159.808 77.4366 159.952 77.1486 160.24C76.8713 160.528 76.7326 160.992 76.7326 161.632ZM83.7245 166V158.416H85.7245L85.8205 159.2C86.1618 158.987 86.5832 158.795 87.0845 158.624C87.5965 158.443 88.0978 158.32 88.5885 158.256V159.888C88.3005 159.931 87.9858 159.995 87.6445 160.08C87.3032 160.165 86.9778 160.261 86.6685 160.368C86.3592 160.475 86.0978 160.587 85.8845 160.704V166H83.7245ZM95.7369 166V157.36H92.5689V155.696H101.049V157.36H97.8969V166H95.7369ZM104.516 166.16C103.098 166.16 102.058 165.819 101.397 165.136C100.735 164.443 100.405 163.467 100.405 162.208C100.405 160.949 100.735 159.979 101.397 159.296C102.069 158.603 103.109 158.256 104.516 158.256C105.935 158.256 106.975 158.603 107.637 159.296C108.309 159.979 108.645 160.949 108.645 162.208C108.645 163.467 108.314 164.443 107.653 165.136C106.991 165.819 105.946 166.16 104.516 166.16ZM104.516 164.32C105.21 164.32 105.706 164.165 106.005 163.856C106.303 163.536 106.453 162.987 106.453 162.208C106.453 161.429 106.303 160.885 106.005 160.576C105.706 160.256 105.21 160.096 104.516 160.096C103.834 160.096 103.343 160.256 103.045 160.576C102.746 160.885 102.597 161.429 102.597 162.208C102.597 162.987 102.746 163.536 103.045 163.856C103.343 164.165 103.834 164.32 104.516 164.32ZM113.154 166.16C112.28 166.16 111.629 165.931 111.202 165.472C110.786 165.013 110.578 164.389 110.578 163.6V160.08H109.506V158.416H110.578V156.784L112.738 156.144V158.416H114.658L114.53 160.08H112.738V163.456C112.738 163.872 112.834 164.16 113.026 164.32C113.218 164.469 113.517 164.544 113.922 164.544C114.221 164.544 114.53 164.491 114.85 164.384V165.872C114.616 165.968 114.36 166.037 114.082 166.08C113.805 166.133 113.496 166.16 113.154 166.16ZM118.343 166.16C117.863 166.16 117.415 166.075 116.999 165.904C116.594 165.723 116.263 165.461 116.007 165.12C115.762 164.768 115.639 164.331 115.639 163.808C115.639 163.061 115.9 162.464 116.423 162.016C116.956 161.568 117.74 161.344 118.775 161.344H121.015V161.136C121.015 160.667 120.882 160.336 120.615 160.144C120.359 159.952 119.836 159.856 119.047 159.856C118.183 159.856 117.351 159.989 116.551 160.256V158.736C116.903 158.597 117.33 158.485 117.831 158.4C118.343 158.304 118.898 158.256 119.495 158.256C120.636 158.256 121.516 158.491 122.135 158.96C122.764 159.419 123.079 160.16 123.079 161.184V166H121.207L121.095 165.312C120.796 165.579 120.428 165.787 119.991 165.936C119.554 166.085 119.004 166.16 118.343 166.16ZM118.935 164.736C119.415 164.736 119.831 164.656 120.183 164.496C120.535 164.336 120.812 164.133 121.015 163.888V162.688H118.823C117.98 162.688 117.559 163.035 117.559 163.728C117.559 164.4 118.018 164.736 118.935 164.736ZM126.93 166.16C126.194 166.16 125.656 165.989 125.314 165.648C124.984 165.307 124.818 164.763 124.818 164.016V155.216H126.978V163.84C126.978 164.107 127.032 164.293 127.138 164.4C127.245 164.496 127.4 164.544 127.602 164.544C127.88 164.544 128.13 164.507 128.354 164.432V165.92C127.949 166.08 127.474 166.16 126.93 166.16Z" fill="#1E293B"/>
<path d="M219.952 167.376V166.16C218.747 166.139 217.776 165.979 217.04 165.68V164.512C217.477 164.683 217.941 164.816 218.432 164.912C218.923 164.997 219.429 165.04 219.952 165.04V161.248C219.909 161.248 219.883 161.243 219.872 161.232C218.741 160.955 217.947 160.597 217.488 160.16C217.029 159.712 216.8 159.115 216.8 158.368C216.8 157.579 217.056 156.939 217.568 156.448C218.091 155.947 218.885 155.653 219.952 155.568V154.32H220.976V155.552C221.499 155.563 221.979 155.611 222.416 155.696C222.864 155.771 223.216 155.851 223.472 155.936V157.088C223.109 156.96 222.715 156.859 222.288 156.784C221.861 156.709 221.424 156.667 220.976 156.656V160.304C221.776 160.507 222.4 160.752 222.848 161.04C223.307 161.317 223.627 161.648 223.808 162.032C224 162.405 224.096 162.832 224.096 163.312C224.096 164.123 223.835 164.768 223.312 165.248C222.789 165.728 222.011 166.016 220.976 166.112V167.376H219.952ZM219.952 160.048V156.704C219.355 156.779 218.896 156.949 218.576 157.216C218.267 157.483 218.112 157.867 218.112 158.368C218.112 158.816 218.245 159.157 218.512 159.392C218.779 159.627 219.259 159.845 219.952 160.048ZM220.976 164.992C221.573 164.917 222.021 164.752 222.32 164.496C222.629 164.24 222.784 163.845 222.784 163.312C222.784 162.832 222.645 162.464 222.368 162.208C222.101 161.952 221.637 161.723 220.976 161.52V164.992ZM225.691 166V165.296C225.968 164.624 226.363 164.011 226.875 163.456C227.387 162.901 227.936 162.379 228.523 161.888C229.109 161.397 229.563 160.987 229.883 160.656C230.213 160.315 230.443 159.989 230.571 159.68C230.699 159.36 230.763 158.987 230.763 158.56C230.763 157.941 230.603 157.472 230.283 157.152C229.963 156.821 229.365 156.656 228.491 156.656C228.096 156.656 227.691 156.699 227.275 156.784C226.859 156.859 226.464 156.971 226.091 157.12V155.952C226.432 155.835 226.843 155.739 227.323 155.664C227.803 155.579 228.261 155.536 228.699 155.536C229.808 155.536 230.645 155.808 231.211 156.352C231.787 156.885 232.075 157.621 232.075 158.56C232.075 159.072 231.984 159.525 231.803 159.92C231.621 160.304 231.371 160.672 231.051 161.024C230.731 161.365 230.357 161.728 229.931 162.112C229.408 162.571 228.907 163.024 228.427 163.472C227.957 163.909 227.584 164.411 227.307 164.976H232.187V166H225.691ZM238.76 166V163.632H233.464V162.64L238.904 155.696H240.072V162.56H241.16V163.632H240.072V166H238.76ZM234.776 162.592H238.936V157.264L234.776 162.592ZM242.441 166V164.896H243.625V166H242.441ZM250.198 166V163.632H244.902V162.64L250.342 155.696H251.51V162.56H252.598V163.632H251.51V166H250.198ZM246.214 162.592H250.374V157.264L246.214 162.592ZM257.75 166.16C256.491 166.16 255.531 165.92 254.87 165.44C254.209 164.949 253.878 164.229 253.878 163.28C253.878 162.661 254.043 162.117 254.374 161.648C254.715 161.179 255.211 160.853 255.862 160.672C255.265 160.48 254.833 160.181 254.566 159.776C254.299 159.36 254.166 158.907 254.166 158.416C254.166 157.541 254.465 156.843 255.062 156.32C255.659 155.797 256.555 155.536 257.75 155.536C258.987 155.536 259.894 155.797 260.47 156.32C261.046 156.843 261.334 157.541 261.334 158.416C261.334 158.928 261.201 159.403 260.934 159.84C260.678 160.277 260.219 160.608 259.558 160.832C260.283 161.013 260.806 161.307 261.126 161.712C261.457 162.117 261.622 162.64 261.622 163.28C261.622 164.229 261.291 164.949 260.63 165.44C259.979 165.92 259.019 166.16 257.75 166.16ZM258.198 160.416C258.859 160.256 259.35 160.032 259.67 159.744C259.99 159.445 260.15 159.008 260.15 158.432C260.15 157.824 259.942 157.365 259.526 157.056C259.121 156.736 258.529 156.576 257.75 156.576C256.982 156.576 256.39 156.731 255.974 157.04C255.558 157.339 255.35 157.797 255.35 158.416C255.35 158.875 255.494 159.259 255.782 159.568C256.07 159.867 256.47 160.069 256.982 160.176L258.198 160.416ZM257.75 165.12C259.542 165.12 260.438 164.501 260.438 163.264C260.438 162.699 260.267 162.288 259.926 162.032C259.595 161.765 259.115 161.568 258.486 161.44L257.094 161.152C256.475 161.28 255.979 161.504 255.606 161.824C255.243 162.133 255.062 162.608 255.062 163.248C255.062 163.888 255.291 164.363 255.75 164.672C256.209 164.971 256.875 165.12 257.75 165.12Z" fill="#1E293B"/>
<defs>
<filter id="filter0_d_2122_6246" x="137" y="20" width="87" height="44" filterUnits="userSpaceOnUse" color-interpolation-filters="sRGB">
<feFlood flood-opacity="0" result="BackgroundImageFix"/>
<feColorMatrix in="SourceAlpha" type="matrix" values="0 0 0 0 0 0 0 0 0 0 0 0 0 0 0 0 0 0 127 0" result="hardAlpha"/>
<feOffset/>
<feGaussianBlur stdDeviation="3"/>
<feComposite in2="hardAlpha" operator="out"/>
<feColorMatrix type="matrix" values="0 0 0 0 0 0 0 0 0 0 0 0 0 0 0 0 0 0 0.1 0"/>
<feBlend mode="normal" in2="BackgroundImageFix" result="effect1_dropShadow_2122_6246"/>
<feBlend mode="normal" in="SourceGraphic" in2="effect1_dropShadow_2122_6246" result="shape"/>
</filter>
<clipPath id="clip0_2122_6246">
<rect width="51" height="19" fill="white" transform="translate(67 32.5)"/>
</clipPath>
<clipPath id="clip1_2122_6246">
<rect width="41" height="19" fill="white" transform="translate(160 32.5)"/>
</clipPath>
<clipPath id="clip2_2122_6246">
<rect width="46" height="19" fill="white" transform="translate(243 32.5)"/>
</clipPath>
<clipPath id="clip3_2122_6246">
<rect width="27" height="19" fill="white" transform="translate(331 32.5)"/>
</clipPath>
<clipPath id="clip4_2122_6246">
<rect width="73" height="19" fill="white" transform="translate(225 110.5)"/>
</clipPath>
</defs>
</svg>
