<svg width="96" height="24" viewBox="0 0 96 24" fill="none" xmlns="http://www.w3.org/2000/svg">
<path d="M0 12C0 5.37258 5.37258 0 12 0H84C90.6274 0 96 5.37258 96 12C96 18.6274 90.6274 24 84 24H12C5.37258 24 0 18.6274 0 12Z" fill="#ECEDF1"/>
<g clip-path="url(#clip0_799_4979)">
<path d="M19.88 15.68L25.52 10.04L24.4 8.92L19.88 13.44L17.6 11.16L16.48 12.28L19.88 15.68ZM21 20C19.8933 20 18.8533 19.7899 17.88 19.3696C16.9067 18.9493 16.06 18.3795 15.34 17.66C14.62 16.9405 14.0501 16.0939 13.6304 15.12C13.2107 14.1461 13.0005 13.1061 13 12C12.9995 10.8939 13.2096 9.85387 13.6304 8.88C14.0512 7.90613 14.6211 7.05947 15.34 6.34C16.0589 5.62053 16.9056 5.05067 17.88 4.6304C18.8544 4.21013 19.8944 4 21 4C22.1056 4 23.1456 4.21013 24.12 4.6304C25.0944 5.05067 25.9411 5.62053 26.66 6.34C27.3789 7.05947 27.9491 7.90613 28.3704 8.88C28.7917 9.85387 29.0016 10.8939 29 12C28.9984 13.1061 28.7883 14.1461 28.3696 15.12C27.9509 16.0939 27.3811 16.9405 26.66 17.66C25.9389 18.3795 25.0923 18.9496 24.12 19.3704C23.1477 19.7912 22.1077 20.0011 21 20Z" fill="#4C4B4D"/>
</g>
<path d="M34.0805 16V8.272H37.7885C38.6765 8.272 39.3285 8.508 39.7445 8.98C40.1605 9.444 40.3685 10.072 40.3685 10.864C40.3685 11.384 40.2325 11.832 39.9605 12.208C39.6965 12.584 39.3205 12.856 38.8325 13.024C38.9605 13.128 39.0605 13.24 39.1325 13.36C39.2125 13.48 39.2925 13.64 39.3725 13.84L40.3085 16H38.6285L37.7165 13.924C37.6365 13.748 37.5485 13.624 37.4525 13.552C37.3565 13.48 37.1965 13.444 36.9725 13.444H35.7005V16H34.0805ZM35.7005 12.1H37.3685C37.7925 12.1 38.1245 12.008 38.3645 11.824C38.6045 11.632 38.7245 11.312 38.7245 10.864C38.7245 10.432 38.6205 10.116 38.4125 9.916C38.2045 9.716 37.8885 9.616 37.4645 9.616H35.7005V12.1ZM44.2867 16.12C43.3027 16.12 42.5227 15.876 41.9467 15.388C41.3707 14.892 41.0827 14.144 41.0827 13.144C41.0827 12.24 41.3227 11.524 41.8027 10.996C42.2907 10.46 43.0147 10.192 43.9747 10.192C44.8547 10.192 45.5267 10.424 45.9907 10.888C46.4627 11.344 46.6987 11.944 46.6987 12.688V13.72H42.5827C42.6707 14.176 42.8787 14.488 43.2067 14.656C43.5427 14.824 44.0147 14.908 44.6227 14.908C44.9267 14.908 45.2347 14.88 45.5467 14.824C45.8667 14.768 46.1387 14.696 46.3627 14.608V15.76C46.0987 15.88 45.7907 15.968 45.4387 16.024C45.0867 16.088 44.7027 16.12 44.2867 16.12ZM42.5827 12.724H45.2827V12.412C45.2827 12.084 45.1867 11.828 44.9947 11.644C44.8027 11.452 44.4787 11.356 44.0227 11.356C43.4867 11.356 43.1107 11.464 42.8947 11.68C42.6867 11.896 42.5827 12.244 42.5827 12.724ZM50.7306 16.12C49.7146 16.12 48.9346 15.868 48.3906 15.364C47.8546 14.86 47.5866 14.124 47.5866 13.156C47.5866 12.156 47.8746 11.412 48.4506 10.924C49.0346 10.436 49.8106 10.192 50.7786 10.192C51.1786 10.192 51.5226 10.22 51.8106 10.276C52.0986 10.332 52.3786 10.424 52.6506 10.552V11.716C52.4506 11.62 52.2186 11.544 51.9546 11.488C51.6906 11.432 51.4066 11.404 51.1026 11.404C50.4946 11.404 50.0306 11.532 49.7106 11.788C49.3906 12.036 49.2306 12.492 49.2306 13.156C49.2306 13.764 49.3746 14.208 49.6626 14.488C49.9586 14.768 50.4346 14.908 51.0906 14.908C51.3706 14.908 51.6426 14.88 51.9066 14.824C52.1786 14.768 52.4306 14.684 52.6626 14.572V15.772C52.1266 16.004 51.4826 16.12 50.7306 16.12ZM56.65 16.12C55.666 16.12 54.886 15.876 54.31 15.388C53.734 14.892 53.446 14.144 53.446 13.144C53.446 12.24 53.686 11.524 54.166 10.996C54.654 10.46 55.378 10.192 56.338 10.192C57.218 10.192 57.89 10.424 58.354 10.888C58.826 11.344 59.062 11.944 59.062 12.688V13.72H54.946C55.034 14.176 55.242 14.488 55.57 14.656C55.906 14.824 56.378 14.908 56.986 14.908C57.29 14.908 57.598 14.88 57.91 14.824C58.23 14.768 58.502 14.696 58.726 14.608V15.76C58.462 15.88 58.154 15.968 57.802 16.024C57.45 16.088 57.066 16.12 56.65 16.12ZM54.946 12.724H57.646V12.412C57.646 12.084 57.55 11.828 57.358 11.644C57.166 11.452 56.842 11.356 56.386 11.356C55.85 11.356 55.474 11.464 55.258 11.68C55.05 11.896 54.946 12.244 54.946 12.724ZM60.3515 9.268V7.996H62.1155V9.268H60.3515ZM60.4835 16V11.512H59.6315L59.7755 10.312H62.1035V16H60.4835ZM65.2525 16L63.0085 10.312H64.7005L66.1165 14.368L67.5445 10.312H69.2245L66.9925 16H65.2525ZM72.6695 16.12C71.6855 16.12 70.9055 15.876 70.3295 15.388C69.7535 14.892 69.4655 14.144 69.4655 13.144C69.4655 12.24 69.7055 11.524 70.1855 10.996C70.6735 10.46 71.3975 10.192 72.3575 10.192C73.2375 10.192 73.9095 10.424 74.3735 10.888C74.8455 11.344 75.0815 11.944 75.0815 12.688V13.72H70.9655C71.0535 14.176 71.2615 14.488 71.5895 14.656C71.9255 14.824 72.3975 14.908 73.0055 14.908C73.3095 14.908 73.6175 14.88 73.9295 14.824C74.2495 14.768 74.5215 14.696 74.7455 14.608V15.76C74.4815 15.88 74.1735 15.968 73.8215 16.024C73.4695 16.088 73.0855 16.12 72.6695 16.12ZM70.9655 12.724H73.6655V12.412C73.6655 12.084 73.5695 11.828 73.3775 11.644C73.1855 11.452 72.8615 11.356 72.4055 11.356C71.8695 11.356 71.4935 11.464 71.2775 11.68C71.0695 11.896 70.9655 12.244 70.9655 12.724ZM78.5854 16.12C78.0814 16.12 77.6294 16.032 77.2294 15.856C76.8374 15.672 76.5294 15.376 76.3054 14.968C76.0814 14.552 75.9694 14.004 75.9694 13.324C75.9694 12.644 76.0934 12.072 76.3414 11.608C76.5894 11.144 76.9214 10.792 77.3374 10.552C77.7534 10.312 78.2094 10.192 78.7054 10.192C79.3294 10.192 79.8614 10.336 80.3014 10.624V7.912H81.9214V16H80.5294L80.4334 15.472C80.1854 15.688 79.9134 15.852 79.6174 15.964C79.3294 16.068 78.9854 16.12 78.5854 16.12ZM79.0294 14.932C79.5334 14.932 79.9574 14.76 80.3014 14.416V11.824C79.9654 11.528 79.5734 11.38 79.1254 11.38C78.1174 11.38 77.6134 12.028 77.6134 13.324C77.6134 13.932 77.7374 14.352 77.9854 14.584C78.2334 14.816 78.5814 14.932 79.0294 14.932Z" fill="#5A6370"/>
<defs>
<clipPath id="clip0_799_4979">
<rect width="16" height="16" fill="white" transform="translate(13 4)"/>
</clipPath>
</defs>
</svg>
