<svg width="96" height="24" viewBox="0 0 96 24" fill="none" xmlns="http://www.w3.org/2000/svg">
<path d="M0 12C0 5.37258 5.37258 0 12 0H84C90.6274 0 96 5.37258 96 12C96 18.6274 90.6274 24 84 24H12C5.37258 24 0 18.6274 0 12Z" fill="#C3EDC9"/>
<path d="M20 16C20.2267 16 20.4167 15.9233 20.57 15.77C20.7233 15.6167 20.8 15.4267 20.8 15.2C20.8 14.9733 20.7233 14.7833 20.57 14.63C20.4167 14.4767 20.2267 14.4 20 14.4C19.7733 14.4 19.5833 14.4767 19.43 14.63C19.2767 14.7833 19.2 14.9733 19.2 15.2C19.2 15.4267 19.2767 15.6167 19.43 15.77C19.5833 15.9233 19.7733 16 20 16ZM19.2 12.8H20.8V8H19.2V12.8ZM20 20C18.8933 20 17.8533 19.79 16.88 19.37C15.9067 18.95 15.06 18.38 14.34 17.66C13.62 16.94 13.05 16.0933 12.63 15.12C12.21 14.1467 12 13.1067 12 12C12 10.8933 12.21 9.85333 12.63 8.88C13.05 7.90667 13.62 7.06 14.34 6.34C15.06 5.62 15.9067 5.05 16.88 4.63C17.8533 4.21 18.8933 4 20 4C21.1067 4 22.1467 4.21 23.12 4.63C24.0933 5.05 24.94 5.62 25.66 6.34C26.38 7.06 26.95 7.90667 27.37 8.88C27.79 9.85333 28 10.8933 28 12C28 13.1067 27.79 14.1467 27.37 15.12C26.95 16.0933 26.38 16.94 25.66 17.66C24.94 18.38 24.0933 18.95 23.12 19.37C22.1467 19.79 21.1067 20 20 20Z" fill="#32D260"/>
<path d="M32.8793 16V8.272H36.1193C37.2793 8.272 38.1513 8.572 38.7353 9.172C39.3273 9.764 39.6233 10.764 39.6233 12.172C39.6233 13.5 39.3313 14.472 38.7473 15.088C38.1713 15.696 37.2953 16 36.1193 16H32.8793ZM34.4993 14.752H35.8913C36.3473 14.752 36.7313 14.684 37.0433 14.548C37.3553 14.404 37.5873 14.148 37.7393 13.78C37.8993 13.404 37.9793 12.868 37.9793 12.172C37.9793 11.476 37.9073 10.944 37.7633 10.576C37.6193 10.208 37.3953 9.956 37.0913 9.82C36.7873 9.684 36.3873 9.616 35.8913 9.616H34.4993V14.752ZM43.7183 16.12C42.7343 16.12 41.9543 15.876 41.3783 15.388C40.8023 14.892 40.5143 14.144 40.5143 13.144C40.5143 12.24 40.7543 11.524 41.2343 10.996C41.7223 10.46 42.4463 10.192 43.4063 10.192C44.2863 10.192 44.9583 10.424 45.4223 10.888C45.8943 11.344 46.1303 11.944 46.1303 12.688V13.72H42.0143C42.1023 14.176 42.3103 14.488 42.6383 14.656C42.9743 14.824 43.4463 14.908 44.0543 14.908C44.3583 14.908 44.6663 14.88 44.9783 14.824C45.2983 14.768 45.5703 14.696 45.7943 14.608V15.76C45.5303 15.88 45.2223 15.968 44.8703 16.024C44.5183 16.088 44.1343 16.12 43.7183 16.12ZM42.0143 12.724H44.7143V12.412C44.7143 12.084 44.6183 11.828 44.4263 11.644C44.2343 11.452 43.9103 11.356 43.4543 11.356C42.9183 11.356 42.5423 11.464 42.3263 11.68C42.1183 11.896 42.0143 12.244 42.0143 12.724ZM48.8422 16.12C48.2902 16.12 47.8862 15.992 47.6302 15.736C47.3822 15.48 47.2582 15.072 47.2582 14.512V7.912H48.8782V14.38C48.8782 14.58 48.9182 14.72 48.9982 14.8C49.0782 14.872 49.1942 14.908 49.3462 14.908C49.5542 14.908 49.7422 14.88 49.9102 14.824V15.94C49.6062 16.06 49.2502 16.12 48.8422 16.12ZM50.8066 9.268V7.996H52.5706V9.268H50.8066ZM50.9386 16V11.512H50.0866L50.2306 10.312H52.5586V16H50.9386ZM55.7075 16L53.4635 10.312H55.1555L56.5715 14.368L57.9995 10.312H59.6795L57.4475 16H55.7075ZM63.1246 16.12C62.1406 16.12 61.3606 15.876 60.7846 15.388C60.2086 14.892 59.9206 14.144 59.9206 13.144C59.9206 12.24 60.1606 11.524 60.6406 10.996C61.1286 10.46 61.8526 10.192 62.8126 10.192C63.6926 10.192 64.3646 10.424 64.8286 10.888C65.3006 11.344 65.5366 11.944 65.5366 12.688V13.72H61.4206C61.5086 14.176 61.7166 14.488 62.0446 14.656C62.3806 14.824 62.8526 14.908 63.4606 14.908C63.7646 14.908 64.0726 14.88 64.3846 14.824C64.7046 14.768 64.9766 14.696 65.2006 14.608V15.76C64.9366 15.88 64.6286 15.968 64.2766 16.024C63.9246 16.088 63.5406 16.12 63.1246 16.12ZM61.4206 12.724H64.1206V12.412C64.1206 12.084 64.0246 11.828 63.8326 11.644C63.6406 11.452 63.3166 11.356 62.8606 11.356C62.3246 11.356 61.9486 11.464 61.7326 11.68C61.5246 11.896 61.4206 12.244 61.4206 12.724ZM66.6645 16V10.312H68.1645L68.2365 10.9C68.4925 10.74 68.8085 10.596 69.1845 10.468C69.5685 10.332 69.9445 10.24 70.3125 10.192V11.416C70.0965 11.448 69.8605 11.496 69.6045 11.56C69.3485 11.624 69.1045 11.696 68.8725 11.776C68.6405 11.856 68.4445 11.94 68.2845 12.028V16H66.6645ZM73.8707 16.12C72.8867 16.12 72.1067 15.876 71.5307 15.388C70.9547 14.892 70.6667 14.144 70.6667 13.144C70.6667 12.24 70.9067 11.524 71.3867 10.996C71.8747 10.46 72.5987 10.192 73.5587 10.192C74.4387 10.192 75.1107 10.424 75.5747 10.888C76.0467 11.344 76.2827 11.944 76.2827 12.688V13.72H72.1667C72.2547 14.176 72.4627 14.488 72.7907 14.656C73.1267 14.824 73.5987 14.908 74.2067 14.908C74.5107 14.908 74.8187 14.88 75.1307 14.824C75.4507 14.768 75.7227 14.696 75.9467 14.608V15.76C75.6827 15.88 75.3747 15.968 75.0227 16.024C74.6707 16.088 74.2867 16.12 73.8707 16.12ZM72.1667 12.724H74.8667V12.412C74.8667 12.084 74.7707 11.828 74.5787 11.644C74.3867 11.452 74.0627 11.356 73.6067 11.356C73.0707 11.356 72.6947 11.464 72.4787 11.68C72.2707 11.896 72.1667 12.244 72.1667 12.724ZM79.7866 16.12C79.2826 16.12 78.8306 16.032 78.4306 15.856C78.0386 15.672 77.7306 15.376 77.5066 14.968C77.2826 14.552 77.1706 14.004 77.1706 13.324C77.1706 12.644 77.2946 12.072 77.5426 11.608C77.7906 11.144 78.1226 10.792 78.5386 10.552C78.9546 10.312 79.4106 10.192 79.9066 10.192C80.5306 10.192 81.0626 10.336 81.5026 10.624V7.912H83.1226V16H81.7306L81.6346 15.472C81.3866 15.688 81.1146 15.852 80.8186 15.964C80.5306 16.068 80.1866 16.12 79.7866 16.12ZM80.2306 14.932C80.7346 14.932 81.1586 14.76 81.5026 14.416V11.824C81.1666 11.528 80.7746 11.38 80.3266 11.38C79.3186 11.38 78.8146 12.028 78.8146 13.324C78.8146 13.932 78.9386 14.352 79.1866 14.584C79.4346 14.816 79.7826 14.932 80.2306 14.932Z" fill="#077D29"/>
</svg>
