<svg width="96" height="24" viewBox="0 0 96 24" fill="none" xmlns="http://www.w3.org/2000/svg">
<path d="M0 12C0 5.37258 5.37258 0 12 0H84C90.6274 0 96 5.37258 96 12C96 18.6274 90.6274 24 84 24H12C5.37258 24 0 18.6274 0 12Z" fill="#B6E5FF"/>
<path d="M14.6 7.6C14.6 6.7175 15.3175 6 16.2 6H23.4C24.2825 6 25 6.7175 25 7.6V8.4H26.2675C26.6925 8.4 27.1 8.5675 27.4 8.8675L28.5325 10C28.8325 10.3 29 10.7075 29 11.1325V14.8C29 15.6825 28.2825 16.4 27.4 16.4H27.3175C27.0575 17.3225 26.2075 18 25.2 18C24.1925 18 23.345 17.3225 23.0825 16.4H20.5175C20.2575 17.3225 19.4075 18 18.4 18C17.3925 18 16.545 17.3225 16.2825 16.4H16.2C15.3175 16.4 14.6 15.6825 14.6 14.8V13.6H13.6C13.2675 13.6 13 13.3325 13 13C13 12.6675 13.2675 12.4 13.6 12.4H16.4C16.7325 12.4 17 12.1325 17 11.8C17 11.4675 16.7325 11.2 16.4 11.2H13.6C13.2675 11.2 13 10.9325 13 10.6C13 10.2675 13.2675 10 13.6 10H18C18.3325 10 18.6 9.7325 18.6 9.4C18.6 9.0675 18.3325 8.8 18 8.8H13.6C13.2675 8.8 13 8.5325 13 8.2C13 7.8675 13.2675 7.6 13.6 7.6H14.6ZM27.4 12.4V11.1325L26.2675 10H25V12.4H27.4ZM19.4 15.8C19.4 15.5348 19.2946 15.2804 19.1071 15.0929C18.9196 14.9054 18.6652 14.8 18.4 14.8C18.1348 14.8 17.8804 14.9054 17.6929 15.0929C17.5054 15.2804 17.4 15.5348 17.4 15.8C17.4 16.0652 17.5054 16.3196 17.6929 16.5071C17.8804 16.6946 18.1348 16.8 18.4 16.8C18.6652 16.8 18.9196 16.6946 19.1071 16.5071C19.2946 16.3196 19.4 16.0652 19.4 15.8ZM25.2 16.8C25.4652 16.8 25.7196 16.6946 25.9071 16.5071C26.0946 16.3196 26.2 16.0652 26.2 15.8C26.2 15.5348 26.0946 15.2804 25.9071 15.0929C25.7196 14.9054 25.4652 14.8 25.2 14.8C24.9348 14.8 24.6804 14.9054 24.4929 15.0929C24.3054 15.2804 24.2 15.5348 24.2 15.8C24.2 16.0652 24.3054 16.3196 24.4929 16.5071C24.6804 16.6946 24.9348 16.8 25.2 16.8Z" fill="#1E95FF"/>
<path d="M33.8051 16V8.272H35.4251V16H33.8051ZM36.7934 16V10.312H38.2934L38.3534 10.852C38.5854 10.676 38.8774 10.524 39.2294 10.396C39.5894 10.26 39.9654 10.192 40.3574 10.192C41.1094 10.192 41.6574 10.368 42.0014 10.72C42.3454 11.072 42.5174 11.616 42.5174 12.352V16H40.8974V12.436C40.8974 12.052 40.8174 11.78 40.6574 11.62C40.5054 11.46 40.2174 11.38 39.7934 11.38C39.5454 11.38 39.2934 11.436 39.0374 11.548C38.7894 11.66 38.5814 11.8 38.4134 11.968V16H36.7934ZM48.3691 16V9.52H45.9931V8.272H52.3531V9.52H49.9891V16H48.3691ZM52.227 16V10.312H53.727L53.799 10.9C54.055 10.74 54.371 10.596 54.747 10.468C55.131 10.332 55.507 10.24 55.875 10.192V11.416C55.659 11.448 55.423 11.496 55.167 11.56C54.911 11.624 54.667 11.696 54.435 11.776C54.203 11.856 54.007 11.94 53.847 12.028V16H52.227ZM58.1283 16.12C57.7683 16.12 57.4323 16.056 57.1203 15.928C56.8163 15.792 56.5683 15.596 56.3763 15.34C56.1923 15.076 56.1003 14.748 56.1003 14.356C56.1003 13.796 56.2963 13.348 56.6883 13.012C57.0883 12.676 57.6763 12.508 58.4523 12.508H60.1323V12.352C60.1323 12 60.0323 11.752 59.8323 11.608C59.6403 11.464 59.2483 11.392 58.6562 11.392C58.0083 11.392 57.3843 11.492 56.7843 11.692V10.552C57.0483 10.448 57.3683 10.364 57.7443 10.3C58.1283 10.228 58.5443 10.192 58.9923 10.192C59.8483 10.192 60.5083 10.368 60.9723 10.72C61.4443 11.064 61.6803 11.62 61.6803 12.388V16H60.2763L60.1923 15.484C59.9683 15.684 59.6923 15.84 59.3643 15.952C59.0363 16.064 58.6243 16.12 58.1283 16.12ZM58.5723 15.052C58.9323 15.052 59.2443 14.992 59.5083 14.872C59.7723 14.752 59.9803 14.6 60.1323 14.416V13.516H58.4883C57.8563 13.516 57.5403 13.776 57.5403 14.296C57.5403 14.8 57.8843 15.052 58.5723 15.052ZM62.9848 16V10.312H64.4848L64.5448 10.852C64.7768 10.676 65.0688 10.524 65.4208 10.396C65.7808 10.26 66.1568 10.192 66.5488 10.192C67.3008 10.192 67.8488 10.368 68.1928 10.72C68.5368 11.072 68.7088 11.616 68.7088 12.352V16H67.0888V12.436C67.0888 12.052 67.0088 11.78 66.8488 11.62C66.6968 11.46 66.4088 11.38 65.9848 11.38C65.7368 11.38 65.4848 11.436 65.2288 11.548C64.9808 11.66 64.7728 11.8 64.6048 11.968V16H62.9848ZM72.0318 16.12C71.6078 16.12 71.2038 16.088 70.8198 16.024C70.4358 15.968 70.1278 15.896 69.8958 15.808V14.464C70.1758 14.576 70.4918 14.664 70.8438 14.728C71.1958 14.784 71.5198 14.812 71.8158 14.812C72.2158 14.812 72.4958 14.788 72.6558 14.74C72.8238 14.692 72.9078 14.584 72.9078 14.416C72.9078 14.224 72.7798 14.084 72.5238 13.996C72.2758 13.908 71.9038 13.784 71.4078 13.624C70.8878 13.448 70.4878 13.236 70.2078 12.988C69.9278 12.74 69.7878 12.372 69.7878 11.884C69.7878 11.34 69.9838 10.924 70.3758 10.636C70.7758 10.34 71.4158 10.192 72.2958 10.192C72.6478 10.192 72.9798 10.22 73.2918 10.276C73.6038 10.324 73.8678 10.384 74.0838 10.456V11.788C73.8678 11.684 73.6198 11.608 73.3398 11.56C73.0598 11.504 72.7998 11.476 72.5598 11.476C72.2158 11.476 71.9398 11.5 71.7318 11.548C71.5318 11.596 71.4318 11.7 71.4318 11.86C71.4318 12.036 71.5398 12.16 71.7558 12.232C71.9798 12.304 72.3238 12.412 72.7878 12.556C73.2438 12.692 73.5998 12.84 73.8558 13C74.1118 13.16 74.2918 13.352 74.3958 13.576C74.4998 13.792 74.5518 14.064 74.5518 14.392C74.5518 15.544 73.7118 16.12 72.0318 16.12ZM76.0722 9.268V7.996H77.8362V9.268H76.0722ZM76.2042 16V11.512H75.3522L75.4962 10.312H77.8242V16H76.2042ZM81.4595 16.12C80.8035 16.12 80.3155 15.948 79.9955 15.604C79.6835 15.26 79.5275 14.792 79.5275 14.2V11.56H78.7235V10.312H79.5275V9.088L81.1475 8.608V10.312H82.5875L82.4915 11.56H81.1475V14.092C81.1475 14.404 81.2195 14.62 81.3635 14.74C81.5075 14.852 81.7315 14.908 82.0355 14.908C82.2595 14.908 82.4915 14.868 82.7315 14.788V15.904C82.5555 15.976 82.3635 16.028 82.1555 16.06C81.9475 16.1 81.7155 16.12 81.4595 16.12Z" fill="#055BA6"/>
</svg>
