<svg width="1672" height="48" viewBox="0 0 1672 48" fill="none" xmlns="http://www.w3.org/2000/svg">
<mask id="path-1-inside-1_2542_22039" fill="white">
<path d="M0 0H1680V48H0V0Z"/>
</mask>
<path d="M0 0H1680V48H0V0Z" fill="white"/>
<path d="M1680 48V47H0V48V49H1680V48Z" fill="#ECEDF1" mask="url(#path-1-inside-1_2542_22039)"/>
<path d="M34.6667 36C33.9333 36 33.3056 35.7389 32.7833 35.2167C32.2611 34.6944 32 34.0667 32 33.3333V14.6667C32 13.9333 32.2611 13.3056 32.7833 12.7833C33.3056 12.2611 33.9333 12 34.6667 12H53.3333C54.0667 12 54.6944 12.2611 55.2167 12.7833C55.7389 13.3056 56 13.9333 56 14.6667V33.3333C56 34.0667 55.7389 34.6944 55.2167 35.2167C54.6944 35.7389 54.0667 36 53.3333 36H34.6667ZM34.6667 33.3333H53.3333V14.6667H34.6667V33.3333Z" fill="#ECEDF1"/>
<path d="M84 24C84 17.3726 89.3726 12 96 12H168C174.627 12 180 17.3726 180 24C180 30.6274 174.627 36 168 36H96C89.3726 36 84 30.6274 84 24Z" fill="#ECEDF1"/>
<g clip-path="url(#clip0_2542_22039)">
<path d="M102.38 27.68L108.02 22.04L106.9 20.92L102.38 25.44L100.1 23.16L98.98 24.28L102.38 27.68ZM103.5 32C102.393 32 101.353 31.7899 100.38 31.3696C99.4067 30.9493 98.56 30.3795 97.84 29.66C97.12 28.9405 96.5501 28.0939 96.1304 27.12C95.7107 26.1461 95.5005 25.1061 95.5 24C95.4995 22.8939 95.7096 21.8539 96.1304 20.88C96.5512 19.9061 97.1211 19.0595 97.84 18.34C98.5589 17.6205 99.4056 17.0507 100.38 16.6304C101.354 16.2101 102.394 16 103.5 16C104.606 16 105.646 16.2101 106.62 16.6304C107.594 17.0507 108.441 17.6205 109.16 18.34C109.879 19.0595 110.449 19.9061 110.87 20.88C111.292 21.8539 111.502 22.8939 111.5 24C111.498 25.1061 111.288 26.1461 110.87 27.12C110.451 28.0939 109.881 28.9405 109.16 29.66C108.439 30.3795 107.592 30.9496 106.62 31.3704C105.648 31.7912 104.608 32.0011 103.5 32Z" fill="#4C4B4D"/>
</g>
<path d="M116.627 28V19.2727H119.738C120.414 19.2727 120.975 19.3892 121.421 19.6222C121.87 19.8551 122.205 20.1776 122.426 20.5895C122.648 20.9986 122.759 21.4716 122.759 22.0085C122.759 22.5426 122.647 23.0128 122.422 23.419C122.201 23.8224 121.865 24.1364 121.417 24.3608C120.971 24.5852 120.409 24.6974 119.733 24.6974H117.377V23.5639H119.614C120.04 23.5639 120.387 23.5028 120.654 23.3807C120.924 23.2585 121.121 23.081 121.246 22.848C121.371 22.6151 121.434 22.3352 121.434 22.0085C121.434 21.679 121.37 21.3935 121.242 21.152C121.117 20.9105 120.919 20.7259 120.65 20.598C120.382 20.4673 120.032 20.402 119.597 20.402H117.944V28H116.627ZM120.935 24.0625L123.091 28H121.591L119.478 24.0625H120.935ZM126.998 28.1321C126.353 28.1321 125.798 27.9943 125.332 27.7188C124.869 27.4403 124.511 27.0497 124.258 26.5469C124.008 26.0412 123.883 25.4489 123.883 24.7699C123.883 24.0994 124.008 23.5085 124.258 22.9972C124.511 22.4858 124.863 22.0866 125.315 21.7997C125.769 21.5128 126.3 21.3693 126.908 21.3693C127.278 21.3693 127.636 21.4304 127.982 21.5526C128.329 21.6747 128.64 21.8665 128.915 22.1278C129.191 22.3892 129.408 22.7287 129.567 23.1463C129.727 23.5611 129.806 24.0653 129.806 24.6591V25.1108H124.603V24.1562H128.558C128.558 23.821 128.489 23.5241 128.353 23.2656C128.217 23.0043 128.025 22.7983 127.778 22.6477C127.533 22.4972 127.246 22.4219 126.917 22.4219C126.559 22.4219 126.246 22.5099 125.979 22.6861C125.715 22.8594 125.511 23.0866 125.366 23.3679C125.224 23.6463 125.153 23.9489 125.153 24.2756V25.0213C125.153 25.4588 125.229 25.831 125.383 26.1378C125.539 26.4446 125.756 26.679 126.035 26.8409C126.313 27 126.638 27.0795 127.011 27.0795C127.252 27.0795 127.472 27.0455 127.671 26.9773C127.87 26.9062 128.042 26.8011 128.187 26.6619C128.332 26.5227 128.442 26.3509 128.519 26.1463L129.725 26.3636C129.629 26.7187 129.455 27.0298 129.205 27.2969C128.958 27.5611 128.647 27.767 128.272 27.9148C127.9 28.0597 127.475 28.1321 126.998 28.1321ZM133.977 28.1321C133.343 28.1321 132.798 27.9886 132.341 27.7017C131.886 27.4119 131.537 27.0128 131.292 26.5043C131.048 25.9957 130.926 25.4134 130.926 24.7571C130.926 24.0923 131.051 23.5057 131.301 22.9972C131.551 22.4858 131.903 22.0866 132.358 21.7997C132.812 21.5128 133.348 21.3693 133.964 21.3693C134.461 21.3693 134.904 21.4616 135.294 21.6463C135.683 21.8281 135.997 22.0838 136.235 22.4134C136.477 22.7429 136.62 23.1278 136.666 23.5682H135.426C135.358 23.2614 135.201 22.9972 134.957 22.7756C134.716 22.554 134.392 22.4432 133.985 22.4432C133.63 22.4432 133.319 22.5369 133.052 22.7244C132.788 22.9091 132.582 23.1733 132.434 23.517C132.287 23.858 132.213 24.2614 132.213 24.7273C132.213 25.2045 132.285 25.6165 132.43 25.9631C132.575 26.3097 132.779 26.5781 133.044 26.7685C133.311 26.9588 133.625 27.054 133.985 27.054C134.227 27.054 134.446 27.0099 134.642 26.9219C134.841 26.831 135.007 26.7017 135.14 26.5341C135.277 26.3665 135.372 26.1648 135.426 25.929H136.666C136.62 26.3523 136.483 26.7301 136.252 27.0625C136.022 27.3949 135.714 27.6562 135.328 27.8466C134.944 28.0369 134.494 28.1321 133.977 28.1321ZM140.849 28.1321C140.205 28.1321 139.649 27.9943 139.183 27.7188C138.72 27.4403 138.362 27.0497 138.109 26.5469C137.859 26.0412 137.734 25.4489 137.734 24.7699C137.734 24.0994 137.859 23.5085 138.109 22.9972C138.362 22.4858 138.714 22.0866 139.166 21.7997C139.621 21.5128 140.152 21.3693 140.76 21.3693C141.129 21.3693 141.487 21.4304 141.834 21.5526C142.18 21.6747 142.491 21.8665 142.767 22.1278C143.043 22.3892 143.26 22.7287 143.419 23.1463C143.578 23.5611 143.658 24.0653 143.658 24.6591V25.1108H138.455V24.1562H142.409C142.409 23.821 142.341 23.5241 142.205 23.2656C142.068 23.0043 141.876 22.7983 141.629 22.6477C141.385 22.4972 141.098 22.4219 140.768 22.4219C140.411 22.4219 140.098 22.5099 139.831 22.6861C139.567 22.8594 139.362 23.0866 139.217 23.3679C139.075 23.6463 139.004 23.9489 139.004 24.2756V25.0213C139.004 25.4588 139.081 25.831 139.234 26.1378C139.391 26.4446 139.608 26.679 139.886 26.8409C140.165 27 140.49 27.0795 140.862 27.0795C141.104 27.0795 141.324 27.0455 141.523 26.9773C141.722 26.9062 141.893 26.8011 142.038 26.6619C142.183 26.5227 142.294 26.3509 142.371 26.1463L143.577 26.3636C143.48 26.7187 143.307 27.0298 143.057 27.2969C142.81 27.5611 142.499 27.767 142.124 27.9148C141.751 28.0597 141.327 28.1321 140.849 28.1321ZM145.071 28V21.4545H146.346V28H145.071ZM145.715 20.4446C145.493 20.4446 145.303 20.3707 145.144 20.223C144.988 20.0724 144.909 19.8935 144.909 19.6861C144.909 19.4759 144.988 19.2969 145.144 19.1491C145.303 18.9986 145.493 18.9233 145.715 18.9233C145.936 18.9233 146.125 18.9986 146.282 19.1491C146.441 19.2969 146.52 19.4759 146.52 19.6861C146.52 19.8935 146.441 20.0724 146.282 20.223C146.125 20.3707 145.936 20.4446 145.715 20.4446ZM153.659 21.4545L151.286 28H149.922L147.544 21.4545H148.912L150.57 26.4915H150.638L152.291 21.4545H153.659ZM157.455 28.1321C156.81 28.1321 156.255 27.9943 155.789 27.7188C155.326 27.4403 154.968 27.0497 154.715 26.5469C154.465 26.0412 154.34 25.4489 154.34 24.7699C154.34 24.0994 154.465 23.5085 154.715 22.9972C154.968 22.4858 155.32 22.0866 155.772 21.7997C156.226 21.5128 156.757 21.3693 157.365 21.3693C157.735 21.3693 158.093 21.4304 158.439 21.5526C158.786 21.6747 159.097 21.8665 159.373 22.1278C159.648 22.3892 159.865 22.7287 160.025 23.1463C160.184 23.5611 160.263 24.0653 160.263 24.6591V25.1108H155.06V24.1562H159.015C159.015 23.821 158.946 23.5241 158.81 23.2656C158.674 23.0043 158.482 22.7983 158.235 22.6477C157.99 22.4972 157.703 22.4219 157.374 22.4219C157.016 22.4219 156.703 22.5099 156.436 22.6861C156.172 22.8594 155.968 23.0866 155.823 23.3679C155.681 23.6463 155.61 23.9489 155.61 24.2756V25.0213C155.61 25.4588 155.686 25.831 155.84 26.1378C155.996 26.4446 156.213 26.679 156.492 26.8409C156.77 27 157.096 27.0795 157.468 27.0795C157.709 27.0795 157.929 27.0455 158.128 26.9773C158.327 26.9062 158.499 26.8011 158.644 26.6619C158.789 26.5227 158.9 26.3509 158.976 26.1463L160.182 26.3636C160.086 26.7187 159.912 27.0298 159.662 27.2969C159.415 27.5611 159.104 27.767 158.729 27.9148C158.357 28.0597 157.932 28.1321 157.455 28.1321ZM164.127 28.1278C163.599 28.1278 163.127 27.9929 162.712 27.723C162.3 27.4503 161.977 27.0625 161.741 26.5597C161.508 26.054 161.391 25.4474 161.391 24.7401C161.391 24.0327 161.509 23.4276 161.745 22.9247C161.984 22.4219 162.31 22.0369 162.725 21.7699C163.14 21.5028 163.61 21.3693 164.136 21.3693C164.542 21.3693 164.869 21.4375 165.116 21.5739C165.366 21.7074 165.559 21.8636 165.695 22.0426C165.835 22.2216 165.942 22.3793 166.019 22.5156H166.096V19.2727H167.37V28H166.126V26.9815H166.019C165.942 27.1207 165.832 27.2798 165.687 27.4588C165.545 27.6378 165.349 27.794 165.099 27.9276C164.849 28.0611 164.525 28.1278 164.127 28.1278ZM164.408 27.0412C164.775 27.0412 165.085 26.9446 165.337 26.7514C165.593 26.5554 165.786 26.2841 165.917 25.9375C166.05 25.5909 166.117 25.1875 166.117 24.7273C166.117 24.2727 166.052 23.875 165.921 23.5341C165.79 23.1932 165.599 22.9276 165.346 22.7372C165.093 22.5469 164.781 22.4517 164.408 22.4517C164.025 22.4517 163.705 22.5511 163.45 22.75C163.194 22.9489 163.001 23.2202 162.87 23.5639C162.742 23.9077 162.678 24.2955 162.678 24.7273C162.678 25.1648 162.744 25.5582 162.874 25.9077C163.005 26.2571 163.198 26.5341 163.454 26.7386C163.712 26.9403 164.031 27.0412 164.408 27.0412Z" fill="#5A6370"/>
<path d="M230.144 29.66C229.653 29.66 229.211 29.628 228.816 29.564C228.432 29.5107 228.085 29.4307 227.776 29.324V28.188C228.085 28.2947 228.427 28.38 228.8 28.444C229.184 28.508 229.611 28.54 230.08 28.54C231.125 28.54 231.883 28.2733 232.352 27.74C232.821 27.2067 233.056 26.5027 233.056 25.628V24.844C232.64 25.1427 232.176 25.3667 231.664 25.516C231.163 25.6653 230.704 25.74 230.288 25.74C229.115 25.74 228.24 25.452 227.664 24.876C227.088 24.3 226.8 23.4787 226.8 22.412C226.8 21.3987 227.109 20.5827 227.728 19.964C228.347 19.3453 229.285 19.036 230.544 19.036C231.781 19.036 232.715 19.3507 233.344 19.98C233.984 20.5987 234.304 21.5907 234.304 22.956V25.388C234.304 26.2413 234.133 26.988 233.792 27.628C233.461 28.268 232.981 28.7693 232.352 29.132C231.733 29.484 230.997 29.66 230.144 29.66ZM230.4 24.716C230.923 24.716 231.408 24.636 231.856 24.476C232.304 24.3053 232.704 24.092 233.056 23.836V22.588C233.056 20.9133 232.219 20.076 230.544 20.076C229.691 20.076 229.051 20.284 228.624 20.7C228.197 21.1053 227.984 21.6653 227.984 22.38C227.984 22.86 228.053 23.276 228.192 23.628C228.331 23.98 228.576 24.252 228.928 24.444C229.28 24.6253 229.771 24.716 230.4 24.716ZM235.909 29.5L239.653 18.908H240.981L237.237 29.5H235.909ZM244.213 29.5V20.316L242.581 20.604V19.5L245.525 19.036V29.5H244.213ZM247.441 29.5L251.185 18.908H252.513L248.769 29.5H247.441ZM254.113 29.5V28.796C254.39 28.124 254.785 27.5107 255.297 26.956C255.809 26.4013 256.358 25.8787 256.945 25.388C257.531 24.8973 257.985 24.4867 258.305 24.156C258.635 23.8147 258.865 23.4893 258.993 23.18C259.121 22.86 259.185 22.4867 259.185 22.06C259.185 21.4413 259.025 20.972 258.705 20.652C258.385 20.3213 257.787 20.156 256.913 20.156C256.518 20.156 256.113 20.1987 255.697 20.284C255.281 20.3587 254.886 20.4707 254.513 20.62V19.452C254.854 19.3347 255.265 19.2387 255.745 19.164C256.225 19.0787 256.683 19.036 257.121 19.036C258.23 19.036 259.067 19.308 259.633 19.852C260.209 20.3853 260.497 21.1213 260.497 22.06C260.497 22.572 260.406 23.0253 260.225 23.42C260.043 23.804 259.793 24.172 259.473 24.524C259.153 24.8653 258.779 25.228 258.353 25.612C257.83 26.0707 257.329 26.524 256.849 26.972C256.379 27.4093 256.006 27.9107 255.729 28.476H260.609V29.5H254.113ZM264.99 29.66C264.521 29.66 264.03 29.6227 263.518 29.548C263.006 29.4733 262.585 29.3667 262.254 29.228V28.06C263.044 28.38 263.908 28.54 264.846 28.54C265.764 28.54 266.43 28.3693 266.846 28.028C267.273 27.6867 267.486 27.1533 267.486 26.428C267.486 25.7453 267.326 25.2333 267.006 24.892C266.697 24.5507 266.089 24.38 265.182 24.38H262.206V23.468L262.478 19.196H268.062L267.934 20.22H263.582L263.374 23.34H265.31C266.516 23.34 267.396 23.596 267.95 24.108C268.516 24.62 268.798 25.3933 268.798 26.428C268.798 27.4307 268.473 28.22 267.822 28.796C267.182 29.372 266.238 29.66 264.99 29.66Z" fill="#1E293B"/>
<path d="M326.144 29.66C325.653 29.66 325.211 29.628 324.816 29.564C324.432 29.5107 324.085 29.4307 323.776 29.324V28.188C324.085 28.2947 324.427 28.38 324.8 28.444C325.184 28.508 325.611 28.54 326.08 28.54C327.125 28.54 327.883 28.2733 328.352 27.74C328.821 27.2067 329.056 26.5027 329.056 25.628V24.844C328.64 25.1427 328.176 25.3667 327.664 25.516C327.163 25.6653 326.704 25.74 326.288 25.74C325.115 25.74 324.24 25.452 323.664 24.876C323.088 24.3 322.8 23.4787 322.8 22.412C322.8 21.3987 323.109 20.5827 323.728 19.964C324.347 19.3453 325.285 19.036 326.544 19.036C327.781 19.036 328.715 19.3507 329.344 19.98C329.984 20.5987 330.304 21.5907 330.304 22.956V25.388C330.304 26.2413 330.133 26.988 329.792 27.628C329.461 28.268 328.981 28.7693 328.352 29.132C327.733 29.484 326.997 29.66 326.144 29.66ZM326.4 24.716C326.923 24.716 327.408 24.636 327.856 24.476C328.304 24.3053 328.704 24.092 329.056 23.836V22.588C329.056 20.9133 328.219 20.076 326.544 20.076C325.691 20.076 325.051 20.284 324.624 20.7C324.197 21.1053 323.984 21.6653 323.984 22.38C323.984 22.86 324.053 23.276 324.192 23.628C324.331 23.98 324.576 24.252 324.928 24.444C325.28 24.6253 325.771 24.716 326.4 24.716ZM331.909 29.5L335.653 18.908H336.981L333.237 29.5H331.909ZM340.213 29.5V20.316L338.581 20.604V19.5L341.525 19.036V29.5H340.213ZM343.441 29.5L347.185 18.908H348.513L344.769 29.5H343.441ZM350.113 29.5V28.796C350.39 28.124 350.785 27.5107 351.297 26.956C351.809 26.4013 352.358 25.8787 352.945 25.388C353.531 24.8973 353.985 24.4867 354.305 24.156C354.635 23.8147 354.865 23.4893 354.993 23.18C355.121 22.86 355.185 22.4867 355.185 22.06C355.185 21.4413 355.025 20.972 354.705 20.652C354.385 20.3213 353.787 20.156 352.913 20.156C352.518 20.156 352.113 20.1987 351.697 20.284C351.281 20.3587 350.886 20.4707 350.513 20.62V19.452C350.854 19.3347 351.265 19.2387 351.745 19.164C352.225 19.0787 352.683 19.036 353.121 19.036C354.23 19.036 355.067 19.308 355.633 19.852C356.209 20.3853 356.497 21.1213 356.497 22.06C356.497 22.572 356.406 23.0253 356.225 23.42C356.043 23.804 355.793 24.172 355.473 24.524C355.153 24.8653 354.779 25.228 354.353 25.612C353.83 26.0707 353.329 26.524 352.849 26.972C352.379 27.4093 352.006 27.9107 351.729 28.476H356.609V29.5H350.113ZM360.99 29.66C360.521 29.66 360.03 29.6227 359.518 29.548C359.006 29.4733 358.585 29.3667 358.254 29.228V28.06C359.044 28.38 359.908 28.54 360.846 28.54C361.764 28.54 362.43 28.3693 362.846 28.028C363.273 27.6867 363.486 27.1533 363.486 26.428C363.486 25.7453 363.326 25.2333 363.006 24.892C362.697 24.5507 362.089 24.38 361.182 24.38H358.206V23.468L358.478 19.196H364.062L363.934 20.22H359.582L359.374 23.34H361.31C362.516 23.34 363.396 23.596 363.95 24.108C364.516 24.62 364.798 25.3933 364.798 26.428C364.798 27.4307 364.473 28.22 363.822 28.796C363.182 29.372 362.238 29.66 360.99 29.66Z" fill="#1E293B"/>
<path d="M485.12 29.5V19.196H486.432V28.476H491.92V29.5H485.12ZM493.206 29.5L497.126 19.196H498.662L502.566 29.5H501.222L500.134 26.668H495.654L494.566 29.5H493.206ZM495.878 25.628H499.894L497.878 20.332L495.878 25.628Z" fill="#1E293B"/>
<g clip-path="url(#clip1_2542_22039)">
<g clip-path="url(#clip2_2542_22039)">
<rect x="528" y="16" width="16" height="16" rx="4" transform="rotate(90 528 16)" fill="#F3F4F7"/>
<path d="M524.681 24.3698C524.777 24.2705 524.83 24.138 524.83 24.0002C524.83 23.8624 524.777 23.73 524.681 23.6306L521.954 20.797C521.622 20.4509 521.037 20.6866 521.037 21.1666V22.8002C521.037 22.8356 521.023 22.8695 520.998 22.8945C520.973 22.9195 520.939 22.9336 520.904 22.9336H515.704C515.562 22.9336 515.427 22.9898 515.327 23.0898C515.227 23.1898 515.17 23.3255 515.17 23.4669V24.5336C515.17 24.675 515.227 24.8107 515.327 24.9107C515.427 25.0107 515.562 25.0669 515.704 25.0669H520.904C520.939 25.0669 520.973 25.0809 520.998 25.106C521.023 25.131 521.037 25.1649 521.037 25.2002V26.8338C521.037 27.3138 521.622 27.5496 521.954 27.2034L524.681 24.3698Z" fill="#A9ACB9"/>
</g>
</g>
<path d="M537.12 29.5V19.196H538.528L542.016 26.348L545.504 19.196H546.912V29.5H545.616V21.244L542.464 27.708H541.584L538.416 21.244V29.5H537.12ZM552.879 29.66C551.525 29.66 550.511 29.3347 549.839 28.684C549.167 28.0333 548.831 27.0307 548.831 25.676C548.831 24.46 549.119 23.5053 549.695 22.812C550.282 22.108 551.205 21.756 552.463 21.756C553.21 21.756 553.823 21.8947 554.303 22.172C554.794 22.4387 555.157 22.812 555.391 23.292C555.637 23.7613 555.759 24.2947 555.759 24.892V26.316H550.143C550.186 26.892 550.309 27.3453 550.511 27.676C550.725 28.0067 551.039 28.2467 551.455 28.396C551.882 28.5347 552.442 28.604 553.135 28.604C553.914 28.604 554.629 28.4707 555.279 28.204V29.228C554.949 29.3667 554.575 29.4733 554.159 29.548C553.754 29.6227 553.327 29.66 552.879 29.66ZM550.143 25.372H554.591V24.748C554.591 24.1293 554.426 23.6547 554.095 23.324C553.775 22.9827 553.242 22.812 552.495 22.812C551.589 22.812 550.97 23.0253 550.639 23.452C550.309 23.8787 550.143 24.5187 550.143 25.372ZM560.451 29.66C559.704 29.66 559.139 29.4627 558.755 29.068C558.381 28.6627 558.195 28.1027 558.195 27.388V22.956H557.043V21.916H558.195V20.044L559.507 19.644V21.916H561.603L561.523 22.956H559.507V27.324C559.507 27.7827 559.608 28.1133 559.811 28.316C560.024 28.508 560.387 28.604 560.899 28.604C561.176 28.604 561.48 28.5507 561.811 28.444V29.436C561.416 29.5853 560.963 29.66 560.451 29.66ZM565.675 29.66C565.195 29.66 564.752 29.5747 564.347 29.404C563.942 29.2333 563.616 28.9827 563.371 28.652C563.126 28.3107 563.003 27.884 563.003 27.372C563.003 26.6787 563.232 26.1133 563.691 25.676C564.15 25.228 564.896 25.004 565.931 25.004H568.571V24.54C568.571 24.124 568.512 23.7933 568.395 23.548C568.288 23.3027 568.08 23.1267 567.771 23.02C567.462 22.9133 567.008 22.86 566.411 22.86C565.952 22.86 565.51 22.8973 565.083 22.972C564.656 23.0467 564.256 23.148 563.883 23.276V22.188C564.224 22.06 564.624 21.9587 565.083 21.884C565.552 21.7987 566.054 21.756 566.587 21.756C567.664 21.756 568.47 21.9747 569.003 22.412C569.547 22.8493 569.819 23.5587 569.819 24.54V29.5H568.715L568.619 28.636C568.288 28.9773 567.888 29.2333 567.419 29.404C566.95 29.5747 566.368 29.66 565.675 29.66ZM566.011 28.588C566.566 28.588 567.056 28.492 567.483 28.3C567.91 28.0973 568.272 27.8253 568.571 27.484V26.012H565.963C565.366 26.012 564.939 26.124 564.683 26.348C564.427 26.572 564.299 26.9133 564.299 27.372C564.299 27.8307 564.454 28.1507 564.763 28.332C565.072 28.5027 565.488 28.588 566.011 28.588Z" fill="#1E293B"/>
<path d="M661.744 29.66C660.635 29.66 659.712 29.452 658.976 29.036C658.251 28.6093 657.707 28.0173 657.344 27.26C656.981 26.492 656.8 25.596 656.8 24.572C656.8 23.452 656.971 22.476 657.312 21.644C657.653 20.812 658.187 20.172 658.912 19.724C659.637 19.2653 660.576 19.036 661.728 19.036C662.325 19.036 662.864 19.0787 663.344 19.164C663.835 19.2493 664.293 19.3667 664.72 19.516V20.668C664.293 20.508 663.84 20.3853 663.36 20.3C662.88 20.204 662.373 20.156 661.84 20.156C660.912 20.156 660.176 20.332 659.632 20.684C659.088 21.036 658.699 21.5427 658.464 22.204C658.229 22.8653 658.112 23.6547 658.112 24.572C658.112 25.8413 658.411 26.8227 659.008 27.516C659.616 28.1987 660.571 28.54 661.872 28.54C662.352 28.54 662.837 28.5027 663.328 28.428C663.829 28.3533 664.293 28.236 664.72 28.076V29.244C664.304 29.372 663.851 29.4733 663.36 29.548C662.88 29.6227 662.341 29.66 661.744 29.66ZM669.308 29.66C668.401 29.66 667.713 29.4093 667.244 28.908C666.785 28.4067 666.556 27.676 666.556 26.716V21.916H667.868V26.764C667.868 27.3933 668.022 27.8573 668.332 28.156C668.652 28.4547 669.142 28.604 669.804 28.604C670.273 28.604 670.716 28.5187 671.132 28.348C671.548 28.1773 671.905 27.9427 672.204 27.644V21.916H673.516V29.5H672.332L672.252 28.636C671.889 28.9347 671.457 29.18 670.956 29.372C670.454 29.564 669.905 29.66 669.308 29.66ZM678.145 29.66C677.654 29.66 677.185 29.628 676.737 29.564C676.299 29.5 675.931 29.4147 675.633 29.308V28.156C675.995 28.284 676.374 28.38 676.769 28.444C677.174 28.508 677.574 28.54 677.969 28.54C678.641 28.54 679.121 28.4707 679.409 28.332C679.697 28.1827 679.841 27.9107 679.841 27.516C679.841 27.228 679.761 27.0093 679.601 26.86C679.451 26.7107 679.217 26.5773 678.897 26.46C678.587 26.3427 678.187 26.204 677.697 26.044C677.259 25.8947 676.87 25.74 676.529 25.58C676.187 25.42 675.921 25.2067 675.729 24.94C675.537 24.6627 675.441 24.2947 675.441 23.836C675.441 23.164 675.675 22.652 676.145 22.3C676.614 21.9373 677.371 21.756 678.417 21.756C678.822 21.756 679.211 21.788 679.585 21.852C679.958 21.9053 680.283 21.9747 680.561 22.06V23.212C679.889 22.988 679.243 22.876 678.625 22.876C677.963 22.876 677.483 22.9453 677.185 23.084C676.897 23.212 676.753 23.4573 676.753 23.82C676.753 24.0653 676.817 24.2627 676.945 24.412C677.083 24.5507 677.291 24.6733 677.569 24.78C677.857 24.876 678.225 24.9987 678.673 25.148C679.259 25.3293 679.734 25.516 680.097 25.708C680.459 25.9 680.726 26.1347 680.897 26.412C681.067 26.6893 681.153 27.052 681.153 27.5C681.153 28.2467 680.891 28.796 680.369 29.148C679.846 29.4893 679.105 29.66 678.145 29.66ZM685.607 29.66C684.86 29.66 684.295 29.4627 683.911 29.068C683.537 28.6627 683.351 28.1027 683.351 27.388V22.956H682.199V21.916H683.351V20.044L684.663 19.644V21.916H686.759L686.679 22.956H684.663V27.324C684.663 27.7827 684.764 28.1133 684.967 28.316C685.18 28.508 685.543 28.604 686.055 28.604C686.332 28.604 686.636 28.5507 686.967 28.444V29.436C686.572 29.5853 686.119 29.66 685.607 29.66ZM691.951 29.66C690.629 29.66 689.663 29.324 689.055 28.652C688.458 27.9693 688.159 26.988 688.159 25.708C688.159 24.4387 688.463 23.4627 689.071 22.78C689.679 22.0973 690.639 21.756 691.951 21.756C693.263 21.756 694.223 22.0973 694.831 22.78C695.439 23.4627 695.743 24.4387 695.743 25.708C695.743 26.988 695.445 27.9693 694.847 28.652C694.25 29.324 693.285 29.66 691.951 29.66ZM691.951 28.54C692.858 28.54 693.498 28.316 693.871 27.868C694.245 27.4093 694.431 26.6893 694.431 25.708C694.431 24.7267 694.239 24.012 693.855 23.564C693.482 23.1053 692.847 22.876 691.951 22.876C691.055 22.876 690.415 23.1053 690.031 23.564C689.658 24.012 689.471 24.7267 689.471 25.708C689.471 26.6893 689.658 27.4093 690.031 27.868C690.405 28.316 691.045 28.54 691.951 28.54ZM697.667 29.5V21.916H698.851L698.931 22.78C699.336 22.46 699.763 22.2093 700.211 22.028C700.67 21.8467 701.16 21.756 701.683 21.756C702.248 21.756 702.686 21.8467 702.995 22.028C703.315 22.2093 703.55 22.4653 703.699 22.796C704.062 22.4973 704.478 22.252 704.947 22.06C705.416 21.8573 705.976 21.756 706.627 21.756C707.491 21.756 708.131 21.98 708.547 22.428C708.974 22.8653 709.187 23.5427 709.187 24.46V29.5H707.891V24.588C707.891 23.916 707.747 23.452 707.459 23.196C707.182 22.94 706.728 22.812 706.099 22.812C705.683 22.812 705.283 22.8813 704.899 23.02C704.526 23.1587 704.206 23.372 703.939 23.66C704.003 23.9267 704.035 24.236 704.035 24.588V29.5H702.803V24.62C702.803 23.98 702.696 23.5213 702.483 23.244C702.27 22.956 701.848 22.812 701.219 22.812C700.792 22.812 700.382 22.908 699.987 23.1C699.603 23.2813 699.262 23.5107 698.963 23.788V29.5H697.667ZM714.832 29.66C713.478 29.66 712.464 29.3347 711.792 28.684C711.12 28.0333 710.784 27.0307 710.784 25.676C710.784 24.46 711.072 23.5053 711.648 22.812C712.235 22.108 713.158 21.756 714.416 21.756C715.163 21.756 715.776 21.8947 716.256 22.172C716.747 22.4387 717.11 22.812 717.344 23.292C717.59 23.7613 717.712 24.2947 717.712 24.892V26.316H712.096C712.139 26.892 712.262 27.3453 712.464 27.676C712.678 28.0067 712.992 28.2467 713.408 28.396C713.835 28.5347 714.395 28.604 715.088 28.604C715.867 28.604 716.582 28.4707 717.232 28.204V29.228C716.902 29.3667 716.528 29.4733 716.112 29.548C715.707 29.6227 715.28 29.66 714.832 29.66ZM712.096 25.372H716.544V24.748C716.544 24.1293 716.379 23.6547 716.048 23.324C715.728 22.9827 715.195 22.812 714.448 22.812C713.542 22.812 712.923 23.0253 712.592 23.452C712.262 23.8787 712.096 24.5187 712.096 25.372ZM719.636 29.5V21.916H720.82L720.916 22.876C721.289 22.6307 721.726 22.4067 722.228 22.204C722.74 22.0013 723.241 21.852 723.732 21.756V22.78C723.433 22.844 723.108 22.9347 722.756 23.052C722.404 23.1587 722.068 23.2813 721.748 23.42C721.428 23.5587 721.161 23.7027 720.948 23.852V29.5H719.636Z" fill="#1E293B"/>
<path d="M821.744 29.66C820.635 29.66 819.712 29.452 818.976 29.036C818.251 28.6093 817.707 28.0173 817.344 27.26C816.981 26.492 816.8 25.596 816.8 24.572C816.8 23.452 816.971 22.476 817.312 21.644C817.653 20.812 818.187 20.172 818.912 19.724C819.637 19.2653 820.576 19.036 821.728 19.036C822.325 19.036 822.864 19.0787 823.344 19.164C823.835 19.2493 824.293 19.3667 824.72 19.516V20.668C824.293 20.508 823.84 20.3853 823.36 20.3C822.88 20.204 822.373 20.156 821.84 20.156C820.912 20.156 820.176 20.332 819.632 20.684C819.088 21.036 818.699 21.5427 818.464 22.204C818.229 22.8653 818.112 23.6547 818.112 24.572C818.112 25.8413 818.405 26.8227 818.992 27.516C819.579 28.1987 820.523 28.54 821.824 28.54C822.283 28.54 822.725 28.5027 823.152 28.428C823.579 28.3533 823.957 28.252 824.288 28.124V24.844H821.536V23.948H825.424V28.844C825.115 29.0467 824.661 29.2333 824.064 29.404C823.477 29.5747 822.704 29.66 821.744 29.66ZM828.987 29.66C828.475 29.66 828.069 29.5267 827.771 29.26C827.483 28.9827 827.339 28.5187 827.339 27.868V18.716H828.651V27.724C828.651 28.044 828.704 28.2627 828.811 28.38C828.917 28.4973 829.083 28.556 829.307 28.556C829.552 28.556 829.792 28.524 830.027 28.46V29.5C829.856 29.564 829.685 29.6067 829.515 29.628C829.344 29.6493 829.168 29.66 828.987 29.66ZM833.894 29.66C833.414 29.66 832.971 29.5747 832.566 29.404C832.161 29.2333 831.835 28.9827 831.59 28.652C831.345 28.3107 831.222 27.884 831.222 27.372C831.222 26.6787 831.451 26.1133 831.91 25.676C832.369 25.228 833.115 25.004 834.15 25.004H836.79V24.54C836.79 24.124 836.731 23.7933 836.614 23.548C836.507 23.3027 836.299 23.1267 835.99 23.02C835.681 22.9133 835.227 22.86 834.63 22.86C834.171 22.86 833.729 22.8973 833.302 22.972C832.875 23.0467 832.475 23.148 832.102 23.276V22.188C832.443 22.06 832.843 21.9587 833.302 21.884C833.771 21.7987 834.273 21.756 834.806 21.756C835.883 21.756 836.689 21.9747 837.222 22.412C837.766 22.8493 838.038 23.5587 838.038 24.54V29.5H836.934L836.838 28.636C836.507 28.9773 836.107 29.2333 835.638 29.404C835.169 29.5747 834.587 29.66 833.894 29.66ZM834.23 28.588C834.785 28.588 835.275 28.492 835.702 28.3C836.129 28.0973 836.491 27.8253 836.79 27.484V26.012H834.182C833.585 26.012 833.158 26.124 832.902 26.348C832.646 26.572 832.518 26.9133 832.518 27.372C832.518 27.8307 832.673 28.1507 832.982 28.332C833.291 28.5027 833.707 28.588 834.23 28.588ZM843.302 29.66C842.235 29.66 841.398 29.3667 840.79 28.78C840.182 28.1827 839.878 27.196 839.878 25.82C839.878 24.4547 840.193 23.436 840.822 22.764C841.462 22.092 842.315 21.756 843.382 21.756C844.331 21.756 845.153 21.996 845.846 22.476V18.716H847.158V29.5H846.038L845.942 28.7C845.59 29.0307 845.201 29.276 844.774 29.436C844.358 29.5853 843.867 29.66 843.302 29.66ZM843.638 28.604C844.075 28.604 844.481 28.5293 844.854 28.38C845.227 28.2307 845.558 28.0013 845.846 27.692V23.564C845.579 23.3293 845.265 23.148 844.902 23.02C844.539 22.8813 844.129 22.812 843.67 22.812C842.827 22.812 842.203 23.0573 841.798 23.548C841.393 24.028 841.19 24.7853 841.19 25.82C841.19 26.812 841.377 27.5267 841.75 27.964C842.123 28.3907 842.753 28.604 843.638 28.604ZM850.121 20.14V18.94H851.577V20.14H850.121ZM850.249 29.5V22.956H849.081L849.209 21.916H851.561V29.5H850.249ZM856.175 29.66C855.695 29.66 855.252 29.5747 854.847 29.404C854.442 29.2333 854.116 28.9827 853.871 28.652C853.626 28.3107 853.503 27.884 853.503 27.372C853.503 26.6787 853.732 26.1133 854.191 25.676C854.65 25.228 855.396 25.004 856.431 25.004H859.071V24.54C859.071 24.124 859.012 23.7933 858.895 23.548C858.788 23.3027 858.58 23.1267 858.271 23.02C857.962 22.9133 857.508 22.86 856.911 22.86C856.452 22.86 856.01 22.8973 855.583 22.972C855.156 23.0467 854.756 23.148 854.383 23.276V22.188C854.724 22.06 855.124 21.9587 855.583 21.884C856.052 21.7987 856.554 21.756 857.087 21.756C858.164 21.756 858.97 21.9747 859.503 22.412C860.047 22.8493 860.319 23.5587 860.319 24.54V29.5H859.215L859.119 28.636C858.788 28.9773 858.388 29.2333 857.919 29.404C857.45 29.5747 856.868 29.66 856.175 29.66ZM856.511 28.588C857.066 28.588 857.556 28.492 857.983 28.3C858.41 28.0973 858.772 27.8253 859.071 27.484V26.012H856.463C855.866 26.012 855.439 26.124 855.183 26.348C854.927 26.572 854.799 26.9133 854.799 27.372C854.799 27.8307 854.954 28.1507 855.263 28.332C855.572 28.5027 855.988 28.588 856.511 28.588ZM865.247 29.66C864.501 29.66 863.935 29.4627 863.551 29.068C863.178 28.6627 862.991 28.1027 862.991 27.388V22.956H861.839V21.916H862.991V20.044L864.303 19.644V21.916H866.399L866.319 22.956H864.303V27.324C864.303 27.7827 864.405 28.1133 864.607 28.316C864.821 28.508 865.183 28.604 865.695 28.604C865.973 28.604 866.277 28.5507 866.607 28.444V29.436C866.213 29.5853 865.759 29.66 865.247 29.66ZM871.592 29.66C870.269 29.66 869.304 29.324 868.696 28.652C868.099 27.9693 867.8 26.988 867.8 25.708C867.8 24.4387 868.104 23.4627 868.712 22.78C869.32 22.0973 870.28 21.756 871.592 21.756C872.904 21.756 873.864 22.0973 874.472 22.78C875.08 23.4627 875.384 24.4387 875.384 25.708C875.384 26.988 875.085 27.9693 874.488 28.652C873.891 29.324 872.925 29.66 871.592 29.66ZM871.592 28.54C872.499 28.54 873.139 28.316 873.512 27.868C873.885 27.4093 874.072 26.6893 874.072 25.708C874.072 24.7267 873.88 24.012 873.496 23.564C873.123 23.1053 872.488 22.876 871.592 22.876C870.696 22.876 870.056 23.1053 869.672 23.564C869.299 24.012 869.112 24.7267 869.112 25.708C869.112 26.6893 869.299 27.4093 869.672 27.868C870.045 28.316 870.685 28.54 871.592 28.54ZM877.308 29.5V21.916H878.492L878.588 22.876C878.961 22.6307 879.398 22.4067 879.9 22.204C880.412 22.0013 880.913 21.852 881.404 21.756V22.78C881.105 22.844 880.78 22.9347 880.428 23.052C880.076 23.1587 879.74 23.2813 879.42 23.42C879.1 23.5587 878.833 23.7027 878.62 23.852V29.5H877.308ZM888.398 30.652C887.854 30.1827 887.422 29.6173 887.102 28.956C886.782 28.2947 886.553 27.5907 886.414 26.844C886.276 26.0867 886.206 25.356 886.206 24.652C886.206 23.948 886.276 23.2227 886.414 22.476C886.553 21.7293 886.782 21.0253 887.102 20.364C887.422 19.692 887.854 19.1213 888.398 18.652H889.886C889.044 19.3667 888.436 20.236 888.062 21.26C887.7 22.284 887.518 23.4147 887.518 24.652C887.518 25.9 887.7 27.0307 888.062 28.044C888.436 29.0573 889.044 29.9267 889.886 30.652H888.398ZM891.479 29.5V19.196H892.887L896.375 26.348L899.863 19.196H901.271V29.5H899.975V21.244L896.823 27.708H895.943L892.775 21.244V29.5H891.479ZM907.239 29.66C905.884 29.66 904.871 29.3347 904.199 28.684C903.527 28.0333 903.191 27.0307 903.191 25.676C903.191 24.46 903.479 23.5053 904.055 22.812C904.641 22.108 905.564 21.756 906.823 21.756C907.569 21.756 908.183 21.8947 908.663 22.172C909.153 22.4387 909.516 22.812 909.751 23.292C909.996 23.7613 910.119 24.2947 910.119 24.892V26.316H904.503C904.545 26.892 904.668 27.3453 904.871 27.676C905.084 28.0067 905.399 28.2467 905.815 28.396C906.241 28.5347 906.801 28.604 907.495 28.604C908.273 28.604 908.988 28.4707 909.639 28.204V29.228C909.308 29.3667 908.935 29.4733 908.519 29.548C908.113 29.6227 907.687 29.66 907.239 29.66ZM904.503 25.372H908.951V24.748C908.951 24.1293 908.785 23.6547 908.455 23.324C908.135 22.9827 907.601 22.812 906.855 22.812C905.948 22.812 905.329 23.0253 904.999 23.452C904.668 23.8787 904.503 24.5187 904.503 25.372ZM914.81 29.66C914.063 29.66 913.498 29.4627 913.114 29.068C912.741 28.6627 912.554 28.1027 912.554 27.388V22.956H911.402V21.916H912.554V20.044L913.866 19.644V21.916H915.962L915.882 22.956H913.866V27.324C913.866 27.7827 913.967 28.1133 914.17 28.316C914.383 28.508 914.746 28.604 915.258 28.604C915.535 28.604 915.839 28.5507 916.17 28.444V29.436C915.775 29.5853 915.322 29.66 914.81 29.66ZM920.035 29.66C919.555 29.66 919.112 29.5747 918.707 29.404C918.301 29.2333 917.976 28.9827 917.731 28.652C917.485 28.3107 917.363 27.884 917.363 27.372C917.363 26.6787 917.592 26.1133 918.051 25.676C918.509 25.228 919.256 25.004 920.291 25.004H922.931V24.54C922.931 24.124 922.872 23.7933 922.755 23.548C922.648 23.3027 922.44 23.1267 922.131 23.02C921.821 22.9133 921.368 22.86 920.771 22.86C920.312 22.86 919.869 22.8973 919.443 22.972C919.016 23.0467 918.616 23.148 918.243 23.276V22.188C918.584 22.06 918.984 21.9587 919.443 21.884C919.912 21.7987 920.413 21.756 920.947 21.756C922.024 21.756 922.829 21.9747 923.363 22.412C923.907 22.8493 924.179 23.5587 924.179 24.54V29.5H923.075L922.979 28.636C922.648 28.9773 922.248 29.2333 921.779 29.404C921.309 29.5747 920.728 29.66 920.035 29.66ZM920.371 28.588C920.925 28.588 921.416 28.492 921.843 28.3C922.269 28.0973 922.632 27.8253 922.931 27.484V26.012H920.323C919.725 26.012 919.299 26.124 919.043 26.348C918.787 26.572 918.659 26.9133 918.659 27.372C918.659 27.8307 918.813 28.1507 919.123 28.332C919.432 28.5027 919.848 28.588 920.371 28.588ZM925.699 30.652C926.552 29.9267 927.16 29.0573 927.523 28.044C927.885 27.0307 928.067 25.9 928.067 24.652C928.067 23.4147 927.885 22.284 927.523 21.26C927.16 20.236 926.552 19.3667 925.699 18.652H927.203C927.747 19.1213 928.179 19.692 928.499 20.364C928.819 21.0253 929.043 21.7293 929.171 22.476C929.309 23.2227 929.379 23.948 929.379 24.652C929.379 25.356 929.309 26.0867 929.171 26.844C929.043 27.5907 928.819 28.2947 928.499 28.956C928.179 29.6173 927.747 30.1827 927.203 30.652H925.699Z" fill="#1E293B"/>
<path d="M976.8 25.724V24.684H982.832V25.724H976.8Z" fill="#1E293B"/>
<path d="M1156.64 29.66C1156.15 29.66 1155.71 29.628 1155.32 29.564C1154.93 29.5107 1154.59 29.4307 1154.28 29.324V28.188C1154.59 28.2947 1154.93 28.38 1155.3 28.444C1155.68 28.508 1156.11 28.54 1156.58 28.54C1157.63 28.54 1158.38 28.2733 1158.85 27.74C1159.32 27.2067 1159.56 26.5027 1159.56 25.628V24.844C1159.14 25.1427 1158.68 25.3667 1158.16 25.516C1157.66 25.6653 1157.2 25.74 1156.79 25.74C1155.61 25.74 1154.74 25.452 1154.16 24.876C1153.59 24.3 1153.3 23.4787 1153.3 22.412C1153.3 21.3987 1153.61 20.5827 1154.23 19.964C1154.85 19.3453 1155.79 19.036 1157.04 19.036C1158.28 19.036 1159.21 19.3507 1159.84 19.98C1160.48 20.5987 1160.8 21.5907 1160.8 22.956V25.388C1160.8 26.2413 1160.63 26.988 1160.29 27.628C1159.96 28.268 1159.48 28.7693 1158.85 29.132C1158.23 29.484 1157.5 29.66 1156.64 29.66ZM1156.9 24.716C1157.42 24.716 1157.91 24.636 1158.36 24.476C1158.8 24.3053 1159.2 24.092 1159.56 23.836V22.588C1159.56 20.9133 1158.72 20.076 1157.04 20.076C1156.19 20.076 1155.55 20.284 1155.12 20.7C1154.7 21.1053 1154.48 21.6653 1154.48 22.38C1154.48 22.86 1154.55 23.276 1154.69 23.628C1154.83 23.98 1155.08 24.252 1155.43 24.444C1155.78 24.6253 1156.27 24.716 1156.9 24.716ZM1162.41 29.5L1166.15 18.908H1167.48L1163.74 29.5H1162.41ZM1171.85 29.66C1171.38 29.66 1170.88 29.6173 1170.35 29.532C1169.81 29.4467 1169.39 29.3453 1169.08 29.228V28.076C1169.49 28.236 1169.91 28.3533 1170.35 28.428C1170.78 28.5027 1171.23 28.54 1171.69 28.54C1172.61 28.54 1173.28 28.4013 1173.72 28.124C1174.17 27.8467 1174.39 27.3613 1174.39 26.668C1174.39 26.0067 1174.19 25.5267 1173.77 25.228C1173.35 24.9293 1172.77 24.78 1172.03 24.78H1170.54L1170.67 23.788H1171.9C1172.67 23.788 1173.24 23.6227 1173.61 23.292C1173.98 22.9507 1174.17 22.476 1174.17 21.868C1174.17 21.2813 1173.97 20.8493 1173.58 20.572C1173.19 20.2947 1172.57 20.156 1171.72 20.156C1171.29 20.156 1170.86 20.1987 1170.43 20.284C1170 20.3693 1169.61 20.4813 1169.27 20.62V19.484C1169.57 19.3667 1169.96 19.2653 1170.44 19.18C1170.93 19.084 1171.42 19.036 1171.9 19.036C1173.12 19.036 1174.03 19.3027 1174.6 19.836C1175.19 20.3587 1175.48 21.0307 1175.48 21.852C1175.48 22.3747 1175.34 22.8653 1175.07 23.324C1174.8 23.772 1174.37 24.0867 1173.77 24.268C1174.45 24.4173 1174.94 24.716 1175.24 25.164C1175.55 25.6013 1175.71 26.1027 1175.71 26.668C1175.71 27.6707 1175.36 28.4227 1174.67 28.924C1173.97 29.4147 1173.03 29.66 1171.85 29.66ZM1177.3 29.5L1181.04 18.908H1182.37L1178.63 29.5H1177.3ZM1183.97 29.5V28.796C1184.25 28.124 1184.64 27.5107 1185.16 26.956C1185.67 26.4013 1186.22 25.8787 1186.8 25.388C1187.39 24.8973 1187.84 24.4867 1188.16 24.156C1188.49 23.8147 1188.72 23.4893 1188.85 23.18C1188.98 22.86 1189.04 22.4867 1189.04 22.06C1189.04 21.4413 1188.88 20.972 1188.56 20.652C1188.24 20.3213 1187.65 20.156 1186.77 20.156C1186.38 20.156 1185.97 20.1987 1185.56 20.284C1185.14 20.3587 1184.75 20.4707 1184.37 20.62V19.452C1184.71 19.3347 1185.12 19.2387 1185.6 19.164C1186.08 19.0787 1186.54 19.036 1186.98 19.036C1188.09 19.036 1188.93 19.308 1189.49 19.852C1190.07 20.3853 1190.36 21.1213 1190.36 22.06C1190.36 22.572 1190.27 23.0253 1190.08 23.42C1189.9 23.804 1189.65 24.172 1189.33 24.524C1189.01 24.8653 1188.64 25.228 1188.21 25.612C1187.69 26.0707 1187.19 26.524 1186.71 26.972C1186.24 27.4093 1185.87 27.9107 1185.59 28.476H1190.47V29.5H1183.97ZM1194.85 29.66C1194.38 29.66 1193.89 29.6227 1193.38 29.548C1192.87 29.4733 1192.44 29.3667 1192.11 29.228V28.06C1192.9 28.38 1193.77 28.54 1194.71 28.54C1195.62 28.54 1196.29 28.3693 1196.71 28.028C1197.13 27.6867 1197.35 27.1533 1197.35 26.428C1197.35 25.7453 1197.19 25.2333 1196.87 24.892C1196.56 24.5507 1195.95 24.38 1195.04 24.38H1192.07V23.468L1192.34 19.196H1197.92L1197.79 20.22H1193.44L1193.23 23.34H1195.17C1196.37 23.34 1197.25 23.596 1197.81 24.108C1198.37 24.62 1198.66 25.3933 1198.66 26.428C1198.66 27.4307 1198.33 28.22 1197.68 28.796C1197.04 29.372 1196.1 29.66 1194.85 29.66Z" fill="#1E293B"/>
<path d="M1252.64 29.66C1252.15 29.66 1251.71 29.628 1251.32 29.564C1250.93 29.5107 1250.59 29.4307 1250.28 29.324V28.188C1250.59 28.2947 1250.93 28.38 1251.3 28.444C1251.68 28.508 1252.11 28.54 1252.58 28.54C1253.63 28.54 1254.38 28.2733 1254.85 27.74C1255.32 27.2067 1255.56 26.5027 1255.56 25.628V24.844C1255.14 25.1427 1254.68 25.3667 1254.16 25.516C1253.66 25.6653 1253.2 25.74 1252.79 25.74C1251.61 25.74 1250.74 25.452 1250.16 24.876C1249.59 24.3 1249.3 23.4787 1249.3 22.412C1249.3 21.3987 1249.61 20.5827 1250.23 19.964C1250.85 19.3453 1251.79 19.036 1253.04 19.036C1254.28 19.036 1255.21 19.3507 1255.84 19.98C1256.48 20.5987 1256.8 21.5907 1256.8 22.956V25.388C1256.8 26.2413 1256.63 26.988 1256.29 27.628C1255.96 28.268 1255.48 28.7693 1254.85 29.132C1254.23 29.484 1253.5 29.66 1252.64 29.66ZM1252.9 24.716C1253.42 24.716 1253.91 24.636 1254.36 24.476C1254.8 24.3053 1255.2 24.092 1255.56 23.836V22.588C1255.56 20.9133 1254.72 20.076 1253.04 20.076C1252.19 20.076 1251.55 20.284 1251.12 20.7C1250.7 21.1053 1250.48 21.6653 1250.48 22.38C1250.48 22.86 1250.55 23.276 1250.69 23.628C1250.83 23.98 1251.08 24.252 1251.43 24.444C1251.78 24.6253 1252.27 24.716 1252.9 24.716ZM1258.41 29.5L1262.15 18.908H1263.48L1259.74 29.5H1258.41ZM1267.85 29.66C1267.38 29.66 1266.88 29.6173 1266.35 29.532C1265.81 29.4467 1265.39 29.3453 1265.08 29.228V28.076C1265.49 28.236 1265.91 28.3533 1266.35 28.428C1266.78 28.5027 1267.23 28.54 1267.69 28.54C1268.61 28.54 1269.28 28.4013 1269.72 28.124C1270.17 27.8467 1270.39 27.3613 1270.39 26.668C1270.39 26.0067 1270.19 25.5267 1269.77 25.228C1269.35 24.9293 1268.77 24.78 1268.03 24.78H1266.54L1266.67 23.788H1267.9C1268.67 23.788 1269.24 23.6227 1269.61 23.292C1269.98 22.9507 1270.17 22.476 1270.17 21.868C1270.17 21.2813 1269.97 20.8493 1269.58 20.572C1269.19 20.2947 1268.57 20.156 1267.72 20.156C1267.29 20.156 1266.86 20.1987 1266.43 20.284C1266 20.3693 1265.61 20.4813 1265.27 20.62V19.484C1265.57 19.3667 1265.96 19.2653 1266.44 19.18C1266.93 19.084 1267.42 19.036 1267.9 19.036C1269.12 19.036 1270.03 19.3027 1270.6 19.836C1271.19 20.3587 1271.48 21.0307 1271.48 21.852C1271.48 22.3747 1271.34 22.8653 1271.07 23.324C1270.8 23.772 1270.37 24.0867 1269.77 24.268C1270.45 24.4173 1270.94 24.716 1271.24 25.164C1271.55 25.6013 1271.71 26.1027 1271.71 26.668C1271.71 27.6707 1271.36 28.4227 1270.67 28.924C1269.97 29.4147 1269.03 29.66 1267.85 29.66ZM1273.3 29.5L1277.04 18.908H1278.37L1274.63 29.5H1273.3ZM1279.97 29.5V28.796C1280.25 28.124 1280.64 27.5107 1281.16 26.956C1281.67 26.4013 1282.22 25.8787 1282.8 25.388C1283.39 24.8973 1283.84 24.4867 1284.16 24.156C1284.49 23.8147 1284.72 23.4893 1284.85 23.18C1284.98 22.86 1285.04 22.4867 1285.04 22.06C1285.04 21.4413 1284.88 20.972 1284.56 20.652C1284.24 20.3213 1283.65 20.156 1282.77 20.156C1282.38 20.156 1281.97 20.1987 1281.56 20.284C1281.14 20.3587 1280.75 20.4707 1280.37 20.62V19.452C1280.71 19.3347 1281.12 19.2387 1281.6 19.164C1282.08 19.0787 1282.54 19.036 1282.98 19.036C1284.09 19.036 1284.93 19.308 1285.49 19.852C1286.07 20.3853 1286.36 21.1213 1286.36 22.06C1286.36 22.572 1286.27 23.0253 1286.08 23.42C1285.9 23.804 1285.65 24.172 1285.33 24.524C1285.01 24.8653 1284.64 25.228 1284.21 25.612C1283.69 26.0707 1283.19 26.524 1282.71 26.972C1282.24 27.4093 1281.87 27.9107 1281.59 28.476H1286.47V29.5H1279.97ZM1290.85 29.66C1290.38 29.66 1289.89 29.6227 1289.38 29.548C1288.87 29.4733 1288.44 29.3667 1288.11 29.228V28.06C1288.9 28.38 1289.77 28.54 1290.71 28.54C1291.62 28.54 1292.29 28.3693 1292.71 28.028C1293.13 27.6867 1293.35 27.1533 1293.35 26.428C1293.35 25.7453 1293.19 25.2333 1292.87 24.892C1292.56 24.5507 1291.95 24.38 1291.04 24.38H1288.07V23.468L1288.34 19.196H1293.92L1293.79 20.22H1289.44L1289.23 23.34H1291.17C1292.37 23.34 1293.25 23.596 1293.81 24.108C1294.37 24.62 1294.66 25.3933 1294.66 26.428C1294.66 27.4307 1294.33 28.22 1293.68 28.796C1293.04 29.372 1292.1 29.66 1290.85 29.66Z" fill="#1E293B"/>
<path d="M1359.62 29.5V19.196H1366.37V20.236H1360.93V23.836H1365.78V24.86H1360.93V29.5H1359.62ZM1371.07 29.66C1369.71 29.66 1368.7 29.3347 1368.03 28.684C1367.35 28.0333 1367.02 27.0307 1367.02 25.676C1367.02 24.46 1367.31 23.5053 1367.88 22.812C1368.47 22.108 1369.39 21.756 1370.65 21.756C1371.4 21.756 1372.01 21.8947 1372.49 22.172C1372.98 22.4387 1373.34 22.812 1373.58 23.292C1373.82 23.7613 1373.95 24.2947 1373.95 24.892V26.316H1368.33C1368.37 26.892 1368.5 27.3453 1368.7 27.676C1368.91 28.0067 1369.23 28.2467 1369.64 28.396C1370.07 28.5347 1370.63 28.604 1371.32 28.604C1372.1 28.604 1372.82 28.4707 1373.47 28.204V29.228C1373.14 29.3667 1372.76 29.4733 1372.35 29.548C1371.94 29.6227 1371.51 29.66 1371.07 29.66ZM1368.33 25.372H1372.78V24.748C1372.78 24.1293 1372.61 23.6547 1372.28 23.324C1371.96 22.9827 1371.43 22.812 1370.68 22.812C1369.78 22.812 1369.16 23.0253 1368.83 23.452C1368.5 23.8787 1368.33 24.5187 1368.33 25.372ZM1378.97 29.66C1377.91 29.66 1377.07 29.3667 1376.46 28.78C1375.85 28.1827 1375.55 27.196 1375.55 25.82C1375.55 24.4547 1375.86 23.436 1376.49 22.764C1377.13 22.092 1377.99 21.756 1379.05 21.756C1380 21.756 1380.82 21.996 1381.52 22.476V18.716H1382.83V29.5H1381.71L1381.61 28.7C1381.26 29.0307 1380.87 29.276 1380.45 29.436C1380.03 29.5853 1379.54 29.66 1378.97 29.66ZM1379.31 28.604C1379.75 28.604 1380.15 28.5293 1380.53 28.38C1380.9 28.2307 1381.23 28.0013 1381.52 27.692V23.564C1381.25 23.3293 1380.94 23.148 1380.57 23.02C1380.21 22.8813 1379.8 22.812 1379.34 22.812C1378.5 22.812 1377.88 23.0573 1377.47 23.548C1377.06 24.028 1376.86 24.7853 1376.86 25.82C1376.86 26.812 1377.05 27.5267 1377.42 27.964C1377.8 28.3907 1378.42 28.604 1379.31 28.604ZM1385.07 29.5V19.196H1392.03V20.236H1386.39V23.836H1391.46V24.86H1386.39V28.476H1392.03V29.5H1385.07ZM1392.91 29.5L1395.79 25.644L1393 21.916H1394.43L1396.49 24.748L1398.57 21.916H1399.98L1397.23 25.644L1400.09 29.5H1398.67L1396.49 26.54L1394.33 29.5H1392.91Z" fill="#1E293B"/>
<path d="M1482.22 29.66C1479.53 29.66 1478.19 28.6787 1478.19 26.716C1478.19 26.1293 1478.34 25.6067 1478.65 25.148C1478.97 24.6893 1479.43 24.364 1480.01 24.172C1479.48 23.9693 1479.09 23.6707 1478.84 23.276C1478.6 22.8707 1478.48 22.4387 1478.48 21.98C1478.48 21.0947 1478.78 20.3853 1479.39 19.852C1480.01 19.308 1480.95 19.036 1482.22 19.036C1483.52 19.036 1484.47 19.308 1485.07 19.852C1485.67 20.3853 1485.96 21.0947 1485.96 21.98C1485.96 22.4707 1485.84 22.9293 1485.6 23.356C1485.36 23.772 1484.95 24.092 1484.35 24.316C1485.01 24.508 1485.49 24.8067 1485.79 25.212C1486.09 25.6067 1486.24 26.108 1486.24 26.716C1486.24 28.6787 1484.9 29.66 1482.22 29.66ZM1482.65 23.772C1483.24 23.6227 1483.67 23.42 1483.93 23.164C1484.21 22.908 1484.35 22.524 1484.35 22.012C1484.35 20.9453 1483.64 20.412 1482.22 20.412C1481.53 20.412 1481 20.54 1480.64 20.796C1480.27 21.052 1480.09 21.4573 1480.09 22.012C1480.09 22.8547 1480.57 23.3667 1481.52 23.548L1482.65 23.772ZM1482.22 28.3C1483.02 28.3 1483.62 28.172 1484.01 27.916C1484.42 27.6493 1484.62 27.2387 1484.62 26.684C1484.62 26.1827 1484.48 25.82 1484.19 25.596C1483.91 25.3613 1483.48 25.1853 1482.89 25.068L1481.58 24.796C1481.04 24.9133 1480.6 25.1107 1480.28 25.388C1479.96 25.6547 1479.8 26.076 1479.8 26.652C1479.8 27.228 1480.01 27.6493 1480.41 27.916C1480.83 28.172 1481.43 28.3 1482.22 28.3ZM1487.63 29.5V28.636C1487.9 27.9853 1488.29 27.3987 1488.78 26.876C1489.28 26.3533 1489.81 25.8467 1490.38 25.356C1490.8 24.9827 1491.16 24.668 1491.43 24.412C1491.72 24.1453 1491.95 23.9053 1492.11 23.692C1492.27 23.4787 1492.38 23.26 1492.44 23.036C1492.51 22.8013 1492.54 22.5293 1492.54 22.22C1492.54 21.6653 1492.38 21.244 1492.06 20.956C1491.74 20.668 1491.2 20.524 1490.46 20.524C1490.05 20.524 1489.64 20.5667 1489.21 20.652C1488.79 20.7373 1488.39 20.8547 1488.01 21.004V19.468C1488.38 19.34 1488.83 19.2387 1489.34 19.164C1489.85 19.0787 1490.33 19.036 1490.79 19.036C1491.95 19.036 1492.81 19.3187 1493.4 19.884C1493.99 20.4493 1494.28 21.2227 1494.28 22.204C1494.28 22.6947 1494.2 23.132 1494.03 23.516C1493.85 23.8893 1493.62 24.2467 1493.32 24.588C1493.02 24.9187 1492.68 25.26 1492.28 25.612C1491.79 26.0387 1491.33 26.4547 1490.89 26.86C1490.46 27.2547 1490.12 27.6867 1489.85 28.156H1494.39V29.5H1487.63ZM1498.69 29.66C1498.38 29.66 1498.04 29.6387 1497.67 29.596C1497.3 29.564 1496.94 29.5107 1496.6 29.436C1496.27 29.3613 1495.99 29.2813 1495.77 29.196V27.676C1496.19 27.8467 1496.63 27.9747 1497.08 28.06C1497.54 28.1347 1498 28.172 1498.45 28.172C1499.29 28.172 1499.9 28.0493 1500.31 27.804C1500.72 27.5587 1500.92 27.1267 1500.92 26.508C1500.92 25.9533 1500.73 25.5533 1500.36 25.308C1500 25.0627 1499.47 24.94 1498.79 24.94H1497.24L1497.38 23.644H1498.68C1500.03 23.644 1500.71 23.1107 1500.71 22.044C1500.71 21.5213 1500.53 21.1373 1500.17 20.892C1499.81 20.6467 1499.24 20.524 1498.45 20.524C1498.02 20.524 1497.57 20.5667 1497.13 20.652C1496.69 20.7373 1496.3 20.8547 1495.96 21.004V19.516C1496.28 19.388 1496.69 19.276 1497.21 19.18C1497.72 19.084 1498.22 19.036 1498.73 19.036C1499.98 19.036 1500.92 19.3027 1501.53 19.836C1502.14 20.3693 1502.45 21.052 1502.45 21.884C1502.45 22.396 1502.33 22.876 1502.07 23.324C1501.82 23.772 1501.44 24.092 1500.9 24.284C1501.52 24.444 1501.97 24.732 1502.25 25.148C1502.53 25.564 1502.68 26.0547 1502.68 26.62C1502.68 27.6547 1502.32 28.4227 1501.59 28.924C1500.86 29.4147 1499.9 29.66 1498.69 29.66ZM1505.14 29.5L1508.93 20.54H1503.9V19.196H1510.8V20.316L1506.91 29.5H1505.14ZM1512.03 29.5V28.636C1512.31 27.9853 1512.69 27.3987 1513.18 26.876C1513.69 26.3533 1514.22 25.8467 1514.78 25.356C1515.21 24.9827 1515.56 24.668 1515.84 24.412C1516.13 24.1453 1516.35 23.9053 1516.51 23.692C1516.67 23.4787 1516.78 23.26 1516.85 23.036C1516.91 22.8013 1516.94 22.5293 1516.94 22.22C1516.94 21.6653 1516.78 21.244 1516.46 20.956C1516.14 20.668 1515.61 20.524 1514.86 20.524C1514.46 20.524 1514.04 20.5667 1513.62 20.652C1513.2 20.7373 1512.8 20.8547 1512.42 21.004V19.468C1512.79 19.34 1513.23 19.2387 1513.74 19.164C1514.26 19.0787 1514.74 19.036 1515.2 19.036C1516.35 19.036 1517.22 19.3187 1517.81 19.884C1518.39 20.4493 1518.69 21.2227 1518.69 22.204C1518.69 22.6947 1518.6 23.132 1518.43 23.516C1518.26 23.8893 1518.03 24.2467 1517.73 24.588C1517.43 24.9187 1517.08 25.26 1516.69 25.612C1516.2 26.0387 1515.73 26.4547 1515.3 26.86C1514.87 27.2547 1514.52 27.6867 1514.26 28.156H1518.8V29.5H1512.03ZM1521.24 29.5L1525.04 20.54H1520.01V19.196H1526.91V20.316L1523.02 29.5H1521.24ZM1531.07 29.66C1530.76 29.66 1530.42 29.6387 1530.05 29.596C1529.67 29.564 1529.31 29.5107 1528.97 29.436C1528.64 29.3613 1528.37 29.2813 1528.14 29.196V27.676C1528.57 27.8467 1529.01 27.9747 1529.45 28.06C1529.91 28.1347 1530.37 28.172 1530.83 28.172C1531.66 28.172 1532.28 28.0493 1532.69 27.804C1533.09 27.5587 1533.29 27.1267 1533.29 26.508C1533.29 25.9533 1533.11 25.5533 1532.73 25.308C1532.37 25.0627 1531.85 24.94 1531.17 24.94H1529.61L1529.76 23.644H1531.05C1532.41 23.644 1533.09 23.1107 1533.09 22.044C1533.09 21.5213 1532.9 21.1373 1532.54 20.892C1532.19 20.6467 1531.62 20.524 1530.83 20.524C1530.39 20.524 1529.95 20.5667 1529.5 20.652C1529.06 20.7373 1528.67 20.8547 1528.33 21.004V19.516C1528.65 19.388 1529.07 19.276 1529.58 19.18C1530.09 19.084 1530.6 19.036 1531.1 19.036C1532.36 19.036 1533.29 19.3027 1533.9 19.836C1534.52 20.3693 1534.83 21.052 1534.83 21.884C1534.83 22.396 1534.7 22.876 1534.45 23.324C1534.2 23.772 1533.81 24.092 1533.28 24.284C1533.9 24.444 1534.34 24.732 1534.62 25.148C1534.91 25.564 1535.05 26.0547 1535.05 26.62C1535.05 27.6547 1534.69 28.4227 1533.97 28.924C1533.24 29.4147 1532.27 29.66 1531.07 29.66ZM1537.51 29.5L1541.3 20.54H1536.28V19.196H1543.17V20.316L1539.29 29.5H1537.51ZM1549.24 29.5V27.244H1544.09V26.012L1549.45 19.196H1550.97V25.836H1552.02V27.244H1550.97V29.5H1549.24ZM1545.78 25.884H1549.51V21.18L1545.78 25.884ZM1557 29.66C1555.71 29.66 1554.73 29.34 1554.07 28.7C1553.42 28.06 1553.09 27.052 1553.09 25.676V23.356C1553.09 22.5027 1553.27 21.7507 1553.62 21.1C1553.97 20.4493 1554.48 19.9427 1555.13 19.58C1555.78 19.2173 1556.55 19.036 1557.45 19.036C1557.97 19.036 1558.42 19.068 1558.81 19.132C1559.2 19.196 1559.56 19.2867 1559.89 19.404V20.892C1559.56 20.7747 1559.21 20.684 1558.82 20.62C1558.45 20.556 1558.03 20.524 1557.56 20.524C1556.6 20.524 1555.89 20.7533 1555.43 21.212C1554.97 21.66 1554.74 22.2627 1554.74 23.02V23.66C1555.12 23.3827 1555.54 23.18 1556.02 23.052C1556.51 22.9133 1556.96 22.844 1557.35 22.844C1558.56 22.844 1559.45 23.1373 1560.02 23.724C1560.6 24.3107 1560.89 25.1427 1560.89 26.22C1560.89 27.244 1560.57 28.076 1559.94 28.716C1559.31 29.3453 1558.33 29.66 1557 29.66ZM1557.01 28.348C1557.78 28.348 1558.36 28.1613 1558.74 27.788C1559.13 27.4147 1559.32 26.9133 1559.32 26.284C1559.32 25.6227 1559.16 25.1107 1558.84 24.748C1558.53 24.3747 1557.95 24.188 1557.09 24.188C1556.67 24.188 1556.25 24.2627 1555.83 24.412C1555.42 24.5507 1555.06 24.7373 1554.74 24.972V26.076C1554.74 27.5907 1555.5 28.348 1557.01 28.348Z" fill="#1E293B"/>
<defs>
<clipPath id="clip0_2542_22039">
<rect width="16" height="16" fill="white" transform="translate(95.5 16)"/>
</clipPath>
<clipPath id="clip1_2542_22039">
<rect width="16" height="16" fill="white" transform="matrix(0 1 -1 0 528 16)"/>
</clipPath>
<clipPath id="clip2_2542_22039">
<rect width="16" height="16" fill="white" transform="translate(512 16)"/>
</clipPath>
</defs>
</svg>
