<svg width="1320" height="88" viewBox="0 0 1320 88" fill="none" xmlns="http://www.w3.org/2000/svg">
<mask id="path-1-inside-1_2275_14429" fill="white">
<path d="M0 0H1320V88H0V0Z"/>
</mask>
<path d="M1320 88V87H0V88V89H1320V88Z" fill="#ECEDF1" mask="url(#path-1-inside-1_2275_14429)"/>
<path d="M65.11 49.497C65.11 53.528 62.036 55.79 57.657 55.79C54.583 55.79 51.48 54.717 49.044 52.542L51.683 49.381C53.51 50.889 55.424 51.846 57.744 51.846C59.571 51.846 60.673 51.121 60.673 49.932V49.874C60.673 48.743 59.977 48.163 56.584 47.293C52.495 46.249 49.856 45.118 49.856 41.087V41.029C49.856 37.346 52.814 34.91 56.961 34.91C59.919 34.91 62.442 35.838 64.501 37.491L62.181 40.855C60.383 39.608 58.614 38.854 56.903 38.854C55.192 38.854 54.293 39.637 54.293 40.623V40.681C54.293 42.015 55.163 42.45 58.672 43.349C62.79 44.422 65.11 45.901 65.11 49.439V49.497ZM82.7608 55.5H78.3528V46.829C78.3528 44.741 77.3668 43.668 75.6848 43.668C74.0028 43.668 72.9298 44.741 72.9298 46.829V55.5H68.5218V34.33H72.9298V42.16C73.9448 40.855 75.2498 39.666 77.4828 39.666C80.8178 39.666 82.7608 41.87 82.7608 45.437V55.5ZM91.3172 38.245H86.6772V34.33H91.3172V38.245ZM91.2012 55.5H86.7932V39.956H91.2012V55.5ZM111.668 47.757C111.668 52.948 108.275 55.79 104.592 55.79C102.243 55.79 100.793 54.717 99.7491 53.47V60.14H95.3411V39.956H99.7491V42.189C100.822 40.739 102.301 39.666 104.592 39.666C108.217 39.666 111.668 42.508 111.668 47.699V47.757ZM107.26 47.757V47.699C107.26 45.118 105.52 43.407 103.461 43.407C101.402 43.407 99.6911 45.118 99.6911 47.699V47.757C99.6911 50.338 101.402 52.049 103.461 52.049C105.52 52.049 107.26 50.367 107.26 47.757ZM138.632 55.5H134.224V46.829C134.224 44.741 133.296 43.668 131.643 43.668C129.99 43.668 128.975 44.741 128.975 46.829V55.5H124.567V46.829C124.567 44.741 123.639 43.668 121.986 43.668C120.333 43.668 119.318 44.741 119.318 46.829V55.5H114.91V39.956H119.318V42.16C120.333 40.855 121.667 39.666 123.9 39.666C125.93 39.666 127.467 40.565 128.279 42.131C129.642 40.536 131.266 39.666 133.383 39.666C136.66 39.666 138.632 41.638 138.632 45.379V55.5ZM156.966 48.163C156.966 48.598 156.937 48.859 156.908 49.265H146.091C146.526 51.266 147.918 52.31 149.89 52.31C151.369 52.31 152.442 51.846 153.66 50.715L156.183 52.948C154.733 54.746 152.645 55.848 149.832 55.848C145.163 55.848 141.712 52.571 141.712 47.815V47.757C141.712 43.32 144.873 39.666 149.397 39.666C154.588 39.666 156.966 43.697 156.966 48.105V48.163ZM152.674 46.51C152.413 44.538 151.253 43.204 149.397 43.204C147.57 43.204 146.381 44.509 146.033 46.51H152.674ZM174.49 55.5H170.082V46.829C170.082 44.741 169.096 43.668 167.414 43.668C165.732 43.668 164.659 44.741 164.659 46.829V55.5H160.251V39.956H164.659V42.16C165.674 40.855 166.979 39.666 169.212 39.666C172.547 39.666 174.49 41.87 174.49 45.437V55.5ZM187.049 54.862C186.121 55.413 185.048 55.761 183.569 55.761C180.872 55.761 179.045 54.688 179.045 51.092V43.726H177.189V39.956H179.045V35.983H183.453V39.956H187.107V43.726H183.453V50.367C183.453 51.382 183.888 51.875 184.874 51.875C185.686 51.875 186.411 51.672 187.049 51.324V54.862ZM204.183 55.5H199.717V35.2H204.183V55.5ZM227.961 45.35C227.961 51.063 223.553 55.5 217.173 55.5H209.256V35.2H217.173C223.553 35.2 227.961 39.579 227.961 45.292V45.35ZM223.292 45.408V45.35C223.292 41.754 220.827 39.231 217.173 39.231H213.722V51.469H217.173C220.827 51.469 223.292 49.004 223.292 45.408ZM257.484 43.146H254.642L253.917 47.438H256.469V51.15H253.279L252.525 55.5H248.697L249.451 51.15H245.246L244.492 55.5H240.664L241.418 51.15H239.214V47.438H242.056L242.781 43.146H240.229V39.434H243.419L244.144 35.2H247.972L247.247 39.434H251.452L252.177 35.2H256.005L255.28 39.434H257.484V43.146ZM250.814 43.146H246.609L245.884 47.438H250.089L250.814 43.146ZM278.109 45.321C278.109 51.237 274.484 55.848 269.061 55.848C263.638 55.848 260.071 51.295 260.071 45.379C260.071 39.463 263.696 34.852 269.119 34.852C274.542 34.852 278.109 39.405 278.109 45.321ZM273.527 45.379C273.527 41.667 271.758 38.883 269.061 38.883C266.364 38.883 264.653 41.58 264.653 45.321C264.653 49.062 266.422 51.817 269.119 51.817C271.816 51.817 273.527 49.091 273.527 45.379ZM299.292 45.321C299.292 51.237 295.667 55.848 290.244 55.848C284.821 55.848 281.254 51.295 281.254 45.379C281.254 39.463 284.879 34.852 290.302 34.852C295.725 34.852 299.292 39.405 299.292 45.321ZM294.71 45.379C294.71 41.667 292.941 38.883 290.244 38.883C287.547 38.883 285.836 41.58 285.836 45.321C285.836 49.062 287.605 51.817 290.302 51.817C292.999 51.817 294.71 49.091 294.71 45.379ZM320.476 45.321C320.476 51.237 316.851 55.848 311.428 55.848C306.005 55.848 302.438 51.295 302.438 45.379C302.438 39.463 306.063 34.852 311.486 34.852C316.909 34.852 320.476 39.405 320.476 45.321ZM315.894 45.379C315.894 41.667 314.125 38.883 311.428 38.883C308.731 38.883 307.02 41.58 307.02 45.321C307.02 49.062 308.789 51.817 311.486 51.817C314.183 51.817 315.894 49.091 315.894 45.379ZM322.61 36.795L328.439 35.055H331.484V55.5H327.076V39.579L323.538 40.449L322.61 36.795Z" fill="#1E293B"/>
<path d="M359 44C359 37.3726 364.373 32 371 32H443C449.627 32 455 37.3726 455 44C455 50.6274 449.627 56 443 56H371C364.373 56 359 50.6274 359 44Z" fill="#FCEABE"/>
<g clip-path="url(#clip0_2275_14429)">
<path d="M378.5 45.2C378.833 45.2 379.117 45.0835 379.35 44.8504C379.584 44.6173 379.701 44.3339 379.7 44C379.699 43.6661 379.583 43.3829 379.35 43.1504C379.118 42.9179 378.834 42.8011 378.5 42.8C378.166 42.7989 377.882 42.9157 377.65 43.1504C377.418 43.3851 377.302 43.6683 377.3 44C377.298 44.3317 377.415 44.6152 377.65 44.8504C377.886 45.0856 378.169 45.2021 378.5 45.2ZM382.5 45.2C382.833 45.2 383.117 45.0835 383.35 44.8504C383.584 44.6173 383.701 44.3339 383.7 44C383.699 43.6661 383.583 43.3829 383.35 43.1504C383.118 42.9179 382.834 42.8011 382.5 42.8C382.166 42.7989 381.882 42.9157 381.65 43.1504C381.418 43.3851 381.302 43.6683 381.3 44C381.298 44.3317 381.415 44.6152 381.65 44.8504C381.886 45.0856 382.169 45.2021 382.5 45.2ZM386.5 45.2C386.833 45.2 387.117 45.0835 387.35 44.8504C387.584 44.6173 387.701 44.3339 387.7 44C387.699 43.6661 387.583 43.3829 387.35 43.1504C387.118 42.9179 386.834 42.8011 386.5 42.8C386.166 42.7989 385.882 42.9157 385.65 43.1504C385.418 43.3851 385.302 43.6683 385.3 44C385.298 44.3317 385.415 44.6152 385.65 44.8504C385.886 45.0856 386.169 45.2021 386.5 45.2ZM382.5 52C381.393 52 380.353 51.7899 379.38 51.3696C378.407 50.9493 377.56 50.3795 376.84 49.66C376.12 48.9405 375.55 48.0939 375.13 47.12C374.711 46.1461 374.501 45.1061 374.5 44C374.499 42.8939 374.71 41.8539 375.13 40.88C375.551 39.9061 376.121 39.0595 376.84 38.34C377.559 37.6205 378.406 37.0507 379.38 36.6304C380.354 36.2101 381.394 36 382.5 36C383.606 36 384.646 36.2101 385.62 36.6304C386.594 37.0507 387.441 37.6205 388.16 38.34C388.879 39.0595 389.449 39.9061 389.87 40.88C390.292 41.8539 390.502 42.8939 390.5 44C390.498 45.1061 390.288 46.1461 389.87 47.12C389.451 48.0939 388.881 48.9405 388.16 49.66C387.439 50.3795 386.592 50.9496 385.62 51.3704C384.648 51.7912 383.608 52.0011 382.5 52ZM382.5 50.4C384.287 50.4 385.8 49.78 387.04 48.54C388.28 47.3 388.9 45.7867 388.9 44C388.9 42.2133 388.28 40.7 387.04 39.46C385.8 38.22 384.287 37.6 382.5 37.6C380.713 37.6 379.2 38.22 377.96 39.46C376.72 40.7 376.1 42.2133 376.1 44C376.1 45.7867 376.72 47.3 377.96 48.54C379.2 49.78 380.713 50.4 382.5 50.4Z" fill="#CD9B08"/>
</g>
<path d="M395.225 48V40.272H398.849C399.457 40.272 399.953 40.388 400.337 40.62C400.729 40.852 401.021 41.168 401.213 41.568C401.405 41.968 401.501 42.424 401.501 42.936C401.501 43.456 401.389 43.916 401.165 44.316C400.949 44.716 400.637 45.028 400.229 45.252C399.829 45.468 399.353 45.576 398.801 45.576H396.845V48H395.225ZM396.845 44.292H398.465C398.929 44.292 399.277 44.172 399.509 43.932C399.749 43.684 399.869 43.352 399.869 42.936C399.869 42.488 399.757 42.148 399.533 41.916C399.309 41.676 398.973 41.556 398.525 41.556H396.845V44.292ZM405.361 48.12C404.377 48.12 403.597 47.876 403.021 47.388C402.445 46.892 402.157 46.144 402.157 45.144C402.157 44.24 402.397 43.524 402.877 42.996C403.365 42.46 404.089 42.192 405.049 42.192C405.929 42.192 406.601 42.424 407.065 42.888C407.537 43.344 407.773 43.944 407.773 44.688V45.72H403.657C403.745 46.176 403.953 46.488 404.281 46.656C404.617 46.824 405.089 46.908 405.697 46.908C406.001 46.908 406.309 46.88 406.621 46.824C406.941 46.768 407.213 46.696 407.437 46.608V47.76C407.173 47.88 406.865 47.968 406.513 48.024C406.161 48.088 405.777 48.12 405.361 48.12ZM403.657 44.724H406.357V44.412C406.357 44.084 406.261 43.828 406.069 43.644C405.877 43.452 405.553 43.356 405.097 43.356C404.561 43.356 404.185 43.464 403.969 43.68C403.761 43.896 403.657 44.244 403.657 44.724ZM408.901 48V42.312H410.401L410.461 42.852C410.693 42.676 410.985 42.524 411.337 42.396C411.697 42.26 412.073 42.192 412.465 42.192C413.217 42.192 413.765 42.368 414.109 42.72C414.453 43.072 414.625 43.616 414.625 44.352V48H413.005V44.436C413.005 44.052 412.925 43.78 412.765 43.62C412.613 43.46 412.325 43.38 411.901 43.38C411.653 43.38 411.401 43.436 411.145 43.548C410.897 43.66 410.689 43.8 410.521 43.968V48H408.901ZM418.132 48.12C417.628 48.12 417.176 48.032 416.776 47.856C416.384 47.672 416.076 47.376 415.852 46.968C415.628 46.552 415.516 46.004 415.516 45.324C415.516 44.644 415.64 44.072 415.888 43.608C416.136 43.144 416.468 42.792 416.884 42.552C417.3 42.312 417.756 42.192 418.252 42.192C418.876 42.192 419.408 42.336 419.848 42.624V39.912H421.468V48H420.076L419.98 47.472C419.732 47.688 419.46 47.852 419.164 47.964C418.876 48.068 418.532 48.12 418.132 48.12ZM418.576 46.932C419.08 46.932 419.504 46.76 419.848 46.416V43.824C419.512 43.528 419.12 43.38 418.672 43.38C417.664 43.38 417.16 44.028 417.16 45.324C417.16 45.932 417.284 46.352 417.532 46.584C417.78 46.816 418.128 46.932 418.576 46.932ZM423.23 41.268V39.996H424.994V41.268H423.23ZM423.362 48V43.512H422.51L422.654 42.312H424.982V48H423.362ZM426.362 48V42.312H427.862L427.922 42.852C428.154 42.676 428.446 42.524 428.798 42.396C429.158 42.26 429.534 42.192 429.926 42.192C430.678 42.192 431.226 42.368 431.57 42.72C431.914 43.072 432.086 43.616 432.086 44.352V48H430.466V44.436C430.466 44.052 430.386 43.78 430.226 43.62C430.074 43.46 429.786 43.38 429.362 43.38C429.114 43.38 428.862 43.436 428.606 43.548C428.358 43.66 428.15 43.8 427.982 43.968V48H426.362ZM435.805 50.112C435.381 50.112 434.945 50.084 434.497 50.028C434.057 49.972 433.685 49.892 433.381 49.788V48.576C433.701 48.68 434.077 48.76 434.509 48.816C434.941 48.88 435.345 48.912 435.721 48.912C436.273 48.912 436.673 48.88 436.921 48.816C437.169 48.76 437.293 48.656 437.293 48.504C437.293 48.376 437.237 48.288 437.125 48.24C437.021 48.192 436.797 48.168 436.453 48.168H434.905C433.889 48.168 433.381 47.792 433.381 47.04C433.381 46.808 433.445 46.596 433.573 46.404C433.701 46.212 433.905 46.06 434.185 45.948C433.537 45.62 433.213 45.068 433.213 44.292C433.213 43.556 433.441 43.024 433.897 42.696C434.353 42.36 435.029 42.192 435.925 42.192C436.109 42.192 436.309 42.208 436.525 42.24C436.749 42.264 436.917 42.288 437.029 42.312H439.165L439.129 43.332H438.229C438.477 43.564 438.601 43.888 438.601 44.304C438.601 44.888 438.417 45.356 438.049 45.708C437.681 46.052 437.137 46.224 436.417 46.224C436.289 46.224 436.165 46.22 436.045 46.212C435.933 46.196 435.817 46.18 435.697 46.164C435.457 46.196 435.253 46.252 435.085 46.332C434.925 46.412 434.845 46.52 434.845 46.656C434.845 46.84 435.009 46.932 435.337 46.932H436.945C437.521 46.932 437.965 47.064 438.277 47.328C438.589 47.584 438.745 47.96 438.745 48.456C438.745 49.016 438.493 49.432 437.989 49.704C437.485 49.976 436.757 50.112 435.805 50.112ZM435.937 45.312C436.417 45.312 436.749 45.232 436.933 45.072C437.125 44.904 437.221 44.624 437.221 44.232C437.221 43.84 437.125 43.556 436.933 43.38C436.749 43.204 436.417 43.116 435.937 43.116C435.481 43.116 435.153 43.204 434.953 43.38C434.753 43.548 434.653 43.832 434.653 44.232C434.653 44.6 434.745 44.872 434.929 45.048C435.121 45.224 435.457 45.312 435.937 45.312Z" fill="#9C6808"/>
<path d="M1213 24.5H1268C1269.93 24.5 1271.5 26.067 1271.5 28V60C1271.5 61.933 1269.93 63.5 1268 63.5H1213C1211.07 63.5 1209.5 61.933 1209.5 60V28C1209.5 26.067 1211.07 24.5 1213 24.5Z" fill="white"/>
<path d="M1213 24.5H1268C1269.93 24.5 1271.5 26.067 1271.5 28V60C1271.5 61.933 1269.93 63.5 1268 63.5H1213C1211.07 63.5 1209.5 61.933 1209.5 60V28C1209.5 26.067 1211.07 24.5 1213 24.5Z" stroke="#ECEDF1"/>
<g clip-path="url(#clip1_2275_14429)">
<path d="M1227.45 49.5V39.196H1234.64V40.556H1229.2V43.676H1234.05V45.02H1229.2V48.156H1234.64V49.5H1227.45ZM1239.07 49.66C1238.39 49.66 1237.79 49.5427 1237.27 49.308C1236.74 49.0733 1236.34 48.684 1236.05 48.14C1235.76 47.596 1235.62 46.8653 1235.62 45.948C1235.62 45.0413 1235.77 44.2787 1236.08 43.66C1236.39 43.0307 1236.82 42.556 1237.36 42.236C1237.92 41.916 1238.54 41.756 1239.23 41.756C1239.69 41.756 1240.1 41.8093 1240.45 41.916C1240.81 42.0227 1241.16 42.188 1241.49 42.412V38.716H1243.23V49.5H1241.75L1241.63 48.748C1241.29 49.0573 1240.92 49.2867 1240.51 49.436C1240.11 49.5853 1239.63 49.66 1239.07 49.66ZM1239.54 48.348C1240.32 48.348 1240.97 48.0813 1241.49 47.548V43.756C1240.99 43.308 1240.36 43.084 1239.6 43.084C1238.87 43.084 1238.31 43.3293 1237.94 43.82C1237.56 44.3107 1237.38 45.0253 1237.38 45.964C1237.38 46.8707 1237.55 47.4947 1237.89 47.836C1238.24 48.1773 1238.79 48.348 1239.54 48.348ZM1245.89 40.332V38.892H1247.79V40.332H1245.89ZM1246.03 49.5V43.244H1244.88L1245.04 41.916H1247.78V49.5H1246.03ZM1252.71 49.66C1251.9 49.66 1251.29 49.4467 1250.88 49.02C1250.49 48.5827 1250.29 47.9907 1250.29 47.244V43.276H1249.17V41.916H1250.29V40.172L1252.02 39.644V41.916H1254.04L1253.92 43.276H1252.02V47.148C1252.02 47.5853 1252.12 47.8947 1252.32 48.076C1252.53 48.2467 1252.86 48.332 1253.32 48.332C1253.6 48.332 1253.91 48.2787 1254.23 48.172V49.404C1253.81 49.5747 1253.31 49.66 1252.71 49.66Z" fill="#A9ACB9"/>
</g>
<defs>
<clipPath id="clip0_2275_14429">
<rect width="16" height="16" fill="white" transform="translate(374.5 36)"/>
</clipPath>
<clipPath id="clip1_2275_14429">
<rect width="29" height="19" fill="white" transform="translate(1226 34.5)"/>
</clipPath>
</defs>
</svg>
