<svg width="490" height="330" viewBox="0 0 490 330" fill="none" xmlns="http://www.w3.org/2000/svg">
<g filter="url(#filter0_d_1416_11388)">
<path d="M21 17C21 12.5817 24.5817 9 29 9H461C465.418 9 469 12.5817 469 17V289C469 293.418 465.418 297 461 297H29C24.5817 297 21 293.418 21 289V17Z" fill="white"/>
<path d="M29 9.5H461C465.142 9.5 468.5 12.8579 468.5 17V289C468.5 293.142 465.142 296.5 461 296.5H29C24.8579 296.5 21.5 293.142 21.5 289V17C21.5 12.8579 24.8579 9.5 29 9.5Z" stroke="#ECEDF1"/>
<path d="M69.592 82.5L73.528 72.196H75.896L79.816 82.5H77.576L76.6 80.02H72.808L71.848 82.5H69.592ZM73.128 78.356H76.28L74.696 74.212L73.128 78.356ZM83.7675 82.66C83.0955 82.66 82.4928 82.5427 81.9595 82.308C81.4368 82.0627 81.0262 81.668 80.7275 81.124C80.4288 80.5693 80.2795 79.8387 80.2795 78.932C80.2795 78.0253 80.4448 77.2627 80.7755 76.644C81.1062 76.0253 81.5488 75.556 82.1035 75.236C82.6582 74.916 83.2662 74.756 83.9275 74.756C84.7595 74.756 85.4688 74.948 86.0555 75.332V71.716H88.2155V82.5H86.3595L86.2315 81.796C85.9008 82.084 85.5382 82.3027 85.1435 82.452C84.7595 82.5907 84.3008 82.66 83.7675 82.66ZM84.3595 81.076C85.0315 81.076 85.5968 80.8467 86.0555 80.388V76.932C85.6075 76.5373 85.0848 76.34 84.4875 76.34C83.1435 76.34 82.4715 77.204 82.4715 78.932C82.4715 79.7427 82.6368 80.3027 82.9675 80.612C83.2982 80.9213 83.7622 81.076 84.3595 81.076ZM93.0488 82.66C92.3768 82.66 91.7741 82.5427 91.2408 82.308C90.7181 82.0627 90.3074 81.668 90.0088 81.124C89.7101 80.5693 89.5608 79.8387 89.5608 78.932C89.5608 78.0253 89.7261 77.2627 90.0568 76.644C90.3874 76.0253 90.8301 75.556 91.3848 75.236C91.9394 74.916 92.5474 74.756 93.2088 74.756C94.0408 74.756 94.7501 74.948 95.3368 75.332V71.716H97.4968V82.5H95.6408L95.5128 81.796C95.1821 82.084 94.8194 82.3027 94.4248 82.452C94.0408 82.5907 93.5821 82.66 93.0488 82.66ZM93.6408 81.076C94.3128 81.076 94.8781 80.8467 95.3368 80.388V76.932C94.8888 76.5373 94.3661 76.34 93.7688 76.34C92.4248 76.34 91.7528 77.204 91.7528 78.932C91.7528 79.7427 91.9181 80.3027 92.2488 80.612C92.5794 80.9213 93.0434 81.076 93.6408 81.076Z" fill="#1E293B"/>
<path d="M137 57.5H233C234.933 57.5 236.5 59.067 236.5 61V93C236.5 94.933 234.933 96.5 233 96.5H137C135.067 96.5 133.5 94.933 133.5 93V61C133.5 59.067 135.067 57.5 137 57.5Z" stroke="#ECEDF1"/>
<path d="M172.22 82.66C169.532 82.66 168.188 81.6787 168.188 79.716C168.188 79.1293 168.343 78.6067 168.652 78.148C168.972 77.6893 169.425 77.364 170.012 77.172C169.479 76.9693 169.089 76.6707 168.844 76.276C168.599 75.8707 168.476 75.4387 168.476 74.98C168.476 74.0947 168.78 73.3853 169.388 72.852C170.007 72.308 170.951 72.036 172.22 72.036C173.521 72.036 174.471 72.308 175.068 72.852C175.665 73.3853 175.964 74.0947 175.964 74.98C175.964 75.4707 175.841 75.9293 175.596 76.356C175.361 76.772 174.945 77.092 174.348 77.316C175.009 77.508 175.489 77.8067 175.788 78.212C176.087 78.6067 176.236 79.108 176.236 79.716C176.236 81.6787 174.897 82.66 172.22 82.66ZM172.652 76.772C173.239 76.6227 173.665 76.42 173.932 76.164C174.209 75.908 174.348 75.524 174.348 75.012C174.348 73.9453 173.639 73.412 172.22 73.412C171.527 73.412 170.999 73.54 170.636 73.796C170.273 74.052 170.092 74.4573 170.092 75.012C170.092 75.8547 170.567 76.3667 171.516 76.548L172.652 76.772ZM172.22 81.3C173.02 81.3 173.617 81.172 174.012 80.916C174.417 80.6493 174.62 80.2387 174.62 79.684C174.62 79.1827 174.476 78.82 174.188 78.596C173.911 78.3613 173.479 78.1853 172.892 78.068L171.58 77.796C171.036 77.9133 170.604 78.1107 170.284 78.388C169.964 78.6547 169.804 79.076 169.804 79.652C169.804 80.228 170.007 80.6493 170.412 80.916C170.828 81.172 171.431 81.3 172.22 81.3ZM182.458 82.5V80.244H177.306V79.012L182.666 72.196H184.186V78.836H185.242V80.244H184.186V82.5H182.458ZM179.002 78.884H182.73V74.18L179.002 78.884ZM186.313 82.5V81.636C186.59 80.9853 186.974 80.3987 187.465 79.876C187.966 79.3533 188.5 78.8467 189.065 78.356C189.492 77.9827 189.844 77.668 190.121 77.412C190.409 77.1453 190.633 76.9053 190.793 76.692C190.953 76.4787 191.065 76.26 191.129 76.036C191.193 75.8013 191.225 75.5293 191.225 75.22C191.225 74.6653 191.065 74.244 190.745 73.956C190.425 73.668 189.892 73.524 189.145 73.524C188.74 73.524 188.324 73.5667 187.897 73.652C187.481 73.7373 187.081 73.8547 186.697 74.004V72.468C187.07 72.34 187.513 72.2387 188.025 72.164C188.537 72.0787 189.022 72.036 189.481 72.036C190.633 72.036 191.502 72.3187 192.089 72.884C192.676 73.4493 192.969 74.2227 192.969 75.204C192.969 75.6947 192.884 76.132 192.713 76.516C192.542 76.8893 192.308 77.2467 192.009 77.588C191.71 77.9187 191.364 78.26 190.969 78.612C190.478 79.0387 190.014 79.4547 189.577 79.86C189.15 80.2547 188.804 80.6867 188.537 81.156H193.081V82.5H186.313ZM195.526 82.5L199.318 73.54H194.294V72.196H201.19V73.316L197.302 82.5H195.526Z" fill="#1E293B"/>
<path d="M249 57.5H345C346.933 57.5 348.5 59.067 348.5 61V93C348.5 94.933 346.933 96.5 345 96.5H249C247.067 96.5 245.5 94.933 245.5 93V61C245.5 59.067 247.067 57.5 249 57.5Z" fill="white"/>
<path d="M249 57.5H345C346.933 57.5 348.5 59.067 348.5 61V93C348.5 94.933 346.933 96.5 345 96.5H249C247.067 96.5 245.5 94.933 245.5 93V61C245.5 59.067 247.067 57.5 249 57.5Z" stroke="#ECEDF1"/>
<path d="M288.203 83V72.696H289.947V81.656H295.227V83H288.203ZM296.306 83L300.242 72.696H302.194L306.098 83H304.306L303.282 80.344H299.138L298.114 83H296.306ZM299.41 79H302.994L301.202 74.28L299.41 79Z" fill="#1E293B"/>
<path d="M318 75.5L323 80.5L328 75.5" stroke="#A9ACB9" stroke-width="2" stroke-linecap="round" stroke-linejoin="round"/>
<path d="M361 57.5H417C418.933 57.5 420.5 59.067 420.5 61V93C420.5 94.933 418.933 96.5 417 96.5H361C359.067 96.5 357.5 94.933 357.5 93V61C357.5 59.067 359.067 57.5 361 57.5Z" fill="white"/>
<path d="M361 57.5H417C418.933 57.5 420.5 59.067 420.5 61V93C420.5 94.933 418.933 96.5 417 96.5H361C359.067 96.5 357.5 94.933 357.5 93V61C357.5 59.067 359.067 57.5 361 57.5Z" stroke="#ECEDF1"/>
<path d="M393.248 82.669C392.462 82.6657 391.791 82.4586 391.234 82.0476C390.678 81.6366 390.252 81.0384 389.957 80.2528C389.662 79.4673 389.514 78.5211 389.514 77.4141C389.514 76.3104 389.662 75.3674 389.957 74.5852C390.255 73.803 390.683 73.2064 391.239 72.7955C391.8 72.3845 392.469 72.179 393.248 72.179C394.027 72.179 394.695 72.3861 395.251 72.8004C395.808 73.2114 396.234 73.808 396.529 74.5902C396.827 75.3691 396.977 76.3104 396.977 77.4141C396.977 78.5244 396.829 79.4723 396.534 80.2578C396.239 81.04 395.813 81.6383 395.256 82.0526C394.7 82.4635 394.03 82.669 393.248 82.669ZM393.248 81.3416C393.937 81.3416 394.476 81.0052 394.864 80.3324C395.255 79.6596 395.45 78.6868 395.45 77.4141C395.45 76.5689 395.361 75.8546 395.182 75.2713C395.006 74.6847 394.753 74.2405 394.421 73.9389C394.093 73.634 393.702 73.4815 393.248 73.4815C392.562 73.4815 392.023 73.8196 391.632 74.4957C391.241 75.1719 391.044 76.1446 391.041 77.4141C391.041 78.2625 391.128 78.9801 391.304 79.5668C391.483 80.1501 391.737 80.5926 392.065 80.8942C392.393 81.1925 392.787 81.3416 393.248 81.3416Z" fill="#353638"/>
<path d="M405.493 71.3322C405.046 71.3322 404.824 70.7904 405.142 70.4764L408.649 67.0146C408.843 66.8224 409.156 66.8224 409.351 67.0146L412.858 70.4764C413.176 70.7904 412.954 71.3322 412.507 71.3322H405.493Z" fill="#1E293B"/>
<path d="M405.493 82.6678C405.046 82.6678 404.824 83.2096 405.142 83.5236L408.649 86.9854C408.843 87.1776 409.156 87.1776 409.351 86.9854L412.858 83.5236C413.176 83.2096 412.954 82.6678 412.507 82.6678H405.493Z" fill="#1E293B"/>
<path d="M69.912 130.5V120.196H74.856C76.04 120.196 76.9093 120.511 77.464 121.14C78.0187 121.759 78.296 122.596 78.296 123.652C78.296 124.345 78.1147 124.943 77.752 125.444C77.4 125.945 76.8987 126.308 76.248 126.532C76.4187 126.671 76.552 126.82 76.648 126.98C76.7547 127.14 76.8613 127.353 76.968 127.62L78.216 130.5H75.976L74.76 127.732C74.6533 127.497 74.536 127.332 74.408 127.236C74.28 127.14 74.0667 127.092 73.768 127.092H72.072V130.5H69.912ZM72.072 125.3H74.296C74.8613 125.3 75.304 125.177 75.624 124.932C75.944 124.676 76.104 124.249 76.104 123.652C76.104 123.076 75.9653 122.655 75.688 122.388C75.4107 122.121 74.9893 121.988 74.424 121.988H72.072V125.3ZM83.5203 130.66C82.2083 130.66 81.1683 130.335 80.4003 129.684C79.6323 129.023 79.2483 128.025 79.2483 126.692C79.2483 125.487 79.5683 124.532 80.2083 123.828C80.8589 123.113 81.8243 122.756 83.1043 122.756C84.2776 122.756 85.1736 123.065 85.7923 123.684C86.4216 124.292 86.7362 125.092 86.7362 126.084V127.46H81.2483C81.3656 128.068 81.6429 128.484 82.0803 128.708C82.5283 128.932 83.1576 129.044 83.9683 129.044C84.3736 129.044 84.7843 129.007 85.2003 128.932C85.6269 128.857 85.9896 128.761 86.2883 128.644V130.18C85.9363 130.34 85.5256 130.457 85.0563 130.532C84.5869 130.617 84.0749 130.66 83.5203 130.66ZM81.2483 126.132H84.8483V125.716C84.8483 125.279 84.7203 124.937 84.4643 124.692C84.2083 124.436 83.7763 124.308 83.1683 124.308C82.4536 124.308 81.9523 124.452 81.6643 124.74C81.3869 125.028 81.2483 125.492 81.2483 126.132ZM90.6241 130.66C90.1441 130.66 89.6961 130.575 89.2801 130.404C88.8748 130.223 88.5441 129.961 88.2881 129.62C88.0428 129.268 87.9201 128.831 87.9201 128.308C87.9201 127.561 88.1815 126.964 88.7041 126.516C89.2375 126.068 90.0215 125.844 91.0561 125.844H93.2961V125.636C93.2961 125.167 93.1628 124.836 92.8961 124.644C92.6401 124.452 92.1175 124.356 91.3281 124.356C90.4641 124.356 89.6321 124.489 88.8321 124.756V123.236C89.1841 123.097 89.6108 122.985 90.1121 122.9C90.6241 122.804 91.1788 122.756 91.7761 122.756C92.9175 122.756 93.7975 122.991 94.4161 123.46C95.0455 123.919 95.3601 124.66 95.3601 125.684V130.5H93.4881L93.3761 129.812C93.0775 130.079 92.7095 130.287 92.2721 130.436C91.8348 130.585 91.2855 130.66 90.6241 130.66ZM91.2161 129.236C91.6961 129.236 92.1121 129.156 92.4641 128.996C92.8161 128.836 93.0935 128.633 93.2961 128.388V127.188H91.1041C90.2615 127.188 89.8401 127.535 89.8401 128.228C89.8401 128.9 90.2988 129.236 91.2161 129.236ZM99.7715 130.66C99.2062 130.66 98.6675 130.617 98.1555 130.532C97.6435 130.457 97.2328 130.361 96.9235 130.244V128.452C97.2968 128.601 97.7182 128.719 98.1875 128.804C98.6568 128.879 99.0888 128.916 99.4835 128.916C100.017 128.916 100.39 128.884 100.604 128.82C100.828 128.756 100.94 128.612 100.94 128.388C100.94 128.132 100.769 127.945 100.428 127.828C100.097 127.711 99.6008 127.545 98.9395 127.332C98.2462 127.097 97.7128 126.815 97.3395 126.484C96.9662 126.153 96.7795 125.663 96.7795 125.012C96.7795 124.287 97.0408 123.732 97.5635 123.348C98.0968 122.953 98.9502 122.756 100.124 122.756C100.593 122.756 101.036 122.793 101.452 122.868C101.868 122.932 102.22 123.012 102.508 123.108V124.884C102.22 124.745 101.889 124.644 101.516 124.58C101.142 124.505 100.796 124.468 100.476 124.468C100.017 124.468 99.6488 124.5 99.3715 124.564C99.1048 124.628 98.9715 124.767 98.9715 124.98C98.9715 125.215 99.1155 125.38 99.4035 125.476C99.7022 125.572 100.161 125.716 100.78 125.908C101.388 126.089 101.862 126.287 102.204 126.5C102.545 126.713 102.785 126.969 102.924 127.268C103.062 127.556 103.132 127.919 103.132 128.356C103.132 129.892 102.012 130.66 99.7715 130.66ZM108.188 130.66C106.77 130.66 105.73 130.319 105.068 129.636C104.407 128.943 104.076 127.967 104.076 126.708C104.076 125.449 104.407 124.479 105.068 123.796C105.74 123.103 106.78 122.756 108.188 122.756C109.607 122.756 110.647 123.103 111.308 123.796C111.98 124.479 112.316 125.449 112.316 126.708C112.316 127.967 111.986 128.943 111.324 129.636C110.663 130.319 109.618 130.66 108.188 130.66ZM108.188 128.82C108.882 128.82 109.378 128.665 109.676 128.356C109.975 128.036 110.124 127.487 110.124 126.708C110.124 125.929 109.975 125.385 109.676 125.076C109.378 124.756 108.882 124.596 108.188 124.596C107.506 124.596 107.015 124.756 106.716 125.076C106.418 125.385 106.268 125.929 106.268 126.708C106.268 127.487 106.418 128.036 106.716 128.356C107.015 128.665 107.506 128.82 108.188 128.82ZM113.818 130.5V122.916H115.818L115.898 123.636C116.208 123.401 116.597 123.199 117.066 123.028C117.546 122.847 118.048 122.756 118.57 122.756C119.573 122.756 120.304 122.991 120.762 123.46C121.221 123.929 121.45 124.655 121.45 125.636V130.5H119.29V125.748C119.29 125.236 119.184 124.873 118.97 124.66C118.768 124.447 118.384 124.34 117.818 124.34C117.488 124.34 117.152 124.415 116.81 124.564C116.48 124.713 116.202 124.9 115.978 125.124V130.5H113.818Z" fill="#1E293B"/>
<path d="M137 105.5H417C418.933 105.5 420.5 107.067 420.5 109V141C420.5 142.933 418.933 144.5 417 144.5H137C135.067 144.5 133.5 142.933 133.5 141V109C133.5 107.067 135.067 105.5 137 105.5Z" fill="white"/>
<path d="M137 105.5H417C418.933 105.5 420.5 107.067 420.5 109V141C420.5 142.933 418.933 144.5 417 144.5H137C135.067 144.5 133.5 142.933 133.5 141V109C133.5 107.067 135.067 105.5 137 105.5Z" stroke="#ECEDF1"/>
<path d="M273.946 127.368V126.008H280.058V127.368H273.946Z" fill="#1E293B"/>
<path d="M393 123.5L398 128.5L403 123.5" stroke="#A9ACB9" stroke-width="2" stroke-linecap="round" stroke-linejoin="round"/>
<path d="M69.912 178.5V168.196H71.784L76.664 175.06V168.196H78.824V178.5H76.952L72.072 171.636V178.5H69.912ZM84.4384 178.66C83.0197 178.66 81.9797 178.319 81.3184 177.636C80.657 176.943 80.3264 175.967 80.3264 174.708C80.3264 173.449 80.657 172.479 81.3184 171.796C81.9904 171.103 83.0304 170.756 84.4384 170.756C85.857 170.756 86.897 171.103 87.5584 171.796C88.2304 172.479 88.5664 173.449 88.5664 174.708C88.5664 175.967 88.2357 176.943 87.5744 177.636C86.913 178.319 85.8677 178.66 84.4384 178.66ZM84.4384 176.82C85.1317 176.82 85.6277 176.665 85.9264 176.356C86.225 176.036 86.3744 175.487 86.3744 174.708C86.3744 173.929 86.225 173.385 85.9264 173.076C85.6277 172.756 85.1317 172.596 84.4384 172.596C83.7557 172.596 83.265 172.756 82.9664 173.076C82.6677 173.385 82.5184 173.929 82.5184 174.708C82.5184 175.487 82.6677 176.036 82.9664 176.356C83.265 176.665 83.7557 176.82 84.4384 176.82ZM93.0763 178.66C92.2016 178.66 91.5509 178.431 91.1243 177.972C90.7083 177.513 90.5003 176.889 90.5003 176.1V172.58H89.4283V170.916H90.5003V169.284L92.6603 168.644V170.916H94.5803L94.4523 172.58H92.6603V175.956C92.6603 176.372 92.7563 176.66 92.9483 176.82C93.1403 176.969 93.4389 177.044 93.8443 177.044C94.1429 177.044 94.4523 176.991 94.7723 176.884V178.372C94.5376 178.468 94.2816 178.537 94.0043 178.58C93.7269 178.633 93.4176 178.66 93.0763 178.66ZM99.8328 178.66C98.5208 178.66 97.4808 178.335 96.7128 177.684C95.9448 177.023 95.5608 176.025 95.5608 174.692C95.5608 173.487 95.8808 172.532 96.5208 171.828C97.1714 171.113 98.1368 170.756 99.4168 170.756C100.59 170.756 101.486 171.065 102.105 171.684C102.734 172.292 103.049 173.092 103.049 174.084V175.46H97.5608C97.6781 176.068 97.9554 176.484 98.3928 176.708C98.8408 176.932 99.4701 177.044 100.281 177.044C100.686 177.044 101.097 177.007 101.513 176.932C101.939 176.857 102.302 176.761 102.601 176.644V178.18C102.249 178.34 101.838 178.457 101.369 178.532C100.899 178.617 100.387 178.66 99.8328 178.66ZM97.5608 174.132H101.161V173.716C101.161 173.279 101.033 172.937 100.777 172.692C100.521 172.436 100.089 172.308 99.4808 172.308C98.7661 172.308 98.2648 172.452 97.9768 172.74C97.6994 173.028 97.5608 173.492 97.5608 174.132ZM107.147 178.66C106.581 178.66 106.043 178.617 105.531 178.532C105.019 178.457 104.608 178.361 104.299 178.244V176.452C104.672 176.601 105.093 176.719 105.562 176.804C106.032 176.879 106.464 176.916 106.859 176.916C107.392 176.916 107.765 176.884 107.979 176.82C108.203 176.756 108.315 176.612 108.315 176.388C108.315 176.132 108.144 175.945 107.803 175.828C107.472 175.711 106.976 175.545 106.315 175.332C105.621 175.097 105.088 174.815 104.715 174.484C104.341 174.153 104.155 173.663 104.155 173.012C104.155 172.287 104.416 171.732 104.939 171.348C105.472 170.953 106.325 170.756 107.499 170.756C107.968 170.756 108.411 170.793 108.827 170.868C109.243 170.932 109.595 171.012 109.883 171.108V172.884C109.595 172.745 109.264 172.644 108.891 172.58C108.517 172.505 108.171 172.468 107.851 172.468C107.392 172.468 107.024 172.5 106.747 172.564C106.48 172.628 106.347 172.767 106.347 172.98C106.347 173.215 106.491 173.38 106.779 173.476C107.077 173.572 107.536 173.716 108.155 173.908C108.763 174.089 109.237 174.287 109.579 174.5C109.92 174.713 110.16 174.969 110.299 175.268C110.437 175.556 110.507 175.919 110.507 176.356C110.507 177.892 109.387 178.66 107.147 178.66Z" fill="#1E293B"/>
<path d="M137 153.5H417C418.933 153.5 420.5 155.067 420.5 157V189C420.5 190.933 418.933 192.5 417 192.5H137C135.067 192.5 133.5 190.933 133.5 189V157C133.5 155.067 135.067 153.5 137 153.5Z" fill="white"/>
<path d="M137 153.5H417C418.933 153.5 420.5 155.067 420.5 157V189C420.5 190.933 418.933 192.5 417 192.5H137C135.067 192.5 133.5 190.933 133.5 189V157C133.5 155.067 135.067 153.5 137 153.5Z" stroke="#ECEDF1"/>
<path d="M273.946 175.368V174.008H280.058V175.368H273.946Z" fill="#A9ACB9"/>
<path d="M246 209.5H321C322.933 209.5 324.5 211.067 324.5 213V245C324.5 246.933 322.933 248.5 321 248.5H246C244.067 248.5 242.5 246.933 242.5 245V213C242.5 211.067 244.067 209.5 246 209.5Z" fill="white"/>
<path d="M246 209.5H321C322.933 209.5 324.5 211.067 324.5 213V245C324.5 246.933 322.933 248.5 321 248.5H246C244.067 248.5 242.5 246.933 242.5 245V213C242.5 211.067 244.067 209.5 246 209.5Z" stroke="#ECEDF1"/>
<g clip-path="url(#clip0_1416_11388)">
<path d="M265.317 234.66C263.621 234.66 262.335 234.196 261.461 233.268C260.597 232.34 260.165 231.087 260.165 229.508C260.165 228.377 260.346 227.407 260.709 226.596C261.082 225.775 261.647 225.145 262.405 224.708C263.162 224.26 264.127 224.036 265.301 224.036C265.898 224.036 266.442 224.084 266.933 224.18C267.434 224.265 267.898 224.383 268.325 224.532V226.052C267.898 225.881 267.439 225.753 266.949 225.668C266.469 225.572 265.962 225.524 265.429 225.524C264.149 225.524 263.242 225.865 262.709 226.548C262.186 227.231 261.925 228.217 261.925 229.508C261.925 230.713 262.213 231.631 262.789 232.26C263.365 232.879 264.255 233.188 265.461 233.188C265.951 233.188 266.442 233.151 266.933 233.076C267.434 232.991 267.903 232.863 268.341 232.692V234.228C267.914 234.367 267.45 234.473 266.949 234.548C266.458 234.623 265.914 234.66 265.317 234.66ZM272.399 234.66C271.919 234.66 271.471 234.575 271.055 234.404C270.65 234.233 270.325 233.977 270.079 233.636C269.834 233.284 269.711 232.852 269.711 232.34C269.711 231.615 269.957 231.033 270.447 230.596C270.949 230.148 271.717 229.924 272.751 229.924H275.183V229.588C275.183 229.225 275.125 228.937 275.007 228.724C274.901 228.511 274.698 228.356 274.399 228.26C274.111 228.164 273.685 228.116 273.119 228.116C272.223 228.116 271.386 228.249 270.607 228.516V227.22C270.949 227.081 271.365 226.969 271.855 226.884C272.346 226.799 272.874 226.756 273.439 226.756C274.549 226.756 275.391 226.98 275.967 227.428C276.554 227.876 276.847 228.607 276.847 229.62V234.5H275.359L275.247 233.732C274.938 234.031 274.554 234.26 274.095 234.42C273.647 234.58 273.082 234.66 272.399 234.66ZM272.863 233.412C273.386 233.412 273.839 233.327 274.223 233.156C274.618 232.975 274.938 232.735 275.183 232.436V231.108H272.783C272.271 231.108 271.898 231.209 271.663 231.412C271.439 231.604 271.327 231.903 271.327 232.308C271.327 232.703 271.461 232.985 271.727 233.156C271.994 233.327 272.373 233.412 272.863 233.412ZM278.781 234.5V226.916H280.381L280.461 227.716C280.803 227.449 281.208 227.225 281.677 227.044C282.157 226.852 282.685 226.756 283.261 226.756C284.243 226.756 284.957 226.985 285.405 227.444C285.853 227.903 286.077 228.617 286.077 229.588V234.5H284.349V229.668C284.349 229.081 284.227 228.671 283.981 228.436C283.747 228.201 283.299 228.084 282.637 228.084C282.243 228.084 281.853 228.164 281.469 228.324C281.096 228.484 280.781 228.692 280.525 228.948V234.5H278.781ZM291.603 234.66C290.27 234.66 289.262 234.324 288.579 233.652C287.897 232.969 287.555 231.988 287.555 230.708C287.555 229.375 287.929 228.383 288.675 227.732C289.433 227.081 290.441 226.756 291.699 226.756C292.222 226.756 292.659 226.793 293.011 226.868C293.374 226.943 293.721 227.06 294.051 227.22V228.516C293.497 228.239 292.825 228.1 292.035 228.1C291.161 228.1 290.489 228.297 290.019 228.692C289.55 229.076 289.315 229.748 289.315 230.708C289.315 231.615 289.523 232.281 289.939 232.708C290.355 233.124 291.043 233.332 292.003 233.332C292.761 233.332 293.449 233.188 294.067 232.9V234.228C293.715 234.367 293.337 234.473 292.931 234.548C292.537 234.623 292.094 234.66 291.603 234.66ZM299.293 234.66C297.971 234.66 296.947 234.335 296.221 233.684C295.496 233.033 295.133 232.036 295.133 230.692C295.133 229.476 295.443 228.516 296.061 227.812C296.68 227.108 297.619 226.756 298.877 226.756C300.029 226.756 300.893 227.06 301.469 227.668C302.056 228.265 302.349 229.039 302.349 229.988V231.396H296.797C296.883 232.132 297.149 232.639 297.597 232.916C298.045 233.193 298.728 233.332 299.645 233.332C300.029 233.332 300.424 233.295 300.829 233.22C301.235 233.145 301.587 233.049 301.885 232.932V234.212C301.544 234.361 301.149 234.473 300.701 234.548C300.264 234.623 299.795 234.66 299.293 234.66ZM296.797 230.26H300.813V229.732C300.813 229.209 300.669 228.804 300.381 228.516C300.093 228.217 299.608 228.068 298.925 228.068C298.115 228.068 297.555 228.244 297.245 228.596C296.947 228.948 296.797 229.503 296.797 230.26ZM305.935 234.66C305.316 234.66 304.847 234.511 304.527 234.212C304.207 233.903 304.047 233.396 304.047 232.692V223.716H305.791V232.532C305.791 232.831 305.844 233.033 305.951 233.14C306.058 233.247 306.218 233.3 306.431 233.3C306.687 233.3 306.932 233.268 307.167 233.204V234.468C306.964 234.543 306.767 234.591 306.575 234.612C306.394 234.644 306.18 234.66 305.935 234.66Z" fill="#A9ACB9"/>
</g>
<path d="M333 213C333 210.791 334.791 209 337 209H417C419.209 209 421 210.791 421 213V245C421 247.209 419.209 249 417 249H337C334.791 249 333 247.209 333 245V213Z" fill="#1E293B"/>
<g clip-path="url(#clip1_1416_11388)">
<path d="M354.848 234.66C353.152 234.66 351.866 234.196 350.992 233.268C350.128 232.34 349.696 231.087 349.696 229.508C349.696 228.377 349.877 227.407 350.24 226.596C350.613 225.775 351.178 225.145 351.936 224.708C352.693 224.26 353.658 224.036 354.832 224.036C355.429 224.036 355.973 224.084 356.464 224.18C356.965 224.265 357.429 224.383 357.856 224.532V226.052C357.429 225.881 356.97 225.753 356.48 225.668C356 225.572 355.493 225.524 354.96 225.524C353.68 225.524 352.773 225.865 352.24 226.548C351.717 227.231 351.456 228.217 351.456 229.508C351.456 230.713 351.744 231.631 352.32 232.26C352.896 232.879 353.786 233.188 354.992 233.188C355.482 233.188 355.973 233.151 356.464 233.076C356.965 232.991 357.434 232.863 357.872 232.692V234.228C357.445 234.367 356.981 234.473 356.48 234.548C355.989 234.623 355.445 234.66 354.848 234.66ZM363.148 234.66C361.782 234.66 360.78 234.319 360.14 233.636C359.51 232.953 359.196 231.977 359.196 230.708C359.196 229.439 359.516 228.463 360.156 227.78C360.796 227.097 361.793 226.756 363.148 226.756C364.513 226.756 365.516 227.097 366.156 227.78C366.796 228.463 367.116 229.439 367.116 230.708C367.116 231.977 366.796 232.953 366.156 233.636C365.526 234.319 364.524 234.66 363.148 234.66ZM363.148 233.188C363.948 233.188 364.513 232.996 364.844 232.612C365.185 232.217 365.356 231.583 365.356 230.708C365.356 229.833 365.185 229.204 364.844 228.82C364.513 228.436 363.948 228.244 363.148 228.244C362.358 228.244 361.793 228.436 361.452 228.82C361.121 229.204 360.956 229.833 360.956 230.708C360.956 231.583 361.121 232.217 361.452 232.612C361.793 232.996 362.358 233.188 363.148 233.188ZM368.813 234.5V226.916H370.413L370.493 227.716C370.834 227.449 371.239 227.225 371.709 227.044C372.189 226.852 372.717 226.756 373.293 226.756C374.274 226.756 374.989 226.985 375.437 227.444C375.885 227.903 376.109 228.617 376.109 229.588V234.5H374.381V229.668C374.381 229.081 374.258 228.671 374.013 228.436C373.778 228.201 373.33 228.084 372.669 228.084C372.274 228.084 371.885 228.164 371.501 228.324C371.127 228.484 370.813 228.692 370.557 228.948V234.5H368.813ZM378.527 234.5V228.276H377.423V226.916H378.527V226.132C378.527 225.609 378.649 225.151 378.895 224.756C379.151 224.351 379.503 224.036 379.951 223.812C380.409 223.577 380.943 223.46 381.551 223.46C381.924 223.46 382.276 223.487 382.607 223.54C382.937 223.583 383.209 223.647 383.423 223.732V225.028C383.284 224.964 383.081 224.916 382.815 224.884C382.548 224.852 382.297 224.836 382.063 224.836C381.444 224.836 380.985 224.943 380.687 225.156C380.399 225.369 380.255 225.705 380.255 226.164V226.916H384.527V234.5H382.783V228.276H380.255V234.5H378.527ZM386.547 234.5V226.916H388.147L388.243 227.796C388.606 227.561 389.038 227.348 389.539 227.156C390.04 226.964 390.536 226.831 391.027 226.756V228.084C390.728 228.137 390.403 228.217 390.051 228.324C389.71 228.42 389.384 228.532 389.075 228.66C388.766 228.777 388.504 228.9 388.291 229.028V234.5H386.547ZM392.297 234.5V226.916H393.897L393.977 227.716C394.35 227.417 394.761 227.183 395.209 227.012C395.657 226.841 396.137 226.756 396.649 226.756C397.193 226.756 397.614 226.847 397.913 227.028C398.222 227.199 398.457 227.439 398.617 227.748C398.969 227.46 399.374 227.225 399.833 227.044C400.292 226.852 400.841 226.756 401.481 226.756C402.356 226.756 403.001 226.98 403.417 227.428C403.833 227.876 404.041 228.564 404.041 229.492V234.5H402.329V229.668C402.329 229.081 402.206 228.671 401.961 228.436C401.716 228.201 401.316 228.084 400.761 228.084C400.398 228.084 400.052 228.148 399.721 228.276C399.401 228.404 399.124 228.596 398.889 228.852C398.921 228.969 398.942 229.092 398.953 229.22C398.964 229.348 398.969 229.487 398.969 229.636V234.5H397.353V229.684C397.353 229.129 397.257 228.724 397.065 228.468C396.873 228.212 396.51 228.084 395.977 228.084C395.604 228.084 395.246 228.175 394.905 228.356C394.574 228.527 394.276 228.735 394.009 228.98V234.5H392.297Z" fill="white"/>
</g>
</g>
<defs>
<filter id="filter0_d_1416_11388" x="0" y="0" width="490" height="330" filterUnits="userSpaceOnUse" color-interpolation-filters="sRGB">
<feFlood flood-opacity="0" result="BackgroundImageFix"/>
<feColorMatrix in="SourceAlpha" type="matrix" values="0 0 0 0 0 0 0 0 0 0 0 0 0 0 0 0 0 0 127 0" result="hardAlpha"/>
<feMorphology radius="3" operator="erode" in="SourceAlpha" result="effect1_dropShadow_1416_11388"/>
<feOffset dy="12"/>
<feGaussianBlur stdDeviation="12"/>
<feComposite in2="hardAlpha" operator="out"/>
<feColorMatrix type="matrix" values="0 0 0 0 0.213156 0 0 0 0 0.307035 0 0 0 0 0.509615 0 0 0 0.2 0"/>
<feBlend mode="normal" in2="BackgroundImageFix" result="effect1_dropShadow_1416_11388"/>
<feBlend mode="normal" in="SourceGraphic" in2="effect1_dropShadow_1416_11388" result="shape"/>
</filter>
<clipPath id="clip0_1416_11388">
<rect width="49" height="19" fill="white" transform="translate(259 219.5)"/>
</clipPath>
<clipPath id="clip1_1416_11388">
<rect width="56" height="19" fill="white" transform="translate(349 219.5)"/>
</clipPath>
</defs>
</svg>
