<svg width="442" height="233" viewBox="0 0 442 233" fill="none" xmlns="http://www.w3.org/2000/svg">
<rect x="0.5" y="7.5" width="441" height="225" stroke="#ECEDF1"/>
<rect width="440" height="32" transform="translate(1 8)" fill="#394151"/>
<path d="M21 30C20.7167 30 20.4793 29.904 20.288 29.712C20.0967 29.52 20.0007 29.2827 20 29C19.9993 28.7173 20.0953 28.48 20.288 28.288C20.4807 28.096 20.718 28 21 28H37C37.2833 28 37.521 28.096 37.713 28.288C37.905 28.48 38.0007 28.7173 38 29C37.9993 29.2827 37.9033 29.5203 37.712 29.713C37.5207 29.9057 37.2833 30.0013 37 30H21ZM21 25C20.7167 25 20.4793 24.904 20.288 24.712C20.0967 24.52 20.0007 24.2827 20 24C19.9993 23.7173 20.0953 23.48 20.288 23.288C20.4807 23.096 20.718 23 21 23H37C37.2833 23 37.521 23.096 37.713 23.288C37.905 23.48 38.0007 23.7173 38 24C37.9993 24.2827 37.9033 24.5203 37.712 24.713C37.5207 24.9057 37.2833 25.0013 37 25H21ZM21 20C20.7167 20 20.4793 19.904 20.288 19.712C20.0967 19.52 20.0007 19.2827 20 19C19.9993 18.7173 20.0953 18.48 20.288 18.288C20.4807 18.096 20.718 18 21 18H37C37.2833 18 37.521 18.096 37.713 18.288C37.905 18.48 38.0007 18.7173 38 19C37.9993 19.2827 37.9033 19.5203 37.712 19.713C37.5207 19.9057 37.2833 20.0013 37 20H21Z" fill="white"/>
<path d="M67.674 31.408C66.9647 31.408 66.4467 31.2073 66.12 30.806C65.7933 30.4047 65.6207 29.8353 65.602 29.098C64.4353 28.9673 63.558 28.5333 62.97 27.796C62.3913 27.0493 62.102 25.9573 62.102 24.52C62.102 22.8773 62.4567 21.6873 63.166 20.95C63.8753 20.2127 64.944 19.844 66.372 19.844C67.8093 19.844 68.878 20.2127 69.578 20.95C70.2873 21.6873 70.642 22.8773 70.642 24.52C70.642 25.9853 70.334 27.0913 69.718 27.838C69.1113 28.5847 68.192 29.0093 66.96 29.112C66.9693 29.5413 67.0487 29.8353 67.198 29.994C67.3567 30.162 67.6227 30.246 67.996 30.246C68.332 30.246 68.6633 30.1993 68.99 30.106V31.24C68.8407 31.2867 68.6447 31.324 68.402 31.352C68.1593 31.3893 67.9167 31.408 67.674 31.408ZM66.372 27.852C67.3147 27.852 68.0053 27.5953 68.444 27.082C68.892 26.5593 69.116 25.7053 69.116 24.52C69.116 23.2693 68.892 22.3967 68.444 21.902C68.0053 21.398 67.3147 21.146 66.372 21.146C65.4387 21.146 64.748 21.398 64.3 21.902C63.8613 22.3967 63.642 23.2693 63.642 24.52C63.642 25.7053 63.8613 26.5593 64.3 27.082C64.748 27.5953 65.4387 27.852 66.372 27.852ZM74.6777 29.14C73.9684 29.14 73.4364 28.9533 73.0817 28.58C72.7364 28.1973 72.5637 27.6793 72.5637 27.026V23.554H71.5837V22.364H72.5637V20.838L74.0757 20.376V22.364H75.8397L75.7417 23.554H74.0757V26.942C74.0757 27.3247 74.1644 27.5953 74.3417 27.754C74.5191 27.9033 74.8084 27.978 75.2097 27.978C75.4617 27.978 75.7277 27.9313 76.0077 27.838V28.916C75.6437 29.0653 75.2004 29.14 74.6777 29.14ZM78.0441 31.464C77.5401 31.464 77.1107 31.3987 76.7561 31.268V30.134C76.9147 30.19 77.0594 30.2273 77.1901 30.246C77.3301 30.2647 77.4701 30.274 77.6101 30.274C77.8994 30.274 78.1327 30.2273 78.3101 30.134C78.4874 30.0407 78.6414 29.8913 78.7721 29.686C78.9121 29.49 79.0614 29.2333 79.2201 28.916L76.2661 22.364H77.8481L79.9761 27.292L82.1321 22.364H83.7001L80.9981 28.622C80.7647 29.182 80.5127 29.672 80.2421 30.092C79.9807 30.5213 79.6727 30.8573 79.3181 31.1C78.9727 31.3427 78.5481 31.464 78.0441 31.464Z" fill="white"/>
<path d="M110.872 29.14C109.444 29.14 108.375 28.7667 107.666 28.02C106.957 27.264 106.602 26.0973 106.602 24.52C106.602 22.8773 106.957 21.6873 107.666 20.95C108.375 20.2127 109.444 19.844 110.872 19.844C112.309 19.844 113.378 20.2127 114.078 20.95C114.787 21.6873 115.142 22.8773 115.142 24.52C115.142 26.0973 114.787 27.264 114.078 28.02C113.378 28.7667 112.309 29.14 110.872 29.14ZM110.872 27.852C111.815 27.852 112.505 27.5953 112.944 27.082C113.392 26.5593 113.616 25.7053 113.616 24.52C113.616 23.2693 113.392 22.3967 112.944 21.902C112.505 21.398 111.815 21.146 110.872 21.146C109.939 21.146 109.248 21.398 108.8 21.902C108.361 22.3967 108.142 23.2693 108.142 24.52C108.142 25.7053 108.361 26.5593 108.8 27.082C109.248 27.5953 109.939 27.852 110.872 27.852ZM118.831 29V21.174H115.947V19.984H123.227V21.174H120.357V29H118.831ZM126.079 29L123.979 19.984H125.477L127.003 26.746L128.711 21.076V19.984H129.957L131.875 26.746L133.429 19.984H134.913L132.827 29H131.329L129.523 22.686L127.605 29H126.079Z" fill="white"/>
<path d="M156.22 29V21.174H153.336V19.984H160.616V21.174H157.746V29H156.22ZM163.691 29.14C162.496 29.14 161.619 28.8413 161.059 28.244C160.508 27.6467 160.233 26.7927 160.233 25.682C160.233 24.5713 160.513 23.7173 161.073 23.12C161.633 22.5227 162.506 22.224 163.691 22.224C164.886 22.224 165.763 22.5227 166.323 23.12C166.883 23.7173 167.163 24.5713 167.163 25.682C167.163 26.7927 166.883 27.6467 166.323 28.244C165.772 28.8413 164.895 29.14 163.691 29.14ZM163.691 27.852C164.391 27.852 164.886 27.684 165.175 27.348C165.474 27.0027 165.623 26.4473 165.623 25.682C165.623 24.9167 165.474 24.366 165.175 24.03C164.886 23.694 164.391 23.526 163.691 23.526C163 23.526 162.506 23.694 162.207 24.03C161.918 24.366 161.773 24.9167 161.773 25.682C161.773 26.4473 161.918 27.0027 162.207 27.348C162.506 27.684 163 27.852 163.691 27.852ZM171.182 29.14C170.472 29.14 169.94 28.9533 169.586 28.58C169.24 28.1973 169.068 27.6793 169.068 27.026V23.554H168.088V22.364H169.068V20.838L170.58 20.376V22.364H172.344L172.246 23.554H170.58V26.942C170.58 27.3247 170.668 27.5953 170.846 27.754C171.023 27.9033 171.312 27.978 171.714 27.978C171.966 27.978 172.232 27.9313 172.512 27.838V28.916C172.148 29.0653 171.704 29.14 171.182 29.14ZM175.751 29.14C175.331 29.14 174.939 29.0653 174.575 28.916C174.22 28.7667 173.936 28.5427 173.721 28.244C173.506 27.936 173.399 27.558 173.399 27.11C173.399 26.4753 173.614 25.9667 174.043 25.584C174.482 25.192 175.154 24.996 176.059 24.996H178.187V24.702C178.187 24.3847 178.136 24.1327 178.033 23.946C177.94 23.7593 177.762 23.624 177.501 23.54C177.249 23.456 176.876 23.414 176.381 23.414C175.597 23.414 174.864 23.5307 174.183 23.764V22.63C174.482 22.5087 174.846 22.4107 175.275 22.336C175.704 22.2613 176.166 22.224 176.661 22.224C177.632 22.224 178.369 22.42 178.873 22.812C179.386 23.204 179.643 23.8433 179.643 24.73V29H178.341L178.243 28.328C177.972 28.5893 177.636 28.79 177.235 28.93C176.843 29.07 176.348 29.14 175.751 29.14ZM176.157 28.048C176.614 28.048 177.011 27.9733 177.347 27.824C177.692 27.6653 177.972 27.4553 178.187 27.194V26.032H176.087C175.639 26.032 175.312 26.1207 175.107 26.298C174.911 26.466 174.813 26.7273 174.813 27.082C174.813 27.4273 174.93 27.6747 175.163 27.824C175.396 27.9733 175.728 28.048 176.157 28.048ZM182.987 29.14C182.446 29.14 182.035 29.0093 181.755 28.748C181.475 28.4773 181.335 28.034 181.335 27.418V19.564H182.861V27.278C182.861 27.5393 182.908 27.7167 183.001 27.81C183.094 27.9033 183.234 27.95 183.421 27.95C183.645 27.95 183.86 27.922 184.065 27.866V28.972C183.888 29.0373 183.715 29.0793 183.547 29.098C183.388 29.126 183.202 29.14 182.987 29.14Z" fill="white"/>
<path d="M205.406 21V11.984H206.932V19.824H211.552V21H205.406ZM215.584 21.14C214.39 21.14 213.512 20.8413 212.952 20.244C212.402 19.6467 212.126 18.7927 212.126 17.682C212.126 16.5713 212.406 15.7173 212.966 15.12C213.526 14.5227 214.399 14.224 215.584 14.224C216.779 14.224 217.656 14.5227 218.216 15.12C218.776 15.7173 219.056 16.5713 219.056 17.682C219.056 18.7927 218.776 19.6467 218.216 20.244C217.666 20.8413 216.788 21.14 215.584 21.14ZM215.584 19.852C216.284 19.852 216.779 19.684 217.068 19.348C217.367 19.0027 217.516 18.4473 217.516 17.682C217.516 16.9167 217.367 16.366 217.068 16.03C216.779 15.694 216.284 15.526 215.584 15.526C214.894 15.526 214.399 15.694 214.1 16.03C213.811 16.366 213.666 16.9167 213.666 17.682C213.666 18.4473 213.811 19.0027 214.1 19.348C214.399 19.684 214.894 19.852 215.584 19.852ZM221.382 21L219.632 14.364H221.158L222.306 19.194L223.608 15.176V14.364H224.77L226.212 19.194L227.36 14.364H228.872L227.136 21H225.694L224.28 16.66L222.838 21H221.382ZM203.174 37.14C202.007 37.14 201.069 36.9907 200.36 36.692V35.348C200.761 35.4973 201.19 35.6187 201.648 35.712C202.114 35.8053 202.576 35.852 203.034 35.852C203.752 35.852 204.289 35.768 204.644 35.6C205.008 35.432 205.19 35.096 205.19 34.592C205.19 34.284 205.115 34.0367 204.966 33.85C204.816 33.6633 204.569 33.5047 204.224 33.374C203.878 33.234 203.402 33.0893 202.796 32.94C201.825 32.688 201.144 32.3707 200.752 31.988C200.36 31.596 200.164 31.0593 200.164 30.378C200.164 29.5847 200.453 28.964 201.032 28.516C201.61 28.068 202.474 27.844 203.622 27.844C204.144 27.844 204.634 27.8813 205.092 27.956C205.558 28.0307 205.922 28.1147 206.184 28.208V29.552C205.474 29.2813 204.69 29.146 203.832 29.146C203.16 29.146 202.637 29.2347 202.264 29.412C201.89 29.5893 201.704 29.9113 201.704 30.378C201.704 30.6487 201.769 30.868 201.9 31.036C202.03 31.204 202.254 31.3487 202.572 31.47C202.898 31.5913 203.346 31.7267 203.916 31.876C204.653 32.0627 205.222 32.2867 205.624 32.548C206.034 32.8 206.319 33.0987 206.478 33.444C206.646 33.78 206.73 34.1627 206.73 34.592C206.73 35.3853 206.436 36.0107 205.848 36.468C205.26 36.916 204.368 37.14 203.174 37.14ZM210.538 37.14C209.829 37.14 209.297 36.9533 208.942 36.58C208.597 36.1973 208.424 35.6793 208.424 35.026V31.554H207.444V30.364H208.424V28.838L209.936 28.376V30.364H211.7L211.602 31.554H209.936V34.942C209.936 35.3247 210.025 35.5953 210.202 35.754C210.379 35.9033 210.669 35.978 211.07 35.978C211.322 35.978 211.588 35.9313 211.868 35.838V36.916C211.504 37.0653 211.061 37.14 210.538 37.14ZM216.213 37.14C215.019 37.14 214.141 36.8413 213.581 36.244C213.031 35.6467 212.755 34.7927 212.755 33.682C212.755 32.5713 213.035 31.7173 213.595 31.12C214.155 30.5227 215.028 30.224 216.213 30.224C217.408 30.224 218.285 30.5227 218.845 31.12C219.405 31.7173 219.685 32.5713 219.685 33.682C219.685 34.7927 219.405 35.6467 218.845 36.244C218.295 36.8413 217.417 37.14 216.213 37.14ZM216.213 35.852C216.913 35.852 217.408 35.684 217.697 35.348C217.996 35.0027 218.145 34.4473 218.145 33.682C218.145 32.9167 217.996 32.366 217.697 32.03C217.408 31.694 216.913 31.526 216.213 31.526C215.523 31.526 215.028 31.694 214.729 32.03C214.44 32.366 214.295 32.9167 214.295 33.682C214.295 34.4473 214.44 35.0027 214.729 35.348C215.028 35.684 215.523 35.852 216.213 35.852ZM224.432 37.14C223.265 37.14 222.383 36.846 221.786 36.258C221.189 35.6607 220.89 34.802 220.89 33.682C220.89 32.5153 221.217 31.6473 221.87 31.078C222.533 30.5087 223.415 30.224 224.516 30.224C224.973 30.224 225.356 30.2567 225.664 30.322C225.981 30.3873 226.285 30.49 226.574 30.63V31.764C226.089 31.5213 225.501 31.4 224.81 31.4C224.045 31.4 223.457 31.5727 223.046 31.918C222.635 32.254 222.43 32.842 222.43 33.682C222.43 34.4753 222.612 35.0587 222.976 35.432C223.34 35.796 223.942 35.978 224.782 35.978C225.445 35.978 226.047 35.852 226.588 35.6V36.762C226.28 36.8833 225.949 36.9767 225.594 37.042C225.249 37.1073 224.861 37.14 224.432 37.14ZM227.801 37V27.564H229.327V33.024L232.113 30.364H233.863L231.161 33.038L234.017 37H232.407L230.209 33.85L229.327 34.69V37H227.801Z" fill="white"/>
<path d="M266.232 29.14C264.991 29.14 264.025 28.8413 263.334 28.244C262.653 27.6467 262.312 26.7833 262.312 25.654V19.984H263.838V25.598C263.838 26.354 264.043 26.9187 264.454 27.292C264.874 27.6653 265.467 27.852 266.232 27.852C266.988 27.852 267.571 27.6653 267.982 27.292C268.402 26.9187 268.612 26.354 268.612 25.598V19.984H270.124V25.654C270.124 26.7833 269.783 27.6467 269.102 28.244C268.421 28.8413 267.464 29.14 266.232 29.14ZM271.816 32.024V22.364H273.132L273.216 23.022C273.514 22.7513 273.841 22.5507 274.196 22.42C274.55 22.2893 274.97 22.224 275.456 22.224C276.408 22.224 277.15 22.4853 277.682 23.008C278.214 23.5213 278.48 24.3753 278.48 25.57C278.48 26.7647 278.204 27.6607 277.654 28.258C277.103 28.846 276.352 29.14 275.4 29.14C274.597 29.14 273.911 28.9533 273.342 28.58V32.024H271.816ZM275.008 27.992C276.296 27.992 276.94 27.18 276.94 25.556C276.94 24.772 276.795 24.2167 276.506 23.89C276.216 23.554 275.731 23.386 275.05 23.386C274.368 23.386 273.799 23.6193 273.342 24.086V27.404C273.556 27.5813 273.794 27.726 274.056 27.838C274.326 27.9407 274.644 27.992 275.008 27.992ZM282.708 29.14C282.111 29.14 281.583 29.0373 281.126 28.832C280.669 28.6267 280.314 28.286 280.062 27.81C279.81 27.334 279.684 26.6947 279.684 25.892C279.684 25.0987 279.819 24.4313 280.09 23.89C280.361 23.3393 280.734 22.924 281.21 22.644C281.695 22.364 282.241 22.224 282.848 22.224C283.249 22.224 283.604 22.2707 283.912 22.364C284.229 22.4573 284.533 22.602 284.822 22.798V19.564H286.348V29H285.046L284.948 28.342C284.649 28.6127 284.323 28.8133 283.968 28.944C283.613 29.0747 283.193 29.14 282.708 29.14ZM283.114 27.992C283.795 27.992 284.365 27.7587 284.822 27.292V23.974C284.383 23.582 283.833 23.386 283.17 23.386C282.526 23.386 282.041 23.6007 281.714 24.03C281.387 24.4593 281.224 25.0847 281.224 25.906C281.224 26.6993 281.373 27.2453 281.672 27.544C281.98 27.8427 282.461 27.992 283.114 27.992ZM290.116 29.14C289.696 29.14 289.304 29.0653 288.94 28.916C288.585 28.7667 288.301 28.5427 288.086 28.244C287.871 27.936 287.764 27.558 287.764 27.11C287.764 26.4753 287.979 25.9667 288.408 25.584C288.847 25.192 289.519 24.996 290.424 24.996H292.552V24.702C292.552 24.3847 292.501 24.1327 292.398 23.946C292.305 23.7593 292.127 23.624 291.866 23.54C291.614 23.456 291.241 23.414 290.746 23.414C289.962 23.414 289.229 23.5307 288.548 23.764V22.63C288.847 22.5087 289.211 22.4107 289.64 22.336C290.069 22.2613 290.531 22.224 291.026 22.224C291.997 22.224 292.734 22.42 293.238 22.812C293.751 23.204 294.008 23.8433 294.008 24.73V29H292.706L292.608 28.328C292.337 28.5893 292.001 28.79 291.6 28.93C291.208 29.07 290.713 29.14 290.116 29.14ZM290.522 28.048C290.979 28.048 291.376 27.9733 291.712 27.824C292.057 27.6653 292.337 27.4553 292.552 27.194V26.032H290.452C290.004 26.032 289.677 26.1207 289.472 26.298C289.276 26.466 289.178 26.7273 289.178 27.082C289.178 27.4273 289.295 27.6747 289.528 27.824C289.761 27.9733 290.093 28.048 290.522 28.048ZM298.234 29.14C297.525 29.14 296.993 28.9533 296.638 28.58C296.293 28.1973 296.12 27.6793 296.12 27.026V23.554H295.14V22.364H296.12V20.838L297.632 20.376V22.364H299.396L299.298 23.554H297.632V26.942C297.632 27.3247 297.721 27.5953 297.898 27.754C298.076 27.9033 298.365 27.978 298.766 27.978C299.018 27.978 299.284 27.9313 299.564 27.838V28.916C299.2 29.0653 298.757 29.14 298.234 29.14ZM304.092 29.14C302.934 29.14 302.038 28.8553 301.404 28.286C300.769 27.7167 300.452 26.844 300.452 25.668C300.452 24.604 300.722 23.764 301.264 23.148C301.805 22.532 302.626 22.224 303.728 22.224C304.736 22.224 305.492 22.49 305.996 23.022C306.509 23.5447 306.766 24.2213 306.766 25.052V26.284H301.908C301.982 26.928 302.216 27.3713 302.608 27.614C303 27.8567 303.597 27.978 304.4 27.978C304.736 27.978 305.081 27.9453 305.436 27.88C305.79 27.8147 306.098 27.7307 306.36 27.628V28.748C306.061 28.8787 305.716 28.9767 305.324 29.042C304.941 29.1073 304.53 29.14 304.092 29.14ZM301.908 25.29H305.422V24.828C305.422 24.3707 305.296 24.016 305.044 23.764C304.792 23.5027 304.367 23.372 303.77 23.372C303.06 23.372 302.57 23.526 302.3 23.834C302.038 24.142 301.908 24.6273 301.908 25.29ZM310.995 29.14C310.398 29.14 309.87 29.0373 309.413 28.832C308.956 28.6267 308.601 28.286 308.349 27.81C308.097 27.334 307.971 26.6947 307.971 25.892C307.971 25.0987 308.106 24.4313 308.377 23.89C308.648 23.3393 309.021 22.924 309.497 22.644C309.982 22.364 310.528 22.224 311.135 22.224C311.536 22.224 311.891 22.2707 312.199 22.364C312.516 22.4573 312.82 22.602 313.109 22.798V19.564H314.635V29H313.333L313.235 28.342C312.936 28.6127 312.61 28.8133 312.255 28.944C311.9 29.0747 311.48 29.14 310.995 29.14ZM311.401 27.992C312.082 27.992 312.652 27.7587 313.109 27.292V23.974C312.67 23.582 312.12 23.386 311.457 23.386C310.813 23.386 310.328 23.6007 310.001 24.03C309.674 24.4593 309.511 25.0847 309.511 25.906C309.511 26.6993 309.66 27.2453 309.959 27.544C310.267 27.8427 310.748 27.992 311.401 27.992Z" fill="white"/>
<rect x="351.5" y="12" width="75" height="24" rx="4" fill="#1E293B"/>
<path d="M360.382 29V19.984H361.908V23.904H366.248V19.984H367.774V29H366.248V25.08H361.908V29H360.382ZM369.747 20.978V19.718H371.413V20.978H369.747ZM369.873 29V23.526H368.865L369.005 22.364H371.399V29H369.873ZM375.923 29.14C375.326 29.14 374.798 29.0373 374.341 28.832C373.884 28.6267 373.529 28.286 373.277 27.81C373.025 27.334 372.899 26.6947 372.899 25.892C372.899 25.0987 373.034 24.4313 373.305 23.89C373.576 23.3393 373.949 22.924 374.425 22.644C374.91 22.364 375.456 22.224 376.063 22.224C376.464 22.224 376.819 22.2707 377.127 22.364C377.444 22.4573 377.748 22.602 378.037 22.798V19.564H379.563V29H378.261L378.163 28.342C377.864 28.6127 377.538 28.8133 377.183 28.944C376.828 29.0747 376.408 29.14 375.923 29.14ZM376.329 27.992C377.01 27.992 377.58 27.7587 378.037 27.292V23.974C377.598 23.582 377.048 23.386 376.385 23.386C375.741 23.386 375.256 23.6007 374.929 24.03C374.602 24.4593 374.439 25.0847 374.439 25.906C374.439 26.6993 374.588 27.2453 374.887 27.544C375.195 27.8427 375.676 27.992 376.329 27.992ZM384.551 29.14C383.393 29.14 382.497 28.8553 381.863 28.286C381.228 27.7167 380.911 26.844 380.911 25.668C380.911 24.604 381.181 23.764 381.723 23.148C382.264 22.532 383.085 22.224 384.187 22.224C385.195 22.224 385.951 22.49 386.455 23.022C386.968 23.5447 387.225 24.2213 387.225 25.052V26.284H382.367C382.441 26.928 382.675 27.3713 383.067 27.614C383.459 27.8567 384.056 27.978 384.859 27.978C385.195 27.978 385.54 27.9453 385.895 27.88C386.249 27.8147 386.557 27.7307 386.819 27.628V28.748C386.52 28.8787 386.175 28.9767 385.783 29.042C385.4 29.1073 384.989 29.14 384.551 29.14ZM382.367 25.29H385.881V24.828C385.881 24.3707 385.755 24.016 385.503 23.764C385.251 23.5027 384.826 23.372 384.229 23.372C383.519 23.372 383.029 23.526 382.759 23.834C382.497 24.142 382.367 24.6273 382.367 25.29ZM395.787 29.14C394.545 29.14 393.579 28.8413 392.889 28.244C392.207 27.6467 391.867 26.7833 391.867 25.654V19.984H393.393V25.598C393.393 26.354 393.598 26.9187 394.009 27.292C394.429 27.6653 395.021 27.852 395.787 27.852C396.543 27.852 397.126 27.6653 397.537 27.292C397.957 26.9187 398.167 26.354 398.167 25.598V19.984H399.679V25.654C399.679 26.7833 399.338 27.6467 398.657 28.244C397.975 28.8413 397.019 29.14 395.787 29.14ZM401.37 29V22.364H402.77L402.84 23.064C403.139 22.8307 403.494 22.6347 403.904 22.476C404.324 22.308 404.786 22.224 405.29 22.224C406.149 22.224 406.774 22.4247 407.166 22.826C407.558 23.2273 407.754 23.8527 407.754 24.702V29H406.242V24.772C406.242 24.2587 406.135 23.8993 405.92 23.694C405.715 23.4887 405.323 23.386 404.744 23.386C404.399 23.386 404.058 23.456 403.722 23.596C403.396 23.736 403.12 23.918 402.896 24.142V29H401.37ZM410.024 20.978V19.718H411.69V20.978H410.024ZM410.15 29V23.526H409.142L409.282 22.364H411.676V29H410.15ZM415.99 29.14C415.281 29.14 414.749 28.9533 414.394 28.58C414.049 28.1973 413.876 27.6793 413.876 27.026V23.554H412.896V22.364H413.876V20.838L415.388 20.376V22.364H417.152L417.054 23.554H415.388V26.942C415.388 27.3247 415.477 27.5953 415.654 27.754C415.832 27.9033 416.121 27.978 416.522 27.978C416.774 27.978 417.04 27.9313 417.32 27.838V28.916C416.956 29.0653 416.513 29.14 415.99 29.14Z" fill="white"/>
<mask id="path-10-inside-1_2563_26075" fill="white">
<path d="M1 40H441V88H1V40Z"/>
</mask>
<path d="M1 40H441V88H1V40Z" fill="white"/>
<path d="M441 88V87H1V88V89H441V88Z" fill="#ECEDF1" mask="url(#path-10-inside-1_2563_26075)"/>
<path d="M21.912 69.5V59.196H24.072V67.836H29.144V69.5H21.912ZM30.0139 69.5L33.9499 59.196H36.3179L40.2379 69.5H37.9979L37.0219 67.02H33.2299L32.2699 69.5H30.0139ZM33.5499 65.356H36.7019L35.1179 61.212L33.5499 65.356Z" fill="#1E293B"/>
<path d="M345 56C345 53.7909 346.791 52 349 52H365C367.209 52 369 53.7909 369 56V72C369 74.2091 367.209 76 365 76H349C346.791 76 345 74.2091 345 72V56Z" fill="#F3F4F7"/>
<path d="M363.857 65.1429H358.143V70.8571C358.143 71.1602 358.022 71.4509 357.808 71.6653C357.594 71.8796 357.303 72 357 72C356.697 72 356.406 71.8796 356.192 71.6653C355.978 71.4509 355.857 71.1602 355.857 70.8571V65.1429H350.143C349.84 65.1429 349.549 65.0224 349.335 64.8081C349.12 64.5938 349 64.3031 349 64C349 63.6969 349.12 63.4062 349.335 63.1919C349.549 62.9776 349.84 62.8571 350.143 62.8571H355.857V57.1429C355.857 56.8398 355.978 56.5491 356.192 56.3347C356.406 56.1204 356.697 56 357 56C357.303 56 357.594 56.1204 357.808 56.3347C358.022 56.5491 358.143 56.8398 358.143 57.1429V62.8571H363.857C364.16 62.8571 364.451 62.9776 364.665 63.1919C364.88 63.4062 365 63.6969 365 64C365 64.3031 364.88 64.5938 364.665 64.8081C364.451 65.0224 364.16 65.1429 363.857 65.1429Z" fill="#A9ACB9"/>
<path d="M377 56C377 53.7909 378.791 52 381 52H397C399.209 52 401 53.7909 401 56V72C401 74.2091 399.209 76 397 76H381C378.791 76 377 74.2091 377 72V56Z" fill="#F3F4F7"/>
<path d="M395 65H383C382.735 65 382.48 64.8946 382.293 64.7071C382.105 64.5196 382 64.2652 382 64C382 63.7348 382.105 63.4804 382.293 63.2929C382.48 63.1054 382.735 63 383 63H395C395.265 63 395.52 63.1054 395.707 63.2929C395.895 63.4804 396 63.7348 396 64C396 64.2652 395.895 64.5196 395.707 64.7071C395.52 64.8946 395.265 65 395 65Z" fill="#A9ACB9"/>
<path d="M409 56C409 53.7909 410.791 52 413 52H429C431.209 52 433 53.7909 433 56V72C433 74.2091 431.209 76 429 76H413C410.791 76 409 74.2091 409 72V56Z" fill="#F3F4F7"/>
<path d="M427.857 62H414.143C413.84 62 413.549 61.8946 413.335 61.7071C413.12 61.5196 413 61.2652 413 61C413 60.7348 413.12 60.4804 413.335 60.2929C413.549 60.1054 413.84 60 414.143 60H427.857C428.16 60 428.451 60.1054 428.665 60.2929C428.88 60.4804 429 60.7348 429 61C429 61.2652 428.88 61.5196 428.665 61.7071C428.451 61.8946 428.16 62 427.857 62ZM427.857 68H414.143C413.84 68 413.549 67.8946 413.335 67.7071C413.12 67.5196 413 67.2652 413 67C413 66.7348 413.12 66.4804 413.335 66.2929C413.549 66.1054 413.84 66 414.143 66H427.857C428.16 66 428.451 66.1054 428.665 66.2929C428.88 66.4804 429 66.7348 429 67C429 67.2652 428.88 67.5196 428.665 67.7071C428.451 67.8946 428.16 68 427.857 68Z" fill="#A9ACB9"/>
<mask id="path-21-inside-2_2563_26075" fill="white">
<path d="M1 88H441V136H1V88Z"/>
</mask>
<path d="M1 88H441V136H1V88Z" fill="white"/>
<path d="M441 136V135H1V136V137H441V136Z" fill="#ECEDF1" mask="url(#path-21-inside-2_2563_26075)"/>
<path d="M23.528 117.5L19.592 107.196H21.848L24.696 115.084L27.56 107.196H29.816L25.896 117.5H23.528ZM30.912 117.5V107.196H32.784L37.664 114.06V107.196H39.824V117.5H37.952L33.072 110.636V117.5H30.912Z" fill="#1E293B"/>
<path d="M345 104C345 101.791 346.791 100 349 100H365C367.209 100 369 101.791 369 104V120C369 122.209 367.209 124 365 124H349C346.791 124 345 122.209 345 120V104Z" fill="#F3F4F7"/>
<path d="M363.857 113.143H358.143V118.857C358.143 119.16 358.022 119.451 357.808 119.665C357.594 119.88 357.303 120 357 120C356.697 120 356.406 119.88 356.192 119.665C355.978 119.451 355.857 119.16 355.857 118.857V113.143H350.143C349.84 113.143 349.549 113.022 349.335 112.808C349.12 112.594 349 112.303 349 112C349 111.697 349.12 111.406 349.335 111.192C349.549 110.978 349.84 110.857 350.143 110.857H355.857V105.143C355.857 104.84 355.978 104.549 356.192 104.335C356.406 104.12 356.697 104 357 104C357.303 104 357.594 104.12 357.808 104.335C358.022 104.549 358.143 104.84 358.143 105.143V110.857H363.857C364.16 110.857 364.451 110.978 364.665 111.192C364.88 111.406 365 111.697 365 112C365 112.303 364.88 112.594 364.665 112.808C364.451 113.022 364.16 113.143 363.857 113.143Z" fill="#A9ACB9"/>
<path d="M377 104C377 101.791 378.791 100 381 100H397C399.209 100 401 101.791 401 104V120C401 122.209 399.209 124 397 124H381C378.791 124 377 122.209 377 120V104Z" fill="#F3F4F7"/>
<path d="M395 113H383C382.735 113 382.48 112.895 382.293 112.707C382.105 112.52 382 112.265 382 112C382 111.735 382.105 111.48 382.293 111.293C382.48 111.105 382.735 111 383 111H395C395.265 111 395.52 111.105 395.707 111.293C395.895 111.48 396 111.735 396 112C396 112.265 395.895 112.52 395.707 112.707C395.52 112.895 395.265 113 395 113Z" fill="#A9ACB9"/>
<path d="M409 104C409 101.791 410.791 100 413 100H429C431.209 100 433 101.791 433 104V120C433 122.209 431.209 124 429 124H413C410.791 124 409 122.209 409 120V104Z" fill="#F3F4F7"/>
<path d="M427.857 110H414.143C413.84 110 413.549 109.895 413.335 109.707C413.12 109.52 413 109.265 413 109C413 108.735 413.12 108.48 413.335 108.293C413.549 108.105 413.84 108 414.143 108H427.857C428.16 108 428.451 108.105 428.665 108.293C428.88 108.48 429 108.735 429 109C429 109.265 428.88 109.52 428.665 109.707C428.451 109.895 428.16 110 427.857 110ZM427.857 116H414.143C413.84 116 413.549 115.895 413.335 115.707C413.12 115.52 413 115.265 413 115C413 114.735 413.12 114.48 413.335 114.293C413.549 114.105 413.84 114 414.143 114H427.857C428.16 114 428.451 114.105 428.665 114.293C428.88 114.48 429 114.735 429 115C429 115.265 428.88 115.52 428.665 115.707C428.451 115.895 428.16 116 427.857 116Z" fill="#A9ACB9"/>
<mask id="path-32-inside-3_2563_26075" fill="white">
<path d="M1 136H441V184H1V136Z"/>
</mask>
<path d="M1 136H441V184H1V136Z" fill="white"/>
<path d="M441 184V183H1V184V185H441V184Z" fill="#ECEDF1" mask="url(#path-32-inside-3_2563_26075)"/>
<path d="M24.44 165.66C23.0213 165.66 21.896 165.319 21.064 164.636C20.2427 163.943 19.832 162.94 19.832 161.628V155.196H21.992V161.468C21.992 162.257 22.2053 162.849 22.632 163.244C23.0587 163.628 23.6613 163.82 24.44 163.82C25.2187 163.82 25.816 163.628 26.232 163.244C26.6587 162.849 26.872 162.257 26.872 161.468V155.196H29.032V161.628C29.032 162.94 28.6213 163.943 27.8 164.636C26.9787 165.319 25.8587 165.66 24.44 165.66ZM30.7714 165.5V155.196H32.9314V159.564L36.8994 155.196H39.3794L35.6514 159.372L39.5714 165.5H37.2674L34.3074 160.748L32.9314 162.236V165.5H30.7714Z" fill="#1E293B"/>
<path d="M345 152C345 149.791 346.791 148 349 148H365C367.209 148 369 149.791 369 152V168C369 170.209 367.209 172 365 172H349C346.791 172 345 170.209 345 168V152Z" fill="#F3F4F7"/>
<path d="M363.857 161.143H358.143V166.857C358.143 167.16 358.022 167.451 357.808 167.665C357.594 167.88 357.303 168 357 168C356.697 168 356.406 167.88 356.192 167.665C355.978 167.451 355.857 167.16 355.857 166.857V161.143H350.143C349.84 161.143 349.549 161.022 349.335 160.808C349.12 160.594 349 160.303 349 160C349 159.697 349.12 159.406 349.335 159.192C349.549 158.978 349.84 158.857 350.143 158.857H355.857V153.143C355.857 152.84 355.978 152.549 356.192 152.335C356.406 152.12 356.697 152 357 152C357.303 152 357.594 152.12 357.808 152.335C358.022 152.549 358.143 152.84 358.143 153.143V158.857H363.857C364.16 158.857 364.451 158.978 364.665 159.192C364.88 159.406 365 159.697 365 160C365 160.303 364.88 160.594 364.665 160.808C364.451 161.022 364.16 161.143 363.857 161.143Z" fill="#A9ACB9"/>
<path d="M377 152C377 149.791 378.791 148 381 148H397C399.209 148 401 149.791 401 152V168C401 170.209 399.209 172 397 172H381C378.791 172 377 170.209 377 168V152Z" fill="#F3F4F7"/>
<path d="M395 161H383C382.735 161 382.48 160.895 382.293 160.707C382.105 160.52 382 160.265 382 160C382 159.735 382.105 159.48 382.293 159.293C382.48 159.105 382.735 159 383 159H395C395.265 159 395.52 159.105 395.707 159.293C395.895 159.48 396 159.735 396 160C396 160.265 395.895 160.52 395.707 160.707C395.52 160.895 395.265 161 395 161Z" fill="#A9ACB9"/>
<path d="M409 152C409 149.791 410.791 148 413 148H429C431.209 148 433 149.791 433 152V168C433 170.209 431.209 172 429 172H413C410.791 172 409 170.209 409 168V152Z" fill="#F3F4F7"/>
<path d="M427.857 158H414.143C413.84 158 413.549 157.895 413.335 157.707C413.12 157.52 413 157.265 413 157C413 156.735 413.12 156.48 413.335 156.293C413.549 156.105 413.84 156 414.143 156H427.857C428.16 156 428.451 156.105 428.665 156.293C428.88 156.48 429 156.735 429 157C429 157.265 428.88 157.52 428.665 157.707C428.451 157.895 428.16 158 427.857 158ZM427.857 164H414.143C413.84 164 413.549 163.895 413.335 163.707C413.12 163.52 413 163.265 413 163C413 162.735 413.12 162.48 413.335 162.293C413.549 162.105 413.84 162 414.143 162H427.857C428.16 162 428.451 162.105 428.665 162.293C428.88 162.48 429 162.735 429 163C429 163.265 428.88 163.52 428.665 163.707C428.451 163.895 428.16 164 427.857 164Z" fill="#A9ACB9"/>
<mask id="path-43-inside-4_2563_26075" fill="white">
<path d="M1 184H441V232H1V184Z"/>
</mask>
<path d="M1 184H441V232H1V184Z" fill="white"/>
<path d="M441 232V231H1V232V233H441V232Z" fill="#ECEDF1" mask="url(#path-43-inside-4_2563_26075)"/>
<path d="M20.912 213.5V203.196H23.072V207.564L27.04 203.196H29.52L25.792 207.372L29.712 213.5H27.408L24.448 208.748L23.072 210.236V213.5H20.912ZM31.2089 213.5V203.196H36.1529C37.3369 203.196 38.2062 203.511 38.7609 204.14C39.3155 204.759 39.5929 205.596 39.5929 206.652C39.5929 207.345 39.4115 207.943 39.0489 208.444C38.6969 208.945 38.1955 209.308 37.5449 209.532C37.7155 209.671 37.8489 209.82 37.9449 209.98C38.0515 210.14 38.1582 210.353 38.2649 210.62L39.5129 213.5H37.2729L36.0569 210.732C35.9502 210.497 35.8329 210.332 35.7049 210.236C35.5769 210.14 35.3635 210.092 35.0649 210.092H33.3689V213.5H31.2089ZM33.3689 208.3H35.5929C36.1582 208.3 36.6009 208.177 36.9209 207.932C37.2409 207.676 37.4009 207.249 37.4009 206.652C37.4009 206.076 37.2622 205.655 36.9849 205.388C36.7075 205.121 36.2862 204.988 35.7209 204.988H33.3689V208.3Z" fill="#1E293B"/>
<path d="M345 200C345 197.791 346.791 196 349 196H365C367.209 196 369 197.791 369 200V216C369 218.209 367.209 220 365 220H349C346.791 220 345 218.209 345 216V200Z" fill="#F3F4F7"/>
<path d="M363.857 209.143H358.143V214.857C358.143 215.16 358.022 215.451 357.808 215.665C357.594 215.88 357.303 216 357 216C356.697 216 356.406 215.88 356.192 215.665C355.978 215.451 355.857 215.16 355.857 214.857V209.143H350.143C349.84 209.143 349.549 209.022 349.335 208.808C349.12 208.594 349 208.303 349 208C349 207.697 349.12 207.406 349.335 207.192C349.549 206.978 349.84 206.857 350.143 206.857H355.857V201.143C355.857 200.84 355.978 200.549 356.192 200.335C356.406 200.12 356.697 200 357 200C357.303 200 357.594 200.12 357.808 200.335C358.022 200.549 358.143 200.84 358.143 201.143V206.857H363.857C364.16 206.857 364.451 206.978 364.665 207.192C364.88 207.406 365 207.697 365 208C365 208.303 364.88 208.594 364.665 208.808C364.451 209.022 364.16 209.143 363.857 209.143Z" fill="#A9ACB9"/>
<path d="M377 200C377 197.791 378.791 196 381 196H397C399.209 196 401 197.791 401 200V216C401 218.209 399.209 220 397 220H381C378.791 220 377 218.209 377 216V200Z" fill="#F3F4F7"/>
<path d="M395 209H383C382.735 209 382.48 208.895 382.293 208.707C382.105 208.52 382 208.265 382 208C382 207.735 382.105 207.48 382.293 207.293C382.48 207.105 382.735 207 383 207H395C395.265 207 395.52 207.105 395.707 207.293C395.895 207.48 396 207.735 396 208C396 208.265 395.895 208.52 395.707 208.707C395.52 208.895 395.265 209 395 209Z" fill="#A9ACB9"/>
<path d="M409 200C409 197.791 410.791 196 413 196H429C431.209 196 433 197.791 433 200V216C433 218.209 431.209 220 429 220H413C410.791 220 409 218.209 409 216V200Z" fill="#F3F4F7"/>
<path d="M427.857 206H414.143C413.84 206 413.549 205.895 413.335 205.707C413.12 205.52 413 205.265 413 205C413 204.735 413.12 204.48 413.335 204.293C413.549 204.105 413.84 204 414.143 204H427.857C428.16 204 428.451 204.105 428.665 204.293C428.88 204.48 429 204.735 429 205C429 205.265 428.88 205.52 428.665 205.707C428.451 205.895 428.16 206 427.857 206ZM427.857 212H414.143C413.84 212 413.549 211.895 413.335 211.707C413.12 211.52 413 211.265 413 211C413 210.735 413.12 210.48 413.335 210.293C413.549 210.105 413.84 210 414.143 210H427.857C428.16 210 428.451 210.105 428.665 210.293C428.88 210.48 429 210.735 429 211C429 211.265 428.88 211.52 428.665 211.707C428.451 211.895 428.16 212 427.857 212Z" fill="#A9ACB9"/>
</svg>
