<svg width="1680" height="72" viewBox="0 0 1680 72" fill="none" xmlns="http://www.w3.org/2000/svg">
<path d="M37.936 25.66C36.208 25.66 34.8853 25.196 33.968 24.268C33.0507 23.3293 32.592 22.0547 32.592 20.444C32.592 18.7373 33.0347 17.4093 33.92 16.46C34.816 15.5107 36.1493 15.036 37.92 15.036C38.5387 15.036 39.0933 15.084 39.584 15.18C40.0853 15.2653 40.5547 15.388 40.992 15.548V17.436C40.0853 17.0627 39.1147 16.876 38.08 16.876C36.9067 16.876 36.064 17.1693 35.552 17.756C35.04 18.3427 34.784 19.2387 34.784 20.444C34.784 22.7053 35.8933 23.836 38.112 23.836C38.6133 23.836 39.1093 23.7933 39.6 23.708C40.0907 23.612 40.56 23.4733 41.008 23.292V25.196C40.5707 25.3347 40.1013 25.4467 39.6 25.532C39.1093 25.6173 38.5547 25.66 37.936 25.66ZM44.8898 25.66C44.4098 25.66 43.9618 25.5747 43.5458 25.404C43.1404 25.2227 42.8098 24.9613 42.5538 24.62C42.3084 24.268 42.1858 23.8307 42.1858 23.308C42.1858 22.5613 42.4471 21.964 42.9698 21.516C43.5031 21.068 44.2871 20.844 45.3218 20.844H47.5618V20.636C47.5618 20.1667 47.4284 19.836 47.1618 19.644C46.9058 19.452 46.3831 19.356 45.5938 19.356C44.7298 19.356 43.8978 19.4893 43.0978 19.756V18.236C43.4498 18.0973 43.8764 17.9853 44.3778 17.9C44.8898 17.804 45.4444 17.756 46.0418 17.756C47.1831 17.756 48.0631 17.9907 48.6818 18.46C49.3111 18.9187 49.6258 19.66 49.6258 20.684V25.5H47.7538L47.6418 24.812C47.3431 25.0787 46.9751 25.2867 46.5378 25.436C46.1004 25.5853 45.5511 25.66 44.8898 25.66ZM45.4818 24.236C45.9618 24.236 46.3778 24.156 46.7298 23.996C47.0818 23.836 47.3591 23.6333 47.5618 23.388V22.188H45.3698C44.5271 22.188 44.1058 22.5347 44.1058 23.228C44.1058 23.9 44.5644 24.236 45.4818 24.236ZM54.3731 25.66C53.4985 25.66 52.8478 25.4307 52.4211 24.972C52.0051 24.5133 51.7971 23.8893 51.7971 23.1V19.58H50.7251V17.916H51.7971V16.284L53.9571 15.644V17.916H55.8771L55.7491 19.58H53.9571V22.956C53.9571 23.372 54.0531 23.66 54.2451 23.82C54.4371 23.9693 54.7358 24.044 55.1411 24.044C55.4398 24.044 55.7491 23.9907 56.0691 23.884V25.372C55.8345 25.468 55.5785 25.5373 55.3011 25.58C55.0238 25.6333 54.7145 25.66 54.3731 25.66ZM61.1296 25.66C59.8176 25.66 58.7776 25.3347 58.0096 24.684C57.2416 24.0227 56.8576 23.0253 56.8576 21.692C56.8576 20.4867 57.1776 19.532 57.8176 18.828C58.4683 18.1133 59.4336 17.756 60.7136 17.756C61.887 17.756 62.783 18.0653 63.4016 18.684C64.031 19.292 64.3456 20.092 64.3456 21.084V22.46H58.8576C58.975 23.068 59.2523 23.484 59.6896 23.708C60.1376 23.932 60.767 24.044 61.5776 24.044C61.983 24.044 62.3936 24.0067 62.8096 23.932C63.2363 23.8573 63.599 23.7613 63.8976 23.644V25.18C63.5456 25.34 63.135 25.4573 62.6656 25.532C62.1963 25.6173 61.6843 25.66 61.1296 25.66ZM58.8576 21.132H62.4576V20.716C62.4576 20.2787 62.3296 19.9373 62.0736 19.692C61.8176 19.436 61.3856 19.308 60.7776 19.308C60.063 19.308 59.5616 19.452 59.2736 19.74C58.9963 20.028 58.8576 20.492 58.8576 21.132ZM69.0495 28.316C68.4842 28.316 67.9028 28.2787 67.3055 28.204C66.7188 28.1293 66.2228 28.0227 65.8175 27.884V26.268C66.2442 26.4067 66.7455 26.5133 67.3215 26.588C67.8975 26.6733 68.4362 26.716 68.9375 26.716C69.6735 26.716 70.2068 26.6733 70.5375 26.588C70.8682 26.5133 71.0335 26.3747 71.0335 26.172C71.0335 26.0013 70.9588 25.884 70.8095 25.82C70.6708 25.756 70.3722 25.724 69.9135 25.724H67.8495C66.4948 25.724 65.8175 25.2227 65.8175 24.22C65.8175 23.9107 65.9028 23.628 66.0735 23.372C66.2442 23.116 66.5162 22.9133 66.8895 22.764C66.0255 22.3267 65.5935 21.5907 65.5935 20.556C65.5935 19.5747 65.8975 18.8653 66.5055 18.428C67.1135 17.98 68.0148 17.756 69.2095 17.756C69.4548 17.756 69.7215 17.7773 70.0095 17.82C70.3082 17.852 70.5322 17.884 70.6815 17.916H73.5295L73.4815 19.276H72.2815C72.6122 19.5853 72.7775 20.0173 72.7775 20.572C72.7775 21.3507 72.5322 21.9747 72.0415 22.444C71.5508 22.9027 70.8255 23.132 69.8655 23.132C69.6948 23.132 69.5295 23.1267 69.3695 23.116C69.2202 23.0947 69.0655 23.0733 68.9055 23.052C68.5855 23.0947 68.3135 23.1693 68.0895 23.276C67.8762 23.3827 67.7695 23.5267 67.7695 23.708C67.7695 23.9533 67.9882 24.076 68.4255 24.076H70.5695C71.3375 24.076 71.9295 24.252 72.3455 24.604C72.7615 24.9453 72.9695 25.4467 72.9695 26.108C72.9695 26.8547 72.6335 27.4093 71.9615 27.772C71.2895 28.1347 70.3188 28.316 69.0495 28.316ZM69.2255 21.916C69.8655 21.916 70.3082 21.8093 70.5535 21.596C70.8095 21.372 70.9375 20.9987 70.9375 20.476C70.9375 19.9533 70.8095 19.5747 70.5535 19.34C70.3082 19.1053 69.8655 18.988 69.2255 18.988C68.6175 18.988 68.1802 19.1053 67.9135 19.34C67.6468 19.564 67.5135 19.9427 67.5135 20.476C67.5135 20.9667 67.6362 21.3293 67.8815 21.564C68.1375 21.7987 68.5855 21.916 69.2255 21.916ZM78.4696 25.66C77.051 25.66 76.011 25.3187 75.3496 24.636C74.6883 23.9427 74.3576 22.9667 74.3576 21.708C74.3576 20.4493 74.6883 19.4787 75.3496 18.796C76.0216 18.1027 77.0616 17.756 78.4696 17.756C79.8883 17.756 80.9283 18.1027 81.5896 18.796C82.2616 19.4787 82.5976 20.4493 82.5976 21.708C82.5976 22.9667 82.267 23.9427 81.6056 24.636C80.9443 25.3187 79.899 25.66 78.4696 25.66ZM78.4696 23.82C79.163 23.82 79.659 23.6653 79.9576 23.356C80.2563 23.036 80.4056 22.4867 80.4056 21.708C80.4056 20.9293 80.2563 20.3853 79.9576 20.076C79.659 19.756 79.163 19.596 78.4696 19.596C77.787 19.596 77.2963 19.756 76.9976 20.076C76.699 20.3853 76.5496 20.9293 76.5496 21.708C76.5496 22.4867 76.699 23.036 76.9976 23.356C77.2963 23.6653 77.787 23.82 78.4696 23.82ZM84.0995 25.5V17.916H86.0995L86.1955 18.7C86.5368 18.4867 86.9582 18.2947 87.4595 18.124C87.9715 17.9427 88.4728 17.82 88.9635 17.756V19.388C88.6755 19.4307 88.3608 19.4947 88.0195 19.58C87.6782 19.6653 87.3528 19.7613 87.0435 19.868C86.7342 19.9747 86.4728 20.0867 86.2595 20.204V25.5H84.0995ZM91.4898 28.316C91.1591 28.316 90.8658 28.2947 90.6098 28.252C90.3538 28.22 90.1031 28.156 89.8578 28.06V26.54C90.0391 26.604 90.2044 26.6467 90.3538 26.668C90.5138 26.6893 90.6738 26.7 90.8338 26.7C91.2711 26.7 91.6071 26.5987 91.8418 26.396C92.0871 26.1933 92.3324 25.852 92.5778 25.372L89.1858 17.916H91.4418L93.6658 23.068L95.8738 17.916H98.1138L95.1218 24.972C94.8444 25.6333 94.5404 26.2147 94.2098 26.716C93.8898 27.228 93.5111 27.6227 93.0738 27.9C92.6364 28.1773 92.1084 28.316 91.4898 28.316Z" fill="#1E293B"/>
<path d="M125.222 12H112.778C112.306 12 111.854 12.1873 111.521 12.5207C111.187 12.8541 111 13.3063 111 13.7778V26.2222C111 26.6937 111.187 27.1459 111.521 27.4793C111.854 27.8127 112.306 28 112.778 28H125.222C125.694 28 126.146 27.8127 126.479 27.4793C126.813 27.1459 127 26.6937 127 26.2222V13.7778C127 13.3063 126.813 12.8541 126.479 12.5207C126.146 12.1873 125.694 12 125.222 12ZM125.222 26.2222H112.778V13.7778H125.222V26.2222ZM123.444 16.8L120.244 20L123.444 23.2L122.2 24.4444L119 21.2444L115.8 24.4444L114.556 23.2L117.756 20L114.556 16.8L115.8 15.5556L119 18.7556L122.2 15.5556L123.444 16.8Z" fill="#A9ACB9"/>
<path d="M36 40.5H268C269.933 40.5 271.5 42.067 271.5 44V60C271.5 61.933 269.933 63.5 268 63.5H36C34.067 63.5 32.5 61.933 32.5 60V44L32.5049 43.8203C32.5984 41.9708 34.1273 40.5 36 40.5Z" fill="white"/>
<path d="M36 40.5H268C269.933 40.5 271.5 42.067 271.5 44V60C271.5 61.933 269.933 63.5 268 63.5H36C34.067 63.5 32.5 61.933 32.5 60V44L32.5049 43.8203C32.5984 41.9708 34.1273 40.5 36 40.5Z" stroke="#ECEDF1"/>
<path d="M148.946 54.368V53.008H155.058V54.368H148.946Z" fill="#1E293B"/>
<path d="M251 50.5L256 55.5L261 50.5" stroke="#A9ACB9" stroke-width="2" stroke-linecap="round" stroke-linejoin="round"/>
<path d="M300.112 25.66C299.451 25.66 298.832 25.612 298.256 25.516C297.691 25.42 297.2 25.2813 296.784 25.1V23.196C297.253 23.388 297.76 23.5427 298.304 23.66C298.848 23.7773 299.381 23.836 299.904 23.836C300.651 23.836 301.2 23.7667 301.552 23.628C301.904 23.4893 302.08 23.1747 302.08 22.684C302.08 22.3747 302.005 22.1293 301.856 21.948C301.707 21.7667 301.445 21.6067 301.072 21.468C300.709 21.3187 300.192 21.1533 299.52 20.972C298.443 20.6733 297.685 20.3 297.248 19.852C296.811 19.404 296.592 18.7853 296.592 17.996C296.592 17.0467 296.939 16.316 297.632 15.804C298.325 15.292 299.333 15.036 300.656 15.036C301.275 15.036 301.851 15.0787 302.384 15.164C302.917 15.2493 303.349 15.3507 303.68 15.468V17.372C302.805 17.0413 301.893 16.876 300.944 16.876C300.272 16.876 299.744 16.9507 299.36 17.1C298.976 17.2387 298.784 17.5373 298.784 17.996C298.784 18.2627 298.853 18.476 298.992 18.636C299.131 18.796 299.365 18.94 299.696 19.068C300.037 19.196 300.512 19.34 301.12 19.5C301.963 19.724 302.613 19.9907 303.072 20.3C303.531 20.6093 303.845 20.9613 304.016 21.356C304.197 21.7507 304.288 22.1933 304.288 22.684C304.288 23.58 303.947 24.3 303.264 24.844C302.581 25.388 301.531 25.66 300.112 25.66ZM308.561 25.66C307.686 25.66 307.035 25.4307 306.609 24.972C306.193 24.5133 305.985 23.8893 305.985 23.1V19.58H304.913V17.916H305.985V16.284L308.145 15.644V17.916H310.065L309.937 19.58H308.145V22.956C308.145 23.372 308.241 23.66 308.433 23.82C308.625 23.9693 308.923 24.044 309.329 24.044C309.627 24.044 309.937 23.9907 310.257 23.884V25.372C310.022 25.468 309.766 25.5373 309.489 25.58C309.211 25.6333 308.902 25.66 308.561 25.66ZM313.749 25.66C313.269 25.66 312.821 25.5747 312.405 25.404C312 25.2227 311.669 24.9613 311.413 24.62C311.168 24.268 311.045 23.8307 311.045 23.308C311.045 22.5613 311.306 21.964 311.829 21.516C312.362 21.068 313.146 20.844 314.181 20.844H316.421V20.636C316.421 20.1667 316.288 19.836 316.021 19.644C315.765 19.452 315.242 19.356 314.453 19.356C313.589 19.356 312.757 19.4893 311.957 19.756V18.236C312.309 18.0973 312.736 17.9853 313.237 17.9C313.749 17.804 314.304 17.756 314.901 17.756C316.042 17.756 316.922 17.9907 317.541 18.46C318.17 18.9187 318.485 19.66 318.485 20.684V25.5H316.613L316.501 24.812C316.202 25.0787 315.834 25.2867 315.397 25.436C314.96 25.5853 314.41 25.66 313.749 25.66ZM314.341 24.236C314.821 24.236 315.237 24.156 315.589 23.996C315.941 23.836 316.218 23.6333 316.421 23.388V22.188H314.229C313.386 22.188 312.965 22.5347 312.965 23.228C312.965 23.9 313.424 24.236 314.341 24.236ZM323.233 25.66C322.358 25.66 321.707 25.4307 321.281 24.972C320.865 24.5133 320.657 23.8893 320.657 23.1V19.58H319.585V17.916H320.657V16.284L322.817 15.644V17.916H324.737L324.609 19.58H322.817V22.956C322.817 23.372 322.913 23.66 323.105 23.82C323.297 23.9693 323.595 24.044 324.001 24.044C324.299 24.044 324.609 23.9907 324.929 23.884V25.372C324.694 25.468 324.438 25.5373 324.161 25.58C323.883 25.6333 323.574 25.66 323.233 25.66ZM328.837 25.66C327.93 25.66 327.221 25.4093 326.709 24.908C326.208 24.396 325.957 23.6493 325.957 22.668V17.916H328.117V22.62C328.117 23.132 328.24 23.5053 328.485 23.74C328.73 23.964 329.098 24.076 329.589 24.076C329.962 24.076 330.304 24.0013 330.613 23.852C330.933 23.7027 331.205 23.516 331.429 23.292V17.916H333.589V25.5H331.589L331.509 24.78C331.189 25.036 330.81 25.2493 330.373 25.42C329.946 25.58 329.434 25.66 328.837 25.66ZM338.1 25.66C337.534 25.66 336.996 25.6173 336.484 25.532C335.972 25.4573 335.561 25.3613 335.252 25.244V23.452C335.625 23.6013 336.046 23.7187 336.516 23.804C336.985 23.8787 337.417 23.916 337.812 23.916C338.345 23.916 338.718 23.884 338.932 23.82C339.156 23.756 339.268 23.612 339.268 23.388C339.268 23.132 339.097 22.9453 338.756 22.828C338.425 22.7107 337.929 22.5453 337.268 22.332C336.574 22.0973 336.041 21.8147 335.668 21.484C335.294 21.1533 335.108 20.6627 335.108 20.012C335.108 19.2867 335.369 18.732 335.892 18.348C336.425 17.9533 337.278 17.756 338.452 17.756C338.921 17.756 339.364 17.7933 339.78 17.868C340.196 17.932 340.548 18.012 340.836 18.108V19.884C340.548 19.7453 340.217 19.644 339.844 19.58C339.47 19.5053 339.124 19.468 338.804 19.468C338.345 19.468 337.977 19.5 337.7 19.564C337.433 19.628 337.3 19.7667 337.3 19.98C337.3 20.2147 337.444 20.38 337.732 20.476C338.03 20.572 338.489 20.716 339.108 20.908C339.716 21.0893 340.19 21.2867 340.532 21.5C340.873 21.7133 341.113 21.9693 341.252 22.268C341.39 22.556 341.46 22.9187 341.46 23.356C341.46 24.892 340.34 25.66 338.1 25.66Z" fill="#1E293B"/>
<rect x="296.5" y="40.5" width="55" height="23" rx="3.5" fill="white"/>
<rect x="296.5" y="40.5" width="55" height="23" rx="3.5" stroke="#CDD1D8"/>
<path d="M304.616 57L308.06 47.984H309.768L313.184 57H311.616L310.72 54.676H307.094L306.198 57H304.616ZM307.332 53.5H310.468L308.9 49.37L307.332 53.5ZM317.318 57.14C316.151 57.14 315.269 56.846 314.672 56.258C314.074 55.6607 313.776 54.802 313.776 53.682C313.776 52.5153 314.102 51.6473 314.756 51.078C315.418 50.5087 316.3 50.224 317.402 50.224C317.859 50.224 318.242 50.2567 318.55 50.322C318.867 50.3873 319.17 50.49 319.46 50.63V51.764C318.974 51.5213 318.386 51.4 317.696 51.4C316.93 51.4 316.342 51.5727 315.932 51.918C315.521 52.254 315.316 52.842 315.316 53.682C315.316 54.4753 315.498 55.0587 315.862 55.432C316.226 55.796 316.828 55.978 317.668 55.978C318.33 55.978 318.932 55.852 319.474 55.6V56.762C319.166 56.8833 318.834 56.9767 318.48 57.042C318.134 57.1073 317.747 57.14 317.318 57.14ZM323.221 57.14C322.511 57.14 321.979 56.9533 321.625 56.58C321.279 56.1973 321.107 55.6793 321.107 55.026V51.554H320.127V50.364H321.107V48.838L322.619 48.376V50.364H324.383L324.285 51.554H322.619V54.942C322.619 55.3247 322.707 55.5953 322.885 55.754C323.062 55.9033 323.351 55.978 323.753 55.978C324.005 55.978 324.271 55.9313 324.551 55.838V56.916C324.187 57.0653 323.743 57.14 323.221 57.14ZM326.278 48.978V47.718H327.944V48.978H326.278ZM326.404 57V51.526H325.396L325.536 50.364H327.93V57H326.404ZM331.775 57L329.157 50.364H330.739L332.601 55.516L334.463 50.364H336.031L333.427 57H331.775ZM340.125 57.14C338.967 57.14 338.071 56.8553 337.437 56.286C336.802 55.7167 336.485 54.844 336.485 53.668C336.485 52.604 336.755 51.764 337.297 51.148C337.838 50.532 338.659 50.224 339.761 50.224C340.769 50.224 341.525 50.49 342.029 51.022C342.542 51.5447 342.799 52.2213 342.799 53.052V54.284H337.941C338.015 54.928 338.249 55.3713 338.641 55.614C339.033 55.8567 339.63 55.978 340.433 55.978C340.769 55.978 341.114 55.9453 341.469 55.88C341.823 55.8147 342.131 55.7307 342.393 55.628V56.748C342.094 56.8787 341.749 56.9767 341.357 57.042C340.974 57.1073 340.563 57.14 340.125 57.14ZM337.941 53.29H341.455V52.828C341.455 52.3707 341.329 52.016 341.077 51.764C340.825 51.5027 340.4 51.372 339.803 51.372C339.093 51.372 338.603 51.526 338.333 51.834C338.071 52.142 337.941 52.6273 337.941 53.29Z" fill="#A9ACB9"/>
<rect x="360.5" y="40.5" width="65" height="23" rx="3.5" fill="white"/>
<rect x="360.5" y="40.5" width="65" height="23" rx="3.5" stroke="#CDD1D8"/>
<path d="M368.882 57V47.984H370.408V57H368.882ZM372.177 57V50.364H373.577L373.647 51.064C373.946 50.8307 374.3 50.6347 374.711 50.476C375.131 50.308 375.593 50.224 376.097 50.224C376.956 50.224 377.581 50.4247 377.973 50.826C378.365 51.2273 378.561 51.8527 378.561 52.702V57H377.049V52.772C377.049 52.2587 376.942 51.8993 376.727 51.694C376.522 51.4887 376.13 51.386 375.551 51.386C375.206 51.386 374.865 51.456 374.529 51.596C374.202 51.736 373.927 51.918 373.703 52.142V57H372.177ZM382.138 57.14C381.718 57.14 381.326 57.0653 380.962 56.916C380.607 56.7667 380.322 56.5427 380.108 56.244C379.893 55.936 379.786 55.558 379.786 55.11C379.786 54.4753 380 53.9667 380.43 53.584C380.868 53.192 381.54 52.996 382.446 52.996H384.574V52.702C384.574 52.3847 384.522 52.1327 384.42 51.946C384.326 51.7593 384.149 51.624 383.888 51.54C383.636 51.456 383.262 51.414 382.768 51.414C381.984 51.414 381.251 51.5307 380.57 51.764V50.63C380.868 50.5087 381.232 50.4107 381.662 50.336C382.091 50.2613 382.553 50.224 383.048 50.224C384.018 50.224 384.756 50.42 385.26 50.812C385.773 51.204 386.03 51.8433 386.03 52.73V57H384.728L384.63 56.328C384.359 56.5893 384.023 56.79 383.622 56.93C383.23 57.07 382.735 57.14 382.138 57.14ZM382.544 56.048C383.001 56.048 383.398 55.9733 383.734 55.824C384.079 55.6653 384.359 55.4553 384.574 55.194V54.032H382.474C382.026 54.032 381.699 54.1207 381.494 54.298C381.298 54.466 381.2 54.7273 381.2 55.082C381.2 55.4273 381.316 55.6747 381.55 55.824C381.783 55.9733 382.114 56.048 382.544 56.048ZM390.984 57.14C389.817 57.14 388.935 56.846 388.338 56.258C387.741 55.6607 387.442 54.802 387.442 53.682C387.442 52.5153 387.769 51.6473 388.422 51.078C389.085 50.5087 389.967 50.224 391.068 50.224C391.525 50.224 391.908 50.2567 392.216 50.322C392.533 50.3873 392.837 50.49 393.126 50.63V51.764C392.641 51.5213 392.053 51.4 391.362 51.4C390.597 51.4 390.009 51.5727 389.598 51.918C389.187 52.254 388.982 52.842 388.982 53.682C388.982 54.4753 389.164 55.0587 389.528 55.432C389.892 55.796 390.494 55.978 391.334 55.978C391.997 55.978 392.599 55.852 393.14 55.6V56.762C392.832 56.8833 392.501 56.9767 392.146 57.042C391.801 57.1073 391.413 57.14 390.984 57.14ZM396.887 57.14C396.177 57.14 395.645 56.9533 395.291 56.58C394.945 56.1973 394.773 55.6793 394.773 55.026V51.554H393.793V50.364H394.773V48.838L396.285 48.376V50.364H398.049L397.951 51.554H396.285V54.942C396.285 55.3247 396.373 55.5953 396.551 55.754C396.728 55.9033 397.017 55.978 397.419 55.978C397.671 55.978 397.937 55.9313 398.217 55.838V56.916C397.853 57.0653 397.409 57.14 396.887 57.14ZM399.944 48.978V47.718H401.61V48.978H399.944ZM400.07 57V51.526H399.062L399.202 50.364H401.596V57H400.07ZM405.441 57L402.823 50.364H404.405L406.267 55.516L408.129 50.364H409.697L407.093 57H405.441ZM413.791 57.14C412.633 57.14 411.737 56.8553 411.103 56.286C410.468 55.7167 410.151 54.844 410.151 53.668C410.151 52.604 410.421 51.764 410.963 51.148C411.504 50.532 412.325 50.224 413.427 50.224C414.435 50.224 415.191 50.49 415.695 51.022C416.208 51.5447 416.465 52.2213 416.465 53.052V54.284H411.607C411.681 54.928 411.915 55.3713 412.307 55.614C412.699 55.8567 413.296 55.978 414.099 55.978C414.435 55.978 414.78 55.9453 415.135 55.88C415.489 55.8147 415.797 55.7307 416.059 55.628V56.748C415.76 56.8787 415.415 56.9767 415.023 57.042C414.64 57.1073 414.229 57.14 413.791 57.14ZM411.607 53.29H415.121V52.828C415.121 52.3707 414.995 52.016 414.743 51.764C414.491 51.5027 414.066 51.372 413.469 51.372C412.759 51.372 412.269 51.526 411.999 51.834C411.737 52.142 411.607 52.6273 411.607 53.29Z" fill="#A9ACB9"/>
<rect x="434.5" y="40.5" width="79" height="23" rx="3.5" fill="white"/>
<rect x="434.5" y="40.5" width="79" height="23" rx="3.5" stroke="#CDD1D8"/>
<path d="M442.882 57V47.984H444.408V55.824H449.028V57H442.882ZM453.06 57.14C451.865 57.14 450.988 56.8413 450.428 56.244C449.877 55.6467 449.602 54.7927 449.602 53.682C449.602 52.5713 449.882 51.7173 450.442 51.12C451.002 50.5227 451.875 50.224 453.06 50.224C454.255 50.224 455.132 50.5227 455.692 51.12C456.252 51.7173 456.532 52.5713 456.532 53.682C456.532 54.7927 456.252 55.6467 455.692 56.244C455.141 56.8413 454.264 57.14 453.06 57.14ZM453.06 55.852C453.76 55.852 454.255 55.684 454.544 55.348C454.843 55.0027 454.992 54.4473 454.992 53.682C454.992 52.9167 454.843 52.366 454.544 52.03C454.255 51.694 453.76 51.526 453.06 51.526C452.369 51.526 451.875 51.694 451.576 52.03C451.287 52.366 451.142 52.9167 451.142 53.682C451.142 54.4473 451.287 55.0027 451.576 55.348C451.875 55.684 452.369 55.852 453.06 55.852ZM458.858 57L457.108 50.364H458.634L459.782 55.194L461.084 51.176V50.364H462.246L463.688 55.194L464.836 50.364H466.348L464.612 57H463.17L461.756 52.66L460.314 57H458.858ZM473.79 57.14C472.623 57.14 471.685 56.9907 470.976 56.692V55.348C471.377 55.4973 471.806 55.6187 472.264 55.712C472.73 55.8053 473.192 55.852 473.65 55.852C474.368 55.852 474.905 55.768 475.26 55.6C475.624 55.432 475.806 55.096 475.806 54.592C475.806 54.284 475.731 54.0367 475.582 53.85C475.432 53.6633 475.185 53.5047 474.84 53.374C474.494 53.234 474.018 53.0893 473.412 52.94C472.441 52.688 471.76 52.3707 471.368 51.988C470.976 51.596 470.78 51.0593 470.78 50.378C470.78 49.5847 471.069 48.964 471.648 48.516C472.226 48.068 473.09 47.844 474.238 47.844C474.76 47.844 475.25 47.8813 475.708 47.956C476.174 48.0307 476.538 48.1147 476.8 48.208V49.552C476.09 49.2813 475.306 49.146 474.448 49.146C473.776 49.146 473.253 49.2347 472.88 49.412C472.506 49.5893 472.32 49.9113 472.32 50.378C472.32 50.6487 472.385 50.868 472.516 51.036C472.646 51.204 472.87 51.3487 473.188 51.47C473.514 51.5913 473.962 51.7267 474.532 51.876C475.269 52.0627 475.838 52.2867 476.24 52.548C476.65 52.8 476.935 53.0987 477.094 53.444C477.262 53.78 477.346 54.1627 477.346 54.592C477.346 55.3853 477.052 56.0107 476.464 56.468C475.876 56.916 474.984 57.14 473.79 57.14ZM481.154 57.14C480.445 57.14 479.913 56.9533 479.558 56.58C479.213 56.1973 479.04 55.6793 479.04 55.026V51.554H478.06V50.364H479.04V48.838L480.552 48.376V50.364H482.316L482.218 51.554H480.552V54.942C480.552 55.3247 480.641 55.5953 480.818 55.754C480.996 55.9033 481.285 55.978 481.686 55.978C481.938 55.978 482.204 55.9313 482.484 55.838V56.916C482.12 57.0653 481.677 57.14 481.154 57.14ZM486.83 57.14C485.635 57.14 484.758 56.8413 484.198 56.244C483.647 55.6467 483.372 54.7927 483.372 53.682C483.372 52.5713 483.652 51.7173 484.212 51.12C484.772 50.5227 485.644 50.224 486.83 50.224C488.024 50.224 488.902 50.5227 489.462 51.12C490.022 51.7173 490.302 52.5713 490.302 53.682C490.302 54.7927 490.022 55.6467 489.462 56.244C488.911 56.8413 488.034 57.14 486.83 57.14ZM486.83 55.852C487.53 55.852 488.024 55.684 488.314 55.348C488.612 55.0027 488.762 54.4473 488.762 53.682C488.762 52.9167 488.612 52.366 488.314 52.03C488.024 51.694 487.53 51.526 486.83 51.526C486.139 51.526 485.644 51.694 485.346 52.03C485.056 52.366 484.912 52.9167 484.912 53.682C484.912 54.4473 485.056 55.0027 485.346 55.348C485.644 55.684 486.139 55.852 486.83 55.852ZM495.048 57.14C493.882 57.14 493 56.846 492.402 56.258C491.805 55.6607 491.506 54.802 491.506 53.682C491.506 52.5153 491.833 51.6473 492.486 51.078C493.149 50.5087 494.031 50.224 495.132 50.224C495.59 50.224 495.972 50.2567 496.28 50.322C496.598 50.3873 496.901 50.49 497.19 50.63V51.764C496.705 51.5213 496.117 51.4 495.426 51.4C494.661 51.4 494.073 51.5727 493.662 51.918C493.252 52.254 493.046 52.842 493.046 53.682C493.046 54.4753 493.228 55.0587 493.592 55.432C493.956 55.796 494.558 55.978 495.398 55.978C496.061 55.978 496.663 55.852 497.204 55.6V56.762C496.896 56.8833 496.565 56.9767 496.21 57.042C495.865 57.1073 495.478 57.14 495.048 57.14ZM498.417 57V47.564H499.943V53.024L502.729 50.364H504.479L501.777 53.038L504.633 57H503.023L500.825 53.85L499.943 54.69V57H498.417Z" fill="#A9ACB9"/>
<path d="M538 8V64" stroke="#ECEDF1" stroke-linecap="round"/>
<path d="M562.912 25.5V15.196H565.072V23.836H570.144V25.5H562.912ZM574.72 25.66C573.301 25.66 572.261 25.3187 571.6 24.636C570.938 23.9427 570.608 22.9667 570.608 21.708C570.608 20.4493 570.938 19.4787 571.6 18.796C572.272 18.1027 573.312 17.756 574.72 17.756C576.138 17.756 577.178 18.1027 577.84 18.796C578.512 19.4787 578.848 20.4493 578.848 21.708C578.848 22.9667 578.517 23.9427 577.856 24.636C577.194 25.3187 576.149 25.66 574.72 25.66ZM574.72 23.82C575.413 23.82 575.909 23.6653 576.208 23.356C576.506 23.036 576.656 22.4867 576.656 21.708C576.656 20.9293 576.506 20.3853 576.208 20.076C575.909 19.756 575.413 19.596 574.72 19.596C574.037 19.596 573.546 19.756 573.248 20.076C572.949 20.3853 572.8 20.9293 572.8 21.708C572.8 22.4867 572.949 23.036 573.248 23.356C573.546 23.6653 574.037 23.82 574.72 23.82ZM584.222 25.66C582.867 25.66 581.827 25.324 581.102 24.652C580.387 23.98 580.03 22.9987 580.03 21.708C580.03 20.3747 580.414 19.3827 581.182 18.732C581.96 18.0813 582.995 17.756 584.286 17.756C584.819 17.756 585.278 17.7933 585.662 17.868C586.046 17.9427 586.419 18.0653 586.782 18.236V19.788C586.515 19.66 586.206 19.5587 585.854 19.484C585.502 19.4093 585.123 19.372 584.718 19.372C583.907 19.372 583.288 19.5427 582.862 19.884C582.435 20.2147 582.222 20.8227 582.222 21.708C582.222 22.5187 582.414 23.1107 582.798 23.484C583.192 23.8573 583.827 24.044 584.702 24.044C585.075 24.044 585.438 24.0067 585.79 23.932C586.152 23.8573 586.488 23.7453 586.798 23.596V25.196C586.083 25.5053 585.224 25.66 584.222 25.66ZM590.546 25.66C590.066 25.66 589.618 25.5747 589.202 25.404C588.797 25.2227 588.466 24.9613 588.21 24.62C587.965 24.268 587.842 23.8307 587.842 23.308C587.842 22.5613 588.103 21.964 588.626 21.516C589.159 21.068 589.943 20.844 590.978 20.844H593.218V20.636C593.218 20.1667 593.085 19.836 592.818 19.644C592.562 19.452 592.039 19.356 591.25 19.356C590.386 19.356 589.554 19.4893 588.754 19.756V18.236C589.106 18.0973 589.533 17.9853 590.034 17.9C590.546 17.804 591.101 17.756 591.698 17.756C592.839 17.756 593.719 17.9907 594.338 18.46C594.967 18.9187 595.282 19.66 595.282 20.684V25.5H593.41L593.298 24.812C592.999 25.0787 592.631 25.2867 592.194 25.436C591.757 25.5853 591.207 25.66 590.546 25.66ZM591.138 24.236C591.618 24.236 592.034 24.156 592.386 23.996C592.738 23.836 593.015 23.6333 593.218 23.388V22.188H591.026C590.183 22.188 589.762 22.5347 589.762 23.228C589.762 23.9 590.221 24.236 591.138 24.236ZM600.029 25.66C599.155 25.66 598.504 25.4307 598.077 24.972C597.661 24.5133 597.453 23.8893 597.453 23.1V19.58H596.381V17.916H597.453V16.284L599.613 15.644V17.916H601.533L601.405 19.58H599.613V22.956C599.613 23.372 599.709 23.66 599.901 23.82C600.093 23.9693 600.392 24.044 600.797 24.044C601.096 24.044 601.405 23.9907 601.725 23.884V25.372C601.491 25.468 601.235 25.5373 600.957 25.58C600.68 25.6333 600.371 25.66 600.029 25.66ZM603.362 16.524V14.828H605.714V16.524H603.362ZM603.538 25.5V19.516H602.402L602.594 17.916H605.698V25.5H603.538ZM611.329 25.66C609.91 25.66 608.87 25.3187 608.209 24.636C607.548 23.9427 607.217 22.9667 607.217 21.708C607.217 20.4493 607.548 19.4787 608.209 18.796C608.881 18.1027 609.921 17.756 611.329 17.756C612.748 17.756 613.788 18.1027 614.449 18.796C615.121 19.4787 615.457 20.4493 615.457 21.708C615.457 22.9667 615.126 23.9427 614.465 24.636C613.804 25.3187 612.758 25.66 611.329 25.66ZM611.329 23.82C612.022 23.82 612.518 23.6653 612.817 23.356C613.116 23.036 613.265 22.4867 613.265 21.708C613.265 20.9293 613.116 20.3853 612.817 20.076C612.518 19.756 612.022 19.596 611.329 19.596C610.646 19.596 610.156 19.756 609.857 20.076C609.558 20.3853 609.409 20.9293 609.409 21.708C609.409 22.4867 609.558 23.036 609.857 23.356C610.156 23.6653 610.646 23.82 611.329 23.82ZM616.959 25.5V17.916H618.959L619.039 18.636C619.348 18.4013 619.738 18.1987 620.207 18.028C620.687 17.8467 621.188 17.756 621.711 17.756C622.714 17.756 623.444 17.9907 623.903 18.46C624.362 18.9293 624.591 19.6547 624.591 20.636V25.5H622.431V20.748C622.431 20.236 622.324 19.8733 622.111 19.66C621.908 19.4467 621.524 19.34 620.959 19.34C620.628 19.34 620.292 19.4147 619.951 19.564C619.62 19.7133 619.343 19.9 619.119 20.124V25.5H616.959Z" fill="#1E293B"/>
<rect x="562.5" y="40.5" width="33" height="23" rx="3.5" fill="white"/>
<rect x="562.5" y="40.5" width="33" height="23" rx="3.5" stroke="#CDD1D8"/>
<path d="M570.882 57V47.984H572.408V55.824H577.028V57H570.882ZM577.971 57L581.415 47.984H583.123L586.539 57H584.971L584.075 54.676H580.449L579.553 57H577.971ZM580.687 53.5H583.823L582.255 49.37L580.687 53.5Z" fill="#A9ACB9"/>
<rect x="604.5" y="40.5" width="34" height="23" rx="3.5" fill="white"/>
<rect x="604.5" y="40.5" width="34" height="23" rx="3.5" stroke="#CDD1D8"/>
<path d="M616.06 57L612.616 47.984H614.198L616.9 55.362L619.602 47.984H621.184L617.768 57H616.06ZM622.48 57V47.984H623.824L628.528 54.62V47.984H630.04V57H628.696L624.006 50.378V57H622.48Z" fill="#A9ACB9"/>
<rect x="647.5" y="40.5" width="34" height="23" rx="3.5" fill="white"/>
<rect x="647.5" y="40.5" width="34" height="23" rx="3.5" stroke="#CDD1D8"/>
<path d="M659.732 57.14C658.491 57.14 657.525 56.8413 656.834 56.244C656.153 55.6467 655.812 54.7833 655.812 53.654V47.984H657.338V53.598C657.338 54.354 657.543 54.9187 657.954 55.292C658.374 55.6653 658.967 55.852 659.732 55.852C660.488 55.852 661.071 55.6653 661.482 55.292C661.902 54.9187 662.112 54.354 662.112 53.598V47.984H663.624V53.654C663.624 54.7833 663.283 55.6467 662.602 56.244C661.921 56.8413 660.964 57.14 659.732 57.14ZM665.316 57V47.984H666.842V52.128L670.678 47.984H672.442L669.124 51.624L672.582 57H670.958L668.172 52.59L666.842 54.018V57H665.316Z" fill="#A9ACB9"/>
<rect x="690.5" y="40.5" width="33" height="23" rx="3.5" fill="white"/>
<rect x="690.5" y="40.5" width="33" height="23" rx="3.5" stroke="#CDD1D8"/>
<path d="M698.882 57V47.984H700.408V52.128L704.244 47.984H706.008L702.69 51.624L706.148 57H704.524L701.738 52.59L700.408 54.018V57H698.882ZM707.632 57V47.984H711.776C712.784 47.984 713.517 48.2453 713.974 48.768C714.441 49.2813 714.674 49.9813 714.674 50.868C714.674 51.5027 714.515 52.044 714.198 52.492C713.881 52.94 713.423 53.2527 712.826 53.43C712.994 53.5513 713.125 53.682 713.218 53.822C713.311 53.962 713.405 54.1487 713.498 54.382L714.632 57H713.064L711.958 54.48C711.855 54.2373 711.729 54.0647 711.58 53.962C711.44 53.8593 711.197 53.808 710.852 53.808H709.158V57H707.632ZM709.158 52.576H711.37C711.921 52.576 712.355 52.4407 712.672 52.17C712.989 51.8993 713.148 51.4653 713.148 50.868C713.148 49.7387 712.602 49.174 711.51 49.174H709.158V52.576Z" fill="#A9ACB9"/>
<path d="M748 8V64" stroke="#ECEDF1" stroke-linecap="round"/>
<path d="M775.44 25.5V16.86H772.272V15.196H780.752V16.86H777.6V25.5H775.44ZM783.124 25.66C782.644 25.66 782.196 25.5747 781.78 25.404C781.375 25.2227 781.044 24.9613 780.788 24.62C780.543 24.268 780.42 23.8307 780.42 23.308C780.42 22.5613 780.681 21.964 781.204 21.516C781.737 21.068 782.521 20.844 783.556 20.844H785.796V20.636C785.796 20.1667 785.663 19.836 785.396 19.644C785.14 19.452 784.617 19.356 783.828 19.356C782.964 19.356 782.132 19.4893 781.332 19.756V18.236C781.684 18.0973 782.111 17.9853 782.612 17.9C783.124 17.804 783.679 17.756 784.276 17.756C785.417 17.756 786.297 17.9907 786.916 18.46C787.545 18.9187 787.86 19.66 787.86 20.684V25.5H785.988L785.876 24.812C785.577 25.0787 785.209 25.2867 784.772 25.436C784.335 25.5853 783.785 25.66 783.124 25.66ZM783.716 24.236C784.196 24.236 784.612 24.156 784.964 23.996C785.316 23.836 785.593 23.6333 785.796 23.388V22.188H783.604C782.761 22.188 782.34 22.5347 782.34 23.228C782.34 23.9 782.799 24.236 783.716 24.236ZM792.799 28.316C792.234 28.316 791.653 28.2787 791.056 28.204C790.469 28.1293 789.973 28.0227 789.568 27.884V26.268C789.994 26.4067 790.496 26.5133 791.072 26.588C791.648 26.6733 792.186 26.716 792.688 26.716C793.424 26.716 793.957 26.6733 794.288 26.588C794.618 26.5133 794.784 26.3747 794.784 26.172C794.784 26.0013 794.709 25.884 794.56 25.82C794.421 25.756 794.122 25.724 793.664 25.724H791.6C790.245 25.724 789.568 25.2227 789.568 24.22C789.568 23.9107 789.653 23.628 789.824 23.372C789.994 23.116 790.266 22.9133 790.64 22.764C789.776 22.3267 789.344 21.5907 789.344 20.556C789.344 19.5747 789.648 18.8653 790.256 18.428C790.864 17.98 791.765 17.756 792.96 17.756C793.205 17.756 793.472 17.7773 793.76 17.82C794.058 17.852 794.282 17.884 794.432 17.916H797.28L797.232 19.276H796.032C796.362 19.5853 796.528 20.0173 796.528 20.572C796.528 21.3507 796.282 21.9747 795.792 22.444C795.301 22.9027 794.576 23.132 793.616 23.132C793.445 23.132 793.28 23.1267 793.12 23.116C792.97 23.0947 792.816 23.0733 792.656 23.052C792.336 23.0947 792.064 23.1693 791.84 23.276C791.626 23.3827 791.52 23.5267 791.52 23.708C791.52 23.9533 791.738 24.076 792.176 24.076H794.32C795.088 24.076 795.68 24.252 796.096 24.604C796.512 24.9453 796.72 25.4467 796.72 26.108C796.72 26.8547 796.384 27.4093 795.712 27.772C795.04 28.1347 794.069 28.316 792.799 28.316ZM792.976 21.916C793.616 21.916 794.058 21.8093 794.304 21.596C794.56 21.372 794.688 20.9987 794.688 20.476C794.688 19.9533 794.56 19.5747 794.304 19.34C794.058 19.1053 793.616 18.988 792.976 18.988C792.368 18.988 791.93 19.1053 791.664 19.34C791.397 19.564 791.264 19.9427 791.264 20.476C791.264 20.9667 791.386 21.3293 791.632 21.564C791.888 21.7987 792.336 21.916 792.976 21.916ZM800.85 25.66C800.284 25.66 799.746 25.6173 799.234 25.532C798.722 25.4573 798.311 25.3613 798.002 25.244V23.452C798.375 23.6013 798.796 23.7187 799.266 23.804C799.735 23.8787 800.167 23.916 800.562 23.916C801.095 23.916 801.468 23.884 801.682 23.82C801.906 23.756 802.018 23.612 802.018 23.388C802.018 23.132 801.847 22.9453 801.506 22.828C801.175 22.7107 800.679 22.5453 800.018 22.332C799.324 22.0973 798.791 21.8147 798.418 21.484C798.044 21.1533 797.858 20.6627 797.858 20.012C797.858 19.2867 798.119 18.732 798.642 18.348C799.175 17.9533 800.028 17.756 801.202 17.756C801.671 17.756 802.114 17.7933 802.53 17.868C802.946 17.932 803.298 18.012 803.586 18.108V19.884C803.298 19.7453 802.967 19.644 802.594 19.58C802.22 19.5053 801.874 19.468 801.554 19.468C801.095 19.468 800.727 19.5 800.45 19.564C800.183 19.628 800.05 19.7667 800.05 19.98C800.05 20.2147 800.194 20.38 800.482 20.476C800.78 20.572 801.239 20.716 801.858 20.908C802.466 21.0893 802.94 21.2867 803.282 21.5C803.623 21.7133 803.863 21.9693 804.002 22.268C804.14 22.556 804.21 22.9187 804.21 23.356C804.21 24.892 803.09 25.66 800.85 25.66Z" fill="#1E293B"/>
<rect x="772.5" y="40.5" width="60" height="23" rx="3.5" fill="white"/>
<rect x="772.5" y="40.5" width="60" height="23" rx="3.5" stroke="#CDD1D8"/>
<path d="M785.11 57.14C783.626 57.14 782.501 56.734 781.736 55.922C780.98 55.11 780.602 54.0133 780.602 52.632C780.602 51.6427 780.761 50.7933 781.078 50.084C781.405 49.3653 781.899 48.8147 782.562 48.432C783.225 48.04 784.069 47.844 785.096 47.844C785.619 47.844 786.095 47.886 786.524 47.97C786.963 48.0447 787.369 48.1473 787.742 48.278V49.608C787.369 49.4587 786.967 49.3467 786.538 49.272C786.118 49.188 785.675 49.146 785.208 49.146C784.088 49.146 783.295 49.4447 782.828 50.042C782.371 50.6393 782.142 51.5027 782.142 52.632C782.142 53.6867 782.394 54.4893 782.898 55.04C783.402 55.5813 784.181 55.852 785.236 55.852C785.665 55.852 786.095 55.8193 786.524 55.754C786.963 55.6793 787.373 55.5673 787.756 55.418V56.762C787.383 56.8833 786.977 56.9767 786.538 57.042C786.109 57.1073 785.633 57.14 785.11 57.14ZM789.236 57V50.364H790.636L790.72 51.134C791.037 50.9287 791.415 50.742 791.854 50.574C792.292 50.406 792.726 50.2893 793.156 50.224V51.386C792.894 51.4327 792.61 51.5027 792.302 51.596C792.003 51.68 791.718 51.778 791.448 51.89C791.177 51.9927 790.948 52.1 790.762 52.212V57H789.236ZM794.827 48.978V47.718H796.493V48.978H794.827ZM794.953 57V51.526H793.945L794.085 50.364H796.479V57H794.953ZM800.793 57.14C800.084 57.14 799.552 56.9533 799.197 56.58C798.852 56.1973 798.679 55.6793 798.679 55.026V51.554H797.699V50.364H798.679V48.838L800.191 48.376V50.364H801.955L801.857 51.554H800.191V54.942C800.191 55.3247 800.28 55.5953 800.457 55.754C800.634 55.9033 800.924 55.978 801.325 55.978C801.577 55.978 801.843 55.9313 802.123 55.838V56.916C801.759 57.0653 801.316 57.14 800.793 57.14ZM803.85 48.978V47.718H805.516V48.978H803.85ZM803.976 57V51.526H802.968L803.108 50.364H805.502V57H803.976ZM810.544 57.14C809.378 57.14 808.496 56.846 807.898 56.258C807.301 55.6607 807.002 54.802 807.002 53.682C807.002 52.5153 807.329 51.6473 807.982 51.078C808.645 50.5087 809.527 50.224 810.628 50.224C811.086 50.224 811.468 50.2567 811.776 50.322C812.094 50.3873 812.397 50.49 812.686 50.63V51.764C812.201 51.5213 811.613 51.4 810.922 51.4C810.157 51.4 809.569 51.5727 809.158 51.918C808.748 52.254 808.542 52.842 808.542 53.682C808.542 54.4753 808.724 55.0587 809.088 55.432C809.452 55.796 810.054 55.978 810.894 55.978C811.557 55.978 812.159 55.852 812.7 55.6V56.762C812.392 56.8833 812.061 56.9767 811.706 57.042C811.361 57.1073 810.974 57.14 810.544 57.14ZM815.985 57.14C815.565 57.14 815.173 57.0653 814.809 56.916C814.455 56.7667 814.17 56.5427 813.955 56.244C813.741 55.936 813.633 55.558 813.633 55.11C813.633 54.4753 813.848 53.9667 814.277 53.584C814.716 53.192 815.388 52.996 816.293 52.996H818.421V52.702C818.421 52.3847 818.37 52.1327 818.267 51.946C818.174 51.7593 817.997 51.624 817.735 51.54C817.483 51.456 817.11 51.414 816.615 51.414C815.831 51.414 815.099 51.5307 814.417 51.764V50.63C814.716 50.5087 815.08 50.4107 815.509 50.336C815.939 50.2613 816.401 50.224 816.895 50.224C817.866 50.224 818.603 50.42 819.107 50.812C819.621 51.204 819.877 51.8433 819.877 52.73V57H818.575L818.477 56.328C818.207 56.5893 817.871 56.79 817.469 56.93C817.077 57.07 816.583 57.14 815.985 57.14ZM816.391 56.048C816.849 56.048 817.245 55.9733 817.581 55.824C817.927 55.6653 818.207 55.4553 818.421 55.194V54.032H816.321C815.873 54.032 815.547 54.1207 815.341 54.298C815.145 54.466 815.047 54.7273 815.047 55.082C815.047 55.4273 815.164 55.6747 815.397 55.824C815.631 55.9733 815.962 56.048 816.391 56.048ZM823.222 57.14C822.68 57.14 822.27 57.0093 821.99 56.748C821.71 56.4773 821.57 56.034 821.57 55.418V47.564H823.096V55.278C823.096 55.5393 823.142 55.7167 823.236 55.81C823.329 55.9033 823.469 55.95 823.656 55.95C823.88 55.95 824.094 55.922 824.3 55.866V56.972C824.122 57.0373 823.95 57.0793 823.782 57.098C823.623 57.126 823.436 57.14 823.222 57.14Z" fill="#A9ACB9"/>
<rect x="841.5" y="40.5" width="92" height="23" rx="3.5" fill="white"/>
<rect x="841.5" y="40.5" width="92" height="23" rx="3.5" stroke="#CDD1D8"/>
<path d="M852.22 57V49.174H849.336V47.984H856.616V49.174H853.746V57H852.22ZM858.585 57.14C858.165 57.14 857.773 57.0653 857.409 56.916C857.054 56.7667 856.77 56.5427 856.555 56.244C856.34 55.936 856.233 55.558 856.233 55.11C856.233 54.4753 856.448 53.9667 856.877 53.584C857.316 53.192 857.988 52.996 858.893 52.996H861.021V52.702C861.021 52.3847 860.97 52.1327 860.867 51.946C860.774 51.7593 860.596 51.624 860.335 51.54C860.083 51.456 859.71 51.414 859.215 51.414C858.431 51.414 857.698 51.5307 857.017 51.764V50.63C857.316 50.5087 857.68 50.4107 858.109 50.336C858.538 50.2613 859 50.224 859.495 50.224C860.466 50.224 861.203 50.42 861.707 50.812C862.22 51.204 862.477 51.8433 862.477 52.73V57H861.175L861.077 56.328C860.806 56.5893 860.47 56.79 860.069 56.93C859.677 57.07 859.182 57.14 858.585 57.14ZM858.991 56.048C859.448 56.048 859.845 55.9733 860.181 55.824C860.526 55.6653 860.806 55.4553 861.021 55.194V54.032H858.921C858.473 54.032 858.146 54.1207 857.941 54.298C857.745 54.466 857.647 54.7273 857.647 55.082C857.647 55.4273 857.764 55.6747 857.997 55.824C858.23 55.9733 858.562 56.048 858.991 56.048ZM867.431 57.14C866.264 57.14 865.382 56.846 864.785 56.258C864.188 55.6607 863.889 54.802 863.889 53.682C863.889 52.5153 864.216 51.6473 864.869 51.078C865.532 50.5087 866.414 50.224 867.515 50.224C867.972 50.224 868.355 50.2567 868.663 50.322C868.98 50.3873 869.284 50.49 869.573 50.63V51.764C869.088 51.5213 868.5 51.4 867.809 51.4C867.044 51.4 866.456 51.5727 866.045 51.918C865.634 52.254 865.429 52.842 865.429 53.682C865.429 54.4753 865.611 55.0587 865.975 55.432C866.339 55.796 866.941 55.978 867.781 55.978C868.444 55.978 869.046 55.852 869.587 55.6V56.762C869.279 56.8833 868.948 56.9767 868.593 57.042C868.248 57.1073 867.86 57.14 867.431 57.14ZM873.334 57.14C872.625 57.14 872.093 56.9533 871.738 56.58C871.393 56.1973 871.22 55.6793 871.22 55.026V51.554H870.24V50.364H871.22V48.838L872.732 48.376V50.364H874.496L874.398 51.554H872.732V54.942C872.732 55.3247 872.821 55.5953 872.998 55.754C873.175 55.9033 873.465 55.978 873.866 55.978C874.118 55.978 874.384 55.9313 874.664 55.838V56.916C874.3 57.0653 873.857 57.14 873.334 57.14ZM876.391 48.978V47.718H878.057V48.978H876.391ZM876.517 57V51.526H875.509L875.649 50.364H878.043V57H876.517ZM881.475 57.14C880.934 57.14 880.523 57.0093 880.243 56.748C879.963 56.4773 879.823 56.034 879.823 55.418V47.564H881.349V55.278C881.349 55.5393 881.396 55.7167 881.489 55.81C881.583 55.9033 881.723 55.95 881.909 55.95C882.133 55.95 882.348 55.922 882.553 55.866V56.972C882.376 57.0373 882.203 57.0793 882.035 57.098C881.877 57.126 881.69 57.14 881.475 57.14ZM887.107 57.14C885.95 57.14 885.054 56.8553 884.419 56.286C883.785 55.7167 883.467 54.844 883.467 53.668C883.467 52.604 883.738 51.764 884.279 51.148C884.821 50.532 885.642 50.224 886.743 50.224C887.751 50.224 888.507 50.49 889.011 51.022C889.525 51.5447 889.781 52.2213 889.781 53.052V54.284H884.923C884.998 54.928 885.231 55.3713 885.623 55.614C886.015 55.8567 886.613 55.978 887.415 55.978C887.751 55.978 888.097 55.9453 888.451 55.88C888.806 55.8147 889.114 55.7307 889.375 55.628V56.748C889.077 56.8787 888.731 56.9767 888.339 57.042C887.957 57.1073 887.546 57.14 887.107 57.14ZM884.923 53.29H888.437V52.828C888.437 52.3707 888.311 52.016 888.059 51.764C887.807 51.5027 887.383 51.372 886.785 51.372C886.076 51.372 885.586 51.526 885.315 51.834C885.054 52.142 884.923 52.6273 884.923 53.29ZM895.262 57.14C893.778 57.14 892.658 56.7387 891.902 55.936C891.155 55.1333 890.782 54.046 890.782 52.674C890.782 51.6847 890.945 50.8307 891.272 50.112C891.598 49.384 892.093 48.824 892.756 48.432C893.428 48.04 894.277 47.844 895.304 47.844C895.836 47.844 896.316 47.8813 896.746 47.956C897.184 48.0213 897.595 48.1193 897.978 48.25V49.566C897.212 49.286 896.363 49.146 895.43 49.146C894.282 49.146 893.474 49.4493 893.008 50.056C892.55 50.6627 892.322 51.5353 892.322 52.674C892.322 53.71 892.564 54.4987 893.05 55.04C893.535 55.5813 894.286 55.852 895.304 55.852C896.106 55.852 896.755 55.7587 897.25 55.572V53.052H894.996V52.058H898.552V56.398C898.262 56.5847 897.847 56.7573 897.306 56.916C896.774 57.0653 896.092 57.14 895.262 57.14ZM901.682 57.14C901.141 57.14 900.73 57.0093 900.45 56.748C900.17 56.4773 900.03 56.034 900.03 55.418V47.564H901.556V55.278C901.556 55.5393 901.603 55.7167 901.696 55.81C901.79 55.9033 901.93 55.95 902.116 55.95C902.34 55.95 902.555 55.922 902.76 55.866V56.972C902.583 57.0373 902.41 57.0793 902.242 57.098C902.084 57.126 901.897 57.14 901.682 57.14ZM907.132 57.14C905.938 57.14 905.06 56.8413 904.5 56.244C903.95 55.6467 903.674 54.7927 903.674 53.682C903.674 52.5713 903.954 51.7173 904.514 51.12C905.074 50.5227 905.947 50.224 907.132 50.224C908.327 50.224 909.204 50.5227 909.764 51.12C910.324 51.7173 910.604 52.5713 910.604 53.682C910.604 54.7927 910.324 55.6467 909.764 56.244C909.214 56.8413 908.336 57.14 907.132 57.14ZM907.132 55.852C907.832 55.852 908.327 55.684 908.616 55.348C908.915 55.0027 909.064 54.4473 909.064 53.682C909.064 52.9167 908.915 52.366 908.616 52.03C908.327 51.694 907.832 51.526 907.132 51.526C906.442 51.526 905.947 51.694 905.648 52.03C905.359 52.366 905.214 52.9167 905.214 53.682C905.214 54.4473 905.359 55.0027 905.648 55.348C905.947 55.684 906.442 55.852 907.132 55.852ZM913.661 57L911.043 50.364H912.625L914.487 55.516L916.349 50.364H917.917L915.313 57H913.661ZM922.012 57.14C920.854 57.14 919.958 56.8553 919.324 56.286C918.689 55.7167 918.372 54.844 918.372 53.668C918.372 52.604 918.642 51.764 919.184 51.148C919.725 50.532 920.546 50.224 921.648 50.224C922.656 50.224 923.412 50.49 923.916 51.022C924.429 51.5447 924.686 52.2213 924.686 53.052V54.284H919.828C919.902 54.928 920.136 55.3713 920.528 55.614C920.92 55.8567 921.517 55.978 922.32 55.978C922.656 55.978 923.001 55.9453 923.356 55.88C923.71 55.8147 924.018 55.7307 924.28 55.628V56.748C923.981 56.8787 923.636 56.9767 923.244 57.042C922.861 57.1073 922.45 57.14 922.012 57.14ZM919.828 53.29H923.342V52.828C923.342 52.3707 923.216 52.016 922.964 51.764C922.712 51.5027 922.287 51.372 921.69 51.372C920.98 51.372 920.49 51.526 920.22 51.834C919.958 52.142 919.828 52.6273 919.828 53.29Z" fill="#A9ACB9"/>
<rect x="942.5" y="40.5" width="89" height="23" rx="3.5" fill="white"/>
<rect x="942.5" y="40.5" width="89" height="23" rx="3.5" stroke="#CDD1D8"/>
<path d="M953.22 57V49.174H950.336V47.984H957.616V49.174H954.746V57H953.22ZM959.585 57.14C959.165 57.14 958.773 57.0653 958.409 56.916C958.054 56.7667 957.77 56.5427 957.555 56.244C957.34 55.936 957.233 55.558 957.233 55.11C957.233 54.4753 957.448 53.9667 957.877 53.584C958.316 53.192 958.988 52.996 959.893 52.996H962.021V52.702C962.021 52.3847 961.97 52.1327 961.867 51.946C961.774 51.7593 961.596 51.624 961.335 51.54C961.083 51.456 960.71 51.414 960.215 51.414C959.431 51.414 958.698 51.5307 958.017 51.764V50.63C958.316 50.5087 958.68 50.4107 959.109 50.336C959.538 50.2613 960 50.224 960.495 50.224C961.466 50.224 962.203 50.42 962.707 50.812C963.22 51.204 963.477 51.8433 963.477 52.73V57H962.175L962.077 56.328C961.806 56.5893 961.47 56.79 961.069 56.93C960.677 57.07 960.182 57.14 959.585 57.14ZM959.991 56.048C960.448 56.048 960.845 55.9733 961.181 55.824C961.526 55.6653 961.806 55.4553 962.021 55.194V54.032H959.921C959.473 54.032 959.146 54.1207 958.941 54.298C958.745 54.466 958.647 54.7273 958.647 55.082C958.647 55.4273 958.764 55.6747 958.997 55.824C959.23 55.9733 959.562 56.048 959.991 56.048ZM968.431 57.14C967.264 57.14 966.382 56.846 965.785 56.258C965.188 55.6607 964.889 54.802 964.889 53.682C964.889 52.5153 965.216 51.6473 965.869 51.078C966.532 50.5087 967.414 50.224 968.515 50.224C968.972 50.224 969.355 50.2567 969.663 50.322C969.98 50.3873 970.284 50.49 970.573 50.63V51.764C970.088 51.5213 969.5 51.4 968.809 51.4C968.044 51.4 967.456 51.5727 967.045 51.918C966.634 52.254 966.429 52.842 966.429 53.682C966.429 54.4753 966.611 55.0587 966.975 55.432C967.339 55.796 967.941 55.978 968.781 55.978C969.444 55.978 970.046 55.852 970.587 55.6V56.762C970.279 56.8833 969.948 56.9767 969.593 57.042C969.248 57.1073 968.86 57.14 968.431 57.14ZM974.334 57.14C973.625 57.14 973.093 56.9533 972.738 56.58C972.393 56.1973 972.22 55.6793 972.22 55.026V51.554H971.24V50.364H972.22V48.838L973.732 48.376V50.364H975.496L975.398 51.554H973.732V54.942C973.732 55.3247 973.821 55.5953 973.998 55.754C974.175 55.9033 974.465 55.978 974.866 55.978C975.118 55.978 975.384 55.9313 975.664 55.838V56.916C975.3 57.0653 974.857 57.14 974.334 57.14ZM977.391 48.978V47.718H979.057V48.978H977.391ZM977.517 57V51.526H976.509L976.649 50.364H979.043V57H977.517ZM982.475 57.14C981.934 57.14 981.523 57.0093 981.243 56.748C980.963 56.4773 980.823 56.034 980.823 55.418V47.564H982.349V55.278C982.349 55.5393 982.396 55.7167 982.489 55.81C982.583 55.9033 982.723 55.95 982.909 55.95C983.133 55.95 983.348 55.922 983.553 55.866V56.972C983.376 57.0373 983.203 57.0793 983.035 57.098C982.877 57.126 982.69 57.14 982.475 57.14ZM988.107 57.14C986.95 57.14 986.054 56.8553 985.419 56.286C984.785 55.7167 984.467 54.844 984.467 53.668C984.467 52.604 984.738 51.764 985.279 51.148C985.821 50.532 986.642 50.224 987.743 50.224C988.751 50.224 989.507 50.49 990.011 51.022C990.525 51.5447 990.781 52.2213 990.781 53.052V54.284H985.923C985.998 54.928 986.231 55.3713 986.623 55.614C987.015 55.8567 987.613 55.978 988.415 55.978C988.751 55.978 989.097 55.9453 989.451 55.88C989.806 55.8147 990.114 55.7307 990.375 55.628V56.748C990.077 56.8787 989.731 56.9767 989.339 57.042C988.957 57.1073 988.546 57.14 988.107 57.14ZM985.923 53.29H989.437V52.828C989.437 52.3707 989.311 52.016 989.059 51.764C988.807 51.5027 988.383 51.372 987.785 51.372C987.076 51.372 986.586 51.526 986.315 51.834C986.054 52.142 985.923 52.6273 985.923 53.29ZM992.267 57V47.984H993.793V51.904H998.133V47.984H999.659V57H998.133V53.08H993.793V57H992.267ZM1004.79 57.14C1003.63 57.14 1002.73 56.8553 1002.1 56.286C1001.46 55.7167 1001.15 54.844 1001.15 53.668C1001.15 52.604 1001.42 51.764 1001.96 51.148C1002.5 50.532 1003.32 50.224 1004.42 50.224C1005.43 50.224 1006.19 50.49 1006.69 51.022C1007.2 51.5447 1007.46 52.2213 1007.46 53.052V54.284H1002.6C1002.68 54.928 1002.91 55.3713 1003.3 55.614C1003.69 55.8567 1004.29 55.978 1005.09 55.978C1005.43 55.978 1005.78 55.9453 1006.13 55.88C1006.49 55.8147 1006.79 55.7307 1007.05 55.628V56.748C1006.76 56.8787 1006.41 56.9767 1006.02 57.042C1005.64 57.1073 1005.23 57.14 1004.79 57.14ZM1002.6 53.29H1006.12V52.828C1006.12 52.3707 1005.99 52.016 1005.74 51.764C1005.49 51.5027 1005.06 51.372 1004.46 51.372C1003.76 51.372 1003.27 51.526 1002.99 51.834C1002.73 52.142 1002.6 52.6273 1002.6 53.29ZM1011.02 57.14C1010.6 57.14 1010.21 57.0653 1009.84 56.916C1009.49 56.7667 1009.2 56.5427 1008.99 56.244C1008.77 55.936 1008.67 55.558 1008.67 55.11C1008.67 54.4753 1008.88 53.9667 1009.31 53.584C1009.75 53.192 1010.42 52.996 1011.33 52.996H1013.45V52.702C1013.45 52.3847 1013.4 52.1327 1013.3 51.946C1013.21 51.7593 1013.03 51.624 1012.77 51.54C1012.52 51.456 1012.14 51.414 1011.65 51.414C1010.86 51.414 1010.13 51.5307 1009.45 51.764V50.63C1009.75 50.5087 1010.11 50.4107 1010.54 50.336C1010.97 50.2613 1011.43 50.224 1011.93 50.224C1012.9 50.224 1013.64 50.42 1014.14 50.812C1014.65 51.204 1014.91 51.8433 1014.91 52.73V57H1013.61L1013.51 56.328C1013.24 56.5893 1012.9 56.79 1012.5 56.93C1012.11 57.07 1011.62 57.14 1011.02 57.14ZM1011.42 56.048C1011.88 56.048 1012.28 55.9733 1012.61 55.824C1012.96 55.6653 1013.24 55.4553 1013.45 55.194V54.032H1011.35C1010.91 54.032 1010.58 54.1207 1010.37 54.298C1010.18 54.466 1010.08 54.7273 1010.08 55.082C1010.08 55.4273 1010.2 55.6747 1010.43 55.824C1010.66 55.9733 1011 56.048 1011.42 56.048ZM1019.35 57.14C1018.75 57.14 1018.22 57.0373 1017.76 56.832C1017.31 56.6267 1016.95 56.286 1016.7 55.81C1016.45 55.334 1016.32 54.6947 1016.32 53.892C1016.32 53.0987 1016.46 52.4313 1016.73 51.89C1017 51.3393 1017.37 50.924 1017.85 50.644C1018.33 50.364 1018.88 50.224 1019.49 50.224C1019.89 50.224 1020.24 50.2707 1020.55 50.364C1020.87 50.4573 1021.17 50.602 1021.46 50.798V47.564H1022.99V57H1021.68L1021.59 56.342C1021.29 56.6127 1020.96 56.8133 1020.61 56.944C1020.25 57.0747 1019.83 57.14 1019.35 57.14ZM1019.75 55.992C1020.43 55.992 1021 55.7587 1021.46 55.292V51.974C1021.02 51.582 1020.47 51.386 1019.81 51.386C1019.16 51.386 1018.68 51.6007 1018.35 52.03C1018.03 52.4593 1017.86 53.0847 1017.86 53.906C1017.86 54.6993 1018.01 55.2453 1018.31 55.544C1018.62 55.8427 1019.1 55.992 1019.75 55.992Z" fill="#A9ACB9"/>
<rect x="1040.5" y="40.5" width="78" height="23" rx="3.5" fill="white"/>
<rect x="1040.5" y="40.5" width="78" height="23" rx="3.5" stroke="#CDD1D8"/>
<path d="M1048.88 57V47.984H1055.01V49.174H1050.41V51.904H1054.5V53.08H1050.41V57H1048.88ZM1056.58 48.978V47.718H1058.24V48.978H1056.58ZM1056.7 57V51.526H1055.7L1055.84 50.364H1058.23V57H1056.7ZM1060.01 57V50.364H1061.41L1061.48 51.064C1061.78 50.8307 1062.13 50.6347 1062.54 50.476C1062.96 50.308 1063.43 50.224 1063.93 50.224C1064.79 50.224 1065.41 50.4247 1065.81 50.826C1066.2 51.2273 1066.39 51.8527 1066.39 52.702V57H1064.88V52.772C1064.88 52.2587 1064.78 51.8993 1064.56 51.694C1064.36 51.4887 1063.96 51.386 1063.38 51.386C1063.04 51.386 1062.7 51.456 1062.36 51.596C1062.04 51.736 1061.76 51.918 1061.54 52.142V57H1060.01ZM1070.79 59.464C1070.3 59.464 1069.8 59.4313 1069.31 59.366C1068.81 59.31 1068.39 59.2213 1068.05 59.1V57.924C1068.42 58.0453 1068.85 58.1387 1069.34 58.204C1069.82 58.2693 1070.28 58.302 1070.72 58.302C1071.39 58.302 1071.88 58.2647 1072.19 58.19C1072.5 58.1153 1072.65 57.9473 1072.65 57.686C1072.65 57.49 1072.58 57.35 1072.43 57.266C1072.28 57.1913 1072 57.154 1071.58 57.154H1069.78C1068.58 57.154 1067.98 56.7293 1067.98 55.88C1067.98 55.6093 1068.06 55.3573 1068.22 55.124C1068.38 54.8907 1068.63 54.7133 1068.97 54.592C1068.59 54.4053 1068.31 54.1487 1068.12 53.822C1067.94 53.4953 1067.85 53.1033 1067.85 52.646C1067.85 51.7967 1068.1 51.1807 1068.61 50.798C1069.12 50.4153 1069.89 50.224 1070.9 50.224C1071.12 50.224 1071.34 50.2427 1071.58 50.28C1071.81 50.308 1071.99 50.336 1072.12 50.364H1074.56L1074.52 51.358H1073.4C1073.57 51.5073 1073.7 51.694 1073.79 51.918C1073.87 52.142 1073.91 52.3847 1073.91 52.646C1073.91 53.3553 1073.7 53.9153 1073.27 54.326C1072.84 54.7273 1072.19 54.928 1071.32 54.928C1071.18 54.928 1071.04 54.9233 1070.9 54.914C1070.78 54.8953 1070.65 54.8767 1070.5 54.858C1070.22 54.886 1069.97 54.9607 1069.74 55.082C1069.52 55.2033 1069.41 55.3667 1069.41 55.572C1069.41 55.712 1069.46 55.8147 1069.57 55.88C1069.69 55.936 1069.87 55.964 1070.13 55.964H1072C1072.66 55.964 1073.17 56.1087 1073.52 56.398C1073.89 56.678 1074.07 57.0887 1074.07 57.63C1074.07 58.2833 1073.78 58.75 1073.21 59.03C1072.65 59.3193 1071.85 59.464 1070.79 59.464ZM1070.9 53.962C1071.51 53.962 1071.93 53.8593 1072.16 53.654C1072.41 53.4487 1072.53 53.0987 1072.53 52.604C1072.53 52.1093 1072.41 51.75 1072.16 51.526C1071.93 51.302 1071.51 51.19 1070.9 51.19C1070.34 51.19 1069.92 51.2973 1069.66 51.512C1069.4 51.7267 1069.27 52.0907 1069.27 52.604C1069.27 53.08 1069.39 53.4253 1069.63 53.64C1069.88 53.8547 1070.31 53.962 1070.9 53.962ZM1079.08 57.14C1077.92 57.14 1077.03 56.8553 1076.39 56.286C1075.76 55.7167 1075.44 54.844 1075.44 53.668C1075.44 52.604 1075.71 51.764 1076.25 51.148C1076.79 50.532 1077.61 50.224 1078.72 50.224C1079.72 50.224 1080.48 50.49 1080.98 51.022C1081.5 51.5447 1081.75 52.2213 1081.75 53.052V54.284H1076.9C1076.97 54.928 1077.2 55.3713 1077.6 55.614C1077.99 55.8567 1078.59 55.978 1079.39 55.978C1079.72 55.978 1080.07 55.9453 1080.42 55.88C1080.78 55.8147 1081.09 55.7307 1081.35 55.628V56.748C1081.05 56.8787 1080.7 56.9767 1080.31 57.042C1079.93 57.1073 1079.52 57.14 1079.08 57.14ZM1076.9 53.29H1080.41V52.828C1080.41 52.3707 1080.28 52.016 1080.03 51.764C1079.78 51.5027 1079.36 51.372 1078.76 51.372C1078.05 51.372 1077.56 51.526 1077.29 51.834C1077.03 52.142 1076.9 52.6273 1076.9 53.29ZM1083.24 57V50.364H1084.64L1084.72 51.134C1085.04 50.9287 1085.42 50.742 1085.86 50.574C1086.3 50.406 1086.73 50.2893 1087.16 50.224V51.386C1086.9 51.4327 1086.61 51.5027 1086.31 51.596C1086.01 51.68 1085.72 51.778 1085.45 51.89C1085.18 51.9927 1084.95 52.1 1084.77 52.212V57H1083.24ZM1089.56 57V49.174H1086.67V47.984H1093.95V49.174H1091.08V57H1089.56ZM1095.17 57V47.984H1099.19C1099.88 47.984 1100.45 48.1147 1100.9 48.376C1101.35 48.6373 1101.68 48.9967 1101.89 49.454C1102.11 49.902 1102.22 50.4153 1102.22 50.994C1102.22 51.89 1101.94 52.6087 1101.38 53.15C1100.83 53.6913 1100.08 53.962 1099.14 53.962H1096.7V57H1095.17ZM1096.7 52.758H1098.86C1099.46 52.758 1099.92 52.5993 1100.23 52.282C1100.54 51.9647 1100.69 51.5353 1100.69 50.994C1100.69 50.4153 1100.54 49.9673 1100.24 49.65C1099.95 49.3327 1099.51 49.174 1098.93 49.174H1096.7V52.758ZM1106.16 57.14C1105 57.14 1104.06 56.9907 1103.35 56.692V55.348C1103.75 55.4973 1104.18 55.6187 1104.64 55.712C1105.1 55.8053 1105.57 55.852 1106.02 55.852C1106.74 55.852 1107.28 55.768 1107.63 55.6C1108 55.432 1108.18 55.096 1108.18 54.592C1108.18 54.284 1108.1 54.0367 1107.95 53.85C1107.81 53.6633 1107.56 53.5047 1107.21 53.374C1106.87 53.234 1106.39 53.0893 1105.78 52.94C1104.81 52.688 1104.13 52.3707 1103.74 51.988C1103.35 51.596 1103.15 51.0593 1103.15 50.378C1103.15 49.5847 1103.44 48.964 1104.02 48.516C1104.6 48.068 1105.46 47.844 1106.61 47.844C1107.13 47.844 1107.62 47.8813 1108.08 47.956C1108.55 48.0307 1108.91 48.1147 1109.17 48.208V49.552C1108.46 49.2813 1107.68 49.146 1106.82 49.146C1106.15 49.146 1105.63 49.2347 1105.25 49.412C1104.88 49.5893 1104.69 49.9113 1104.69 50.378C1104.69 50.6487 1104.76 50.868 1104.89 51.036C1105.02 51.204 1105.24 51.3487 1105.56 51.47C1105.89 51.5913 1106.34 51.7267 1106.9 51.876C1107.64 52.0627 1108.21 52.2867 1108.61 52.548C1109.02 52.8 1109.31 53.0987 1109.47 53.444C1109.63 53.78 1109.72 54.1627 1109.72 54.592C1109.72 55.3853 1109.42 56.0107 1108.84 56.468C1108.25 56.916 1107.36 57.14 1106.16 57.14Z" fill="#A9ACB9"/>
<path d="M1156 24.5H1644C1645.93 24.5 1647.5 26.067 1647.5 28V60C1647.5 61.933 1645.93 63.5 1644 63.5H1156C1154.07 63.5 1152.5 61.933 1152.5 60V28C1152.5 26.067 1154.07 24.5 1156 24.5Z" fill="white"/>
<path d="M1156 24.5H1644C1645.93 24.5 1647.5 26.067 1647.5 28V60C1647.5 61.933 1645.93 63.5 1644 63.5H1156C1154.07 63.5 1152.5 61.933 1152.5 60V28C1152.5 26.067 1154.07 24.5 1156 24.5Z" stroke="#ECEDF1"/>
<path d="M1352.72 50.16C1351.08 50.16 1349.86 49.7333 1349.05 48.88C1348.24 48.016 1347.84 46.6827 1347.84 44.88C1347.84 43.0027 1348.24 41.6427 1349.05 40.8C1349.86 39.9573 1351.08 39.536 1352.72 39.536C1354.36 39.536 1355.58 39.9573 1356.38 40.8C1357.19 41.6427 1357.6 43.0027 1357.6 44.88C1357.6 46.6827 1357.19 48.016 1356.38 48.88C1355.58 49.7333 1354.36 50.16 1352.72 50.16ZM1352.72 48.688C1353.79 48.688 1354.58 48.3947 1355.08 47.808C1355.6 47.2107 1355.85 46.2347 1355.85 44.88C1355.85 43.4507 1355.6 42.4533 1355.08 41.888C1354.58 41.312 1353.79 41.024 1352.72 41.024C1351.65 41.024 1350.86 41.312 1350.35 41.888C1349.85 42.4533 1349.6 43.4507 1349.6 44.88C1349.6 46.2347 1349.85 47.2107 1350.35 47.808C1350.86 48.3947 1351.65 48.688 1352.72 48.688ZM1359.76 50V43.776H1358.66V42.416H1359.76V41.488C1359.76 40.7307 1359.97 40.1227 1360.39 39.664C1360.81 39.1947 1361.44 38.96 1362.27 38.96C1362.58 38.96 1362.87 38.9867 1363.12 39.04C1363.38 39.0827 1363.61 39.1467 1363.83 39.232V40.48C1363.49 40.3627 1363.16 40.304 1362.82 40.304C1362.32 40.304 1361.97 40.3947 1361.78 40.576C1361.59 40.7573 1361.49 41.0667 1361.49 41.504V42.416H1363.47L1363.39 43.776H1361.49V50H1359.76ZM1364.89 50V43.776H1363.78V42.416H1364.89V41.632C1364.89 41.1093 1365.01 40.6507 1365.25 40.256C1365.51 39.8507 1365.86 39.536 1366.31 39.312C1366.77 39.0773 1367.3 38.96 1367.91 38.96C1368.28 38.96 1368.64 38.9867 1368.97 39.04C1369.3 39.0827 1369.57 39.1467 1369.78 39.232V40.528C1369.64 40.464 1369.44 40.416 1369.17 40.384C1368.91 40.352 1368.66 40.336 1368.42 40.336C1367.8 40.336 1367.34 40.4427 1367.05 40.656C1366.76 40.8693 1366.61 41.2053 1366.61 41.664V42.416H1370.89V50H1369.14V43.776H1366.61V50H1364.89ZM1376.63 50.16C1375.3 50.16 1374.29 49.824 1373.61 49.152C1372.93 48.4693 1372.59 47.488 1372.59 46.208C1372.59 44.8747 1372.96 43.8827 1373.71 43.232C1374.46 42.5813 1375.47 42.256 1376.73 42.256C1377.25 42.256 1377.69 42.2933 1378.04 42.368C1378.41 42.4427 1378.75 42.56 1379.08 42.72V44.016C1378.53 43.7387 1377.86 43.6 1377.07 43.6C1376.19 43.6 1375.52 43.7973 1375.05 44.192C1374.58 44.576 1374.35 45.248 1374.35 46.208C1374.35 47.1147 1374.55 47.7813 1374.97 48.208C1375.39 48.624 1376.07 48.832 1377.03 48.832C1377.79 48.832 1378.48 48.688 1379.1 48.4V49.728C1378.75 49.8667 1378.37 49.9733 1377.96 50.048C1377.57 50.1227 1377.13 50.16 1376.63 50.16ZM1384.32 50.16C1383 50.16 1381.98 49.8347 1381.25 49.184C1380.53 48.5333 1380.16 47.536 1380.16 46.192C1380.16 44.976 1380.47 44.016 1381.09 43.312C1381.71 42.608 1382.65 42.256 1383.91 42.256C1385.06 42.256 1385.92 42.56 1386.5 43.168C1387.09 43.7653 1387.38 44.5387 1387.38 45.488V46.896H1381.83C1381.91 47.632 1382.18 48.1387 1382.63 48.416C1383.08 48.6933 1383.76 48.832 1384.68 48.832C1385.06 48.832 1385.46 48.7947 1385.86 48.72C1386.27 48.6453 1386.62 48.5493 1386.92 48.432V49.712C1386.58 49.8613 1386.18 49.9733 1385.73 50.048C1385.3 50.1227 1384.83 50.16 1384.32 50.16ZM1381.83 45.76H1385.84V45.232C1385.84 44.7093 1385.7 44.304 1385.41 44.016C1385.12 43.7173 1384.64 43.568 1383.96 43.568C1383.15 43.568 1382.59 43.744 1382.28 44.096C1381.98 44.448 1381.83 45.0027 1381.83 45.76ZM1395.89 50.16C1394.55 50.16 1393.48 49.9893 1392.67 49.648V48.112C1393.13 48.2827 1393.62 48.4213 1394.14 48.528C1394.68 48.6347 1395.2 48.688 1395.73 48.688C1396.55 48.688 1397.16 48.592 1397.57 48.4C1397.98 48.208 1398.19 47.824 1398.19 47.248C1398.19 46.896 1398.1 46.6133 1397.93 46.4C1397.76 46.1867 1397.48 46.0053 1397.09 45.856C1396.69 45.696 1396.15 45.5307 1395.45 45.36C1394.34 45.072 1393.57 44.7093 1393.12 44.272C1392.67 43.824 1392.45 43.2107 1392.45 42.432C1392.45 41.5253 1392.78 40.816 1393.44 40.304C1394.1 39.792 1395.09 39.536 1396.4 39.536C1397 39.536 1397.56 39.5787 1398.08 39.664C1398.61 39.7493 1399.03 39.8453 1399.33 39.952V41.488C1398.52 41.1787 1397.62 41.024 1396.64 41.024C1395.87 41.024 1395.27 41.1253 1394.85 41.328C1394.42 41.5307 1394.21 41.8987 1394.21 42.432C1394.21 42.7413 1394.28 42.992 1394.43 43.184C1394.58 43.376 1394.84 43.5413 1395.2 43.68C1395.57 43.8187 1396.08 43.9733 1396.73 44.144C1397.58 44.3573 1398.23 44.6133 1398.69 44.912C1399.16 45.2 1399.48 45.5413 1399.66 45.936C1399.85 46.32 1399.95 46.7573 1399.95 47.248C1399.95 48.1547 1399.61 48.8693 1398.94 49.392C1398.27 49.904 1397.25 50.16 1395.89 50.16ZM1404.3 50.16C1403.39 50.16 1402.69 49.9093 1402.2 49.408C1401.72 48.9067 1401.48 48.1707 1401.48 47.2V42.416H1403.23V47.2C1403.23 47.7653 1403.37 48.1813 1403.64 48.448C1403.92 48.7147 1404.35 48.848 1404.92 48.848C1405.35 48.848 1405.74 48.768 1406.11 48.608C1406.47 48.448 1406.78 48.2347 1407.05 47.968V42.416H1408.78V50H1407.19L1407.11 49.216C1406.77 49.4827 1406.37 49.7067 1405.9 49.888C1405.43 50.0693 1404.9 50.16 1404.3 50.16ZM1410.81 53.456V42.416H1412.32L1412.41 43.168C1412.75 42.8587 1413.13 42.6293 1413.53 42.48C1413.94 42.3307 1414.42 42.256 1414.97 42.256C1416.06 42.256 1416.91 42.5547 1417.52 43.152C1418.12 43.7387 1418.43 44.7147 1418.43 46.08C1418.43 47.4453 1418.11 48.4693 1417.48 49.152C1416.86 49.824 1416 50.16 1414.91 50.16C1413.99 50.16 1413.21 49.9467 1412.56 49.52V53.456H1410.81ZM1414.46 48.848C1415.93 48.848 1416.67 47.92 1416.67 46.064C1416.67 45.168 1416.5 44.5333 1416.17 44.16C1415.84 43.776 1415.29 43.584 1414.51 43.584C1413.73 43.584 1413.08 43.8507 1412.56 44.384V48.176C1412.8 48.3787 1413.07 48.544 1413.37 48.672C1413.68 48.7893 1414.04 48.848 1414.46 48.848ZM1420.13 53.456V42.416H1421.63L1421.73 43.168C1422.07 42.8587 1422.44 42.6293 1422.85 42.48C1423.25 42.3307 1423.73 42.256 1424.29 42.256C1425.37 42.256 1426.22 42.5547 1426.83 43.152C1427.44 43.7387 1427.74 44.7147 1427.74 46.08C1427.74 47.4453 1427.43 48.4693 1426.8 49.152C1426.17 49.824 1425.31 50.16 1424.22 50.16C1423.3 50.16 1422.52 49.9467 1421.87 49.52V53.456H1420.13ZM1423.77 48.848C1425.25 48.848 1425.98 47.92 1425.98 46.064C1425.98 45.168 1425.82 44.5333 1425.49 44.16C1425.15 43.776 1424.6 43.584 1423.82 43.584C1423.04 43.584 1422.39 43.8507 1421.87 44.384V48.176C1422.11 48.3787 1422.39 48.544 1422.69 48.672C1422.99 48.7893 1423.36 48.848 1423.77 48.848ZM1431.33 50.16C1430.71 50.16 1430.24 50.0107 1429.92 49.712C1429.6 49.4027 1429.44 48.896 1429.44 48.192V39.216H1431.18V48.032C1431.18 48.3307 1431.24 48.5333 1431.34 48.64C1431.45 48.7467 1431.61 48.8 1431.82 48.8C1432.08 48.8 1432.32 48.768 1432.56 48.704V49.968C1432.36 50.0427 1432.16 50.0907 1431.97 50.112C1431.78 50.144 1431.57 50.16 1431.33 50.16ZM1434 40.832V39.392H1435.9V40.832H1434ZM1434.14 50V43.744H1432.99L1433.15 42.416H1435.89V50H1434.14ZM1441.76 50.16C1440.44 50.16 1439.42 49.8347 1438.69 49.184C1437.96 48.5333 1437.6 47.536 1437.6 46.192C1437.6 44.976 1437.91 44.016 1438.53 43.312C1439.15 42.608 1440.09 42.256 1441.35 42.256C1442.5 42.256 1443.36 42.56 1443.94 43.168C1444.52 43.7653 1444.82 44.5387 1444.82 45.488V46.896H1439.27C1439.35 47.632 1439.62 48.1387 1440.07 48.416C1440.51 48.6933 1441.2 48.832 1442.11 48.832C1442.5 48.832 1442.89 48.7947 1443.3 48.72C1443.7 48.6453 1444.06 48.5493 1444.35 48.432V49.712C1444.01 49.8613 1443.62 49.9733 1443.17 50.048C1442.73 50.1227 1442.26 50.16 1441.76 50.16ZM1439.27 45.76H1443.28V45.232C1443.28 44.7093 1443.14 44.304 1442.85 44.016C1442.56 43.7173 1442.08 43.568 1441.39 43.568C1440.58 43.568 1440.02 43.744 1439.71 44.096C1439.42 44.448 1439.27 45.0027 1439.27 45.76ZM1448.97 50.16C1448.44 50.16 1447.94 50.1227 1447.46 50.048C1446.99 49.9733 1446.6 49.8827 1446.29 49.776V48.304C1446.66 48.4427 1447.06 48.5493 1447.49 48.624C1447.93 48.6987 1448.35 48.736 1448.74 48.736C1449.34 48.736 1449.77 48.6827 1450.02 48.576C1450.28 48.4693 1450.41 48.2613 1450.41 47.952C1450.41 47.728 1450.33 47.552 1450.17 47.424C1450.02 47.296 1449.79 47.1787 1449.48 47.072C1449.18 46.9653 1448.8 46.8373 1448.33 46.688C1447.88 46.5387 1447.49 46.3787 1447.16 46.208C1446.83 46.0267 1446.57 45.7973 1446.39 45.52C1446.21 45.2427 1446.12 44.88 1446.12 44.432C1446.12 43.7387 1446.37 43.2053 1446.87 42.832C1447.37 42.448 1448.18 42.256 1449.29 42.256C1449.72 42.256 1450.14 42.288 1450.53 42.352C1450.93 42.416 1451.26 42.496 1451.54 42.592V44.048C1451.24 43.9307 1450.91 43.84 1450.55 43.776C1450.2 43.712 1449.87 43.68 1449.56 43.68C1449 43.68 1448.58 43.728 1448.29 43.824C1448.02 43.92 1447.88 44.112 1447.88 44.4C1447.88 44.6987 1448.02 44.912 1448.31 45.04C1448.61 45.1573 1449.08 45.3227 1449.73 45.536C1450.33 45.7173 1450.81 45.9093 1451.16 46.112C1451.51 46.3147 1451.76 46.56 1451.91 46.848C1452.07 47.1253 1452.15 47.488 1452.15 47.936C1452.15 48.6827 1451.88 49.2427 1451.33 49.616C1450.79 49.9787 1450 50.16 1448.97 50.16Z" fill="#1E293B"/>
<path d="M1617.53 40.7634L1624 47.2366L1630.47 40.7634" stroke="#A9ACB9" stroke-width="3" stroke-linecap="round" stroke-linejoin="round"/>
</svg>
