<svg width="1680" height="72" viewBox="0 0 1680 72" fill="none" xmlns="http://www.w3.org/2000/svg">
<path d="M37.936 28.16C36.208 28.16 34.8853 27.696 33.968 26.768C33.0507 25.8293 32.592 24.5547 32.592 22.944C32.592 21.2373 33.0347 19.9093 33.92 18.96C34.816 18.0107 36.1493 17.536 37.92 17.536C38.5387 17.536 39.0933 17.584 39.584 17.68C40.0853 17.7653 40.5547 17.888 40.992 18.048V19.936C40.0853 19.5627 39.1147 19.376 38.08 19.376C36.9067 19.376 36.064 19.6693 35.552 20.256C35.04 20.8427 34.784 21.7387 34.784 22.944C34.784 25.2053 35.8933 26.336 38.112 26.336C38.6133 26.336 39.1093 26.2933 39.6 26.208C40.0907 26.112 40.56 25.9733 41.008 25.792V27.696C40.5707 27.8347 40.1013 27.9467 39.6 28.032C39.1093 28.1173 38.5547 28.16 37.936 28.16ZM44.8898 28.16C44.4098 28.16 43.9618 28.0747 43.5458 27.904C43.1404 27.7227 42.8098 27.4613 42.5538 27.12C42.3084 26.768 42.1858 26.3307 42.1858 25.808C42.1858 25.0613 42.4471 24.464 42.9698 24.016C43.5031 23.568 44.2871 23.344 45.3218 23.344H47.5618V23.136C47.5618 22.6667 47.4284 22.336 47.1618 22.144C46.9058 21.952 46.3831 21.856 45.5938 21.856C44.7298 21.856 43.8978 21.9893 43.0978 22.256V20.736C43.4498 20.5973 43.8764 20.4853 44.3778 20.4C44.8898 20.304 45.4444 20.256 46.0418 20.256C47.1831 20.256 48.0631 20.4907 48.6818 20.96C49.3111 21.4187 49.6258 22.16 49.6258 23.184V28H47.7538L47.6418 27.312C47.3431 27.5787 46.9751 27.7867 46.5378 27.936C46.1004 28.0853 45.5511 28.16 44.8898 28.16ZM45.4818 26.736C45.9618 26.736 46.3778 26.656 46.7298 26.496C47.0818 26.336 47.3591 26.1333 47.5618 25.888V24.688H45.3698C44.5271 24.688 44.1058 25.0347 44.1058 25.728C44.1058 26.4 44.5644 26.736 45.4818 26.736ZM54.3731 28.16C53.4985 28.16 52.8478 27.9307 52.4211 27.472C52.0051 27.0133 51.7971 26.3893 51.7971 25.6V22.08H50.7251V20.416H51.7971V18.784L53.9571 18.144V20.416H55.8771L55.7491 22.08H53.9571V25.456C53.9571 25.872 54.0531 26.16 54.2451 26.32C54.4371 26.4693 54.7358 26.544 55.1411 26.544C55.4398 26.544 55.7491 26.4907 56.0691 26.384V27.872C55.8345 27.968 55.5785 28.0373 55.3011 28.08C55.0238 28.1333 54.7145 28.16 54.3731 28.16ZM61.1296 28.16C59.8176 28.16 58.7776 27.8347 58.0096 27.184C57.2416 26.5227 56.8576 25.5253 56.8576 24.192C56.8576 22.9867 57.1776 22.032 57.8176 21.328C58.4683 20.6133 59.4336 20.256 60.7136 20.256C61.887 20.256 62.783 20.5653 63.4016 21.184C64.031 21.792 64.3456 22.592 64.3456 23.584V24.96H58.8576C58.975 25.568 59.2523 25.984 59.6896 26.208C60.1376 26.432 60.767 26.544 61.5776 26.544C61.983 26.544 62.3936 26.5067 62.8096 26.432C63.2363 26.3573 63.599 26.2613 63.8976 26.144V27.68C63.5456 27.84 63.135 27.9573 62.6656 28.032C62.1963 28.1173 61.6843 28.16 61.1296 28.16ZM58.8576 23.632H62.4576V23.216C62.4576 22.7787 62.3296 22.4373 62.0736 22.192C61.8176 21.936 61.3856 21.808 60.7776 21.808C60.063 21.808 59.5616 21.952 59.2736 22.24C58.9963 22.528 58.8576 22.992 58.8576 23.632ZM69.0495 30.816C68.4842 30.816 67.9028 30.7787 67.3055 30.704C66.7188 30.6293 66.2228 30.5227 65.8175 30.384V28.768C66.2442 28.9067 66.7455 29.0133 67.3215 29.088C67.8975 29.1733 68.4362 29.216 68.9375 29.216C69.6735 29.216 70.2068 29.1733 70.5375 29.088C70.8682 29.0133 71.0335 28.8747 71.0335 28.672C71.0335 28.5013 70.9588 28.384 70.8095 28.32C70.6708 28.256 70.3722 28.224 69.9135 28.224H67.8495C66.4948 28.224 65.8175 27.7227 65.8175 26.72C65.8175 26.4107 65.9028 26.128 66.0735 25.872C66.2442 25.616 66.5162 25.4133 66.8895 25.264C66.0255 24.8267 65.5935 24.0907 65.5935 23.056C65.5935 22.0747 65.8975 21.3653 66.5055 20.928C67.1135 20.48 68.0148 20.256 69.2095 20.256C69.4548 20.256 69.7215 20.2773 70.0095 20.32C70.3082 20.352 70.5322 20.384 70.6815 20.416H73.5295L73.4815 21.776H72.2815C72.6122 22.0853 72.7775 22.5173 72.7775 23.072C72.7775 23.8507 72.5322 24.4747 72.0415 24.944C71.5508 25.4027 70.8255 25.632 69.8655 25.632C69.6948 25.632 69.5295 25.6267 69.3695 25.616C69.2202 25.5947 69.0655 25.5733 68.9055 25.552C68.5855 25.5947 68.3135 25.6693 68.0895 25.776C67.8762 25.8827 67.7695 26.0267 67.7695 26.208C67.7695 26.4533 67.9882 26.576 68.4255 26.576H70.5695C71.3375 26.576 71.9295 26.752 72.3455 27.104C72.7615 27.4453 72.9695 27.9467 72.9695 28.608C72.9695 29.3547 72.6335 29.9093 71.9615 30.272C71.2895 30.6347 70.3188 30.816 69.0495 30.816ZM69.2255 24.416C69.8655 24.416 70.3082 24.3093 70.5535 24.096C70.8095 23.872 70.9375 23.4987 70.9375 22.976C70.9375 22.4533 70.8095 22.0747 70.5535 21.84C70.3082 21.6053 69.8655 21.488 69.2255 21.488C68.6175 21.488 68.1802 21.6053 67.9135 21.84C67.6468 22.064 67.5135 22.4427 67.5135 22.976C67.5135 23.4667 67.6362 23.8293 67.8815 24.064C68.1375 24.2987 68.5855 24.416 69.2255 24.416ZM78.4696 28.16C77.051 28.16 76.011 27.8187 75.3496 27.136C74.6883 26.4427 74.3576 25.4667 74.3576 24.208C74.3576 22.9493 74.6883 21.9787 75.3496 21.296C76.0216 20.6027 77.0616 20.256 78.4696 20.256C79.8883 20.256 80.9283 20.6027 81.5896 21.296C82.2616 21.9787 82.5976 22.9493 82.5976 24.208C82.5976 25.4667 82.267 26.4427 81.6056 27.136C80.9443 27.8187 79.899 28.16 78.4696 28.16ZM78.4696 26.32C79.163 26.32 79.659 26.1653 79.9576 25.856C80.2563 25.536 80.4056 24.9867 80.4056 24.208C80.4056 23.4293 80.2563 22.8853 79.9576 22.576C79.659 22.256 79.163 22.096 78.4696 22.096C77.787 22.096 77.2963 22.256 76.9976 22.576C76.699 22.8853 76.5496 23.4293 76.5496 24.208C76.5496 24.9867 76.699 25.536 76.9976 25.856C77.2963 26.1653 77.787 26.32 78.4696 26.32ZM84.0995 28V20.416H86.0995L86.1955 21.2C86.5368 20.9867 86.9582 20.7947 87.4595 20.624C87.9715 20.4427 88.4728 20.32 88.9635 20.256V21.888C88.6755 21.9307 88.3608 21.9947 88.0195 22.08C87.6782 22.1653 87.3528 22.2613 87.0435 22.368C86.7342 22.4747 86.4728 22.5867 86.2595 22.704V28H84.0995ZM91.4898 30.816C91.1591 30.816 90.8658 30.7947 90.6098 30.752C90.3538 30.72 90.1031 30.656 89.8578 30.56V29.04C90.0391 29.104 90.2044 29.1467 90.3538 29.168C90.5138 29.1893 90.6738 29.2 90.8338 29.2C91.2711 29.2 91.6071 29.0987 91.8418 28.896C92.0871 28.6933 92.3324 28.352 92.5778 27.872L89.1858 20.416H91.4418L93.6658 25.568L95.8738 20.416H98.1138L95.1218 27.472C94.8444 28.1333 94.5404 28.7147 94.2098 29.216C93.8898 29.728 93.5111 30.1227 93.0738 30.4C92.6364 30.6773 92.1084 30.816 91.4898 30.816Z" fill="#1E293B"/>
<path d="M36 40.5H268C269.933 40.5 271.5 42.067 271.5 44V60C271.5 61.933 269.933 63.5 268 63.5H36C34.067 63.5 32.5 61.933 32.5 60V44L32.5049 43.8203C32.5984 41.9708 34.1273 40.5 36 40.5Z" fill="white"/>
<path d="M36 40.5H268C269.933 40.5 271.5 42.067 271.5 44V60C271.5 61.933 269.933 63.5 268 63.5H36C34.067 63.5 32.5 61.933 32.5 60V44L32.5049 43.8203C32.5984 41.9708 34.1273 40.5 36 40.5Z" stroke="#ECEDF1"/>
<path d="M251 50.5L256 55.5L261 50.5" stroke="#A9ACB9" stroke-width="2" stroke-linecap="round" stroke-linejoin="round"/>
<path d="M300.112 25.66C299.451 25.66 298.832 25.612 298.256 25.516C297.691 25.42 297.2 25.2813 296.784 25.1V23.196C297.253 23.388 297.76 23.5427 298.304 23.66C298.848 23.7773 299.381 23.836 299.904 23.836C300.651 23.836 301.2 23.7667 301.552 23.628C301.904 23.4893 302.08 23.1747 302.08 22.684C302.08 22.3747 302.005 22.1293 301.856 21.948C301.707 21.7667 301.445 21.6067 301.072 21.468C300.709 21.3187 300.192 21.1533 299.52 20.972C298.443 20.6733 297.685 20.3 297.248 19.852C296.811 19.404 296.592 18.7853 296.592 17.996C296.592 17.0467 296.939 16.316 297.632 15.804C298.325 15.292 299.333 15.036 300.656 15.036C301.275 15.036 301.851 15.0787 302.384 15.164C302.917 15.2493 303.349 15.3507 303.68 15.468V17.372C302.805 17.0413 301.893 16.876 300.944 16.876C300.272 16.876 299.744 16.9507 299.36 17.1C298.976 17.2387 298.784 17.5373 298.784 17.996C298.784 18.2627 298.853 18.476 298.992 18.636C299.131 18.796 299.365 18.94 299.696 19.068C300.037 19.196 300.512 19.34 301.12 19.5C301.963 19.724 302.613 19.9907 303.072 20.3C303.531 20.6093 303.845 20.9613 304.016 21.356C304.197 21.7507 304.288 22.1933 304.288 22.684C304.288 23.58 303.947 24.3 303.264 24.844C302.581 25.388 301.531 25.66 300.112 25.66ZM308.561 25.66C307.686 25.66 307.035 25.4307 306.609 24.972C306.193 24.5133 305.985 23.8893 305.985 23.1V19.58H304.913V17.916H305.985V16.284L308.145 15.644V17.916H310.065L309.937 19.58H308.145V22.956C308.145 23.372 308.241 23.66 308.433 23.82C308.625 23.9693 308.923 24.044 309.329 24.044C309.627 24.044 309.937 23.9907 310.257 23.884V25.372C310.022 25.468 309.766 25.5373 309.489 25.58C309.211 25.6333 308.902 25.66 308.561 25.66ZM313.749 25.66C313.269 25.66 312.821 25.5747 312.405 25.404C312 25.2227 311.669 24.9613 311.413 24.62C311.168 24.268 311.045 23.8307 311.045 23.308C311.045 22.5613 311.306 21.964 311.829 21.516C312.362 21.068 313.146 20.844 314.181 20.844H316.421V20.636C316.421 20.1667 316.288 19.836 316.021 19.644C315.765 19.452 315.242 19.356 314.453 19.356C313.589 19.356 312.757 19.4893 311.957 19.756V18.236C312.309 18.0973 312.736 17.9853 313.237 17.9C313.749 17.804 314.304 17.756 314.901 17.756C316.042 17.756 316.922 17.9907 317.541 18.46C318.17 18.9187 318.485 19.66 318.485 20.684V25.5H316.613L316.501 24.812C316.202 25.0787 315.834 25.2867 315.397 25.436C314.96 25.5853 314.41 25.66 313.749 25.66ZM314.341 24.236C314.821 24.236 315.237 24.156 315.589 23.996C315.941 23.836 316.218 23.6333 316.421 23.388V22.188H314.229C313.386 22.188 312.965 22.5347 312.965 23.228C312.965 23.9 313.424 24.236 314.341 24.236ZM323.233 25.66C322.358 25.66 321.707 25.4307 321.281 24.972C320.865 24.5133 320.657 23.8893 320.657 23.1V19.58H319.585V17.916H320.657V16.284L322.817 15.644V17.916H324.737L324.609 19.58H322.817V22.956C322.817 23.372 322.913 23.66 323.105 23.82C323.297 23.9693 323.595 24.044 324.001 24.044C324.299 24.044 324.609 23.9907 324.929 23.884V25.372C324.694 25.468 324.438 25.5373 324.161 25.58C323.883 25.6333 323.574 25.66 323.233 25.66ZM328.837 25.66C327.93 25.66 327.221 25.4093 326.709 24.908C326.208 24.396 325.957 23.6493 325.957 22.668V17.916H328.117V22.62C328.117 23.132 328.24 23.5053 328.485 23.74C328.73 23.964 329.098 24.076 329.589 24.076C329.962 24.076 330.304 24.0013 330.613 23.852C330.933 23.7027 331.205 23.516 331.429 23.292V17.916H333.589V25.5H331.589L331.509 24.78C331.189 25.036 330.81 25.2493 330.373 25.42C329.946 25.58 329.434 25.66 328.837 25.66ZM338.1 25.66C337.534 25.66 336.996 25.6173 336.484 25.532C335.972 25.4573 335.561 25.3613 335.252 25.244V23.452C335.625 23.6013 336.046 23.7187 336.516 23.804C336.985 23.8787 337.417 23.916 337.812 23.916C338.345 23.916 338.718 23.884 338.932 23.82C339.156 23.756 339.268 23.612 339.268 23.388C339.268 23.132 339.097 22.9453 338.756 22.828C338.425 22.7107 337.929 22.5453 337.268 22.332C336.574 22.0973 336.041 21.8147 335.668 21.484C335.294 21.1533 335.108 20.6627 335.108 20.012C335.108 19.2867 335.369 18.732 335.892 18.348C336.425 17.9533 337.278 17.756 338.452 17.756C338.921 17.756 339.364 17.7933 339.78 17.868C340.196 17.932 340.548 18.012 340.836 18.108V19.884C340.548 19.7453 340.217 19.644 339.844 19.58C339.47 19.5053 339.124 19.468 338.804 19.468C338.345 19.468 337.977 19.5 337.7 19.564C337.433 19.628 337.3 19.7667 337.3 19.98C337.3 20.2147 337.444 20.38 337.732 20.476C338.03 20.572 338.489 20.716 339.108 20.908C339.716 21.0893 340.19 21.2867 340.532 21.5C340.873 21.7133 341.113 21.9693 341.252 22.268C341.39 22.556 341.46 22.9187 341.46 23.356C341.46 24.892 340.34 25.66 338.1 25.66Z" fill="#1E293B"/>
<rect x="296.5" y="40.5" width="55" height="23" rx="3.5" fill="white"/>
<rect x="296.5" y="40.5" width="55" height="23" rx="3.5" stroke="#CDD1D8"/>
<path d="M304.616 57L308.06 47.984H309.768L313.184 57H311.616L310.72 54.676H307.094L306.198 57H304.616ZM307.332 53.5H310.468L308.9 49.37L307.332 53.5ZM317.318 57.14C316.151 57.14 315.269 56.846 314.672 56.258C314.074 55.6607 313.776 54.802 313.776 53.682C313.776 52.5153 314.102 51.6473 314.756 51.078C315.418 50.5087 316.3 50.224 317.402 50.224C317.859 50.224 318.242 50.2567 318.55 50.322C318.867 50.3873 319.17 50.49 319.46 50.63V51.764C318.974 51.5213 318.386 51.4 317.696 51.4C316.93 51.4 316.342 51.5727 315.932 51.918C315.521 52.254 315.316 52.842 315.316 53.682C315.316 54.4753 315.498 55.0587 315.862 55.432C316.226 55.796 316.828 55.978 317.668 55.978C318.33 55.978 318.932 55.852 319.474 55.6V56.762C319.166 56.8833 318.834 56.9767 318.48 57.042C318.134 57.1073 317.747 57.14 317.318 57.14ZM323.221 57.14C322.511 57.14 321.979 56.9533 321.625 56.58C321.279 56.1973 321.107 55.6793 321.107 55.026V51.554H320.127V50.364H321.107V48.838L322.619 48.376V50.364H324.383L324.285 51.554H322.619V54.942C322.619 55.3247 322.707 55.5953 322.885 55.754C323.062 55.9033 323.351 55.978 323.753 55.978C324.005 55.978 324.271 55.9313 324.551 55.838V56.916C324.187 57.0653 323.743 57.14 323.221 57.14ZM326.278 48.978V47.718H327.944V48.978H326.278ZM326.404 57V51.526H325.396L325.536 50.364H327.93V57H326.404ZM331.775 57L329.157 50.364H330.739L332.601 55.516L334.463 50.364H336.031L333.427 57H331.775ZM340.125 57.14C338.967 57.14 338.071 56.8553 337.437 56.286C336.802 55.7167 336.485 54.844 336.485 53.668C336.485 52.604 336.755 51.764 337.297 51.148C337.838 50.532 338.659 50.224 339.761 50.224C340.769 50.224 341.525 50.49 342.029 51.022C342.542 51.5447 342.799 52.2213 342.799 53.052V54.284H337.941C338.015 54.928 338.249 55.3713 338.641 55.614C339.033 55.8567 339.63 55.978 340.433 55.978C340.769 55.978 341.114 55.9453 341.469 55.88C341.823 55.8147 342.131 55.7307 342.393 55.628V56.748C342.094 56.8787 341.749 56.9767 341.357 57.042C340.974 57.1073 340.563 57.14 340.125 57.14ZM337.941 53.29H341.455V52.828C341.455 52.3707 341.329 52.016 341.077 51.764C340.825 51.5027 340.4 51.372 339.803 51.372C339.093 51.372 338.603 51.526 338.333 51.834C338.071 52.142 337.941 52.6273 337.941 53.29Z" fill="#A9ACB9"/>
<rect x="360.5" y="40.5" width="65" height="23" rx="3.5" fill="white"/>
<rect x="360.5" y="40.5" width="65" height="23" rx="3.5" stroke="#CDD1D8"/>
<path d="M368.882 57V47.984H370.408V57H368.882ZM372.177 57V50.364H373.577L373.647 51.064C373.946 50.8307 374.3 50.6347 374.711 50.476C375.131 50.308 375.593 50.224 376.097 50.224C376.956 50.224 377.581 50.4247 377.973 50.826C378.365 51.2273 378.561 51.8527 378.561 52.702V57H377.049V52.772C377.049 52.2587 376.942 51.8993 376.727 51.694C376.522 51.4887 376.13 51.386 375.551 51.386C375.206 51.386 374.865 51.456 374.529 51.596C374.202 51.736 373.927 51.918 373.703 52.142V57H372.177ZM382.138 57.14C381.718 57.14 381.326 57.0653 380.962 56.916C380.607 56.7667 380.322 56.5427 380.108 56.244C379.893 55.936 379.786 55.558 379.786 55.11C379.786 54.4753 380 53.9667 380.43 53.584C380.868 53.192 381.54 52.996 382.446 52.996H384.574V52.702C384.574 52.3847 384.522 52.1327 384.42 51.946C384.326 51.7593 384.149 51.624 383.888 51.54C383.636 51.456 383.262 51.414 382.768 51.414C381.984 51.414 381.251 51.5307 380.57 51.764V50.63C380.868 50.5087 381.232 50.4107 381.662 50.336C382.091 50.2613 382.553 50.224 383.048 50.224C384.018 50.224 384.756 50.42 385.26 50.812C385.773 51.204 386.03 51.8433 386.03 52.73V57H384.728L384.63 56.328C384.359 56.5893 384.023 56.79 383.622 56.93C383.23 57.07 382.735 57.14 382.138 57.14ZM382.544 56.048C383.001 56.048 383.398 55.9733 383.734 55.824C384.079 55.6653 384.359 55.4553 384.574 55.194V54.032H382.474C382.026 54.032 381.699 54.1207 381.494 54.298C381.298 54.466 381.2 54.7273 381.2 55.082C381.2 55.4273 381.316 55.6747 381.55 55.824C381.783 55.9733 382.114 56.048 382.544 56.048ZM390.984 57.14C389.817 57.14 388.935 56.846 388.338 56.258C387.741 55.6607 387.442 54.802 387.442 53.682C387.442 52.5153 387.769 51.6473 388.422 51.078C389.085 50.5087 389.967 50.224 391.068 50.224C391.525 50.224 391.908 50.2567 392.216 50.322C392.533 50.3873 392.837 50.49 393.126 50.63V51.764C392.641 51.5213 392.053 51.4 391.362 51.4C390.597 51.4 390.009 51.5727 389.598 51.918C389.187 52.254 388.982 52.842 388.982 53.682C388.982 54.4753 389.164 55.0587 389.528 55.432C389.892 55.796 390.494 55.978 391.334 55.978C391.997 55.978 392.599 55.852 393.14 55.6V56.762C392.832 56.8833 392.501 56.9767 392.146 57.042C391.801 57.1073 391.413 57.14 390.984 57.14ZM396.887 57.14C396.177 57.14 395.645 56.9533 395.291 56.58C394.945 56.1973 394.773 55.6793 394.773 55.026V51.554H393.793V50.364H394.773V48.838L396.285 48.376V50.364H398.049L397.951 51.554H396.285V54.942C396.285 55.3247 396.373 55.5953 396.551 55.754C396.728 55.9033 397.017 55.978 397.419 55.978C397.671 55.978 397.937 55.9313 398.217 55.838V56.916C397.853 57.0653 397.409 57.14 396.887 57.14ZM399.944 48.978V47.718H401.61V48.978H399.944ZM400.07 57V51.526H399.062L399.202 50.364H401.596V57H400.07ZM405.441 57L402.823 50.364H404.405L406.267 55.516L408.129 50.364H409.697L407.093 57H405.441ZM413.791 57.14C412.633 57.14 411.737 56.8553 411.103 56.286C410.468 55.7167 410.151 54.844 410.151 53.668C410.151 52.604 410.421 51.764 410.963 51.148C411.504 50.532 412.325 50.224 413.427 50.224C414.435 50.224 415.191 50.49 415.695 51.022C416.208 51.5447 416.465 52.2213 416.465 53.052V54.284H411.607C411.681 54.928 411.915 55.3713 412.307 55.614C412.699 55.8567 413.296 55.978 414.099 55.978C414.435 55.978 414.78 55.9453 415.135 55.88C415.489 55.8147 415.797 55.7307 416.059 55.628V56.748C415.76 56.8787 415.415 56.9767 415.023 57.042C414.64 57.1073 414.229 57.14 413.791 57.14ZM411.607 53.29H415.121V52.828C415.121 52.3707 414.995 52.016 414.743 51.764C414.491 51.5027 414.066 51.372 413.469 51.372C412.759 51.372 412.269 51.526 411.999 51.834C411.737 52.142 411.607 52.6273 411.607 53.29Z" fill="#A9ACB9"/>
<rect x="434.5" y="40.5" width="79" height="23" rx="3.5" fill="white"/>
<rect x="434.5" y="40.5" width="79" height="23" rx="3.5" stroke="#CDD1D8"/>
<path d="M442.882 57V47.984H444.408V55.824H449.028V57H442.882ZM453.06 57.14C451.865 57.14 450.988 56.8413 450.428 56.244C449.877 55.6467 449.602 54.7927 449.602 53.682C449.602 52.5713 449.882 51.7173 450.442 51.12C451.002 50.5227 451.875 50.224 453.06 50.224C454.255 50.224 455.132 50.5227 455.692 51.12C456.252 51.7173 456.532 52.5713 456.532 53.682C456.532 54.7927 456.252 55.6467 455.692 56.244C455.141 56.8413 454.264 57.14 453.06 57.14ZM453.06 55.852C453.76 55.852 454.255 55.684 454.544 55.348C454.843 55.0027 454.992 54.4473 454.992 53.682C454.992 52.9167 454.843 52.366 454.544 52.03C454.255 51.694 453.76 51.526 453.06 51.526C452.369 51.526 451.875 51.694 451.576 52.03C451.287 52.366 451.142 52.9167 451.142 53.682C451.142 54.4473 451.287 55.0027 451.576 55.348C451.875 55.684 452.369 55.852 453.06 55.852ZM458.858 57L457.108 50.364H458.634L459.782 55.194L461.084 51.176V50.364H462.246L463.688 55.194L464.836 50.364H466.348L464.612 57H463.17L461.756 52.66L460.314 57H458.858ZM473.79 57.14C472.623 57.14 471.685 56.9907 470.976 56.692V55.348C471.377 55.4973 471.806 55.6187 472.264 55.712C472.73 55.8053 473.192 55.852 473.65 55.852C474.368 55.852 474.905 55.768 475.26 55.6C475.624 55.432 475.806 55.096 475.806 54.592C475.806 54.284 475.731 54.0367 475.582 53.85C475.432 53.6633 475.185 53.5047 474.84 53.374C474.494 53.234 474.018 53.0893 473.412 52.94C472.441 52.688 471.76 52.3707 471.368 51.988C470.976 51.596 470.78 51.0593 470.78 50.378C470.78 49.5847 471.069 48.964 471.648 48.516C472.226 48.068 473.09 47.844 474.238 47.844C474.76 47.844 475.25 47.8813 475.708 47.956C476.174 48.0307 476.538 48.1147 476.8 48.208V49.552C476.09 49.2813 475.306 49.146 474.448 49.146C473.776 49.146 473.253 49.2347 472.88 49.412C472.506 49.5893 472.32 49.9113 472.32 50.378C472.32 50.6487 472.385 50.868 472.516 51.036C472.646 51.204 472.87 51.3487 473.188 51.47C473.514 51.5913 473.962 51.7267 474.532 51.876C475.269 52.0627 475.838 52.2867 476.24 52.548C476.65 52.8 476.935 53.0987 477.094 53.444C477.262 53.78 477.346 54.1627 477.346 54.592C477.346 55.3853 477.052 56.0107 476.464 56.468C475.876 56.916 474.984 57.14 473.79 57.14ZM481.154 57.14C480.445 57.14 479.913 56.9533 479.558 56.58C479.213 56.1973 479.04 55.6793 479.04 55.026V51.554H478.06V50.364H479.04V48.838L480.552 48.376V50.364H482.316L482.218 51.554H480.552V54.942C480.552 55.3247 480.641 55.5953 480.818 55.754C480.996 55.9033 481.285 55.978 481.686 55.978C481.938 55.978 482.204 55.9313 482.484 55.838V56.916C482.12 57.0653 481.677 57.14 481.154 57.14ZM486.83 57.14C485.635 57.14 484.758 56.8413 484.198 56.244C483.647 55.6467 483.372 54.7927 483.372 53.682C483.372 52.5713 483.652 51.7173 484.212 51.12C484.772 50.5227 485.644 50.224 486.83 50.224C488.024 50.224 488.902 50.5227 489.462 51.12C490.022 51.7173 490.302 52.5713 490.302 53.682C490.302 54.7927 490.022 55.6467 489.462 56.244C488.911 56.8413 488.034 57.14 486.83 57.14ZM486.83 55.852C487.53 55.852 488.024 55.684 488.314 55.348C488.612 55.0027 488.762 54.4473 488.762 53.682C488.762 52.9167 488.612 52.366 488.314 52.03C488.024 51.694 487.53 51.526 486.83 51.526C486.139 51.526 485.644 51.694 485.346 52.03C485.056 52.366 484.912 52.9167 484.912 53.682C484.912 54.4473 485.056 55.0027 485.346 55.348C485.644 55.684 486.139 55.852 486.83 55.852ZM495.048 57.14C493.882 57.14 493 56.846 492.402 56.258C491.805 55.6607 491.506 54.802 491.506 53.682C491.506 52.5153 491.833 51.6473 492.486 51.078C493.149 50.5087 494.031 50.224 495.132 50.224C495.59 50.224 495.972 50.2567 496.28 50.322C496.598 50.3873 496.901 50.49 497.19 50.63V51.764C496.705 51.5213 496.117 51.4 495.426 51.4C494.661 51.4 494.073 51.5727 493.662 51.918C493.252 52.254 493.046 52.842 493.046 53.682C493.046 54.4753 493.228 55.0587 493.592 55.432C493.956 55.796 494.558 55.978 495.398 55.978C496.061 55.978 496.663 55.852 497.204 55.6V56.762C496.896 56.8833 496.565 56.9767 496.21 57.042C495.865 57.1073 495.478 57.14 495.048 57.14ZM498.417 57V47.564H499.943V53.024L502.729 50.364H504.479L501.777 53.038L504.633 57H503.023L500.825 53.85L499.943 54.69V57H498.417Z" fill="#A9ACB9"/>
<path d="M538 8V64" stroke="#ECEDF1" stroke-linecap="round"/>
<path d="M562.912 25.5V15.196H565.072V23.836H570.144V25.5H562.912ZM574.72 25.66C573.301 25.66 572.261 25.3187 571.6 24.636C570.938 23.9427 570.608 22.9667 570.608 21.708C570.608 20.4493 570.938 19.4787 571.6 18.796C572.272 18.1027 573.312 17.756 574.72 17.756C576.138 17.756 577.178 18.1027 577.84 18.796C578.512 19.4787 578.848 20.4493 578.848 21.708C578.848 22.9667 578.517 23.9427 577.856 24.636C577.194 25.3187 576.149 25.66 574.72 25.66ZM574.72 23.82C575.413 23.82 575.909 23.6653 576.208 23.356C576.506 23.036 576.656 22.4867 576.656 21.708C576.656 20.9293 576.506 20.3853 576.208 20.076C575.909 19.756 575.413 19.596 574.72 19.596C574.037 19.596 573.546 19.756 573.248 20.076C572.949 20.3853 572.8 20.9293 572.8 21.708C572.8 22.4867 572.949 23.036 573.248 23.356C573.546 23.6653 574.037 23.82 574.72 23.82ZM584.222 25.66C582.867 25.66 581.827 25.324 581.102 24.652C580.387 23.98 580.03 22.9987 580.03 21.708C580.03 20.3747 580.414 19.3827 581.182 18.732C581.96 18.0813 582.995 17.756 584.286 17.756C584.819 17.756 585.278 17.7933 585.662 17.868C586.046 17.9427 586.419 18.0653 586.782 18.236V19.788C586.515 19.66 586.206 19.5587 585.854 19.484C585.502 19.4093 585.123 19.372 584.718 19.372C583.907 19.372 583.288 19.5427 582.862 19.884C582.435 20.2147 582.222 20.8227 582.222 21.708C582.222 22.5187 582.414 23.1107 582.798 23.484C583.192 23.8573 583.827 24.044 584.702 24.044C585.075 24.044 585.438 24.0067 585.79 23.932C586.152 23.8573 586.488 23.7453 586.798 23.596V25.196C586.083 25.5053 585.224 25.66 584.222 25.66ZM590.546 25.66C590.066 25.66 589.618 25.5747 589.202 25.404C588.797 25.2227 588.466 24.9613 588.21 24.62C587.965 24.268 587.842 23.8307 587.842 23.308C587.842 22.5613 588.103 21.964 588.626 21.516C589.159 21.068 589.943 20.844 590.978 20.844H593.218V20.636C593.218 20.1667 593.085 19.836 592.818 19.644C592.562 19.452 592.039 19.356 591.25 19.356C590.386 19.356 589.554 19.4893 588.754 19.756V18.236C589.106 18.0973 589.533 17.9853 590.034 17.9C590.546 17.804 591.101 17.756 591.698 17.756C592.839 17.756 593.719 17.9907 594.338 18.46C594.967 18.9187 595.282 19.66 595.282 20.684V25.5H593.41L593.298 24.812C592.999 25.0787 592.631 25.2867 592.194 25.436C591.757 25.5853 591.207 25.66 590.546 25.66ZM591.138 24.236C591.618 24.236 592.034 24.156 592.386 23.996C592.738 23.836 593.015 23.6333 593.218 23.388V22.188H591.026C590.183 22.188 589.762 22.5347 589.762 23.228C589.762 23.9 590.221 24.236 591.138 24.236ZM600.029 25.66C599.155 25.66 598.504 25.4307 598.077 24.972C597.661 24.5133 597.453 23.8893 597.453 23.1V19.58H596.381V17.916H597.453V16.284L599.613 15.644V17.916H601.533L601.405 19.58H599.613V22.956C599.613 23.372 599.709 23.66 599.901 23.82C600.093 23.9693 600.392 24.044 600.797 24.044C601.096 24.044 601.405 23.9907 601.725 23.884V25.372C601.491 25.468 601.235 25.5373 600.957 25.58C600.68 25.6333 600.371 25.66 600.029 25.66ZM603.362 16.524V14.828H605.714V16.524H603.362ZM603.538 25.5V19.516H602.402L602.594 17.916H605.698V25.5H603.538ZM611.329 25.66C609.91 25.66 608.87 25.3187 608.209 24.636C607.548 23.9427 607.217 22.9667 607.217 21.708C607.217 20.4493 607.548 19.4787 608.209 18.796C608.881 18.1027 609.921 17.756 611.329 17.756C612.748 17.756 613.788 18.1027 614.449 18.796C615.121 19.4787 615.457 20.4493 615.457 21.708C615.457 22.9667 615.126 23.9427 614.465 24.636C613.804 25.3187 612.758 25.66 611.329 25.66ZM611.329 23.82C612.022 23.82 612.518 23.6653 612.817 23.356C613.116 23.036 613.265 22.4867 613.265 21.708C613.265 20.9293 613.116 20.3853 612.817 20.076C612.518 19.756 612.022 19.596 611.329 19.596C610.646 19.596 610.156 19.756 609.857 20.076C609.558 20.3853 609.409 20.9293 609.409 21.708C609.409 22.4867 609.558 23.036 609.857 23.356C610.156 23.6653 610.646 23.82 611.329 23.82ZM616.959 25.5V17.916H618.959L619.039 18.636C619.348 18.4013 619.738 18.1987 620.207 18.028C620.687 17.8467 621.188 17.756 621.711 17.756C622.714 17.756 623.444 17.9907 623.903 18.46C624.362 18.9293 624.591 19.6547 624.591 20.636V25.5H622.431V20.748C622.431 20.236 622.324 19.8733 622.111 19.66C621.908 19.4467 621.524 19.34 620.959 19.34C620.628 19.34 620.292 19.4147 619.951 19.564C619.62 19.7133 619.343 19.9 619.119 20.124V25.5H616.959Z" fill="#1E293B"/>
<rect x="562.5" y="40.5" width="32" height="23" rx="3.5" fill="white"/>
<rect x="562.5" y="40.5" width="32" height="23" rx="3.5" stroke="#CDD1D8"/>
<path d="M570.616 57L574.06 47.984H575.768L579.184 57H577.616L576.72 54.676H573.094L572.198 57H570.616ZM573.332 53.5H576.468L574.9 49.37L573.332 53.5ZM581.626 57.14C581.084 57.14 580.674 57.0093 580.394 56.748C580.114 56.4773 579.974 56.034 579.974 55.418V47.564H581.5V55.278C581.5 55.5393 581.546 55.7167 581.64 55.81C581.733 55.9033 581.873 55.95 582.06 55.95C582.284 55.95 582.498 55.922 582.704 55.866V56.972C582.526 57.0373 582.354 57.0793 582.186 57.098C582.027 57.126 581.84 57.14 581.626 57.14ZM585.194 57.14C584.653 57.14 584.242 57.0093 583.962 56.748C583.682 56.4773 583.542 56.034 583.542 55.418V47.564H585.068V55.278C585.068 55.5393 585.115 55.7167 585.208 55.81C585.301 55.9033 585.441 55.95 585.628 55.95C585.852 55.95 586.067 55.922 586.272 55.866V56.972C586.095 57.0373 585.922 57.0793 585.754 57.098C585.595 57.126 585.409 57.14 585.194 57.14Z" fill="#A9ACB9"/>
<rect x="603.5" y="40.5" width="33" height="23" rx="3.5" fill="white"/>
<rect x="603.5" y="40.5" width="33" height="23" rx="3.5" stroke="#CDD1D8"/>
<path d="M611.882 57V47.984H613.408V55.824H618.028V57H611.882ZM618.971 57L622.415 47.984H624.123L627.539 57H625.971L625.075 54.676H621.449L620.553 57H618.971ZM621.687 53.5H624.823L623.255 49.37L621.687 53.5Z" fill="#A9ACB9"/>
<rect x="645.5" y="40.5" width="34" height="23" rx="3.5" fill="white"/>
<rect x="645.5" y="40.5" width="34" height="23" rx="3.5" stroke="#CDD1D8"/>
<path d="M657.06 57L653.616 47.984H655.198L657.9 55.362L660.602 47.984H662.184L658.768 57H657.06ZM663.48 57V47.984H664.824L669.528 54.62V47.984H671.04V57H669.696L665.006 50.378V57H663.48Z" fill="#A9ACB9"/>
<rect x="688.5" y="40.5" width="34" height="23" rx="3.5" fill="white"/>
<rect x="688.5" y="40.5" width="34" height="23" rx="3.5" stroke="#CDD1D8"/>
<path d="M700.732 57.14C699.491 57.14 698.525 56.8413 697.834 56.244C697.153 55.6467 696.812 54.7833 696.812 53.654V47.984H698.338V53.598C698.338 54.354 698.543 54.9187 698.954 55.292C699.374 55.6653 699.967 55.852 700.732 55.852C701.488 55.852 702.071 55.6653 702.482 55.292C702.902 54.9187 703.112 54.354 703.112 53.598V47.984H704.624V53.654C704.624 54.7833 704.283 55.6467 703.602 56.244C702.921 56.8413 701.964 57.14 700.732 57.14ZM706.316 57V47.984H707.842V52.128L711.678 47.984H713.442L710.124 51.624L713.582 57H711.958L709.172 52.59L707.842 54.018V57H706.316Z" fill="#A9ACB9"/>
<rect x="731.5" y="40.5" width="33" height="23" rx="3.5" fill="white"/>
<rect x="731.5" y="40.5" width="33" height="23" rx="3.5" stroke="#CDD1D8"/>
<path d="M739.882 57V47.984H741.408V52.128L745.244 47.984H747.008L743.69 51.624L747.148 57H745.524L742.738 52.59L741.408 54.018V57H739.882ZM748.632 57V47.984H752.776C753.784 47.984 754.517 48.2453 754.974 48.768C755.441 49.2813 755.674 49.9813 755.674 50.868C755.674 51.5027 755.515 52.044 755.198 52.492C754.881 52.94 754.423 53.2527 753.826 53.43C753.994 53.5513 754.125 53.682 754.218 53.822C754.311 53.962 754.405 54.1487 754.498 54.382L755.632 57H754.064L752.958 54.48C752.855 54.2373 752.729 54.0647 752.58 53.962C752.44 53.8593 752.197 53.808 751.852 53.808H750.158V57H748.632ZM750.158 52.576H752.37C752.921 52.576 753.355 52.4407 753.672 52.17C753.989 51.8993 754.148 51.4653 754.148 50.868C754.148 49.7387 753.602 49.174 752.51 49.174H750.158V52.576Z" fill="#A9ACB9"/>
<path d="M789 8V64" stroke="#ECEDF1" stroke-linecap="round"/>
<path d="M816.44 25.5V16.86H813.272V15.196H821.752V16.86H818.6V25.5H816.44ZM824.124 25.66C823.644 25.66 823.196 25.5747 822.78 25.404C822.375 25.2227 822.044 24.9613 821.788 24.62C821.543 24.268 821.42 23.8307 821.42 23.308C821.42 22.5613 821.681 21.964 822.204 21.516C822.737 21.068 823.521 20.844 824.556 20.844H826.796V20.636C826.796 20.1667 826.663 19.836 826.396 19.644C826.14 19.452 825.617 19.356 824.828 19.356C823.964 19.356 823.132 19.4893 822.332 19.756V18.236C822.684 18.0973 823.111 17.9853 823.612 17.9C824.124 17.804 824.679 17.756 825.276 17.756C826.417 17.756 827.297 17.9907 827.916 18.46C828.545 18.9187 828.86 19.66 828.86 20.684V25.5H826.988L826.876 24.812C826.577 25.0787 826.209 25.2867 825.772 25.436C825.335 25.5853 824.785 25.66 824.124 25.66ZM824.716 24.236C825.196 24.236 825.612 24.156 825.964 23.996C826.316 23.836 826.593 23.6333 826.796 23.388V22.188H824.604C823.761 22.188 823.34 22.5347 823.34 23.228C823.34 23.9 823.799 24.236 824.716 24.236ZM833.799 28.316C833.234 28.316 832.653 28.2787 832.056 28.204C831.469 28.1293 830.973 28.0227 830.568 27.884V26.268C830.994 26.4067 831.496 26.5133 832.072 26.588C832.648 26.6733 833.186 26.716 833.688 26.716C834.424 26.716 834.957 26.6733 835.288 26.588C835.618 26.5133 835.784 26.3747 835.784 26.172C835.784 26.0013 835.709 25.884 835.56 25.82C835.421 25.756 835.122 25.724 834.664 25.724H832.6C831.245 25.724 830.568 25.2227 830.568 24.22C830.568 23.9107 830.653 23.628 830.824 23.372C830.994 23.116 831.266 22.9133 831.64 22.764C830.776 22.3267 830.344 21.5907 830.344 20.556C830.344 19.5747 830.648 18.8653 831.256 18.428C831.864 17.98 832.765 17.756 833.96 17.756C834.205 17.756 834.472 17.7773 834.76 17.82C835.058 17.852 835.282 17.884 835.432 17.916H838.28L838.232 19.276H837.032C837.362 19.5853 837.528 20.0173 837.528 20.572C837.528 21.3507 837.282 21.9747 836.792 22.444C836.301 22.9027 835.576 23.132 834.616 23.132C834.445 23.132 834.28 23.1267 834.12 23.116C833.97 23.0947 833.816 23.0733 833.656 23.052C833.336 23.0947 833.064 23.1693 832.84 23.276C832.626 23.3827 832.52 23.5267 832.52 23.708C832.52 23.9533 832.738 24.076 833.176 24.076H835.32C836.088 24.076 836.68 24.252 837.096 24.604C837.512 24.9453 837.72 25.4467 837.72 26.108C837.72 26.8547 837.384 27.4093 836.712 27.772C836.04 28.1347 835.069 28.316 833.799 28.316ZM833.976 21.916C834.616 21.916 835.058 21.8093 835.304 21.596C835.56 21.372 835.688 20.9987 835.688 20.476C835.688 19.9533 835.56 19.5747 835.304 19.34C835.058 19.1053 834.616 18.988 833.976 18.988C833.368 18.988 832.93 19.1053 832.664 19.34C832.397 19.564 832.264 19.9427 832.264 20.476C832.264 20.9667 832.386 21.3293 832.632 21.564C832.888 21.7987 833.336 21.916 833.976 21.916ZM841.85 25.66C841.284 25.66 840.746 25.6173 840.234 25.532C839.722 25.4573 839.311 25.3613 839.002 25.244V23.452C839.375 23.6013 839.796 23.7187 840.266 23.804C840.735 23.8787 841.167 23.916 841.562 23.916C842.095 23.916 842.468 23.884 842.682 23.82C842.906 23.756 843.018 23.612 843.018 23.388C843.018 23.132 842.847 22.9453 842.506 22.828C842.175 22.7107 841.679 22.5453 841.018 22.332C840.324 22.0973 839.791 21.8147 839.418 21.484C839.044 21.1533 838.858 20.6627 838.858 20.012C838.858 19.2867 839.119 18.732 839.642 18.348C840.175 17.9533 841.028 17.756 842.202 17.756C842.671 17.756 843.114 17.7933 843.53 17.868C843.946 17.932 844.298 18.012 844.586 18.108V19.884C844.298 19.7453 843.967 19.644 843.594 19.58C843.22 19.5053 842.874 19.468 842.554 19.468C842.095 19.468 841.727 19.5 841.45 19.564C841.183 19.628 841.05 19.7667 841.05 19.98C841.05 20.2147 841.194 20.38 841.482 20.476C841.78 20.572 842.239 20.716 842.858 20.908C843.466 21.0893 843.94 21.2867 844.282 21.5C844.623 21.7133 844.863 21.9693 845.002 22.268C845.14 22.556 845.21 22.9187 845.21 23.356C845.21 24.892 844.09 25.66 841.85 25.66Z" fill="#1E293B"/>
<rect x="813.5" y="40.5" width="60" height="23" rx="3.5" fill="white"/>
<rect x="813.5" y="40.5" width="60" height="23" rx="3.5" stroke="#CDD1D8"/>
<path d="M826.11 57.14C824.626 57.14 823.501 56.734 822.736 55.922C821.98 55.11 821.602 54.0133 821.602 52.632C821.602 51.6427 821.761 50.7933 822.078 50.084C822.405 49.3653 822.899 48.8147 823.562 48.432C824.225 48.04 825.069 47.844 826.096 47.844C826.619 47.844 827.095 47.886 827.524 47.97C827.963 48.0447 828.369 48.1473 828.742 48.278V49.608C828.369 49.4587 827.967 49.3467 827.538 49.272C827.118 49.188 826.675 49.146 826.208 49.146C825.088 49.146 824.295 49.4447 823.828 50.042C823.371 50.6393 823.142 51.5027 823.142 52.632C823.142 53.6867 823.394 54.4893 823.898 55.04C824.402 55.5813 825.181 55.852 826.236 55.852C826.665 55.852 827.095 55.8193 827.524 55.754C827.963 55.6793 828.373 55.5673 828.756 55.418V56.762C828.383 56.8833 827.977 56.9767 827.538 57.042C827.109 57.1073 826.633 57.14 826.11 57.14ZM830.236 57V50.364H831.636L831.72 51.134C832.037 50.9287 832.415 50.742 832.854 50.574C833.292 50.406 833.726 50.2893 834.156 50.224V51.386C833.894 51.4327 833.61 51.5027 833.302 51.596C833.003 51.68 832.718 51.778 832.448 51.89C832.177 51.9927 831.948 52.1 831.762 52.212V57H830.236ZM835.827 48.978V47.718H837.493V48.978H835.827ZM835.953 57V51.526H834.945L835.085 50.364H837.479V57H835.953ZM841.793 57.14C841.084 57.14 840.552 56.9533 840.197 56.58C839.852 56.1973 839.679 55.6793 839.679 55.026V51.554H838.699V50.364H839.679V48.838L841.191 48.376V50.364H842.955L842.857 51.554H841.191V54.942C841.191 55.3247 841.28 55.5953 841.457 55.754C841.634 55.9033 841.924 55.978 842.325 55.978C842.577 55.978 842.843 55.9313 843.123 55.838V56.916C842.759 57.0653 842.316 57.14 841.793 57.14ZM844.85 48.978V47.718H846.516V48.978H844.85ZM844.976 57V51.526H843.968L844.108 50.364H846.502V57H844.976ZM851.544 57.14C850.378 57.14 849.496 56.846 848.898 56.258C848.301 55.6607 848.002 54.802 848.002 53.682C848.002 52.5153 848.329 51.6473 848.982 51.078C849.645 50.5087 850.527 50.224 851.628 50.224C852.086 50.224 852.468 50.2567 852.776 50.322C853.094 50.3873 853.397 50.49 853.686 50.63V51.764C853.201 51.5213 852.613 51.4 851.922 51.4C851.157 51.4 850.569 51.5727 850.158 51.918C849.748 52.254 849.542 52.842 849.542 53.682C849.542 54.4753 849.724 55.0587 850.088 55.432C850.452 55.796 851.054 55.978 851.894 55.978C852.557 55.978 853.159 55.852 853.7 55.6V56.762C853.392 56.8833 853.061 56.9767 852.706 57.042C852.361 57.1073 851.974 57.14 851.544 57.14ZM856.985 57.14C856.565 57.14 856.173 57.0653 855.809 56.916C855.455 56.7667 855.17 56.5427 854.955 56.244C854.741 55.936 854.633 55.558 854.633 55.11C854.633 54.4753 854.848 53.9667 855.277 53.584C855.716 53.192 856.388 52.996 857.293 52.996H859.421V52.702C859.421 52.3847 859.37 52.1327 859.267 51.946C859.174 51.7593 858.997 51.624 858.735 51.54C858.483 51.456 858.11 51.414 857.615 51.414C856.831 51.414 856.099 51.5307 855.417 51.764V50.63C855.716 50.5087 856.08 50.4107 856.509 50.336C856.939 50.2613 857.401 50.224 857.895 50.224C858.866 50.224 859.603 50.42 860.107 50.812C860.621 51.204 860.877 51.8433 860.877 52.73V57H859.575L859.477 56.328C859.207 56.5893 858.871 56.79 858.469 56.93C858.077 57.07 857.583 57.14 856.985 57.14ZM857.391 56.048C857.849 56.048 858.245 55.9733 858.581 55.824C858.927 55.6653 859.207 55.4553 859.421 55.194V54.032H857.321C856.873 54.032 856.547 54.1207 856.341 54.298C856.145 54.466 856.047 54.7273 856.047 55.082C856.047 55.4273 856.164 55.6747 856.397 55.824C856.631 55.9733 856.962 56.048 857.391 56.048ZM864.222 57.14C863.68 57.14 863.27 57.0093 862.99 56.748C862.71 56.4773 862.57 56.034 862.57 55.418V47.564H864.096V55.278C864.096 55.5393 864.142 55.7167 864.236 55.81C864.329 55.9033 864.469 55.95 864.656 55.95C864.88 55.95 865.094 55.922 865.3 55.866V56.972C865.122 57.0373 864.95 57.0793 864.782 57.098C864.623 57.126 864.436 57.14 864.222 57.14Z" fill="#A9ACB9"/>
<rect x="882.5" y="40.5" width="92" height="23" rx="3.5" fill="white"/>
<rect x="882.5" y="40.5" width="92" height="23" rx="3.5" stroke="#CDD1D8"/>
<path d="M893.22 57V49.174H890.336V47.984H897.616V49.174H894.746V57H893.22ZM899.585 57.14C899.165 57.14 898.773 57.0653 898.409 56.916C898.054 56.7667 897.77 56.5427 897.555 56.244C897.34 55.936 897.233 55.558 897.233 55.11C897.233 54.4753 897.448 53.9667 897.877 53.584C898.316 53.192 898.988 52.996 899.893 52.996H902.021V52.702C902.021 52.3847 901.97 52.1327 901.867 51.946C901.774 51.7593 901.596 51.624 901.335 51.54C901.083 51.456 900.71 51.414 900.215 51.414C899.431 51.414 898.698 51.5307 898.017 51.764V50.63C898.316 50.5087 898.68 50.4107 899.109 50.336C899.538 50.2613 900 50.224 900.495 50.224C901.466 50.224 902.203 50.42 902.707 50.812C903.22 51.204 903.477 51.8433 903.477 52.73V57H902.175L902.077 56.328C901.806 56.5893 901.47 56.79 901.069 56.93C900.677 57.07 900.182 57.14 899.585 57.14ZM899.991 56.048C900.448 56.048 900.845 55.9733 901.181 55.824C901.526 55.6653 901.806 55.4553 902.021 55.194V54.032H899.921C899.473 54.032 899.146 54.1207 898.941 54.298C898.745 54.466 898.647 54.7273 898.647 55.082C898.647 55.4273 898.764 55.6747 898.997 55.824C899.23 55.9733 899.562 56.048 899.991 56.048ZM908.431 57.14C907.264 57.14 906.382 56.846 905.785 56.258C905.188 55.6607 904.889 54.802 904.889 53.682C904.889 52.5153 905.216 51.6473 905.869 51.078C906.532 50.5087 907.414 50.224 908.515 50.224C908.972 50.224 909.355 50.2567 909.663 50.322C909.98 50.3873 910.284 50.49 910.573 50.63V51.764C910.088 51.5213 909.5 51.4 908.809 51.4C908.044 51.4 907.456 51.5727 907.045 51.918C906.634 52.254 906.429 52.842 906.429 53.682C906.429 54.4753 906.611 55.0587 906.975 55.432C907.339 55.796 907.941 55.978 908.781 55.978C909.444 55.978 910.046 55.852 910.587 55.6V56.762C910.279 56.8833 909.948 56.9767 909.593 57.042C909.248 57.1073 908.86 57.14 908.431 57.14ZM914.334 57.14C913.625 57.14 913.093 56.9533 912.738 56.58C912.393 56.1973 912.22 55.6793 912.22 55.026V51.554H911.24V50.364H912.22V48.838L913.732 48.376V50.364H915.496L915.398 51.554H913.732V54.942C913.732 55.3247 913.821 55.5953 913.998 55.754C914.175 55.9033 914.465 55.978 914.866 55.978C915.118 55.978 915.384 55.9313 915.664 55.838V56.916C915.3 57.0653 914.857 57.14 914.334 57.14ZM917.391 48.978V47.718H919.057V48.978H917.391ZM917.517 57V51.526H916.509L916.649 50.364H919.043V57H917.517ZM922.475 57.14C921.934 57.14 921.523 57.0093 921.243 56.748C920.963 56.4773 920.823 56.034 920.823 55.418V47.564H922.349V55.278C922.349 55.5393 922.396 55.7167 922.489 55.81C922.583 55.9033 922.723 55.95 922.909 55.95C923.133 55.95 923.348 55.922 923.553 55.866V56.972C923.376 57.0373 923.203 57.0793 923.035 57.098C922.877 57.126 922.69 57.14 922.475 57.14ZM928.107 57.14C926.95 57.14 926.054 56.8553 925.419 56.286C924.785 55.7167 924.467 54.844 924.467 53.668C924.467 52.604 924.738 51.764 925.279 51.148C925.821 50.532 926.642 50.224 927.743 50.224C928.751 50.224 929.507 50.49 930.011 51.022C930.525 51.5447 930.781 52.2213 930.781 53.052V54.284H925.923C925.998 54.928 926.231 55.3713 926.623 55.614C927.015 55.8567 927.613 55.978 928.415 55.978C928.751 55.978 929.097 55.9453 929.451 55.88C929.806 55.8147 930.114 55.7307 930.375 55.628V56.748C930.077 56.8787 929.731 56.9767 929.339 57.042C928.957 57.1073 928.546 57.14 928.107 57.14ZM925.923 53.29H929.437V52.828C929.437 52.3707 929.311 52.016 929.059 51.764C928.807 51.5027 928.383 51.372 927.785 51.372C927.076 51.372 926.586 51.526 926.315 51.834C926.054 52.142 925.923 52.6273 925.923 53.29ZM936.262 57.14C934.778 57.14 933.658 56.7387 932.902 55.936C932.155 55.1333 931.782 54.046 931.782 52.674C931.782 51.6847 931.945 50.8307 932.272 50.112C932.598 49.384 933.093 48.824 933.756 48.432C934.428 48.04 935.277 47.844 936.304 47.844C936.836 47.844 937.316 47.8813 937.746 47.956C938.184 48.0213 938.595 48.1193 938.978 48.25V49.566C938.212 49.286 937.363 49.146 936.43 49.146C935.282 49.146 934.474 49.4493 934.008 50.056C933.55 50.6627 933.322 51.5353 933.322 52.674C933.322 53.71 933.564 54.4987 934.05 55.04C934.535 55.5813 935.286 55.852 936.304 55.852C937.106 55.852 937.755 55.7587 938.25 55.572V53.052H935.996V52.058H939.552V56.398C939.262 56.5847 938.847 56.7573 938.306 56.916C937.774 57.0653 937.092 57.14 936.262 57.14ZM942.682 57.14C942.141 57.14 941.73 57.0093 941.45 56.748C941.17 56.4773 941.03 56.034 941.03 55.418V47.564H942.556V55.278C942.556 55.5393 942.603 55.7167 942.696 55.81C942.79 55.9033 942.93 55.95 943.116 55.95C943.34 55.95 943.555 55.922 943.76 55.866V56.972C943.583 57.0373 943.41 57.0793 943.242 57.098C943.084 57.126 942.897 57.14 942.682 57.14ZM948.132 57.14C946.938 57.14 946.06 56.8413 945.5 56.244C944.95 55.6467 944.674 54.7927 944.674 53.682C944.674 52.5713 944.954 51.7173 945.514 51.12C946.074 50.5227 946.947 50.224 948.132 50.224C949.327 50.224 950.204 50.5227 950.764 51.12C951.324 51.7173 951.604 52.5713 951.604 53.682C951.604 54.7927 951.324 55.6467 950.764 56.244C950.214 56.8413 949.336 57.14 948.132 57.14ZM948.132 55.852C948.832 55.852 949.327 55.684 949.616 55.348C949.915 55.0027 950.064 54.4473 950.064 53.682C950.064 52.9167 949.915 52.366 949.616 52.03C949.327 51.694 948.832 51.526 948.132 51.526C947.442 51.526 946.947 51.694 946.648 52.03C946.359 52.366 946.214 52.9167 946.214 53.682C946.214 54.4473 946.359 55.0027 946.648 55.348C946.947 55.684 947.442 55.852 948.132 55.852ZM954.661 57L952.043 50.364H953.625L955.487 55.516L957.349 50.364H958.917L956.313 57H954.661ZM963.012 57.14C961.854 57.14 960.958 56.8553 960.324 56.286C959.689 55.7167 959.372 54.844 959.372 53.668C959.372 52.604 959.642 51.764 960.184 51.148C960.725 50.532 961.546 50.224 962.648 50.224C963.656 50.224 964.412 50.49 964.916 51.022C965.429 51.5447 965.686 52.2213 965.686 53.052V54.284H960.828C960.902 54.928 961.136 55.3713 961.528 55.614C961.92 55.8567 962.517 55.978 963.32 55.978C963.656 55.978 964.001 55.9453 964.356 55.88C964.71 55.8147 965.018 55.7307 965.28 55.628V56.748C964.981 56.8787 964.636 56.9767 964.244 57.042C963.861 57.1073 963.45 57.14 963.012 57.14ZM960.828 53.29H964.342V52.828C964.342 52.3707 964.216 52.016 963.964 51.764C963.712 51.5027 963.287 51.372 962.69 51.372C961.98 51.372 961.49 51.526 961.22 51.834C960.958 52.142 960.828 52.6273 960.828 53.29Z" fill="#A9ACB9"/>
<rect x="983.5" y="40.5" width="89" height="23" rx="3.5" fill="white"/>
<rect x="983.5" y="40.5" width="89" height="23" rx="3.5" stroke="#CDD1D8"/>
<path d="M994.22 57V49.174H991.336V47.984H998.616V49.174H995.746V57H994.22ZM1000.58 57.14C1000.16 57.14 999.773 57.0653 999.409 56.916C999.054 56.7667 998.77 56.5427 998.555 56.244C998.34 55.936 998.233 55.558 998.233 55.11C998.233 54.4753 998.448 53.9667 998.877 53.584C999.316 53.192 999.988 52.996 1000.89 52.996H1003.02V52.702C1003.02 52.3847 1002.97 52.1327 1002.87 51.946C1002.77 51.7593 1002.6 51.624 1002.33 51.54C1002.08 51.456 1001.71 51.414 1001.21 51.414C1000.43 51.414 999.698 51.5307 999.017 51.764V50.63C999.316 50.5087 999.68 50.4107 1000.11 50.336C1000.54 50.2613 1001 50.224 1001.49 50.224C1002.47 50.224 1003.2 50.42 1003.71 50.812C1004.22 51.204 1004.48 51.8433 1004.48 52.73V57H1003.17L1003.08 56.328C1002.81 56.5893 1002.47 56.79 1002.07 56.93C1001.68 57.07 1001.18 57.14 1000.58 57.14ZM1000.99 56.048C1001.45 56.048 1001.84 55.9733 1002.18 55.824C1002.53 55.6653 1002.81 55.4553 1003.02 55.194V54.032H1000.92C1000.47 54.032 1000.15 54.1207 999.941 54.298C999.745 54.466 999.647 54.7273 999.647 55.082C999.647 55.4273 999.764 55.6747 999.997 55.824C1000.23 55.9733 1000.56 56.048 1000.99 56.048ZM1009.43 57.14C1008.26 57.14 1007.38 56.846 1006.79 56.258C1006.19 55.6607 1005.89 54.802 1005.89 53.682C1005.89 52.5153 1006.22 51.6473 1006.87 51.078C1007.53 50.5087 1008.41 50.224 1009.52 50.224C1009.97 50.224 1010.36 50.2567 1010.66 50.322C1010.98 50.3873 1011.28 50.49 1011.57 50.63V51.764C1011.09 51.5213 1010.5 51.4 1009.81 51.4C1009.04 51.4 1008.46 51.5727 1008.05 51.918C1007.63 52.254 1007.43 52.842 1007.43 53.682C1007.43 54.4753 1007.61 55.0587 1007.98 55.432C1008.34 55.796 1008.94 55.978 1009.78 55.978C1010.44 55.978 1011.05 55.852 1011.59 55.6V56.762C1011.28 56.8833 1010.95 56.9767 1010.59 57.042C1010.25 57.1073 1009.86 57.14 1009.43 57.14ZM1015.33 57.14C1014.62 57.14 1014.09 56.9533 1013.74 56.58C1013.39 56.1973 1013.22 55.6793 1013.22 55.026V51.554H1012.24V50.364H1013.22V48.838L1014.73 48.376V50.364H1016.5L1016.4 51.554H1014.73V54.942C1014.73 55.3247 1014.82 55.5953 1015 55.754C1015.18 55.9033 1015.46 55.978 1015.87 55.978C1016.12 55.978 1016.38 55.9313 1016.66 55.838V56.916C1016.3 57.0653 1015.86 57.14 1015.33 57.14ZM1018.39 48.978V47.718H1020.06V48.978H1018.39ZM1018.52 57V51.526H1017.51L1017.65 50.364H1020.04V57H1018.52ZM1023.48 57.14C1022.93 57.14 1022.52 57.0093 1022.24 56.748C1021.96 56.4773 1021.82 56.034 1021.82 55.418V47.564H1023.35V55.278C1023.35 55.5393 1023.4 55.7167 1023.49 55.81C1023.58 55.9033 1023.72 55.95 1023.91 55.95C1024.13 55.95 1024.35 55.922 1024.55 55.866V56.972C1024.38 57.0373 1024.2 57.0793 1024.04 57.098C1023.88 57.126 1023.69 57.14 1023.48 57.14ZM1029.11 57.14C1027.95 57.14 1027.05 56.8553 1026.42 56.286C1025.78 55.7167 1025.47 54.844 1025.47 53.668C1025.47 52.604 1025.74 51.764 1026.28 51.148C1026.82 50.532 1027.64 50.224 1028.74 50.224C1029.75 50.224 1030.51 50.49 1031.01 51.022C1031.52 51.5447 1031.78 52.2213 1031.78 53.052V54.284H1026.92C1027 54.928 1027.23 55.3713 1027.62 55.614C1028.02 55.8567 1028.61 55.978 1029.42 55.978C1029.75 55.978 1030.1 55.9453 1030.45 55.88C1030.81 55.8147 1031.11 55.7307 1031.38 55.628V56.748C1031.08 56.8787 1030.73 56.9767 1030.34 57.042C1029.96 57.1073 1029.55 57.14 1029.11 57.14ZM1026.92 53.29H1030.44V52.828C1030.44 52.3707 1030.31 52.016 1030.06 51.764C1029.81 51.5027 1029.38 51.372 1028.79 51.372C1028.08 51.372 1027.59 51.526 1027.32 51.834C1027.05 52.142 1026.92 52.6273 1026.92 53.29ZM1033.27 57V47.984H1034.79V51.904H1039.13V47.984H1040.66V57H1039.13V53.08H1034.79V57H1033.27ZM1045.79 57.14C1044.63 57.14 1043.73 56.8553 1043.1 56.286C1042.46 55.7167 1042.15 54.844 1042.15 53.668C1042.15 52.604 1042.42 51.764 1042.96 51.148C1043.5 50.532 1044.32 50.224 1045.42 50.224C1046.43 50.224 1047.19 50.49 1047.69 51.022C1048.2 51.5447 1048.46 52.2213 1048.46 53.052V54.284H1043.6C1043.68 54.928 1043.91 55.3713 1044.3 55.614C1044.69 55.8567 1045.29 55.978 1046.09 55.978C1046.43 55.978 1046.78 55.9453 1047.13 55.88C1047.49 55.8147 1047.79 55.7307 1048.05 55.628V56.748C1047.76 56.8787 1047.41 56.9767 1047.02 57.042C1046.64 57.1073 1046.23 57.14 1045.79 57.14ZM1043.6 53.29H1047.12V52.828C1047.12 52.3707 1046.99 52.016 1046.74 51.764C1046.49 51.5027 1046.06 51.372 1045.46 51.372C1044.76 51.372 1044.27 51.526 1043.99 51.834C1043.73 52.142 1043.6 52.6273 1043.6 53.29ZM1052.02 57.14C1051.6 57.14 1051.21 57.0653 1050.84 56.916C1050.49 56.7667 1050.2 56.5427 1049.99 56.244C1049.77 55.936 1049.67 55.558 1049.67 55.11C1049.67 54.4753 1049.88 53.9667 1050.31 53.584C1050.75 53.192 1051.42 52.996 1052.33 52.996H1054.45V52.702C1054.45 52.3847 1054.4 52.1327 1054.3 51.946C1054.21 51.7593 1054.03 51.624 1053.77 51.54C1053.52 51.456 1053.14 51.414 1052.65 51.414C1051.86 51.414 1051.13 51.5307 1050.45 51.764V50.63C1050.75 50.5087 1051.11 50.4107 1051.54 50.336C1051.97 50.2613 1052.43 50.224 1052.93 50.224C1053.9 50.224 1054.64 50.42 1055.14 50.812C1055.65 51.204 1055.91 51.8433 1055.91 52.73V57H1054.61L1054.51 56.328C1054.24 56.5893 1053.9 56.79 1053.5 56.93C1053.11 57.07 1052.62 57.14 1052.02 57.14ZM1052.42 56.048C1052.88 56.048 1053.28 55.9733 1053.61 55.824C1053.96 55.6653 1054.24 55.4553 1054.45 55.194V54.032H1052.35C1051.91 54.032 1051.58 54.1207 1051.37 54.298C1051.18 54.466 1051.08 54.7273 1051.08 55.082C1051.08 55.4273 1051.2 55.6747 1051.43 55.824C1051.66 55.9733 1052 56.048 1052.42 56.048ZM1060.35 57.14C1059.75 57.14 1059.22 57.0373 1058.76 56.832C1058.31 56.6267 1057.95 56.286 1057.7 55.81C1057.45 55.334 1057.32 54.6947 1057.32 53.892C1057.32 53.0987 1057.46 52.4313 1057.73 51.89C1058 51.3393 1058.37 50.924 1058.85 50.644C1059.33 50.364 1059.88 50.224 1060.49 50.224C1060.89 50.224 1061.24 50.2707 1061.55 50.364C1061.87 50.4573 1062.17 50.602 1062.46 50.798V47.564H1063.99V57H1062.68L1062.59 56.342C1062.29 56.6127 1061.96 56.8133 1061.61 56.944C1061.25 57.0747 1060.83 57.14 1060.35 57.14ZM1060.75 55.992C1061.43 55.992 1062 55.7587 1062.46 55.292V51.974C1062.02 51.582 1061.47 51.386 1060.81 51.386C1060.16 51.386 1059.68 51.6007 1059.35 52.03C1059.03 52.4593 1058.86 53.0847 1058.86 53.906C1058.86 54.6993 1059.01 55.2453 1059.31 55.544C1059.62 55.8427 1060.1 55.992 1060.75 55.992Z" fill="#A9ACB9"/>
<rect x="1081.5" y="40.5" width="78" height="23" rx="3.5" fill="white"/>
<rect x="1081.5" y="40.5" width="78" height="23" rx="3.5" stroke="#CDD1D8"/>
<path d="M1089.88 57V47.984H1096.01V49.174H1091.41V51.904H1095.5V53.08H1091.41V57H1089.88ZM1097.58 48.978V47.718H1099.24V48.978H1097.58ZM1097.7 57V51.526H1096.7L1096.84 50.364H1099.23V57H1097.7ZM1101.01 57V50.364H1102.41L1102.48 51.064C1102.78 50.8307 1103.13 50.6347 1103.54 50.476C1103.96 50.308 1104.43 50.224 1104.93 50.224C1105.79 50.224 1106.41 50.4247 1106.81 50.826C1107.2 51.2273 1107.39 51.8527 1107.39 52.702V57H1105.88V52.772C1105.88 52.2587 1105.78 51.8993 1105.56 51.694C1105.36 51.4887 1104.96 51.386 1104.38 51.386C1104.04 51.386 1103.7 51.456 1103.36 51.596C1103.04 51.736 1102.76 51.918 1102.54 52.142V57H1101.01ZM1111.79 59.464C1111.3 59.464 1110.8 59.4313 1110.31 59.366C1109.81 59.31 1109.39 59.2213 1109.05 59.1V57.924C1109.42 58.0453 1109.85 58.1387 1110.34 58.204C1110.82 58.2693 1111.28 58.302 1111.72 58.302C1112.39 58.302 1112.88 58.2647 1113.19 58.19C1113.5 58.1153 1113.65 57.9473 1113.65 57.686C1113.65 57.49 1113.58 57.35 1113.43 57.266C1113.28 57.1913 1113 57.154 1112.58 57.154H1110.78C1109.58 57.154 1108.98 56.7293 1108.98 55.88C1108.98 55.6093 1109.06 55.3573 1109.22 55.124C1109.38 54.8907 1109.63 54.7133 1109.97 54.592C1109.59 54.4053 1109.31 54.1487 1109.12 53.822C1108.94 53.4953 1108.85 53.1033 1108.85 52.646C1108.85 51.7967 1109.1 51.1807 1109.61 50.798C1110.12 50.4153 1110.89 50.224 1111.9 50.224C1112.12 50.224 1112.34 50.2427 1112.58 50.28C1112.81 50.308 1112.99 50.336 1113.12 50.364H1115.56L1115.52 51.358H1114.4C1114.57 51.5073 1114.7 51.694 1114.79 51.918C1114.87 52.142 1114.91 52.3847 1114.91 52.646C1114.91 53.3553 1114.7 53.9153 1114.27 54.326C1113.84 54.7273 1113.19 54.928 1112.32 54.928C1112.18 54.928 1112.04 54.9233 1111.9 54.914C1111.78 54.8953 1111.65 54.8767 1111.5 54.858C1111.22 54.886 1110.97 54.9607 1110.74 55.082C1110.52 55.2033 1110.41 55.3667 1110.41 55.572C1110.41 55.712 1110.46 55.8147 1110.57 55.88C1110.69 55.936 1110.87 55.964 1111.13 55.964H1113C1113.66 55.964 1114.17 56.1087 1114.52 56.398C1114.89 56.678 1115.07 57.0887 1115.07 57.63C1115.07 58.2833 1114.78 58.75 1114.21 59.03C1113.65 59.3193 1112.85 59.464 1111.79 59.464ZM1111.9 53.962C1112.51 53.962 1112.93 53.8593 1113.16 53.654C1113.41 53.4487 1113.53 53.0987 1113.53 52.604C1113.53 52.1093 1113.41 51.75 1113.16 51.526C1112.93 51.302 1112.51 51.19 1111.9 51.19C1111.34 51.19 1110.92 51.2973 1110.66 51.512C1110.4 51.7267 1110.27 52.0907 1110.27 52.604C1110.27 53.08 1110.39 53.4253 1110.63 53.64C1110.88 53.8547 1111.31 53.962 1111.9 53.962ZM1120.08 57.14C1118.92 57.14 1118.03 56.8553 1117.39 56.286C1116.76 55.7167 1116.44 54.844 1116.44 53.668C1116.44 52.604 1116.71 51.764 1117.25 51.148C1117.79 50.532 1118.61 50.224 1119.72 50.224C1120.72 50.224 1121.48 50.49 1121.98 51.022C1122.5 51.5447 1122.75 52.2213 1122.75 53.052V54.284H1117.9C1117.97 54.928 1118.2 55.3713 1118.6 55.614C1118.99 55.8567 1119.59 55.978 1120.39 55.978C1120.72 55.978 1121.07 55.9453 1121.42 55.88C1121.78 55.8147 1122.09 55.7307 1122.35 55.628V56.748C1122.05 56.8787 1121.7 56.9767 1121.31 57.042C1120.93 57.1073 1120.52 57.14 1120.08 57.14ZM1117.9 53.29H1121.41V52.828C1121.41 52.3707 1121.28 52.016 1121.03 51.764C1120.78 51.5027 1120.36 51.372 1119.76 51.372C1119.05 51.372 1118.56 51.526 1118.29 51.834C1118.03 52.142 1117.9 52.6273 1117.9 53.29ZM1124.24 57V50.364H1125.64L1125.72 51.134C1126.04 50.9287 1126.42 50.742 1126.86 50.574C1127.3 50.406 1127.73 50.2893 1128.16 50.224V51.386C1127.9 51.4327 1127.61 51.5027 1127.31 51.596C1127.01 51.68 1126.72 51.778 1126.45 51.89C1126.18 51.9927 1125.95 52.1 1125.77 52.212V57H1124.24ZM1130.56 57V49.174H1127.67V47.984H1134.95V49.174H1132.08V57H1130.56ZM1136.17 57V47.984H1140.19C1140.88 47.984 1141.45 48.1147 1141.9 48.376C1142.35 48.6373 1142.68 48.9967 1142.89 49.454C1143.11 49.902 1143.22 50.4153 1143.22 50.994C1143.22 51.89 1142.94 52.6087 1142.38 53.15C1141.83 53.6913 1141.08 53.962 1140.14 53.962H1137.7V57H1136.17ZM1137.7 52.758H1139.86C1140.46 52.758 1140.92 52.5993 1141.23 52.282C1141.54 51.9647 1141.69 51.5353 1141.69 50.994C1141.69 50.4153 1141.54 49.9673 1141.24 49.65C1140.95 49.3327 1140.51 49.174 1139.93 49.174H1137.7V52.758ZM1147.16 57.14C1146 57.14 1145.06 56.9907 1144.35 56.692V55.348C1144.75 55.4973 1145.18 55.6187 1145.64 55.712C1146.1 55.8053 1146.57 55.852 1147.02 55.852C1147.74 55.852 1148.28 55.768 1148.63 55.6C1149 55.432 1149.18 55.096 1149.18 54.592C1149.18 54.284 1149.1 54.0367 1148.95 53.85C1148.81 53.6633 1148.56 53.5047 1148.21 53.374C1147.87 53.234 1147.39 53.0893 1146.78 52.94C1145.81 52.688 1145.13 52.3707 1144.74 51.988C1144.35 51.596 1144.15 51.0593 1144.15 50.378C1144.15 49.5847 1144.44 48.964 1145.02 48.516C1145.6 48.068 1146.46 47.844 1147.61 47.844C1148.13 47.844 1148.62 47.8813 1149.08 47.956C1149.55 48.0307 1149.91 48.1147 1150.17 48.208V49.552C1149.46 49.2813 1148.68 49.146 1147.82 49.146C1147.15 49.146 1146.63 49.2347 1146.25 49.412C1145.88 49.5893 1145.69 49.9113 1145.69 50.378C1145.69 50.6487 1145.76 50.868 1145.89 51.036C1146.02 51.204 1146.24 51.3487 1146.56 51.47C1146.89 51.5913 1147.34 51.7267 1147.9 51.876C1148.64 52.0627 1149.21 52.2867 1149.61 52.548C1150.02 52.8 1150.31 53.0987 1150.47 53.444C1150.63 53.78 1150.72 54.1627 1150.72 54.592C1150.72 55.3853 1150.42 56.0107 1149.84 56.468C1149.25 56.916 1148.36 57.14 1147.16 57.14Z" fill="#A9ACB9"/>
</svg>
