<svg width="445" height="233" viewBox="0 0 445 233" fill="none" xmlns="http://www.w3.org/2000/svg">
<rect x="3.5" y="7.5" width="441" height="225" stroke="#ECEDF1"/>
<rect width="440" height="32" transform="translate(4 8)" fill="#394151"/>
<path d="M24 30C23.7167 30 23.4793 29.904 23.288 29.712C23.0967 29.52 23.0007 29.2827 23 29C22.9993 28.7173 23.0953 28.48 23.288 28.288C23.4807 28.096 23.718 28 24 28H40C40.2833 28 40.521 28.096 40.713 28.288C40.905 28.48 41.0007 28.7173 41 29C40.9993 29.2827 40.9033 29.5203 40.712 29.713C40.5207 29.9057 40.2833 30.0013 40 30H24ZM24 25C23.7167 25 23.4793 24.904 23.288 24.712C23.0967 24.52 23.0007 24.2827 23 24C22.9993 23.7173 23.0953 23.48 23.288 23.288C23.4807 23.096 23.718 23 24 23H40C40.2833 23 40.521 23.096 40.713 23.288C40.905 23.48 41.0007 23.7173 41 24C40.9993 24.2827 40.9033 24.5203 40.712 24.713C40.5207 24.9057 40.2833 25.0013 40 25H24ZM24 20C23.7167 20 23.4793 19.904 23.288 19.712C23.0967 19.52 23.0007 19.2827 23 19C22.9993 18.7173 23.0953 18.48 23.288 18.288C23.4807 18.096 23.718 18 24 18H40C40.2833 18 40.521 18.096 40.713 18.288C40.905 18.48 41.0007 18.7173 41 19C40.9993 19.2827 40.9033 19.5203 40.712 19.713C40.5207 19.9057 40.2833 20.0013 40 20H24Z" fill="white"/>
<path d="M70.674 31.408C69.9647 31.408 69.4467 31.2073 69.12 30.806C68.7933 30.4047 68.6207 29.8353 68.602 29.098C67.4353 28.9673 66.558 28.5333 65.97 27.796C65.3913 27.0493 65.102 25.9573 65.102 24.52C65.102 22.8773 65.4567 21.6873 66.166 20.95C66.8753 20.2127 67.944 19.844 69.372 19.844C70.8093 19.844 71.878 20.2127 72.578 20.95C73.2873 21.6873 73.642 22.8773 73.642 24.52C73.642 25.9853 73.334 27.0913 72.718 27.838C72.1113 28.5847 71.192 29.0093 69.96 29.112C69.9693 29.5413 70.0487 29.8353 70.198 29.994C70.3567 30.162 70.6227 30.246 70.996 30.246C71.332 30.246 71.6633 30.1993 71.99 30.106V31.24C71.8407 31.2867 71.6447 31.324 71.402 31.352C71.1593 31.3893 70.9167 31.408 70.674 31.408ZM69.372 27.852C70.3147 27.852 71.0053 27.5953 71.444 27.082C71.892 26.5593 72.116 25.7053 72.116 24.52C72.116 23.2693 71.892 22.3967 71.444 21.902C71.0053 21.398 70.3147 21.146 69.372 21.146C68.4387 21.146 67.748 21.398 67.3 21.902C66.8613 22.3967 66.642 23.2693 66.642 24.52C66.642 25.7053 66.8613 26.5593 67.3 27.082C67.748 27.5953 68.4387 27.852 69.372 27.852ZM77.6777 29.14C76.9684 29.14 76.4364 28.9533 76.0817 28.58C75.7364 28.1973 75.5637 27.6793 75.5637 27.026V23.554H74.5837V22.364H75.5637V20.838L77.0757 20.376V22.364H78.8397L78.7417 23.554H77.0757V26.942C77.0757 27.3247 77.1644 27.5953 77.3417 27.754C77.5191 27.9033 77.8084 27.978 78.2097 27.978C78.4617 27.978 78.7277 27.9313 79.0077 27.838V28.916C78.6437 29.0653 78.2004 29.14 77.6777 29.14ZM81.0441 31.464C80.5401 31.464 80.1107 31.3987 79.7561 31.268V30.134C79.9147 30.19 80.0594 30.2273 80.1901 30.246C80.3301 30.2647 80.4701 30.274 80.6101 30.274C80.8994 30.274 81.1327 30.2273 81.3101 30.134C81.4874 30.0407 81.6414 29.8913 81.7721 29.686C81.9121 29.49 82.0614 29.2333 82.2201 28.916L79.2661 22.364H80.8481L82.9761 27.292L85.1321 22.364H86.7001L83.9981 28.622C83.7647 29.182 83.5127 29.672 83.2421 30.092C82.9807 30.5213 82.6727 30.8573 82.3181 31.1C81.9727 31.3427 81.5481 31.464 81.0441 31.464Z" fill="white"/>
<path d="M113.872 29.14C112.444 29.14 111.375 28.7667 110.666 28.02C109.957 27.264 109.602 26.0973 109.602 24.52C109.602 22.8773 109.957 21.6873 110.666 20.95C111.375 20.2127 112.444 19.844 113.872 19.844C115.309 19.844 116.378 20.2127 117.078 20.95C117.787 21.6873 118.142 22.8773 118.142 24.52C118.142 26.0973 117.787 27.264 117.078 28.02C116.378 28.7667 115.309 29.14 113.872 29.14ZM113.872 27.852C114.815 27.852 115.505 27.5953 115.944 27.082C116.392 26.5593 116.616 25.7053 116.616 24.52C116.616 23.2693 116.392 22.3967 115.944 21.902C115.505 21.398 114.815 21.146 113.872 21.146C112.939 21.146 112.248 21.398 111.8 21.902C111.361 22.3967 111.142 23.2693 111.142 24.52C111.142 25.7053 111.361 26.5593 111.8 27.082C112.248 27.5953 112.939 27.852 113.872 27.852ZM121.831 29V21.174H118.947V19.984H126.227V21.174H123.357V29H121.831ZM129.079 29L126.979 19.984H128.477L130.003 26.746L131.711 21.076V19.984H132.957L134.875 26.746L136.429 19.984H137.913L135.827 29H134.329L132.523 22.686L130.605 29H129.079Z" fill="white"/>
<path d="M159.22 29V21.174H156.336V19.984H163.616V21.174H160.746V29H159.22ZM166.691 29.14C165.496 29.14 164.619 28.8413 164.059 28.244C163.508 27.6467 163.233 26.7927 163.233 25.682C163.233 24.5713 163.513 23.7173 164.073 23.12C164.633 22.5227 165.506 22.224 166.691 22.224C167.886 22.224 168.763 22.5227 169.323 23.12C169.883 23.7173 170.163 24.5713 170.163 25.682C170.163 26.7927 169.883 27.6467 169.323 28.244C168.772 28.8413 167.895 29.14 166.691 29.14ZM166.691 27.852C167.391 27.852 167.886 27.684 168.175 27.348C168.474 27.0027 168.623 26.4473 168.623 25.682C168.623 24.9167 168.474 24.366 168.175 24.03C167.886 23.694 167.391 23.526 166.691 23.526C166 23.526 165.506 23.694 165.207 24.03C164.918 24.366 164.773 24.9167 164.773 25.682C164.773 26.4473 164.918 27.0027 165.207 27.348C165.506 27.684 166 27.852 166.691 27.852ZM174.182 29.14C173.472 29.14 172.94 28.9533 172.586 28.58C172.24 28.1973 172.068 27.6793 172.068 27.026V23.554H171.088V22.364H172.068V20.838L173.58 20.376V22.364H175.344L175.246 23.554H173.58V26.942C173.58 27.3247 173.668 27.5953 173.846 27.754C174.023 27.9033 174.312 27.978 174.714 27.978C174.966 27.978 175.232 27.9313 175.512 27.838V28.916C175.148 29.0653 174.704 29.14 174.182 29.14ZM178.751 29.14C178.331 29.14 177.939 29.0653 177.575 28.916C177.22 28.7667 176.936 28.5427 176.721 28.244C176.506 27.936 176.399 27.558 176.399 27.11C176.399 26.4753 176.614 25.9667 177.043 25.584C177.482 25.192 178.154 24.996 179.059 24.996H181.187V24.702C181.187 24.3847 181.136 24.1327 181.033 23.946C180.94 23.7593 180.762 23.624 180.501 23.54C180.249 23.456 179.876 23.414 179.381 23.414C178.597 23.414 177.864 23.5307 177.183 23.764V22.63C177.482 22.5087 177.846 22.4107 178.275 22.336C178.704 22.2613 179.166 22.224 179.661 22.224C180.632 22.224 181.369 22.42 181.873 22.812C182.386 23.204 182.643 23.8433 182.643 24.73V29H181.341L181.243 28.328C180.972 28.5893 180.636 28.79 180.235 28.93C179.843 29.07 179.348 29.14 178.751 29.14ZM179.157 28.048C179.614 28.048 180.011 27.9733 180.347 27.824C180.692 27.6653 180.972 27.4553 181.187 27.194V26.032H179.087C178.639 26.032 178.312 26.1207 178.107 26.298C177.911 26.466 177.813 26.7273 177.813 27.082C177.813 27.4273 177.93 27.6747 178.163 27.824C178.396 27.9733 178.728 28.048 179.157 28.048ZM185.987 29.14C185.446 29.14 185.035 29.0093 184.755 28.748C184.475 28.4773 184.335 28.034 184.335 27.418V19.564H185.861V27.278C185.861 27.5393 185.908 27.7167 186.001 27.81C186.094 27.9033 186.234 27.95 186.421 27.95C186.645 27.95 186.86 27.922 187.065 27.866V28.972C186.888 29.0373 186.715 29.0793 186.547 29.098C186.388 29.126 186.202 29.14 185.987 29.14Z" fill="white"/>
<path d="M208.406 21V11.984H209.932V19.824H214.552V21H208.406ZM218.584 21.14C217.39 21.14 216.512 20.8413 215.952 20.244C215.402 19.6467 215.126 18.7927 215.126 17.682C215.126 16.5713 215.406 15.7173 215.966 15.12C216.526 14.5227 217.399 14.224 218.584 14.224C219.779 14.224 220.656 14.5227 221.216 15.12C221.776 15.7173 222.056 16.5713 222.056 17.682C222.056 18.7927 221.776 19.6467 221.216 20.244C220.666 20.8413 219.788 21.14 218.584 21.14ZM218.584 19.852C219.284 19.852 219.779 19.684 220.068 19.348C220.367 19.0027 220.516 18.4473 220.516 17.682C220.516 16.9167 220.367 16.366 220.068 16.03C219.779 15.694 219.284 15.526 218.584 15.526C217.894 15.526 217.399 15.694 217.1 16.03C216.811 16.366 216.666 16.9167 216.666 17.682C216.666 18.4473 216.811 19.0027 217.1 19.348C217.399 19.684 217.894 19.852 218.584 19.852ZM224.382 21L222.632 14.364H224.158L225.306 19.194L226.608 15.176V14.364H227.77L229.212 19.194L230.36 14.364H231.872L230.136 21H228.694L227.28 16.66L225.838 21H224.382ZM206.174 37.14C205.007 37.14 204.069 36.9907 203.36 36.692V35.348C203.761 35.4973 204.19 35.6187 204.648 35.712C205.114 35.8053 205.576 35.852 206.034 35.852C206.752 35.852 207.289 35.768 207.644 35.6C208.008 35.432 208.19 35.096 208.19 34.592C208.19 34.284 208.115 34.0367 207.966 33.85C207.816 33.6633 207.569 33.5047 207.224 33.374C206.878 33.234 206.402 33.0893 205.796 32.94C204.825 32.688 204.144 32.3707 203.752 31.988C203.36 31.596 203.164 31.0593 203.164 30.378C203.164 29.5847 203.453 28.964 204.032 28.516C204.61 28.068 205.474 27.844 206.622 27.844C207.144 27.844 207.634 27.8813 208.092 27.956C208.558 28.0307 208.922 28.1147 209.184 28.208V29.552C208.474 29.2813 207.69 29.146 206.832 29.146C206.16 29.146 205.637 29.2347 205.264 29.412C204.89 29.5893 204.704 29.9113 204.704 30.378C204.704 30.6487 204.769 30.868 204.9 31.036C205.03 31.204 205.254 31.3487 205.572 31.47C205.898 31.5913 206.346 31.7267 206.916 31.876C207.653 32.0627 208.222 32.2867 208.624 32.548C209.034 32.8 209.319 33.0987 209.478 33.444C209.646 33.78 209.73 34.1627 209.73 34.592C209.73 35.3853 209.436 36.0107 208.848 36.468C208.26 36.916 207.368 37.14 206.174 37.14ZM213.538 37.14C212.829 37.14 212.297 36.9533 211.942 36.58C211.597 36.1973 211.424 35.6793 211.424 35.026V31.554H210.444V30.364H211.424V28.838L212.936 28.376V30.364H214.7L214.602 31.554H212.936V34.942C212.936 35.3247 213.025 35.5953 213.202 35.754C213.379 35.9033 213.669 35.978 214.07 35.978C214.322 35.978 214.588 35.9313 214.868 35.838V36.916C214.504 37.0653 214.061 37.14 213.538 37.14ZM219.213 37.14C218.019 37.14 217.141 36.8413 216.581 36.244C216.031 35.6467 215.755 34.7927 215.755 33.682C215.755 32.5713 216.035 31.7173 216.595 31.12C217.155 30.5227 218.028 30.224 219.213 30.224C220.408 30.224 221.285 30.5227 221.845 31.12C222.405 31.7173 222.685 32.5713 222.685 33.682C222.685 34.7927 222.405 35.6467 221.845 36.244C221.295 36.8413 220.417 37.14 219.213 37.14ZM219.213 35.852C219.913 35.852 220.408 35.684 220.697 35.348C220.996 35.0027 221.145 34.4473 221.145 33.682C221.145 32.9167 220.996 32.366 220.697 32.03C220.408 31.694 219.913 31.526 219.213 31.526C218.523 31.526 218.028 31.694 217.729 32.03C217.44 32.366 217.295 32.9167 217.295 33.682C217.295 34.4473 217.44 35.0027 217.729 35.348C218.028 35.684 218.523 35.852 219.213 35.852ZM227.432 37.14C226.265 37.14 225.383 36.846 224.786 36.258C224.189 35.6607 223.89 34.802 223.89 33.682C223.89 32.5153 224.217 31.6473 224.87 31.078C225.533 30.5087 226.415 30.224 227.516 30.224C227.973 30.224 228.356 30.2567 228.664 30.322C228.981 30.3873 229.285 30.49 229.574 30.63V31.764C229.089 31.5213 228.501 31.4 227.81 31.4C227.045 31.4 226.457 31.5727 226.046 31.918C225.635 32.254 225.43 32.842 225.43 33.682C225.43 34.4753 225.612 35.0587 225.976 35.432C226.34 35.796 226.942 35.978 227.782 35.978C228.445 35.978 229.047 35.852 229.588 35.6V36.762C229.28 36.8833 228.949 36.9767 228.594 37.042C228.249 37.1073 227.861 37.14 227.432 37.14ZM230.801 37V27.564H232.327V33.024L235.113 30.364H236.863L234.161 33.038L237.017 37H235.407L233.209 33.85L232.327 34.69V37H230.801Z" fill="white"/>
<path d="M269.232 29.14C267.991 29.14 267.025 28.8413 266.334 28.244C265.653 27.6467 265.312 26.7833 265.312 25.654V19.984H266.838V25.598C266.838 26.354 267.043 26.9187 267.454 27.292C267.874 27.6653 268.467 27.852 269.232 27.852C269.988 27.852 270.571 27.6653 270.982 27.292C271.402 26.9187 271.612 26.354 271.612 25.598V19.984H273.124V25.654C273.124 26.7833 272.783 27.6467 272.102 28.244C271.421 28.8413 270.464 29.14 269.232 29.14ZM274.816 32.024V22.364H276.132L276.216 23.022C276.514 22.7513 276.841 22.5507 277.196 22.42C277.55 22.2893 277.97 22.224 278.456 22.224C279.408 22.224 280.15 22.4853 280.682 23.008C281.214 23.5213 281.48 24.3753 281.48 25.57C281.48 26.7647 281.204 27.6607 280.654 28.258C280.103 28.846 279.352 29.14 278.4 29.14C277.597 29.14 276.911 28.9533 276.342 28.58V32.024H274.816ZM278.008 27.992C279.296 27.992 279.94 27.18 279.94 25.556C279.94 24.772 279.795 24.2167 279.506 23.89C279.216 23.554 278.731 23.386 278.05 23.386C277.368 23.386 276.799 23.6193 276.342 24.086V27.404C276.556 27.5813 276.794 27.726 277.056 27.838C277.326 27.9407 277.644 27.992 278.008 27.992ZM285.708 29.14C285.111 29.14 284.583 29.0373 284.126 28.832C283.669 28.6267 283.314 28.286 283.062 27.81C282.81 27.334 282.684 26.6947 282.684 25.892C282.684 25.0987 282.819 24.4313 283.09 23.89C283.361 23.3393 283.734 22.924 284.21 22.644C284.695 22.364 285.241 22.224 285.848 22.224C286.249 22.224 286.604 22.2707 286.912 22.364C287.229 22.4573 287.533 22.602 287.822 22.798V19.564H289.348V29H288.046L287.948 28.342C287.649 28.6127 287.323 28.8133 286.968 28.944C286.613 29.0747 286.193 29.14 285.708 29.14ZM286.114 27.992C286.795 27.992 287.365 27.7587 287.822 27.292V23.974C287.383 23.582 286.833 23.386 286.17 23.386C285.526 23.386 285.041 23.6007 284.714 24.03C284.387 24.4593 284.224 25.0847 284.224 25.906C284.224 26.6993 284.373 27.2453 284.672 27.544C284.98 27.8427 285.461 27.992 286.114 27.992ZM293.116 29.14C292.696 29.14 292.304 29.0653 291.94 28.916C291.585 28.7667 291.301 28.5427 291.086 28.244C290.871 27.936 290.764 27.558 290.764 27.11C290.764 26.4753 290.979 25.9667 291.408 25.584C291.847 25.192 292.519 24.996 293.424 24.996H295.552V24.702C295.552 24.3847 295.501 24.1327 295.398 23.946C295.305 23.7593 295.127 23.624 294.866 23.54C294.614 23.456 294.241 23.414 293.746 23.414C292.962 23.414 292.229 23.5307 291.548 23.764V22.63C291.847 22.5087 292.211 22.4107 292.64 22.336C293.069 22.2613 293.531 22.224 294.026 22.224C294.997 22.224 295.734 22.42 296.238 22.812C296.751 23.204 297.008 23.8433 297.008 24.73V29H295.706L295.608 28.328C295.337 28.5893 295.001 28.79 294.6 28.93C294.208 29.07 293.713 29.14 293.116 29.14ZM293.522 28.048C293.979 28.048 294.376 27.9733 294.712 27.824C295.057 27.6653 295.337 27.4553 295.552 27.194V26.032H293.452C293.004 26.032 292.677 26.1207 292.472 26.298C292.276 26.466 292.178 26.7273 292.178 27.082C292.178 27.4273 292.295 27.6747 292.528 27.824C292.761 27.9733 293.093 28.048 293.522 28.048ZM301.234 29.14C300.525 29.14 299.993 28.9533 299.638 28.58C299.293 28.1973 299.12 27.6793 299.12 27.026V23.554H298.14V22.364H299.12V20.838L300.632 20.376V22.364H302.396L302.298 23.554H300.632V26.942C300.632 27.3247 300.721 27.5953 300.898 27.754C301.076 27.9033 301.365 27.978 301.766 27.978C302.018 27.978 302.284 27.9313 302.564 27.838V28.916C302.2 29.0653 301.757 29.14 301.234 29.14ZM307.092 29.14C305.934 29.14 305.038 28.8553 304.404 28.286C303.769 27.7167 303.452 26.844 303.452 25.668C303.452 24.604 303.722 23.764 304.264 23.148C304.805 22.532 305.626 22.224 306.728 22.224C307.736 22.224 308.492 22.49 308.996 23.022C309.509 23.5447 309.766 24.2213 309.766 25.052V26.284H304.908C304.982 26.928 305.216 27.3713 305.608 27.614C306 27.8567 306.597 27.978 307.4 27.978C307.736 27.978 308.081 27.9453 308.436 27.88C308.79 27.8147 309.098 27.7307 309.36 27.628V28.748C309.061 28.8787 308.716 28.9767 308.324 29.042C307.941 29.1073 307.53 29.14 307.092 29.14ZM304.908 25.29H308.422V24.828C308.422 24.3707 308.296 24.016 308.044 23.764C307.792 23.5027 307.367 23.372 306.77 23.372C306.06 23.372 305.57 23.526 305.3 23.834C305.038 24.142 304.908 24.6273 304.908 25.29ZM313.995 29.14C313.398 29.14 312.87 29.0373 312.413 28.832C311.956 28.6267 311.601 28.286 311.349 27.81C311.097 27.334 310.971 26.6947 310.971 25.892C310.971 25.0987 311.106 24.4313 311.377 23.89C311.648 23.3393 312.021 22.924 312.497 22.644C312.982 22.364 313.528 22.224 314.135 22.224C314.536 22.224 314.891 22.2707 315.199 22.364C315.516 22.4573 315.82 22.602 316.109 22.798V19.564H317.635V29H316.333L316.235 28.342C315.936 28.6127 315.61 28.8133 315.255 28.944C314.9 29.0747 314.48 29.14 313.995 29.14ZM314.401 27.992C315.082 27.992 315.652 27.7587 316.109 27.292V23.974C315.67 23.582 315.12 23.386 314.457 23.386C313.813 23.386 313.328 23.6007 313.001 24.03C312.674 24.4593 312.511 25.0847 312.511 25.906C312.511 26.6993 312.66 27.2453 312.959 27.544C313.267 27.8427 313.748 27.992 314.401 27.992Z" fill="white"/>
<rect x="354.5" y="12" width="75" height="24" rx="4" fill="#1E293B"/>
<path d="M363.382 29V19.984H364.908V23.904H369.248V19.984H370.774V29H369.248V25.08H364.908V29H363.382ZM372.747 20.978V19.718H374.413V20.978H372.747ZM372.873 29V23.526H371.865L372.005 22.364H374.399V29H372.873ZM378.923 29.14C378.326 29.14 377.798 29.0373 377.341 28.832C376.884 28.6267 376.529 28.286 376.277 27.81C376.025 27.334 375.899 26.6947 375.899 25.892C375.899 25.0987 376.034 24.4313 376.305 23.89C376.576 23.3393 376.949 22.924 377.425 22.644C377.91 22.364 378.456 22.224 379.063 22.224C379.464 22.224 379.819 22.2707 380.127 22.364C380.444 22.4573 380.748 22.602 381.037 22.798V19.564H382.563V29H381.261L381.163 28.342C380.864 28.6127 380.538 28.8133 380.183 28.944C379.828 29.0747 379.408 29.14 378.923 29.14ZM379.329 27.992C380.01 27.992 380.58 27.7587 381.037 27.292V23.974C380.598 23.582 380.048 23.386 379.385 23.386C378.741 23.386 378.256 23.6007 377.929 24.03C377.602 24.4593 377.439 25.0847 377.439 25.906C377.439 26.6993 377.588 27.2453 377.887 27.544C378.195 27.8427 378.676 27.992 379.329 27.992ZM387.551 29.14C386.393 29.14 385.497 28.8553 384.863 28.286C384.228 27.7167 383.911 26.844 383.911 25.668C383.911 24.604 384.181 23.764 384.723 23.148C385.264 22.532 386.085 22.224 387.187 22.224C388.195 22.224 388.951 22.49 389.455 23.022C389.968 23.5447 390.225 24.2213 390.225 25.052V26.284H385.367C385.441 26.928 385.675 27.3713 386.067 27.614C386.459 27.8567 387.056 27.978 387.859 27.978C388.195 27.978 388.54 27.9453 388.895 27.88C389.249 27.8147 389.557 27.7307 389.819 27.628V28.748C389.52 28.8787 389.175 28.9767 388.783 29.042C388.4 29.1073 387.989 29.14 387.551 29.14ZM385.367 25.29H388.881V24.828C388.881 24.3707 388.755 24.016 388.503 23.764C388.251 23.5027 387.826 23.372 387.229 23.372C386.519 23.372 386.029 23.526 385.759 23.834C385.497 24.142 385.367 24.6273 385.367 25.29ZM398.787 29.14C397.545 29.14 396.579 28.8413 395.889 28.244C395.207 27.6467 394.867 26.7833 394.867 25.654V19.984H396.393V25.598C396.393 26.354 396.598 26.9187 397.009 27.292C397.429 27.6653 398.021 27.852 398.787 27.852C399.543 27.852 400.126 27.6653 400.537 27.292C400.957 26.9187 401.167 26.354 401.167 25.598V19.984H402.679V25.654C402.679 26.7833 402.338 27.6467 401.657 28.244C400.975 28.8413 400.019 29.14 398.787 29.14ZM404.37 29V22.364H405.77L405.84 23.064C406.139 22.8307 406.494 22.6347 406.904 22.476C407.324 22.308 407.786 22.224 408.29 22.224C409.149 22.224 409.774 22.4247 410.166 22.826C410.558 23.2273 410.754 23.8527 410.754 24.702V29H409.242V24.772C409.242 24.2587 409.135 23.8993 408.92 23.694C408.715 23.4887 408.323 23.386 407.744 23.386C407.399 23.386 407.058 23.456 406.722 23.596C406.396 23.736 406.12 23.918 405.896 24.142V29H404.37ZM413.024 20.978V19.718H414.69V20.978H413.024ZM413.15 29V23.526H412.142L412.282 22.364H414.676V29H413.15ZM418.99 29.14C418.281 29.14 417.749 28.9533 417.394 28.58C417.049 28.1973 416.876 27.6793 416.876 27.026V23.554H415.896V22.364H416.876V20.838L418.388 20.376V22.364H420.152L420.054 23.554H418.388V26.942C418.388 27.3247 418.477 27.5953 418.654 27.754C418.832 27.9033 419.121 27.978 419.522 27.978C419.774 27.978 420.04 27.9313 420.32 27.838V28.916C419.956 29.0653 419.513 29.14 418.99 29.14Z" fill="white"/>
<mask id="path-10-inside-1_2563_26075" fill="white">
<path d="M4 40H444V88H4V40Z"/>
</mask>
<path d="M4 40H444V88H4V40Z" fill="white"/>
<path d="M444 88V87H4V88V89H444V88Z" fill="#ECEDF1" mask="url(#path-10-inside-1_2563_26075)"/>
<path d="M24.912 69.5V59.196H27.072V67.836H32.144V69.5H24.912ZM33.0139 69.5L36.9499 59.196H39.3179L43.2379 69.5H40.9979L40.0219 67.02H36.2299L35.2699 69.5H33.0139ZM36.5499 65.356H39.7019L38.1179 61.212L36.5499 65.356Z" fill="#1E293B"/>
<path d="M348 56C348 53.7909 349.791 52 352 52H368C370.209 52 372 53.7909 372 56V72C372 74.2091 370.209 76 368 76H352C349.791 76 348 74.2091 348 72V56Z" fill="#F3F4F7"/>
<path d="M366.857 65.1429H361.143V70.8571C361.143 71.1602 361.022 71.4509 360.808 71.6653C360.594 71.8796 360.303 72 360 72C359.697 72 359.406 71.8796 359.192 71.6653C358.978 71.4509 358.857 71.1602 358.857 70.8571V65.1429H353.143C352.84 65.1429 352.549 65.0224 352.335 64.8081C352.12 64.5938 352 64.3031 352 64C352 63.6969 352.12 63.4062 352.335 63.1919C352.549 62.9776 352.84 62.8571 353.143 62.8571H358.857V57.1429C358.857 56.8398 358.978 56.5491 359.192 56.3347C359.406 56.1204 359.697 56 360 56C360.303 56 360.594 56.1204 360.808 56.3347C361.022 56.5491 361.143 56.8398 361.143 57.1429V62.8571H366.857C367.16 62.8571 367.451 62.9776 367.665 63.1919C367.88 63.4062 368 63.6969 368 64C368 64.3031 367.88 64.5938 367.665 64.8081C367.451 65.0224 367.16 65.1429 366.857 65.1429Z" fill="#A9ACB9"/>
<path d="M380 56C380 53.7909 381.791 52 384 52H400C402.209 52 404 53.7909 404 56V72C404 74.2091 402.209 76 400 76H384C381.791 76 380 74.2091 380 72V56Z" fill="#F3F4F7"/>
<path d="M398 65H386C385.735 65 385.48 64.8946 385.293 64.7071C385.105 64.5196 385 64.2652 385 64C385 63.7348 385.105 63.4804 385.293 63.2929C385.48 63.1054 385.735 63 386 63H398C398.265 63 398.52 63.1054 398.707 63.2929C398.895 63.4804 399 63.7348 399 64C399 64.2652 398.895 64.5196 398.707 64.7071C398.52 64.8946 398.265 65 398 65Z" fill="#A9ACB9"/>
<path d="M412 56C412 53.7909 413.791 52 416 52H432C434.209 52 436 53.7909 436 56V72C436 74.2091 434.209 76 432 76H416C413.791 76 412 74.2091 412 72V56Z" fill="#F3F4F7"/>
<path d="M430.857 62H417.143C416.84 62 416.549 61.8946 416.335 61.7071C416.12 61.5196 416 61.2652 416 61C416 60.7348 416.12 60.4804 416.335 60.2929C416.549 60.1054 416.84 60 417.143 60H430.857C431.16 60 431.451 60.1054 431.665 60.2929C431.88 60.4804 432 60.7348 432 61C432 61.2652 431.88 61.5196 431.665 61.7071C431.451 61.8946 431.16 62 430.857 62ZM430.857 68H417.143C416.84 68 416.549 67.8946 416.335 67.7071C416.12 67.5196 416 67.2652 416 67C416 66.7348 416.12 66.4804 416.335 66.2929C416.549 66.1054 416.84 66 417.143 66H430.857C431.16 66 431.451 66.1054 431.665 66.2929C431.88 66.4804 432 66.7348 432 67C432 67.2652 431.88 67.5196 431.665 67.7071C431.451 67.8946 431.16 68 430.857 68Z" fill="#A9ACB9"/>
<mask id="path-21-inside-2_2563_26075" fill="white">
<path d="M4 88H444V136H4V88Z"/>
</mask>
<path d="M4 88H444V136H4V88Z" fill="white"/>
<path d="M444 136V135H4V136V137H444V136Z" fill="#ECEDF1" mask="url(#path-21-inside-2_2563_26075)"/>
<path d="M26.528 117.5L22.592 107.196H24.848L27.696 115.084L30.56 107.196H32.816L28.896 117.5H26.528ZM33.912 117.5V107.196H35.784L40.664 114.06V107.196H42.824V117.5H40.952L36.072 110.636V117.5H33.912Z" fill="#1E293B"/>
<path d="M348 104C348 101.791 349.791 100 352 100H368C370.209 100 372 101.791 372 104V120C372 122.209 370.209 124 368 124H352C349.791 124 348 122.209 348 120V104Z" fill="#F3F4F7"/>
<path d="M366.857 113.143H361.143V118.857C361.143 119.16 361.022 119.451 360.808 119.665C360.594 119.88 360.303 120 360 120C359.697 120 359.406 119.88 359.192 119.665C358.978 119.451 358.857 119.16 358.857 118.857V113.143H353.143C352.84 113.143 352.549 113.022 352.335 112.808C352.12 112.594 352 112.303 352 112C352 111.697 352.12 111.406 352.335 111.192C352.549 110.978 352.84 110.857 353.143 110.857H358.857V105.143C358.857 104.84 358.978 104.549 359.192 104.335C359.406 104.12 359.697 104 360 104C360.303 104 360.594 104.12 360.808 104.335C361.022 104.549 361.143 104.84 361.143 105.143V110.857H366.857C367.16 110.857 367.451 110.978 367.665 111.192C367.88 111.406 368 111.697 368 112C368 112.303 367.88 112.594 367.665 112.808C367.451 113.022 367.16 113.143 366.857 113.143Z" fill="#A9ACB9"/>
<path d="M380 104C380 101.791 381.791 100 384 100H400C402.209 100 404 101.791 404 104V120C404 122.209 402.209 124 400 124H384C381.791 124 380 122.209 380 120V104Z" fill="#F3F4F7"/>
<path d="M398 113H386C385.735 113 385.48 112.895 385.293 112.707C385.105 112.52 385 112.265 385 112C385 111.735 385.105 111.48 385.293 111.293C385.48 111.105 385.735 111 386 111H398C398.265 111 398.52 111.105 398.707 111.293C398.895 111.48 399 111.735 399 112C399 112.265 398.895 112.52 398.707 112.707C398.52 112.895 398.265 113 398 113Z" fill="#A9ACB9"/>
<path d="M412 104C412 101.791 413.791 100 416 100H432C434.209 100 436 101.791 436 104V120C436 122.209 434.209 124 432 124H416C413.791 124 412 122.209 412 120V104Z" fill="#F3F4F7"/>
<path d="M430.857 110H417.143C416.84 110 416.549 109.895 416.335 109.707C416.12 109.52 416 109.265 416 109C416 108.735 416.12 108.48 416.335 108.293C416.549 108.105 416.84 108 417.143 108H430.857C431.16 108 431.451 108.105 431.665 108.293C431.88 108.48 432 108.735 432 109C432 109.265 431.88 109.52 431.665 109.707C431.451 109.895 431.16 110 430.857 110ZM430.857 116H417.143C416.84 116 416.549 115.895 416.335 115.707C416.12 115.52 416 115.265 416 115C416 114.735 416.12 114.48 416.335 114.293C416.549 114.105 416.84 114 417.143 114H430.857C431.16 114 431.451 114.105 431.665 114.293C431.88 114.48 432 114.735 432 115C432 115.265 431.88 115.52 431.665 115.707C431.451 115.895 431.16 116 430.857 116Z" fill="#A9ACB9"/>
<mask id="path-32-inside-3_2563_26075" fill="white">
<path d="M4 136H444V184H4V136Z"/>
</mask>
<path d="M4 136H444V184H4V136Z" fill="white"/>
<path d="M444 184V183H4V184V185H444V184Z" fill="#ECEDF1" mask="url(#path-32-inside-3_2563_26075)"/>
<path d="M27.44 165.66C26.0213 165.66 24.896 165.319 24.064 164.636C23.2427 163.943 22.832 162.94 22.832 161.628V155.196H24.992V161.468C24.992 162.257 25.2053 162.849 25.632 163.244C26.0587 163.628 26.6613 163.82 27.44 163.82C28.2187 163.82 28.816 163.628 29.232 163.244C29.6587 162.849 29.872 162.257 29.872 161.468V155.196H32.032V161.628C32.032 162.94 31.6213 163.943 30.8 164.636C29.9787 165.319 28.8587 165.66 27.44 165.66ZM33.7714 165.5V155.196H35.9314V159.564L39.8994 155.196H42.3794L38.6514 159.372L42.5714 165.5H40.2674L37.3074 160.748L35.9314 162.236V165.5H33.7714Z" fill="#1E293B"/>
<path d="M348 152C348 149.791 349.791 148 352 148H368C370.209 148 372 149.791 372 152V168C372 170.209 370.209 172 368 172H352C349.791 172 348 170.209 348 168V152Z" fill="#F3F4F7"/>
<path d="M366.857 161.143H361.143V166.857C361.143 167.16 361.022 167.451 360.808 167.665C360.594 167.88 360.303 168 360 168C359.697 168 359.406 167.88 359.192 167.665C358.978 167.451 358.857 167.16 358.857 166.857V161.143H353.143C352.84 161.143 352.549 161.022 352.335 160.808C352.12 160.594 352 160.303 352 160C352 159.697 352.12 159.406 352.335 159.192C352.549 158.978 352.84 158.857 353.143 158.857H358.857V153.143C358.857 152.84 358.978 152.549 359.192 152.335C359.406 152.12 359.697 152 360 152C360.303 152 360.594 152.12 360.808 152.335C361.022 152.549 361.143 152.84 361.143 153.143V158.857H366.857C367.16 158.857 367.451 158.978 367.665 159.192C367.88 159.406 368 159.697 368 160C368 160.303 367.88 160.594 367.665 160.808C367.451 161.022 367.16 161.143 366.857 161.143Z" fill="#A9ACB9"/>
<path d="M380 152C380 149.791 381.791 148 384 148H400C402.209 148 404 149.791 404 152V168C404 170.209 402.209 172 400 172H384C381.791 172 380 170.209 380 168V152Z" fill="#F3F4F7"/>
<path d="M398 161H386C385.735 161 385.48 160.895 385.293 160.707C385.105 160.52 385 160.265 385 160C385 159.735 385.105 159.48 385.293 159.293C385.48 159.105 385.735 159 386 159H398C398.265 159 398.52 159.105 398.707 159.293C398.895 159.48 399 159.735 399 160C399 160.265 398.895 160.52 398.707 160.707C398.52 160.895 398.265 161 398 161Z" fill="#A9ACB9"/>
<path d="M412 152C412 149.791 413.791 148 416 148H432C434.209 148 436 149.791 436 152V168C436 170.209 434.209 172 432 172H416C413.791 172 412 170.209 412 168V152Z" fill="#F3F4F7"/>
<path d="M430.857 158H417.143C416.84 158 416.549 157.895 416.335 157.707C416.12 157.52 416 157.265 416 157C416 156.735 416.12 156.48 416.335 156.293C416.549 156.105 416.84 156 417.143 156H430.857C431.16 156 431.451 156.105 431.665 156.293C431.88 156.48 432 156.735 432 157C432 157.265 431.88 157.52 431.665 157.707C431.451 157.895 431.16 158 430.857 158ZM430.857 164H417.143C416.84 164 416.549 163.895 416.335 163.707C416.12 163.52 416 163.265 416 163C416 162.735 416.12 162.48 416.335 162.293C416.549 162.105 416.84 162 417.143 162H430.857C431.16 162 431.451 162.105 431.665 162.293C431.88 162.48 432 162.735 432 163C432 163.265 431.88 163.52 431.665 163.707C431.451 163.895 431.16 164 430.857 164Z" fill="#A9ACB9"/>
<mask id="path-43-inside-4_2563_26075" fill="white">
<path d="M4 184H444V232H4V184Z"/>
</mask>
<path d="M4 184H444V232H4V184Z" fill="white"/>
<path d="M444 232V231H4V232V233H444V232Z" fill="#ECEDF1" mask="url(#path-43-inside-4_2563_26075)"/>
<path d="M23.912 213.5V203.196H26.072V207.564L30.04 203.196H32.52L28.792 207.372L32.712 213.5H30.408L27.448 208.748L26.072 210.236V213.5H23.912ZM34.2089 213.5V203.196H39.1529C40.3369 203.196 41.2062 203.511 41.7609 204.14C42.3155 204.759 42.5929 205.596 42.5929 206.652C42.5929 207.345 42.4115 207.943 42.0489 208.444C41.6969 208.945 41.1955 209.308 40.5449 209.532C40.7155 209.671 40.8489 209.82 40.9449 209.98C41.0515 210.14 41.1582 210.353 41.2649 210.62L42.5129 213.5H40.2729L39.0569 210.732C38.9502 210.497 38.8329 210.332 38.7049 210.236C38.5769 210.14 38.3635 210.092 38.0649 210.092H36.3689V213.5H34.2089ZM36.3689 208.3H38.5929C39.1582 208.3 39.6009 208.177 39.9209 207.932C40.2409 207.676 40.4009 207.249 40.4009 206.652C40.4009 206.076 40.2622 205.655 39.9849 205.388C39.7075 205.121 39.2862 204.988 38.7209 204.988H36.3689V208.3Z" fill="#1E293B"/>
<path d="M348 200C348 197.791 349.791 196 352 196H368C370.209 196 372 197.791 372 200V216C372 218.209 370.209 220 368 220H352C349.791 220 348 218.209 348 216V200Z" fill="#F3F4F7"/>
<path d="M366.857 209.143H361.143V214.857C361.143 215.16 361.022 215.451 360.808 215.665C360.594 215.88 360.303 216 360 216C359.697 216 359.406 215.88 359.192 215.665C358.978 215.451 358.857 215.16 358.857 214.857V209.143H353.143C352.84 209.143 352.549 209.022 352.335 208.808C352.12 208.594 352 208.303 352 208C352 207.697 352.12 207.406 352.335 207.192C352.549 206.978 352.84 206.857 353.143 206.857H358.857V201.143C358.857 200.84 358.978 200.549 359.192 200.335C359.406 200.12 359.697 200 360 200C360.303 200 360.594 200.12 360.808 200.335C361.022 200.549 361.143 200.84 361.143 201.143V206.857H366.857C367.16 206.857 367.451 206.978 367.665 207.192C367.88 207.406 368 207.697 368 208C368 208.303 367.88 208.594 367.665 208.808C367.451 209.022 367.16 209.143 366.857 209.143Z" fill="#A9ACB9"/>
<path d="M380 200C380 197.791 381.791 196 384 196H400C402.209 196 404 197.791 404 200V216C404 218.209 402.209 220 400 220H384C381.791 220 380 218.209 380 216V200Z" fill="#F3F4F7"/>
<path d="M398 209H386C385.735 209 385.48 208.895 385.293 208.707C385.105 208.52 385 208.265 385 208C385 207.735 385.105 207.48 385.293 207.293C385.48 207.105 385.735 207 386 207H398C398.265 207 398.52 207.105 398.707 207.293C398.895 207.48 399 207.735 399 208C399 208.265 398.895 208.52 398.707 208.707C398.52 208.895 398.265 209 398 209Z" fill="#A9ACB9"/>
<path d="M412 200C412 197.791 413.791 196 416 196H432C434.209 196 436 197.791 436 200V216C436 218.209 434.209 220 432 220H416C413.791 220 412 218.209 412 216V200Z" fill="#F3F4F7"/>
<path d="M430.857 206H417.143C416.84 206 416.549 205.895 416.335 205.707C416.12 205.52 416 205.265 416 205C416 204.735 416.12 204.48 416.335 204.293C416.549 204.105 416.84 204 417.143 204H430.857C431.16 204 431.451 204.105 431.665 204.293C431.88 204.48 432 204.735 432 205C432 205.265 431.88 205.52 431.665 205.707C431.451 205.895 431.16 206 430.857 206ZM430.857 212H417.143C416.84 212 416.549 211.895 416.335 211.707C416.12 211.52 416 211.265 416 211C416 210.735 416.12 210.48 416.335 210.293C416.549 210.105 416.84 210 417.143 210H430.857C431.16 210 431.451 210.105 431.665 210.293C431.88 210.48 432 210.735 432 211C432 211.265 431.88 211.52 431.665 211.707C431.451 211.895 431.16 212 430.857 212Z" fill="#A9ACB9"/>
<g filter="url(#filter0_d_2563_26075)">
<rect x="21" y="37" width="200" height="64" rx="4" fill="white" shape-rendering="crispEdges"/>
<path d="M35.1291 58.66C33.4331 58.66 32.1477 58.196 31.2731 57.268C30.4091 56.34 29.9771 55.0867 29.9771 53.508C29.9771 52.3773 30.1584 51.4067 30.5211 50.596C30.8944 49.7747 31.4597 49.1453 32.2171 48.708C32.9744 48.26 33.9397 48.036 35.1131 48.036C35.7104 48.036 36.2544 48.084 36.7451 48.18C37.2464 48.2653 37.7104 48.3827 38.1371 48.532V50.052C37.7104 49.8813 37.2517 49.7533 36.7611 49.668C36.2811 49.572 35.7744 49.524 35.2411 49.524C33.9611 49.524 33.0544 49.8653 32.5211 50.548C31.9984 51.2307 31.7371 52.2173 31.7371 53.508C31.7371 54.7133 32.0251 55.6307 32.6011 56.26C33.1771 56.8787 34.0677 57.188 35.2731 57.188C35.7637 57.188 36.2544 57.1507 36.7451 57.076C37.2464 56.9907 37.7157 56.8627 38.1531 56.692V58.228C37.7264 58.3667 37.2624 58.4733 36.7611 58.548C36.2704 58.6227 35.7264 58.66 35.1291 58.66ZM43.4291 58.66C42.0637 58.66 41.0611 58.3187 40.4211 57.636C39.7917 56.9533 39.4771 55.9773 39.4771 54.708C39.4771 53.4387 39.7971 52.4627 40.4371 51.78C41.0771 51.0973 42.0744 50.756 43.4291 50.756C44.7944 50.756 45.7971 51.0973 46.4371 51.78C47.0771 52.4627 47.3971 53.4387 47.3971 54.708C47.3971 55.9773 47.0771 56.9533 46.4371 57.636C45.8077 58.3187 44.8051 58.66 43.4291 58.66ZM43.4291 57.188C44.2291 57.188 44.7944 56.996 45.1251 56.612C45.4664 56.2173 45.6371 55.5827 45.6371 54.708C45.6371 53.8333 45.4664 53.204 45.1251 52.82C44.7944 52.436 44.2291 52.244 43.4291 52.244C42.6397 52.244 42.0744 52.436 41.7331 52.82C41.4024 53.204 41.2371 53.8333 41.2371 54.708C41.2371 55.5827 41.4024 56.2173 41.7331 56.612C42.0744 56.996 42.6397 57.188 43.4291 57.188ZM49.0939 58.5V50.916H50.6939L50.7739 51.716C51.1153 51.4493 51.5206 51.2253 51.9899 51.044C52.4699 50.852 52.9979 50.756 53.5739 50.756C54.5553 50.756 55.2699 50.9853 55.7179 51.444C56.1659 51.9027 56.3899 52.6173 56.3899 53.588V58.5H54.6619V53.668C54.6619 53.0813 54.5393 52.6707 54.2939 52.436C54.0593 52.2013 53.6113 52.084 52.9499 52.084C52.5553 52.084 52.1659 52.164 51.7819 52.324C51.4086 52.484 51.0939 52.692 50.8379 52.948V58.5H49.0939ZM58.8079 58.5V52.276H57.7039V50.916H58.8079V50.132C58.8079 49.6093 58.9306 49.1507 59.1759 48.756C59.4319 48.3507 59.7839 48.036 60.2319 47.812C60.6906 47.5773 61.2239 47.46 61.8319 47.46C62.2053 47.46 62.5573 47.4867 62.8879 47.54C63.2186 47.5827 63.4906 47.6467 63.7039 47.732V49.028C63.5653 48.964 63.3626 48.916 63.0959 48.884C62.8293 48.852 62.5786 48.836 62.3439 48.836C61.7253 48.836 61.2666 48.9427 60.9679 49.156C60.6799 49.3693 60.5359 49.7053 60.5359 50.164V50.916H64.8079V58.5H63.0639V52.276H60.5359V58.5H58.8079ZM69.9003 61.316C69.335 61.316 68.7696 61.2787 68.2043 61.204C67.639 61.14 67.159 61.0387 66.7643 60.9V59.556C67.191 59.6947 67.6816 59.8013 68.2363 59.876C68.791 59.9507 69.319 59.988 69.8203 59.988C70.5883 59.988 71.1483 59.9453 71.5003 59.86C71.8523 59.7747 72.0283 59.5827 72.0283 59.284C72.0283 59.06 71.943 58.9 71.7723 58.804C71.6016 58.7187 71.2763 58.676 70.7963 58.676H68.7483C67.3723 58.676 66.6843 58.1907 66.6843 57.22C66.6843 56.9107 66.775 56.6227 66.9563 56.356C67.1376 56.0893 67.4256 55.8867 67.8203 55.748C67.383 55.5347 67.0576 55.2413 66.8443 54.868C66.6416 54.4947 66.5403 54.0467 66.5403 53.524C66.5403 52.5533 66.8283 51.8493 67.4043 51.412C67.991 50.9747 68.8656 50.756 70.0283 50.756C70.2736 50.756 70.5296 50.7773 70.7963 50.82C71.063 50.852 71.271 50.884 71.4203 50.916H74.2043L74.1563 52.052H72.8763C73.079 52.2227 73.2283 52.436 73.3243 52.692C73.4203 52.948 73.4683 53.2253 73.4683 53.524C73.4683 54.3347 73.223 54.9747 72.7323 55.444C72.2416 55.9027 71.5003 56.132 70.5083 56.132C70.3376 56.132 70.1776 56.1267 70.0283 56.116C69.8896 56.0947 69.735 56.0733 69.5643 56.052C69.2443 56.084 68.9563 56.1693 68.7003 56.308C68.4443 56.4467 68.3163 56.6333 68.3163 56.868C68.3163 57.028 68.3803 57.1453 68.5083 57.22C68.6363 57.284 68.8496 57.316 69.1483 57.316H71.2763C72.0336 57.316 72.615 57.4813 73.0203 57.812C73.4363 58.132 73.6443 58.6013 73.6443 59.22C73.6443 59.9667 73.319 60.5 72.6683 60.82C72.0283 61.1507 71.1056 61.316 69.9003 61.316ZM70.0283 55.028C70.7216 55.028 71.2016 54.9107 71.4683 54.676C71.7456 54.4413 71.8843 54.0413 71.8843 53.476C71.8843 52.9107 71.7456 52.5 71.4683 52.244C71.2016 51.988 70.7216 51.86 70.0283 51.86C69.3776 51.86 68.903 51.9827 68.6043 52.228C68.3056 52.4733 68.1563 52.8893 68.1563 53.476C68.1563 54.02 68.295 54.4147 68.5723 54.66C68.8603 54.9053 69.3456 55.028 70.0283 55.028ZM78.4237 58.66C77.517 58.66 76.8184 58.4093 76.3277 57.908C75.8477 57.4067 75.6077 56.6707 75.6077 55.7V50.916H77.3517V55.7C77.3517 56.2653 77.4904 56.6813 77.7677 56.948C78.045 57.2147 78.4717 57.348 79.0477 57.348C79.4744 57.348 79.869 57.268 80.2317 57.108C80.5944 56.948 80.909 56.7347 81.1757 56.468V50.916H82.9037V58.5H81.3197L81.2397 57.716C80.8984 57.9827 80.493 58.2067 80.0237 58.388C79.5544 58.5693 79.021 58.66 78.4237 58.66ZM84.9377 58.5V50.916H86.5377L86.6337 51.796C86.9964 51.5613 87.4284 51.348 87.9297 51.156C88.431 50.964 88.927 50.8307 89.4177 50.756V52.084C89.119 52.1373 88.7937 52.2173 88.4417 52.324C88.1004 52.42 87.775 52.532 87.4657 52.66C87.1564 52.7773 86.895 52.9 86.6817 53.028V58.5H84.9377ZM94.2152 58.66C92.8925 58.66 91.8685 58.3347 91.1432 57.684C90.4179 57.0333 90.0552 56.036 90.0552 54.692C90.0552 53.476 90.3645 52.516 90.9832 51.812C91.6019 51.108 92.5405 50.756 93.7992 50.756C94.9512 50.756 95.8152 51.06 96.3912 51.668C96.9779 52.2653 97.2712 53.0387 97.2712 53.988V55.396H91.7192C91.8045 56.132 92.0712 56.6387 92.5192 56.916C92.9672 57.1933 93.6499 57.332 94.5672 57.332C94.9512 57.332 95.3459 57.2947 95.7512 57.22C96.1565 57.1453 96.5085 57.0493 96.8072 56.932V58.212C96.4659 58.3613 96.0712 58.4733 95.6232 58.548C95.1859 58.6227 94.7165 58.66 94.2152 58.66ZM91.7192 54.26H95.7352V53.732C95.7352 53.2093 95.5912 52.804 95.3032 52.516C95.0152 52.2173 94.5299 52.068 93.8472 52.068C93.0365 52.068 92.4765 52.244 92.1672 52.596C91.8685 52.948 91.7192 53.5027 91.7192 54.26ZM102.656 58.5V48.196H104.4V57.156H109.68V58.5H102.656ZM114.288 58.66C112.923 58.66 111.92 58.3187 111.28 57.636C110.651 56.9533 110.336 55.9773 110.336 54.708C110.336 53.4387 110.656 52.4627 111.296 51.78C111.936 51.0973 112.934 50.756 114.288 50.756C115.654 50.756 116.656 51.0973 117.296 51.78C117.936 52.4627 118.256 53.4387 118.256 54.708C118.256 55.9773 117.936 56.9533 117.296 57.636C116.667 58.3187 115.664 58.66 114.288 58.66ZM114.288 57.188C115.088 57.188 115.654 56.996 115.984 56.612C116.326 56.2173 116.496 55.5827 116.496 54.708C116.496 53.8333 116.326 53.204 115.984 52.82C115.654 52.436 115.088 52.244 114.288 52.244C113.499 52.244 112.934 52.436 112.592 52.82C112.262 53.204 112.096 53.8333 112.096 54.708C112.096 55.5827 112.262 56.2173 112.592 56.612C112.934 56.996 113.499 57.188 114.288 57.188ZM120.915 58.5L118.915 50.916H120.659L121.971 56.436L123.459 51.844V50.916H124.787L126.435 56.436L127.747 50.916H129.475L127.491 58.5H125.843L124.227 53.54L122.579 58.5H120.915ZM137.98 58.66C136.646 58.66 135.574 58.4893 134.764 58.148V56.612C135.222 56.7827 135.713 56.9213 136.236 57.028C136.769 57.1347 137.297 57.188 137.82 57.188C138.641 57.188 139.254 57.092 139.66 56.9C140.076 56.708 140.284 56.324 140.284 55.748C140.284 55.396 140.198 55.1133 140.028 54.9C139.857 54.6867 139.574 54.5053 139.18 54.356C138.785 54.196 138.241 54.0307 137.548 53.86C136.438 53.572 135.66 53.2093 135.212 52.772C134.764 52.324 134.54 51.7107 134.54 50.932C134.54 50.0253 134.87 49.316 135.532 48.804C136.193 48.292 137.18 48.036 138.492 48.036C139.089 48.036 139.649 48.0787 140.172 48.164C140.705 48.2493 141.121 48.3453 141.42 48.452V49.988C140.609 49.6787 139.713 49.524 138.732 49.524C137.964 49.524 137.366 49.6253 136.94 49.828C136.513 50.0307 136.3 50.3987 136.3 50.932C136.3 51.2413 136.374 51.492 136.524 51.684C136.673 51.876 136.929 52.0413 137.292 52.18C137.665 52.3187 138.177 52.4733 138.828 52.644C139.67 52.8573 140.321 53.1133 140.78 53.412C141.249 53.7 141.574 54.0413 141.756 54.436C141.948 54.82 142.044 55.2573 142.044 55.748C142.044 56.6547 141.708 57.3693 141.036 57.892C140.364 58.404 139.345 58.66 137.98 58.66ZM146.396 58.66C145.586 58.66 144.978 58.4467 144.572 58.02C144.178 57.5827 143.98 56.9907 143.98 56.244V52.276H142.86V50.916H143.98V49.172L145.708 48.644V50.916H147.724L147.612 52.276H145.708V56.148C145.708 56.5853 145.81 56.8947 146.012 57.076C146.215 57.2467 146.546 57.332 147.004 57.332C147.292 57.332 147.596 57.2787 147.916 57.172V58.404C147.5 58.5747 146.994 58.66 146.396 58.66ZM152.882 58.66C151.517 58.66 150.514 58.3187 149.874 57.636C149.245 56.9533 148.93 55.9773 148.93 54.708C148.93 53.4387 149.25 52.4627 149.89 51.78C150.53 51.0973 151.528 50.756 152.882 50.756C154.248 50.756 155.25 51.0973 155.89 51.78C156.53 52.4627 156.85 53.4387 156.85 54.708C156.85 55.9773 156.53 56.9533 155.89 57.636C155.261 58.3187 154.258 58.66 152.882 58.66ZM152.882 57.188C153.682 57.188 154.248 56.996 154.578 56.612C154.92 56.2173 155.09 55.5827 155.09 54.708C155.09 53.8333 154.92 53.204 154.578 52.82C154.248 52.436 153.682 52.244 152.882 52.244C152.093 52.244 151.528 52.436 151.186 52.82C150.856 53.204 150.69 53.8333 150.69 54.708C150.69 55.5827 150.856 56.2173 151.186 56.612C151.528 56.996 152.093 57.188 152.882 57.188ZM162.275 58.66C160.942 58.66 159.934 58.324 159.251 57.652C158.568 56.9693 158.227 55.988 158.227 54.708C158.227 53.3747 158.6 52.3827 159.347 51.732C160.104 51.0813 161.112 50.756 162.371 50.756C162.894 50.756 163.331 50.7933 163.683 50.868C164.046 50.9427 164.392 51.06 164.723 51.22V52.516C164.168 52.2387 163.496 52.1 162.707 52.1C161.832 52.1 161.16 52.2973 160.691 52.692C160.222 53.076 159.987 53.748 159.987 54.708C159.987 55.6147 160.195 56.2813 160.611 56.708C161.027 57.124 161.715 57.332 162.675 57.332C163.432 57.332 164.12 57.188 164.739 56.9V58.228C164.387 58.3667 164.008 58.4733 163.603 58.548C163.208 58.6227 162.766 58.66 162.275 58.66ZM166.125 58.5V47.716H167.869V53.956L171.053 50.916H173.053L169.965 53.972L173.229 58.5H171.389L168.877 54.9L167.869 55.86V58.5H166.125Z" fill="#1E293B"/>
<path d="M33.6046 90.66C32.2712 90.66 31.1992 90.4893 30.3886 90.148V88.612C30.8472 88.7827 31.3379 88.9213 31.8606 89.028C32.3939 89.1347 32.9219 89.188 33.4446 89.188C34.2659 89.188 34.8792 89.092 35.2846 88.9C35.7006 88.708 35.9086 88.324 35.9086 87.748C35.9086 87.396 35.8232 87.1133 35.6526 86.9C35.4819 86.6867 35.1992 86.5053 34.8046 86.356C34.4099 86.196 33.8659 86.0307 33.1726 85.86C32.0632 85.572 31.2846 85.2093 30.8366 84.772C30.3886 84.324 30.1646 83.7107 30.1646 82.932C30.1646 82.0253 30.4952 81.316 31.1566 80.804C31.8179 80.292 32.8046 80.036 34.1166 80.036C34.7139 80.036 35.2739 80.0787 35.7966 80.164C36.3299 80.2493 36.7459 80.3453 37.0446 80.452V81.988C36.2339 81.6787 35.3379 81.524 34.3566 81.524C33.5886 81.524 32.9912 81.6253 32.5646 81.828C32.1379 82.0307 31.9246 82.3987 31.9246 82.932C31.9246 83.2413 31.9992 83.492 32.1486 83.684C32.2979 83.876 32.5539 84.0413 32.9166 84.18C33.2899 84.3187 33.8019 84.4733 34.4526 84.644C35.2952 84.8573 35.9459 85.1133 36.4046 85.412C36.8739 85.7 37.1992 86.0413 37.3806 86.436C37.5726 86.82 37.6686 87.2573 37.6686 87.748C37.6686 88.6547 37.3326 89.3693 36.6606 89.892C35.9886 90.404 34.9699 90.66 33.6046 90.66ZM43.1996 90.66C41.8769 90.66 40.8529 90.3347 40.1276 89.684C39.4022 89.0333 39.0396 88.036 39.0396 86.692C39.0396 85.476 39.3489 84.516 39.9676 83.812C40.5862 83.108 41.5249 82.756 42.7836 82.756C43.9356 82.756 44.7996 83.06 45.3756 83.668C45.9622 84.2653 46.2556 85.0387 46.2556 85.988V87.396H40.7036C40.7889 88.132 41.0556 88.6387 41.5036 88.916C41.9516 89.1933 42.6342 89.332 43.5516 89.332C43.9356 89.332 44.3302 89.2947 44.7356 89.22C45.1409 89.1453 45.4929 89.0493 45.7916 88.932V90.212C45.4502 90.3613 45.0556 90.4733 44.6076 90.548C44.1702 90.6227 43.7009 90.66 43.1996 90.66ZM40.7036 86.26H44.7196V85.732C44.7196 85.2093 44.5756 84.804 44.2876 84.516C43.9996 84.2173 43.5142 84.068 42.8316 84.068C42.0209 84.068 41.4609 84.244 41.1516 84.596C40.8529 84.948 40.7036 85.5027 40.7036 86.26ZM50.8493 90.66C50.0386 90.66 49.4306 90.4467 49.0253 90.02C48.6306 89.5827 48.4333 88.9907 48.4333 88.244V84.276H47.3133V82.916H48.4333V81.172L50.1613 80.644V82.916H52.1773L52.0653 84.276H50.1613V88.148C50.1613 88.5853 50.2626 88.8947 50.4653 89.076C50.668 89.2467 50.9986 89.332 51.4573 89.332C51.7453 89.332 52.0493 89.2787 52.3693 89.172V90.404C51.9533 90.5747 51.4466 90.66 50.8493 90.66ZM61.7908 90.66C60.3721 90.66 59.2681 90.3187 58.4788 89.636C57.7001 88.9533 57.3108 87.9667 57.3108 86.676V80.196H59.0548V86.612C59.0548 87.476 59.2895 88.1213 59.7588 88.548C60.2388 88.9747 60.9161 89.188 61.7908 89.188C62.6548 89.188 63.3215 88.9747 63.7908 88.548C64.2708 88.1213 64.5108 87.476 64.5108 86.612V80.196H66.2388V86.676C66.2388 87.9667 65.8495 88.9533 65.0708 89.636C64.2921 90.3187 63.1988 90.66 61.7908 90.66ZM68.1721 90.5V82.916H69.7721L69.8521 83.716C70.1934 83.4493 70.5987 83.2253 71.0681 83.044C71.5481 82.852 72.0761 82.756 72.6521 82.756C73.6334 82.756 74.3481 82.9853 74.7961 83.444C75.2441 83.9027 75.4681 84.6173 75.4681 85.588V90.5H73.7401V85.668C73.7401 85.0813 73.6174 84.6707 73.3721 84.436C73.1374 84.2013 72.6894 84.084 72.0281 84.084C71.6334 84.084 71.2441 84.164 70.8601 84.324C70.4867 84.484 70.1721 84.692 69.9161 84.948V90.5H68.1721ZM78.0621 81.332V79.892H79.9661V81.332H78.0621ZM78.2061 90.5V84.244H77.0541L77.2141 82.916H79.9501V90.5H78.2061ZM84.8806 90.66C84.0699 90.66 83.4619 90.4467 83.0566 90.02C82.6619 89.5827 82.4646 88.9907 82.4646 88.244V84.276H81.3446V82.916H82.4646V81.172L84.1926 80.644V82.916H86.2086L86.0966 84.276H84.1926V88.148C84.1926 88.5853 84.2939 88.8947 84.4966 89.076C84.6992 89.2467 85.0299 89.332 85.4886 89.332C85.7766 89.332 86.0806 89.2787 86.4006 89.172V90.404C85.9846 90.5747 85.4779 90.66 84.8806 90.66ZM94.5421 90.66C93.2087 90.66 92.1367 90.4893 91.3261 90.148V88.612C91.7847 88.7827 92.2754 88.9213 92.7981 89.028C93.3314 89.1347 93.8594 89.188 94.3821 89.188C95.2034 89.188 95.8167 89.092 96.2221 88.9C96.6381 88.708 96.8461 88.324 96.8461 87.748C96.8461 87.396 96.7607 87.1133 96.5901 86.9C96.4194 86.6867 96.1367 86.5053 95.7421 86.356C95.3474 86.196 94.8034 86.0307 94.1101 85.86C93.0007 85.572 92.2221 85.2093 91.7741 84.772C91.3261 84.324 91.1021 83.7107 91.1021 82.932C91.1021 82.0253 91.4327 81.316 92.0941 80.804C92.7554 80.292 93.7421 80.036 95.0541 80.036C95.6514 80.036 96.2114 80.0787 96.7341 80.164C97.2674 80.2493 97.6834 80.3453 97.9821 80.452V81.988C97.1714 81.6787 96.2754 81.524 95.2941 81.524C94.5261 81.524 93.9287 81.6253 93.5021 81.828C93.0754 82.0307 92.8621 82.3987 92.8621 82.932C92.8621 83.2413 92.9367 83.492 93.0861 83.684C93.2354 83.876 93.4914 84.0413 93.8541 84.18C94.2274 84.3187 94.7394 84.4733 95.3901 84.644C96.2327 84.8573 96.8834 85.1133 97.3421 85.412C97.8114 85.7 98.1367 86.0413 98.3181 86.436C98.5101 86.82 98.6061 87.2573 98.6061 87.748C98.6061 88.6547 98.2701 89.3693 97.5981 89.892C96.9261 90.404 95.9074 90.66 94.5421 90.66ZM100.531 81.332V79.892H102.435V81.332H100.531ZM100.675 90.5V84.244H99.5228L99.6828 82.916H102.419V90.5H100.675ZM104.133 90.5V89.588L108.277 84.34H104.325V82.916H110.421V83.988L106.357 89.156H110.533V90.5H104.133ZM115.778 90.66C114.455 90.66 113.431 90.3347 112.706 89.684C111.98 89.0333 111.618 88.036 111.618 86.692C111.618 85.476 111.927 84.516 112.546 83.812C113.164 83.108 114.103 82.756 115.362 82.756C116.514 82.756 117.378 83.06 117.954 83.668C118.54 84.2653 118.834 85.0387 118.834 85.988V87.396H113.282C113.367 88.132 113.634 88.6387 114.082 88.916C114.53 89.1933 115.212 89.332 116.13 89.332C116.514 89.332 116.908 89.2947 117.314 89.22C117.719 89.1453 118.071 89.0493 118.37 88.932V90.212C118.028 90.3613 117.634 90.4733 117.186 90.548C116.748 90.6227 116.279 90.66 115.778 90.66ZM113.282 86.26H117.298V85.732C117.298 85.2093 117.154 84.804 116.866 84.516C116.578 84.2173 116.092 84.068 115.41 84.068C114.599 84.068 114.039 84.244 113.73 84.596C113.431 84.948 113.282 85.5027 113.282 86.26Z" fill="#1E293B"/>
</g>
<defs>
<filter id="filter0_d_2563_26075" x="0" y="28" width="242" height="106" filterUnits="userSpaceOnUse" color-interpolation-filters="sRGB">
<feFlood flood-opacity="0" result="BackgroundImageFix"/>
<feColorMatrix in="SourceAlpha" type="matrix" values="0 0 0 0 0 0 0 0 0 0 0 0 0 0 0 0 0 0 127 0" result="hardAlpha"/>
<feMorphology radius="3" operator="erode" in="SourceAlpha" result="effect1_dropShadow_2563_26075"/>
<feOffset dy="12"/>
<feGaussianBlur stdDeviation="12"/>
<feComposite in2="hardAlpha" operator="out"/>
<feColorMatrix type="matrix" values="0 0 0 0 0.213156 0 0 0 0 0.307035 0 0 0 0 0.509615 0 0 0 0.2 0"/>
<feBlend mode="normal" in2="BackgroundImageFix" result="effect1_dropShadow_2563_26075"/>
<feBlend mode="normal" in="SourceGraphic" in2="effect1_dropShadow_2563_26075" result="shape"/>
</filter>
</defs>
</svg>
