<svg width="442" height="233" viewBox="0 0 442 233" fill="none" xmlns="http://www.w3.org/2000/svg">
<rect x="0.5" y="7.5" width="441" height="225" stroke="#ECEDF1"/>
<rect width="440" height="32" transform="translate(1 8)" fill="#394151"/>
<path d="M21 30C20.7167 30 20.4793 29.904 20.288 29.712C20.0967 29.52 20.0007 29.2827 20 29C19.9993 28.7173 20.0953 28.48 20.288 28.288C20.4807 28.096 20.718 28 21 28H37C37.2833 28 37.521 28.096 37.713 28.288C37.905 28.48 38.0007 28.7173 38 29C37.9993 29.2827 37.9033 29.5203 37.712 29.713C37.5207 29.9057 37.2833 30.0013 37 30H21ZM21 25C20.7167 25 20.4793 24.904 20.288 24.712C20.0967 24.52 20.0007 24.2827 20 24C19.9993 23.7173 20.0953 23.48 20.288 23.288C20.4807 23.096 20.718 23 21 23H37C37.2833 23 37.521 23.096 37.713 23.288C37.905 23.48 38.0007 23.7173 38 24C37.9993 24.2827 37.9033 24.5203 37.712 24.713C37.5207 24.9057 37.2833 25.0013 37 25H21ZM21 20C20.7167 20 20.4793 19.904 20.288 19.712C20.0967 19.52 20.0007 19.2827 20 19C19.9993 18.7173 20.0953 18.48 20.288 18.288C20.4807 18.096 20.718 18 21 18H37C37.2833 18 37.521 18.096 37.713 18.288C37.905 18.48 38.0007 18.7173 38 19C37.9993 19.2827 37.9033 19.5203 37.712 19.713C37.5207 19.9057 37.2833 20.0013 37 20H21Z" fill="white"/>
<path d="M67.674 31.408C66.9647 31.408 66.4467 31.2073 66.12 30.806C65.7933 30.4047 65.6207 29.8353 65.602 29.098C64.4353 28.9673 63.558 28.5333 62.97 27.796C62.3913 27.0493 62.102 25.9573 62.102 24.52C62.102 22.8773 62.4567 21.6873 63.166 20.95C63.8753 20.2127 64.944 19.844 66.372 19.844C67.8093 19.844 68.878 20.2127 69.578 20.95C70.2873 21.6873 70.642 22.8773 70.642 24.52C70.642 25.9853 70.334 27.0913 69.718 27.838C69.1113 28.5847 68.192 29.0093 66.96 29.112C66.9693 29.5413 67.0487 29.8353 67.198 29.994C67.3567 30.162 67.6227 30.246 67.996 30.246C68.332 30.246 68.6633 30.1993 68.99 30.106V31.24C68.8407 31.2867 68.6447 31.324 68.402 31.352C68.1593 31.3893 67.9167 31.408 67.674 31.408ZM66.372 27.852C67.3147 27.852 68.0053 27.5953 68.444 27.082C68.892 26.5593 69.116 25.7053 69.116 24.52C69.116 23.2693 68.892 22.3967 68.444 21.902C68.0053 21.398 67.3147 21.146 66.372 21.146C65.4387 21.146 64.748 21.398 64.3 21.902C63.8613 22.3967 63.642 23.2693 63.642 24.52C63.642 25.7053 63.8613 26.5593 64.3 27.082C64.748 27.5953 65.4387 27.852 66.372 27.852ZM74.6777 29.14C73.9684 29.14 73.4364 28.9533 73.0817 28.58C72.7364 28.1973 72.5637 27.6793 72.5637 27.026V23.554H71.5837V22.364H72.5637V20.838L74.0757 20.376V22.364H75.8397L75.7417 23.554H74.0757V26.942C74.0757 27.3247 74.1644 27.5953 74.3417 27.754C74.5191 27.9033 74.8084 27.978 75.2097 27.978C75.4617 27.978 75.7277 27.9313 76.0077 27.838V28.916C75.6437 29.0653 75.2004 29.14 74.6777 29.14ZM78.0441 31.464C77.5401 31.464 77.1107 31.3987 76.7561 31.268V30.134C76.9147 30.19 77.0594 30.2273 77.1901 30.246C77.3301 30.2647 77.4701 30.274 77.6101 30.274C77.8994 30.274 78.1327 30.2273 78.3101 30.134C78.4874 30.0407 78.6414 29.8913 78.7721 29.686C78.9121 29.49 79.0614 29.2333 79.2201 28.916L76.2661 22.364H77.8481L79.9761 27.292L82.1321 22.364H83.7001L80.9981 28.622C80.7647 29.182 80.5127 29.672 80.2421 30.092C79.9807 30.5213 79.6727 30.8573 79.3181 31.1C78.9727 31.3427 78.5481 31.464 78.0441 31.464Z" fill="white"/>
<path d="M110.872 29.14C109.444 29.14 108.375 28.7667 107.666 28.02C106.957 27.264 106.602 26.0973 106.602 24.52C106.602 22.8773 106.957 21.6873 107.666 20.95C108.375 20.2127 109.444 19.844 110.872 19.844C112.309 19.844 113.378 20.2127 114.078 20.95C114.787 21.6873 115.142 22.8773 115.142 24.52C115.142 26.0973 114.787 27.264 114.078 28.02C113.378 28.7667 112.309 29.14 110.872 29.14ZM110.872 27.852C111.815 27.852 112.505 27.5953 112.944 27.082C113.392 26.5593 113.616 25.7053 113.616 24.52C113.616 23.2693 113.392 22.3967 112.944 21.902C112.505 21.398 111.815 21.146 110.872 21.146C109.939 21.146 109.248 21.398 108.8 21.902C108.361 22.3967 108.142 23.2693 108.142 24.52C108.142 25.7053 108.361 26.5593 108.8 27.082C109.248 27.5953 109.939 27.852 110.872 27.852ZM118.831 29V21.174H115.947V19.984H123.227V21.174H120.357V29H118.831ZM126.079 29L123.979 19.984H125.477L127.003 26.746L128.711 21.076V19.984H129.957L131.875 26.746L133.429 19.984H134.913L132.827 29H131.329L129.523 22.686L127.605 29H126.079Z" fill="white"/>
<path d="M156.22 29V21.174H153.336V19.984H160.616V21.174H157.746V29H156.22ZM163.691 29.14C162.496 29.14 161.619 28.8413 161.059 28.244C160.508 27.6467 160.233 26.7927 160.233 25.682C160.233 24.5713 160.513 23.7173 161.073 23.12C161.633 22.5227 162.506 22.224 163.691 22.224C164.886 22.224 165.763 22.5227 166.323 23.12C166.883 23.7173 167.163 24.5713 167.163 25.682C167.163 26.7927 166.883 27.6467 166.323 28.244C165.772 28.8413 164.895 29.14 163.691 29.14ZM163.691 27.852C164.391 27.852 164.886 27.684 165.175 27.348C165.474 27.0027 165.623 26.4473 165.623 25.682C165.623 24.9167 165.474 24.366 165.175 24.03C164.886 23.694 164.391 23.526 163.691 23.526C163 23.526 162.506 23.694 162.207 24.03C161.918 24.366 161.773 24.9167 161.773 25.682C161.773 26.4473 161.918 27.0027 162.207 27.348C162.506 27.684 163 27.852 163.691 27.852ZM171.182 29.14C170.472 29.14 169.94 28.9533 169.586 28.58C169.24 28.1973 169.068 27.6793 169.068 27.026V23.554H168.088V22.364H169.068V20.838L170.58 20.376V22.364H172.344L172.246 23.554H170.58V26.942C170.58 27.3247 170.668 27.5953 170.846 27.754C171.023 27.9033 171.312 27.978 171.714 27.978C171.966 27.978 172.232 27.9313 172.512 27.838V28.916C172.148 29.0653 171.704 29.14 171.182 29.14ZM175.751 29.14C175.331 29.14 174.939 29.0653 174.575 28.916C174.22 28.7667 173.936 28.5427 173.721 28.244C173.506 27.936 173.399 27.558 173.399 27.11C173.399 26.4753 173.614 25.9667 174.043 25.584C174.482 25.192 175.154 24.996 176.059 24.996H178.187V24.702C178.187 24.3847 178.136 24.1327 178.033 23.946C177.94 23.7593 177.762 23.624 177.501 23.54C177.249 23.456 176.876 23.414 176.381 23.414C175.597 23.414 174.864 23.5307 174.183 23.764V22.63C174.482 22.5087 174.846 22.4107 175.275 22.336C175.704 22.2613 176.166 22.224 176.661 22.224C177.632 22.224 178.369 22.42 178.873 22.812C179.386 23.204 179.643 23.8433 179.643 24.73V29H178.341L178.243 28.328C177.972 28.5893 177.636 28.79 177.235 28.93C176.843 29.07 176.348 29.14 175.751 29.14ZM176.157 28.048C176.614 28.048 177.011 27.9733 177.347 27.824C177.692 27.6653 177.972 27.4553 178.187 27.194V26.032H176.087C175.639 26.032 175.312 26.1207 175.107 26.298C174.911 26.466 174.813 26.7273 174.813 27.082C174.813 27.4273 174.93 27.6747 175.163 27.824C175.396 27.9733 175.728 28.048 176.157 28.048ZM182.987 29.14C182.446 29.14 182.035 29.0093 181.755 28.748C181.475 28.4773 181.335 28.034 181.335 27.418V19.564H182.861V27.278C182.861 27.5393 182.908 27.7167 183.001 27.81C183.094 27.9033 183.234 27.95 183.421 27.95C183.645 27.95 183.86 27.922 184.065 27.866V28.972C183.888 29.0373 183.715 29.0793 183.547 29.098C183.388 29.126 183.202 29.14 182.987 29.14Z" fill="white"/>
<path d="M205.406 21V11.984H206.932V19.824H211.552V21H205.406ZM215.584 21.14C214.39 21.14 213.512 20.8413 212.952 20.244C212.402 19.6467 212.126 18.7927 212.126 17.682C212.126 16.5713 212.406 15.7173 212.966 15.12C213.526 14.5227 214.399 14.224 215.584 14.224C216.779 14.224 217.656 14.5227 218.216 15.12C218.776 15.7173 219.056 16.5713 219.056 17.682C219.056 18.7927 218.776 19.6467 218.216 20.244C217.666 20.8413 216.788 21.14 215.584 21.14ZM215.584 19.852C216.284 19.852 216.779 19.684 217.068 19.348C217.367 19.0027 217.516 18.4473 217.516 17.682C217.516 16.9167 217.367 16.366 217.068 16.03C216.779 15.694 216.284 15.526 215.584 15.526C214.894 15.526 214.399 15.694 214.1 16.03C213.811 16.366 213.666 16.9167 213.666 17.682C213.666 18.4473 213.811 19.0027 214.1 19.348C214.399 19.684 214.894 19.852 215.584 19.852ZM221.382 21L219.632 14.364H221.158L222.306 19.194L223.608 15.176V14.364H224.77L226.212 19.194L227.36 14.364H228.872L227.136 21H225.694L224.28 16.66L222.838 21H221.382ZM203.174 37.14C202.007 37.14 201.069 36.9907 200.36 36.692V35.348C200.761 35.4973 201.19 35.6187 201.648 35.712C202.114 35.8053 202.576 35.852 203.034 35.852C203.752 35.852 204.289 35.768 204.644 35.6C205.008 35.432 205.19 35.096 205.19 34.592C205.19 34.284 205.115 34.0367 204.966 33.85C204.816 33.6633 204.569 33.5047 204.224 33.374C203.878 33.234 203.402 33.0893 202.796 32.94C201.825 32.688 201.144 32.3707 200.752 31.988C200.36 31.596 200.164 31.0593 200.164 30.378C200.164 29.5847 200.453 28.964 201.032 28.516C201.61 28.068 202.474 27.844 203.622 27.844C204.144 27.844 204.634 27.8813 205.092 27.956C205.558 28.0307 205.922 28.1147 206.184 28.208V29.552C205.474 29.2813 204.69 29.146 203.832 29.146C203.16 29.146 202.637 29.2347 202.264 29.412C201.89 29.5893 201.704 29.9113 201.704 30.378C201.704 30.6487 201.769 30.868 201.9 31.036C202.03 31.204 202.254 31.3487 202.572 31.47C202.898 31.5913 203.346 31.7267 203.916 31.876C204.653 32.0627 205.222 32.2867 205.624 32.548C206.034 32.8 206.319 33.0987 206.478 33.444C206.646 33.78 206.73 34.1627 206.73 34.592C206.73 35.3853 206.436 36.0107 205.848 36.468C205.26 36.916 204.368 37.14 203.174 37.14ZM210.538 37.14C209.829 37.14 209.297 36.9533 208.942 36.58C208.597 36.1973 208.424 35.6793 208.424 35.026V31.554H207.444V30.364H208.424V28.838L209.936 28.376V30.364H211.7L211.602 31.554H209.936V34.942C209.936 35.3247 210.025 35.5953 210.202 35.754C210.379 35.9033 210.669 35.978 211.07 35.978C211.322 35.978 211.588 35.9313 211.868 35.838V36.916C211.504 37.0653 211.061 37.14 210.538 37.14ZM216.213 37.14C215.019 37.14 214.141 36.8413 213.581 36.244C213.031 35.6467 212.755 34.7927 212.755 33.682C212.755 32.5713 213.035 31.7173 213.595 31.12C214.155 30.5227 215.028 30.224 216.213 30.224C217.408 30.224 218.285 30.5227 218.845 31.12C219.405 31.7173 219.685 32.5713 219.685 33.682C219.685 34.7927 219.405 35.6467 218.845 36.244C218.295 36.8413 217.417 37.14 216.213 37.14ZM216.213 35.852C216.913 35.852 217.408 35.684 217.697 35.348C217.996 35.0027 218.145 34.4473 218.145 33.682C218.145 32.9167 217.996 32.366 217.697 32.03C217.408 31.694 216.913 31.526 216.213 31.526C215.523 31.526 215.028 31.694 214.729 32.03C214.44 32.366 214.295 32.9167 214.295 33.682C214.295 34.4473 214.44 35.0027 214.729 35.348C215.028 35.684 215.523 35.852 216.213 35.852ZM224.432 37.14C223.265 37.14 222.383 36.846 221.786 36.258C221.189 35.6607 220.89 34.802 220.89 33.682C220.89 32.5153 221.217 31.6473 221.87 31.078C222.533 30.5087 223.415 30.224 224.516 30.224C224.973 30.224 225.356 30.2567 225.664 30.322C225.981 30.3873 226.285 30.49 226.574 30.63V31.764C226.089 31.5213 225.501 31.4 224.81 31.4C224.045 31.4 223.457 31.5727 223.046 31.918C222.635 32.254 222.43 32.842 222.43 33.682C222.43 34.4753 222.612 35.0587 222.976 35.432C223.34 35.796 223.942 35.978 224.782 35.978C225.445 35.978 226.047 35.852 226.588 35.6V36.762C226.28 36.8833 225.949 36.9767 225.594 37.042C225.249 37.1073 224.861 37.14 224.432 37.14ZM227.801 37V27.564H229.327V33.024L232.113 30.364H233.863L231.161 33.038L234.017 37H232.407L230.209 33.85L229.327 34.69V37H227.801Z" fill="white"/>
<path d="M266.232 29.14C264.991 29.14 264.025 28.8413 263.334 28.244C262.653 27.6467 262.312 26.7833 262.312 25.654V19.984H263.838V25.598C263.838 26.354 264.043 26.9187 264.454 27.292C264.874 27.6653 265.467 27.852 266.232 27.852C266.988 27.852 267.571 27.6653 267.982 27.292C268.402 26.9187 268.612 26.354 268.612 25.598V19.984H270.124V25.654C270.124 26.7833 269.783 27.6467 269.102 28.244C268.421 28.8413 267.464 29.14 266.232 29.14ZM271.816 32.024V22.364H273.132L273.216 23.022C273.514 22.7513 273.841 22.5507 274.196 22.42C274.55 22.2893 274.97 22.224 275.456 22.224C276.408 22.224 277.15 22.4853 277.682 23.008C278.214 23.5213 278.48 24.3753 278.48 25.57C278.48 26.7647 278.204 27.6607 277.654 28.258C277.103 28.846 276.352 29.14 275.4 29.14C274.597 29.14 273.911 28.9533 273.342 28.58V32.024H271.816ZM275.008 27.992C276.296 27.992 276.94 27.18 276.94 25.556C276.94 24.772 276.795 24.2167 276.506 23.89C276.216 23.554 275.731 23.386 275.05 23.386C274.368 23.386 273.799 23.6193 273.342 24.086V27.404C273.556 27.5813 273.794 27.726 274.056 27.838C274.326 27.9407 274.644 27.992 275.008 27.992ZM282.708 29.14C282.111 29.14 281.583 29.0373 281.126 28.832C280.669 28.6267 280.314 28.286 280.062 27.81C279.81 27.334 279.684 26.6947 279.684 25.892C279.684 25.0987 279.819 24.4313 280.09 23.89C280.361 23.3393 280.734 22.924 281.21 22.644C281.695 22.364 282.241 22.224 282.848 22.224C283.249 22.224 283.604 22.2707 283.912 22.364C284.229 22.4573 284.533 22.602 284.822 22.798V19.564H286.348V29H285.046L284.948 28.342C284.649 28.6127 284.323 28.8133 283.968 28.944C283.613 29.0747 283.193 29.14 282.708 29.14ZM283.114 27.992C283.795 27.992 284.365 27.7587 284.822 27.292V23.974C284.383 23.582 283.833 23.386 283.17 23.386C282.526 23.386 282.041 23.6007 281.714 24.03C281.387 24.4593 281.224 25.0847 281.224 25.906C281.224 26.6993 281.373 27.2453 281.672 27.544C281.98 27.8427 282.461 27.992 283.114 27.992ZM290.116 29.14C289.696 29.14 289.304 29.0653 288.94 28.916C288.585 28.7667 288.301 28.5427 288.086 28.244C287.871 27.936 287.764 27.558 287.764 27.11C287.764 26.4753 287.979 25.9667 288.408 25.584C288.847 25.192 289.519 24.996 290.424 24.996H292.552V24.702C292.552 24.3847 292.501 24.1327 292.398 23.946C292.305 23.7593 292.127 23.624 291.866 23.54C291.614 23.456 291.241 23.414 290.746 23.414C289.962 23.414 289.229 23.5307 288.548 23.764V22.63C288.847 22.5087 289.211 22.4107 289.64 22.336C290.069 22.2613 290.531 22.224 291.026 22.224C291.997 22.224 292.734 22.42 293.238 22.812C293.751 23.204 294.008 23.8433 294.008 24.73V29H292.706L292.608 28.328C292.337 28.5893 292.001 28.79 291.6 28.93C291.208 29.07 290.713 29.14 290.116 29.14ZM290.522 28.048C290.979 28.048 291.376 27.9733 291.712 27.824C292.057 27.6653 292.337 27.4553 292.552 27.194V26.032H290.452C290.004 26.032 289.677 26.1207 289.472 26.298C289.276 26.466 289.178 26.7273 289.178 27.082C289.178 27.4273 289.295 27.6747 289.528 27.824C289.761 27.9733 290.093 28.048 290.522 28.048ZM298.234 29.14C297.525 29.14 296.993 28.9533 296.638 28.58C296.293 28.1973 296.12 27.6793 296.12 27.026V23.554H295.14V22.364H296.12V20.838L297.632 20.376V22.364H299.396L299.298 23.554H297.632V26.942C297.632 27.3247 297.721 27.5953 297.898 27.754C298.076 27.9033 298.365 27.978 298.766 27.978C299.018 27.978 299.284 27.9313 299.564 27.838V28.916C299.2 29.0653 298.757 29.14 298.234 29.14ZM304.092 29.14C302.934 29.14 302.038 28.8553 301.404 28.286C300.769 27.7167 300.452 26.844 300.452 25.668C300.452 24.604 300.722 23.764 301.264 23.148C301.805 22.532 302.626 22.224 303.728 22.224C304.736 22.224 305.492 22.49 305.996 23.022C306.509 23.5447 306.766 24.2213 306.766 25.052V26.284H301.908C301.982 26.928 302.216 27.3713 302.608 27.614C303 27.8567 303.597 27.978 304.4 27.978C304.736 27.978 305.081 27.9453 305.436 27.88C305.79 27.8147 306.098 27.7307 306.36 27.628V28.748C306.061 28.8787 305.716 28.9767 305.324 29.042C304.941 29.1073 304.53 29.14 304.092 29.14ZM301.908 25.29H305.422V24.828C305.422 24.3707 305.296 24.016 305.044 23.764C304.792 23.5027 304.367 23.372 303.77 23.372C303.06 23.372 302.57 23.526 302.3 23.834C302.038 24.142 301.908 24.6273 301.908 25.29ZM310.995 29.14C310.398 29.14 309.87 29.0373 309.413 28.832C308.956 28.6267 308.601 28.286 308.349 27.81C308.097 27.334 307.971 26.6947 307.971 25.892C307.971 25.0987 308.106 24.4313 308.377 23.89C308.648 23.3393 309.021 22.924 309.497 22.644C309.982 22.364 310.528 22.224 311.135 22.224C311.536 22.224 311.891 22.2707 312.199 22.364C312.516 22.4573 312.82 22.602 313.109 22.798V19.564H314.635V29H313.333L313.235 28.342C312.936 28.6127 312.61 28.8133 312.255 28.944C311.9 29.0747 311.48 29.14 310.995 29.14ZM311.401 27.992C312.082 27.992 312.652 27.7587 313.109 27.292V23.974C312.67 23.582 312.12 23.386 311.457 23.386C310.813 23.386 310.328 23.6007 310.001 24.03C309.674 24.4593 309.511 25.0847 309.511 25.906C309.511 26.6993 309.66 27.2453 309.959 27.544C310.267 27.8427 310.748 27.992 311.401 27.992Z" fill="white"/>
<rect x="351.5" y="12" width="75" height="24" rx="4" fill="#1E293B"/>
<path d="M360.382 29V19.984H361.908V23.904H366.248V19.984H367.774V29H366.248V25.08H361.908V29H360.382ZM369.747 20.978V19.718H371.413V20.978H369.747ZM369.873 29V23.526H368.865L369.005 22.364H371.399V29H369.873ZM375.923 29.14C375.326 29.14 374.798 29.0373 374.341 28.832C373.884 28.6267 373.529 28.286 373.277 27.81C373.025 27.334 372.899 26.6947 372.899 25.892C372.899 25.0987 373.034 24.4313 373.305 23.89C373.576 23.3393 373.949 22.924 374.425 22.644C374.91 22.364 375.456 22.224 376.063 22.224C376.464 22.224 376.819 22.2707 377.127 22.364C377.444 22.4573 377.748 22.602 378.037 22.798V19.564H379.563V29H378.261L378.163 28.342C377.864 28.6127 377.538 28.8133 377.183 28.944C376.828 29.0747 376.408 29.14 375.923 29.14ZM376.329 27.992C377.01 27.992 377.58 27.7587 378.037 27.292V23.974C377.598 23.582 377.048 23.386 376.385 23.386C375.741 23.386 375.256 23.6007 374.929 24.03C374.602 24.4593 374.439 25.0847 374.439 25.906C374.439 26.6993 374.588 27.2453 374.887 27.544C375.195 27.8427 375.676 27.992 376.329 27.992ZM384.551 29.14C383.393 29.14 382.497 28.8553 381.863 28.286C381.228 27.7167 380.911 26.844 380.911 25.668C380.911 24.604 381.181 23.764 381.723 23.148C382.264 22.532 383.085 22.224 384.187 22.224C385.195 22.224 385.951 22.49 386.455 23.022C386.968 23.5447 387.225 24.2213 387.225 25.052V26.284H382.367C382.441 26.928 382.675 27.3713 383.067 27.614C383.459 27.8567 384.056 27.978 384.859 27.978C385.195 27.978 385.54 27.9453 385.895 27.88C386.249 27.8147 386.557 27.7307 386.819 27.628V28.748C386.52 28.8787 386.175 28.9767 385.783 29.042C385.4 29.1073 384.989 29.14 384.551 29.14ZM382.367 25.29H385.881V24.828C385.881 24.3707 385.755 24.016 385.503 23.764C385.251 23.5027 384.826 23.372 384.229 23.372C383.519 23.372 383.029 23.526 382.759 23.834C382.497 24.142 382.367 24.6273 382.367 25.29ZM395.787 29.14C394.545 29.14 393.579 28.8413 392.889 28.244C392.207 27.6467 391.867 26.7833 391.867 25.654V19.984H393.393V25.598C393.393 26.354 393.598 26.9187 394.009 27.292C394.429 27.6653 395.021 27.852 395.787 27.852C396.543 27.852 397.126 27.6653 397.537 27.292C397.957 26.9187 398.167 26.354 398.167 25.598V19.984H399.679V25.654C399.679 26.7833 399.338 27.6467 398.657 28.244C397.975 28.8413 397.019 29.14 395.787 29.14ZM401.37 29V22.364H402.77L402.84 23.064C403.139 22.8307 403.494 22.6347 403.904 22.476C404.324 22.308 404.786 22.224 405.29 22.224C406.149 22.224 406.774 22.4247 407.166 22.826C407.558 23.2273 407.754 23.8527 407.754 24.702V29H406.242V24.772C406.242 24.2587 406.135 23.8993 405.92 23.694C405.715 23.4887 405.323 23.386 404.744 23.386C404.399 23.386 404.058 23.456 403.722 23.596C403.396 23.736 403.12 23.918 402.896 24.142V29H401.37ZM410.024 20.978V19.718H411.69V20.978H410.024ZM410.15 29V23.526H409.142L409.282 22.364H411.676V29H410.15ZM415.99 29.14C415.281 29.14 414.749 28.9533 414.394 28.58C414.049 28.1973 413.876 27.6793 413.876 27.026V23.554H412.896V22.364H413.876V20.838L415.388 20.376V22.364H417.152L417.054 23.554H415.388V26.942C415.388 27.3247 415.477 27.5953 415.654 27.754C415.832 27.9033 416.121 27.978 416.522 27.978C416.774 27.978 417.04 27.9313 417.32 27.838V28.916C416.956 29.0653 416.513 29.14 415.99 29.14Z" fill="white"/>
<mask id="path-10-inside-1_2050_13624" fill="white">
<path d="M1 40H441V88H1V40Z"/>
</mask>
<path d="M1 40H441V88H1V40Z" fill="white"/>
<path d="M441 88V87H1V88V89H441V88Z" fill="#ECEDF1" mask="url(#path-10-inside-1_2050_13624)"/>
<path d="M21.912 69.5V59.196H24.072V67.836H29.144V69.5H21.912ZM30.0139 69.5L33.9499 59.196H36.3179L40.2379 69.5H37.9979L37.0219 67.02H33.2299L32.2699 69.5H30.0139ZM33.5499 65.356H36.7019L35.1179 61.212L33.5499 65.356Z" fill="#1E293B"/>
<path d="M60.688 69.5V68.636C60.9653 67.9853 61.3493 67.3987 61.84 66.876C62.3413 66.3533 62.8747 65.8467 63.44 65.356C63.8667 64.9827 64.2187 64.668 64.496 64.412C64.784 64.1453 65.008 63.9053 65.168 63.692C65.328 63.4787 65.44 63.26 65.504 63.036C65.568 62.8013 65.6 62.5293 65.6 62.22C65.6 61.6653 65.44 61.244 65.12 60.956C64.8 60.668 64.2667 60.524 63.52 60.524C63.1147 60.524 62.6987 60.5667 62.272 60.652C61.856 60.7373 61.456 60.8547 61.072 61.004V59.468C61.4453 59.34 61.888 59.2387 62.4 59.164C62.912 59.0787 63.3973 59.036 63.856 59.036C65.008 59.036 65.8773 59.3187 66.464 59.884C67.0507 60.4493 67.344 61.2227 67.344 62.204C67.344 62.6947 67.2587 63.132 67.088 63.516C66.9173 63.8893 66.6827 64.2467 66.384 64.588C66.0853 64.9187 65.7387 65.26 65.344 65.612C64.8533 66.0387 64.3893 66.4547 63.952 66.86C63.5253 67.2547 63.1787 67.6867 62.912 68.156H67.456V69.5H60.688Z" fill="#E64346"/>
<path d="M75.242 69.14C74.0567 69.14 73.17 68.8553 72.582 68.286C71.994 67.7167 71.7 66.8393 71.7 65.654C71.7 64.59 71.952 63.7547 72.456 63.148C72.9693 62.532 73.7767 62.224 74.878 62.224C75.5313 62.224 76.068 62.3453 76.488 62.588C76.9173 62.8213 77.2347 63.148 77.44 63.568C77.6547 63.9787 77.762 64.4453 77.762 64.968V66.214H72.848C72.8853 66.718 72.9927 67.1147 73.17 67.404C73.3567 67.6933 73.632 67.9033 73.996 68.034C74.3693 68.1553 74.8593 68.216 75.466 68.216C76.1473 68.216 76.7727 68.0993 77.342 67.866V68.762C77.0527 68.8833 76.726 68.9767 76.362 69.042C76.0073 69.1073 75.634 69.14 75.242 69.14ZM72.848 65.388H76.74V64.842C76.74 64.3007 76.5953 63.8853 76.306 63.596C76.026 63.2973 75.5593 63.148 74.906 63.148C74.1127 63.148 73.5713 63.3347 73.282 63.708C72.9927 64.0813 72.848 64.6413 72.848 65.388ZM81.4345 69.14C81.0145 69.14 80.6272 69.0653 80.2725 68.916C79.9178 68.7667 79.6332 68.5473 79.4185 68.258C79.2038 67.9593 79.0965 67.586 79.0965 67.138C79.0965 66.5313 79.2972 66.0367 79.6985 65.654C80.0998 65.262 80.7532 65.066 81.6585 65.066H83.9685V64.66C83.9685 64.296 83.9172 64.0067 83.8145 63.792C83.7212 63.5773 83.5392 63.4233 83.2685 63.33C82.9978 63.2367 82.6012 63.19 82.0785 63.19C81.6772 63.19 81.2898 63.2227 80.9165 63.288C80.5432 63.3533 80.1932 63.442 79.8665 63.554V62.602C80.1652 62.49 80.5152 62.4013 80.9165 62.336C81.3272 62.2613 81.7658 62.224 82.2325 62.224C83.1752 62.224 83.8798 62.4153 84.3465 62.798C84.8225 63.1807 85.0605 63.8013 85.0605 64.66V69H84.0945L84.0105 68.244C83.7212 68.5427 83.3712 68.7667 82.9605 68.916C82.5498 69.0653 82.0412 69.14 81.4345 69.14ZM81.7285 68.202C82.2138 68.202 82.6432 68.118 83.0165 67.95C83.3898 67.7727 83.7072 67.5347 83.9685 67.236V65.948H81.6865C81.1638 65.948 80.7905 66.046 80.5665 66.242C80.3425 66.438 80.2305 66.7367 80.2305 67.138C80.2305 67.5393 80.3658 67.8193 80.6365 67.978C80.9072 68.1273 81.2712 68.202 81.7285 68.202Z" fill="#1E293B"/>
<path d="M112.092 69.66C110.801 69.66 109.825 69.34 109.164 68.7C108.513 68.06 108.188 67.052 108.188 65.676V63.356C108.188 62.5027 108.364 61.7507 108.716 61.1C109.068 60.4493 109.569 59.9427 110.22 59.58C110.871 59.2173 111.644 59.036 112.54 59.036C113.063 59.036 113.516 59.068 113.9 59.132C114.295 59.196 114.657 59.2867 114.988 59.404V60.892C114.657 60.7747 114.3 60.684 113.916 60.62C113.543 60.556 113.121 60.524 112.652 60.524C111.692 60.524 110.983 60.7533 110.524 61.212C110.065 61.66 109.836 62.2627 109.836 63.02V63.66C110.209 63.3827 110.636 63.18 111.116 63.052C111.607 62.9133 112.049 62.844 112.444 62.844C113.649 62.844 114.54 63.1373 115.116 63.724C115.692 64.3107 115.98 65.1427 115.98 66.22C115.98 67.244 115.665 68.076 115.036 68.716C114.407 69.3453 113.425 69.66 112.092 69.66ZM112.108 68.348C112.876 68.348 113.452 68.1613 113.836 67.788C114.22 67.4147 114.412 66.9133 114.412 66.284C114.412 65.6227 114.252 65.1107 113.932 64.748C113.623 64.3747 113.041 64.188 112.188 64.188C111.761 64.188 111.34 64.2627 110.924 64.412C110.519 64.5507 110.156 64.7373 109.836 64.972V66.076C109.836 67.5907 110.593 68.348 112.108 68.348Z" fill="#1E293B"/>
<path d="M123.742 69.14C122.557 69.14 121.67 68.8553 121.082 68.286C120.494 67.7167 120.2 66.8393 120.2 65.654C120.2 64.59 120.452 63.7547 120.956 63.148C121.469 62.532 122.277 62.224 123.378 62.224C124.031 62.224 124.568 62.3453 124.988 62.588C125.417 62.8213 125.735 63.148 125.94 63.568C126.155 63.9787 126.262 64.4453 126.262 64.968V66.214H121.348C121.385 66.718 121.493 67.1147 121.67 67.404C121.857 67.6933 122.132 67.9033 122.496 68.034C122.869 68.1553 123.359 68.216 123.966 68.216C124.647 68.216 125.273 68.0993 125.842 67.866V68.762C125.553 68.8833 125.226 68.9767 124.862 69.042C124.507 69.1073 124.134 69.14 123.742 69.14ZM121.348 65.388H125.24V64.842C125.24 64.3007 125.095 63.8853 124.806 63.596C124.526 63.2973 124.059 63.148 123.406 63.148C122.613 63.148 122.071 63.3347 121.782 63.708C121.493 64.0813 121.348 64.6413 121.348 65.388ZM129.934 69.14C129.514 69.14 129.127 69.0653 128.772 68.916C128.418 68.7667 128.133 68.5473 127.918 68.258C127.704 67.9593 127.596 67.586 127.596 67.138C127.596 66.5313 127.797 66.0367 128.198 65.654C128.6 65.262 129.253 65.066 130.158 65.066H132.468V64.66C132.468 64.296 132.417 64.0067 132.314 63.792C132.221 63.5773 132.039 63.4233 131.768 63.33C131.498 63.2367 131.101 63.19 130.578 63.19C130.177 63.19 129.79 63.2227 129.416 63.288C129.043 63.3533 128.693 63.442 128.366 63.554V62.602C128.665 62.49 129.015 62.4013 129.416 62.336C129.827 62.2613 130.266 62.224 130.732 62.224C131.675 62.224 132.38 62.4153 132.846 62.798C133.322 63.1807 133.56 63.8013 133.56 64.66V69H132.594L132.51 68.244C132.221 68.5427 131.871 68.7667 131.46 68.916C131.05 69.0653 130.541 69.14 129.934 69.14ZM130.228 68.202C130.714 68.202 131.143 68.118 131.516 67.95C131.89 67.7727 132.207 67.5347 132.468 67.236V65.948H130.186C129.664 65.948 129.29 66.046 129.066 66.242C128.842 66.438 128.73 66.7367 128.73 67.138C128.73 67.5393 128.866 67.8193 129.136 67.978C129.407 68.1273 129.771 68.202 130.228 68.202Z" fill="#1E293B"/>
<path d="M160.22 69.66C157.532 69.66 156.188 68.6787 156.188 66.716C156.188 66.1293 156.343 65.6067 156.652 65.148C156.972 64.6893 157.425 64.364 158.012 64.172C157.479 63.9693 157.089 63.6707 156.844 63.276C156.599 62.8707 156.476 62.4387 156.476 61.98C156.476 61.0947 156.78 60.3853 157.388 59.852C158.007 59.308 158.951 59.036 160.22 59.036C161.521 59.036 162.471 59.308 163.068 59.852C163.665 60.3853 163.964 61.0947 163.964 61.98C163.964 62.4707 163.841 62.9293 163.596 63.356C163.361 63.772 162.945 64.092 162.348 64.316C163.009 64.508 163.489 64.8067 163.788 65.212C164.087 65.6067 164.236 66.108 164.236 66.716C164.236 68.6787 162.897 69.66 160.22 69.66ZM160.652 63.772C161.239 63.6227 161.665 63.42 161.932 63.164C162.209 62.908 162.348 62.524 162.348 62.012C162.348 60.9453 161.639 60.412 160.22 60.412C159.527 60.412 158.999 60.54 158.636 60.796C158.273 61.052 158.092 61.4573 158.092 62.012C158.092 62.8547 158.567 63.3667 159.516 63.548L160.652 63.772ZM160.22 68.3C161.02 68.3 161.617 68.172 162.012 67.916C162.417 67.6493 162.62 67.2387 162.62 66.684C162.62 66.1827 162.476 65.82 162.188 65.596C161.911 65.3613 161.479 65.1853 160.892 65.068L159.58 64.796C159.036 64.9133 158.604 65.1107 158.284 65.388C157.964 65.6547 157.804 66.076 157.804 66.652C157.804 67.228 158.007 67.6493 158.412 67.916C158.828 68.172 159.431 68.3 160.22 68.3Z" fill="#1E293B"/>
<path d="M171.742 69.14C170.557 69.14 169.67 68.8553 169.082 68.286C168.494 67.7167 168.2 66.8393 168.2 65.654C168.2 64.59 168.452 63.7547 168.956 63.148C169.469 62.532 170.277 62.224 171.378 62.224C172.031 62.224 172.568 62.3453 172.988 62.588C173.417 62.8213 173.735 63.148 173.94 63.568C174.155 63.9787 174.262 64.4453 174.262 64.968V66.214H169.348C169.385 66.718 169.493 67.1147 169.67 67.404C169.857 67.6933 170.132 67.9033 170.496 68.034C170.869 68.1553 171.359 68.216 171.966 68.216C172.647 68.216 173.273 68.0993 173.842 67.866V68.762C173.553 68.8833 173.226 68.9767 172.862 69.042C172.507 69.1073 172.134 69.14 171.742 69.14ZM169.348 65.388H173.24V64.842C173.24 64.3007 173.095 63.8853 172.806 63.596C172.526 63.2973 172.059 63.148 171.406 63.148C170.613 63.148 170.071 63.3347 169.782 63.708C169.493 64.0813 169.348 64.6413 169.348 65.388ZM177.934 69.14C177.514 69.14 177.127 69.0653 176.772 68.916C176.418 68.7667 176.133 68.5473 175.918 68.258C175.704 67.9593 175.596 67.586 175.596 67.138C175.596 66.5313 175.797 66.0367 176.198 65.654C176.6 65.262 177.253 65.066 178.158 65.066H180.468V64.66C180.468 64.296 180.417 64.0067 180.314 63.792C180.221 63.5773 180.039 63.4233 179.768 63.33C179.498 63.2367 179.101 63.19 178.578 63.19C178.177 63.19 177.79 63.2227 177.416 63.288C177.043 63.3533 176.693 63.442 176.366 63.554V62.602C176.665 62.49 177.015 62.4013 177.416 62.336C177.827 62.2613 178.266 62.224 178.732 62.224C179.675 62.224 180.38 62.4153 180.846 62.798C181.322 63.1807 181.56 63.8013 181.56 64.66V69H180.594L180.51 68.244C180.221 68.5427 179.871 68.7667 179.46 68.916C179.05 69.0653 178.541 69.14 177.934 69.14ZM178.228 68.202C178.714 68.202 179.143 68.118 179.516 67.95C179.89 67.7727 180.207 67.5347 180.468 67.236V65.948H178.186C177.664 65.948 177.29 66.046 177.066 66.242C176.842 66.438 176.73 66.7367 176.73 67.138C176.73 67.5393 176.866 67.8193 177.136 67.978C177.407 68.1273 177.771 68.202 178.228 68.202Z" fill="#1E293B"/>
<path d="M218.02 69.5V67.244H212.868V66.012L218.228 59.196H219.748V65.836H220.804V67.244H219.748V69.5H218.02ZM214.564 65.884H218.292V61.18L214.564 65.884Z" fill="#10C042"/>
<path d="M268.126 69.14C267.697 69.14 267.309 69.112 266.964 69.056C266.628 69.0093 266.325 68.9393 266.054 68.846V67.852C266.325 67.9453 266.623 68.02 266.95 68.076C267.286 68.132 267.659 68.16 268.07 68.16C268.985 68.16 269.647 67.9267 270.058 67.46C270.469 66.9933 270.674 66.3773 270.674 65.612V64.926C270.31 65.1873 269.904 65.3833 269.456 65.514C269.017 65.6447 268.616 65.71 268.252 65.71C267.225 65.71 266.46 65.458 265.956 64.954C265.452 64.45 265.2 63.7313 265.2 62.798C265.2 61.9113 265.471 61.1973 266.012 60.656C266.553 60.1147 267.375 59.844 268.476 59.844C269.559 59.844 270.375 60.1193 270.926 60.67C271.486 61.2113 271.766 62.0793 271.766 63.274V65.402C271.766 66.1487 271.617 66.802 271.318 67.362C271.029 67.922 270.609 68.3607 270.058 68.678C269.517 68.986 268.873 69.14 268.126 69.14ZM268.35 64.814C268.807 64.814 269.232 64.744 269.624 64.604C270.016 64.4547 270.366 64.268 270.674 64.044V62.952C270.674 61.4867 269.941 60.754 268.476 60.754C267.729 60.754 267.169 60.936 266.796 61.3C266.423 61.6547 266.236 62.1447 266.236 62.77C266.236 63.19 266.297 63.554 266.418 63.862C266.539 64.17 266.754 64.408 267.062 64.576C267.37 64.7347 267.799 64.814 268.35 64.814ZM273.171 69L276.447 59.732H277.609L274.333 69H273.171ZM279.009 69V68.384C279.251 67.796 279.597 67.2593 280.045 66.774C280.493 66.2887 280.973 65.8313 281.487 65.402C282 64.9727 282.397 64.6133 282.677 64.324C282.966 64.0253 283.167 63.7407 283.279 63.47C283.391 63.19 283.447 62.8633 283.447 62.49C283.447 61.9487 283.307 61.538 283.027 61.258C282.747 60.9687 282.224 60.824 281.459 60.824C281.113 60.824 280.759 60.8613 280.395 60.936C280.031 61.0013 279.685 61.0993 279.359 61.23V60.208C279.657 60.1053 280.017 60.0213 280.437 59.956C280.857 59.8813 281.258 59.844 281.641 59.844C282.611 59.844 283.344 60.082 283.839 60.558C284.343 61.0247 284.595 61.6687 284.595 62.49C284.595 62.938 284.515 63.3347 284.357 63.68C284.198 64.016 283.979 64.338 283.699 64.646C283.419 64.9447 283.092 65.262 282.719 65.598C282.261 65.9993 281.823 66.396 281.403 66.788C280.992 67.1707 280.665 67.6093 280.423 68.104H284.693V69H279.009ZM286.091 69V68.384C286.333 67.796 286.679 67.2593 287.127 66.774C287.575 66.2887 288.055 65.8313 288.569 65.402C289.082 64.9727 289.479 64.6133 289.759 64.324C290.048 64.0253 290.249 63.7407 290.361 63.47C290.473 63.19 290.529 62.8633 290.529 62.49C290.529 61.9487 290.389 61.538 290.109 61.258C289.829 60.9687 289.306 60.824 288.541 60.824C288.195 60.824 287.841 60.8613 287.477 60.936C287.113 61.0013 286.767 61.0993 286.441 61.23V60.208C286.739 60.1053 287.099 60.0213 287.519 59.956C287.939 59.8813 288.34 59.844 288.723 59.844C289.693 59.844 290.426 60.082 290.921 60.558C291.425 61.0247 291.677 61.6687 291.677 62.49C291.677 62.938 291.597 63.3347 291.439 63.68C291.28 64.016 291.061 64.338 290.781 64.646C290.501 64.9447 290.174 65.262 289.801 65.598C289.343 65.9993 288.905 66.396 288.485 66.788C288.074 67.1707 287.747 67.6093 287.505 68.104H291.775V69H286.091ZM293.173 69L296.449 59.732H297.611L294.335 69H293.173ZM299.011 69V68.384C299.253 67.796 299.599 67.2593 300.047 66.774C300.495 66.2887 300.975 65.8313 301.489 65.402C302.002 64.9727 302.399 64.6133 302.679 64.324C302.968 64.0253 303.169 63.7407 303.281 63.47C303.393 63.19 303.449 62.8633 303.449 62.49C303.449 61.9487 303.309 61.538 303.029 61.258C302.749 60.9687 302.226 60.824 301.461 60.824C301.115 60.824 300.761 60.8613 300.397 60.936C300.033 61.0013 299.687 61.0993 299.361 61.23V60.208C299.659 60.1053 300.019 60.0213 300.439 59.956C300.859 59.8813 301.26 59.844 301.643 59.844C302.613 59.844 303.346 60.082 303.841 60.558C304.345 61.0247 304.597 61.6687 304.597 62.49C304.597 62.938 304.517 63.3347 304.359 63.68C304.2 64.016 303.981 64.338 303.701 64.646C303.421 64.9447 303.094 65.262 302.721 65.598C302.263 65.9993 301.825 66.396 301.405 66.788C300.994 67.1707 300.667 67.6093 300.425 68.104H304.695V69H299.011ZM308.529 69.14C308.118 69.14 307.689 69.1073 307.241 69.042C306.793 68.9767 306.424 68.8833 306.135 68.762V67.74C306.825 68.02 307.581 68.16 308.403 68.16C309.205 68.16 309.789 68.0107 310.153 67.712C310.526 67.4133 310.713 66.9467 310.713 66.312C310.713 65.7147 310.573 65.2667 310.293 64.968C310.022 64.6693 309.49 64.52 308.697 64.52H306.093V63.722L306.331 59.984H311.217L311.105 60.88H307.297L307.115 63.61H308.809C309.863 63.61 310.633 63.834 311.119 64.282C311.613 64.73 311.861 65.4067 311.861 66.312C311.861 67.1893 311.576 67.88 311.007 68.384C310.447 68.888 309.621 69.14 308.529 69.14Z" fill="#1E293B"/>
<path d="M345 56C345 53.7909 346.791 52 349 52H365C367.209 52 369 53.7909 369 56V72C369 74.2091 367.209 76 365 76H349C346.791 76 345 74.2091 345 72V56Z" fill="#F3F4F7"/>
<path d="M363.857 65.1429H358.143V70.8571C358.143 71.1602 358.022 71.4509 357.808 71.6653C357.594 71.8796 357.303 72 357 72C356.697 72 356.406 71.8796 356.192 71.6653C355.978 71.4509 355.857 71.1602 355.857 70.8571V65.1429H350.143C349.84 65.1429 349.549 65.0224 349.335 64.8081C349.12 64.5938 349 64.3031 349 64C349 63.6969 349.12 63.4062 349.335 63.1919C349.549 62.9776 349.84 62.8571 350.143 62.8571H355.857V57.1429C355.857 56.8398 355.978 56.5491 356.192 56.3347C356.406 56.1204 356.697 56 357 56C357.303 56 357.594 56.1204 357.808 56.3347C358.022 56.5491 358.143 56.8398 358.143 57.1429V62.8571H363.857C364.16 62.8571 364.451 62.9776 364.665 63.1919C364.88 63.4062 365 63.6969 365 64C365 64.3031 364.88 64.5938 364.665 64.8081C364.451 65.0224 364.16 65.1429 363.857 65.1429Z" fill="#A9ACB9"/>
<path d="M377 56C377 53.7909 378.791 52 381 52H397C399.209 52 401 53.7909 401 56V72C401 74.2091 399.209 76 397 76H381C378.791 76 377 74.2091 377 72V56Z" fill="#F3F4F7"/>
<path d="M395 65H383C382.735 65 382.48 64.8946 382.293 64.7071C382.105 64.5196 382 64.2652 382 64C382 63.7348 382.105 63.4804 382.293 63.2929C382.48 63.1054 382.735 63 383 63H395C395.265 63 395.52 63.1054 395.707 63.2929C395.895 63.4804 396 63.7348 396 64C396 64.2652 395.895 64.5196 395.707 64.7071C395.52 64.8946 395.265 65 395 65Z" fill="#A9ACB9"/>
<path d="M409 56C409 53.7909 410.791 52 413 52H429C431.209 52 433 53.7909 433 56V72C433 74.2091 431.209 76 429 76H413C410.791 76 409 74.2091 409 72V56Z" fill="#F3F4F7"/>
<path d="M427.857 62H414.143C413.84 62 413.549 61.8946 413.335 61.7071C413.12 61.5196 413 61.2652 413 61C413 60.7348 413.12 60.4804 413.335 60.2929C413.549 60.1054 413.84 60 414.143 60H427.857C428.16 60 428.451 60.1054 428.665 60.2929C428.88 60.4804 429 60.7348 429 61C429 61.2652 428.88 61.5196 428.665 61.7071C428.451 61.8946 428.16 62 427.857 62ZM427.857 68H414.143C413.84 68 413.549 67.8946 413.335 67.7071C413.12 67.5196 413 67.2652 413 67C413 66.7348 413.12 66.4804 413.335 66.2929C413.549 66.1054 413.84 66 414.143 66H427.857C428.16 66 428.451 66.1054 428.665 66.2929C428.88 66.4804 429 66.7348 429 67C429 67.2652 428.88 67.5196 428.665 67.7071C428.451 67.8946 428.16 68 427.857 68Z" fill="#A9ACB9"/>
<mask id="path-29-inside-2_2050_13624" fill="white">
<path d="M1 88H441V136H1V88Z"/>
</mask>
<path d="M1 88H441V136H1V88Z" fill="white"/>
<path d="M441 136V135H1V136V137H441V136Z" fill="#ECEDF1" mask="url(#path-29-inside-2_2050_13624)"/>
<path d="M23.528 117.5L19.592 107.196H21.848L24.696 115.084L27.56 107.196H29.816L25.896 117.5H23.528ZM30.912 117.5V107.196H32.784L37.664 114.06V107.196H39.824V117.5H37.952L33.072 110.636V117.5H30.912Z" fill="#1E293B"/>
<path d="M56.688 117.5V116.636C56.9653 115.985 57.3493 115.399 57.84 114.876C58.3413 114.353 58.8747 113.847 59.44 113.356C59.8667 112.983 60.2187 112.668 60.496 112.412C60.784 112.145 61.008 111.905 61.168 111.692C61.328 111.479 61.44 111.26 61.504 111.036C61.568 110.801 61.6 110.529 61.6 110.22C61.6 109.665 61.44 109.244 61.12 108.956C60.8 108.668 60.2667 108.524 59.52 108.524C59.1147 108.524 58.6987 108.567 58.272 108.652C57.856 108.737 57.456 108.855 57.072 109.004V107.468C57.4453 107.34 57.888 107.239 58.4 107.164C58.912 107.079 59.3973 107.036 59.856 107.036C61.008 107.036 61.8773 107.319 62.464 107.884C63.0507 108.449 63.344 109.223 63.344 110.204C63.344 110.695 63.2587 111.132 63.088 111.516C62.9173 111.889 62.6827 112.247 62.384 112.588C62.0853 112.919 61.7387 113.26 61.344 113.612C60.8533 114.039 60.3893 114.455 59.952 114.86C59.5253 115.255 59.1787 115.687 58.912 116.156H63.456V117.5H56.688ZM69.6606 117.5V115.244H64.5086V114.012L69.8686 107.196H71.3886V113.836H72.4446V115.244H71.3886V117.5H69.6606ZM66.2046 113.884H69.9326V109.18L66.2046 113.884Z" fill="#10C042"/>
<path d="M79.242 117.14C78.0567 117.14 77.17 116.855 76.582 116.286C75.994 115.717 75.7 114.839 75.7 113.654C75.7 112.59 75.952 111.755 76.456 111.148C76.9693 110.532 77.7767 110.224 78.878 110.224C79.5313 110.224 80.068 110.345 80.488 110.588C80.9173 110.821 81.2347 111.148 81.44 111.568C81.6547 111.979 81.762 112.445 81.762 112.968V114.214H76.848C76.8853 114.718 76.9927 115.115 77.17 115.404C77.3567 115.693 77.632 115.903 77.996 116.034C78.3693 116.155 78.8593 116.216 79.466 116.216C80.1473 116.216 80.7727 116.099 81.342 115.866V116.762C81.0527 116.883 80.726 116.977 80.362 117.042C80.0073 117.107 79.634 117.14 79.242 117.14ZM76.848 113.388H80.74V112.842C80.74 112.301 80.5953 111.885 80.306 111.596C80.026 111.297 79.5593 111.148 78.906 111.148C78.1127 111.148 77.5713 111.335 77.282 111.708C76.9927 112.081 76.848 112.641 76.848 113.388ZM85.4345 117.14C85.0145 117.14 84.6272 117.065 84.2725 116.916C83.9178 116.767 83.6332 116.547 83.4185 116.258C83.2038 115.959 83.0965 115.586 83.0965 115.138C83.0965 114.531 83.2972 114.037 83.6985 113.654C84.0998 113.262 84.7532 113.066 85.6585 113.066H87.9685V112.66C87.9685 112.296 87.9172 112.007 87.8145 111.792C87.7212 111.577 87.5392 111.423 87.2685 111.33C86.9978 111.237 86.6012 111.19 86.0785 111.19C85.6772 111.19 85.2898 111.223 84.9165 111.288C84.5432 111.353 84.1932 111.442 83.8665 111.554V110.602C84.1652 110.49 84.5152 110.401 84.9165 110.336C85.3272 110.261 85.7658 110.224 86.2325 110.224C87.1752 110.224 87.8798 110.415 88.3465 110.798C88.8225 111.181 89.0605 111.801 89.0605 112.66V117H88.0945L88.0105 116.244C87.7212 116.543 87.3712 116.767 86.9605 116.916C86.5498 117.065 86.0412 117.14 85.4345 117.14ZM85.7285 116.202C86.2138 116.202 86.6432 116.118 87.0165 115.95C87.3898 115.773 87.7072 115.535 87.9685 115.236V113.948H85.6865C85.1638 113.948 84.7905 114.046 84.5665 114.242C84.3425 114.438 84.2305 114.737 84.2305 115.138C84.2305 115.539 84.3658 115.819 84.6365 115.978C84.9072 116.127 85.2712 116.202 85.7285 116.202Z" fill="#1E293B"/>
<path d="M117.688 113.868V112.508H123.8V113.868H117.688Z" fill="#1E293B"/>
<path d="M152.688 117.5V116.636C152.965 115.985 153.349 115.399 153.84 114.876C154.341 114.353 154.875 113.847 155.44 113.356C155.867 112.983 156.219 112.668 156.496 112.412C156.784 112.145 157.008 111.905 157.168 111.692C157.328 111.479 157.44 111.26 157.504 111.036C157.568 110.801 157.6 110.529 157.6 110.22C157.6 109.665 157.44 109.244 157.12 108.956C156.8 108.668 156.267 108.524 155.52 108.524C155.115 108.524 154.699 108.567 154.272 108.652C153.856 108.737 153.456 108.855 153.072 109.004V107.468C153.445 107.34 153.888 107.239 154.4 107.164C154.912 107.079 155.397 107.036 155.856 107.036C157.008 107.036 157.877 107.319 158.464 107.884C159.051 108.449 159.344 109.223 159.344 110.204C159.344 110.695 159.259 111.132 159.088 111.516C158.917 111.889 158.683 112.247 158.384 112.588C158.085 112.919 157.739 113.26 157.344 113.612C156.853 114.039 156.389 114.455 155.952 114.86C155.525 115.255 155.179 115.687 154.912 116.156H159.456V117.5H152.688ZM165.661 117.5V115.244H160.509V114.012L165.869 107.196H167.389V113.836H168.445V115.244H167.389V117.5H165.661ZM162.205 113.884H165.933V109.18L162.205 113.884Z" fill="#1E293B"/>
<path d="M175.242 117.14C174.057 117.14 173.17 116.855 172.582 116.286C171.994 115.717 171.7 114.839 171.7 113.654C171.7 112.59 171.952 111.755 172.456 111.148C172.969 110.532 173.777 110.224 174.878 110.224C175.531 110.224 176.068 110.345 176.488 110.588C176.917 110.821 177.235 111.148 177.44 111.568C177.655 111.979 177.762 112.445 177.762 112.968V114.214H172.848C172.885 114.718 172.993 115.115 173.17 115.404C173.357 115.693 173.632 115.903 173.996 116.034C174.369 116.155 174.859 116.216 175.466 116.216C176.147 116.216 176.773 116.099 177.342 115.866V116.762C177.053 116.883 176.726 116.977 176.362 117.042C176.007 117.107 175.634 117.14 175.242 117.14ZM172.848 113.388H176.74V112.842C176.74 112.301 176.595 111.885 176.306 111.596C176.026 111.297 175.559 111.148 174.906 111.148C174.113 111.148 173.571 111.335 173.282 111.708C172.993 112.081 172.848 112.641 172.848 113.388ZM181.434 117.14C181.014 117.14 180.627 117.065 180.272 116.916C179.918 116.767 179.633 116.547 179.418 116.258C179.204 115.959 179.096 115.586 179.096 115.138C179.096 114.531 179.297 114.037 179.698 113.654C180.1 113.262 180.753 113.066 181.658 113.066H183.968V112.66C183.968 112.296 183.917 112.007 183.814 111.792C183.721 111.577 183.539 111.423 183.268 111.33C182.998 111.237 182.601 111.19 182.078 111.19C181.677 111.19 181.29 111.223 180.916 111.288C180.543 111.353 180.193 111.442 179.866 111.554V110.602C180.165 110.49 180.515 110.401 180.916 110.336C181.327 110.261 181.766 110.224 182.232 110.224C183.175 110.224 183.88 110.415 184.346 110.798C184.822 111.181 185.06 111.801 185.06 112.66V117H184.094L184.01 116.244C183.721 116.543 183.371 116.767 182.96 116.916C182.55 117.065 182.041 117.14 181.434 117.14ZM181.728 116.202C182.214 116.202 182.643 116.118 183.016 115.95C183.39 115.773 183.707 115.535 183.968 115.236V113.948H181.686C181.164 113.948 180.79 114.046 180.566 114.242C180.342 114.438 180.23 114.737 180.23 115.138C180.23 115.539 180.366 115.819 180.636 115.978C180.907 116.127 181.271 116.202 181.728 116.202Z" fill="#1E293B"/>
<path d="M208.188 117.5V116.636C208.465 115.985 208.849 115.399 209.34 114.876C209.841 114.353 210.375 113.847 210.94 113.356C211.367 112.983 211.719 112.668 211.996 112.412C212.284 112.145 212.508 111.905 212.668 111.692C212.828 111.479 212.94 111.26 213.004 111.036C213.068 110.801 213.1 110.529 213.1 110.22C213.1 109.665 212.94 109.244 212.62 108.956C212.3 108.668 211.767 108.524 211.02 108.524C210.615 108.524 210.199 108.567 209.772 108.652C209.356 108.737 208.956 108.855 208.572 109.004V107.468C208.945 107.34 209.388 107.239 209.9 107.164C210.412 107.079 210.897 107.036 211.356 107.036C212.508 107.036 213.377 107.319 213.964 107.884C214.551 108.449 214.844 109.223 214.844 110.204C214.844 110.695 214.759 111.132 214.588 111.516C214.417 111.889 214.183 112.247 213.884 112.588C213.585 112.919 213.239 113.26 212.844 113.612C212.353 114.039 211.889 114.455 211.452 114.86C211.025 115.255 210.679 115.687 210.412 116.156H214.956V117.5H208.188ZM220.857 117.788C219.769 117.788 218.894 117.58 218.233 117.164C217.571 116.737 217.086 116.129 216.777 115.34C216.478 114.54 216.329 113.585 216.329 112.476C216.329 111.324 216.473 110.343 216.761 109.532C217.059 108.721 217.539 108.103 218.201 107.676C218.862 107.249 219.747 107.036 220.857 107.036C221.966 107.036 222.846 107.249 223.497 107.676C224.158 108.103 224.633 108.721 224.921 109.532C225.219 110.343 225.369 111.324 225.369 112.476C225.369 113.585 225.219 114.54 224.921 115.34C224.622 116.129 224.142 116.737 223.481 117.164C222.819 117.58 221.945 117.788 220.857 117.788ZM220.857 116.3C221.881 116.3 222.595 115.964 223.001 115.292C223.406 114.609 223.609 113.671 223.609 112.476C223.609 111.207 223.411 110.231 223.017 109.548C222.622 108.865 221.902 108.524 220.857 108.524C219.811 108.524 219.086 108.865 218.681 109.548C218.286 110.231 218.089 111.207 218.089 112.476C218.089 113.671 218.291 114.609 218.697 115.292C219.102 115.964 219.822 116.3 220.857 116.3Z" fill="#10C042"/>
<path d="M268.126 117.14C267.697 117.14 267.309 117.112 266.964 117.056C266.628 117.009 266.325 116.939 266.054 116.846V115.852C266.325 115.945 266.623 116.02 266.95 116.076C267.286 116.132 267.659 116.16 268.07 116.16C268.985 116.16 269.647 115.927 270.058 115.46C270.469 114.993 270.674 114.377 270.674 113.612V112.926C270.31 113.187 269.904 113.383 269.456 113.514C269.017 113.645 268.616 113.71 268.252 113.71C267.225 113.71 266.46 113.458 265.956 112.954C265.452 112.45 265.2 111.731 265.2 110.798C265.2 109.911 265.471 109.197 266.012 108.656C266.553 108.115 267.375 107.844 268.476 107.844C269.559 107.844 270.375 108.119 270.926 108.67C271.486 109.211 271.766 110.079 271.766 111.274V113.402C271.766 114.149 271.617 114.802 271.318 115.362C271.029 115.922 270.609 116.361 270.058 116.678C269.517 116.986 268.873 117.14 268.126 117.14ZM268.35 112.814C268.807 112.814 269.232 112.744 269.624 112.604C270.016 112.455 270.366 112.268 270.674 112.044V110.952C270.674 109.487 269.941 108.754 268.476 108.754C267.729 108.754 267.169 108.936 266.796 109.3C266.423 109.655 266.236 110.145 266.236 110.77C266.236 111.19 266.297 111.554 266.418 111.862C266.539 112.17 266.754 112.408 267.062 112.576C267.37 112.735 267.799 112.814 268.35 112.814ZM273.171 117L276.447 107.732H277.609L274.333 117H273.171ZM279.009 117V116.384C279.251 115.796 279.597 115.259 280.045 114.774C280.493 114.289 280.973 113.831 281.487 113.402C282 112.973 282.397 112.613 282.677 112.324C282.966 112.025 283.167 111.741 283.279 111.47C283.391 111.19 283.447 110.863 283.447 110.49C283.447 109.949 283.307 109.538 283.027 109.258C282.747 108.969 282.224 108.824 281.459 108.824C281.113 108.824 280.759 108.861 280.395 108.936C280.031 109.001 279.685 109.099 279.359 109.23V108.208C279.657 108.105 280.017 108.021 280.437 107.956C280.857 107.881 281.258 107.844 281.641 107.844C282.611 107.844 283.344 108.082 283.839 108.558C284.343 109.025 284.595 109.669 284.595 110.49C284.595 110.938 284.515 111.335 284.357 111.68C284.198 112.016 283.979 112.338 283.699 112.646C283.419 112.945 283.092 113.262 282.719 113.598C282.261 113.999 281.823 114.396 281.403 114.788C280.992 115.171 280.665 115.609 280.423 116.104H284.693V117H279.009ZM289.381 117.14C288.307 117.14 287.491 116.869 286.931 116.328C286.371 115.777 286.091 114.905 286.091 113.71V111.582C286.091 110.835 286.235 110.182 286.525 109.622C286.823 109.062 287.243 108.628 287.785 108.32C288.335 108.003 288.984 107.844 289.731 107.844C290.169 107.844 290.557 107.872 290.893 107.928C291.229 107.975 291.532 108.045 291.803 108.138V109.132C291.532 109.029 291.229 108.955 290.893 108.908C290.566 108.852 290.197 108.824 289.787 108.824C288.881 108.824 288.219 109.057 287.799 109.524C287.388 109.981 287.183 110.597 287.183 111.372V112.058C287.547 111.787 287.948 111.591 288.387 111.47C288.835 111.339 289.241 111.274 289.605 111.274C290.631 111.274 291.397 111.526 291.901 112.03C292.405 112.525 292.657 113.243 292.657 114.186C292.657 115.063 292.386 115.777 291.845 116.328C291.313 116.869 290.491 117.14 289.381 117.14ZM289.381 116.23C290.127 116.23 290.687 116.053 291.061 115.698C291.434 115.334 291.621 114.839 291.621 114.214C291.621 113.785 291.56 113.421 291.439 113.122C291.317 112.814 291.103 112.581 290.795 112.422C290.487 112.254 290.057 112.17 289.507 112.17C289.049 112.17 288.625 112.245 288.233 112.394C287.841 112.534 287.491 112.716 287.183 112.94V114.032C287.183 115.497 287.915 116.23 289.381 116.23ZM294.061 117L297.337 107.732H298.499L295.223 117H294.061ZM299.899 117V116.384C300.142 115.796 300.487 115.259 300.935 114.774C301.383 114.289 301.864 113.831 302.377 113.402C302.891 112.973 303.287 112.613 303.567 112.324C303.857 112.025 304.057 111.741 304.169 111.47C304.281 111.19 304.337 110.863 304.337 110.49C304.337 109.949 304.197 109.538 303.917 109.258C303.637 108.969 303.115 108.824 302.349 108.824C302.004 108.824 301.649 108.861 301.285 108.936C300.921 109.001 300.576 109.099 300.249 109.23V108.208C300.548 108.105 300.907 108.021 301.327 107.956C301.747 107.881 302.149 107.844 302.531 107.844C303.502 107.844 304.235 108.082 304.729 108.558C305.233 109.025 305.485 109.669 305.485 110.49C305.485 110.938 305.406 111.335 305.247 111.68C305.089 112.016 304.869 112.338 304.589 112.646C304.309 112.945 303.983 113.262 303.609 113.598C303.152 113.999 302.713 114.396 302.293 114.788C301.883 115.171 301.556 115.609 301.313 116.104H305.583V117H299.899ZM309.417 117.14C309.007 117.14 308.577 117.107 308.129 117.042C307.681 116.977 307.313 116.883 307.023 116.762V115.74C307.714 116.02 308.47 116.16 309.291 116.16C310.094 116.16 310.677 116.011 311.041 115.712C311.415 115.413 311.601 114.947 311.601 114.312C311.601 113.715 311.461 113.267 311.181 112.968C310.911 112.669 310.379 112.52 309.585 112.52H306.981V111.722L307.219 107.984H312.105L311.993 108.88H308.185L308.003 111.61H309.697C310.752 111.61 311.522 111.834 312.007 112.282C312.502 112.73 312.749 113.407 312.749 114.312C312.749 115.189 312.465 115.88 311.895 116.384C311.335 116.888 310.509 117.14 309.417 117.14Z" fill="#1E293B"/>
<path d="M345 104C345 101.791 346.791 100 349 100H365C367.209 100 369 101.791 369 104V120C369 122.209 367.209 124 365 124H349C346.791 124 345 122.209 345 120V104Z" fill="#F3F4F7"/>
<path d="M363.857 113.143H358.143V118.857C358.143 119.16 358.022 119.451 357.808 119.665C357.594 119.88 357.303 120 357 120C356.697 120 356.406 119.88 356.192 119.665C355.978 119.451 355.857 119.16 355.857 118.857V113.143H350.143C349.84 113.143 349.549 113.022 349.335 112.808C349.12 112.594 349 112.303 349 112C349 111.697 349.12 111.406 349.335 111.192C349.549 110.978 349.84 110.857 350.143 110.857H355.857V105.143C355.857 104.84 355.978 104.549 356.192 104.335C356.406 104.12 356.697 104 357 104C357.303 104 357.594 104.12 357.808 104.335C358.022 104.549 358.143 104.84 358.143 105.143V110.857H363.857C364.16 110.857 364.451 110.978 364.665 111.192C364.88 111.406 365 111.697 365 112C365 112.303 364.88 112.594 364.665 112.808C364.451 113.022 364.16 113.143 363.857 113.143Z" fill="#A9ACB9"/>
<path d="M377 104C377 101.791 378.791 100 381 100H397C399.209 100 401 101.791 401 104V120C401 122.209 399.209 124 397 124H381C378.791 124 377 122.209 377 120V104Z" fill="#F3F4F7"/>
<path d="M395 113H383C382.735 113 382.48 112.895 382.293 112.707C382.105 112.52 382 112.265 382 112C382 111.735 382.105 111.48 382.293 111.293C382.48 111.105 382.735 111 383 111H395C395.265 111 395.52 111.105 395.707 111.293C395.895 111.48 396 111.735 396 112C396 112.265 395.895 112.52 395.707 112.707C395.52 112.895 395.265 113 395 113Z" fill="#A9ACB9"/>
<path d="M409 104C409 101.791 410.791 100 413 100H429C431.209 100 433 101.791 433 104V120C433 122.209 431.209 124 429 124H413C410.791 124 409 122.209 409 120V104Z" fill="#F3F4F7"/>
<path d="M427.857 110H414.143C413.84 110 413.549 109.895 413.335 109.707C413.12 109.52 413 109.265 413 109C413 108.735 413.12 108.48 413.335 108.293C413.549 108.105 413.84 108 414.143 108H427.857C428.16 108 428.451 108.105 428.665 108.293C428.88 108.48 429 108.735 429 109C429 109.265 428.88 109.52 428.665 109.707C428.451 109.895 428.16 110 427.857 110ZM427.857 116H414.143C413.84 116 413.549 115.895 413.335 115.707C413.12 115.52 413 115.265 413 115C413 114.735 413.12 114.48 413.335 114.293C413.549 114.105 413.84 114 414.143 114H427.857C428.16 114 428.451 114.105 428.665 114.293C428.88 114.48 429 114.735 429 115C429 115.265 428.88 115.52 428.665 115.707C428.451 115.895 428.16 116 427.857 116Z" fill="#A9ACB9"/>
<mask id="path-47-inside-3_2050_13624" fill="white">
<path d="M1 136H441V184H1V136Z"/>
</mask>
<path d="M1 136H441V184H1V136Z" fill="white"/>
<path d="M441 184V183H1V184V185H441V184Z" fill="#ECEDF1" mask="url(#path-47-inside-3_2050_13624)"/>
<path d="M24.44 165.66C23.0213 165.66 21.896 165.319 21.064 164.636C20.2427 163.943 19.832 162.94 19.832 161.628V155.196H21.992V161.468C21.992 162.257 22.2053 162.849 22.632 163.244C23.0587 163.628 23.6613 163.82 24.44 163.82C25.2187 163.82 25.816 163.628 26.232 163.244C26.6587 162.849 26.872 162.257 26.872 161.468V155.196H29.032V161.628C29.032 162.94 28.6213 163.943 27.8 164.636C26.9787 165.319 25.8587 165.66 24.44 165.66ZM30.7714 165.5V155.196H32.9314V159.564L36.8994 155.196H39.3794L35.6514 159.372L39.5714 165.5H37.2674L34.3074 160.748L32.9314 162.236V165.5H30.7714Z" fill="#1E293B"/>
<path d="M69.688 161.868V160.508H75.8V161.868H69.688Z" fill="#1E293B"/>
<path d="M117.688 161.868V160.508H123.8V161.868H117.688Z" fill="#1E293B"/>
<path d="M165.688 161.868V160.508H171.8V161.868H165.688Z" fill="#1E293B"/>
<path d="M273.49 165.14C272.417 165.14 271.6 164.869 271.04 164.328C270.48 163.777 270.2 162.905 270.2 161.71V159.582C270.2 158.835 270.345 158.182 270.634 157.622C270.933 157.062 271.353 156.628 271.894 156.32C272.445 156.003 273.093 155.844 273.84 155.844C274.279 155.844 274.666 155.872 275.002 155.928C275.338 155.975 275.641 156.045 275.912 156.138V157.132C275.641 157.029 275.338 156.955 275.002 156.908C274.675 156.852 274.307 156.824 273.896 156.824C272.991 156.824 272.328 157.057 271.908 157.524C271.497 157.981 271.292 158.597 271.292 159.372V160.058C271.656 159.787 272.057 159.591 272.496 159.47C272.944 159.339 273.35 159.274 273.714 159.274C274.741 159.274 275.506 159.526 276.01 160.03C276.514 160.525 276.766 161.243 276.766 162.186C276.766 163.063 276.495 163.777 275.954 164.328C275.422 164.869 274.601 165.14 273.49 165.14ZM273.49 164.23C274.237 164.23 274.797 164.053 275.17 163.698C275.543 163.334 275.73 162.839 275.73 162.214C275.73 161.785 275.669 161.421 275.548 161.122C275.427 160.814 275.212 160.581 274.904 160.422C274.596 160.254 274.167 160.17 273.616 160.17C273.159 160.17 272.734 160.245 272.342 160.394C271.95 160.534 271.6 160.716 271.292 160.94V162.032C271.292 163.497 272.025 164.23 273.49 164.23ZM278.171 165L281.447 155.732H282.609L279.333 165H278.171ZM285.437 165V156.964L284.009 157.216V156.25L286.585 155.844V165H285.437ZM288.261 165L291.537 155.732H292.699L289.423 165H288.261ZM294.098 165V164.384C294.341 163.796 294.686 163.259 295.134 162.774C295.582 162.289 296.063 161.831 296.576 161.402C297.09 160.973 297.486 160.613 297.766 160.324C298.056 160.025 298.256 159.741 298.368 159.47C298.48 159.19 298.536 158.863 298.536 158.49C298.536 157.949 298.396 157.538 298.116 157.258C297.836 156.969 297.314 156.824 296.548 156.824C296.203 156.824 295.848 156.861 295.484 156.936C295.12 157.001 294.775 157.099 294.448 157.23V156.208C294.747 156.105 295.106 156.021 295.526 155.956C295.946 155.881 296.348 155.844 296.73 155.844C297.701 155.844 298.434 156.082 298.928 156.558C299.432 157.025 299.684 157.669 299.684 158.49C299.684 158.938 299.605 159.335 299.446 159.68C299.288 160.016 299.068 160.338 298.788 160.646C298.508 160.945 298.182 161.262 297.808 161.598C297.351 161.999 296.912 162.396 296.492 162.788C296.082 163.171 295.755 163.609 295.512 164.104H299.782V165H294.098ZM301.18 165V164.384C301.423 163.796 301.768 163.259 302.216 162.774C302.664 162.289 303.145 161.831 303.658 161.402C304.172 160.973 304.568 160.613 304.848 160.324C305.138 160.025 305.338 159.741 305.45 159.47C305.562 159.19 305.618 158.863 305.618 158.49C305.618 157.949 305.478 157.538 305.198 157.258C304.918 156.969 304.396 156.824 303.63 156.824C303.285 156.824 302.93 156.861 302.566 156.936C302.202 157.001 301.857 157.099 301.53 157.23V156.208C301.829 156.105 302.188 156.021 302.608 155.956C303.028 155.881 303.43 155.844 303.812 155.844C304.783 155.844 305.516 156.082 306.01 156.558C306.514 157.025 306.766 157.669 306.766 158.49C306.766 158.938 306.687 159.335 306.528 159.68C306.37 160.016 306.15 160.338 305.87 160.646C305.59 160.945 305.264 161.262 304.89 161.598C304.433 161.999 303.994 162.396 303.574 162.788C303.164 163.171 302.837 163.609 302.594 164.104H306.864V165H301.18Z" fill="#1E293B"/>
<path d="M345 152C345 149.791 346.791 148 349 148H365C367.209 148 369 149.791 369 152V168C369 170.209 367.209 172 365 172H349C346.791 172 345 170.209 345 168V152Z" fill="#F3F4F7"/>
<path d="M363.857 161.143H358.143V166.857C358.143 167.16 358.022 167.451 357.808 167.665C357.594 167.88 357.303 168 357 168C356.697 168 356.406 167.88 356.192 167.665C355.978 167.451 355.857 167.16 355.857 166.857V161.143H350.143C349.84 161.143 349.549 161.022 349.335 160.808C349.12 160.594 349 160.303 349 160C349 159.697 349.12 159.406 349.335 159.192C349.549 158.978 349.84 158.857 350.143 158.857H355.857V153.143C355.857 152.84 355.978 152.549 356.192 152.335C356.406 152.12 356.697 152 357 152C357.303 152 357.594 152.12 357.808 152.335C358.022 152.549 358.143 152.84 358.143 153.143V158.857H363.857C364.16 158.857 364.451 158.978 364.665 159.192C364.88 159.406 365 159.697 365 160C365 160.303 364.88 160.594 364.665 160.808C364.451 161.022 364.16 161.143 363.857 161.143Z" fill="#A9ACB9"/>
<path d="M377 152C377 149.791 378.791 148 381 148H397C399.209 148 401 149.791 401 152V168C401 170.209 399.209 172 397 172H381C378.791 172 377 170.209 377 168V152Z" fill="#F3F4F7"/>
<path d="M395 161H383C382.735 161 382.48 160.895 382.293 160.707C382.105 160.52 382 160.265 382 160C382 159.735 382.105 159.48 382.293 159.293C382.48 159.105 382.735 159 383 159H395C395.265 159 395.52 159.105 395.707 159.293C395.895 159.48 396 159.735 396 160C396 160.265 395.895 160.52 395.707 160.707C395.52 160.895 395.265 161 395 161Z" fill="#A9ACB9"/>
<path d="M409 152C409 149.791 410.791 148 413 148H429C431.209 148 433 149.791 433 152V168C433 170.209 431.209 172 429 172H413C410.791 172 409 170.209 409 168V152Z" fill="#F3F4F7"/>
<path d="M427.857 158H414.143C413.84 158 413.549 157.895 413.335 157.707C413.12 157.52 413 157.265 413 157C413 156.735 413.12 156.48 413.335 156.293C413.549 156.105 413.84 156 414.143 156H427.857C428.16 156 428.451 156.105 428.665 156.293C428.88 156.48 429 156.735 429 157C429 157.265 428.88 157.52 428.665 157.707C428.451 157.895 428.16 158 427.857 158ZM427.857 164H414.143C413.84 164 413.549 163.895 413.335 163.707C413.12 163.52 413 163.265 413 163C413 162.735 413.12 162.48 413.335 162.293C413.549 162.105 413.84 162 414.143 162H427.857C428.16 162 428.451 162.105 428.665 162.293C428.88 162.48 429 162.735 429 163C429 163.265 428.88 163.52 428.665 163.707C428.451 163.895 428.16 164 427.857 164Z" fill="#A9ACB9"/>
<mask id="path-62-inside-4_2050_13624" fill="white">
<path d="M1 184H441V232H1V184Z"/>
</mask>
<path d="M1 184H441V232H1V184Z" fill="white"/>
<path d="M441 232V231H1V232V233H441V232Z" fill="#ECEDF1" mask="url(#path-62-inside-4_2050_13624)"/>
<path d="M20.912 213.5V203.196H23.072V207.564L27.04 203.196H29.52L25.792 207.372L29.712 213.5H27.408L24.448 208.748L23.072 210.236V213.5H20.912ZM31.2089 213.5V203.196H36.1529C37.3369 203.196 38.2062 203.511 38.7609 204.14C39.3155 204.759 39.5929 205.596 39.5929 206.652C39.5929 207.345 39.4115 207.943 39.0489 208.444C38.6969 208.945 38.1955 209.308 37.5449 209.532C37.7155 209.671 37.8489 209.82 37.9449 209.98C38.0515 210.14 38.1582 210.353 38.2649 210.62L39.5129 213.5H37.2729L36.0569 210.732C35.9502 210.497 35.8329 210.332 35.7049 210.236C35.5769 210.14 35.3635 210.092 35.0649 210.092H33.3689V213.5H31.2089ZM33.3689 208.3H35.5929C36.1582 208.3 36.6009 208.177 36.9209 207.932C37.2409 207.676 37.4009 207.249 37.4009 206.652C37.4009 206.076 37.2622 205.655 36.9849 205.388C36.7075 205.121 36.2862 204.988 35.7209 204.988H33.3689V208.3Z" fill="#1E293B"/>
<path d="M69.688 209.868V208.508H75.8V209.868H69.688Z" fill="#1E293B"/>
<path d="M117.688 209.868V208.508H123.8V209.868H117.688Z" fill="#1E293B"/>
<path d="M165.688 209.868V208.508H171.8V209.868H165.688Z" fill="#1E293B"/>
<path d="M286.2 209.696V208.786H291.478V209.696H286.2Z" fill="#1E293B"/>
<path d="M345 200C345 197.791 346.791 196 349 196H365C367.209 196 369 197.791 369 200V216C369 218.209 367.209 220 365 220H349C346.791 220 345 218.209 345 216V200Z" fill="#F3F4F7"/>
<path d="M363.857 209.143H358.143V214.857C358.143 215.16 358.022 215.451 357.808 215.665C357.594 215.88 357.303 216 357 216C356.697 216 356.406 215.88 356.192 215.665C355.978 215.451 355.857 215.16 355.857 214.857V209.143H350.143C349.84 209.143 349.549 209.022 349.335 208.808C349.12 208.594 349 208.303 349 208C349 207.697 349.12 207.406 349.335 207.192C349.549 206.978 349.84 206.857 350.143 206.857H355.857V201.143C355.857 200.84 355.978 200.549 356.192 200.335C356.406 200.12 356.697 200 357 200C357.303 200 357.594 200.12 357.808 200.335C358.022 200.549 358.143 200.84 358.143 201.143V206.857H363.857C364.16 206.857 364.451 206.978 364.665 207.192C364.88 207.406 365 207.697 365 208C365 208.303 364.88 208.594 364.665 208.808C364.451 209.022 364.16 209.143 363.857 209.143Z" fill="#A9ACB9"/>
<path d="M377 200C377 197.791 378.791 196 381 196H397C399.209 196 401 197.791 401 200V216C401 218.209 399.209 220 397 220H381C378.791 220 377 218.209 377 216V200Z" fill="#F3F4F7"/>
<path d="M395 209H383C382.735 209 382.48 208.895 382.293 208.707C382.105 208.52 382 208.265 382 208C382 207.735 382.105 207.48 382.293 207.293C382.48 207.105 382.735 207 383 207H395C395.265 207 395.52 207.105 395.707 207.293C395.895 207.48 396 207.735 396 208C396 208.265 395.895 208.52 395.707 208.707C395.52 208.895 395.265 209 395 209Z" fill="#A9ACB9"/>
<path d="M409 200C409 197.791 410.791 196 413 196H429C431.209 196 433 197.791 433 200V216C433 218.209 431.209 220 429 220H413C410.791 220 409 218.209 409 216V200Z" fill="#F3F4F7"/>
<path d="M427.857 206H414.143C413.84 206 413.549 205.895 413.335 205.707C413.12 205.52 413 205.265 413 205C413 204.735 413.12 204.48 413.335 204.293C413.549 204.105 413.84 204 414.143 204H427.857C428.16 204 428.451 204.105 428.665 204.293C428.88 204.48 429 204.735 429 205C429 205.265 428.88 205.52 428.665 205.707C428.451 205.895 428.16 206 427.857 206ZM427.857 212H414.143C413.84 212 413.549 211.895 413.335 211.707C413.12 211.52 413 211.265 413 211C413 210.735 413.12 210.48 413.335 210.293C413.549 210.105 413.84 210 414.143 210H427.857C428.16 210 428.451 210.105 428.665 210.293C428.88 210.48 429 210.735 429 211C429 211.265 428.88 211.52 428.665 211.707C428.451 211.895 428.16 212 427.857 212Z" fill="#A9ACB9"/>
</svg>
