<svg width="1680" height="104" viewBox="0 0 1680 104" fill="none" xmlns="http://www.w3.org/2000/svg">
<path d="M33.218 63.5V42.62H37.017V63.5H33.218ZM40.1646 63.5V46.68H53.2436C53.9783 46.68 54.6453 46.8637 55.2446 47.231C55.8633 47.5983 56.3466 48.0817 56.6946 48.681C57.062 49.2803 57.2456 49.9473 57.2456 50.682V63.5H53.4466V50.827C53.4466 50.7303 53.408 50.653 53.3306 50.595C53.2726 50.5177 53.1953 50.479 53.0986 50.479H44.3116C44.215 50.479 44.128 50.5177 44.0506 50.595C43.9926 50.653 43.9636 50.7303 43.9636 50.827V63.5H40.1646ZM68.651 63.5L59.4 46.68H63.779L70.42 58.889L77.032 46.68H81.411L72.131 63.5H68.651ZM86.3052 63.5C85.5706 63.5 84.9036 63.3163 84.3042 62.949C83.7049 62.5817 83.2216 62.0983 82.8542 61.499C82.4869 60.8997 82.3032 60.2327 82.3032 59.498V50.682C82.3032 49.9473 82.4869 49.2803 82.8542 48.681C83.2216 48.0817 83.7049 47.5983 84.3042 47.231C84.9036 46.8637 85.5706 46.68 86.3052 46.68H95.3822C96.1169 46.68 96.7839 46.8637 97.3832 47.231C98.0019 47.5983 98.4852 48.0817 98.8332 48.681C99.2006 49.2803 99.3842 49.9473 99.3842 50.682V57.004H86.1022V59.353C86.1022 59.4497 86.1312 59.5367 86.1892 59.614C86.2666 59.672 86.3536 59.701 86.4502 59.701H99.3842V63.5H86.3052ZM86.1022 53.582H95.5852V50.827C95.5852 50.7303 95.5466 50.653 95.4692 50.595C95.4112 50.5177 95.3339 50.479 95.2372 50.479H86.4502C86.3536 50.479 86.2666 50.5177 86.1892 50.595C86.1312 50.653 86.1022 50.7303 86.1022 50.827V53.582ZM102.469 63.5V46.68H115.548C116.283 46.68 116.95 46.8637 117.549 47.231C118.168 47.5983 118.651 48.0817 118.999 48.681C119.367 49.2803 119.55 49.9473 119.55 50.682V63.5H115.751V50.827C115.751 50.7303 115.713 50.653 115.635 50.595C115.577 50.5177 115.5 50.479 115.403 50.479H106.616C106.52 50.479 106.433 50.5177 106.355 50.595C106.297 50.653 106.268 50.7303 106.268 50.827V63.5H102.469ZM126.635 63.5C125.9 63.5 125.233 63.3163 124.634 62.949C124.034 62.5817 123.551 62.0983 123.184 61.499C122.816 60.8997 122.633 60.2327 122.633 59.498V41.518H126.432V46.68H132.986V50.479H126.432V59.353C126.432 59.4497 126.461 59.5367 126.519 59.614C126.596 59.672 126.683 59.701 126.78 59.701H132.986V63.5H126.635ZM139.293 63.5C138.558 63.5 137.891 63.3163 137.292 62.949C136.692 62.5817 136.209 62.0983 135.842 61.499C135.474 60.8997 135.291 60.2327 135.291 59.498V50.682C135.291 49.9473 135.474 49.2803 135.842 48.681C136.209 48.0817 136.692 47.5983 137.292 47.231C137.891 46.8637 138.558 46.68 139.293 46.68H148.37C149.104 46.68 149.771 46.8637 150.371 47.231C150.989 47.5983 151.473 48.0817 151.821 48.681C152.188 49.2803 152.372 49.9473 152.372 50.682V59.498C152.372 60.2327 152.188 60.8997 151.821 61.499C151.473 62.0983 150.999 62.5817 150.4 62.949C149.8 63.3163 149.124 63.5 148.37 63.5H139.293ZM139.438 59.701H148.225C148.321 59.701 148.399 59.672 148.457 59.614C148.534 59.5367 148.573 59.4497 148.573 59.353V50.827C148.573 50.7303 148.534 50.653 148.457 50.595C148.399 50.5177 148.321 50.479 148.225 50.479H139.438C139.341 50.479 139.254 50.5177 139.177 50.595C139.119 50.653 139.09 50.7303 139.09 50.827V59.353C139.09 59.4497 139.119 59.5367 139.177 59.614C139.254 59.672 139.341 59.701 139.438 59.701ZM154.776 63.5V50.682C154.776 49.9473 154.959 49.2803 155.327 48.681C155.694 48.0817 156.177 47.5983 156.777 47.231C157.395 46.8637 158.062 46.68 158.778 46.68H168.116V50.479H158.923C158.826 50.479 158.739 50.5177 158.662 50.595C158.604 50.653 158.575 50.7303 158.575 50.827V63.5H154.776ZM172.45 69.735V65.907H182.571C182.668 65.907 182.745 65.8683 182.803 65.791C182.88 65.733 182.919 65.6557 182.919 65.559V63.5H173.639C172.924 63.5 172.257 63.3163 171.638 62.949C171.039 62.5817 170.555 62.0983 170.188 61.499C169.821 60.8997 169.637 60.2327 169.637 59.498V46.738H173.436V59.353C173.436 59.4497 173.465 59.5367 173.523 59.614C173.6 59.672 173.687 59.701 173.784 59.701H182.571C182.668 59.701 182.745 59.672 182.803 59.614C182.88 59.5367 182.919 59.4497 182.919 59.353V46.738H186.718V65.733C186.718 66.4677 186.544 67.1347 186.196 67.734C185.848 68.3527 185.365 68.836 184.746 69.184C184.147 69.5513 183.48 69.735 182.745 69.735H172.45Z" fill="#1E293B"/>
<path d="M638 36.5C638 34.2909 639.791 32.5 642 32.5H1114C1116.21 32.5 1118 34.2909 1118 36.5V67.5C1118 69.7091 1116.21 71.5 1114 71.5H642C639.791 71.5 638 69.7091 638 67.5V36.5Z" fill="#F9FAFC"/>
<path d="M667.917 55.835C666.264 55.835 664.864 55.2621 663.719 54.1162C662.574 52.9703 662.001 51.5708 662 49.9175C661.999 48.2642 662.572 46.8647 663.719 45.7188C664.865 44.5729 666.265 44 667.917 44C669.57 44 670.97 44.5729 672.117 45.7188C673.264 46.8647 673.837 48.2642 673.835 49.9175C673.835 50.5851 673.729 51.2148 673.516 51.8065C673.304 52.3983 673.016 52.9218 672.651 53.377L677.75 58.4751C677.917 58.642 678 58.8544 678 59.1124C678 59.3703 677.917 59.5827 677.75 59.7496C677.583 59.9165 677.37 60 677.112 60C676.854 60 676.642 59.9165 676.475 59.7496L671.377 54.6515C670.922 55.0156 670.398 55.3039 669.807 55.5164C669.215 55.7288 668.585 55.835 667.917 55.835ZM667.917 54.0142C669.055 54.0142 670.023 53.6161 670.82 52.8198C671.617 52.0235 672.015 51.0561 672.014 49.9175C672.014 48.7789 671.615 47.8118 670.82 47.0161C670.024 46.2204 669.057 45.822 667.917 45.8208C666.778 45.8196 665.811 46.218 665.016 47.0161C664.221 47.8142 663.823 48.7813 663.821 49.9175C663.819 51.0537 664.217 52.0211 665.016 52.8198C665.815 53.6185 666.782 54.0167 667.917 54.0142Z" fill="#A9ACB9"/>
<path d="M696.128 57.66C694.795 57.66 693.723 57.4893 692.912 57.148V55.612C693.371 55.7827 693.861 55.9213 694.384 56.028C694.917 56.1347 695.445 56.188 695.968 56.188C696.789 56.188 697.403 56.092 697.808 55.9C698.224 55.708 698.432 55.324 698.432 54.748C698.432 54.396 698.347 54.1133 698.176 53.9C698.005 53.6867 697.723 53.5053 697.328 53.356C696.933 53.196 696.389 53.0307 695.696 52.86C694.587 52.572 693.808 52.2093 693.36 51.772C692.912 51.324 692.688 50.7107 692.688 49.932C692.688 49.0253 693.019 48.316 693.68 47.804C694.341 47.292 695.328 47.036 696.64 47.036C697.237 47.036 697.797 47.0787 698.32 47.164C698.853 47.2493 699.269 47.3453 699.568 47.452V48.988C698.757 48.6787 697.861 48.524 696.88 48.524C696.112 48.524 695.515 48.6253 695.088 48.828C694.661 49.0307 694.448 49.3987 694.448 49.932C694.448 50.2413 694.523 50.492 694.672 50.684C694.821 50.876 695.077 51.0413 695.44 51.18C695.813 51.3187 696.325 51.4733 696.976 51.644C697.819 51.8573 698.469 52.1133 698.928 52.412C699.397 52.7 699.723 53.0413 699.904 53.436C700.096 53.82 700.192 54.2573 700.192 54.748C700.192 55.6547 699.856 56.3693 699.184 56.892C698.512 57.404 697.493 57.66 696.128 57.66ZM705.723 57.66C704.4 57.66 703.376 57.3347 702.651 56.684C701.926 56.0333 701.563 55.036 701.563 53.692C701.563 52.476 701.872 51.516 702.491 50.812C703.11 50.108 704.048 49.756 705.307 49.756C706.459 49.756 707.323 50.06 707.899 50.668C708.486 51.2653 708.779 52.0387 708.779 52.988V54.396H703.227C703.312 55.132 703.579 55.6387 704.027 55.916C704.475 56.1933 705.158 56.332 706.075 56.332C706.459 56.332 706.854 56.2947 707.259 56.22C707.664 56.1453 708.016 56.0493 708.315 55.932V57.212C707.974 57.3613 707.579 57.4733 707.131 57.548C706.694 57.6227 706.224 57.66 705.723 57.66ZM703.227 53.26H707.243V52.732C707.243 52.2093 707.099 51.804 706.811 51.516C706.523 51.2173 706.038 51.068 705.355 51.068C704.544 51.068 703.984 51.244 703.675 51.596C703.376 51.948 703.227 52.5027 703.227 53.26ZM712.845 57.66C712.365 57.66 711.917 57.5747 711.501 57.404C711.095 57.2333 710.77 56.9773 710.525 56.636C710.279 56.284 710.157 55.852 710.157 55.34C710.157 54.6147 710.402 54.0333 710.893 53.596C711.394 53.148 712.162 52.924 713.197 52.924H715.629V52.588C715.629 52.2253 715.57 51.9373 715.453 51.724C715.346 51.5107 715.143 51.356 714.845 51.26C714.557 51.164 714.13 51.116 713.565 51.116C712.669 51.116 711.831 51.2493 711.053 51.516V50.22C711.394 50.0813 711.81 49.9693 712.301 49.884C712.791 49.7987 713.319 49.756 713.885 49.756C714.994 49.756 715.837 49.98 716.413 50.428C716.999 50.876 717.293 51.6067 717.293 52.62V57.5H715.805L715.693 56.732C715.383 57.0307 714.999 57.26 714.541 57.42C714.093 57.58 713.527 57.66 712.845 57.66ZM713.309 56.412C713.831 56.412 714.285 56.3267 714.669 56.156C715.063 55.9747 715.383 55.7347 715.629 55.436V54.108H713.229C712.717 54.108 712.343 54.2093 712.109 54.412C711.885 54.604 711.773 54.9027 711.773 55.308C711.773 55.7027 711.906 55.9853 712.173 56.156C712.439 56.3267 712.818 56.412 713.309 56.412ZM719.227 57.5V49.916H720.827L720.923 50.796C721.285 50.5613 721.717 50.348 722.219 50.156C722.72 49.964 723.216 49.8307 723.707 49.756V51.084C723.408 51.1373 723.083 51.2173 722.731 51.324C722.389 51.42 722.064 51.532 721.755 51.66C721.445 51.7773 721.184 51.9 720.971 52.028V57.5H719.227ZM728.392 57.66C727.059 57.66 726.051 57.324 725.368 56.652C724.686 55.9693 724.344 54.988 724.344 53.708C724.344 52.3747 724.718 51.3827 725.464 50.732C726.222 50.0813 727.23 49.756 728.488 49.756C729.011 49.756 729.448 49.7933 729.8 49.868C730.163 49.9427 730.51 50.06 730.84 50.22V51.516C730.286 51.2387 729.614 51.1 728.824 51.1C727.95 51.1 727.278 51.2973 726.808 51.692C726.339 52.076 726.104 52.748 726.104 53.708C726.104 54.6147 726.312 55.2813 726.728 55.708C727.144 56.124 727.832 56.332 728.792 56.332C729.55 56.332 730.238 56.188 730.856 55.9V57.228C730.504 57.3667 730.126 57.4733 729.72 57.548C729.326 57.6227 728.883 57.66 728.392 57.66ZM732.242 57.5V46.716H733.986V50.652C734.317 50.3853 734.712 50.172 735.17 50.012C735.629 49.8413 736.146 49.756 736.722 49.756C737.682 49.756 738.392 49.9853 738.85 50.444C739.309 50.9027 739.538 51.6173 739.538 52.588V57.5H737.81V52.668C737.81 52.0813 737.682 51.6707 737.426 51.436C737.181 51.2013 736.749 51.084 736.13 51.084C735.746 51.084 735.357 51.1693 734.962 51.34C734.568 51.5 734.242 51.7133 733.986 51.98V57.5H732.242Z" fill="#A9ACB9"/>
<path d="M1089.91 52L1093.6 48.3044C1094.13 47.7772 1094.13 46.9225 1093.6 46.3954C1093.08 45.8682 1092.22 45.8682 1091.7 46.3954L1088 50.091L1084.3 46.3954C1083.78 45.8682 1082.92 45.8682 1082.4 46.3954C1081.87 46.9225 1081.87 47.7772 1082.4 48.3044L1086.09 52L1082.4 55.6956C1081.87 56.2228 1081.87 57.0775 1082.4 57.6046C1082.66 57.8682 1083 58 1083.35 58C1083.7 58 1084.04 57.8682 1084.3 57.6046L1088 53.909L1091.7 57.6046C1091.96 57.8682 1092.3 58 1092.65 58C1093 58 1093.34 57.8682 1093.6 57.6046C1094.13 57.0775 1094.13 56.2228 1093.6 55.6956L1089.91 52Z" fill="#A9ACB9"/>
<path d="M1567 36C1567 33.7909 1568.79 32 1571 32H1644C1646.21 32 1648 33.7909 1648 36V68C1648 70.2091 1646.21 72 1644 72H1571C1568.79 72 1567 70.2091 1567 68V36Z" fill="#1E293B"/>
<path d="M1590 51H1595V53H1590V58H1588V53H1583V51H1588V46H1590V51Z" fill="white"/>
<g clip-path="url(#clip0_897_3057)">
<path d="M1603.73 57.5L1607.66 47.196H1609.62L1613.52 57.5H1611.73L1610.7 54.844H1606.56L1605.54 57.5H1603.73ZM1606.83 53.5H1610.42L1608.62 48.78L1606.83 53.5ZM1617.65 57.66C1616.97 57.66 1616.37 57.5427 1615.84 57.308C1615.32 57.0733 1614.92 56.684 1614.63 56.14C1614.34 55.596 1614.2 54.8653 1614.2 53.948C1614.2 53.0413 1614.35 52.2787 1614.66 51.66C1614.97 51.0307 1615.4 50.556 1615.94 50.236C1616.49 49.916 1617.12 49.756 1617.81 49.756C1618.27 49.756 1618.68 49.8093 1619.03 49.916C1619.39 50.0227 1619.74 50.188 1620.07 50.412V46.716H1621.81V57.5H1620.32L1620.21 56.748C1619.87 57.0573 1619.5 57.2867 1619.09 57.436C1618.69 57.5853 1618.21 57.66 1617.65 57.66ZM1618.12 56.348C1618.89 56.348 1619.55 56.0813 1620.07 55.548V51.756C1619.57 51.308 1618.94 51.084 1618.18 51.084C1617.44 51.084 1616.89 51.3293 1616.52 51.82C1616.14 52.3107 1615.96 53.0253 1615.96 53.964C1615.96 54.8707 1616.13 55.4947 1616.47 55.836C1616.82 56.1773 1617.37 56.348 1618.12 56.348ZM1626.81 57.66C1626.13 57.66 1625.52 57.5427 1625 57.308C1624.48 57.0733 1624.07 56.684 1623.78 56.14C1623.5 55.596 1623.35 54.8653 1623.35 53.948C1623.35 53.0413 1623.51 52.2787 1623.82 51.66C1624.13 51.0307 1624.55 50.556 1625.1 50.236C1625.65 49.916 1626.27 49.756 1626.97 49.756C1627.43 49.756 1627.83 49.8093 1628.18 49.916C1628.55 50.0227 1628.89 50.188 1629.22 50.412V46.716H1630.97V57.5H1629.48L1629.37 56.748C1629.03 57.0573 1628.65 57.2867 1628.25 57.436C1627.84 57.5853 1627.36 57.66 1626.81 57.66ZM1627.27 56.348C1628.05 56.348 1628.7 56.0813 1629.22 55.548V51.756C1628.72 51.308 1628.09 51.084 1627.34 51.084C1626.6 51.084 1626.05 51.3293 1625.67 51.82C1625.3 52.3107 1625.11 53.0253 1625.11 53.964C1625.11 54.8707 1625.28 55.4947 1625.62 55.836C1625.98 56.1773 1626.53 56.348 1627.27 56.348Z" fill="white"/>
</g>
<defs>
<clipPath id="clip0_897_3057">
<rect width="29" height="19" fill="white" transform="translate(1603 42.5)"/>
</clipPath>
</defs>
</svg>
