<svg width="322" height="317" viewBox="0 0 322 317" fill="none" xmlns="http://www.w3.org/2000/svg">
<g filter="url(#filter0_d_1325_4948)">
<path d="M21 17C21 12.5817 24.5817 9 29 9H293C297.418 9 301 12.5817 301 17V276C301 280.418 297.418 284 293 284H29C24.5817 284 21 280.418 21 276V17Z" fill="white"/>
<path d="M29 9.5H293C297.142 9.5 300.5 12.8579 300.5 17V276C300.5 280.142 297.142 283.5 293 283.5H29C24.8579 283.5 21.5 280.142 21.5 276V17C21.5 12.8579 24.8579 9.5 29 9.5Z" stroke="#ECEDF1"/>
<path d="M127.508 74.2C126.308 74.2 125.261 74.0067 124.368 73.62C123.488 73.2333 122.801 72.66 122.308 71.9C121.828 71.14 121.588 70.2067 121.588 69.1V61.12H124.808V68.8C124.808 69.6933 125.041 70.36 125.508 70.8C125.975 71.24 126.641 71.46 127.508 71.46C128.375 71.46 129.041 71.24 129.508 70.8C129.975 70.36 130.208 69.6933 130.208 68.8V61.12H133.428V69.1C133.428 70.2067 133.181 71.14 132.688 71.9C132.208 72.66 131.521 73.2333 130.628 73.62C129.748 74.0067 128.708 74.2 127.508 74.2ZM135.36 74V64.52H138.36L138.46 65.34C138.847 65.0733 139.333 64.84 139.92 64.64C140.507 64.4267 141.133 64.32 141.8 64.32C143.027 64.32 143.92 64.6133 144.48 65.2C145.04 65.7867 145.32 66.6933 145.32 67.92V74H142.1V68.18C142.1 67.6467 141.987 67.2667 141.76 67.04C141.533 66.8133 141.127 66.7 140.54 66.7C140.193 66.7 139.84 66.78 139.48 66.94C139.12 67.1 138.82 67.3 138.58 67.54V74H135.36ZM147.894 63.02V60.6H151.394V63.02H147.894ZM148.154 74V66.9H146.754L147.034 64.52H151.374V74H148.154ZM157.326 74.2C156.153 74.2 155.286 73.9 154.726 73.3C154.18 72.7 153.906 71.8733 153.906 70.82V66.96H152.626V64.52H153.906V62.54L157.126 61.68V64.52H159.426L159.286 66.96H157.126V70.6C157.126 71.0533 157.24 71.3733 157.466 71.56C157.693 71.7333 158.033 71.82 158.486 71.82C158.873 71.82 159.266 71.7533 159.666 71.62V73.8C159.04 74.0667 158.26 74.2 157.326 74.2ZM169.304 74.2C168.45 74.2 167.65 74.1333 166.904 74C166.17 73.88 165.537 73.7 165.004 73.46V70.72C165.59 70.9733 166.237 71.18 166.944 71.34C167.664 71.5 168.344 71.58 168.984 71.58C169.784 71.58 170.377 71.5067 170.764 71.36C171.164 71.2133 171.364 70.8933 171.364 70.4C171.364 70.0667 171.264 69.8 171.064 69.6C170.877 69.4 170.564 69.2267 170.124 69.08C169.697 68.92 169.11 68.7333 168.364 68.52C167.484 68.2533 166.784 67.96 166.264 67.64C165.744 67.3067 165.37 66.9067 165.144 66.44C164.917 65.9733 164.804 65.4 164.804 64.72C164.804 63.4933 165.244 62.5533 166.124 61.9C167.004 61.2467 168.304 60.92 170.024 60.92C170.77 60.92 171.497 60.98 172.204 61.1C172.91 61.2067 173.484 61.3333 173.924 61.48V64.24C173.35 64.0133 172.77 63.8467 172.184 63.74C171.61 63.6333 171.05 63.58 170.504 63.58C169.784 63.58 169.197 63.6467 168.744 63.78C168.304 63.9133 168.084 64.22 168.084 64.7C168.084 64.98 168.164 65.2067 168.324 65.38C168.484 65.54 168.757 65.6867 169.144 65.82C169.544 65.9533 170.084 66.1133 170.764 66.3C171.817 66.58 172.624 66.92 173.184 67.32C173.744 67.7067 174.13 68.16 174.344 68.68C174.557 69.1867 174.664 69.76 174.664 70.4C174.664 71.5333 174.224 72.4533 173.344 73.16C172.464 73.8533 171.117 74.2 169.304 74.2ZM176.43 63.02V60.6H179.93V63.02H176.43ZM176.69 74V66.9H175.29L175.57 64.52H179.91V74H176.69ZM181.561 74V72.28L185.941 67.08H181.721V64.52H190.021V66.4L185.741 71.52H190.161V74H181.561ZM196.495 74.2C194.841 74.2 193.515 73.7933 192.515 72.98C191.515 72.1533 191.015 70.9133 191.015 69.26C191.015 67.7533 191.428 66.5533 192.255 65.66C193.081 64.7667 194.321 64.32 195.975 64.32C197.481 64.32 198.648 64.7067 199.475 65.48C200.301 66.2533 200.715 67.2933 200.715 68.6V70.3H193.995C194.141 70.9267 194.481 71.3667 195.015 71.62C195.561 71.86 196.301 71.98 197.235 71.98C197.755 71.98 198.281 71.9333 198.815 71.84C199.361 71.7467 199.815 71.6267 200.175 71.48V73.58C199.721 73.7933 199.181 73.9467 198.555 74.04C197.928 74.1467 197.241 74.2 196.495 74.2ZM193.995 68.44H197.915V68.02C197.915 67.5533 197.775 67.1867 197.495 66.92C197.215 66.64 196.741 66.5 196.075 66.5C195.301 66.5 194.761 66.66 194.455 66.98C194.148 67.2867 193.995 67.7733 193.995 68.44Z" fill="#1E293B"/>
<path d="M73 116.5H249C250.933 116.5 252.5 118.067 252.5 120V152C252.5 153.933 250.933 155.5 249 155.5H73C71.067 155.5 69.5 153.933 69.5 152V120C69.5 118.067 71.067 116.5 73 116.5Z" fill="white"/>
<path d="M73 116.5H249C250.933 116.5 252.5 118.067 252.5 120V152C252.5 153.933 250.933 155.5 249 155.5H73C71.067 155.5 69.5 153.933 69.5 152V120C69.5 118.067 71.067 116.5 73 116.5Z" stroke="#ECEDF1"/>
<path d="M157.176 142.16C155.853 142.16 154.829 141.835 154.104 141.184C153.379 140.533 153.016 139.536 153.016 138.192C153.016 136.976 153.325 136.016 153.944 135.312C154.563 134.608 155.501 134.256 156.76 134.256C157.912 134.256 158.776 134.56 159.352 135.168C159.939 135.765 160.232 136.539 160.232 137.488V138.896H154.68C154.765 139.632 155.032 140.139 155.48 140.416C155.928 140.693 156.611 140.832 157.528 140.832C157.912 140.832 158.307 140.795 158.712 140.72C159.117 140.645 159.469 140.549 159.768 140.432V141.712C159.427 141.861 159.032 141.973 158.584 142.048C158.147 142.123 157.677 142.16 157.176 142.16ZM154.68 137.76H158.696V137.232C158.696 136.709 158.552 136.304 158.264 136.016C157.976 135.717 157.491 135.568 156.808 135.568C155.997 135.568 155.437 135.744 155.128 136.096C154.829 136.448 154.68 137.003 154.68 137.76ZM164.298 142.16C163.818 142.16 163.37 142.075 162.954 141.904C162.549 141.733 162.223 141.477 161.978 141.136C161.733 140.784 161.61 140.352 161.61 139.84C161.61 139.115 161.855 138.533 162.346 138.096C162.847 137.648 163.615 137.424 164.65 137.424H167.082V137.088C167.082 136.725 167.023 136.437 166.906 136.224C166.799 136.011 166.597 135.856 166.298 135.76C166.01 135.664 165.583 135.616 165.018 135.616C164.122 135.616 163.285 135.749 162.506 136.016V134.72C162.847 134.581 163.263 134.469 163.754 134.384C164.245 134.299 164.773 134.256 165.338 134.256C166.447 134.256 167.29 134.48 167.866 134.928C168.453 135.376 168.746 136.107 168.746 137.12V142H167.258L167.146 141.232C166.837 141.531 166.453 141.76 165.994 141.92C165.546 142.08 164.981 142.16 164.298 142.16ZM164.762 140.912C165.285 140.912 165.738 140.827 166.122 140.656C166.517 140.475 166.837 140.235 167.082 139.936V138.608H164.682C164.17 138.608 163.797 138.709 163.562 138.912C163.338 139.104 163.226 139.403 163.226 139.808C163.226 140.203 163.359 140.485 163.626 140.656C163.893 140.827 164.271 140.912 164.762 140.912Z" fill="#1E293B"/>
<path d="M223.527 133.763L230 140.237L236.473 133.763" stroke="#A9ACB9" stroke-width="3" stroke-linecap="round" stroke-linejoin="round"/>
<path d="M75.5 196.5H150.5C152.433 196.5 154 198.067 154 200V232C154 233.933 152.433 235.5 150.5 235.5H75.5C73.567 235.5 72 233.933 72 232V200C72 198.067 73.567 196.5 75.5 196.5Z" fill="white"/>
<path d="M75.5 196.5H150.5C152.433 196.5 154 198.067 154 200V232C154 233.933 152.433 235.5 150.5 235.5H75.5C73.567 235.5 72 233.933 72 232V200C72 198.067 73.567 196.5 75.5 196.5Z" stroke="#ECEDF1"/>
<g clip-path="url(#clip0_1325_4948)">
<path d="M94.8166 221.66C93.1206 221.66 91.8352 221.196 90.9606 220.268C90.0966 219.34 89.6646 218.087 89.6646 216.508C89.6646 215.377 89.8459 214.407 90.2086 213.596C90.5819 212.775 91.1472 212.145 91.9046 211.708C92.6619 211.26 93.6272 211.036 94.8006 211.036C95.3979 211.036 95.9419 211.084 96.4326 211.18C96.9339 211.265 97.3979 211.383 97.8246 211.532V213.052C97.3979 212.881 96.9392 212.753 96.4486 212.668C95.9686 212.572 95.4619 212.524 94.9286 212.524C93.6486 212.524 92.7419 212.865 92.2086 213.548C91.6859 214.231 91.4246 215.217 91.4246 216.508C91.4246 217.713 91.7126 218.631 92.2886 219.26C92.8646 219.879 93.7552 220.188 94.9606 220.188C95.4512 220.188 95.9419 220.151 96.4326 220.076C96.9339 219.991 97.4032 219.863 97.8406 219.692V221.228C97.4139 221.367 96.9499 221.473 96.4486 221.548C95.9579 221.623 95.4139 221.66 94.8166 221.66ZM101.899 221.66C101.419 221.66 100.971 221.575 100.555 221.404C100.15 221.233 99.8248 220.977 99.5794 220.636C99.3341 220.284 99.2114 219.852 99.2114 219.34C99.2114 218.615 99.4568 218.033 99.9474 217.596C100.449 217.148 101.217 216.924 102.251 216.924H104.683V216.588C104.683 216.225 104.625 215.937 104.507 215.724C104.401 215.511 104.198 215.356 103.899 215.26C103.611 215.164 103.185 215.116 102.619 215.116C101.723 215.116 100.886 215.249 100.107 215.516V214.22C100.449 214.081 100.865 213.969 101.355 213.884C101.846 213.799 102.374 213.756 102.939 213.756C104.049 213.756 104.891 213.98 105.467 214.428C106.054 214.876 106.347 215.607 106.347 216.62V221.5H104.859L104.747 220.732C104.438 221.031 104.054 221.26 103.595 221.42C103.147 221.58 102.582 221.66 101.899 221.66ZM102.363 220.412C102.886 220.412 103.339 220.327 103.723 220.156C104.118 219.975 104.438 219.735 104.683 219.436V218.108H102.283C101.771 218.108 101.398 218.209 101.163 218.412C100.939 218.604 100.827 218.903 100.827 219.308C100.827 219.703 100.961 219.985 101.227 220.156C101.494 220.327 101.873 220.412 102.363 220.412ZM108.281 221.5V213.916H109.881L109.961 214.716C110.303 214.449 110.708 214.225 111.177 214.044C111.657 213.852 112.185 213.756 112.761 213.756C113.743 213.756 114.457 213.985 114.905 214.444C115.353 214.903 115.577 215.617 115.577 216.588V221.5H113.849V216.668C113.849 216.081 113.727 215.671 113.481 215.436C113.247 215.201 112.799 215.084 112.137 215.084C111.743 215.084 111.353 215.164 110.969 215.324C110.596 215.484 110.281 215.692 110.025 215.948V221.5H108.281ZM121.103 221.66C119.77 221.66 118.762 221.324 118.079 220.652C117.397 219.969 117.055 218.988 117.055 217.708C117.055 216.375 117.429 215.383 118.175 214.732C118.933 214.081 119.941 213.756 121.199 213.756C121.722 213.756 122.159 213.793 122.511 213.868C122.874 213.943 123.221 214.06 123.551 214.22V215.516C122.997 215.239 122.325 215.1 121.535 215.1C120.661 215.1 119.989 215.297 119.519 215.692C119.05 216.076 118.815 216.748 118.815 217.708C118.815 218.615 119.023 219.281 119.439 219.708C119.855 220.124 120.543 220.332 121.503 220.332C122.261 220.332 122.949 220.188 123.567 219.9V221.228C123.215 221.367 122.837 221.473 122.431 221.548C122.037 221.623 121.594 221.66 121.103 221.66ZM128.793 221.66C127.471 221.66 126.447 221.335 125.721 220.684C124.996 220.033 124.633 219.036 124.633 217.692C124.633 216.476 124.943 215.516 125.561 214.812C126.18 214.108 127.119 213.756 128.377 213.756C129.529 213.756 130.393 214.06 130.969 214.668C131.556 215.265 131.849 216.039 131.849 216.988V218.396H126.297C126.383 219.132 126.649 219.639 127.097 219.916C127.545 220.193 128.228 220.332 129.145 220.332C129.529 220.332 129.924 220.295 130.329 220.22C130.735 220.145 131.087 220.049 131.385 219.932V221.212C131.044 221.361 130.649 221.473 130.201 221.548C129.764 221.623 129.295 221.66 128.793 221.66ZM126.297 217.26H130.313V216.732C130.313 216.209 130.169 215.804 129.881 215.516C129.593 215.217 129.108 215.068 128.425 215.068C127.615 215.068 127.055 215.244 126.745 215.596C126.447 215.948 126.297 216.503 126.297 217.26ZM135.435 221.66C134.816 221.66 134.347 221.511 134.027 221.212C133.707 220.903 133.547 220.396 133.547 219.692V210.716H135.291V219.532C135.291 219.831 135.344 220.033 135.451 220.14C135.558 220.247 135.718 220.3 135.931 220.3C136.187 220.3 136.432 220.268 136.667 220.204V221.468C136.464 221.543 136.267 221.591 136.075 221.612C135.894 221.644 135.68 221.66 135.435 221.66Z" fill="#A9ACB9"/>
</g>
<path d="M162.5 200C162.5 197.791 164.291 196 166.5 196H246.5C248.709 196 250.5 197.791 250.5 200V232C250.5 234.209 248.709 236 246.5 236H166.5C164.291 236 162.5 234.209 162.5 232V200Z" fill="#1E293B"/>
<g clip-path="url(#clip1_1325_4948)">
<path d="M184.348 221.66C182.652 221.66 181.366 221.196 180.492 220.268C179.628 219.34 179.196 218.087 179.196 216.508C179.196 215.377 179.377 214.407 179.74 213.596C180.113 212.775 180.678 212.145 181.436 211.708C182.193 211.26 183.158 211.036 184.332 211.036C184.929 211.036 185.473 211.084 185.964 211.18C186.465 211.265 186.929 211.383 187.356 211.532V213.052C186.929 212.881 186.47 212.753 185.98 212.668C185.5 212.572 184.993 212.524 184.46 212.524C183.18 212.524 182.273 212.865 181.74 213.548C181.217 214.231 180.956 215.217 180.956 216.508C180.956 217.713 181.244 218.631 181.82 219.26C182.396 219.879 183.286 220.188 184.492 220.188C184.982 220.188 185.473 220.151 185.964 220.076C186.465 219.991 186.934 219.863 187.372 219.692V221.228C186.945 221.367 186.481 221.473 185.98 221.548C185.489 221.623 184.945 221.66 184.348 221.66ZM192.648 221.66C191.282 221.66 190.28 221.319 189.64 220.636C189.01 219.953 188.696 218.977 188.696 217.708C188.696 216.439 189.016 215.463 189.656 214.78C190.296 214.097 191.293 213.756 192.648 213.756C194.013 213.756 195.016 214.097 195.656 214.78C196.296 215.463 196.616 216.439 196.616 217.708C196.616 218.977 196.296 219.953 195.656 220.636C195.026 221.319 194.024 221.66 192.648 221.66ZM192.648 220.188C193.448 220.188 194.013 219.996 194.344 219.612C194.685 219.217 194.856 218.583 194.856 217.708C194.856 216.833 194.685 216.204 194.344 215.82C194.013 215.436 193.448 215.244 192.648 215.244C191.858 215.244 191.293 215.436 190.952 215.82C190.621 216.204 190.456 216.833 190.456 217.708C190.456 218.583 190.621 219.217 190.952 219.612C191.293 219.996 191.858 220.188 192.648 220.188ZM198.313 221.5V213.916H199.913L199.993 214.716C200.334 214.449 200.739 214.225 201.209 214.044C201.689 213.852 202.217 213.756 202.793 213.756C203.774 213.756 204.489 213.985 204.937 214.444C205.385 214.903 205.609 215.617 205.609 216.588V221.5H203.881V216.668C203.881 216.081 203.758 215.671 203.513 215.436C203.278 215.201 202.83 215.084 202.169 215.084C201.774 215.084 201.385 215.164 201.001 215.324C200.627 215.484 200.313 215.692 200.057 215.948V221.5H198.313ZM208.027 221.5V215.276H206.923V213.916H208.027V213.132C208.027 212.609 208.149 212.151 208.395 211.756C208.651 211.351 209.003 211.036 209.451 210.812C209.909 210.577 210.443 210.46 211.051 210.46C211.424 210.46 211.776 210.487 212.107 210.54C212.437 210.583 212.709 210.647 212.923 210.732V212.028C212.784 211.964 212.581 211.916 212.315 211.884C212.048 211.852 211.797 211.836 211.563 211.836C210.944 211.836 210.485 211.943 210.187 212.156C209.899 212.369 209.755 212.705 209.755 213.164V213.916H214.027V221.5H212.283V215.276H209.755V221.5H208.027ZM216.047 221.5V213.916H217.647L217.743 214.796C218.106 214.561 218.538 214.348 219.039 214.156C219.54 213.964 220.036 213.831 220.527 213.756V215.084C220.228 215.137 219.903 215.217 219.551 215.324C219.21 215.42 218.884 215.532 218.575 215.66C218.266 215.777 218.004 215.9 217.791 216.028V221.5H216.047ZM221.797 221.5V213.916H223.397L223.477 214.716C223.85 214.417 224.261 214.183 224.709 214.012C225.157 213.841 225.637 213.756 226.149 213.756C226.693 213.756 227.114 213.847 227.413 214.028C227.722 214.199 227.957 214.439 228.117 214.748C228.469 214.46 228.874 214.225 229.333 214.044C229.792 213.852 230.341 213.756 230.981 213.756C231.856 213.756 232.501 213.98 232.917 214.428C233.333 214.876 233.541 215.564 233.541 216.492V221.5H231.829V216.668C231.829 216.081 231.706 215.671 231.461 215.436C231.216 215.201 230.816 215.084 230.261 215.084C229.898 215.084 229.552 215.148 229.221 215.276C228.901 215.404 228.624 215.596 228.389 215.852C228.421 215.969 228.442 216.092 228.453 216.22C228.464 216.348 228.469 216.487 228.469 216.636V221.5H226.853V216.684C226.853 216.129 226.757 215.724 226.565 215.468C226.373 215.212 226.01 215.084 225.477 215.084C225.104 215.084 224.746 215.175 224.405 215.356C224.074 215.527 223.776 215.735 223.509 215.98V221.5H221.797Z" fill="white"/>
</g>
</g>
<defs>
<filter id="filter0_d_1325_4948" x="0" y="0" width="322" height="317" filterUnits="userSpaceOnUse" color-interpolation-filters="sRGB">
<feFlood flood-opacity="0" result="BackgroundImageFix"/>
<feColorMatrix in="SourceAlpha" type="matrix" values="0 0 0 0 0 0 0 0 0 0 0 0 0 0 0 0 0 0 127 0" result="hardAlpha"/>
<feMorphology radius="3" operator="erode" in="SourceAlpha" result="effect1_dropShadow_1325_4948"/>
<feOffset dy="12"/>
<feGaussianBlur stdDeviation="12"/>
<feComposite in2="hardAlpha" operator="out"/>
<feColorMatrix type="matrix" values="0 0 0 0 0.213156 0 0 0 0 0.307035 0 0 0 0 0.509615 0 0 0 0.2 0"/>
<feBlend mode="normal" in2="BackgroundImageFix" result="effect1_dropShadow_1325_4948"/>
<feBlend mode="normal" in="SourceGraphic" in2="effect1_dropShadow_1325_4948" result="shape"/>
</filter>
<clipPath id="clip0_1325_4948">
<rect width="49" height="19" fill="white" transform="translate(88.5 206.5)"/>
</clipPath>
<clipPath id="clip1_1325_4948">
<rect width="56" height="19" fill="white" transform="translate(178.5 206.5)"/>
</clipPath>
</defs>
</svg>
